<?xml version="1.0" standalone="no"?>
<!DOCTYPE svg PUBLIC "-//W3C//DTD SVG 1.1//EN" "http://www.w3.org/Graphics/SVG/1.1/DTD/svg11.dtd" >
<svg>
<metadata>
Created by FontForge 20090914 at Sat Oct 17 16:43:19 2020
 By www-data
&#194;&#169; 2015 Apple Inc. All rights reserved.
</metadata>
<defs>
<font id="SFUIText-Light" horiz-adv-x="0" >
  <font-face 
    font-family="SF UI Text"
    font-weight="300"
    font-stretch="normal"
    units-per-em="2048"
    panose-1="0 0 4 0 0 0 0 0 0 0"
    ascent="1638"
    descent="-410"
    x-height="1077"
    cap-height="1443"
    bbox="-561 -549 2660 2138"
    underline-thickness="50"
    underline-position="-25"
    unicode-range="U+0020-U+FB02"
  />
<missing-glyph horiz-adv-x="1293" 
d="M119 1365h1053v-1365h-1053v1365zM533 236c22.667 -20 51.667 -30 87 -30c36.667 0 66.334 10 89.001 30c22 19.333 33 45 33 77c0 32.667 -11 58.667 -33 78c-22.667 20 -52.334 30 -89.001 30c-36 0 -65 -10 -87 -30s-33 -46 -33 -78c0 -31.333 11 -57 33 -77zM507 888
c0.666992 39.333 11.998 71 33.998 95c22.667 23.333 53 35 91 35c36 0 65 -10 87 -30s33 -46.667 33 -80c0 -25.333 -6.66699 -47.333 -20 -66c-14 -18 -41.667 -42 -83 -72c-85.333 -60 -124.666 -133.667 -117.999 -221l1 -18h166v15c0 32 6.33301 57.333 19 76
s42 44.334 88 77.001c88.667 64 133 136.667 133 218c0 75.333 -27 136 -81 182c-54 45.333 -125.667 68 -215 68c-95.333 0 -170.333 -25.333 -225 -76c-55.333 -50.667 -81.666 -118.334 -78.999 -203.001h169z" />
    <glyph glyph-name=".notdef" horiz-adv-x="1293" 
d="M119 1365h1053v-1365h-1053v1365zM533 236c22.667 -20 51.667 -30 87 -30c36.667 0 66.334 10 89.001 30c22 19.333 33 45 33 77c0 32.667 -11 58.667 -33 78c-22.667 20 -52.334 30 -89.001 30c-36 0 -65 -10 -87 -30s-33 -46 -33 -78c0 -31.333 11 -57 33 -77zM507 888
c0.666992 39.333 11.998 71 33.998 95c22.667 23.333 53 35 91 35c36 0 65 -10 87 -30s33 -46.667 33 -80c0 -25.333 -6.66699 -47.333 -20 -66c-14 -18 -41.667 -42 -83 -72c-85.333 -60 -124.666 -133.667 -117.999 -221l1 -18h166v15c0 32 6.33301 57.333 19 76
s42 44.334 88 77.001c88.667 64 133 136.667 133 218c0 75.333 -27 136 -81 182c-54 45.333 -125.667 68 -215 68c-95.333 0 -170.333 -25.333 -225 -76c-55.333 -50.667 -81.666 -118.334 -78.999 -203.001h169z" />
    <glyph glyph-name="space" unicode=" " horiz-adv-x="554" 
 />
    <glyph glyph-name="exclam" unicode="!" horiz-adv-x="617" 
d="M382 1444l-11 -987h-127l-12 987h150zM224 186c22.667 22 50.667 33 84 33s61 -11 83 -33c22 -22.667 33 -51 33 -85c0 -33.333 -11 -61.333 -33 -84c-22 -22 -49.667 -33 -83 -33s-61.333 11 -84 33c-22 22.667 -33 50.667 -33 84c0 34 11 62.333 33 85z" />
    <glyph glyph-name="quotedbl" unicode="&#x22;" horiz-adv-x="802" 
d="M172 935v508h123v-508h-123zM505 935v508h123v-508h-123z" />
    <glyph glyph-name="numbersign" unicode="#" horiz-adv-x="1316" 
d="M972 918l-77 -381h234l-23 -111h-233l-88 -426h-112l88 426h-339l-88 -426h-111l87 426h-229l23 111h230l76 381h-225l22 110h226l86 417h111l-85 -417h339l86 417h112l-87 -417h238l-23 -110h-238zM444 535h341l77 384h-342z" />
    <glyph glyph-name="dollar" unicode="$" horiz-adv-x="1321" 
d="M609 -150l-0.000976562 141.002c-135.333 8.66699 -245.333 50 -330 124c-85.333 73.333 -128.666 165.333 -129.999 276h130c5.33301 -76 38.333 -139.667 99 -191c60 -51.333 137 -81.333 231 -90v579l-55 15c-246.667 62.667 -370 186.334 -370 371.001
c0 107.333 38.667 196.333 116 267c77.333 70 180.333 109.667 309 119v138h104v-137c124 -9.33301 225.667 -49 305 -119c80 -71.333 121.333 -159 124 -263h-130c-2.66699 69.333 -32 128.666 -88 177.999s-126.333 77.666 -211 84.999v-544l59 -15
c140 -34.667 241.333 -83 304 -145c62.667 -60.667 94 -142 94 -244c0 -114.667 -41 -208.334 -123 -281.001c-82.667 -72 -194 -112.667 -334 -122v-142h-104zM961.999 563.002c-50.667 44 -133.668 79 -249.001 105v-560c98.667 4.66699 177.334 32 236.001 82
c59.333 50.667 89 115.667 89 195c0 74.667 -25.333 134 -76 178zM608.998 822.002v520.999c-84.667 -4 -154.667 -30.667 -210 -80c-56 -49.333 -84 -109.666 -84 -180.999c0 -130 98 -216.667 294 -260z" />
    <glyph glyph-name="percent" unicode="%" horiz-adv-x="1610" 
d="M1337 146c32 44 47.998 101.999 47.998 173.999c0 72.667 -15.667 130.334 -47 173.001c-31.333 43.333 -73.666 65 -126.999 65s-96 -21.667 -128 -65s-48 -101 -48 -173c0 -72.667 16 -131 48 -175c32.667 -44 75.334 -66 128.001 -66c52 0 94 22.333 126 67z
M995.998 73.999c-56 63.333 -84 145.334 -84 246.001c0 99.333 28 180.666 84 243.999c55.333 63.333 127 95 215 95c87.333 0 158.666 -31.333 213.999 -94c55.333 -63.333 83 -145 83 -245c0 -100.667 -27.667 -182.667 -83 -246s-126.666 -95 -213.999 -95
c-88 0 -159.667 31.667 -215 95zM182.998 879c-55.333 63.333 -83 145.334 -83 246.001c0 99.333 27.667 180.666 83 243.999c56 63.333 127.667 95 215 95s159 -31.333 215 -94c55.333 -63.333 83 -145 83 -245c0 -100.667 -27.667 -182.667 -83 -246
c-56 -63.333 -127.667 -95 -215 -95s-159 31.667 -215 95zM202.998 0.000976562l1065 1443h141l-1063 -1443h-143zM523.998 951.001c32 44 47.999 102 47.999 174c0 72.667 -15.667 130.667 -47 174s-73.666 65 -126.999 65c-52.667 0 -95 -21.667 -127 -65
c-32 -44 -48 -102 -48 -174c0 -72.667 16 -130.667 48 -174c32 -44 74.333 -66 127 -66c52 0 94 22 126 66z" />
    <glyph glyph-name="ampersand" unicode="&#x26;" horiz-adv-x="1472" 
d="M1074 168c-132 -128.667 -291.667 -192.999 -479 -192.999c-139.333 0 -253.333 37.667 -342 113c-88 74.667 -132 171 -132 289c0 162 93.667 292.667 281 392l77 40c-131.333 134.667 -197 251 -197 349c0 89.333 34.333 164 103 224c68 60 153 90 255 90
s186.667 -29.667 254 -89c66.667 -59.333 100 -134.333 100 -225c0 -72.667 -25 -138.334 -75 -197.001c-52 -60 -136.333 -120 -253 -180l400 -427c61.333 108.667 92 243 92 403v46h128v-46c0 -199.333 -43.333 -364.333 -130 -495l248 -262h-172zM257 385.001
c0 -85.333 32.334 -155.334 97.001 -210.001c64.667 -55.333 148.667 -83 252 -83c158 0 286.333 54.333 385 163l-436 469c9.33301 4 -15.334 -8.66699 -74.001 -38c-149.333 -77.333 -224 -177.666 -224 -300.999zM865.001 1153c0 60.667 -21.333 110.666 -64 149.999
c-42 39.333 -95.667 59 -161 59c-64 0 -117.667 -20 -161 -60c-44 -40.667 -66 -91 -66 -151c0 -75.333 59.333 -172.666 178 -291.999c182.667 91.333 274 189.333 274 294z" />
    <glyph glyph-name="quotesingle" unicode="'" horiz-adv-x="469" 
d="M172 935v508h123v-508h-123z" />
    <glyph glyph-name="parenleft" unicode="(" horiz-adv-x="711" 
d="M457 -268c-180 226.667 -269.999 515.667 -269.999 867c0 326 92.333 607 277 843h114c-76.667 -94 -138.334 -218 -185.001 -372c-47.333 -154.667 -71 -311.667 -71 -471c0 -304.667 84.667 -593.667 254 -867h-119z" />
    <glyph glyph-name="parenright" unicode=")" horiz-adv-x="711" 
d="M132 -268c169.333 273.333 254.001 562.333 254.001 867c0 160 -23.333 317 -70 471s-108.334 278 -185.001 372h115c183.333 -234.667 275 -515.667 275 -843c0 -350.667 -89.667 -639.667 -269 -867h-120z" />
    <glyph glyph-name="asterisk" unicode="*" horiz-adv-x="1052" 
d="M869 939l-53 -91l-249 157l11 -294h-106l11 294l-249 -157l-53 91l261 137l-261 138l53 92l249 -160l-11 297h106l-11 -297l249 160l53 -92l-261 -138z" />
    <glyph glyph-name="plus" unicode="+" horiz-adv-x="1321" 
d="M717 67h-115v456h-444v114h444v448h115v-448h443v-114h-443v-456z" />
    <glyph glyph-name="comma" unicode="," horiz-adv-x="607" 
d="M132 -339l85 531h162l-132 -531h-115z" />
    <glyph glyph-name="hyphen" unicode="-" horiz-adv-x="975" 
d="M158 520v124h656v-124h-656z" />
    <glyph glyph-name="period" unicode="." horiz-adv-x="593" 
d="M218 23c-22 21.333 -33 47 -33 77c0 30.667 11 56.667 33 78c21.333 21.333 47.333 32 78 32c30 0 56 -10.667 78 -32c21.333 -21.333 32 -47.333 32 -78c0 -30 -10.667 -55.667 -32 -77c-22 -22 -48 -33 -78 -33c-30.667 0 -56.667 11 -78 33z" />
    <glyph glyph-name="slash" unicode="/" horiz-adv-x="695" 
d="M66 -327l443 1770h118l-444 -1770h-117z" />
    <glyph glyph-name="zero" unicode="0" horiz-adv-x="1282" 
d="M266 169c-90 132 -135.001 316.332 -135.001 552.999c0 234.667 45 418.667 135 552c90.667 132.667 215.667 199 375 199c158.667 0 282.667 -66.667 372 -200c90 -133.333 135 -317.666 135 -552.999c0 -236 -44.667 -420 -134 -552s-213.666 -198 -372.999 -198
c-160.667 0 -285.667 66.333 -375 199zM913.999 255.999c64.667 110.667 97.002 265.999 97.002 465.999c0 198.667 -32.667 353.334 -98 464.001c-64.667 110.667 -155.334 166 -272.001 166s-208 -55.333 -274 -166c-65.333 -111.333 -98 -266 -98 -464
c0 -200 32.667 -355.333 98 -466s156.666 -166 273.999 -166s208.333 55.333 273 166z" />
    <glyph glyph-name="one" unicode="1" horiz-adv-x="913" 
d="M502 1293l-13 0.000976562c-13.333 -8 -74.333 -50 -183 -126l-193 -134v145c5.33301 3.33301 27.333 18.666 66 45.999l118 82c112.667 78.667 181 125 205 139h136v-1445h-136v1293z" />
    <glyph glyph-name="two" unicode="2" horiz-adv-x="1222" 
d="M151 1045c0.666992 124.667 43.6689 227 129.002 307c85.333 80.667 193.333 121 324 121c126.667 0 233 -38.333 319 -115c86 -77.333 129 -172.666 129 -285.999c0 -74.667 -21.333 -148.334 -64 -221.001s-123.334 -172.334 -242.001 -299.001l-390 -416v-12h732v-124
h-929v96l504 545c100.667 108 167.667 190.667 201 248c34 56.667 51 116 51 178c0 80.667 -30.333 148.334 -91 203.001c-60 55.333 -134.333 83 -223 83c-92.667 0 -168.334 -28.667 -227.001 -86c-58.667 -56.667 -88.667 -130.667 -90 -222v-1h-133v1z" />
    <glyph glyph-name="three" unicode="3" horiz-adv-x="1260" 
d="M442 804h169.002c93.333 0 169 26 227 78c58.667 51.333 88 118.333 88 201c0 78.667 -29 143.334 -87 194.001s-131.667 76 -221 76s-163 -24.333 -221 -73c-58.667 -49.333 -91.334 -115 -98.001 -197h-133c8 118 53.333 212.667 136 284
c83.333 70.667 190.333 106 321 106c122.667 0 227 -36.333 313 -109s129 -161 129 -265c0 -87.333 -23.667 -160.666 -71 -219.999c-47.333 -60 -113 -99.333 -197 -118v-13c103.333 -11.333 184.666 -49 243.999 -113c60 -64.667 90 -146.334 90 -245.001
c0 -118.667 -48.333 -218.334 -145 -299.001s-215.667 -121 -357 -121c-139.333 0 -255.333 37.333 -348 112c-92 74.667 -140.333 170.334 -145 287.001h132c6 -81.333 42.667 -148 110 -200c68 -52.667 151.333 -79 250 -79c104.667 0 191 28.667 259 86
c68.667 57.333 103 129.666 103 216.999c0 90.667 -33.333 162 -100 214c-66.667 52.667 -157.667 79 -273 79h-175v118z" />
    <glyph glyph-name="four" unicode="4" horiz-adv-x="1312" 
d="M843 326l-725.001 0.000976562v125c148.667 251.333 369.334 582.666 662.001 993.999h196v-996h216v-123h-216v-326h-133v326zM260.999 448.001l582 0.000976562v866h-9c-214.667 -292.667 -405.667 -578.334 -573 -857.001v-9z" />
    <glyph glyph-name="five" unicode="5" horiz-adv-x="1256" 
d="M297 83c-90 76 -138.666 172.667 -145.999 290h134c7.33301 -80.667 43.666 -148 108.999 -202c65.333 -53.333 143.666 -80 234.999 -80c105.333 0 192 34 260 102s102 155 102 261s-33.667 193 -101 261c-68 68 -154 102 -258 102c-70.667 0 -135.667 -16 -195 -48
c-58.667 -32.667 -103.334 -76.667 -134.001 -132h-130l78 806h787v-123h-679l-48 -526h13c72.667 94.667 182.667 142 330 142c138.667 0 252.334 -44.667 341.001 -134c88.667 -90 133 -204.667 133 -344c0 -142.667 -46.667 -259.667 -140 -351s-213.333 -137 -360 -137
c-131.333 0 -241.666 37.667 -330.999 113z" />
    <glyph glyph-name="six" unicode="6" horiz-adv-x="1288" 
d="M225 246c-64 113.333 -96.0029 261.667 -96.0029 445c0 245.333 48 437 144 575s229.667 207 401 207c119.333 0 221 -33.333 305 -100c83.333 -66.667 135.333 -156.334 156 -269.001h-140c-18 75.333 -56.333 135 -115 179c-58 44.667 -127.333 67 -208 67
c-129.333 0 -229.666 -58 -300.999 -174c-71.333 -116.667 -107.666 -282 -108.999 -496h12c31.333 81.333 84 146 158 194c74.667 48 159 72 253 72c136.667 0 250.334 -45.333 341.001 -136c90 -91.333 135 -206 135 -344c0 -143.333 -46.667 -261.666 -140 -354.999
c-94 -93.333 -213 -140 -357 -140c-200 0 -346.333 91.667 -439 275zM918.997 198.001c69.333 70.667 104 158.333 104 263c0 106.667 -34 194.334 -102 263.001c-67.333 68.667 -153.333 103 -258 103c-103.333 0 -190 -34 -260 -102
c-70 -68.667 -105 -153.334 -105 -254.001c0 -107.333 35 -197.333 105 -270c69.333 -72.667 155.666 -109 258.999 -109c102.667 0 188.334 35.333 257.001 106z" />
    <glyph glyph-name="seven" unicode="7" horiz-adv-x="1161" 
d="M904 1308v12h-782v123h920v-128l-661 -1315h-146z" />
    <glyph glyph-name="eight" unicode="8" horiz-adv-x="1294" 
d="M277 87c-94.667 78 -141.999 178.666 -141.999 301.999c0 93.333 29 174 87 242c57.333 68 133.333 110.333 228 127v12c-78.667 18.667 -141.334 57 -188.001 115c-47.333 58.667 -71 127.334 -71 206.001c0 111.333 42.667 203 128 275
c85.333 71.333 194.333 107 327 107c133.333 0 242.333 -35.667 327 -107c85.333 -71.333 128 -163 128 -275c0 -78.667 -23.333 -147 -70 -205c-46.667 -58.667 -109.334 -97.334 -188.001 -116.001v-12c94 -17.333 170 -59.666 228 -126.999c58 -68 87 -148.667 87 -242
c0 -124 -47.333 -224.667 -142 -302c-95.333 -78 -218.666 -117 -369.999 -117c-150.667 0 -273.667 39 -369 117zM916.001 173.999c69.333 58 104 132.666 104 223.999c0 89.333 -34.667 162 -104 218c-68.667 55.333 -158.667 83 -270 83
c-110.667 0 -200.334 -28 -269.001 -84c-69.333 -55.333 -104 -127.666 -104 -216.999c0 -91.333 34.667 -166 104 -224c68.667 -57.333 158.334 -86 269.001 -86s200.667 28.667 270 86zM877.001 889.998c59.333 48 89 111.333 89 190
c0 81.333 -29.667 147.666 -89 198.999c-59.333 50.667 -136.333 76 -231 76s-171.667 -25.333 -231 -76c-59.333 -51.333 -89 -117.666 -89 -198.999c0 -78 29.667 -141.333 89 -190s136.333 -73 231 -73c95.333 0 172.333 24.333 231 73z" />
    <glyph glyph-name="nine" unicode="9" horiz-adv-x="1288" 
d="M306 71c-82.667 66.667 -134.333 155.998 -155 267.998h140c18 -74.667 55.333 -134 112 -178c58.667 -45.333 129 -68 211 -68c126.667 0 225.667 55.667 297 167c70 110.667 107.667 267.334 113 470.001c0.666992 4 0 9.66699 -2 17c-2.66699 8.66699 -4 14 -4 16h-6
c-31.333 -80 -84 -144 -158 -192c-74.667 -48.667 -159 -73 -253 -73c-138 0 -251.667 45.333 -341 136c-90 90 -135 204 -135 342c0 144 46.667 262.667 140 356c94 94 213 141 357 141c200 0 346.333 -92.333 439 -277c64 -112 96 -260 96 -444
c0 -245.333 -47.667 -436.666 -143 -573.999c-96 -138 -230 -207 -402 -207c-120.667 0 -222.667 33.333 -306 100zM883.001 719.998c70 68 105.001 151.999 105.001 251.999c0 107.333 -34.667 197.333 -104 270c-70 73.333 -156.667 110 -260 110
c-102.667 0 -188.667 -35.667 -258 -107c-68.667 -71.333 -103 -159.666 -103 -264.999s33.667 -192 101 -260c67.333 -68.667 153.666 -103 258.999 -103c103.333 0 190 34.333 260 103z" />
    <glyph glyph-name="colon" unicode=":" horiz-adv-x="593" 
d="M218 23c-22 21.333 -33 47 -33 77c0 30.667 11 56.667 33 78c21.333 21.333 47.333 32 78 32c30 0 56 -10.667 78 -32c21.333 -21.333 32 -47.333 32 -78c0 -30 -10.667 -55.667 -32 -77c-22 -22 -48 -33 -78 -33c-30.667 0 -56.667 11 -78 33zM218 796
c-22 21.333 -33 47.333 -33 78s11 56.667 33 78c21.333 21.333 47.333 32 78 32c30 0 56 -10.667 78 -32c21.333 -21.333 32 -47.333 32 -78s-10.667 -56.667 -32 -78c-22 -22 -48 -33 -78 -33c-30.667 0 -56.667 11 -78 33z" />
    <glyph glyph-name="semicolon" unicode=";" horiz-adv-x="593" 
d="M132 -339l85 531h162l-132 -531h-115zM218 796c-22 21.333 -33 47.333 -33 78s11 56.667 33 78c21.333 21.333 47.333 32 78 32c30 0 56 -10.667 78 -32c21.333 -21.333 32 -47.333 32 -78s-10.667 -56.667 -32 -78c-22 -22 -48 -33 -78 -33c-30.667 0 -56.667 11 -78 33
z" />
    <glyph glyph-name="less" unicode="&#x3c;" horiz-adv-x="1321" 
d="M1092 -9l-865 531v109l865 531v-143l-733 -437v-12l733 -436v-143z" />
    <glyph glyph-name="equal" unicode="=" horiz-adv-x="1321" 
d="M162 331v115h995v-115h-995zM162 714v115h995v-115h-995z" />
    <glyph glyph-name="greater" unicode="&#x3e;" horiz-adv-x="1321" 
d="M959 570v12l-732 437v143l865 -531v-109l-865 -531v143z" />
    <glyph glyph-name="question" unicode="?" horiz-adv-x="1020" 
d="M81 1079c6 110 45.001 199.335 117.001 268.002c76 72.667 176.667 109 302 109c119.333 0 217.666 -34 294.999 -102c76.667 -68 115 -153.333 115 -256c0 -136.667 -70.333 -250.334 -211 -341.001c-65.333 -42 -109.666 -80.667 -132.999 -116
c-23.333 -34.667 -35 -80 -35 -136v-75h-133v94c-0.666992 66 14.666 122.667 45.999 170c30 46 80.667 91.667 152 137c63.333 41.333 108 81.333 134 120c26 39.333 39 86.333 39 141c0 71.333 -25.667 130 -77 176s-117 69 -197 69s-145.667 -23.333 -197 -70
s-80.333 -109.334 -87 -188.001h-130zM393.001 17.002c-22 22.667 -33 50.667 -33 84c0 34 11 62.333 33 85c22 22 50 33 84 33c33.333 0 61 -11 83 -33c22 -22.667 33 -51 33 -85c0 -33.333 -11 -61.333 -33 -84c-22 -22 -49.667 -33 -83 -33c-34 0 -62 11 -84 33z" />
    <glyph glyph-name="at" unicode="@" horiz-adv-x="1871" 
d="M752 821c-44.667 -57.333 -67 -132.999 -67 -226.999c0 -94.667 22 -170 66 -226s102.667 -84 176 -84c74 0 133 28.667 177 86s66 133.666 66 228.999c0 94 -21.667 168.667 -65 224c-44 55.333 -103 83 -177 83c-73.333 0 -132 -28.333 -176 -85zM1537 1227
c148.667 -138.667 222.997 -317.67 222.997 -537.003c0 -161.333 -31.333 -288.666 -94 -381.999s-148.334 -140 -257.001 -140c-62 0 -113.667 17 -155 51c-42 34 -65.667 78.333 -71 133h-13c-46.667 -118 -133 -177 -259 -177c-103.333 0 -187.333 39 -252 117
s-97 179.667 -97 305c0 122.667 32.667 222.667 98 300c64.667 77.333 148.334 116 251.001 116c56 0 106.667 -14.667 152 -44s77.333 -68.333 96 -117h13v141h116v-575c0 -98.667 47 -148 141 -148c68.667 0 122.667 37.667 162 113s59 178.333 59 309
c0 190.667 -64.667 345.334 -194 464.001c-129.333 119.333 -297.666 179 -504.999 179c-204 0 -372.333 -69 -505 -207c-133.333 -138.667 -200 -314.667 -200 -528c0 -220.667 66.333 -398 199 -532s308 -201 526 -201c148.667 0 259.334 14.667 332.001 44v-99
c-88 -29.333 -199 -44 -333 -44c-252 0 -453.667 76 -605 228c-152 152.667 -228 355.334 -228 608.001c0 244.667 76.667 444 230 598c152.667 154.667 350.334 232 593.001 232c236 0 428.333 -69 577 -207z" />
    <glyph glyph-name="A" unicode="A" horiz-adv-x="1363" 
d="M984 442h-606l-160 -442h-145l540 1443h136l539 -1443h-144zM419 560h524l-256 704h-13z" />
    <glyph glyph-name="B" unicode="B" horiz-adv-x="1319" 
d="M184 0l-0.000976562 1443h519c132.667 0 237.334 -32 314.001 -96c76.667 -63.333 115 -150 115 -260c0 -80.667 -25 -150.667 -75 -210c-48.667 -58.667 -111.667 -94.667 -189 -108v-13c102 -11.333 183.667 -48.666 245 -111.999c62 -64.667 93 -146.334 93 -245.001
c0 -126 -43 -224 -129 -294s-207 -105 -363 -105h-530zM320.999 807h323c112 0 198.333 22 259 66c60.667 44.667 91 108.667 91 192c0 80.667 -28.333 143.667 -85 189c-56 45.333 -133.333 68 -232 68h-356v-515zM694.999 121c120.667 0 212.667 24.332 276 72.999
s95 119.334 95 212.001c0 91.333 -33.333 161.333 -100 210c-66.667 48 -162.667 72 -288 72h-357v-567h374z" />
    <glyph glyph-name="C" unicode="C" horiz-adv-x="1455" 
d="M297 172c-114 134.667 -170.999 317.669 -170.999 549.002s57 414.666 171 549.999c114 134.667 268.667 202 464 202c148.667 0 277 -44.333 385 -133c108 -88 171.667 -200.667 191 -338h-139c-20.667 102 -71.667 185 -153 249
c-80.667 63.333 -175.334 95 -284.001 95c-151.333 0 -271.666 -56.333 -360.999 -169c-89.333 -113.333 -134 -265.333 -134 -456c0 -191.333 44.667 -343 134 -455c89.333 -112.667 210 -169 362 -169c111.333 0 207 28.667 287 86c79.333 57.333 129 133.333 149 228h139
c-20.667 -132.667 -83.334 -239.334 -188.001 -320.001c-105.333 -80.667 -234.333 -121 -387 -121c-196 0 -351 67.333 -465 202z" />
    <glyph glyph-name="D" unicode="D" horiz-adv-x="1471" 
d="M659 1443c218 0 387.333 -64 508 -192c118 -126.667 177 -303 177 -529c0 -226.667 -59 -403 -177 -529c-120 -128.667 -289.333 -193 -508 -193h-475v1443h475zM321 124l330 0.000976562c175.333 0 311.666 53 408.999 159c96 104.667 144 250.667 144 438
s-48 333.666 -144 438.999c-97.333 106 -233.666 159 -408.999 159h-330v-1195z" />
    <glyph glyph-name="E" unicode="E" horiz-adv-x="1197" 
d="M1056 0h-872v1443h872v-124h-735v-519h698v-122h-698v-554h735v-124z" />
    <glyph glyph-name="F" unicode="F" horiz-adv-x="1155" 
d="M184 0v1443h856v-124h-719v-542h661v-122h-661v-655h-137z" />
    <glyph glyph-name="G" unicode="G" horiz-adv-x="1506" 
d="M1374 559c0 -178.667 -54.667 -321.333 -164 -428c-109.333 -107.333 -255.333 -161 -438 -161c-195.333 0 -352 68.333 -470 205c-117.333 137.333 -176 319.666 -176 546.999c0 226 58.667 407.667 176 545s273 206 467 206c154 0 284.667 -41 392 -123
c106.667 -82 173 -191.667 199 -329h-139c-30 103.333 -84.333 183.333 -163 240s-175 85 -289 85c-152.667 0 -274.667 -56.667 -366 -170s-137 -264.666 -137 -453.999c0 -190 46 -341.667 138 -455c91.333 -113.333 214 -170 368 -170c141.333 0 254.333 41.333 339 124
c84.667 82 127 191 127 327v50h-440v121h576v-160z" />
    <glyph glyph-name="H" unicode="H" horiz-adv-x="1488" 
d="M1165 0v677h-844v-677h-137v1443h137v-642h844v642h137v-1443h-137z" />
    <glyph glyph-name="I" unicode="I" horiz-adv-x="507" 
d="M184 0v1443h137v-1443h-137z" />
    <glyph glyph-name="J" unicode="J" horiz-adv-x="1088" 
d="M227 330c3.33301 -68.667 29.335 -124.668 78.002 -168.001s110.667 -65 186 -65c87.333 0 154.666 26 201.999 78c48 52.667 72 127 72 223v1045h137v-1050c0 -131.333 -36.667 -234.666 -110 -309.999s-173.333 -113 -300 -113
c-116.667 0 -212.334 33.333 -287.001 100c-75.333 67.333 -113.333 154 -114 260h136z" />
    <glyph glyph-name="K" unicode="K" horiz-adv-x="1311" 
d="M184 0v1443h137v-746h12l683 746h171l-578 -623l637 -820h-177l-555 725l-193 -210v-515h-137z" />
    <glyph glyph-name="L" unicode="L" horiz-adv-x="1139" 
d="M1043 0h-859v1443h137v-1319h722v-124z" />
    <glyph glyph-name="M" unicode="M" horiz-adv-x="1761" 
d="M184 0v1443h157l533 -1256h12l531 1256h158v-1443h-128v1177h-10l-498 -1170h-119l-498 1170h-9v-1177h-129z" />
    <glyph glyph-name="N" unicode="N" horiz-adv-x="1494" 
d="M184 0v1443h135l841 -1198h13v1198h135v-1443h-132l-844 1199h-13v-1199h-135z" />
    <glyph glyph-name="O" unicode="O" horiz-adv-x="1561" 
d="M1258 1270c116 -134 174.001 -316.667 174.001 -548s-58 -414 -174 -548c-116.667 -136 -276 -204 -478 -204c-202.667 0 -362.667 67.667 -480 203c-116 134.667 -174 317.667 -174 549c0 230.667 58.667 413.667 176 549c117.333 134.667 276.666 202 477.999 202
c202 0 361.333 -67.667 478 -203zM405.001 1177c-92.667 -112 -139.001 -263.667 -139.001 -455c0 -190.667 45.667 -342.334 137 -455.001c92.667 -113.333 218.334 -170 377.001 -170c158 0 283 56.667 375 170c91.333 112.667 137 264.334 137 455.001
c0 191.333 -45.667 343 -137 455c-92 112.667 -217 169 -375 169c-157.333 0 -282.333 -56.333 -375 -169z" />
    <glyph glyph-name="P" unicode="P" horiz-adv-x="1272" 
d="M697 1443c138 0 249.667 -41.666 335 -124.999c84.667 -83.333 127 -192.333 127 -327c0 -132.667 -43 -240.334 -129 -323.001s-197.667 -124 -335 -124h-374v-544h-137v1443h513zM321 666.001h343c111.333 0 198.333 28.667 261 86c63.333 58 95 137.667 95 239
c0 104 -31.333 185 -94 243c-62 58 -149.333 87 -262 87h-343v-655z" />
    <glyph glyph-name="Q" unicode="Q" horiz-adv-x="1561" 
d="M1191 -169l-139.999 190.999c-81.333 -34.667 -171.666 -52 -270.999 -52c-202.667 0 -362.334 67 -479.001 201s-175 317.333 -175 550c0 232 58.667 415.333 176 550s276.666 202 477.999 202c200.667 0 359.667 -67.333 477 -202
c116.667 -135.333 175 -318.666 175 -549.999c0 -302.667 -90 -515 -270 -637l183 -253h-154zM973.001 131.999l-193.999 262.999h155l148 -198c140 100.667 210 275.334 210 524.001c0 191.333 -46 343.333 -138 456c-92.667 112.667 -217.334 169 -374.001 169
c-157.333 0 -282.333 -56.333 -375 -169s-139 -264.667 -139 -456c0 -192 46.333 -344 139 -456s218 -168 376 -168c70 0 134 11.667 192 35z" />
    <glyph glyph-name="R" unicode="R" horiz-adv-x="1309" 
d="M321 713h369c104.667 0 186 26.667 244 80c58.667 53.333 88 128 88 224c0 94.667 -30 169 -90 223s-142.667 81 -248 81h-363v-608zM321 0h-136.999v1443h517c140.667 0 252.667 -38.333 336 -115c83.333 -76 125 -178.333 125 -307c0 -102 -27.333 -189 -82 -261
c-54.667 -72.667 -130.334 -121.667 -227.001 -147l350 -613h-160l-332 591h-390v-591z" />
    <glyph glyph-name="S" unicode="S" horiz-adv-x="1284" 
d="M252 375c9.33301 -82.667 51.6641 -150 126.997 -202c74.667 -52 167 -78 277 -78c107.333 0 196.333 27 267 81c69.333 52.667 104 119.334 104 200.001c0 133.333 -107.333 226.333 -322 279l-165 42c-135.333 33.333 -233.333 80 -294 140
c-60.667 59.333 -91 138 -91 236c0 117.333 45.667 213 137 287c92 75.333 211 113 357 113c137.333 0 252.333 -36.333 345 -109c92.667 -72 142.667 -163.333 150 -274h-138c-11.333 77.333 -49.333 139.666 -114 186.999c-65.333 47.333 -147.666 71 -246.999 71
c-103.333 0 -187.666 -25.667 -252.999 -77c-64.667 -50.667 -97 -115.334 -97 -194.001c0 -62.667 24 -114 72 -154c48 -39.333 127 -72.666 237 -99.999l143 -36c148.667 -36.667 256 -86.334 322 -149.001c65.333 -62 98 -144.333 98 -247
c0 -126 -47.667 -227.667 -143 -305c-96 -77.333 -222.667 -116 -380 -116c-149.333 0 -272.666 37.333 -369.999 112c-98 74.667 -151.333 172.334 -160 293.001h138z" />
    <glyph glyph-name="T" unicode="T" horiz-adv-x="1280" 
d="M571 0v1319h-484v124h1104v-124h-484v-1319h-136z" />
    <glyph glyph-name="U" unicode="U" horiz-adv-x="1494" 
d="M324 509c0 -122 37.666 -220.333 112.999 -295c76.667 -76 179.667 -114 309 -114s232.333 38 309 114c75.333 74.667 113 173 113 295v934h137v-943c0 -158 -50 -284.667 -150 -380c-101.333 -97.333 -237.666 -146 -408.999 -146c-170.667 0 -306.667 48.667 -408 146
c-100 95.333 -150 222 -150 380v943h136v-934z" />
    <glyph glyph-name="V" unicode="V" horiz-adv-x="1363" 
d="M613 0l-540 1443h144l457 -1264h13l457 1264h144l-539 -1443h-136z" />
    <glyph glyph-name="W" unicode="W" horiz-adv-x="1956" 
d="M618 0h-127l-397 1443h142l317 -1230h9l347 1230h136l347 -1230h9l317 1230h142l-397 -1443h-127l-354 1205h-10z" />
    <glyph glyph-name="X" unicode="X" horiz-adv-x="1366" 
d="M598 724l-500 719h165l418 -609h11l422 609h156l-508 -724l500 -719h-164l-416 606h-11l-421 -606h-156z" />
    <glyph glyph-name="Y" unicode="Y" horiz-adv-x="1321" 
d="M592 0v624l-518 819h157l423 -680h12l423 680h156l-517 -819v-624h-136z" />
    <glyph glyph-name="Z" unicode="Z" horiz-adv-x="1328" 
d="M137 99l863 1208v12h-834v124h1011v-100l-860 -1207v-12h872v-124h-1052v99z" />
    <glyph glyph-name="bracketleft" unicode="[" horiz-adv-x="733" 
d="M604 1444v-106h-288v-1472h301v-104h-430v1682h417z" />
    <glyph glyph-name="backslash" unicode="\" horiz-adv-x="695" 
d="M66 1443h118l443 -1770h-116z" />
    <glyph glyph-name="bracketright" unicode="]" horiz-adv-x="733" 
d="M543 -238h-429v104h302v1472h-289v106h416v-1682z" />
    <glyph glyph-name="asciicircum" unicode="^" horiz-adv-x="947" 
d="M231 787h-126l298 645h140l298 -645h-127l-235 531h-12z" />
    <glyph glyph-name="underscore" unicode="_" horiz-adv-x="919" 
d="M-8 -222v100h935v-100h-935z" />
    <glyph glyph-name="grave" unicode="`" horiz-adv-x="999" 
d="M559 1267l-269 327h168l250 -327h-149z" />
    <glyph glyph-name="a" unicode="a" horiz-adv-x="1125" 
d="M732 185c65.333 58.667 97.999 130.667 97.999 216v126l-319 -23c-180.667 -12.667 -271 -80.667 -271 -204c0 -61.333 23.667 -110.333 71 -147c46 -36.667 105.667 -55 179 -55c96.667 0 177.334 29 242.001 87zM206.999 68c-68 58 -101.999 134.668 -101.999 230.001
c0 93.333 33.667 167 101 221c66 53.333 161.667 84.333 287 93l337 22v104c0 77.333 -22.667 136.666 -68 177.999c-46 41.333 -112.667 62 -200 62c-74 0 -136 -14.667 -186 -44c-50.667 -30 -82.334 -71 -95.001 -123h-133c12.667 85.333 57.334 154 134.001 206
c76 52 170.667 78 284 78c126 0 223.667 -31.333 293 -94c68.667 -62 103 -149.333 103 -262v-739h-126v185h-12c-32.667 -64 -80.334 -113.667 -143.001 -149c-62.667 -36 -133.667 -54 -213 -54c-106.667 0 -193.667 28.667 -261 86z" />
    <glyph glyph-name="b" unicode="b" horiz-adv-x="1252" 
d="M462 44c-65.333 41.333 -114 98.333 -146 171h-13v-215h-125v1506h131v-638h12c30 70 77.667 125.333 143 166s138.666 61 219.999 61c136.667 0 246.334 -50.667 329.001 -152s124 -236 124 -404c0 -167.333 -41.333 -302 -124 -404c-83.333 -102 -193 -153 -329 -153
c-82.667 0 -156.667 20.667 -222 62zM402 857c-64 -79.333 -96 -185.334 -96 -318.001s32 -238.667 96 -318c64 -80 149 -120 255 -120s190 39.667 252 119c62 78.667 93 185.334 93 320.001c0 134 -31 240.333 -93 319s-146 118 -252 118s-191 -40 -255 -120z" />
    <glyph glyph-name="c" unicode="c" horiz-adv-x="1145" 
d="M908 760c-17.333 64 -52.334 115.668 -105.001 155.001c-56 41.333 -124 62 -204 62c-107.333 0 -192.333 -39.333 -255 -118c-63.333 -78.667 -95 -184.334 -95 -317.001c0 -134.667 31.667 -241.667 95 -321c63.333 -80 148.333 -120 255 -120c80 0 147 18.333 201 55
c54.667 36.667 90.334 88 107.001 154h133c-16.667 -98.667 -63.334 -177.334 -140.001 -236.001c-79.333 -61.333 -179.333 -92 -300 -92c-148.667 0 -266.667 50.667 -354 152c-88 100.667 -132 236.667 -132 408c0 168.667 43.667 303 131 403c88 100 206 150 354 150
c120 0 220.667 -32.333 302 -97c76.667 -61.333 123.334 -140.666 140.001 -237.999h-133z" />
    <glyph glyph-name="d" unicode="d" horiz-adv-x="1256" 
d="M239 135c-83.333 101.333 -125.002 235.667 -125.002 403c0 166.667 42 301.334 126 404.001c83.333 102 193.333 153 330 153c82 0 155.333 -20.333 220 -61s112.334 -96.334 143.001 -167.001h12v639h131v-1506h-126v215h-12c-32 -72 -80.667 -128.667 -146 -170
c-66 -42 -140 -63 -222 -63c-137.333 0 -247.666 51 -330.999 153zM343.998 858.001c-63.333 -79.333 -95 -185.666 -95 -318.999c0 -134 31.667 -240.333 95 -319c62.667 -79.333 147.334 -119 254.001 -119c106 0 190.667 39.667 254 119s95 185.666 95 318.999
c0 132 -31.667 238 -95 318c-64 80 -148.667 120 -254 120c-106.667 0 -191.334 -39.667 -254.001 -119z" />
    <glyph glyph-name="e" unicode="e" horiz-adv-x="1174" 
d="M353 879c-62.667 -67.333 -97.001 -156.333 -103.001 -267h671c-1.33301 111.333 -31.666 200.333 -90.999 267c-60 66.667 -138.667 100 -236 100c-98 0 -178.333 -33.333 -241 -100zM1041 266c-26.667 -88 -79.332 -157.333 -157.999 -208s-174.334 -76 -287.001 -76
c-148 0 -265.333 50.333 -352 151c-86.667 100 -130 235 -130 405c0 169.333 43.667 304.333 131 405c86.667 101.333 203.334 152 350.001 152c143.333 0 256.333 -47.667 339 -143s124 -225.333 124 -390v-58h-809v-6c3.33301 -122 36.666 -219 99.999 -291
c62.667 -72 146 -108 250 -108c158 0 261 55.667 309 167h133z" />
    <glyph glyph-name="f" unicode="f" horiz-adv-x="718" 
d="M240 966h-174v111h174v119c0 198 99 297 297 297c30 0 62.667 -3.33301 98 -10v-111c-24.667 6 -55 9 -91 9c-115.333 0 -173 -62.667 -173 -188v-116h254v-111h-254v-966h-131v966z" />
    <glyph glyph-name="g" unicode="g" horiz-adv-x="1242" 
d="M849 860c-64 78 -148.999 117.001 -254.999 117.001c-106.667 0 -191 -38.667 -253 -116c-61.333 -76.667 -92 -179.667 -92 -309c0 -128.667 30.667 -231.334 92 -308.001c62 -77.333 146.333 -116 253 -116c107.333 0 192.666 38.333 255.999 115
c62.667 76.667 94 179 94 307c0 128.667 -31.667 232 -95 310zM303.001 -327.999c-77.333 50 -122.998 117.331 -136.998 201.998h139c12 -50 44.667 -89.667 98 -119s120.666 -44 201.999 -44c104 0 186.333 25.333 247 76c60 50.667 90 119.667 90 207v242h-13
c-32 -71.333 -79.667 -126.666 -143 -165.999c-62.667 -39.333 -135.334 -59 -218.001 -59c-138 0 -248.333 49.667 -331 149c-82 98.667 -123 229.334 -123 392.001s41.333 293.667 124 393c82.667 100 192.667 150 330 150c82 0 156.333 -21 223 -63s114.667 -98 144 -168
h12v213h126v-1093c0 -117.333 -42.667 -211.333 -128 -282s-198.666 -106 -339.999 -106c-122.667 0 -223.334 25.333 -302.001 76z" />
    <glyph glyph-name="h" unicode="h" horiz-adv-x="1224" 
d="M178 1506h131v-623h12c29.333 66.667 75.333 118.667 138 156s136.667 56 222 56c121.333 0 215.333 -34.667 282 -104s100 -166.333 100 -291v-700h-131v667c0 206.667 -95 310 -285 310c-101.333 0 -183 -31.333 -245 -94s-93 -143.667 -93 -243v-640h-131v1506z" />
    <glyph glyph-name="i" unicode="i" horiz-adv-x="480" 
d="M174 1077h131v-1077h-131v1077zM171 1346c-19.333 19.333 -29 42.333 -29 69s9.66699 49.334 29 68.001c18.667 19.333 41.334 29 68.001 29s49.667 -9.66699 69 -29c19.333 -18.667 29 -41.334 29 -68.001s-9.66699 -49.667 -29 -69
c-18.667 -19.333 -41.667 -29 -69 -29c-26.667 0 -49.334 9.66699 -68.001 29z" />
    <glyph glyph-name="j" unicode="j" horiz-adv-x="480" 
d="M306 -81c0 -104 -25.333 -180 -76 -228c-49.333 -46.667 -126.666 -70 -231.999 -70h-30v113h27c65.333 0 111.666 14 138.999 42s41 74.667 41 140v1161h131v-1158zM172 1346c-19.333 19.333 -29 42.333 -29 69s9.66699 49.334 29 68.001
c18.667 19.333 41.334 29 68.001 29s49.667 -9.66699 69 -29c19.333 -18.667 29 -41.334 29 -68.001s-9.66699 -49.667 -29 -69c-18.667 -19.333 -41.667 -29 -69 -29c-26.667 0 -49.334 9.66699 -68.001 29z" />
    <glyph glyph-name="k" unicode="k" horiz-adv-x="1092" 
d="M847 1077h164l-481 -462l503 -615h-168l-434 531l-122 -113v-418h-131v1506h131v-933h12z" />
    <glyph glyph-name="l" unicode="l" horiz-adv-x="489" 
d="M178 1506h131v-1506h-131v1506z" />
    <glyph glyph-name="m" unicode="m" horiz-adv-x="1772" 
d="M168 1077l125 0.000976562v-194h13c23.333 66 62.333 118 117 156c55.333 37.333 120 56 194 56s138 -19.333 192 -58c52 -36.667 89.667 -88 113 -154h13c28 65.333 71.667 116.666 131 153.999c60 38.667 128.333 58 205 58c108 0 192 -31 252 -93
c59.333 -62.667 89 -151 89 -265v-737h-131v707c0 180 -83 270 -249 270c-82 0 -149 -28 -201 -84c-50.667 -55.333 -76 -125.333 -76 -210v-683h-131v721c0 77.333 -22.667 139.333 -68 186s-105.333 70 -180 70c-78 0 -143.667 -30.667 -197 -92s-80 -136 -80 -224v-661
h-131v1077z" />
    <glyph glyph-name="n" unicode="n" horiz-adv-x="1206" 
d="M168 1077l125.001 -0.000976562v-194h13c28.667 66.667 74.667 118.667 138 156s137.666 56 222.999 56c120 0 213 -34.333 279 -103c66 -69.333 99 -166.666 99 -291.999v-700h-131v667c0 206.667 -93.667 310 -281 310c-100.667 0 -181.667 -30.667 -243 -92
c-60.667 -62 -91 -143.667 -91 -245v-640h-131v1077z" />
    <glyph glyph-name="o" unicode="o" horiz-adv-x="1208" 
d="M863 218c62.667 77.333 94 184.333 94 321s-31.333 243.667 -94 321c-62.667 78 -149.334 117 -260.001 117s-197.334 -39 -260.001 -117c-62.667 -77.333 -94 -184.333 -94 -321s31.333 -243.667 94 -321c62.667 -78 149.334 -117 260.001 -117s197.334 39 260.001 117z
M246 132c-88 99.333 -132 235 -132 407s44 307.667 132 407c87.333 99.333 206.333 149 357 149s270 -49.667 358 -149s132 -235 132 -407s-44 -307.667 -132 -407c-88 -100 -207.333 -150 -358 -150s-269.667 50 -357 150z" />
    <glyph glyph-name="p" unicode="p" horiz-adv-x="1242" 
d="M1003 943c82.667 -102 124 -236.667 124 -404s-41.333 -302 -124 -404c-83.333 -102 -193 -153 -329 -153c-83.333 0 -157.333 19.667 -222 59c-64 40 -111 94.667 -141 164h-12v-556h-131v1428h125v-220h12c33.333 74 82.666 132 147.999 174
c65.333 42.667 139 64 221 64c136.667 0 246.334 -50.667 329.001 -152zM898 219c62.667 78.667 94 184.999 94 318.999c0 134.667 -31 241.334 -93 320.001c-62.667 79.333 -147 119 -253 119c-105.333 0 -190.333 -40 -255 -120c-64 -80 -96 -186 -96 -318
s32 -238 96 -318s148.667 -120 254 -120c106.667 0 191 39.333 253 118z" />
    <glyph glyph-name="q" unicode="q" horiz-adv-x="1246" 
d="M791 1030c66 -42.667 114.668 -100.333 146.001 -173h12v220h127v-1428h-133v556h-12c-70.667 -148.667 -191.334 -223 -362.001 -223c-136.667 0 -246.667 51 -330 153s-125 236.667 -125 404c0 166.667 41.667 301 125 403s193.333 153 330 153
c81.333 0 155.333 -21.667 222 -65zM851.001 221.001c64 79.333 96 185.332 96 317.999c0 132 -32 238 -96 318s-149 120 -255 120s-190.333 -39.667 -253 -119s-94 -185.666 -94 -318.999c0 -134 31.333 -240.333 94 -319c62 -79.333 146 -119 252 -119
c106.667 0 192 40 256 120z" />
    <glyph glyph-name="r" unicode="r" horiz-adv-x="754" 
d="M168 1077l124.999 0.000976562v-177h13c18 58.667 54.667 105.667 110 141c55.333 36 118.666 54 189.999 54c42.667 0 76.334 -3 101.001 -9v-131c-30 8.66699 -69 13 -117 13c-83.333 0 -152.666 -28 -207.999 -84c-55.333 -56.667 -83 -127.334 -83 -212.001v-672
h-131v1077z" />
    <glyph glyph-name="s" unicode="s" horiz-adv-x="1058" 
d="M256 1008c74.667 58 166.667 87.002 276 87.002c108.667 0 198.667 -25 270 -75c71.333 -50.667 113 -118.667 125 -204h-129c-12 50.667 -41.667 91 -89 121c-48 30.667 -107.333 46 -178 46c-71.333 0 -131.666 -17.333 -180.999 -52c-50 -36 -75 -80.667 -75 -134
c0 -82 71.333 -140 214 -174l148 -35c106 -25.333 183.667 -60.333 233 -105c50.667 -46.667 76 -108.334 76 -185.001c0 -92 -40 -168 -120 -228c-78.667 -58.667 -177.334 -88 -296.001 -88c-117.333 0 -214 26 -290 78c-76 51.333 -119.333 121.333 -130 210h136
c14.667 -54.667 46.667 -97.334 96 -128.001c50.667 -32 114.667 -48 192 -48c79.333 0 145.333 18.333 198 55s79 83 79 139c0 88.667 -70.333 149.667 -211 183l-163 39c-101.333 24.667 -175.333 58.667 -222 102c-48 45.333 -72 105.333 -72 180
c0 86 37.667 158 113 216z" />
    <glyph glyph-name="t" unicode="t" horiz-adv-x="724" 
d="M367 1353l-0.000976562 -276h256v-111h-256v-668c0 -66 13.333 -113.667 40 -143c26.667 -30 70.334 -45 131.001 -45c31.333 0 58 1 80 3v-112c-26.667 -4.66699 -58 -7 -94 -7c-103.333 0 -177 21.333 -221 64c-44.667 42 -67 112 -67 210v698h-174v111h174v276h131z
" />
    <glyph glyph-name="u" unicode="u" horiz-adv-x="1207" 
d="M1037 0h-125v194h-12c-26.667 -66.667 -71.667 -118.667 -135 -156c-62.667 -37.333 -137 -56 -223 -56c-120 0 -213.667 35 -281 105c-68 70 -102 166.667 -102 290v700h131v-667c0 -100 24.667 -176.333 74 -229c48.667 -52.667 119 -79 211 -79
c100.667 0 181 30.333 241 91s90 142 90 244v640h131v-1077z" />
    <glyph glyph-name="v" unicode="v" horiz-adv-x="1078" 
d="M206 1077l326 -934h12l325 934h141l-402 -1077h-140l-402 1077h140z" />
    <glyph glyph-name="w" unicode="w" horiz-adv-x="1566" 
d="M1191 0h-139l-265 894h-13l-265 -894h-138l-305 1077h133l239 -914h12l266 914h131l266 -914h12l241 914h132z" />
    <glyph glyph-name="x" unicode="x" horiz-adv-x="1049" 
d="M516 440l-294 -440h-150l380 542l-383 535h158l293 -430h12l291 430h151l-378 -530l382 -547h-157l-293 440h-12z" />
    <glyph glyph-name="y" unicode="y" horiz-adv-x="1079" 
d="M185 -371v113c14 -2 33.667 -3 59 -3c50 0 90.333 14.333 121 43c30 27.333 57.667 75.333 83 144l22 67l-404 1084h142l326 -934h12l325 934h140l-419 -1129c-47.333 -126.667 -94.333 -212 -141 -256c-48 -44.667 -116.333 -67 -205 -67c-26.667 0 -47 1.33301 -61 4z
" />
    <glyph glyph-name="z" unicode="z" horiz-adv-x="1082" 
d="M130 100l660 854v12h-659v111h816v-101l-658 -853v-12h660v-111h-819v100z" />
    <glyph glyph-name="braceleft" unicode="{" horiz-adv-x="809" 
d="M259 611c116 -10.667 174 -89.6699 174 -237.003v-360c0 -79.333 19.333 -137.666 58 -174.999c38.667 -36.667 99.667 -55 183 -55h54v-109h-56c-125.333 0 -217.333 27.333 -276 82s-88 140.667 -88 258v309c0 80.667 -13 136.667 -39 168c-26 32 -72 48 -138 48v158
c65.333 0 111.333 16 138 48c26 32.667 39 89.334 39 170.001v268c0 114.667 29 198.334 87 251.001c58 53.333 150.333 80 277 80h56v-109h-54c-84.667 0 -146 -18 -184 -54c-38 -36.667 -57 -95.667 -57 -177v-313c0 -144 -58 -222 -174 -234v-17z" />
    <glyph glyph-name="bar" unicode="|" horiz-adv-x="661" 
d="M272 -328v1771h115v-1771h-115z" />
    <glyph glyph-name="braceright" unicode="}" horiz-adv-x="809" 
d="M549 628c-116.667 12 -175.001 90.002 -175.001 234.002v313c0 81.333 -19 140.333 -57 177c-37.333 36 -98.666 54 -183.999 54h-53v109h56c126 0 218.333 -26.667 277 -80c58 -52.667 87 -136.334 87 -251.001v-268c0 -81.333 13 -138 39 -170s71.667 -48 137 -48v-158
c-65.333 0 -111 -16 -137 -48c-26 -31.333 -39 -87.333 -39 -168v-309c0 -117.333 -29.333 -203.333 -88 -258s-150.667 -82 -276 -82h-56v109h53c83.333 0 144.333 18.333 183 55c38.667 37.333 58 95.666 58 174.999v360c0 147.333 58.333 226.333 175 237v17z" />
    <glyph glyph-name="asciitilde" unicode="~" horiz-adv-x="1204" 
d="M390 755c-44.667 0 -80.334 -17 -107.001 -51c-26 -34.667 -40.667 -83 -44 -145h-123c0 98.667 24.667 177 74 235c50 58 117.667 87 203 87c72.667 0 152.667 -41.667 240 -125c70 -69.333 128.667 -104 176 -104c45.333 0 82 17.667 110 53s43.667 84.333 47 147h122
c0.666992 -98 -24.666 -176.667 -75.999 -236c-52 -60 -120.333 -90 -205 -90c-76.667 0 -158 41.333 -244 124c-72 70 -129.667 105 -173 105z" />
    <glyph glyph-name="uni00A0" unicode="&#xa0;" horiz-adv-x="554" 
 />
    <glyph glyph-name="exclamdown" unicode="&#xa1;" horiz-adv-x="617" 
d="M244 646h127l11 -986h-150zM224 1086c22.667 22 50.667 33 84 33s61 -11 83 -33s33 -50 33 -84s-11 -62 -33 -84s-49.667 -33 -83 -33s-61.333 11 -84 33c-22 22 -33 50 -33 84s11 62 33 84z" />
    <glyph glyph-name="cent" unicode="&#xa2;" horiz-adv-x="1321" 
d="M1155 483c-16 -90 -61 -164.333 -135 -223c-74 -58 -165.333 -92 -274 -102v-187h-131v189c-133.333 14.667 -241.333 71.334 -324 170.001c-85.333 101.333 -128 229.666 -128 384.999c0 153.333 42.667 280 128 380c82.667 97.333 190.667 153.333 324 168v183h131
v-182c106 -11.333 197 -47.333 273 -108c76 -61.333 121.667 -136 137 -224h-133c-21.333 66 -62.333 118.667 -123 158c-62 39.333 -134.667 59 -218 59c-110 0 -201 -39.333 -273 -118c-74 -80.667 -111 -186 -111 -316c0 -132 37.333 -239.333 112 -322
c72 -80 162.667 -120 272 -120c90 0 165.333 19.333 226 58c60 37.333 98 88 114 152h133z" />
    <glyph glyph-name="sterling" unicode="&#xa3;" horiz-adv-x="1321" 
d="M1187 0l-1063 0.00195312v116c95.333 24 173.333 68 234 132c62.667 66.667 94 142.334 94 227.001c0 57.333 -11 120.666 -33 189.999h-280v112h241c-49.333 132.667 -74 233.667 -74 303c0 121.333 44.667 217.666 134 288.999s208.666 107 357.999 107
c109.333 0 212.333 -17 309 -51v-122c-92 34 -192.667 51 -302 51c-108.667 0 -195.667 -25 -261 -75c-66 -50 -99 -115.667 -99 -197c0 -75.333 24 -177 72 -305h467v-112h-429c21.333 -68.667 32 -130.334 32 -185.001c0 -73.333 -21 -141.333 -63 -204
c-40.667 -61.333 -96.334 -110 -167.001 -146v-12h830v-118z" />
    <glyph glyph-name="currency" unicode="&#xa4;" horiz-adv-x="1321" 
d="M458 454c56 -56 123.333 -84 202 -84s146 28 202 84s84 123.333 84 202s-28 146 -84 202s-123.333 84 -202 84s-146 -28 -202 -84s-84 -123.333 -84 -202s28 -146 84 -202zM971 884c50 -68 75.001 -144.001 75.001 -228.001c0 -85.333 -25.333 -161.666 -76 -228.999
l168 -168l-82 -82l-168 168c-68 -50 -144 -75 -228 -75c-84.667 0 -160.667 25.333 -228 76l-169 -169l-82 82l168 169c-50 68 -75 144 -75 228s25 160 75 228l-168 168l82 82l168 -168c67.333 50.667 143.666 76 228.999 76c84.667 0 160.667 -25.333 228 -76l168 168
l82 -82z" />
    <glyph glyph-name="yen" unicode="&#xa5;" horiz-adv-x="1321" 
d="M728 310v-310h-137v310h-304v105h304v184h-304v106h259l-472 738h156l423 -670h13l423 670h156l-472 -738h259v-106h-304v-184h304v-105h-304z" />
    <glyph glyph-name="brokenbar" unicode="&#xa6;" horiz-adv-x="661" 
d="M272 765v678h115v-678h-115zM272 -328v680h115v-680h-115z" />
    <glyph glyph-name="section" unicode="&#xa7;" horiz-adv-x="1037" 
d="M539 362c72 0.666992 131.667 21.001 179 61.001s71 89.667 71 149c0 98 -70.333 162.333 -211 193l-81 18c-71.333 -0.666992 -131 -21 -179 -61c-48 -40.667 -72 -90.334 -72 -149.001c0 -96.667 70.667 -161 212 -193zM245 -169.999
c-74 52.667 -114.664 121.664 -121.997 206.997h134c7.33301 -52 36.333 -94 87 -126c49.333 -32 111 -48 185 -48c75.333 0 136.666 17 183.999 51c48 34 72 77.667 72 131c0 85.333 -74 146.333 -222 183l-129 33c-111.333 28.667 -193 66 -245 112
c-52 46.667 -78 105.334 -78 176.001c0 66 21.333 122.333 64 169s102 79 178 97v12c-153.333 52.667 -230 142 -230 268c0 88.667 36 160.667 108 216c72 56 165 84 279 84c109.333 0 199.333 -25 270 -75c70.667 -50.667 111.667 -118.667 123 -204h-132
c-8 50.667 -35.667 91 -83 121c-48 30.667 -108 46 -180 46c-74.667 0 -135.334 -17 -182.001 -51c-47.333 -33.333 -71 -76.666 -71 -129.999c0 -86 73.333 -147.333 220 -184l129 -34c110.667 -28 191.667 -64.667 243 -110s77 -102.666 77 -171.999
s-24 -129.666 -72 -180.999c-48.667 -51.333 -112.334 -84.333 -191.001 -99v-12c169.333 -40 254 -125.667 254 -257c0 -88.667 -36.667 -161.334 -110 -218.001s-167.333 -85 -282 -85c-111.333 0 -204 26.667 -278 80z" />
    <glyph glyph-name="dieresis" unicode="&#xa8;" horiz-adv-x="998" 
d="M244 1282c-20 19.333 -30 43.333 -30 72s10 52.667 30 72c20 20 44 30 72 30c28.667 0 52.667 -10 72 -30c20 -19.333 30 -43.333 30 -72s-10 -52.667 -30 -72c-19.333 -20 -43.333 -30 -72 -30c-28 0 -52 10 -72 30zM608 1282c-20 19.333 -30 43.333 -30 72
s10 52.667 30 72c20 20 44 30 72 30c28.667 0 52.667 -10 72 -30c20 -19.333 30 -43.333 30 -72s-10 -52.667 -30 -72c-19.333 -20 -43.333 -30 -72 -30c-28 0 -52 10 -72 30z" />
    <glyph glyph-name="copyright" unicode="&#xa9;" horiz-adv-x="1742" 
d="M313 68c-150.667 150 -225.999 336 -225.999 558c0 222.667 75.333 409 226 559c150 150 335.667 225 557 225c222 0 408 -75 558 -225s225 -336.333 225 -559c0 -222 -75 -408.333 -225 -559c-150 -150 -336 -225 -558 -225c-220.667 0 -406.334 75.333 -557.001 226z
M1349 145c129.333 128.667 194 288.998 194 480.998c0 192.667 -64.333 353.334 -193 482.001s-288.667 193 -480 193c-190.667 0 -350.334 -64.333 -479.001 -193c-129.333 -129.333 -194 -290 -194 -482c0 -191.333 64.667 -351.666 194 -480.999s289 -194 479 -194
c190.667 0 350.334 64.667 479.001 194zM1129 779.998c-14 52.667 -43.0029 94.666 -87.0029 125.999c-45.333 32.667 -99.666 49 -162.999 49c-85.333 0 -153.666 -29 -204.999 -87c-52.667 -58.667 -79 -138 -79 -238c0 -101.333 26 -182 78 -242
c52 -59.333 120.667 -89 206 -89c66.667 0 122 15.333 166 46c42.667 30 70.334 71 83.001 123h109c-14 -81.333 -52.667 -145.666 -116 -192.999c-64.667 -48.667 -145 -73 -241 -73c-118.667 0 -214 38.333 -286 115c-72.667 78 -109 182.333 -109 313
c0 129.333 36.333 232.333 109 309c71.333 76 166.333 114 285 114c94 0 174.333 -25.667 241 -77c64 -50.667 103 -116 117 -196h-108z" />
    <glyph glyph-name="ordfeminine" unicode="&#xaa;" horiz-adv-x="957" 
d="M625 707c51.333 45.333 77 101.667 77 169v114l-250 -19c-144 -11.333 -216 -67 -216 -167c0 -50 18.333 -90 55 -120c36.667 -30.667 85 -46 145 -46c74.667 0 137.667 23 189 69zM189 606.001c-54.667 49.333 -82 114.001 -82 194.001c0 78.667 28 140.667 84 186
c56.667 46 138 72.333 244 79l265 18v83c0 58 -19.667 103.333 -59 136c-38.667 32.667 -92.334 49 -161.001 49c-57.333 0 -105 -12 -143 -36s-61 -56.667 -69 -98h-126c8.66699 74.667 44 133.667 106 177c61.333 44 140 66 236 66c106 0 189.333 -26.333 250 -79
c60 -53.333 90 -126.333 90 -219v-609h-119v142h-12c-25.333 -50.667 -63.666 -90.334 -114.999 -119.001c-52 -29.333 -110.667 -44 -176 -44c-88 0 -159 24.667 -213 74z" />
    <glyph glyph-name="guillemotleft" unicode="&#xab;" horiz-adv-x="1363" 
d="M794 559l357 -410h-158l-358 414v6l359 414h157l-357 -411v-13zM343 559l357 -410h-157l-359 414v6l359 414h157l-357 -411v-13z" />
    <glyph glyph-name="logicalnot" unicode="&#xac;" horiz-adv-x="1321" 
d="M1136 145h-114v418h-840v114h954v-532z" />
    <glyph glyph-name="registered" unicode="&#xae;" horiz-adv-x="1260" 
d="M264 598c-100 100 -150 221.667 -150 365c0 144.667 50 266.667 150 366c100 100 221.667 150 365 150c144 0 266 -50 366 -150c99.333 -99.333 149 -221.333 149 -366c0 -143.333 -49.667 -265 -149 -365c-100 -100 -222 -150 -366 -150c-143.333 0 -265 50 -365 150z
M935 658c83.333 83.333 125 185.001 125 305.001c0 121.333 -41.667 223.666 -125 306.999s-185.333 125 -306 125s-222.667 -41.667 -306 -125c-83.333 -84 -125 -186.333 -125 -307c0 -120 41.667 -221.667 125 -305c83.333 -84 185.333 -126 306 -126s222.667 42 306 126
zM436 717.001v515h232c51.333 0 93.333 -14.333 126 -43c33.333 -29.333 50 -67.333 50 -114c0 -86 -40.667 -136.667 -122 -152l145 -206h-98l-138 195h-115v-195h-80zM516 981.001h130c73.333 0 110 30.333 110 91c0 58 -36 87 -108 87h-132v-178z" />
    <glyph glyph-name="macron" unicode="&#xaf;" horiz-adv-x="986" 
d="M161 1292v106h662v-106h-662z" />
    <glyph glyph-name="degree" unicode="&#xb0;" horiz-adv-x="859" 
d="M206 932c-58.667 59.333 -88 132.666 -88 219.999c0 86.667 29.333 160 88 220c60 60.667 134 91 222 91s162 -30.333 222 -91c59.333 -60 89 -133.333 89 -220c0 -87.333 -29.667 -160.666 -89 -219.999c-59.333 -60.667 -133.333 -91 -222 -91s-162.667 30.333 -222 91
zM580 1004c39.333 40.667 59 90 59 148c0 58.667 -19.667 108 -59 148c-40.667 41.333 -91.334 62 -152.001 62c-60 0 -110 -20.667 -150 -62c-39.333 -40 -59 -89.333 -59 -148c0 -58 19.333 -107.333 58 -148c40 -42 90.333 -63 151 -63s111.334 21 152.001 63z" />
    <glyph glyph-name="plusminus" unicode="&#xb1;" horiz-adv-x="1321" 
d="M158 112v114h1002v-114h-1002zM717 354h-115v317h-444v105h444v309h115v-309h443v-105h-443v-317z" />
    <glyph glyph-name="uni00B2" unicode="&#xb2;" horiz-adv-x="801" 
d="M97 1538c0.666992 80 28.668 145.332 84.001 195.999s126.666 76 213.999 76c86 0 156.667 -23.667 212 -71c54.667 -47.333 82 -107.666 82 -180.999c0 -80 -65.333 -186.333 -196 -319l-216 -220v-12h432v-105h-606v85l306 318c105.333 107.333 158 189.333 158 246
c0 45.333 -16.333 83 -49 113c-33.333 30 -75.333 45 -126 45c-52 0 -94.333 -16 -127 -48c-32.667 -31.333 -49.667 -72.333 -51 -123v-1h-117v1z" />
    <glyph glyph-name="uni00B3" unicode="&#xb3;" horiz-adv-x="827" 
d="M297 1406h105.002c52.667 0 95.667 14 129 42c32.667 28.667 49 65.667 49 111c0 43.333 -16.333 79 -49 107c-32.667 27.333 -74.667 41 -126 41c-50.667 0 -92.334 -13.667 -125.001 -41c-33.333 -28 -51.666 -64.667 -54.999 -110h-117
c3.33301 76.667 32.333 137.667 87 183c54.667 46 126 69 214 69c83.333 0 152.666 -22.333 207.999 -67c56 -44 84 -99.333 84 -166c0 -52 -15.333 -96.667 -46 -134c-31.333 -37.333 -72.666 -61 -123.999 -71v-13c63.333 -4.66699 114 -26.334 152 -65.001
c37.333 -39.333 56 -89.333 56 -150c0 -75.333 -31.333 -137.666 -94 -186.999c-62 -50 -140.333 -75 -235 -75c-91.333 0 -167 24 -227 72s-91.333 110 -94 186h120c3.33301 -45.333 23.666 -82.333 60.999 -111s84.333 -43 141 -43c58 0 106 15.667 144 47
c38 30.667 57 70 57 118c0 50 -18.667 89.333 -56 118c-36.667 28.667 -87.334 43 -152.001 43h-107v96z" />
    <glyph glyph-name="acute" unicode="&#xb4;" horiz-adv-x="999" 
d="M522 1594h168l-269 -327h-149z" />
    <glyph glyph-name="paragraph" unicode="&#xb6;" horiz-adv-x="1316" 
d="M688 -195l-0.000976562 770.001h-20c-136.667 0 -249.667 40.667 -339 122c-90 81.333 -135 183.666 -135 306.999c0 128.667 44.667 234 134 316c88.667 82 202.334 123 341.001 123h156v-1638h-137zM982.999 1443h137v-1638h-137v1638z" />
    <glyph glyph-name="periodcentered" unicode="&#xb7;" horiz-adv-x="630" 
d="M213 637c-26.667 26.667 -40 60.667 -40 102s13.333 75.333 40 102s60.667 40 102 40c40.667 0 74.334 -13.333 101.001 -40c26 -26.667 39 -60.667 39 -102s-13 -75.333 -39 -102c-26.667 -26.667 -60.334 -40 -101.001 -40c-41.333 0 -75.333 13.333 -102 40z" />
    <glyph glyph-name="cedilla" unicode="&#xb8;" horiz-adv-x="999" 
d="M362 -157l64.001 157h106l-57 -142c66.667 0 118.667 -13.667 156 -41c38 -28 57 -67.667 57 -119c0 -54 -21 -97.667 -63 -131c-42 -34 -98 -51 -168 -51c-52 0 -99.667 6.66699 -143 20v87c33.333 -12 75.666 -18 126.999 -18c40 0 72 8 96 24s36 38 36 66
c0 54 -51.667 81 -155 81h-56v67z" />
    <glyph glyph-name="uni00B9" unicode="&#xb9;" horiz-adv-x="625" 
d="M316 902l-0.000976562 765.999h-12c-11.333 -7.33301 -48.333 -32.666 -111 -75.999c-71.333 -50 -109.666 -76.667 -114.999 -80v119l238 161h119v-890h-119z" />
    <glyph glyph-name="ordmasculine" unicode="&#xba;" horiz-adv-x="1032" 
d="M719 737c49.333 62 74 148.334 74 259.001c0 111.333 -24.667 198 -74 260s-117.333 93 -204 93c-86 0 -153.667 -31 -203 -93c-49.333 -62.667 -74 -149.334 -74 -260.001s24.667 -197 74 -259s117 -93 203 -93c86.667 0 154.667 31 204 93zM216 656.001
c-73.333 83.333 -110 196.665 -110 339.998c0 142.667 36.667 255.667 110 339c74 83.333 173.667 125 299 125c126 0 226 -41.333 300 -124c73.333 -83.333 110 -196.666 110 -339.999s-36.667 -256.666 -110 -339.999c-74 -82.667 -174 -124 -300 -124
s-225.667 41.333 -299 124z" />
    <glyph glyph-name="guillemotright" unicode="&#xbb;" horiz-adv-x="1363" 
d="M210 983h157l359 -414v-6l-358 -414h-158l357 410v13zM661 983h157l359 -414v-6l-359 -414h-157l357 410v13z" />
    <glyph glyph-name="onequarter" unicode="&#xbc;" horiz-adv-x="1945" 
d="M1711 890l0.000976562 -602h128v-102h-128v-186h-120v186h-456v108c63.333 107.333 196.666 306 399.999 596h176zM1252 285h341v505h-5c-156 -217.333 -268 -383.333 -336 -498v-7zM316.001 553l-0.000976562 765.999h-12
c-11.333 -7.33301 -48.333 -32.666 -111 -75.999c-71.333 -50 -109.666 -76.667 -114.999 -80v119l238 161h119v-890h-119zM1150 1443h128l-637 -1443h-128z" />
    <glyph glyph-name="onehalf" unicode="&#xbd;" horiz-adv-x="1945" 
d="M1221 636c0.666992 80 28.668 145.332 84.001 195.999s126.666 76 213.999 76c86 0 156.667 -23.667 212 -71c54.667 -47.333 82 -107.666 82 -180.999c0 -80 -65.333 -186.333 -196 -319l-216 -220v-12h432v-105h-606v85l306 318c105.333 107.333 158 189.333 158 246
c0 45.333 -16.333 83 -49 113c-33.333 30 -75.333 45 -126 45c-52 0 -94.333 -16 -127 -48c-32.667 -31.333 -49.667 -72.333 -51 -123v-1h-117v1zM316.001 552.999l-0.000976562 765.999h-12c-11.333 -7.33301 -48.333 -32.666 -111 -75.999
c-71.333 -50 -109.666 -76.667 -114.999 -80v119l238 161h119v-890h-119zM1150 1443h128l-637 -1443h-128z" />
    <glyph glyph-name="threequarters" unicode="&#xbe;" horiz-adv-x="2134" 
d="M297 1057h105.002c52.667 0 95.667 14 129 42c32.667 28.667 49 65.667 49 111c0 43.333 -16.333 79 -49 107c-32.667 27.333 -74.667 41 -126 41c-50.667 0 -92.334 -13.667 -125.001 -41c-33.333 -28 -51.666 -64.667 -54.999 -110h-117
c3.33301 76.667 32.333 137.667 87 183c54.667 46 126 69 214 69c83.333 0 152.666 -22.333 207.999 -67c56 -44 84 -99.333 84 -166c0 -52 -15.333 -96.667 -46 -134c-31.333 -37.333 -72.666 -61 -123.999 -71v-13c63.333 -4.66699 114 -26.334 152 -65.001
c37.333 -39.333 56 -89.333 56 -150c0 -75.333 -31.333 -137.666 -94 -186.999c-62 -50 -140.333 -75 -235 -75c-91.333 0 -167 24 -227 72s-91.333 110 -94 186h120c3.33301 -45.333 23.666 -82.333 60.999 -111s84.333 -43 141 -43c58 0 106 15.667 144 47
c38 30.667 57 70 57 118c0 50 -18.667 89.333 -56 118c-36.667 28.667 -87.334 43 -152.001 43h-107v96zM1901 890l0.000976562 -602h128v-102h-128v-186h-120v186h-456v108c63.333 107.333 196.666 306 399.999 596h176zM1442 285h341v505h-5
c-156 -217.333 -268 -383.333 -336 -498v-7zM1340 1443h128l-637 -1443h-128z" />
    <glyph glyph-name="questiondown" unicode="&#xbf;" horiz-adv-x="1019" 
d="M937 21c-6 -110 -44.998 -199.668 -116.998 -269.001c-76.667 -72.667 -177.334 -109 -302.001 -109c-120 0 -218.333 34.333 -295 103c-76.667 68 -115 153.667 -115 257c0 136 70 249.333 210 340c65.333 41.333 109.666 79.666 132.999 114.999
c23.333 34.667 35 80 35 136v76h133v-95c0.666992 -65.333 -14.333 -121.666 -45 -168.999c-30 -46 -80.667 -92 -152 -138c-115.333 -75.333 -173 -161.666 -173 -258.999c0 -72 25.333 -131 76 -177c51.333 -46.667 117.333 -70 198 -70c80 0 145.667 23.333 197 70
s80.333 109.667 87 189h130zM457.002 916.999c-22 22 -33 50 -33 84c0 33.333 11 61.333 33 84c22.667 22 50.667 33 84 33s61 -11 83 -33c22 -22.667 33 -50.667 33 -84c0 -34 -11 -62 -33 -84s-49.667 -33 -83 -33s-61.333 11 -84 33z" />
    <glyph glyph-name="Agrave" unicode="&#xc0;" horiz-adv-x="1363" 
d="M984 442h-606l-160 -442h-145l540 1443h136l539 -1443h-144zM419 560h524l-256 704h-13zM765 1577h-157l-326 297h174z" />
    <glyph glyph-name="Aacute" unicode="&#xc1;" horiz-adv-x="1363" 
d="M984 442h-606l-160 -442h-145l540 1443h136l539 -1443h-144zM419 560h524l-256 704h-13zM904 1874h174l-326 -297h-158z" />
    <glyph glyph-name="Acircumflex" unicode="&#xc2;" horiz-adv-x="1363" 
d="M984 442h-606l-160 -442h-145l540 1443h136l539 -1443h-144zM419 560h524l-256 704h-13zM1032 1577h-155l-190 202h-12l-190 -202h-155l289 297h124z" />
    <glyph glyph-name="Atilde" unicode="&#xc3;" horiz-adv-x="1363" 
d="M984 442h-606l-160 -442h-145l540 1443h136l539 -1443h-144zM419 560h524l-256 704h-13zM665 1660c-52 54.667 -94 82.001 -126 82.001c-64.667 0 -98.334 -51.333 -101.001 -154h-106c0 79.333 18.667 142 56 188c36.667 45.333 86 68 148 68
c60 0 116.667 -27.667 170 -83c52.667 -55.333 91.667 -83 117 -83c64 0 98 51.333 102 154h105c0 -76.667 -18.667 -138.334 -56 -185.001s-86.666 -70 -147.999 -70c-55.333 0 -109 27.667 -161 83z" />
    <glyph glyph-name="Adieresis" unicode="&#xc4;" horiz-adv-x="1363" 
d="M984 442h-606l-160 -442h-145l540 1443h136l539 -1443h-144zM419 560h524l-256 704h-13zM427 1598c-20 19.333 -30 43.333 -30 72s10 52.667 30 72c20 20 44 30 72 30c28.667 0 52.667 -10 72 -30c20 -19.333 30 -43.333 30 -72s-10 -52.667 -30 -72
c-19.333 -20 -43.333 -30 -72 -30c-28 0 -52 10 -72 30zM791 1598c-20 19.333 -30 43.333 -30 72s10 52.667 30 72c20 20 44 30 72 30c28.667 0 52.667 -10 72 -30c20 -19.333 30 -43.333 30 -72s-10 -52.667 -30 -72c-19.333 -20 -43.333 -30 -72 -30c-28 0 -52 10 -72 30z
" />
    <glyph glyph-name="Aring" unicode="&#xc5;" horiz-adv-x="1363" 
d="M984 442h-606l-160 -442h-145l540 1443h136l539 -1443h-144zM419 560h524l-256 704h-13zM530 1631c-41.333 40.667 -62 90.667 -62 150c0 58.667 20.667 108.334 62 149.001s91.666 61 150.999 61s109.666 -20.333 150.999 -61s62 -90.334 62 -149.001
c0 -59.333 -20.667 -109.333 -62 -150s-91.666 -61 -150.999 -61s-109.666 20.333 -150.999 61zM770 1691c24 24.667 36 54.667 36 90s-12 65 -36 89s-53.667 36 -89 36s-65 -12 -89 -36s-36 -53.667 -36 -89s12 -65.333 36 -90c24 -24 53.667 -36 89 -36s65 12 89 36z" />
    <glyph glyph-name="AE" unicode="&#xc6;" horiz-adv-x="1955" 
d="M840 1327l-365 -766h526v766h-161zM1001 443h-581l-208 -443h-139l678 1443h1063v-124h-677v-526h640v-122h-640v-547h677v-124h-813v443z" />
    <glyph glyph-name="Ccedilla" unicode="&#xc7;" horiz-adv-x="1455" 
d="M1198 1002c-20.667 102 -71.666 184.999 -152.999 248.999c-80.667 63.333 -175.334 95 -284.001 95c-151.333 0 -271.666 -56.333 -360.999 -169c-89.333 -113.333 -134 -265.333 -134 -456c0 -191.333 44.667 -343 134 -455c89.333 -112.667 210 -169 362 -169
c111.333 0 207 28.667 287 86c79.333 57.333 129 133.333 149 228h139c-19.333 -124.667 -76.333 -226.667 -171 -306c-94 -79.333 -211 -123.666 -351 -132.999l-46 -114c66.667 0 118.667 -13.667 156 -41c38 -28 57 -67.667 57 -119c0 -54 -21 -97.667 -63 -131
c-42 -34 -98 -51 -168 -51c-52 0 -99.667 6.66699 -143 20v87c33.333 -12 75.666 -18 126.999 -18c40 0 72 8 96 24s36 38 36 66c0 54 -51.667 81 -155 81h-56v67l53 129c-180.667 12.667 -323 85.334 -427 218.001c-104 133.333 -156 310.333 -156 531
c0 231.333 57 414.666 171 549.999c114 134.667 268.667 202 464 202c148.667 0 277 -44.333 385 -133c108 -88 171.667 -200.667 191 -338h-139z" />
    <glyph glyph-name="Egrave" unicode="&#xc8;" horiz-adv-x="1197" 
d="M704 1577h-157l-326 297h174zM1056 0h-872v1443h872v-124h-735v-519h698v-122h-698v-554h735v-124z" />
    <glyph glyph-name="Eacute" unicode="&#xc9;" horiz-adv-x="1197" 
d="M843 1874h174l-326 -297h-158zM1056 0h-872v1443h872v-124h-735v-519h698v-122h-698v-554h735v-124z" />
    <glyph glyph-name="Ecircumflex" unicode="&#xca;" horiz-adv-x="1197" 
d="M971 1577h-155l-190 202h-12l-190 -202h-155l289 297h124zM1056 0h-872v1443h872v-124h-735v-519h698v-122h-698v-554h735v-124z" />
    <glyph glyph-name="Edieresis" unicode="&#xcb;" horiz-adv-x="1197" 
d="M366 1598c-20 19.333 -30 43.333 -30 72s10 52.667 30 72c20 20 44 30 72 30c28.667 0 52.667 -10 72 -30c20 -19.333 30 -43.333 30 -72s-10 -52.667 -30 -72c-19.333 -20 -43.333 -30 -72 -30c-28 0 -52 10 -72 30zM730 1598c-20 19.333 -30 43.333 -30 72
s10 52.667 30 72c20 20 44 30 72 30c28.667 0 52.667 -10 72 -30c20 -19.333 30 -43.333 30 -72s-10 -52.667 -30 -72c-19.333 -20 -43.333 -30 -72 -30c-28 0 -52 10 -72 30zM1056 0h-872v1443h872v-124h-735v-519h698v-122h-698v-554h735v-124z" />
    <glyph glyph-name="Igrave" unicode="&#xcc;" horiz-adv-x="507" 
d="M185 0v1443h137v-1443h-137zM338 1577h-157l-326 297h174z" />
    <glyph glyph-name="Iacute" unicode="&#xcd;" horiz-adv-x="507" 
d="M184 0v1443h137v-1443h-137zM476 1874h174l-326 -297h-158z" />
    <glyph glyph-name="Icircumflex" unicode="&#xce;" horiz-adv-x="507" 
d="M185 0v1443h137v-1443h-137zM605 1577h-155l-190 202h-12l-190 -202h-155l289 297h124z" />
    <glyph glyph-name="Idieresis" unicode="&#xcf;" horiz-adv-x="507" 
d="M185 0v1443h137v-1443h-137zM0 1598c-20 19.333 -30 43.333 -30 72s10 52.667 30 72c20 20 44 30 72 30c28.667 0 52.667 -10 72 -30c20 -19.333 30 -43.333 30 -72s-10 -52.667 -30 -72c-19.333 -20 -43.333 -30 -72 -30c-28 0 -52 10 -72 30zM364 1598
c-20 19.333 -30 43.333 -30 72s10 52.667 30 72c20 20 44 30 72 30c28.667 0 52.667 -10 72 -30c20 -19.333 30 -43.333 30 -72s-10 -52.667 -30 -72c-19.333 -20 -43.333 -30 -72 -30c-28 0 -52 10 -72 30z" />
    <glyph glyph-name="Eth" unicode="&#xd0;" horiz-adv-x="1447" 
d="M652 124c175.333 0 311.666 53.001 408.999 159.001c96 104.667 144 250.667 144 438s-48 333.666 -144 438.999c-97.333 106 -233.666 159 -408.999 159h-330v-514h262v-124h-262v-557h330zM660 1443c218 0 387.333 -64 508 -192c118 -126.667 177 -303 177 -529
c0 -226.667 -59 -403 -177 -529c-120 -128.667 -289.333 -193 -508 -193h-475v681h-173v124h173v638h475z" />
    <glyph glyph-name="Ntilde" unicode="&#xd1;" horiz-adv-x="1494" 
d="M730 1660c-52 54.667 -94 82.001 -126 82.001c-64.667 0 -98.334 -51.333 -101.001 -154h-106c0 79.333 18.667 142 56 188c36.667 45.333 86 68 148 68c60 0 116.667 -27.667 170 -83c52.667 -55.333 91.667 -83 117 -83c64 0 98 51.333 102 154h105
c0 -76.667 -18.667 -138.334 -56 -185.001s-86.666 -70 -147.999 -70c-55.333 0 -109 27.667 -161 83zM184 0.000976562v1443h135l841 -1198h13v1198h135v-1443h-132l-844 1199h-13v-1199h-135z" />
    <glyph glyph-name="Ograve" unicode="&#xd2;" horiz-adv-x="1561" 
d="M864 1577h-157l-326 297h174zM1258 1270c116 -134 174.001 -316.667 174.001 -548s-58 -414 -174 -548c-116.667 -136 -276 -204 -478 -204c-202.667 0 -362.667 67.667 -480 203c-116 134.667 -174 317.667 -174 549c0 230.667 58.667 413.667 176 549
c117.333 134.667 276.666 202 477.999 202c202 0 361.333 -67.667 478 -203zM405.001 1177c-92.667 -112 -139.001 -263.667 -139.001 -455c0 -190.667 45.667 -342.334 137 -455.001c92.667 -113.333 218.334 -170 377.001 -170c158 0 283 56.667 375 170
c91.333 112.667 137 264.334 137 455.001c0 191.333 -45.667 343 -137 455c-92 112.667 -217 169 -375 169c-157.333 0 -282.333 -56.333 -375 -169z" />
    <glyph glyph-name="Oacute" unicode="&#xd3;" horiz-adv-x="1561" 
d="M1003 1874h174l-326 -297h-158zM1258 1270c116 -134 174.001 -316.667 174.001 -548s-58 -414 -174 -548c-116.667 -136 -276 -204 -478 -204c-202.667 0 -362.667 67.667 -480 203c-116 134.667 -174 317.667 -174 549c0 230.667 58.667 413.667 176 549
c117.333 134.667 276.666 202 477.999 202c202 0 361.333 -67.667 478 -203zM405.001 1177c-92.667 -112 -139.001 -263.667 -139.001 -455c0 -190.667 45.667 -342.334 137 -455.001c92.667 -113.333 218.334 -170 377.001 -170c158 0 283 56.667 375 170
c91.333 112.667 137 264.334 137 455.001c0 191.333 -45.667 343 -137 455c-92 112.667 -217 169 -375 169c-157.333 0 -282.333 -56.333 -375 -169z" />
    <glyph glyph-name="Ocircumflex" unicode="&#xd4;" horiz-adv-x="1561" 
d="M1131 1577h-155l-190 202h-12l-190 -202h-155l289 297h124zM1258 1270c116 -134 174.001 -316.667 174.001 -548s-58 -414 -174 -548c-116.667 -136 -276 -204 -478 -204c-202.667 0 -362.667 67.667 -480 203c-116 134.667 -174 317.667 -174 549
c0 230.667 58.667 413.667 176 549c117.333 134.667 276.666 202 477.999 202c202 0 361.333 -67.667 478 -203zM405.001 1177c-92.667 -112 -139.001 -263.667 -139.001 -455c0 -190.667 45.667 -342.334 137 -455.001c92.667 -113.333 218.334 -170 377.001 -170
c158 0 283 56.667 375 170c91.333 112.667 137 264.334 137 455.001c0 191.333 -45.667 343 -137 455c-92 112.667 -217 169 -375 169c-157.333 0 -282.333 -56.333 -375 -169z" />
    <glyph glyph-name="Otilde" unicode="&#xd5;" horiz-adv-x="1561" 
d="M1258 1270c116 -134 174.001 -316.667 174.001 -548s-58 -414 -174 -548c-116.667 -136 -276 -204 -478 -204c-202.667 0 -362.667 67.667 -480 203c-116 134.667 -174 317.667 -174 549c0 230.667 58.667 413.667 176 549c117.333 134.667 276.666 202 477.999 202
c202 0 361.333 -67.667 478 -203zM405.001 1177c-92.667 -112 -139.001 -263.667 -139.001 -455c0 -190.667 45.667 -342.334 137 -455.001c92.667 -113.333 218.334 -170 377.001 -170c158 0 283 56.667 375 170c91.333 112.667 137 264.334 137 455.001
c0 191.333 -45.667 343 -137 455c-92 112.667 -217 169 -375 169c-157.333 0 -282.333 -56.333 -375 -169zM764 1660c-52 54.667 -94 82.001 -126 82.001c-64.667 0 -98.334 -51.333 -101.001 -154h-106c0 79.333 18.667 142 56 188c36.667 45.333 86 68 148 68
c60 0 116.667 -27.667 170 -83c52.667 -55.333 91.667 -83 117 -83c64 0 98 51.333 102 154h105c0 -76.667 -18.667 -138.334 -56 -185.001s-86.666 -70 -147.999 -70c-55.333 0 -109 27.667 -161 83z" />
    <glyph glyph-name="Odieresis" unicode="&#xd6;" horiz-adv-x="1561" 
d="M526 1598c-20 19.333 -30 43.333 -30 72s10 52.667 30 72c20 20 44 30 72 30c28.667 0 52.667 -10 72 -30c20 -19.333 30 -43.333 30 -72s-10 -52.667 -30 -72c-19.333 -20 -43.333 -30 -72 -30c-28 0 -52 10 -72 30zM890 1598c-20 19.333 -30 43.333 -30 72
s10 52.667 30 72c20 20 44 30 72 30c28.667 0 52.667 -10 72 -30c20 -19.333 30 -43.333 30 -72s-10 -52.667 -30 -72c-19.333 -20 -43.333 -30 -72 -30c-28 0 -52 10 -72 30zM1258 1270c116 -134 174.001 -316.667 174.001 -548s-58 -414 -174 -548
c-116.667 -136 -276 -204 -478 -204c-202.667 0 -362.667 67.667 -480 203c-116 134.667 -174 317.667 -174 549c0 230.667 58.667 413.667 176 549c117.333 134.667 276.666 202 477.999 202c202 0 361.333 -67.667 478 -203zM405.001 1177
c-92.667 -112 -139.001 -263.667 -139.001 -455c0 -190.667 45.667 -342.334 137 -455.001c92.667 -113.333 218.334 -170 377.001 -170c158 0 283 56.667 375 170c91.333 112.667 137 264.334 137 455.001c0 191.333 -45.667 343 -137 455c-92 112.667 -217 169 -375 169
c-157.333 0 -282.333 -56.333 -375 -169z" />
    <glyph glyph-name="multiply" unicode="&#xd7;" horiz-adv-x="1321" 
d="M345 185l-80 80l313 315l-313 314l80 81l314 -314l314 313l81 -80l-313 -314l313 -314l-81 -81l-313 314z" />
    <glyph glyph-name="Oslash" unicode="&#xd8;" horiz-adv-x="1530" 
d="M441 226c89.333 -86 202.333 -129.001 339 -129.001c158 0 283 56.667 375 170c91.333 112.667 137 264.334 137 455.001c0 184.667 -43 333 -129 445zM1096 1237c-84.667 72.667 -190 109 -316 109c-157.333 0 -282.333 -56.333 -375 -169
c-92.667 -112 -139 -263.667 -139 -455c0 -170 37 -310 111 -420zM1249 1280c122 -134.667 183.001 -320.667 183.001 -558c0 -231.333 -58 -414 -174 -548c-116.667 -136 -276 -204 -478 -204c-169.333 0 -310.333 48.667 -423 146l-142 -186l-79 59l152 198
c-108 134 -162 312.333 -162 535c0 230.667 58.667 413.667 176 549c117.333 134.667 276.666 202 477.999 202c157.333 0 290.333 -42.333 399 -127l128 166l78 -55z" />
    <glyph glyph-name="Ugrave" unicode="&#xd9;" horiz-adv-x="1494" 
d="M830 1577h-157l-326 297h174zM324 509c0 -122 37.666 -220.333 112.999 -295c76.667 -76 179.667 -114 309 -114s232.333 38 309 114c75.333 74.667 113 173 113 295v934h137v-943c0 -158 -50 -284.667 -150 -380c-101.333 -97.333 -237.666 -146 -408.999 -146
c-170.667 0 -306.667 48.667 -408 146c-100 95.333 -150 222 -150 380v943h136v-934z" />
    <glyph glyph-name="Uacute" unicode="&#xda;" horiz-adv-x="1494" 
d="M969 1874h174l-326 -297h-158zM324 509c0 -122 37.666 -220.333 112.999 -295c76.667 -76 179.667 -114 309 -114s232.333 38 309 114c75.333 74.667 113 173 113 295v934h137v-943c0 -158 -50 -284.667 -150 -380c-101.333 -97.333 -237.666 -146 -408.999 -146
c-170.667 0 -306.667 48.667 -408 146c-100 95.333 -150 222 -150 380v943h136v-934z" />
    <glyph glyph-name="Ucircumflex" unicode="&#xdb;" horiz-adv-x="1494" 
d="M1097 1577h-155l-190 202h-12l-190 -202h-155l289 297h124zM324 509c0 -122 37.666 -220.333 112.999 -295c76.667 -76 179.667 -114 309 -114s232.333 38 309 114c75.333 74.667 113 173 113 295v934h137v-943c0 -158 -50 -284.667 -150 -380
c-101.333 -97.333 -237.666 -146 -408.999 -146c-170.667 0 -306.667 48.667 -408 146c-100 95.333 -150 222 -150 380v943h136v-934z" />
    <glyph glyph-name="Udieresis" unicode="&#xdc;" horiz-adv-x="1494" 
d="M492 1598c-20 19.333 -30 43.333 -30 72s10 52.667 30 72c20 20 44 30 72 30c28.667 0 52.667 -10 72 -30c20 -19.333 30 -43.333 30 -72s-10 -52.667 -30 -72c-19.333 -20 -43.333 -30 -72 -30c-28 0 -52 10 -72 30zM856 1598c-20 19.333 -30 43.333 -30 72
s10 52.667 30 72c20 20 44 30 72 30c28.667 0 52.667 -10 72 -30c20 -19.333 30 -43.333 30 -72s-10 -52.667 -30 -72c-19.333 -20 -43.333 -30 -72 -30c-28 0 -52 10 -72 30zM324 509c0 -122 37.666 -220.333 112.999 -295c76.667 -76 179.667 -114 309 -114
s232.333 38 309 114c75.333 74.667 113 173 113 295v934h137v-943c0 -158 -50 -284.667 -150 -380c-101.333 -97.333 -237.666 -146 -408.999 -146c-170.667 0 -306.667 48.667 -408 146c-100 95.333 -150 222 -150 380v943h136v-934z" />
    <glyph glyph-name="Yacute" unicode="&#xdd;" horiz-adv-x="1321" 
d="M592 0v624l-518 819h157l423 -680h12l423 680h156l-517 -819v-624h-136zM883 1874h174l-326 -297h-158z" />
    <glyph glyph-name="Thorn" unicode="&#xde;" horiz-adv-x="1270" 
d="M321 1443v-274h386c122.667 0 224 -36 304 -108c84.667 -76 127 -176.667 127 -302c0 -126 -42.333 -227 -127 -303c-80 -72 -181.667 -108 -305 -108h-385v-348h-137v1443h137zM321 470h352c99.333 0 177.666 24.667 234.999 74c60 51.333 90 123 90 215
c0 91.333 -30 162.333 -90 213c-57.333 49.333 -135.666 74 -234.999 74h-352v-576z" />
    <glyph glyph-name="germandbls" unicode="&#xdf;" horiz-adv-x="1229" 
d="M210 0v1101c0 120.667 36.667 216.334 110 287.001c72.667 70 170 105 292 105c118 0 214.333 -34.333 289 -103c74.667 -68 112 -155.333 112 -262c0 -82 -22.667 -154.667 -68 -218c-44 -61.333 -100 -102 -168 -122v-13c104 -10 187.333 -47.333 250 -112
c65.333 -67.333 98 -154.666 98 -261.999c0 -119.333 -41.667 -218.333 -125 -297c-85.333 -80 -194 -120 -326 -120c-57.333 0 -109 4.66699 -155 14v119c40.667 -10.667 89.667 -16 147 -16c98.667 0 178.334 28.333 239.001 85c60 55.333 90 127.333 90 216
c0 91.333 -33 164.333 -99 219c-67.333 56 -159 84 -275 84h-77v129h70c80 0 144.667 25.667 194 77c50.667 52 76 122 76 210c0 74 -24.333 134.667 -73 182c-50 48.667 -115.667 73 -197 73c-86.667 0 -154.334 -25.667 -203.001 -77
c-47.333 -50.667 -71 -121.334 -71 -212.001v-1087h-130z" />
    <glyph glyph-name="agrave" unicode="&#xe0;" horiz-adv-x="1125" 
d="M732 185c65.333 58.667 97.999 130.667 97.999 216v126l-319 -23c-180.667 -12.667 -271 -80.667 -271 -204c0 -61.333 23.667 -110.333 71 -147c46 -36.667 105.667 -55 179 -55c96.667 0 177.334 29 242.001 87zM206.999 68c-68 58 -101.999 134.668 -101.999 230.001
c0 93.333 33.667 167 101 221c66 53.333 161.667 84.333 287 93l337 22v104c0 77.333 -22.667 136.666 -68 177.999c-46 41.333 -112.667 62 -200 62c-74 0 -136 -14.667 -186 -44c-50.667 -30 -82.334 -71 -95.001 -123h-133c12.667 85.333 57.334 154 134.001 206
c76 52 170.667 78 284 78c126 0 223.667 -31.333 293 -94c68.667 -62 103 -149.333 103 -262v-739h-126v185h-12c-32.667 -64 -80.334 -113.667 -143.001 -149c-62.667 -36 -133.667 -54 -213 -54c-106.667 0 -193.667 28.667 -261 86zM514 1267l-269 327h168l250 -327h-149
z" />
    <glyph glyph-name="aacute" unicode="&#xe1;" horiz-adv-x="1125" 
d="M732 185c65.333 58.667 97.999 130.667 97.999 216v126l-319 -23c-180.667 -12.667 -271 -80.667 -271 -204c0 -61.333 23.667 -110.333 71 -147c46 -36.667 105.667 -55 179 -55c96.667 0 177.334 29 242.001 87zM206.999 68c-68 58 -101.999 134.668 -101.999 230.001
c0 93.333 33.667 167 101 221c66 53.333 161.667 84.333 287 93l337 22v104c0 77.333 -22.667 136.666 -68 177.999c-46 41.333 -112.667 62 -200 62c-74 0 -136 -14.667 -186 -44c-50.667 -30 -82.334 -71 -95.001 -123h-133c12.667 85.333 57.334 154 134.001 206
c76 52 170.667 78 284 78c126 0 223.667 -31.333 293 -94c68.667 -62 103 -149.333 103 -262v-739h-126v185h-12c-32.667 -64 -80.334 -113.667 -143.001 -149c-62.667 -36 -133.667 -54 -213 -54c-106.667 0 -193.667 28.667 -261 86zM727 1594h168l-269 -327h-149z" />
    <glyph glyph-name="acircumflex" unicode="&#xe2;" horiz-adv-x="1125" 
d="M732 185c65.333 58.667 97.999 130.667 97.999 216v126l-319 -23c-180.667 -12.667 -271 -80.667 -271 -204c0 -61.333 23.667 -110.333 71 -147c46 -36.667 105.667 -55 179 -55c96.667 0 177.334 29 242.001 87zM206.999 68c-68 58 -101.999 134.668 -101.999 230.001
c0 93.333 33.667 167 101 221c66 53.333 161.667 84.333 287 93l337 22v104c0 77.333 -22.667 136.666 -68 177.999c-46 41.333 -112.667 62 -200 62c-74 0 -136 -14.667 -186 -44c-50.667 -30 -82.334 -71 -95.001 -123h-133c12.667 85.333 57.334 154 134.001 206
c76 52 170.667 78 284 78c126 0 223.667 -31.333 293 -94c68.667 -62 103 -149.333 103 -262v-739h-126v185h-12c-32.667 -64 -80.334 -113.667 -143.001 -149c-62.667 -36 -133.667 -54 -213 -54c-106.667 0 -193.667 28.667 -261 86zM918 1228h-153l-193 243h-12
l-193 -243h-153l275 332h154z" />
    <glyph glyph-name="atilde" unicode="&#xe3;" horiz-adv-x="1125" 
d="M732 185c65.333 58.667 97.999 130.667 97.999 216v126l-319 -23c-180.667 -12.667 -271 -80.667 -271 -204c0 -61.333 23.667 -110.333 71 -147c46 -36.667 105.667 -55 179 -55c96.667 0 177.334 29 242.001 87zM206.999 68c-68 58 -101.999 134.668 -101.999 230.001
c0 93.333 33.667 167 101 221c66 53.333 161.667 84.333 287 93l337 22v104c0 77.333 -22.667 136.666 -68 177.999c-46 41.333 -112.667 62 -200 62c-74 0 -136 -14.667 -186 -44c-50.667 -30 -82.334 -71 -95.001 -123h-133c12.667 85.333 57.334 154 134.001 206
c76 52 170.667 78 284 78c126 0 223.667 -31.333 293 -94c68.667 -62 103 -149.333 103 -262v-739h-126v185h-12c-32.667 -64 -80.334 -113.667 -143.001 -149c-62.667 -36 -133.667 -54 -213 -54c-106.667 0 -193.667 28.667 -261 86zM326 1230l-111.001 0.000976562
c0 80.667 18.667 144.667 56 192c37.333 46.667 88.333 70 153 70c56.667 0 111.334 -26.333 164.001 -79s91 -79 115 -79c69.333 0 104 52.667 104 158h110c0 -80.667 -18.667 -144.334 -56 -191.001c-37.333 -47.333 -88.333 -71 -153 -71c-56 0 -110.333 26.333 -163 79
c-52 52.667 -90.333 79 -115 79c-69.333 0 -104 -52.667 -104 -158z" />
    <glyph glyph-name="adieresis" unicode="&#xe4;" horiz-adv-x="1125" 
d="M732 185c65.333 58.667 97.999 130.667 97.999 216v126l-319 -23c-180.667 -12.667 -271 -80.667 -271 -204c0 -61.333 23.667 -110.333 71 -147c46 -36.667 105.667 -55 179 -55c96.667 0 177.334 29 242.001 87zM206.999 68c-68 58 -101.999 134.668 -101.999 230.001
c0 93.333 33.667 167 101 221c66 53.333 161.667 84.333 287 93l337 22v104c0 77.333 -22.667 136.666 -68 177.999c-46 41.333 -112.667 62 -200 62c-74 0 -136 -14.667 -186 -44c-50.667 -30 -82.334 -71 -95.001 -123h-133c12.667 85.333 57.334 154 134.001 206
c76 52 170.667 78 284 78c126 0 223.667 -31.333 293 -94c68.667 -62 103 -149.333 103 -262v-739h-126v185h-12c-32.667 -64 -80.334 -113.667 -143.001 -149c-62.667 -36 -133.667 -54 -213 -54c-106.667 0 -193.667 28.667 -261 86zM312 1258
c-20 19.333 -30 43.333 -30 72s10 52.667 30 72c20 20 44 30 72 30c28.667 0 52.667 -10 72 -30c20 -19.333 30 -43.333 30 -72s-10 -52.667 -30 -72c-19.333 -20 -43.333 -30 -72 -30c-28 0 -52 10 -72 30zM676 1258c-20 19.333 -30 43.333 -30 72s10 52.667 30 72
c20 20 44 30 72 30c28.667 0 52.667 -10 72 -30c20 -19.333 30 -43.333 30 -72s-10 -52.667 -30 -72c-19.333 -20 -43.333 -30 -72 -30c-28 0 -52 10 -72 30z" />
    <glyph glyph-name="aring" unicode="&#xe5;" horiz-adv-x="1125" 
d="M732 185c65.333 58.667 97.999 130.667 97.999 216v126l-319 -23c-180.667 -12.667 -271 -80.667 -271 -204c0 -61.333 23.667 -110.333 71 -147c46 -36.667 105.667 -55 179 -55c96.667 0 177.334 29 242.001 87zM206.999 68c-68 58 -101.999 134.668 -101.999 230.001
c0 93.333 33.667 167 101 221c66 53.333 161.667 84.333 287 93l337 22v104c0 77.333 -22.667 136.666 -68 177.999c-46 41.333 -112.667 62 -200 62c-74 0 -136 -14.667 -186 -44c-50.667 -30 -82.334 -71 -95.001 -123h-133c12.667 85.333 57.334 154 134.001 206
c76 52 170.667 78 284 78c126 0 223.667 -31.333 293 -94c68.667 -62 103 -149.333 103 -262v-739h-126v185h-12c-32.667 -64 -80.334 -113.667 -143.001 -149c-62.667 -36 -133.667 -54 -213 -54c-106.667 0 -193.667 28.667 -261 86zM415 1289
c-41.333 40.667 -62 90.667 -62 150c0 58.667 20.667 108.334 62 149.001s91.666 61 150.999 61s109.666 -20.333 150.999 -61s62 -90.334 62 -149.001c0 -59.333 -20.667 -109.333 -62 -150s-91.666 -61 -150.999 -61s-109.666 20.333 -150.999 61zM655 1349
c24 24.667 36 54.667 36 90s-12 65 -36 89s-53.667 36 -89 36s-65 -12 -89 -36s-36 -53.667 -36 -89s12 -65.333 36 -90c24 -24 53.667 -36 89 -36s65 12 89 36z" />
    <glyph glyph-name="ae" unicode="&#xe6;" horiz-adv-x="1880" 
d="M1063 54c-72.667 47.333 -123.999 110.999 -153.999 190.999h-12c-32 -82 -84.333 -146.333 -157 -193c-74 -46.667 -161 -70 -261 -70c-111.333 0 -201.333 28.333 -270 85c-69.333 57.333 -104 133.333 -104 228c0 92.667 33.333 165.334 100 218.001
c66 52.667 161.667 83 287 91l338 21v113c0 77.333 -22.667 136.666 -68 177.999c-46 41.333 -112.667 62 -200 62c-74 0 -136 -14.667 -186 -44c-50.667 -30 -82.334 -71 -95.001 -123h-133c12.667 85.333 57 154 133 206c76.667 52 171.667 78 285 78
c90 0 166.333 -20.333 229 -61c61.333 -40 102 -94.667 122 -164h13c30.667 66 79.334 119.667 146.001 161c70 42.667 148 64 234 64c141.333 0 252.666 -46.333 333.999 -139c80.667 -93.333 121 -221 121 -383v-58h-804v-15c3.33301 -121.333 37 -218.666 101 -291.999
c64 -72.667 148.333 -109 253 -109c150.667 0 250.667 55.667 300 167h133c-26.667 -89.333 -78.334 -159 -155.001 -209s-170 -75 -280 -75c-93.333 0 -176.666 24 -249.999 72zM1063 881.999c-61.333 -64.667 -95.333 -151.333 -102 -260h667
c-1.33301 105.333 -32 191.333 -92 258c-60 66 -137.333 99 -232 99c-98.667 0 -179 -32.333 -241 -97zM734.001 188c64 60 96 133.001 96 219.001v111l-321 -21c-179.333 -12.667 -269 -79 -269 -199c0 -60.667 23.667 -109.334 71 -146.001c47.333 -36 109 -54 185 -54
c94.667 0 174 30 238 90z" />
    <glyph glyph-name="ccedilla" unicode="&#xe7;" horiz-adv-x="1145" 
d="M908 760c-17.333 64 -52.333 115.668 -105 155.001c-56 41.333 -124 62 -204 62c-107.333 0 -192.333 -39.333 -255 -118c-63.333 -78.667 -95 -184.334 -95 -317.001c0 -134.667 31.667 -241.667 95 -321c63.333 -80 148.333 -120 255 -120c80 0 147 18.333 201 55
c54.667 36.667 90.334 88 107.001 154h133c-15.333 -90 -56 -163.667 -122 -221c-68 -59.333 -154.333 -94 -259 -104l-51 -127c66.667 0 118.667 -13.667 156 -41c38 -28 57 -67.667 57 -119c0 -54 -21 -97.667 -63 -131c-42 -34 -98 -51 -168 -51
c-52 0 -99.667 6.66699 -143 20v87c33.333 -12 75.666 -18 126.999 -18c40 0 72 8 96 24s36 38 36 66c0 54 -51.667 81 -155 81h-56v67l57 141c-134.667 11.333 -241.334 66.666 -320.001 165.999c-78.667 100 -118 230.667 -118 392c0 168.667 43.667 303 131 403
c88 100 206 150 354 150c120 0 220.667 -32.333 302 -97c76.667 -61.333 123.334 -140.666 140.001 -237.999h-133z" />
    <glyph glyph-name="egrave" unicode="&#xe8;" horiz-adv-x="1174" 
d="M542 1267l-269 327h168l250 -327h-149zM353 879c-62.667 -67.333 -97.001 -156.333 -103.001 -267h671c-1.33301 111.333 -31.666 200.333 -90.999 267c-60 66.667 -138.667 100 -236 100c-98 0 -178.333 -33.333 -241 -100zM1041 266
c-26.667 -88 -79.332 -157.333 -157.999 -208s-174.334 -76 -287.001 -76c-148 0 -265.333 50.333 -352 151c-86.667 100 -130 235 -130 405c0 169.333 43.667 304.333 131 405c86.667 101.333 203.334 152 350.001 152c143.333 0 256.333 -47.667 339 -143
s124 -225.333 124 -390v-58h-809v-6c3.33301 -122 36.666 -219 99.999 -291c62.667 -72 146 -108 250 -108c158 0 261 55.667 309 167h133z" />
    <glyph glyph-name="eacute" unicode="&#xe9;" horiz-adv-x="1174" 
d="M755 1594h168l-269 -327h-149zM353 879c-62.667 -67.333 -97.001 -156.333 -103.001 -267h671c-1.33301 111.333 -31.666 200.333 -90.999 267c-60 66.667 -138.667 100 -236 100c-98 0 -178.333 -33.333 -241 -100zM1041 266
c-26.667 -88 -79.332 -157.333 -157.999 -208s-174.334 -76 -287.001 -76c-148 0 -265.333 50.333 -352 151c-86.667 100 -130 235 -130 405c0 169.333 43.667 304.333 131 405c86.667 101.333 203.334 152 350.001 152c143.333 0 256.333 -47.667 339 -143
s124 -225.333 124 -390v-58h-809v-6c3.33301 -122 36.666 -219 99.999 -291c62.667 -72 146 -108 250 -108c158 0 261 55.667 309 167h133z" />
    <glyph glyph-name="ecircumflex" unicode="&#xea;" horiz-adv-x="1174" 
d="M946 1228h-153l-193 243h-12l-193 -243h-153l275 332h154zM353 879c-62.667 -67.333 -97.001 -156.333 -103.001 -267h671c-1.33301 111.333 -31.666 200.333 -90.999 267c-60 66.667 -138.667 100 -236 100c-98 0 -178.333 -33.333 -241 -100zM1041 266
c-26.667 -88 -79.332 -157.333 -157.999 -208s-174.334 -76 -287.001 -76c-148 0 -265.333 50.333 -352 151c-86.667 100 -130 235 -130 405c0 169.333 43.667 304.333 131 405c86.667 101.333 203.334 152 350.001 152c143.333 0 256.333 -47.667 339 -143
s124 -225.333 124 -390v-58h-809v-6c3.33301 -122 36.666 -219 99.999 -291c62.667 -72 146 -108 250 -108c158 0 261 55.667 309 167h133z" />
    <glyph glyph-name="edieresis" unicode="&#xeb;" horiz-adv-x="1174" 
d="M353 879c-62.667 -67.333 -97.001 -156.333 -103.001 -267h671c-1.33301 111.333 -31.666 200.333 -90.999 267c-60 66.667 -138.667 100 -236 100c-98 0 -178.333 -33.333 -241 -100zM1041 266c-26.667 -88 -79.332 -157.333 -157.999 -208s-174.334 -76 -287.001 -76
c-148 0 -265.333 50.333 -352 151c-86.667 100 -130 235 -130 405c0 169.333 43.667 304.333 131 405c86.667 101.333 203.334 152 350.001 152c143.333 0 256.333 -47.667 339 -143s124 -225.333 124 -390v-58h-809v-6c3.33301 -122 36.666 -219 99.999 -291
c62.667 -72 146 -108 250 -108c158 0 261 55.667 309 167h133zM340.001 1258c-20 19.333 -30 43.333 -30 72s10 52.667 30 72c20 20 44 30 72 30c28.667 0 52.667 -10 72 -30c20 -19.333 30 -43.333 30 -72s-10 -52.667 -30 -72c-19.333 -20 -43.333 -30 -72 -30
c-28 0 -52 10 -72 30zM704.001 1258c-20 19.333 -30 43.333 -30 72s10 52.667 30 72c20 20 44 30 72 30c28.667 0 52.667 -10 72 -30c20 -19.333 30 -43.333 30 -72s-10 -52.667 -30 -72c-19.333 -20 -43.333 -30 -72 -30c-28 0 -52 10 -72 30z" />
    <glyph glyph-name="igrave" unicode="&#xec;" horiz-adv-x="489" 
d="M192 1267l-269 327h168l250 -327h-149zM179 1077h131v-1077h-131v1077z" />
    <glyph glyph-name="iacute" unicode="&#xed;" horiz-adv-x="489" 
d="M404 1594h168l-269 -327h-149zM178 1077h131v-1077h-131v1077z" />
    <glyph glyph-name="icircumflex" unicode="&#xee;" horiz-adv-x="489" 
d="M596 1228h-153l-193 243h-12l-193 -243h-153l275 332h154zM179 1077h131v-1077h-131v1077z" />
    <glyph glyph-name="idieresis" unicode="&#xef;" horiz-adv-x="489" 
d="M179 1077h131v-1077h-131v1077zM-10 1258c-20 19.333 -30 43.333 -30 72s10 52.667 30 72c20 20 44 30 72 30c28.667 0 52.667 -10 72 -30c20 -19.333 30 -43.333 30 -72s-10 -52.667 -30 -72c-19.333 -20 -43.333 -30 -72 -30c-28 0 -52 10 -72 30zM354 1258
c-20 19.333 -30 43.333 -30 72s10 52.667 30 72c20 20 44 30 72 30c28.667 0 52.667 -10 72 -30c20 -19.333 30 -43.333 30 -72s-10 -52.667 -30 -72c-19.333 -20 -43.333 -30 -72 -30c-28 0 -52 10 -72 30z" />
    <glyph glyph-name="eth" unicode="&#xf0;" horiz-adv-x="1192" 
d="M246 129c-88 98.667 -132 230.665 -132 395.998c0 156.667 42.333 284.334 127 383.001c84 98 193.667 147 329 147c74.667 0 143.667 -17.667 207 -53s109 -82 137 -140h12c-34 146.667 -100.667 277.667 -200 393l-283 -102l-29 88l247 89
c-49.333 52 -121 112 -215 180h164c63.333 -44 118.666 -91 165.999 -141l257 92l29 -88l-225 -81c158 -196.667 237 -438.667 237 -726c0 -179.333 -42.667 -321.666 -128 -426.999c-85.333 -104.667 -200.666 -157 -345.999 -157c-148.667 0 -266.667 49 -354 147z
M345 822.998c-64 -75.333 -96 -174.668 -96 -298.001c0 -127.333 32 -230 96 -308c64 -77.333 149 -116 255 -116c104.667 0 188.667 38.333 252 115s95 178.334 95 305.001c0 126 -31.667 227 -95 303c-64 75.333 -148.667 113 -254 113c-104.667 0 -189 -38 -253 -114z
" />
    <glyph glyph-name="ntilde" unicode="&#xf1;" horiz-adv-x="1206" 
d="M387 1230l-111.001 0.000976562c0 80.667 18.667 144.667 56 192c37.333 46.667 88.333 70 153 70c56.667 0 111.334 -26.333 164.001 -79s91 -79 115 -79c69.333 0 104 52.667 104 158h110c0 -80.667 -18.667 -144.334 -56 -191.001
c-37.333 -47.333 -88.333 -71 -153 -71c-56 0 -110.333 26.333 -163 79c-52 52.667 -90.333 79 -115 79c-69.333 0 -104 -52.667 -104 -158zM167.999 1077l125.001 -0.000976562v-194h13c28.667 66.667 74.667 118.667 138 156s137.666 56 222.999 56
c120 0 213 -34.333 279 -103c66 -69.333 99 -166.666 99 -291.999v-700h-131v667c0 206.667 -93.667 310 -281 310c-100.667 0 -181.667 -30.667 -243 -92c-60.667 -62 -91 -143.667 -91 -245v-640h-131v1077z" />
    <glyph glyph-name="ograve" unicode="&#xf2;" horiz-adv-x="1208" 
d="M551 1267l-269 327h168l250 -327h-149zM863 218c62.667 77.333 94 184.333 94 321s-31.333 243.667 -94 321c-62.667 78 -149.334 117 -260.001 117s-197.334 -39 -260.001 -117c-62.667 -77.333 -94 -184.333 -94 -321s31.333 -243.667 94 -321
c62.667 -78 149.334 -117 260.001 -117s197.334 39 260.001 117zM246 132c-88 99.333 -132 235 -132 407s44 307.667 132 407c87.333 99.333 206.333 149 357 149s270 -49.667 358 -149s132 -235 132 -407s-44 -307.667 -132 -407c-88 -100 -207.333 -150 -358 -150
s-269.667 50 -357 150z" />
    <glyph glyph-name="oacute" unicode="&#xf3;" horiz-adv-x="1208" 
d="M764 1594h168l-269 -327h-149zM863 218c62.667 77.333 94 184.333 94 321s-31.333 243.667 -94 321c-62.667 78 -149.334 117 -260.001 117s-197.334 -39 -260.001 -117c-62.667 -77.333 -94 -184.333 -94 -321s31.333 -243.667 94 -321
c62.667 -78 149.334 -117 260.001 -117s197.334 39 260.001 117zM246 132c-88 99.333 -132 235 -132 407s44 307.667 132 407c87.333 99.333 206.333 149 357 149s270 -49.667 358 -149s132 -235 132 -407s-44 -307.667 -132 -407c-88 -100 -207.333 -150 -358 -150
s-269.667 50 -357 150z" />
    <glyph glyph-name="ocircumflex" unicode="&#xf4;" horiz-adv-x="1208" 
d="M955 1228h-153l-193 243h-12l-193 -243h-153l275 332h154zM863 218c62.667 77.333 94 184.333 94 321s-31.333 243.667 -94 321c-62.667 78 -149.334 117 -260.001 117s-197.334 -39 -260.001 -117c-62.667 -77.333 -94 -184.333 -94 -321s31.333 -243.667 94 -321
c62.667 -78 149.334 -117 260.001 -117s197.334 39 260.001 117zM246 132c-88 99.333 -132 235 -132 407s44 307.667 132 407c87.333 99.333 206.333 149 357 149s270 -49.667 358 -149s132 -235 132 -407s-44 -307.667 -132 -407c-88 -100 -207.333 -150 -358 -150
s-269.667 50 -357 150z" />
    <glyph glyph-name="otilde" unicode="&#xf5;" horiz-adv-x="1208" 
d="M363 1230l-111.001 0.000976562c0 80.667 18.667 144.667 56 192c37.333 46.667 88.333 70 153 70c56.667 0 111.334 -26.333 164.001 -79s91 -79 115 -79c69.333 0 104 52.667 104 158h110c0 -80.667 -18.667 -144.334 -56 -191.001
c-37.333 -47.333 -88.333 -71 -153 -71c-56 0 -110.333 26.333 -163 79c-52 52.667 -90.333 79 -115 79c-69.333 0 -104 -52.667 -104 -158zM862.999 218.001c62.667 77.333 94 184.333 94 321s-31.333 243.667 -94 321c-62.667 78 -149.334 117 -260.001 117
s-197.334 -39 -260.001 -117c-62.667 -77.333 -94 -184.333 -94 -321s31.333 -243.667 94 -321c62.667 -78 149.334 -117 260.001 -117s197.334 39 260.001 117zM245.999 132.001c-88 99.333 -132 235 -132 407s44 307.667 132 407c87.333 99.333 206.333 149 357 149
s270 -49.667 358 -149s132 -235 132 -407s-44 -307.667 -132 -407c-88 -100 -207.333 -150 -358 -150s-269.667 50 -357 150z" />
    <glyph glyph-name="odieresis" unicode="&#xf6;" horiz-adv-x="1208" 
d="M349 1258c-20 19.333 -30 43.333 -30 72s10 52.667 30 72c20 20 44 30 72 30c28.667 0 52.667 -10 72 -30c20 -19.333 30 -43.333 30 -72s-10 -52.667 -30 -72c-19.333 -20 -43.333 -30 -72 -30c-28 0 -52 10 -72 30zM713 1258c-20 19.333 -30 43.333 -30 72
s10 52.667 30 72c20 20 44 30 72 30c28.667 0 52.667 -10 72 -30c20 -19.333 30 -43.333 30 -72s-10 -52.667 -30 -72c-19.333 -20 -43.333 -30 -72 -30c-28 0 -52 10 -72 30zM863 218c62.667 77.333 94 184.333 94 321s-31.333 243.667 -94 321
c-62.667 78 -149.334 117 -260.001 117s-197.334 -39 -260.001 -117c-62.667 -77.333 -94 -184.333 -94 -321s31.333 -243.667 94 -321c62.667 -78 149.334 -117 260.001 -117s197.334 39 260.001 117zM246 132c-88 99.333 -132 235 -132 407s44 307.667 132 407
c87.333 99.333 206.333 149 357 149s270 -49.667 358 -149s132 -235 132 -407s-44 -307.667 -132 -407c-88 -100 -207.333 -150 -358 -150s-269.667 50 -357 150z" />
    <glyph glyph-name="divide" unicode="&#xf7;" horiz-adv-x="1321" 
d="M168 523v114h983v-114h-983zM584 852c-20.667 20.667 -31 46.334 -31 77.001s10.333 56 31 76c20 20 45.333 30 76 30c30 0 55.333 -10 76 -30c20 -20 30 -45.333 30 -76s-10 -56.334 -30 -77.001c-20.667 -20 -46 -30 -76 -30c-30.667 0 -56 10 -76 30zM584 146
c-20.667 20.667 -31 46.334 -31 77.001s10.333 56 31 76c20 20.667 45.333 31 76 31c30 0 55.333 -10.333 76 -31c20 -20 30 -45.333 30 -76s-10 -56.334 -30 -77.001c-20.667 -20 -46 -30 -76 -30c-30.667 0 -56 10 -76 30z" />
    <glyph glyph-name="oslash" unicode="&#xf8;" horiz-adv-x="1208" 
d="M394 167c57.333 -44 126.999 -66.001 208.999 -66.001c110.667 0 197.334 39 260.001 117c62.667 77.333 94 184.333 94 321c0 128.667 -27.667 231.334 -83 308.001zM805.999 915.999c-56 40.667 -123.666 61 -202.999 61c-110.667 0 -197.334 -39 -260.001 -117
c-62.667 -77.333 -94 -184.333 -94 -321c0 -123.333 25.667 -223 77 -299zM951 956.999c94.667 -100 142 -239.333 142 -418c0 -172 -44 -307.667 -132 -407c-88 -100 -207.333 -150 -358 -150c-109.333 0 -203.333 27.333 -282 82l-85 -121l-82 55l93 131
c-88.667 101.333 -133 238 -133 410s44 307.667 132 407c87.333 99.333 206.333 149 357 149c106 0 198 -25.667 276 -77l82 116l79 -51z" />
    <glyph glyph-name="ugrave" unicode="&#xf9;" horiz-adv-x="1211" 
d="M550 1267l-269 327h168l250 -327h-149zM1037 0h-125v194h-12c-26.667 -66.667 -71.667 -118.667 -135 -156c-62.667 -37.333 -137 -56 -223 -56c-120 0 -213.667 35 -281 105c-68 70 -102 166.667 -102 290v700h131v-667c0 -100 24.667 -176.333 74 -229
c48.667 -52.667 119 -79 211 -79c100.667 0 181 30.333 241 91s90 142 90 244v640h131v-1077z" />
    <glyph glyph-name="uacute" unicode="&#xfa;" horiz-adv-x="1211" 
d="M763 1594h168l-269 -327h-149zM1037 0h-125v194h-12c-26.667 -66.667 -71.667 -118.667 -135 -156c-62.667 -37.333 -137 -56 -223 -56c-120 0 -213.667 35 -281 105c-68 70 -102 166.667 -102 290v700h131v-667c0 -100 24.667 -176.333 74 -229
c48.667 -52.667 119 -79 211 -79c100.667 0 181 30.333 241 91s90 142 90 244v640h131v-1077z" />
    <glyph glyph-name="ucircumflex" unicode="&#xfb;" horiz-adv-x="1211" 
d="M954 1228h-153l-193 243h-12l-193 -243h-153l275 332h154zM1037 0h-125v194h-12c-26.667 -66.667 -71.667 -118.667 -135 -156c-62.667 -37.333 -137 -56 -223 -56c-120 0 -213.667 35 -281 105c-68 70 -102 166.667 -102 290v700h131v-667
c0 -100 24.667 -176.333 74 -229c48.667 -52.667 119 -79 211 -79c100.667 0 181 30.333 241 91s90 142 90 244v640h131v-1077z" />
    <glyph glyph-name="udieresis" unicode="&#xfc;" horiz-adv-x="1211" 
d="M1037 0h-125v194h-12c-26.667 -66.667 -71.667 -118.667 -135 -156c-62.667 -37.333 -137 -56 -223 -56c-120 0 -213.667 35 -281 105c-68 70 -102 166.667 -102 290v700h131v-667c0 -100 24.667 -176.333 74 -229c48.667 -52.667 119 -79 211 -79
c100.667 0 181 30.333 241 91s90 142 90 244v640h131v-1077zM348 1258c-20 19.333 -30 43.333 -30 72s10 52.667 30 72c20 20 44 30 72 30c28.667 0 52.667 -10 72 -30c20 -19.333 30 -43.333 30 -72s-10 -52.667 -30 -72c-19.333 -20 -43.333 -30 -72 -30
c-28 0 -52 10 -72 30zM712 1258c-20 19.333 -30 43.333 -30 72s10 52.667 30 72c20 20 44 30 72 30c28.667 0 52.667 -10 72 -30c20 -19.333 30 -43.333 30 -72s-10 -52.667 -30 -72c-19.333 -20 -43.333 -30 -72 -30c-28 0 -52 10 -72 30z" />
    <glyph glyph-name="yacute" unicode="&#xfd;" horiz-adv-x="1079" 
d="M185 -371v113c14 -2 33.667 -3 59 -3c50 0 90.333 14.333 121 43c30 27.333 57.667 75.333 83 144l22 67l-404 1084h142l326 -934h12l325 934h140l-419 -1129c-47.333 -126.667 -94.333 -212 -141 -256c-48 -44.667 -116.333 -67 -205 -67c-26.667 0 -47 1.33301 -61 4z
M696 1594h168l-269 -327h-149z" />
    <glyph glyph-name="thorn" unicode="&#xfe;" horiz-adv-x="1252" 
d="M1013 943c82.667 -102 124 -236.667 124 -404s-41.333 -302 -124 -404c-83.333 -102 -193 -153 -329 -153c-83.333 0 -157.333 19.667 -222 59c-64 40 -111 94.667 -141 164h-12v-576h-131v1867h125v-639h12c33.333 74 82.666 132 147.999 174
c65.333 42.667 139 64 221 64c136.667 0 246.334 -50.667 329.001 -152zM908 219c62.667 78.667 94 184.999 94 318.999c0 134.667 -31 241.334 -93 320.001c-62.667 79.333 -147 119 -253 119c-105.333 0 -190.333 -40 -255 -120c-64 -80 -96 -186 -96 -318
s32 -238 96 -318s148.667 -120 254 -120c106.667 0 191 39.333 253 118z" />
    <glyph glyph-name="ydieresis" unicode="&#xff;" horiz-adv-x="1079" 
d="M185 -371v113c14 -2 33.667 -3 59 -3c50 0 90.333 14.333 121 43c30 27.333 57.667 75.333 83 144l22 67l-404 1084h142l326 -934h12l325 934h140l-419 -1129c-47.333 -126.667 -94.333 -212 -141 -256c-48 -44.667 -116.333 -67 -205 -67c-26.667 0 -47 1.33301 -61 4z
M281 1258c-20 19.333 -30 43.333 -30 72s10 52.667 30 72c20 20 44 30 72 30c28.667 0 52.667 -10 72 -30c20 -19.333 30 -43.333 30 -72s-10 -52.667 -30 -72c-19.333 -20 -43.333 -30 -72 -30c-28 0 -52 10 -72 30zM645 1258c-20 19.333 -30 43.333 -30 72
s10 52.667 30 72c20 20 44 30 72 30c28.667 0 52.667 -10 72 -30c20 -19.333 30 -43.333 30 -72s-10 -52.667 -30 -72c-19.333 -20 -43.333 -30 -72 -30c-28 0 -52 10 -72 30z" />
    <glyph glyph-name="Amacron" unicode="&#x100;" horiz-adv-x="1363" 
d="M984 442h-606l-160 -442h-145l540 1443h136l539 -1443h-144zM419 560h524l-256 704h-13zM359 1619v105h644v-105h-644z" />
    <glyph glyph-name="amacron" unicode="&#x101;" horiz-adv-x="1125" 
d="M732 185c65.333 58.667 97.999 130.667 97.999 216v126l-319 -23c-180.667 -12.667 -271 -80.667 -271 -204c0 -61.333 23.667 -110.333 71 -147c46 -36.667 105.667 -55 179 -55c96.667 0 177.334 29 242.001 87zM206.999 68c-68 58 -101.999 134.668 -101.999 230.001
c0 93.333 33.667 167 101 221c66 53.333 161.667 84.333 287 93l337 22v104c0 77.333 -22.667 136.666 -68 177.999c-46 41.333 -112.667 62 -200 62c-74 0 -136 -14.667 -186 -44c-50.667 -30 -82.334 -71 -95.001 -123h-133c12.667 85.333 57.334 154 134.001 206
c76 52 170.667 78 284 78c126 0 223.667 -31.333 293 -94c68.667 -62 103 -149.333 103 -262v-739h-126v185h-12c-32.667 -64 -80.334 -113.667 -143.001 -149c-62.667 -36 -133.667 -54 -213 -54c-106.667 0 -193.667 28.667 -261 86zM235 1292v106h662v-106h-662z" />
    <glyph glyph-name="Abreve" unicode="&#x102;" horiz-adv-x="1363" 
d="M984 442h-606l-160 -442h-145l540 1443h136l539 -1443h-144zM419 560h524l-256 704h-13zM469 1851c0 -54 19.3311 -97 57.998 -129c38 -31.333 89.333 -47 154 -47s116 15.667 154 47c38.667 32 58 75 58 129h118c0 -84 -29.667 -150.667 -89 -200
s-139.666 -74 -240.999 -74s-181.666 24.667 -240.999 74s-89 116 -89 200h118z" />
    <glyph glyph-name="abreve" unicode="&#x103;" horiz-adv-x="1125" 
d="M732 185c65.333 58.667 97.999 130.667 97.999 216v126l-319 -23c-180.667 -12.667 -271 -80.667 -271 -204c0 -61.333 23.667 -110.333 71 -147c46 -36.667 105.667 -55 179 -55c96.667 0 177.334 29 242.001 87zM206.999 68c-68 58 -101.999 134.668 -101.999 230.001
c0 93.333 33.667 167 101 221c66 53.333 161.667 84.333 287 93l337 22v104c0 77.333 -22.667 136.666 -68 177.999c-46 41.333 -112.667 62 -200 62c-74 0 -136 -14.667 -186 -44c-50.667 -30 -82.334 -71 -95.001 -123h-133c12.667 85.333 57.334 154 134.001 206
c76 52 170.667 78 284 78c126 0 223.667 -31.333 293 -94c68.667 -62 103 -149.333 103 -262v-739h-126v185h-12c-32.667 -64 -80.334 -113.667 -143.001 -149c-62.667 -36 -133.667 -54 -213 -54c-106.667 0 -193.667 28.667 -261 86zM354 1538
c0 -60 18.333 -107.667 55 -143c37.333 -36.667 89.333 -55 156 -55s118.667 18.333 156 55c36.667 35.333 55 83 55 143h119c0 -89.333 -29.333 -161 -88 -215c-59.333 -55.333 -140 -83 -242 -83s-182.667 27.667 -242 83c-58.667 54 -88 125.667 -88 215h119z" />
    <glyph glyph-name="Aogonek" unicode="&#x104;" horiz-adv-x="1363" 
d="M419 560h524l-256 704h-13zM1341 -397c-25.333 -15.333 -64.665 -23 -117.998 -23c-66.667 0 -120.334 18.333 -161.001 55c-40 37.333 -60 86.666 -60 147.999c0 86.667 45 165.667 135 237l-153 422h-606l-160 -442h-145l540 1443h136l536 -1434
c-104.667 -56.667 -157 -126 -157 -208c0 -35.333 11.667 -63.666 35 -84.999s54.333 -32 93 -32c31.333 0 59.666 5.33301 84.999 16v-97z" />
    <glyph glyph-name="aogonek" unicode="&#x105;" horiz-adv-x="1125" 
d="M733 185c64.667 58.667 97.001 130.666 97.001 215.999v134l-316 -20c-88.667 -6 -156.334 -27 -203.001 -63c-47.333 -35.333 -71 -83.666 -71 -144.999c0 -62.667 23.333 -113 70 -151c46 -38.667 107 -58 183 -58c95.333 0 175.333 29 240 87zM1016 -398.001
c-28.667 -15.333 -66.667 -22.9971 -114 -22.9971c-63.333 0 -115 18.333 -155 55c-39.333 37.333 -59 85.666 -59 144.999c0 91.333 49.333 171.666 148 240.999v165h-12c-32 -63.333 -79.667 -113 -143 -149c-64 -36 -136 -54 -216 -54c-107.333 0 -194 29.667 -260 89
c-66.667 59.333 -100 137 -100 233c0 94.667 33.667 169 101 223s164.666 85.333 291.999 94l332 22v95c-0.666992 77.333 -23.667 136.666 -69 177.999s-111.666 62 -198.999 62c-74 0 -136 -14.667 -186 -44c-50.667 -30 -82.334 -71 -95.001 -123h-133
c12.667 85.333 57.334 154 134.001 206c76 52 170.667 78 284 78c126 0 223.667 -31.333 293 -94c68.667 -62 103 -149.333 103 -262v-727c-102 -60.667 -153 -129 -153 -205c0 -37.333 11.333 -67.333 34 -90c22.667 -22 53 -33 91 -33c36 0 63.333 5 82 15v-97z" />
    <glyph glyph-name="Cacute" unicode="&#x106;" horiz-adv-x="1455" 
d="M984 1875h174l-326 -297h-158zM297 172c-114 134.667 -170.999 317.669 -170.999 549.002s57 414.666 171 549.999c114 134.667 268.667 202 464 202c148.667 0 277 -44.333 385 -133c108 -88 171.667 -200.667 191 -338h-139c-20.667 102 -71.667 185 -153 249
c-80.667 63.333 -175.334 95 -284.001 95c-151.333 0 -271.666 -56.333 -360.999 -169c-89.333 -113.333 -134 -265.333 -134 -456c0 -191.333 44.667 -343 134 -455c89.333 -112.667 210 -169 362 -169c111.333 0 207 28.667 287 86c79.333 57.333 129 133.333 149 228h139
c-20.667 -132.667 -83.334 -239.334 -188.001 -320.001c-105.333 -80.667 -234.333 -121 -387 -121c-196 0 -351 67.333 -465 202z" />
    <glyph glyph-name="cacute" unicode="&#x107;" horiz-adv-x="1145" 
d="M908 760c-17.333 64 -52.334 115.668 -105.001 155.001c-56 41.333 -124 62 -204 62c-107.333 0 -192.333 -39.333 -255 -118c-63.333 -78.667 -95 -184.334 -95 -317.001c0 -134.667 31.667 -241.667 95 -321c63.333 -80 148.333 -120 255 -120c80 0 147 18.333 201 55
c54.667 36.667 90.334 88 107.001 154h133c-16.667 -98.667 -63.334 -177.334 -140.001 -236.001c-79.333 -61.333 -179.333 -92 -300 -92c-148.667 0 -266.667 50.667 -354 152c-88 100.667 -132 236.667 -132 408c0 168.667 43.667 303 131 403c88 100 206 150 354 150
c120 0 220.667 -32.333 302 -97c76.667 -61.333 123.334 -140.666 140.001 -237.999h-133zM757.999 1594h168l-269 -327h-149z" />
    <glyph glyph-name="Ccircumflex" unicode="&#x108;" horiz-adv-x="1455" 
d="M297 172c-114 134.667 -170.999 317.669 -170.999 549.002s57 414.666 171 549.999c114 134.667 268.667 202 464 202c148.667 0 277 -44.333 385 -133c108 -88 171.667 -200.667 191 -338h-139c-20.667 102 -71.667 185 -153 249
c-80.667 63.333 -175.334 95 -284.001 95c-151.333 0 -271.666 -56.333 -360.999 -169c-89.333 -113.333 -134 -265.333 -134 -456c0 -191.333 44.667 -343 134 -455c89.333 -112.667 210 -169 362 -169c111.333 0 207 28.667 287 86c79.333 57.333 129 133.333 149 228h139
c-20.667 -132.667 -83.334 -239.334 -188.001 -320.001c-105.333 -80.667 -234.333 -121 -387 -121c-196 0 -351 67.333 -465 202zM1112 1578h-155l-190 202h-12l-190 -202h-155l289 297h124z" />
    <glyph glyph-name="ccircumflex" unicode="&#x109;" horiz-adv-x="1145" 
d="M949 1228h-153l-193 243h-12l-193 -243h-153l275 332h154zM908 760c-17.333 64 -52.334 115.668 -105.001 155.001c-56 41.333 -124 62 -204 62c-107.333 0 -192.333 -39.333 -255 -118c-63.333 -78.667 -95 -184.334 -95 -317.001c0 -134.667 31.667 -241.667 95 -321
c63.333 -80 148.333 -120 255 -120c80 0 147 18.333 201 55c54.667 36.667 90.334 88 107.001 154h133c-16.667 -98.667 -63.334 -177.334 -140.001 -236.001c-79.333 -61.333 -179.333 -92 -300 -92c-148.667 0 -266.667 50.667 -354 152
c-88 100.667 -132 236.667 -132 408c0 168.667 43.667 303 131 403c88 100 206 150 354 150c120 0 220.667 -32.333 302 -97c76.667 -61.333 123.334 -140.666 140.001 -237.999h-133z" />
    <glyph glyph-name="Cdotaccent" unicode="&#x10a;" horiz-adv-x="1455" 
d="M687 1608c-20.667 20.667 -31.001 45.334 -31.001 74.001c0 29.333 10.333 54 31 74c20.667 20.667 45.334 31 74.001 31c29.333 0 54 -10.333 74 -31c20.667 -20 31 -44.667 31 -74c0 -28.667 -10.333 -53.334 -31 -74.001c-20 -20 -44.667 -30 -74 -30s-54 10 -74 30z
M296.999 172c-114 134.667 -170.999 317.669 -170.999 549.002s57 414.666 171 549.999c114 134.667 268.667 202 464 202c148.667 0 277 -44.333 385 -133c108 -88 171.667 -200.667 191 -338h-139c-20.667 102 -71.667 185 -153 249
c-80.667 63.333 -175.334 95 -284.001 95c-151.333 0 -271.666 -56.333 -360.999 -169c-89.333 -113.333 -134 -265.333 -134 -456c0 -191.333 44.667 -343 134 -455c89.333 -112.667 210 -169 362 -169c111.333 0 207 28.667 287 86c79.333 57.333 129 133.333 149 228h139
c-20.667 -132.667 -83.334 -239.334 -188.001 -320.001c-105.333 -80.667 -234.333 -121 -387 -121c-196 0 -351 67.333 -465 202z" />
    <glyph glyph-name="cdotaccent" unicode="&#x10b;" horiz-adv-x="1145" 
d="M908 760c-17.333 64 -52.334 115.668 -105.001 155.001c-56 41.333 -124 62 -204 62c-107.333 0 -192.333 -39.333 -255 -118c-63.333 -78.667 -95 -184.334 -95 -317.001c0 -134.667 31.667 -241.667 95 -321c63.333 -80 148.333 -120 255 -120c80 0 147 18.333 201 55
c54.667 36.667 90.334 88 107.001 154h133c-16.667 -98.667 -63.334 -177.334 -140.001 -236.001c-79.333 -61.333 -179.333 -92 -300 -92c-148.667 0 -266.667 50.667 -354 152c-88 100.667 -132 236.667 -132 408c0 168.667 43.667 303 131 403c88 100 206 150 354 150
c120 0 220.667 -32.333 302 -97c76.667 -61.333 123.334 -140.666 140.001 -237.999h-133zM519.999 1313c-21.333 21.333 -32 47 -32 77s10.667 55.667 32 77s47 32 77 32s55.667 -10.667 77 -32s32 -47 32 -77s-10.667 -55.667 -32 -77c-21.333 -22 -47 -33 -77 -33
s-55.667 11 -77 33z" />
    <glyph glyph-name="Ccaron" unicode="&#x10c;" horiz-adv-x="1455" 
d="M297 172c-114 134.667 -170.999 317.669 -170.999 549.002s57 414.666 171 549.999c114 134.667 268.667 202 464 202c148.667 0 277 -44.333 385 -133c108 -88 171.667 -200.667 191 -338h-139c-20.667 102 -71.667 185 -153 249
c-80.667 63.333 -175.334 95 -284.001 95c-151.333 0 -271.666 -56.333 -360.999 -169c-89.333 -113.333 -134 -265.333 -134 -456c0 -191.333 44.667 -343 134 -455c89.333 -112.667 210 -169 362 -169c111.333 0 207 28.667 287 86c79.333 57.333 129 133.333 149 228h139
c-20.667 -132.667 -83.334 -239.334 -188.001 -320.001c-105.333 -80.667 -234.333 -121 -387 -121c-196 0 -351 67.333 -465 202zM697.001 1578l-287 297h155l190 -203h12l190 203h155l-287 -297h-128z" />
    <glyph glyph-name="ccaron" unicode="&#x10d;" horiz-adv-x="1145" 
d="M520 1228l-275 332h153l193 -243h12l193 243h153l-275 -332h-154zM908 760c-17.333 64 -52.334 115.668 -105.001 155.001c-56 41.333 -124 62 -204 62c-107.333 0 -192.333 -39.333 -255 -118c-63.333 -78.667 -95 -184.334 -95 -317.001
c0 -134.667 31.667 -241.667 95 -321c63.333 -80 148.333 -120 255 -120c80 0 147 18.333 201 55c54.667 36.667 90.334 88 107.001 154h133c-16.667 -98.667 -63.334 -177.334 -140.001 -236.001c-79.333 -61.333 -179.333 -92 -300 -92
c-148.667 0 -266.667 50.667 -354 152c-88 100.667 -132 236.667 -132 408c0 168.667 43.667 303 131 403c88 100 206 150 354 150c120 0 220.667 -32.333 302 -97c76.667 -61.333 123.334 -140.666 140.001 -237.999h-133z" />
    <glyph glyph-name="Dcaron" unicode="&#x10e;" horiz-adv-x="1471" 
d="M526 1577l-287 297h155l190 -203h12l190 203h155l-287 -297h-128zM659 1443c218 0 387.333 -64 508 -192c118 -126.667 177 -303 177 -529c0 -226.667 -59 -403 -177 -529c-120 -128.667 -289.333 -193 -508 -193h-475v1443h475zM321 124l330 0.000976562
c175.333 0 311.666 53 408.999 159c96 104.667 144 250.667 144 438s-48 333.666 -144 438.999c-97.333 106 -233.666 159 -408.999 159h-330v-1195z" />
    <glyph glyph-name="dcaron" unicode="&#x10f;" horiz-adv-x="1324" 
d="M1331 1506l-37 -444h-93v444h130zM239 135c-83.333 101.333 -125.002 235.667 -125.002 403c0 166.667 42 301.334 126 404.001c83.333 102 193.333 153 330 153c82 0 155.333 -20.333 220 -61s112.334 -96.334 143.001 -167.001h12v639h131v-1506h-126v215h-12
c-32 -72 -80.667 -128.667 -146 -170c-66 -42 -140 -63 -222 -63c-137.333 0 -247.666 51 -330.999 153zM343.998 858.001c-63.333 -79.333 -95 -185.666 -95 -318.999c0 -134 31.667 -240.333 95 -319c62.667 -79.333 147.334 -119 254.001 -119
c106 0 190.667 39.667 254 119s95 185.666 95 318.999c0 132 -31.667 238 -95 318c-64 80 -148.667 120 -254 120c-106.667 0 -191.334 -39.667 -254.001 -119z" />
    <glyph glyph-name="Dcroat" unicode="&#x110;" horiz-adv-x="1447" 
d="M652 124c175.333 0 311.666 53.001 408.999 159.001c96 104.667 144 250.667 144 438s-48 333.666 -144 438.999c-97.333 106 -233.666 159 -408.999 159h-330v-514h262v-124h-262v-557h330zM660 1443c218 0 387.333 -64 508 -192c118 -126.667 177 -303 177 -529
c0 -226.667 -59 -403 -177 -529c-120 -128.667 -289.333 -193 -508 -193h-475v681h-173v124h173v638h475z" />
    <glyph glyph-name="dcroat" unicode="&#x111;" horiz-adv-x="1256" 
d="M852 220c63.333 79.333 95 185.666 95 318.999c0 132 -31.667 238 -95 318c-64 80 -148.667 120 -254 120c-106.667 0 -191.334 -39.667 -254.001 -119c-63.333 -79.333 -95 -185.666 -95 -318.999c0 -134 31.667 -240.333 95 -319
c62.667 -79.333 147.334 -119 254.001 -119c106 0 190.667 39.667 254 119zM1208 1285h-132.002v-1285h-125v215h-13c-32 -72 -80.333 -128.667 -145 -170c-66 -42 -140.333 -63 -223 -63c-137.333 0 -247.666 51 -330.999 153c-83.333 101.333 -125 235.666 -125 402.999
c0 166.667 42 301.334 126 404.001c83.333 102 193.333 153 330 153c82.667 0 156.334 -20.333 221.001 -61c64.667 -41.333 112 -97 142 -167h12v418h-273v98h273v163h131v-163h132v-98z" />
    <glyph glyph-name="Emacron" unicode="&#x112;" horiz-adv-x="1197" 
d="M1056 0h-872v1443h872v-124h-735v-519h698v-122h-698v-554h735v-124zM298 1619v105h644v-105h-644z" />
    <glyph glyph-name="emacron" unicode="&#x113;" horiz-adv-x="1174" 
d="M353 879c-62.667 -67.333 -97.001 -156.333 -103.001 -267h671c-1.33301 111.333 -31.666 200.333 -90.999 267c-60 66.667 -138.667 100 -236 100c-98 0 -178.333 -33.333 -241 -100zM1041 266c-26.667 -88 -79.332 -157.333 -157.999 -208s-174.334 -76 -287.001 -76
c-148 0 -265.333 50.333 -352 151c-86.667 100 -130 235 -130 405c0 169.333 43.667 304.333 131 405c86.667 101.333 203.334 152 350.001 152c143.333 0 256.333 -47.667 339 -143s124 -225.333 124 -390v-58h-809v-6c3.33301 -122 36.666 -219 99.999 -291
c62.667 -72 146 -108 250 -108c158 0 261 55.667 309 167h133zM263.001 1292v106h662v-106h-662z" />
    <glyph glyph-name="Ebreve" unicode="&#x114;" horiz-adv-x="1197" 
d="M1056 0h-872v1443h872v-124h-735v-519h698v-122h-698v-554h735v-124zM408 1851c0 -54 19.3311 -97 57.998 -129c38 -31.333 89.333 -47 154 -47s116 15.667 154 47c38.667 32 58 75 58 129h118c0 -84 -29.667 -150.667 -89 -200s-139.666 -74 -240.999 -74
s-181.666 24.667 -240.999 74s-89 116 -89 200h118z" />
    <glyph glyph-name="ebreve" unicode="&#x115;" horiz-adv-x="1174" 
d="M353 879c-62.667 -67.333 -97.001 -156.333 -103.001 -267h671c-1.33301 111.333 -31.666 200.333 -90.999 267c-60 66.667 -138.667 100 -236 100c-98 0 -178.333 -33.333 -241 -100zM1041 266c-26.667 -88 -79.332 -157.333 -157.999 -208s-174.334 -76 -287.001 -76
c-148 0 -265.333 50.333 -352 151c-86.667 100 -130 235 -130 405c0 169.333 43.667 304.333 131 405c86.667 101.333 203.334 152 350.001 152c143.333 0 256.333 -47.667 339 -143s124 -225.333 124 -390v-58h-809v-6c3.33301 -122 36.666 -219 99.999 -291
c62.667 -72 146 -108 250 -108c158 0 261 55.667 309 167h133zM382.001 1538c0 -60 18.333 -107.667 55 -143c37.333 -36.667 89.333 -55 156 -55s118.667 18.333 156 55c36.667 35.333 55 83 55 143h119c0 -89.333 -29.333 -161 -88 -215
c-59.333 -55.333 -140 -83 -242 -83s-182.667 27.667 -242 83c-58.667 54 -88 125.667 -88 215h119z" />
    <glyph glyph-name="Edotaccent" unicode="&#x116;" horiz-adv-x="1197" 
d="M546 1607c-20.667 20.667 -31.001 45.334 -31.001 74.001c0 29.333 10.333 54 31 74c20.667 20.667 45.334 31 74.001 31c29.333 0 54 -10.333 74 -31c20.667 -20 31 -44.667 31 -74c0 -28.667 -10.333 -53.334 -31 -74.001c-20 -20 -44.667 -30 -74 -30s-54 10 -74 30z
M1056 0h-872v1443h872v-124h-735v-519h698v-122h-698v-554h735v-124z" />
    <glyph glyph-name="edotaccent" unicode="&#x117;" horiz-adv-x="1174" 
d="M517 1313c-21.333 21.333 -32 47 -32 77s10.667 55.667 32 77s47 32 77 32s55.667 -10.667 77 -32s32 -47 32 -77s-10.667 -55.667 -32 -77c-21.333 -22 -47 -33 -77 -33s-55.667 11 -77 33zM353 879c-62.667 -67.333 -97.001 -156.333 -103.001 -267h671
c-1.33301 111.333 -31.666 200.333 -90.999 267c-60 66.667 -138.667 100 -236 100c-98 0 -178.333 -33.333 -241 -100zM1041 266c-26.667 -88 -79.332 -157.333 -157.999 -208s-174.334 -76 -287.001 -76c-148 0 -265.333 50.333 -352 151c-86.667 100 -130 235 -130 405
c0 169.333 43.667 304.333 131 405c86.667 101.333 203.334 152 350.001 152c143.333 0 256.333 -47.667 339 -143s124 -225.333 124 -390v-58h-809v-6c3.33301 -122 36.666 -219 99.999 -291c62.667 -72 146 -108 250 -108c158 0 261 55.667 309 167h133z" />
    <glyph glyph-name="Eogonek" unicode="&#x118;" horiz-adv-x="1197" 
d="M184 0v1443h872v-124h-735v-519h698v-122h-698v-554h735v-98c-122.667 -62.667 -184 -135.667 -184 -219c0 -38 11.333 -68 34 -90c22 -22 52.333 -33 91 -33c38 0 66 5 84 15v-97c-26 -15.333 -65 -23 -117 -23c-66 0 -118.667 18.333 -158 55
c-40 36 -60 84.333 -60 145c0 87.333 43 161 129 221h-691z" />
    <glyph glyph-name="eogonek" unicode="&#x119;" horiz-adv-x="1174" 
d="M637 -369c-38.667 35.333 -58.002 80.6709 -58.002 136.004c0 75.333 37 145.666 111 210.999v12c-23.333 -5.33301 -54.666 -8 -93.999 -8c-147.333 0 -264.666 50 -351.999 150c-86.667 100 -130 235.333 -130 406c0 169.333 43.667 304.666 131 405.999
c86.667 100.667 203.334 151 350.001 151c142.667 0 255.667 -47.667 339 -143c82.667 -95.333 124 -225.333 124 -390v-58h-809v-6c3.33301 -122.667 37 -219.667 101 -291c63.333 -72 147.666 -108 252.999 -108c152.667 0 254.334 55.667 305.001 167h133
c-23.333 -72.667 -83.333 -150.334 -180 -233.001c-108 -88.667 -162 -167.334 -162 -236.001c0 -34 10.667 -61.333 32 -82s49.666 -31 84.999 -31c36.667 0 67 5 91 15v-97c-25.333 -15.333 -64.666 -23 -117.999 -23c-62.667 0 -113.334 17.333 -152.001 52z
M352.998 879.005c-62.667 -67.333 -97.001 -156.333 -103.001 -267h671c-1.33301 111.333 -31.666 200.333 -90.999 267c-60 66.667 -138.667 100 -236 100c-98 0 -178.333 -33.333 -241 -100z" />
    <glyph glyph-name="Ecaron" unicode="&#x11a;" horiz-adv-x="1197" 
d="M556 1577l-287 297h155l190 -203h12l190 203h155l-287 -297h-128zM1056 0h-872v1443h872v-124h-735v-519h698v-122h-698v-554h735v-124z" />
    <glyph glyph-name="ecaron" unicode="&#x11b;" horiz-adv-x="1174" 
d="M517 1228l-275 332h153l193 -243h12l193 243h153l-275 -332h-154zM353 879c-62.667 -67.333 -97.001 -156.333 -103.001 -267h671c-1.33301 111.333 -31.666 200.333 -90.999 267c-60 66.667 -138.667 100 -236 100c-98 0 -178.333 -33.333 -241 -100zM1041 266
c-26.667 -88 -79.332 -157.333 -157.999 -208s-174.334 -76 -287.001 -76c-148 0 -265.333 50.333 -352 151c-86.667 100 -130 235 -130 405c0 169.333 43.667 304.333 131 405c86.667 101.333 203.334 152 350.001 152c143.333 0 256.333 -47.667 339 -143
s124 -225.333 124 -390v-58h-809v-6c3.33301 -122 36.666 -219 99.999 -291c62.667 -72 146 -108 250 -108c158 0 261 55.667 309 167h133z" />
    <glyph glyph-name="Gcircumflex" unicode="&#x11c;" horiz-adv-x="1506" 
d="M1120 1577h-155l-190 202h-12l-190 -202h-155l289 297h124zM1374 559c0 -178.667 -54.667 -321.333 -164 -428c-109.333 -107.333 -255.333 -161 -438 -161c-195.333 0 -352 68.333 -470 205c-117.333 137.333 -176 319.666 -176 546.999c0 226 58.667 407.667 176 545
s273 206 467 206c154 0 284.667 -41 392 -123c106.667 -82 173 -191.667 199 -329h-139c-30 103.333 -84.333 183.333 -163 240s-175 85 -289 85c-152.667 0 -274.667 -56.667 -366 -170s-137 -264.666 -137 -453.999c0 -190 46 -341.667 138 -455
c91.333 -113.333 214 -170 368 -170c141.333 0 254.333 41.333 339 124c84.667 82 127 191 127 327v50h-440v121h576v-160z" />
    <glyph glyph-name="gcircumflex" unicode="&#x11d;" horiz-adv-x="1242" 
d="M956 1228h-153l-193 243h-12l-193 -243h-153l275 332h154zM849 860c-64 78 -148.999 117.001 -254.999 117.001c-106.667 0 -191 -38.667 -253 -116c-61.333 -76.667 -92 -179.667 -92 -309c0 -128.667 30.667 -231.334 92 -308.001c62 -77.333 146.333 -116 253 -116
c107.333 0 192.666 38.333 255.999 115c62.667 76.667 94 179 94 307c0 128.667 -31.667 232 -95 310zM303.001 -327.999c-77.333 50 -122.998 117.331 -136.998 201.998h139c12 -50 44.667 -89.667 98 -119s120.666 -44 201.999 -44c104 0 186.333 25.333 247 76
c60 50.667 90 119.667 90 207v242h-13c-32 -71.333 -79.667 -126.666 -143 -165.999c-62.667 -39.333 -135.334 -59 -218.001 -59c-138 0 -248.333 49.667 -331 149c-82 98.667 -123 229.334 -123 392.001s41.333 293.667 124 393c82.667 100 192.667 150 330 150
c82 0 156.333 -21 223 -63s114.667 -98 144 -168h12v213h126v-1093c0 -117.333 -42.667 -211.333 -128 -282s-198.666 -106 -339.999 -106c-122.667 0 -223.334 25.333 -302.001 76z" />
    <glyph glyph-name="Gbreve" unicode="&#x11e;" horiz-adv-x="1506" 
d="M1374 559c0 -178.667 -54.667 -321.333 -164 -428c-109.333 -107.333 -255.333 -161 -438 -161c-195.333 0 -352 68.333 -470 205c-117.333 137.333 -176 319.666 -176 546.999c0 226 58.667 407.667 176 545s273 206 467 206c154 0 284.667 -41 392 -123
c106.667 -82 173 -191.667 199 -329h-139c-30 103.333 -84.333 183.333 -163 240s-175 85 -289 85c-152.667 0 -274.667 -56.667 -366 -170s-137 -264.666 -137 -453.999c0 -190 46 -341.667 138 -455c91.333 -113.333 214 -170 368 -170c141.333 0 254.333 41.333 339 124
c84.667 82 127 191 127 327v50h-440v121h576v-160zM557 1851c0 -54 19.3311 -97 57.998 -129c38 -31.333 89.333 -47 154 -47s116 15.667 154 47c38.667 32 58 75 58 129h118c0 -84 -29.667 -150.667 -89 -200s-139.666 -74 -240.999 -74s-181.666 24.667 -240.999 74
s-89 116 -89 200h118z" />
    <glyph glyph-name="gbreve" unicode="&#x11f;" horiz-adv-x="1242" 
d="M392 1538c0 -60 18.333 -107.667 55 -143c37.333 -36.667 89.333 -55 156 -55s118.667 18.333 156 55c36.667 35.333 55 83 55 143h119c0 -89.333 -29.333 -161 -88 -215c-59.333 -55.333 -140 -83 -242 -83s-182.667 27.667 -242 83c-58.667 54 -88 125.667 -88 215h119
zM849 860c-64 78 -148.999 117.001 -254.999 117.001c-106.667 0 -191 -38.667 -253 -116c-61.333 -76.667 -92 -179.667 -92 -309c0 -128.667 30.667 -231.334 92 -308.001c62 -77.333 146.333 -116 253 -116c107.333 0 192.666 38.333 255.999 115
c62.667 76.667 94 179 94 307c0 128.667 -31.667 232 -95 310zM303.001 -327.999c-77.333 50 -122.998 117.331 -136.998 201.998h139c12 -50 44.667 -89.667 98 -119s120.666 -44 201.999 -44c104 0 186.333 25.333 247 76c60 50.667 90 119.667 90 207v242h-13
c-32 -71.333 -79.667 -126.666 -143 -165.999c-62.667 -39.333 -135.334 -59 -218.001 -59c-138 0 -248.333 49.667 -331 149c-82 98.667 -123 229.334 -123 392.001s41.333 293.667 124 393c82.667 100 192.667 150 330 150c82 0 156.333 -21 223 -63s114.667 -98 144 -168
h12v213h126v-1093c0 -117.333 -42.667 -211.333 -128 -282s-198.666 -106 -339.999 -106c-122.667 0 -223.334 25.333 -302.001 76z" />
    <glyph glyph-name="Gdotaccent" unicode="&#x120;" horiz-adv-x="1506" 
d="M695 1607c-20.667 20.667 -31.001 45.334 -31.001 74.001c0 29.333 10.333 54 31 74c20.667 20.667 45.334 31 74.001 31c29.333 0 54 -10.333 74 -31c20.667 -20 31 -44.667 31 -74c0 -28.667 -10.333 -53.334 -31 -74.001c-20 -20 -44.667 -30 -74 -30s-54 10 -74 30z
M1374 559c0 -178.667 -54.667 -321.333 -164 -428c-109.333 -107.333 -255.333 -161 -438 -161c-195.333 0 -352 68.333 -470 205c-117.333 137.333 -176 319.666 -176 546.999c0 226 58.667 407.667 176 545s273 206 467 206c154 0 284.667 -41 392 -123
c106.667 -82 173 -191.667 199 -329h-139c-30 103.333 -84.333 183.333 -163 240s-175 85 -289 85c-152.667 0 -274.667 -56.667 -366 -170s-137 -264.666 -137 -453.999c0 -190 46 -341.667 138 -455c91.333 -113.333 214 -170 368 -170c141.333 0 254.333 41.333 339 124
c84.667 82 127 191 127 327v50h-440v121h576v-160z" />
    <glyph glyph-name="gdotaccent" unicode="&#x121;" horiz-adv-x="1242" 
d="M527 1313c-21.333 21.333 -32 47 -32 77s10.667 55.667 32 77s47 32 77 32s55.667 -10.667 77 -32s32 -47 32 -77s-10.667 -55.667 -32 -77c-21.333 -22 -47 -33 -77 -33s-55.667 11 -77 33zM849 860c-64 78 -148.999 117.001 -254.999 117.001
c-106.667 0 -191 -38.667 -253 -116c-61.333 -76.667 -92 -179.667 -92 -309c0 -128.667 30.667 -231.334 92 -308.001c62 -77.333 146.333 -116 253 -116c107.333 0 192.666 38.333 255.999 115c62.667 76.667 94 179 94 307c0 128.667 -31.667 232 -95 310z
M303.001 -327.999c-77.333 50 -122.998 117.331 -136.998 201.998h139c12 -50 44.667 -89.667 98 -119s120.666 -44 201.999 -44c104 0 186.333 25.333 247 76c60 50.667 90 119.667 90 207v242h-13c-32 -71.333 -79.667 -126.666 -143 -165.999
c-62.667 -39.333 -135.334 -59 -218.001 -59c-138 0 -248.333 49.667 -331 149c-82 98.667 -123 229.334 -123 392.001s41.333 293.667 124 393c82.667 100 192.667 150 330 150c82 0 156.333 -21 223 -63s114.667 -98 144 -168h12v213h126v-1093
c0 -117.333 -42.667 -211.333 -128 -282s-198.666 -106 -339.999 -106c-122.667 0 -223.334 25.333 -302.001 76z" />
    <glyph glyph-name="Gcommaaccent" unicode="&#x122;" horiz-adv-x="1506" 
d="M624 -506l102 364h141l-116 -364h-127zM1374 559c0 -178.667 -54.667 -321.333 -164 -428c-109.333 -107.333 -255.333 -161 -438 -161c-195.333 0 -352 68.333 -470 205c-117.333 137.333 -176 319.666 -176 546.999c0 226 58.667 407.667 176 545s273 206 467 206
c154 0 284.667 -41 392 -123c106.667 -82 173 -191.667 199 -329h-139c-30 103.333 -84.333 183.333 -163 240s-175 85 -289 85c-152.667 0 -274.667 -56.667 -366 -170s-137 -264.666 -137 -453.999c0 -190 46 -341.667 138 -455c91.333 -113.333 214 -170 368 -170
c141.333 0 254.333 41.333 339 124c84.667 82 127 191 127 327v50h-440v121h576v-160z" />
    <glyph glyph-name="gcommaaccent" unicode="&#x123;" horiz-adv-x="1242" 
d="M743 1647l-102 -364h-141l116 364h127zM849 860c-64 78 -148.999 117.001 -254.999 117.001c-106.667 0 -191 -38.667 -253 -116c-61.333 -76.667 -92 -179.667 -92 -309c0 -128.667 30.667 -231.334 92 -308.001c62 -77.333 146.333 -116 253 -116
c107.333 0 192.666 38.333 255.999 115c62.667 76.667 94 179 94 307c0 128.667 -31.667 232 -95 310zM303.001 -327.999c-77.333 50 -122.998 117.331 -136.998 201.998h139c12 -50 44.667 -89.667 98 -119s120.666 -44 201.999 -44c104 0 186.333 25.333 247 76
c60 50.667 90 119.667 90 207v242h-13c-32 -71.333 -79.667 -126.666 -143 -165.999c-62.667 -39.333 -135.334 -59 -218.001 -59c-138 0 -248.333 49.667 -331 149c-82 98.667 -123 229.334 -123 392.001s41.333 293.667 124 393c82.667 100 192.667 150 330 150
c82 0 156.333 -21 223 -63s114.667 -98 144 -168h12v213h126v-1093c0 -117.333 -42.667 -211.333 -128 -282s-198.666 -106 -339.999 -106c-122.667 0 -223.334 25.333 -302.001 76z" />
    <glyph glyph-name="Hcircumflex" unicode="&#x124;" horiz-adv-x="1488" 
d="M1165 0v677h-844v-677h-137v1443h137v-642h844v642h137v-1443h-137zM1094 1577h-155l-190 202h-12l-190 -202h-155l289 297h124z" />
    <glyph glyph-name="hcircumflex" unicode="&#x125;" horiz-adv-x="1224" 
d="M179 1506h131v-623h12c29.333 66.667 75.333 118.667 138 156s136.667 56 222 56c121.333 0 215.333 -34.667 282 -104s100 -166.333 100 -291v-700h-131v667c0 206.667 -95 310 -285 310c-101.333 0 -183 -31.333 -245 -94s-93 -143.667 -93 -243v-640h-131v1506z
M595 1640h-155l-190 202h-12l-190 -202h-155l289 297h124z" />
    <glyph glyph-name="Hbar" unicode="&#x126;" horiz-adv-x="1452" 
d="M1147 1095h-844v-294h844v294zM1428 1095h-144v-1095h-137v677h-844v-677h-137v1095h-144v111h144v237h137v-237h844v237h137v-237h144v-111z" />
    <glyph glyph-name="hbar" unicode="&#x127;" horiz-adv-x="1231" 
d="M321 883c26.667 66 71.668 118 135.001 156c64 37.333 138.333 56 223 56c121.333 0 216.666 -34.667 285.999 -104c70 -70 105 -167 105 -291v-700h-131v669c0 98.667 -26 175 -78 229c-51.333 52.667 -123.333 79 -216 79c-100 0 -181 -31 -243 -93
s-93 -143.333 -93 -244v-640h-131v1285h-132v98h132v163h131v-163h272v-98h-272v-402h12z" />
    <glyph glyph-name="Itilde" unicode="&#x128;" horiz-adv-x="507" 
d="M185 0v1443h137v-1443h-137zM238 1660c-52 54.667 -94 82.001 -126 82.001c-64.667 0 -98.334 -51.333 -101.001 -154h-106c0 79.333 18.667 142 56 188c36.667 45.333 86 68 148 68c60 0 116.667 -27.667 170 -83c52.667 -55.333 91.667 -83 117 -83
c64 0 98 51.333 102 154h105c0 -76.667 -18.667 -138.334 -56 -185.001s-86.666 -70 -147.999 -70c-55.333 0 -109 27.667 -161 83z" />
    <glyph glyph-name="itilde" unicode="&#x129;" horiz-adv-x="489" 
d="M179 1077h131v-1077h-131v1077zM4 1230l-111.001 0.000976562c0 80.667 18.667 144.667 56 192c37.333 46.667 88.333 70 153 70c56.667 0 111.334 -26.333 164.001 -79s91 -79 115 -79c69.333 0 104 52.667 104 158h110c0 -80.667 -18.667 -144.334 -56 -191.001
c-37.333 -47.333 -88.333 -71 -153 -71c-56 0 -110.333 26.333 -163 79c-52 52.667 -90.333 79 -115 79c-69.333 0 -104 -52.667 -104 -158z" />
    <glyph glyph-name="Imacron" unicode="&#x12a;" horiz-adv-x="507" 
d="M185 0v1443h137v-1443h-137zM-68 1619v105h644v-105h-644z" />
    <glyph glyph-name="imacron" unicode="&#x12b;" horiz-adv-x="489" 
d="M179 1077h131v-1077h-131v1077zM-87 1292v106h662v-106h-662z" />
    <glyph glyph-name="Ibreve" unicode="&#x12c;" horiz-adv-x="507" 
d="M185 0v1443h137v-1443h-137zM42 1851c0 -54 19.3311 -97 57.998 -129c38 -31.333 89.333 -47 154 -47s116 15.667 154 47c38.667 32 58 75 58 129h118c0 -84 -29.667 -150.667 -89 -200s-139.666 -74 -240.999 -74s-181.666 24.667 -240.999 74s-89 116 -89 200h118z" />
    <glyph glyph-name="ibreve" unicode="&#x12d;" horiz-adv-x="489" 
d="M179 1077h131v-1077h-131v1077zM32 1538c0 -60 18.333 -107.667 55 -143c37.333 -36.667 89.333 -55 156 -55s118.667 18.333 156 55c36.667 35.333 55 83 55 143h119c0 -89.333 -29.333 -161 -88 -215c-59.333 -55.333 -140 -83 -242 -83s-182.667 27.667 -242 83
c-58.667 54 -88 125.667 -88 215h119z" />
    <glyph glyph-name="Iogonek" unicode="&#x12e;" horiz-adv-x="507" 
d="M379 -398c-30.667 -15.333 -69.667 -23 -117 -23c-63.333 0 -115 18.333 -155 55c-39.333 37.333 -59 85.666 -59 144.999c0 90 45.333 169.667 136 239v1425h137v-1437c-101.333 -63.333 -152 -130.666 -152 -201.999c0 -36.667 11.667 -65.667 35 -87
c22.667 -22 53 -33 91 -33c34 0 62 5 84 15v-97z" />
    <glyph glyph-name="iogonek" unicode="&#x12f;" horiz-adv-x="489" 
d="M171 1346c-19.333 19.333 -29 42.333 -29 69s9.66699 49.334 29 68.001c18.667 19.333 41.334 29 68.001 29s49.667 -9.66699 69 -29c19.333 -18.667 29 -41.334 29 -68.001s-9.66699 -49.667 -29 -69c-18.667 -19.333 -41.667 -29 -69 -29
c-26.667 0 -49.334 9.66699 -68.001 29zM366 -398c-32 -15.333 -71 -22.999 -117 -22.999c-64 0 -115.667 18.333 -155 55c-39.333 37.333 -59 85.666 -59 144.999c0 90 46.333 170 139 240v1058h131v-1064c-100 -62 -150 -131.667 -150 -209
c0 -36.667 11.667 -65.667 35 -87c23.333 -22 54 -33 92 -33c32.667 0 60.667 5 84 15v-97z" />
    <glyph glyph-name="Idotaccent" unicode="&#x130;" horiz-adv-x="507" 
d="M184 0v1443h137v-1443h-137zM179 1607c-20.667 20.667 -31.001 45.334 -31.001 74.001c0 29.333 10.333 54 31 74c20.667 20.667 45.334 31 74.001 31c29.333 0 54 -10.333 74 -31c20.667 -20 31 -44.667 31 -74c0 -28.667 -10.333 -53.334 -31 -74.001
c-20 -20 -44.667 -30 -74 -30s-54 10 -74 30z" />
    <glyph glyph-name="dotlessi" unicode="&#x131;" horiz-adv-x="489" 
d="M178 1077h131v-1077h-131v1077z" />
    <glyph glyph-name="IJ" unicode="&#x132;" horiz-adv-x="1595" 
d="M184 0v1443h137v-1443h-137zM734 330c3.33301 -68.667 29.335 -124.668 78.002 -168.001s110.667 -65 186 -65c87.333 0 154.666 26 201.999 78c48 52.667 72 127 72 223v1045h137v-1050c0 -131.333 -36.667 -234.666 -110 -309.999s-173.333 -113 -300 -113
c-116.667 0 -212.334 33.333 -287.001 100c-75.333 67.333 -113.333 154 -114 260h136z" />
    <glyph glyph-name="ij" unicode="&#x133;" horiz-adv-x="977" 
d="M174 1077h131v-1077h-131v1077zM171 1346c-19.333 19.333 -29 42.333 -29 69s9.66699 49.334 29 68.001c18.667 19.333 41.334 29 68.001 29s49.667 -9.66699 69 -29c19.333 -18.667 29 -41.334 29 -68.001s-9.66699 -49.667 -29 -69
c-18.667 -19.333 -41.667 -29 -69 -29c-26.667 0 -49.334 9.66699 -68.001 29zM794 -81c0 -104 -25.333 -180 -76 -228c-49.333 -46.667 -126.666 -70 -231.999 -70h-30v113h27c65.333 0 111.666 14 138.999 42s41 74.667 41 140v1161h131v-1158zM660 1346
c-19.333 19.333 -29 42.333 -29 69s9.66699 49.334 29 68.001c18.667 19.333 41.334 29 68.001 29s49.667 -9.66699 69 -29c19.333 -18.667 29 -41.334 29 -68.001s-9.66699 -49.667 -29 -69c-18.667 -19.333 -41.667 -29 -69 -29c-26.667 0 -49.334 9.66699 -68.001 29z
" />
    <glyph glyph-name="Jcircumflex" unicode="&#x134;" horiz-adv-x="1088" 
d="M227 330c3.33301 -68.667 29.335 -124.668 78.002 -168.001s110.667 -65 186 -65c87.333 0 154.666 26 201.999 78c48 52.667 72 127 72 223v1045h137v-1050c0 -131.333 -36.667 -234.666 -110 -309.999s-173.333 -113 -300 -113
c-116.667 0 -212.334 33.333 -287.001 100c-75.333 67.333 -113.333 154 -114 260h136zM1185 1577h-155l-190 202h-12l-190 -202h-155l289 297h124z" />
    <glyph glyph-name="jcircumflex" unicode="&#x135;" horiz-adv-x="480" 
d="M302 -81c0 -104 -25.333 -180 -76 -228c-49.333 -46.667 -126.666 -70 -231.999 -70h-30v113h27c65.333 0 111.666 14 138.999 42s41 74.667 41 140v1161h131v-1158zM594 1228h-153l-193 243h-12l-193 -243h-153l275 332h154z" />
    <glyph glyph-name="Kcommaaccent" unicode="&#x136;" horiz-adv-x="1311" 
d="M184 0v1443h137v-746h12l683 746h171l-578 -623l637 -820h-177l-555 725l-193 -210v-515h-137zM488 -506l102 364h141l-116 -364h-127z" />
    <glyph glyph-name="kcommaaccent" unicode="&#x137;" horiz-adv-x="1092" 
d="M847 1077h164l-481 -462l503 -615h-168l-434 531l-122 -113v-418h-131v1506h131v-933h12zM433 -506l102 364h141l-116 -364h-127z" />
    <glyph glyph-name="Lacute" unicode="&#x139;" horiz-adv-x="1139" 
d="M476 1874h174l-326 -297h-158zM1043 0h-859v1443h137v-1319h722v-124z" />
    <glyph glyph-name="lacute" unicode="&#x13a;" horiz-adv-x="489" 
d="M466 1937h174l-326 -297h-158zM178 1506h131v-1506h-131v1506z" />
    <glyph glyph-name="Lcommaaccent" unicode="&#x13b;" horiz-adv-x="1139" 
d="M466 -506l102 364h141l-116 -364h-127zM1043 0h-859v1443h137v-1319h722v-124z" />
    <glyph glyph-name="lcommaaccent" unicode="&#x13c;" horiz-adv-x="489" 
d="M95 -506l102 364h141l-116 -364h-127zM178 1506h131v-1506h-131v1506z" />
    <glyph glyph-name="Lcaron" unicode="&#x13d;" horiz-adv-x="1139" 
d="M679 1443l-36 -473h-94v473h130zM1043 0h-859v1443h137v-1319h722v-124z" />
    <glyph glyph-name="lcaron" unicode="&#x13e;" horiz-adv-x="557" 
d="M564 1506l-37 -444h-92v444h129zM178 1506h131v-1506h-131v1506z" />
    <glyph glyph-name="Lslash" unicode="&#x141;" horiz-adv-x="1105" 
d="M1043 124v-124h-859v727l-168 -82v111l168 82v605h137v-538l315 153v-111l-315 -153v-670h722z" />
    <glyph glyph-name="lslash" unicode="&#x142;" horiz-adv-x="489" 
d="M446 867l-137 -72v-795h-131v727l-137 -72v113l137 71v667h131v-598l137 71v-112z" />
    <glyph glyph-name="Nacute" unicode="&#x143;" horiz-adv-x="1494" 
d="M969 1874h174l-326 -297h-158zM184 0v1443h135l841 -1198h13v1198h135v-1443h-132l-844 1199h-13v-1199h-135z" />
    <glyph glyph-name="nacute" unicode="&#x144;" horiz-adv-x="1206" 
d="M788 1594h168l-269 -327h-149zM168 1077l125.001 -0.000976562v-194h13c28.667 66.667 74.667 118.667 138 156s137.666 56 222.999 56c120 0 213 -34.333 279 -103c66 -69.333 99 -166.666 99 -291.999v-700h-131v667c0 206.667 -93.667 310 -281 310
c-100.667 0 -181.667 -30.667 -243 -92c-60.667 -62 -91 -143.667 -91 -245v-640h-131v1077z" />
    <glyph glyph-name="Ncommaaccent" unicode="&#x145;" horiz-adv-x="1494" 
d="M598 -506l102 364h141l-116 -364h-127zM184 0v1443h135l841 -1198h13v1198h135v-1443h-132l-844 1199h-13v-1199h-135z" />
    <glyph glyph-name="ncommaaccent" unicode="&#x146;" horiz-adv-x="1206" 
d="M453 -506l102 364h141l-116 -364h-127zM168 1077l125.001 -0.000976562v-194h13c28.667 66.667 74.667 118.667 138 156s137.666 56 222.999 56c120 0 213 -34.333 279 -103c66 -69.333 99 -166.666 99 -291.999v-700h-131v667c0 206.667 -93.667 310 -281 310
c-100.667 0 -181.667 -30.667 -243 -92c-60.667 -62 -91 -143.667 -91 -245v-640h-131v1077z" />
    <glyph glyph-name="Ncaron" unicode="&#x147;" horiz-adv-x="1494" 
d="M682 1577l-287 297h155l190 -203h12l190 203h155l-287 -297h-128zM184 0v1443h135l841 -1198h13v1198h135v-1443h-132l-844 1199h-13v-1199h-135z" />
    <glyph glyph-name="ncaron" unicode="&#x148;" horiz-adv-x="1206" 
d="M550 1228l-275 332h153l193 -243h12l193 243h153l-275 -332h-154zM168 1077l125.001 -0.000976562v-194h13c28.667 66.667 74.667 118.667 138 156s137.666 56 222.999 56c120 0 213 -34.333 279 -103c66 -69.333 99 -166.666 99 -291.999v-700h-131v667
c0 206.667 -93.667 310 -281 310c-100.667 0 -181.667 -30.667 -243 -92c-60.667 -62 -91 -143.667 -91 -245v-640h-131v1077z" />
    <glyph glyph-name="Omacron" unicode="&#x14c;" horiz-adv-x="1561" 
d="M1258 1270c116 -134 174.001 -316.667 174.001 -548s-58 -414 -174 -548c-116.667 -136 -276 -204 -478 -204c-202.667 0 -362.667 67.667 -480 203c-116 134.667 -174 317.667 -174 549c0 230.667 58.667 413.667 176 549c117.333 134.667 276.666 202 477.999 202
c202 0 361.333 -67.667 478 -203zM405.001 1177c-92.667 -112 -139.001 -263.667 -139.001 -455c0 -190.667 45.667 -342.334 137 -455.001c92.667 -113.333 218.334 -170 377.001 -170c158 0 283 56.667 375 170c91.333 112.667 137 264.334 137 455.001
c0 191.333 -45.667 343 -137 455c-92 112.667 -217 169 -375 169c-157.333 0 -282.333 -56.333 -375 -169zM458 1619v105h644v-105h-644z" />
    <glyph glyph-name="omacron" unicode="&#x14d;" horiz-adv-x="1208" 
d="M272 1292v106h662v-106h-662zM863 218c62.667 77.333 94 184.333 94 321s-31.333 243.667 -94 321c-62.667 78 -149.334 117 -260.001 117s-197.334 -39 -260.001 -117c-62.667 -77.333 -94 -184.333 -94 -321s31.333 -243.667 94 -321
c62.667 -78 149.334 -117 260.001 -117s197.334 39 260.001 117zM246 132c-88 99.333 -132 235 -132 407s44 307.667 132 407c87.333 99.333 206.333 149 357 149s270 -49.667 358 -149s132 -235 132 -407s-44 -307.667 -132 -407c-88 -100 -207.333 -150 -358 -150
s-269.667 50 -357 150z" />
    <glyph glyph-name="Obreve" unicode="&#x14e;" horiz-adv-x="1561" 
d="M1258 1270c116 -134 174.001 -316.667 174.001 -548s-58 -414 -174 -548c-116.667 -136 -276 -204 -478 -204c-202.667 0 -362.667 67.667 -480 203c-116 134.667 -174 317.667 -174 549c0 230.667 58.667 413.667 176 549c117.333 134.667 276.666 202 477.999 202
c202 0 361.333 -67.667 478 -203zM405.001 1177c-92.667 -112 -139.001 -263.667 -139.001 -455c0 -190.667 45.667 -342.334 137 -455.001c92.667 -113.333 218.334 -170 377.001 -170c158 0 283 56.667 375 170c91.333 112.667 137 264.334 137 455.001
c0 191.333 -45.667 343 -137 455c-92 112.667 -217 169 -375 169c-157.333 0 -282.333 -56.333 -375 -169zM568 1851c0 -54 19.3311 -97 57.998 -129c38 -31.333 89.333 -47 154 -47s116 15.667 154 47c38.667 32 58 75 58 129h118c0 -84 -29.667 -150.667 -89 -200
s-139.666 -74 -240.999 -74s-181.666 24.667 -240.999 74s-89 116 -89 200h118z" />
    <glyph glyph-name="obreve" unicode="&#x14f;" horiz-adv-x="1208" 
d="M391 1538c0 -60 18.333 -107.667 55 -143c37.333 -36.667 89.333 -55 156 -55s118.667 18.333 156 55c36.667 35.333 55 83 55 143h119c0 -89.333 -29.333 -161 -88 -215c-59.333 -55.333 -140 -83 -242 -83s-182.667 27.667 -242 83c-58.667 54 -88 125.667 -88 215h119
zM863 218c62.667 77.333 94 184.333 94 321s-31.333 243.667 -94 321c-62.667 78 -149.334 117 -260.001 117s-197.334 -39 -260.001 -117c-62.667 -77.333 -94 -184.333 -94 -321s31.333 -243.667 94 -321c62.667 -78 149.334 -117 260.001 -117s197.334 39 260.001 117z
M246 132c-88 99.333 -132 235 -132 407s44 307.667 132 407c87.333 99.333 206.333 149 357 149s270 -49.667 358 -149s132 -235 132 -407s-44 -307.667 -132 -407c-88 -100 -207.333 -150 -358 -150s-269.667 50 -357 150z" />
    <glyph glyph-name="Ohungarumlaut" unicode="&#x150;" horiz-adv-x="1561" 
d="M1139 1874h174l-325 -297h-158zM776 1874h174l-326 -297h-157zM1258 1270c116 -134 174.001 -316.667 174.001 -548s-58 -414 -174 -548c-116.667 -136 -276 -204 -478 -204c-202.667 0 -362.667 67.667 -480 203c-116 134.667 -174 317.667 -174 549
c0 230.667 58.667 413.667 176 549c117.333 134.667 276.666 202 477.999 202c202 0 361.333 -67.667 478 -203zM405.001 1177c-92.667 -112 -139.001 -263.667 -139.001 -455c0 -190.667 45.667 -342.334 137 -455.001c92.667 -113.333 218.334 -170 377.001 -170
c158 0 283 56.667 375 170c91.333 112.667 137 264.334 137 455.001c0 191.333 -45.667 343 -137 455c-92 112.667 -217 169 -375 169c-157.333 0 -282.333 -56.333 -375 -169z" />
    <glyph glyph-name="ohungarumlaut" unicode="&#x151;" horiz-adv-x="1208" 
d="M926 1594h161l-271 -330h-140zM574 1594h161l-271 -330h-140zM863 218c62.667 77.333 94 184.333 94 321s-31.333 243.667 -94 321c-62.667 78 -149.334 117 -260.001 117s-197.334 -39 -260.001 -117c-62.667 -77.333 -94 -184.333 -94 -321s31.333 -243.667 94 -321
c62.667 -78 149.334 -117 260.001 -117s197.334 39 260.001 117zM246 132c-88 99.333 -132 235 -132 407s44 307.667 132 407c87.333 99.333 206.333 149 357 149s270 -49.667 358 -149s132 -235 132 -407s-44 -307.667 -132 -407c-88 -100 -207.333 -150 -358 -150
s-269.667 50 -357 150z" />
    <glyph glyph-name="OE" unicode="&#x152;" horiz-adv-x="2321" 
d="M407 1178c-94 -112 -141 -264 -141 -456c0 -192.667 46.667 -345 140 -457s220.333 -168 381 -168c156 0 279.333 56 370 168s136 264.333 136 457s-45.333 344.667 -136 456c-90.667 112 -214 168 -370 168c-160 0 -286.667 -56 -380 -168zM1308 302l-12 0.000976562
c-44 -102 -113 -182.667 -207 -242c-94 -60 -199.333 -90 -316 -90c-199.333 0 -357 67.333 -473 202c-116 135.333 -174 318.666 -174 549.999c0 230 58.333 412.667 175 548c116 135.333 273.333 203 472 203c115.333 0 220.333 -29.333 315 -88s164 -137.667 208 -237h12
v295h872v-124h-748v-519h711v-122h-711v-554h748v-124h-872v302z" />
    <glyph glyph-name="oe" unicode="&#x153;" horiz-adv-x="2018" 
d="M1179 60c-75.333 52 -124.665 119.666 -147.998 202.999h-12c-23.333 -84 -73.333 -151.667 -150 -203c-76.667 -52 -165.334 -78 -266.001 -78c-150.667 0 -270 50 -358 150c-87.333 100 -131 235.667 -131 407s43.667 307 131 407c88 100 207.333 150 358 150
c98.667 0 185.334 -25.667 260.001 -77s126.667 -120.666 156 -207.999h13c29.333 87.333 80.333 156.333 153 207c73.333 51.333 157.666 77 252.999 77c142.667 0 255.667 -47.667 339 -143c83.333 -96 125 -226 125 -390v-57h-808v-6
c2.66699 -121.333 36 -218.333 100 -291c62.667 -72.667 145.667 -109 249 -109c159.333 0 262.333 55.667 309 167h133c-26.667 -88 -79.334 -157.333 -158.001 -208s-174 -76 -286 -76c-98.667 0 -186 26 -262 78zM1198 878.999
c-62.667 -66.667 -97.332 -155.332 -103.999 -265.999h671c-1.33301 109.333 -32 197.666 -92 264.999c-60.667 67.333 -139.334 101 -236.001 101c-97.333 0 -177 -33.333 -239 -100zM863.003 217.001c62.667 77.333 93.999 184 93.999 320c0 137.333 -31.333 245 -94 323
c-63.333 78 -150 117 -260 117c-110.667 0 -197.334 -38.667 -260.001 -116c-62.667 -78 -94 -185.333 -94 -322s31.333 -244 94 -322c62.667 -77.333 149.334 -116 260.001 -116s197.334 38.667 260.001 116z" />
    <glyph glyph-name="Racute" unicode="&#x154;" horiz-adv-x="1309" 
d="M813 1874h174l-326 -297h-158zM321 713h369c104.667 0 186 26.667 244 80c58.667 53.333 88 128 88 224c0 94.667 -30 169 -90 223s-142.667 81 -248 81h-363v-608zM321 0h-136.999v1443h517c140.667 0 252.667 -38.333 336 -115c83.333 -76 125 -178.333 125 -307
c0 -102 -27.333 -189 -82 -261c-54.667 -72.667 -130.334 -121.667 -227.001 -147l350 -613h-160l-332 591h-390v-591z" />
    <glyph glyph-name="racute" unicode="&#x155;" horiz-adv-x="754" 
d="M534 1594h168l-269 -327h-149zM168 1077l124.999 0.000976562v-177h13c18 58.667 54.667 105.667 110 141c55.333 36 118.666 54 189.999 54c42.667 0 76.334 -3 101.001 -9v-131c-30 8.66699 -69 13 -117 13c-83.333 0 -152.666 -28 -207.999 -84
c-55.333 -56.667 -83 -127.334 -83 -212.001v-672h-131v1077z" />
    <glyph glyph-name="Rcommaaccent" unicode="&#x156;" horiz-adv-x="1309" 
d="M321 713h369c104.667 0 186 26.667 244 80c58.667 53.333 88 128 88 224c0 94.667 -30 169 -90 223s-142.667 81 -248 81h-363v-608zM321 0h-136.999v1443h517c140.667 0 252.667 -38.333 336 -115c83.333 -76 125 -178.333 125 -307c0 -102 -27.333 -189 -82 -261
c-54.667 -72.667 -130.334 -121.667 -227.001 -147l350 -613h-160l-332 591h-390v-591zM451.001 -506l102 364h141l-116 -364h-127z" />
    <glyph glyph-name="rcommaaccent" unicode="&#x157;" horiz-adv-x="754" 
d="M168 1077l124.999 0.000976562v-177h13c18 58.667 54.667 105.667 110 141c55.333 36 118.666 54 189.999 54c42.667 0 76.334 -3 101.001 -9v-131c-30 8.66699 -69 13 -117 13c-83.333 0 -152.666 -28 -207.999 -84c-55.333 -56.667 -83 -127.334 -83 -212.001v-672
h-131v1077zM84.999 -505.999l102 364h141l-116 -364h-127z" />
    <glyph glyph-name="Rcaron" unicode="&#x158;" horiz-adv-x="1309" 
d="M321 713h369c104.667 0 186 26.667 244 80c58.667 53.333 88 128 88 224c0 94.667 -30 169 -90 223s-142.667 81 -248 81h-363v-608zM321 0h-136.999v1443h517c140.667 0 252.667 -38.333 336 -115c83.333 -76 125 -178.333 125 -307c0 -102 -27.333 -189 -82 -261
c-54.667 -72.667 -130.334 -121.667 -227.001 -147l350 -613h-160l-332 591h-390v-591zM526.001 1577l-287 297h155l190 -203h12l190 203h155l-287 -297h-128z" />
    <glyph glyph-name="rcaron" unicode="&#x159;" horiz-adv-x="754" 
d="M296 1228l-275 332h153l193 -243h12l193 243h153l-275 -332h-154zM168 1077l124.999 0.000976562v-177h13c18 58.667 54.667 105.667 110 141c55.333 36 118.666 54 189.999 54c42.667 0 76.334 -3 101.001 -9v-131c-30 8.66699 -69 13 -117 13
c-83.333 0 -152.666 -28 -207.999 -84c-55.333 -56.667 -83 -127.334 -83 -212.001v-672h-131v1077z" />
    <glyph glyph-name="Sacute" unicode="&#x15a;" horiz-adv-x="1284" 
d="M872 1874h174l-326 -297h-158zM252 375c9.33301 -82.667 51.6641 -150 126.997 -202c74.667 -52 167 -78 277 -78c107.333 0 196.333 27 267 81c69.333 52.667 104 119.334 104 200.001c0 133.333 -107.333 226.333 -322 279l-165 42
c-135.333 33.333 -233.333 80 -294 140c-60.667 59.333 -91 138 -91 236c0 117.333 45.667 213 137 287c92 75.333 211 113 357 113c137.333 0 252.333 -36.333 345 -109c92.667 -72 142.667 -163.333 150 -274h-138c-11.333 77.333 -49.333 139.666 -114 186.999
c-65.333 47.333 -147.666 71 -246.999 71c-103.333 0 -187.666 -25.667 -252.999 -77c-64.667 -50.667 -97 -115.334 -97 -194.001c0 -62.667 24 -114 72 -154c48 -39.333 127 -72.666 237 -99.999l143 -36c148.667 -36.667 256 -86.334 322 -149.001
c65.333 -62 98 -144.333 98 -247c0 -126 -47.667 -227.667 -143 -305c-96 -77.333 -222.667 -116 -380 -116c-149.333 0 -272.666 37.333 -369.999 112c-98 74.667 -151.333 172.334 -160 293.001h138z" />
    <glyph glyph-name="sacute" unicode="&#x15b;" horiz-adv-x="1058" 
d="M256 1008c74.667 58 166.667 87.002 276 87.002c108.667 0 198.667 -25 270 -75c71.333 -50.667 113 -118.667 125 -204h-129c-12 50.667 -41.667 91 -89 121c-48 30.667 -107.333 46 -178 46c-71.333 0 -131.666 -17.333 -180.999 -52c-50 -36 -75 -80.667 -75 -134
c0 -82 71.333 -140 214 -174l148 -35c106 -25.333 183.667 -60.333 233 -105c50.667 -46.667 76 -108.334 76 -185.001c0 -92 -40 -168 -120 -228c-78.667 -58.667 -177.334 -88 -296.001 -88c-117.333 0 -214 26 -290 78c-76 51.333 -119.333 121.333 -130 210h136
c14.667 -54.667 46.667 -97.334 96 -128.001c50.667 -32 114.667 -48 192 -48c79.333 0 145.333 18.333 198 55s79 83 79 139c0 88.667 -70.333 149.667 -211 183l-163 39c-101.333 24.667 -175.333 58.667 -222 102c-48 45.333 -72 105.333 -72 180
c0 86 37.667 158 113 216zM690 1594h168l-269 -327h-149z" />
    <glyph glyph-name="Scircumflex" unicode="&#x15c;" horiz-adv-x="1284" 
d="M252 375c9.33301 -82.667 51.6641 -150 126.997 -202c74.667 -52 167 -78 277 -78c107.333 0 196.333 27 267 81c69.333 52.667 104 119.334 104 200.001c0 133.333 -107.333 226.333 -322 279l-165 42c-135.333 33.333 -233.333 80 -294 140
c-60.667 59.333 -91 138 -91 236c0 117.333 45.667 213 137 287c92 75.333 211 113 357 113c137.333 0 252.333 -36.333 345 -109c92.667 -72 142.667 -163.333 150 -274h-138c-11.333 77.333 -49.333 139.666 -114 186.999c-65.333 47.333 -147.666 71 -246.999 71
c-103.333 0 -187.666 -25.667 -252.999 -77c-64.667 -50.667 -97 -115.334 -97 -194.001c0 -62.667 24 -114 72 -154c48 -39.333 127 -72.666 237 -99.999l143 -36c148.667 -36.667 256 -86.334 322 -149.001c65.333 -62 98 -144.333 98 -247
c0 -126 -47.667 -227.667 -143 -305c-96 -77.333 -222.667 -116 -380 -116c-149.333 0 -272.666 37.333 -369.999 112c-98 74.667 -151.333 172.334 -160 293.001h138zM999.998 1577h-155l-190 202h-12l-190 -202h-155l289 297h124z" />
    <glyph glyph-name="scircumflex" unicode="&#x15d;" horiz-adv-x="1058" 
d="M881 1228h-153l-193 243h-12l-193 -243h-153l275 332h154zM256 1008c74.667 58 166.667 87.002 276 87.002c108.667 0 198.667 -25 270 -75c71.333 -50.667 113 -118.667 125 -204h-129c-12 50.667 -41.667 91 -89 121c-48 30.667 -107.333 46 -178 46
c-71.333 0 -131.666 -17.333 -180.999 -52c-50 -36 -75 -80.667 -75 -134c0 -82 71.333 -140 214 -174l148 -35c106 -25.333 183.667 -60.333 233 -105c50.667 -46.667 76 -108.334 76 -185.001c0 -92 -40 -168 -120 -228c-78.667 -58.667 -177.334 -88 -296.001 -88
c-117.333 0 -214 26 -290 78c-76 51.333 -119.333 121.333 -130 210h136c14.667 -54.667 46.667 -97.334 96 -128.001c50.667 -32 114.667 -48 192 -48c79.333 0 145.333 18.333 198 55s79 83 79 139c0 88.667 -70.333 149.667 -211 183l-163 39
c-101.333 24.667 -175.333 58.667 -222 102c-48 45.333 -72 105.333 -72 180c0 86 37.667 158 113 216z" />
    <glyph glyph-name="Scedilla" unicode="&#x15e;" horiz-adv-x="1284" 
d="M747 787c148.667 -36.667 256 -86.333 322 -149c65.333 -62 98 -144.333 98 -247c0 -118.667 -42.667 -216 -128 -292c-84.667 -75.333 -198.334 -117.666 -341.001 -126.999l-46 -114c66.667 0 118.667 -13.667 156 -41c38 -28 57 -67.667 57 -119
c0 -54 -21 -97.667 -63 -131c-42 -34 -98 -51 -168 -51c-52 0 -99.667 6.66699 -143 20v87c33.333 -12 75.666 -18 126.999 -18c40 0 72 8 96 24s36 38 36 66c0 54 -51.667 81 -155 81h-56v67l52 129c-135.333 9.33301 -246.666 50.333 -333.999 123
c-87.333 73.333 -135 166.666 -143 279.999h138c9.33301 -82.667 51.666 -150 126.999 -202c74.667 -52 167 -78 277 -78c107.333 0 196.333 27 267 81c69.333 52.667 104 119.334 104 200.001c0 133.333 -107.333 226.333 -322 279l-165 42
c-135.333 33.333 -233.333 80 -294 140c-60.667 59.333 -91 138 -91 236c0 117.333 45.667 213 137 287c92 75.333 211 113 357 113c137.333 0 252.333 -36.333 345 -109c92.667 -72 142.667 -163.333 150 -274h-138c-11.333 77.333 -49.333 139.666 -114 186.999
c-65.333 47.333 -147.666 71 -246.999 71c-103.333 0 -187.666 -25.667 -252.999 -77c-64.667 -50.667 -97 -115.334 -97 -194.001c0 -62.667 24 -114 72 -154c48 -39.333 127 -72.666 237 -99.999z" />
    <glyph glyph-name="scedilla" unicode="&#x15f;" horiz-adv-x="1058" 
d="M637 588c106 -25.333 183.667 -60.3311 233 -104.998c50.667 -46.667 76 -108.334 76 -185.001c0 -84 -33.667 -155 -101 -213c-66 -56.667 -151.333 -90 -256 -100l-51 -127c66.667 0 118.667 -13.667 156 -41c38 -28 57 -67.667 57 -119c0 -54 -21 -97.667 -63 -131
c-42 -34 -98 -51 -168 -51c-52 0 -99.667 6.66699 -143 20v87c33.333 -12 75.666 -18 126.999 -18c40 0 72 8 96 24s36 38 36 66c0 54 -51.667 81 -155 81h-56v67l57 141c-105.333 7.33301 -191 36 -257 86c-66.667 51.333 -105 118 -115 200h136
c14.667 -54.667 46.667 -97.334 96 -128.001c50.667 -32 114.667 -48 192 -48c79.333 0 145.333 18.333 198 55s79 83 79 139c0 88.667 -70.333 149.667 -211 183l-163 39c-101.333 24.667 -175.333 58.667 -222 102c-48 45.333 -72 105.333 -72 180
c0 86 37.667 158 113 216c74.667 58 166.667 87 276 87c108.667 0 198.667 -25 270 -75c71.333 -50.667 113 -118.667 125 -204h-129c-12 50.667 -41.667 91 -89 121c-48 30.667 -107.333 46 -178 46c-71.333 0 -131.666 -17.333 -180.999 -52c-50 -36 -75 -80.667 -75 -134
c0 -82 71.333 -140 214 -174z" />
    <glyph glyph-name="Scaron" unicode="&#x160;" horiz-adv-x="1284" 
d="M252 375c9.33301 -82.667 51.6641 -150 126.997 -202c74.667 -52 167 -78 277 -78c107.333 0 196.333 27 267 81c69.333 52.667 104 119.334 104 200.001c0 133.333 -107.333 226.333 -322 279l-165 42c-135.333 33.333 -233.333 80 -294 140
c-60.667 59.333 -91 138 -91 236c0 117.333 45.667 213 137 287c92 75.333 211 113 357 113c137.333 0 252.333 -36.333 345 -109c92.667 -72 142.667 -163.333 150 -274h-138c-11.333 77.333 -49.333 139.666 -114 186.999c-65.333 47.333 -147.666 71 -246.999 71
c-103.333 0 -187.666 -25.667 -252.999 -77c-64.667 -50.667 -97 -115.334 -97 -194.001c0 -62.667 24 -114 72 -154c48 -39.333 127 -72.666 237 -99.999l143 -36c148.667 -36.667 256 -86.334 322 -149.001c65.333 -62 98 -144.333 98 -247
c0 -126 -47.667 -227.667 -143 -305c-96 -77.333 -222.667 -116 -380 -116c-149.333 0 -272.666 37.333 -369.999 112c-98 74.667 -151.333 172.334 -160 293.001h138zM584.998 1577l-287 297h155l190 -203h12l190 203h155l-287 -297h-128z" />
    <glyph glyph-name="scaron" unicode="&#x161;" horiz-adv-x="1058" 
d="M452 1228l-275 332h153l193 -243h12l193 243h153l-275 -332h-154zM256 1008c74.667 58 166.667 87.002 276 87.002c108.667 0 198.667 -25 270 -75c71.333 -50.667 113 -118.667 125 -204h-129c-12 50.667 -41.667 91 -89 121c-48 30.667 -107.333 46 -178 46
c-71.333 0 -131.666 -17.333 -180.999 -52c-50 -36 -75 -80.667 -75 -134c0 -82 71.333 -140 214 -174l148 -35c106 -25.333 183.667 -60.333 233 -105c50.667 -46.667 76 -108.334 76 -185.001c0 -92 -40 -168 -120 -228c-78.667 -58.667 -177.334 -88 -296.001 -88
c-117.333 0 -214 26 -290 78c-76 51.333 -119.333 121.333 -130 210h136c14.667 -54.667 46.667 -97.334 96 -128.001c50.667 -32 114.667 -48 192 -48c79.333 0 145.333 18.333 198 55s79 83 79 139c0 88.667 -70.333 149.667 -211 183l-163 39
c-101.333 24.667 -175.333 58.667 -222 102c-48 45.333 -72 105.333 -72 180c0 86 37.667 158 113 216z" />
    <glyph glyph-name="Tcommaaccent" unicode="&#x162;" horiz-adv-x="1280" 
d="M707 1319l0.000976562 -1319h1l-57 -142c66.667 0 118.667 -13.667 156 -41c38 -28 57 -67.667 57 -119c0 -54 -21 -97.667 -63 -131c-42 -34 -98 -51 -168 -51c-52 0 -99.667 6.66699 -143 20v87c33.333 -12 75.666 -18 126.999 -18c40 0 72 8 96 24s36 38 36 66
c0 54 -51.667 81 -155 81h-56v67l64 157h-31v1319h-484v124h1104v-124h-484z" />
    <glyph glyph-name="tcommaaccent" unicode="&#x163;" horiz-adv-x="724" 
d="M246 -464v87c33.333 -12 75.333 -18 126 -18c40.667 0 72.667 8 96 24c24 16 36 38 36 66c0 54 -51.333 81 -154 81h-56v67l71 176c-86 34.667 -129 117.667 -129 249v698h-174v111h174v276h131v-276h256v-111h-256v-668c0 -66 13.333 -113.667 40 -143
c26.667 -30 70.334 -45 131.001 -45c31.333 0 58 1 80 3v-112c-26.667 -4.66699 -58 -7 -94 -7c-16 0 -36.667 1.33301 -62 4l-55 -140c66.667 0 118.667 -13.667 156 -41c38 -28 57 -67.667 57 -119c0 -54 -21 -97.667 -63 -131c-42.667 -34 -98.667 -51 -168 -51
c-52.667 0 -100.334 6.66699 -143.001 20z" />
    <glyph glyph-name="Tcaron" unicode="&#x164;" horiz-adv-x="1280" 
d="M575 1577l-287 297h155l190 -203h12l190 203h155l-287 -297h-128zM571 0v1319h-484v124h1104v-124h-484v-1319h-136z" />
    <glyph glyph-name="tcaron" unicode="&#x165;" horiz-adv-x="724" 
d="M497 1233v444h130l-37 -444h-93zM367 1353l-0.000976562 -276h256v-111h-256v-668c0 -66 13.333 -113.667 40 -143c26.667 -30 70.334 -45 131.001 -45c31.333 0 58 1 80 3v-112c-26.667 -4.66699 -58 -7 -94 -7c-103.333 0 -177 21.333 -221 64
c-44.667 42 -67 112 -67 210v698h-174v111h174v276h131z" />
    <glyph glyph-name="Tbar" unicode="&#x166;" horiz-adv-x="1280" 
d="M707 1319v-531h304v-110h-304v-678h-136v678h-304v110h304v531h-484v124h1104v-124h-484z" />
    <glyph glyph-name="tbar" unicode="&#x167;" horiz-adv-x="705" 
d="M367 966l-0.000976562 -316h255v-111h-255v-241c0 -66 13.333 -113.667 40 -143c26.667 -30 70.334 -45 131.001 -45c31.333 0 58 1 80 3v-112c-26.667 -4.66699 -58 -7 -94 -7c-103.333 0 -177 21.333 -221 64c-44.667 42 -67 112 -67 210v271h-172v111h172v316h-174
v111h174v276h131v-276h256v-111h-256z" />
    <glyph glyph-name="Utilde" unicode="&#x168;" horiz-adv-x="1494" 
d="M324 509c0 -122 37.666 -220.333 112.999 -295c76.667 -76 179.667 -114 309 -114s232.333 38 309 114c75.333 74.667 113 173 113 295v934h137v-943c0 -158 -50 -284.667 -150 -380c-101.333 -97.333 -237.666 -146 -408.999 -146c-170.667 0 -306.667 48.667 -408 146
c-100 95.333 -150 222 -150 380v943h136v-934zM729.999 1660c-52 54.667 -94 82.001 -126 82.001c-64.667 0 -98.334 -51.333 -101.001 -154h-106c0 79.333 18.667 142 56 188c36.667 45.333 86 68 148 68c60 0 116.667 -27.667 170 -83c52.667 -55.333 91.667 -83 117 -83
c64 0 98 51.333 102 154h105c0 -76.667 -18.667 -138.334 -56 -185.001s-86.666 -70 -147.999 -70c-55.333 0 -109 27.667 -161 83z" />
    <glyph glyph-name="utilde" unicode="&#x169;" horiz-adv-x="1211" 
d="M1037 0h-125v194h-12c-26.667 -66.667 -71.667 -118.667 -135 -156c-62.667 -37.333 -137 -56 -223 -56c-120 0 -213.667 35 -281 105c-68 70 -102 166.667 -102 290v700h131v-667c0 -100 24.667 -176.333 74 -229c48.667 -52.667 119 -79 211 -79
c100.667 0 181 30.333 241 91s90 142 90 244v640h131v-1077zM362 1230l-111.001 0.000976562c0 80.667 18.667 144.667 56 192c37.333 46.667 88.333 70 153 70c56.667 0 111.334 -26.333 164.001 -79s91 -79 115 -79c69.333 0 104 52.667 104 158h110
c0 -80.667 -18.667 -144.334 -56 -191.001c-37.333 -47.333 -88.333 -71 -153 -71c-56 0 -110.333 26.333 -163 79c-52 52.667 -90.333 79 -115 79c-69.333 0 -104 -52.667 -104 -158z" />
    <glyph glyph-name="Umacron" unicode="&#x16a;" horiz-adv-x="1494" 
d="M324 509c0 -122 37.666 -220.333 112.999 -295c76.667 -76 179.667 -114 309 -114s232.333 38 309 114c75.333 74.667 113 173 113 295v934h137v-943c0 -158 -50 -284.667 -150 -380c-101.333 -97.333 -237.666 -146 -408.999 -146c-170.667 0 -306.667 48.667 -408 146
c-100 95.333 -150 222 -150 380v943h136v-934zM423.999 1619v105h644v-105h-644z" />
    <glyph glyph-name="umacron" unicode="&#x16b;" horiz-adv-x="1211" 
d="M1037 0h-125v194h-12c-26.667 -66.667 -71.667 -118.667 -135 -156c-62.667 -37.333 -137 -56 -223 -56c-120 0 -213.667 35 -281 105c-68 70 -102 166.667 -102 290v700h131v-667c0 -100 24.667 -176.333 74 -229c48.667 -52.667 119 -79 211 -79
c100.667 0 181 30.333 241 91s90 142 90 244v640h131v-1077zM271 1292v106h662v-106h-662z" />
    <glyph glyph-name="Ubreve" unicode="&#x16c;" horiz-adv-x="1494" 
d="M324 509c0 -122 37.666 -220.333 112.999 -295c76.667 -76 179.667 -114 309 -114s232.333 38 309 114c75.333 74.667 113 173 113 295v934h137v-943c0 -158 -50 -284.667 -150 -380c-101.333 -97.333 -237.666 -146 -408.999 -146c-170.667 0 -306.667 48.667 -408 146
c-100 95.333 -150 222 -150 380v943h136v-934zM533.999 1851c0 -54 19.3311 -97 57.998 -129c38 -31.333 89.333 -47 154 -47s116 15.667 154 47c38.667 32 58 75 58 129h118c0 -84 -29.667 -150.667 -89 -200s-139.666 -74 -240.999 -74s-181.666 24.667 -240.999 74
s-89 116 -89 200h118z" />
    <glyph glyph-name="ubreve" unicode="&#x16d;" horiz-adv-x="1211" 
d="M1037 0h-125v194h-12c-26.667 -66.667 -71.667 -118.667 -135 -156c-62.667 -37.333 -137 -56 -223 -56c-120 0 -213.667 35 -281 105c-68 70 -102 166.667 -102 290v700h131v-667c0 -100 24.667 -176.333 74 -229c48.667 -52.667 119 -79 211 -79
c100.667 0 181 30.333 241 91s90 142 90 244v640h131v-1077zM390 1538c0 -60 18.333 -107.667 55 -143c37.333 -36.667 89.333 -55 156 -55s118.667 18.333 156 55c36.667 35.333 55 83 55 143h119c0 -89.333 -29.333 -161 -88 -215c-59.333 -55.333 -140 -83 -242 -83
s-182.667 27.667 -242 83c-58.667 54 -88 125.667 -88 215h119z" />
    <glyph glyph-name="Uring" unicode="&#x16e;" horiz-adv-x="1494" 
d="M595 1631c-41.333 40.667 -62 90.667 -62 150c0 58.667 20.667 108.334 62 149.001s91.666 61 150.999 61s109.666 -20.333 150.999 -61s62 -90.334 62 -149.001c0 -59.333 -20.667 -109.333 -62 -150s-91.666 -61 -150.999 -61s-109.666 20.333 -150.999 61zM835 1691
c24 24.667 36 54.667 36 90s-12 65 -36 89s-53.667 36 -89 36s-65 -12 -89 -36s-36 -53.667 -36 -89s12 -65.333 36 -90c24 -24 53.667 -36 89 -36s65 12 89 36zM324 509c0 -122 37.666 -220.333 112.999 -295c76.667 -76 179.667 -114 309 -114s232.333 38 309 114
c75.333 74.667 113 173 113 295v934h137v-943c0 -158 -50 -284.667 -150 -380c-101.333 -97.333 -237.666 -146 -408.999 -146c-170.667 0 -306.667 48.667 -408 146c-100 95.333 -150 222 -150 380v943h136v-934z" />
    <glyph glyph-name="uring" unicode="&#x16f;" horiz-adv-x="1211" 
d="M1037 0h-125v194h-12c-26.667 -66.667 -71.667 -118.667 -135 -156c-62.667 -37.333 -137 -56 -223 -56c-120 0 -213.667 35 -281 105c-68 70 -102 166.667 -102 290v700h131v-667c0 -100 24.667 -176.333 74 -229c48.667 -52.667 119 -79 211 -79
c100.667 0 181 30.333 241 91s90 142 90 244v640h131v-1077zM451 1289c-41.333 40.667 -62 90.667 -62 150c0 58.667 20.667 108.334 62 149.001s91.666 61 150.999 61s109.666 -20.333 150.999 -61s62 -90.334 62 -149.001c0 -59.333 -20.667 -109.333 -62 -150
s-91.666 -61 -150.999 -61s-109.666 20.333 -150.999 61zM691 1349c24 24.667 36 54.667 36 90s-12 65 -36 89s-53.667 36 -89 36s-65 -12 -89 -36s-36 -53.667 -36 -89s12 -65.333 36 -90c24 -24 53.667 -36 89 -36s65 12 89 36z" />
    <glyph glyph-name="Uhungarumlaut" unicode="&#x170;" horiz-adv-x="1494" 
d="M324 509c0 -122 37.666 -220.333 112.999 -295c76.667 -76 179.667 -114 309 -114s232.333 38 309 114c75.333 74.667 113 173 113 295v934h137v-943c0 -158 -50 -284.667 -150 -380c-101.333 -97.333 -237.666 -146 -408.999 -146c-170.667 0 -306.667 48.667 -408 146
c-100 95.333 -150 222 -150 380v943h136v-934zM1105 1874h174l-325 -297h-158zM741.999 1874h174l-326 -297h-157z" />
    <glyph glyph-name="uhungarumlaut" unicode="&#x171;" horiz-adv-x="1211" 
d="M925 1594h161l-271 -330h-140zM573 1594h161l-271 -330h-140zM1037 0h-125v194h-12c-26.667 -66.667 -71.667 -118.667 -135 -156c-62.667 -37.333 -137 -56 -223 -56c-120 0 -213.667 35 -281 105c-68 70 -102 166.667 -102 290v700h131v-667
c0 -100 24.667 -176.333 74 -229c48.667 -52.667 119 -79 211 -79c100.667 0 181 30.333 241 91s90 142 90 244v640h131v-1077z" />
    <glyph glyph-name="Uogonek" unicode="&#x172;" horiz-adv-x="1494" 
d="M818 -366c-40 37.333 -59.9971 84.667 -59.9971 142c0 76.667 37.667 145 113 205v13c-36 -13.333 -77.667 -20 -125 -20c-169.333 0 -304.666 47.667 -405.999 143c-101.333 96 -152 223.667 -152 383v943h136v-934c0 -124 38.333 -223 115 -297
c77.333 -74.667 179.666 -112 306.999 -112c128 0 230.333 37.333 307 112c76.667 74 115 173 115 297v934h137v-943c0 -174 -71 -318 -213 -432c-92.667 -74.667 -141.334 -114.667 -146.001 -120c-44.667 -44.667 -67 -93.667 -67 -147c0 -34.667 11.667 -62.667 35 -84
c23.333 -22 53.666 -33 90.999 -33c32 0 60 5 84 15v-97c-28.667 -15.333 -68.334 -23 -119.001 -23c-62 0 -112.667 18.333 -152 55z" />
    <glyph glyph-name="uogonek" unicode="&#x173;" horiz-adv-x="1211" 
d="M1069 -404c-29.333 -11.333 -60.668 -17 -94.001 -17c-64 0 -115.667 18.667 -155 56c-40 37.333 -60 85.666 -60 144.999c0 92.667 50.667 172.667 152 240v174h-12c-26.667 -66.667 -71.667 -118.667 -135 -156c-62.667 -37.333 -137 -56 -223 -56
c-120 0 -213.667 35 -281 105c-68 70 -102 166.667 -102 290v700h131v-667c0 -100 24.333 -176.333 73 -229s119.334 -79 212.001 -79c100.667 0 181 30.333 241 91s90 142 90 244v640h131v-1064c-104 -57.333 -156 -125.666 -156 -204.999c0 -38 11.333 -68 34 -90
c22.667 -22.667 53 -34 91 -34c26 0 47 3.66699 63 11v-99z" />
    <glyph glyph-name="Wcircumflex" unicode="&#x174;" horiz-adv-x="1956" 
d="M1328 1577h-155l-190 202h-12l-190 -202h-155l289 297h124zM618 0h-127l-397 1443h142l317 -1230h9l347 1230h136l347 -1230h9l317 1230h142l-397 -1443h-127l-354 1205h-10z" />
    <glyph glyph-name="wcircumflex" unicode="&#x175;" horiz-adv-x="1566" 
d="M1133 1228h-153l-193 243h-12l-193 -243h-153l275 332h154zM1191 0h-139l-265 894h-13l-265 -894h-138l-305 1077h133l239 -914h12l266 914h131l266 -914h12l241 914h132z" />
    <glyph glyph-name="Ycircumflex" unicode="&#x176;" horiz-adv-x="1321" 
d="M592 0v624l-518 819h157l423 -680h12l423 680h156l-517 -819v-624h-136zM1011 1577h-155l-190 202h-12l-190 -202h-155l289 297h124z" />
    <glyph glyph-name="ycircumflex" unicode="&#x177;" horiz-adv-x="1079" 
d="M185 -371v113c14 -2 33.667 -3 59 -3c50 0 90.333 14.333 121 43c30 27.333 57.667 75.333 83 144l22 67l-404 1084h142l326 -934h12l325 934h140l-419 -1129c-47.333 -126.667 -94.333 -212 -141 -256c-48 -44.667 -116.333 -67 -205 -67c-26.667 0 -47 1.33301 -61 4z
M887 1228h-153l-193 243h-12l-193 -243h-153l275 332h154z" />
    <glyph glyph-name="Ydieresis" unicode="&#x178;" horiz-adv-x="1321" 
d="M592 0v624l-518 819h157l423 -680h12l423 680h156l-517 -819v-624h-136zM406 1598c-20 19.333 -30 43.333 -30 72s10 52.667 30 72c20 20 44 30 72 30c28.667 0 52.667 -10 72 -30c20 -19.333 30 -43.333 30 -72s-10 -52.667 -30 -72c-19.333 -20 -43.333 -30 -72 -30
c-28 0 -52 10 -72 30zM770 1598c-20 19.333 -30 43.333 -30 72s10 52.667 30 72c20 20 44 30 72 30c28.667 0 52.667 -10 72 -30c20 -19.333 30 -43.333 30 -72s-10 -52.667 -30 -72c-19.333 -20 -43.333 -30 -72 -30c-28 0 -52 10 -72 30z" />
    <glyph glyph-name="Zacute" unicode="&#x179;" horiz-adv-x="1328" 
d="M886 1874h174l-326 -297h-158zM137 99l863 1208v12h-834v124h1011v-100l-860 -1207v-12h872v-124h-1052v99z" />
    <glyph glyph-name="zacute" unicode="&#x17a;" horiz-adv-x="1082" 
d="M696 1594h168l-269 -327h-149zM130 100l660 854v12h-659v111h816v-101l-658 -853v-12h660v-111h-819v100z" />
    <glyph glyph-name="Zdotaccent" unicode="&#x17b;" horiz-adv-x="1328" 
d="M589 1607c-20.667 20.667 -31.001 45.334 -31.001 74.001c0 29.333 10.333 54 31 74c20.667 20.667 45.334 31 74.001 31c29.333 0 54 -10.333 74 -31c20.667 -20 31 -44.667 31 -74c0 -28.667 -10.333 -53.334 -31 -74.001c-20 -20 -44.667 -30 -74 -30s-54 10 -74 30z
M136.999 99l863 1208v12h-834v124h1011v-100l-860 -1207v-12h872v-124h-1052v99z" />
    <glyph glyph-name="zdotaccent" unicode="&#x17c;" horiz-adv-x="1082" 
d="M458 1313c-21.333 21.333 -32 47 -32 77s10.667 55.667 32 77s47 32 77 32s55.667 -10.667 77 -32s32 -47 32 -77s-10.667 -55.667 -32 -77c-21.333 -22 -47 -33 -77 -33s-55.667 11 -77 33zM130 100l660 854v12h-659v111h816v-101l-658 -853v-12h660v-111h-819v100z" />
    <glyph glyph-name="Zcaron" unicode="&#x17d;" horiz-adv-x="1328" 
d="M137 99l863 1208v12h-834v124h1011v-100l-860 -1207v-12h872v-124h-1052v99zM599 1577l-287 297h155l190 -203h12l190 203h155l-287 -297h-128z" />
    <glyph glyph-name="zcaron" unicode="&#x17e;" horiz-adv-x="1082" 
d="M458 1228l-275 332h153l193 -243h12l193 243h153l-275 -332h-154zM130 100l660 854v12h-659v111h816v-101l-658 -853v-12h660v-111h-819v100z" />
    <glyph glyph-name="florin" unicode="&#x192;" horiz-adv-x="1321" 
d="M87 1l0.000976562 127c60 -19.333 122.333 -29 187 -29c145.333 0 229.666 74.667 252.999 224l64 418h-362v111h378l42 265c17.333 112 59 198.333 125 259c66 60 152 90 258 90c72.667 0 137.667 -6.66699 195 -20v-120c-47.333 13.333 -107.333 20 -180 20
c-153.333 0 -242 -79.333 -266 -238l-40 -256h395v-111h-412l-66 -429c-34 -222.667 -158.333 -334 -373 -334c-68 0 -134 7.66699 -198 23z" />
    <glyph glyph-name="Ohorn" unicode="&#x1a0;" horiz-adv-x="1609" 
d="M1257 172c-116.667 -134.667 -275.67 -202 -477.003 -202s-360.666 67.333 -477.999 202c-117.333 134 -176 317 -176 549s58.667 415.333 176 550c118 134.667 277.667 202 479 202c115.333 0 224.333 -27 327 -81s168.334 -81 197.001 -81c72 0 108 53.667 108 161v150
h122v-183c0 -74 -15.333 -131 -46 -171c-31.333 -40 -76 -60 -134 -60c-17.333 0 -34.666 4.33301 -51.999 13l-9 -10c92 -131.333 138 -294.333 138 -489c0 -232.667 -58.333 -416 -175 -550zM404.997 1177c-92.667 -112.667 -139.001 -264.666 -139.001 -455.999
c0 -190.667 46.333 -342.334 139 -455.001s217.667 -169 375 -169c156.667 0 281.334 56.333 374.001 169c92 112.667 138 264.667 138 456s-46 343.333 -138 456c-92 112 -216.667 168 -374 168s-282.333 -56.333 -375 -169z" />
    <glyph glyph-name="ohorn" unicode="&#x1a1;" horiz-adv-x="1322" 
d="M343 217c62.667 -77.333 149.334 -116 260.001 -116s197.334 39 260.001 117c62.667 77.333 94 184.333 94 321s-31.333 243.667 -94 321c-62.667 78 -149.334 117 -260.001 117s-197.334 -38.667 -260.001 -116c-62.667 -78 -94 -185.333 -94 -322s31.333 -244 94 -322z
M961 132c-88 -100 -207.332 -149.999 -357.999 -149.999s-270 50 -358 150c-87.333 100 -131 235.667 -131 407c0 172 44 307.667 132 407c87.333 99.333 207 149 359 149c98 0 188.667 -26.333 272 -79c83.333 -53.333 138.666 -80 165.999 -80c38.667 0 66.667 11 84 33
c18.667 23.333 28 61.666 28 114.999v163h122v-209c0 -66 -15.667 -117.667 -47 -155c-30.667 -36.667 -72.667 -55 -126 -55c-24 0 -45 4 -63 12l-9 -10c40.667 -90 61 -187 61 -291c0 -171.333 -44 -307 -132 -407z" />
    <glyph glyph-name="Uhorn" unicode="&#x1af;" horiz-adv-x="1715" 
d="M1305 1328c17.333 -20 47.666 -30 90.999 -30c46 0 79.333 13 100 39c20 26 30 68.667 30 128v144h122v-179c0 -74 -20.333 -132.333 -61 -175c-41.333 -43.333 -97.333 -65 -168 -65c-50.667 0 -88.667 10 -114 30v-720c0 -159.333 -51 -287 -153 -383
c-101.333 -95.333 -236.666 -143 -405.999 -143s-304.666 47.667 -405.999 143c-101.333 96 -152 223.667 -152 383v943h136v-934c0 -124 38.333 -223 115 -297c77.333 -74.667 179.666 -112 306.999 -112c128 0 230.333 37.333 307 112c76.667 74 115 173 115 297v934h137
v-115z" />
    <glyph glyph-name="uhorn" unicode="&#x1b0;" horiz-adv-x="1381" 
d="M900 194c-26.667 -66.667 -71.666 -118.667 -134.999 -156c-62.667 -37.333 -137 -56 -223 -56c-120 0 -213.667 35 -281 105c-68 70 -102 166.667 -102 290v700h131v-667c0 -100 24.667 -176.333 74 -229c48.667 -52.667 119 -79 211 -79c100.667 0 181 30.333 241 91
s90 142 90 244v640h131v-111c18 -20 47.333 -30 88 -30c46 0 79 13 99 39s30 68.667 30 128v144h122v-179c0 -74 -20.333 -132.667 -61 -176s-96.334 -65 -167.001 -65c-48 0 -85 10.333 -111 31v-858h-125v194h-12z" />
    <glyph glyph-name="uni01C4" unicode="&#x1c4;" horiz-adv-x="2799" 
d="M659 1443c218 0 387.333 -64 508 -192c118 -126.667 177 -303 177 -529c0 -226.667 -59 -403 -177 -529c-120 -128.667 -289.333 -193 -508 -193h-475v1443h475zM321 124l330 0.000976562c175.333 0 311.666 53 408.999 159c96 104.667 144 250.667 144 438
s-48 333.666 -144 438.999c-97.333 106 -233.666 159 -408.999 159h-330v-1195zM1608 99.001l863 1208v12h-834v124h1011v-100l-860 -1207v-12h872v-124h-1052v99zM2070 1577l-287 297h155l190 -203h12l190 203h155l-287 -297h-128z" />
    <glyph glyph-name="uni01C5" unicode="&#x1c5;" horiz-adv-x="2553" 
d="M659 1443c218 0 387.333 -64 508 -192c118 -126.667 177 -303 177 -529c0 -226.667 -59 -403 -177 -529c-120 -128.667 -289.333 -193 -508 -193h-475v1443h475zM321 124l330 0.000976562c175.333 0 311.666 53 408.999 159c96 104.667 144 250.667 144 438
s-48 333.666 -144 438.999c-97.333 106 -233.666 159 -408.999 159h-330v-1195zM1929 1228l-275 332h153l193 -243h12l193 243h153l-275 -332h-154zM1601 100.001l660 854v12h-659v111h816v-101l-658 -853v-12h660v-111h-819v100z" />
    <glyph glyph-name="uni01C6" unicode="&#x1c6;" horiz-adv-x="2337" 
d="M239 135c-83.333 101.333 -125.002 235.667 -125.002 403c0 166.667 42 301.334 126 404.001c83.333 102 193.333 153 330 153c82 0 155.333 -20.333 220 -61s112.334 -96.334 143.001 -167.001h12v639h131v-1506h-126v215h-12c-32 -72 -80.667 -128.667 -146 -170
c-66 -42 -140 -63 -222 -63c-137.333 0 -247.666 51 -330.999 153zM343.998 858.001c-63.333 -79.333 -95 -185.666 -95 -318.999c0 -134 31.667 -240.333 95 -319c62.667 -79.333 147.334 -119 254.001 -119c106 0 190.667 39.667 254 119s95 185.666 95 318.999
c0 132 -31.667 238 -95 318c-64 80 -148.667 120 -254 120c-106.667 0 -191.334 -39.667 -254.001 -119zM1714 1228l-275 332h153l193 -243h12l193 243h153l-275 -332h-154zM1386 100.001l660 854v12h-659v111h816v-101l-658 -853v-12h660v-111h-819v100z" />
    <glyph glyph-name="uni01C7" unicode="&#x1c7;" horiz-adv-x="2227" 
d="M1366 330c3.33301 -68.667 29.335 -124.668 78.002 -168.001s110.667 -65 186 -65c87.333 0 154.666 26 201.999 78c48 52.667 72 127 72 223v1045h137v-1050c0 -131.333 -36.667 -234.666 -110 -309.999s-173.333 -113 -300 -113
c-116.667 0 -212.334 33.333 -287.001 100c-75.333 67.333 -113.333 154 -114 260h136zM1043 -0.000976562h-859v1443h137v-1319h722v-124z" />
    <glyph glyph-name="uni01C8" unicode="&#x1c8;" horiz-adv-x="1627" 
d="M1444 -81c0 -104 -25.333 -180 -76 -228c-49.333 -46.667 -126.666 -70 -231.999 -70h-30v113h27c65.333 0 111.666 14 138.999 42s41 74.667 41 140v1161h131v-1158zM1310 1346c-19.333 19.333 -29 42.333 -29 69s9.66699 49.334 29 68.001
c18.667 19.333 41.334 29 68.001 29s49.667 -9.66699 69 -29c19.333 -18.667 29 -41.334 29 -68.001s-9.66699 -49.667 -29 -69c-18.667 -19.333 -41.667 -29 -69 -29c-26.667 0 -49.334 9.66699 -68.001 29zM1043 0h-859v1443h137v-1319h722v-124z" />
    <glyph glyph-name="uni01C9" unicode="&#x1c9;" horiz-adv-x="977" 
d="M794 -81c0 -104 -25.333 -180 -76 -228c-49.333 -46.667 -126.666 -70 -231.999 -70h-30v113h27c65.333 0 111.666 14 138.999 42s41 74.667 41 140v1161h131v-1158zM660 1346c-19.333 19.333 -29 42.333 -29 69s9.66699 49.334 29 68.001
c18.667 19.333 41.334 29 68.001 29s49.667 -9.66699 69 -29c19.333 -18.667 29 -41.334 29 -68.001s-9.66699 -49.667 -29 -69c-18.667 -19.333 -41.667 -29 -69 -29c-26.667 0 -49.334 9.66699 -68.001 29zM178 1506h131v-1506h-131v1506z" />
    <glyph glyph-name="uni01CA" unicode="&#x1ca;" horiz-adv-x="2582" 
d="M1721 330c3.33301 -68.667 29.335 -124.668 78.002 -168.001s110.667 -65 186 -65c87.333 0 154.666 26 201.999 78c48 52.667 72 127 72 223v1045h137v-1050c0 -131.333 -36.667 -234.666 -110 -309.999s-173.333 -113 -300 -113
c-116.667 0 -212.334 33.333 -287.001 100c-75.333 67.333 -113.333 154 -114 260h136zM184.002 -0.000976562v1443h135l841 -1198h13v1198h135v-1443h-132l-844 1199h-13v-1199h-135z" />
    <glyph glyph-name="uni01CB" unicode="&#x1cb;" horiz-adv-x="1983" 
d="M1799 -81c0 -104 -25.333 -180 -76 -228c-49.333 -46.667 -126.666 -70 -231.999 -70h-30v113h27c65.333 0 111.666 14 138.999 42s41 74.667 41 140v1161h131v-1158zM1665 1346c-19.333 19.333 -29 42.333 -29 69s9.66699 49.334 29 68.001
c18.667 19.333 41.334 29 68.001 29s49.667 -9.66699 69 -29c19.333 -18.667 29 -41.334 29 -68.001s-9.66699 -49.667 -29 -69c-18.667 -19.333 -41.667 -29 -69 -29c-26.667 0 -49.334 9.66699 -68.001 29zM184 0v1443h135l841 -1198h13v1198h135v-1443h-132l-844 1199
h-13v-1199h-135z" />
    <glyph glyph-name="uni01CC" unicode="&#x1cc;" horiz-adv-x="1699" 
d="M1515 -81c0 -104 -25.333 -180 -76 -228c-49.333 -46.667 -126.666 -70 -231.999 -70h-30v113h27c65.333 0 111.666 14 138.999 42s41 74.667 41 140v1161h131v-1158zM1381 1346c-19.333 19.333 -29 42.333 -29 69s9.66699 49.334 29 68.001
c18.667 19.333 41.334 29 68.001 29s49.667 -9.66699 69 -29c19.333 -18.667 29 -41.334 29 -68.001s-9.66699 -49.667 -29 -69c-18.667 -19.333 -41.667 -29 -69 -29c-26.667 0 -49.334 9.66699 -68.001 29zM168 1077l125.001 -0.000976562v-194h13
c28.667 66.667 74.667 118.667 138 156s137.666 56 222.999 56c120 0 213 -34.333 279 -103c66 -69.333 99 -166.666 99 -291.999v-700h-131v667c0 206.667 -93.667 310 -281 310c-100.667 0 -181.667 -30.667 -243 -92c-60.667 -62 -91 -143.667 -91 -245v-640h-131v1077z
" />
    <glyph glyph-name="uni01CD" unicode="&#x1cd;" horiz-adv-x="1363" 
d="M984 442h-606l-160 -442h-145l540 1443h136l539 -1443h-144zM419 560h524l-256 704h-13zM617 1577l-287 297h155l190 -203h12l190 203h155l-287 -297h-128z" />
    <glyph glyph-name="uni01CE" unicode="&#x1ce;" horiz-adv-x="1125" 
d="M732 185c65.333 58.667 97.999 130.667 97.999 216v126l-319 -23c-180.667 -12.667 -271 -80.667 -271 -204c0 -61.333 23.667 -110.333 71 -147c46 -36.667 105.667 -55 179 -55c96.667 0 177.334 29 242.001 87zM206.999 68c-68 58 -101.999 134.668 -101.999 230.001
c0 93.333 33.667 167 101 221c66 53.333 161.667 84.333 287 93l337 22v104c0 77.333 -22.667 136.666 -68 177.999c-46 41.333 -112.667 62 -200 62c-74 0 -136 -14.667 -186 -44c-50.667 -30 -82.334 -71 -95.001 -123h-133c12.667 85.333 57.334 154 134.001 206
c76 52 170.667 78 284 78c126 0 223.667 -31.333 293 -94c68.667 -62 103 -149.333 103 -262v-739h-126v185h-12c-32.667 -64 -80.334 -113.667 -143.001 -149c-62.667 -36 -133.667 -54 -213 -54c-106.667 0 -193.667 28.667 -261 86zM489 1228l-275 332h153l193 -243h12
l193 243h153l-275 -332h-154z" />
    <glyph glyph-name="uni01CF" unicode="&#x1cf;" horiz-adv-x="507" 
d="M185 0v1443h137v-1443h-137zM190 1577l-287 297h155l190 -203h12l190 203h155l-287 -297h-128z" />
    <glyph glyph-name="uni01D0" unicode="&#x1d0;" horiz-adv-x="489" 
d="M167 1228l-275 332h153l193 -243h12l193 243h153l-275 -332h-154zM179 1077h131v-1077h-131v1077z" />
    <glyph glyph-name="uni01D1" unicode="&#x1d1;" horiz-adv-x="1561" 
d="M716 1577l-287 297h155l190 -203h12l190 203h155l-287 -297h-128zM1258 1270c116 -134 174.001 -316.667 174.001 -548s-58 -414 -174 -548c-116.667 -136 -276 -204 -478 -204c-202.667 0 -362.667 67.667 -480 203c-116 134.667 -174 317.667 -174 549
c0 230.667 58.667 413.667 176 549c117.333 134.667 276.666 202 477.999 202c202 0 361.333 -67.667 478 -203zM405.001 1177c-92.667 -112 -139.001 -263.667 -139.001 -455c0 -190.667 45.667 -342.334 137 -455.001c92.667 -113.333 218.334 -170 377.001 -170
c158 0 283 56.667 375 170c91.333 112.667 137 264.334 137 455.001c0 191.333 -45.667 343 -137 455c-92 112.667 -217 169 -375 169c-157.333 0 -282.333 -56.333 -375 -169z" />
    <glyph glyph-name="uni01D2" unicode="&#x1d2;" horiz-adv-x="1208" 
d="M526 1228l-275 332h153l193 -243h12l193 243h153l-275 -332h-154zM863 218c62.667 77.333 94 184.333 94 321s-31.333 243.667 -94 321c-62.667 78 -149.334 117 -260.001 117s-197.334 -39 -260.001 -117c-62.667 -77.333 -94 -184.333 -94 -321
s31.333 -243.667 94 -321c62.667 -78 149.334 -117 260.001 -117s197.334 39 260.001 117zM246 132c-88 99.333 -132 235 -132 407s44 307.667 132 407c87.333 99.333 206.333 149 357 149s270 -49.667 358 -149s132 -235 132 -407s-44 -307.667 -132 -407
c-88 -100 -207.333 -150 -358 -150s-269.667 50 -357 150z" />
    <glyph glyph-name="uni01D3" unicode="&#x1d3;" horiz-adv-x="1494" 
d="M682 1577l-287 297h155l190 -203h12l190 203h155l-287 -297h-128zM324 509c0 -122 37.666 -220.333 112.999 -295c76.667 -76 179.667 -114 309 -114s232.333 38 309 114c75.333 74.667 113 173 113 295v934h137v-943c0 -158 -50 -284.667 -150 -380
c-101.333 -97.333 -237.666 -146 -408.999 -146c-170.667 0 -306.667 48.667 -408 146c-100 95.333 -150 222 -150 380v943h136v-934z" />
    <glyph glyph-name="uni01D4" unicode="&#x1d4;" horiz-adv-x="1211" 
d="M525 1228l-275 332h153l193 -243h12l193 243h153l-275 -332h-154zM1037 0h-125v194h-12c-26.667 -66.667 -71.667 -118.667 -135 -156c-62.667 -37.333 -137 -56 -223 -56c-120 0 -213.667 35 -281 105c-68 70 -102 166.667 -102 290v700h131v-667
c0 -100 24.667 -176.333 74 -229c48.667 -52.667 119 -79 211 -79c100.667 0 181 30.333 241 91s90 142 90 244v640h131v-1077z" />
    <glyph glyph-name="uni01D5" unicode="&#x1d5;" horiz-adv-x="1494" 
d="M324 509c0 -122 37.666 -220.333 112.999 -295c76.667 -76 179.667 -114 309 -114s232.333 38 309 114c75.333 74.667 113 173 113 295v934h137v-943c0 -158 -50 -284.667 -150 -380c-101.333 -97.333 -237.666 -146 -408.999 -146c-170.667 0 -306.667 48.667 -408 146
c-100 95.333 -150 222 -150 380v943h136v-934zM426.999 2016h638v-101h-638v101zM493.999 1609c-19.333 19.333 -29 42.666 -29 69.999s9.66699 50.666 29 69.999s42.666 29 69.999 29s50.666 -9.66699 69.999 -29s29 -42.666 29 -69.999s-9.66699 -50.666 -29 -69.999
s-42.666 -29 -69.999 -29s-50.666 9.66699 -69.999 29zM857.999 1609c-19.333 19.333 -29 42.666 -29 69.999s9.66699 50.666 29 69.999s42.666 29 69.999 29s50.666 -9.66699 69.999 -29s29 -42.666 29 -69.999s-9.66699 -50.666 -29 -69.999s-42.666 -29 -69.999 -29
s-50.666 9.66699 -69.999 29z" />
    <glyph glyph-name="uni01D6" unicode="&#x1d6;" horiz-adv-x="1211" 
d="M1037 0h-125v194h-12c-26.667 -66.667 -71.667 -118.667 -135 -156c-62.667 -37.333 -137 -56 -223 -56c-120 0 -213.667 35 -281 105c-68 70 -102 166.667 -102 290v700h131v-667c0 -100 24.667 -176.333 74 -229c48.667 -52.667 119 -79 211 -79
c100.667 0 181 30.333 241 91s90 142 90 244v640h131v-1077zM350 1269c-19.333 19.333 -29 42.666 -29 69.999c0 28 9.66699 51.667 29 71c19.333 18.667 42.666 28 69.999 28s50.666 -9.33301 69.999 -28c19.333 -19.333 29 -43 29 -71
c0 -27.333 -9.66699 -50.666 -29 -69.999s-42.666 -29 -69.999 -29s-50.666 9.66699 -69.999 29zM714 1269c-19.333 19.333 -29 42.666 -29 69.999c0 28 9.66699 51.667 29 71c19.333 18.667 42.666 28 69.999 28s50.666 -9.33301 69.999 -28c19.333 -19.333 29 -43 29 -71
c0 -27.333 -9.66699 -50.666 -29 -69.999s-42.666 -29 -69.999 -29s-50.666 9.66699 -69.999 29zM273 1614v106h662v-106h-662z" />
    <glyph glyph-name="uni01D7" unicode="&#x1d7;" horiz-adv-x="1494" 
d="M903 2056h174l-267 -217h-138zM492 1598c-20 19.333 -30 43.333 -30 72s10 52.667 30 72c20 20 44 30 72 30c28.667 0 52.667 -10 72 -30c20 -19.333 30 -43.333 30 -72s-10 -52.667 -30 -72c-19.333 -20 -43.333 -30 -72 -30c-28 0 -52 10 -72 30zM856 1598
c-20 19.333 -30 43.333 -30 72s10 52.667 30 72c20 20 44 30 72 30c28.667 0 52.667 -10 72 -30c20 -19.333 30 -43.333 30 -72s-10 -52.667 -30 -72c-19.333 -20 -43.333 -30 -72 -30c-28 0 -52 10 -72 30zM324 509c0 -122 37.666 -220.333 112.999 -295
c76.667 -76 179.667 -114 309 -114s232.333 38 309 114c75.333 74.667 113 173 113 295v934h137v-943c0 -158 -50 -284.667 -150 -380c-101.333 -97.333 -237.666 -146 -408.999 -146c-170.667 0 -306.667 48.667 -408 146c-100 95.333 -150 222 -150 380v943h136v-934z" />
    <glyph glyph-name="uni01D8" unicode="&#x1d8;" horiz-adv-x="1211" 
d="M727 1850h154l-229 -296h-132zM348 1258c-20 19.333 -30 43.333 -30 72s10 52.667 30 72c20 20 44 30 72 30c28.667 0 52.667 -10 72 -30c20 -19.333 30 -43.333 30 -72s-10 -52.667 -30 -72c-19.333 -20 -43.333 -30 -72 -30c-28 0 -52 10 -72 30zM712 1258
c-20 19.333 -30 43.333 -30 72s10 52.667 30 72c20 20 44 30 72 30c28.667 0 52.667 -10 72 -30c20 -19.333 30 -43.333 30 -72s-10 -52.667 -30 -72c-19.333 -20 -43.333 -30 -72 -30c-28 0 -52 10 -72 30zM1037 0h-125v194h-12
c-26.667 -66.667 -71.667 -118.667 -135 -156c-62.667 -37.333 -137 -56 -223 -56c-120 0 -213.667 35 -281 105c-68 70 -102 166.667 -102 290v700h131v-667c0 -100 24.667 -176.333 74 -229c48.667 -52.667 119 -79 211 -79c100.667 0 181 30.333 241 91s90 142 90 244
v640h131v-1077z" />
    <glyph glyph-name="uni01D9" unicode="&#x1d9;" horiz-adv-x="1494" 
d="M494 1609c-19.333 19.333 -29 42.666 -29 69.999s9.66699 50.666 29 69.999s42.666 29 69.999 29s50.666 -9.66699 69.999 -29s29 -42.666 29 -69.999s-9.66699 -50.666 -29 -69.999s-42.666 -29 -69.999 -29s-50.666 9.66699 -69.999 29zM858 1609
c-19.333 19.333 -29 42.666 -29 69.999s9.66699 50.666 29 69.999s42.666 29 69.999 29s50.666 -9.66699 69.999 -29s29 -42.666 29 -69.999s-9.66699 -50.666 -29 -69.999s-42.666 -29 -69.999 -29s-50.666 9.66699 -69.999 29zM673 1832l-285 224h172l180 -146h12l180 146
h172l-285 -224h-146zM324 509c0 -122 37.666 -220.333 112.999 -295c76.667 -76 179.667 -114 309 -114s232.333 38 309 114c75.333 74.667 113 173 113 295v934h137v-943c0 -158 -50 -284.667 -150 -380c-101.333 -97.333 -237.666 -146 -408.999 -146
c-170.667 0 -306.667 48.667 -408 146c-100 95.333 -150 222 -150 380v943h136v-934z" />
    <glyph glyph-name="uni01DA" unicode="&#x1da;" horiz-adv-x="1211" 
d="M350 1257c-19.333 19.333 -29 42.666 -29 69.999c0 28 9.66699 51.667 29 71s42.666 29 69.999 29s50.666 -9.66699 69.999 -29s29 -43 29 -71c0 -27.333 -9.66699 -50.666 -29 -69.999s-42.666 -29 -69.999 -29s-50.666 9.66699 -69.999 29zM714 1257
c-19.333 19.333 -29 42.666 -29 69.999c0 28 9.66699 51.667 29 71s42.666 29 69.999 29s50.666 -9.66699 69.999 -29s29 -43 29 -71c0 -27.333 -9.66699 -50.666 -29 -69.999s-42.666 -29 -69.999 -29s-50.666 9.66699 -69.999 29zM525 1548l-275 306h154l192 -217h12
l192 217h154l-275 -306h-154zM1037 0h-125v194h-12c-26.667 -66.667 -71.667 -118.667 -135 -156c-62.667 -37.333 -137 -56 -223 -56c-120 0 -213.667 35 -281 105c-68 70 -102 166.667 -102 290v700h131v-667c0 -100 24.667 -176.333 74 -229
c48.667 -52.667 119 -79 211 -79c100.667 0 181 30.333 241 91s90 142 90 244v640h131v-1077z" />
    <glyph glyph-name="uni01DB" unicode="&#x1db;" horiz-adv-x="1494" 
d="M694 1839l-267 217h175l230 -217h-138zM492 1598c-20 19.333 -30 43.333 -30 72s10 52.667 30 72c20 20 44 30 72 30c28.667 0 52.667 -10 72 -30c20 -19.333 30 -43.333 30 -72s-10 -52.667 -30 -72c-19.333 -20 -43.333 -30 -72 -30c-28 0 -52 10 -72 30zM856 1598
c-20 19.333 -30 43.333 -30 72s10 52.667 30 72c20 20 44 30 72 30c28.667 0 52.667 -10 72 -30c20 -19.333 30 -43.333 30 -72s-10 -52.667 -30 -72c-19.333 -20 -43.333 -30 -72 -30c-28 0 -52 10 -72 30zM324 509c0 -122 37.666 -220.333 112.999 -295
c76.667 -76 179.667 -114 309 -114s232.333 38 309 114c75.333 74.667 113 173 113 295v934h137v-943c0 -158 -50 -284.667 -150 -380c-101.333 -97.333 -237.666 -146 -408.999 -146c-170.667 0 -306.667 48.667 -408 146c-100 95.333 -150 222 -150 380v943h136v-934z" />
    <glyph glyph-name="uni01DC" unicode="&#x1dc;" horiz-adv-x="1211" 
d="M552 1554l-229 296h154l207 -296h-132zM348 1258c-20 19.333 -30 43.333 -30 72s10 52.667 30 72c20 20 44 30 72 30c28.667 0 52.667 -10 72 -30c20 -19.333 30 -43.333 30 -72s-10 -52.667 -30 -72c-19.333 -20 -43.333 -30 -72 -30c-28 0 -52 10 -72 30zM712 1258
c-20 19.333 -30 43.333 -30 72s10 52.667 30 72c20 20 44 30 72 30c28.667 0 52.667 -10 72 -30c20 -19.333 30 -43.333 30 -72s-10 -52.667 -30 -72c-19.333 -20 -43.333 -30 -72 -30c-28 0 -52 10 -72 30zM1037 0h-125v194h-12
c-26.667 -66.667 -71.667 -118.667 -135 -156c-62.667 -37.333 -137 -56 -223 -56c-120 0 -213.667 35 -281 105c-68 70 -102 166.667 -102 290v700h131v-667c0 -100 24.667 -176.333 74 -229c48.667 -52.667 119 -79 211 -79c100.667 0 181 30.333 241 91s90 142 90 244
v640h131v-1077z" />
    <glyph glyph-name="uni01DE" unicode="&#x1de;" horiz-adv-x="1363" 
d="M984 442h-606l-160 -442h-145l540 1443h136l539 -1443h-144zM419 560h524l-256 704h-13zM362 2016h638v-101h-638v101zM429 1609c-19.333 19.333 -29 42.666 -29 69.999s9.66699 50.666 29 69.999s42.666 29 69.999 29s50.666 -9.66699 69.999 -29s29 -42.666 29 -69.999
s-9.66699 -50.666 -29 -69.999s-42.666 -29 -69.999 -29s-50.666 9.66699 -69.999 29zM793 1609c-19.333 19.333 -29 42.666 -29 69.999s9.66699 50.666 29 69.999s42.666 29 69.999 29s50.666 -9.66699 69.999 -29s29 -42.666 29 -69.999s-9.66699 -50.666 -29 -69.999
s-42.666 -29 -69.999 -29s-50.666 9.66699 -69.999 29z" />
    <glyph glyph-name="uni01DF" unicode="&#x1df;" horiz-adv-x="1125" 
d="M732 185c65.333 58.667 97.999 130.667 97.999 216v126l-319 -23c-180.667 -12.667 -271 -80.667 -271 -204c0 -61.333 23.667 -110.333 71 -147c46 -36.667 105.667 -55 179 -55c96.667 0 177.334 29 242.001 87zM206.999 68c-68 58 -101.999 134.668 -101.999 230.001
c0 93.333 33.667 167 101 221c66 53.333 161.667 84.333 287 93l337 22v104c0 77.333 -22.667 136.666 -68 177.999c-46 41.333 -112.667 62 -200 62c-74 0 -136 -14.667 -186 -44c-50.667 -30 -82.334 -71 -95.001 -123h-133c12.667 85.333 57.334 154 134.001 206
c76 52 170.667 78 284 78c126 0 223.667 -31.333 293 -94c68.667 -62 103 -149.333 103 -262v-739h-126v185h-12c-32.667 -64 -80.334 -113.667 -143.001 -149c-62.667 -36 -133.667 -54 -213 -54c-106.667 0 -193.667 28.667 -261 86zM314 1269
c-19.333 19.333 -29 42.666 -29 69.999c0 28 9.66699 51.667 29 71c19.333 18.667 42.666 28 69.999 28s50.666 -9.33301 69.999 -28c19.333 -19.333 29 -43 29 -71c0 -27.333 -9.66699 -50.666 -29 -69.999s-42.666 -29 -69.999 -29s-50.666 9.66699 -69.999 29zM678 1269
c-19.333 19.333 -29 42.666 -29 69.999c0 28 9.66699 51.667 29 71c19.333 18.667 42.666 28 69.999 28s50.666 -9.33301 69.999 -28c19.333 -19.333 29 -43 29 -71c0 -27.333 -9.66699 -50.666 -29 -69.999s-42.666 -29 -69.999 -29s-50.666 9.66699 -69.999 29zM237 1614
v106h662v-106h-662z" />
    <glyph glyph-name="uni01E0" unicode="&#x1e0;" horiz-adv-x="1363" 
d="M984 442h-606l-160 -442h-145l540 1443h136l539 -1443h-144zM419 560h524l-256 704h-13zM607 1609c-20 20 -30 44.333 -30 73s10 53 30 73c20.667 20.667 45.334 31 74.001 31s53.334 -10.333 74.001 -31c20 -20 30 -44.333 30 -73s-10 -53 -30 -73
c-20.667 -20.667 -45.334 -31 -74.001 -31s-53.334 10.333 -74.001 31zM359 1915v101h644v-101h-644z" />
    <glyph glyph-name="uni01E1" unicode="&#x1e1;" horiz-adv-x="1125" 
d="M732 185c65.333 58.667 97.999 130.667 97.999 216v126l-319 -23c-180.667 -12.667 -271 -80.667 -271 -204c0 -61.333 23.667 -110.333 71 -147c46 -36.667 105.667 -55 179 -55c96.667 0 177.334 29 242.001 87zM206.999 68c-68 58 -101.999 134.668 -101.999 230.001
c0 93.333 33.667 167 101 221c66 53.333 161.667 84.333 287 93l337 22v104c0 77.333 -22.667 136.666 -68 177.999c-46 41.333 -112.667 62 -200 62c-74 0 -136 -14.667 -186 -44c-50.667 -30 -82.334 -71 -95.001 -123h-133c12.667 85.333 57.334 154 134.001 206
c76 52 170.667 78 284 78c126 0 223.667 -31.333 293 -94c68.667 -62 103 -149.333 103 -262v-739h-126v185h-12c-32.667 -64 -80.334 -113.667 -143.001 -149c-62.667 -36 -133.667 -54 -213 -54c-106.667 0 -193.667 28.667 -261 86zM490 1258c-20 20 -30 44.333 -30 73
c0 29.333 10 53.666 30 72.999c20 20 44.333 30 73 30c29.333 0 53.666 -10 72.999 -30c20 -19.333 30 -43.666 30 -72.999c0 -28.667 -10 -53 -30 -73c-19.333 -20 -43.666 -30 -72.999 -30c-28.667 0 -53 10 -73 30zM234 1585v106h662v-106h-662z" />
    <glyph glyph-name="uni01E2" unicode="&#x1e2;" horiz-adv-x="1955" 
d="M840 1327l-365 -766h526v766h-161zM1001 443h-581l-208 -443h-139l678 1443h1063v-124h-677v-526h640v-122h-640v-547h677v-124h-813v443zM1082 1619v105h644v-105h-644z" />
    <glyph glyph-name="uni01E3" unicode="&#x1e3;" horiz-adv-x="1880" 
d="M1063 54c-72.667 47.333 -123.999 110.999 -153.999 190.999h-12c-32 -82 -84.333 -146.333 -157 -193c-74 -46.667 -161 -70 -261 -70c-111.333 0 -201.333 28.333 -270 85c-69.333 57.333 -104 133.333 -104 228c0 92.667 33.333 165.334 100 218.001
c66 52.667 161.667 83 287 91l338 21v113c0 77.333 -22.667 136.666 -68 177.999c-46 41.333 -112.667 62 -200 62c-74 0 -136 -14.667 -186 -44c-50.667 -30 -82.334 -71 -95.001 -123h-133c12.667 85.333 57 154 133 206c76.667 52 171.667 78 285 78
c90 0 166.333 -20.333 229 -61c61.333 -40 102 -94.667 122 -164h13c30.667 66 79.334 119.667 146.001 161c70 42.667 148 64 234 64c141.333 0 252.666 -46.333 333.999 -139c80.667 -93.333 121 -221 121 -383v-58h-804v-15c3.33301 -121.333 37 -218.666 101 -291.999
c64 -72.667 148.333 -109 253 -109c150.667 0 250.667 55.667 300 167h133c-26.667 -89.333 -78.334 -159 -155.001 -209s-170 -75 -280 -75c-93.333 0 -176.666 24 -249.999 72zM1063 881.999c-61.333 -64.667 -95.333 -151.333 -102 -260h667
c-1.33301 105.333 -32 191.333 -92 258c-60 66 -137.333 99 -232 99c-98.667 0 -179 -32.333 -241 -97zM734.001 188c64 60 96 133.001 96 219.001v111l-321 -21c-179.333 -12.667 -269 -79 -269 -199c0 -60.667 23.667 -109.334 71 -146.001c47.333 -36 109 -54 185 -54
c94.667 0 174 30 238 90zM618.001 1292v106h662v-106h-662z" />
    <glyph glyph-name="Gcaron" unicode="&#x1e6;" horiz-adv-x="1506" 
d="M705 1577l-287 297h155l190 -203h12l190 203h155l-287 -297h-128zM1374 559c0 -178.667 -54.667 -321.333 -164 -428c-109.333 -107.333 -255.333 -161 -438 -161c-195.333 0 -352 68.333 -470 205c-117.333 137.333 -176 319.666 -176 546.999
c0 226 58.667 407.667 176 545s273 206 467 206c154 0 284.667 -41 392 -123c106.667 -82 173 -191.667 199 -329h-139c-30 103.333 -84.333 183.333 -163 240s-175 85 -289 85c-152.667 0 -274.667 -56.667 -366 -170s-137 -264.666 -137 -453.999
c0 -190 46 -341.667 138 -455c91.333 -113.333 214 -170 368 -170c141.333 0 254.333 41.333 339 124c84.667 82 127 191 127 327v50h-440v121h576v-160z" />
    <glyph glyph-name="gcaron" unicode="&#x1e7;" horiz-adv-x="1242" 
d="M527 1228l-275 332h153l193 -243h12l193 243h153l-275 -332h-154zM849 860c-64 78 -148.999 117.001 -254.999 117.001c-106.667 0 -191 -38.667 -253 -116c-61.333 -76.667 -92 -179.667 -92 -309c0 -128.667 30.667 -231.334 92 -308.001
c62 -77.333 146.333 -116 253 -116c107.333 0 192.666 38.333 255.999 115c62.667 76.667 94 179 94 307c0 128.667 -31.667 232 -95 310zM303.001 -327.999c-77.333 50 -122.998 117.331 -136.998 201.998h139c12 -50 44.667 -89.667 98 -119s120.666 -44 201.999 -44
c104 0 186.333 25.333 247 76c60 50.667 90 119.667 90 207v242h-13c-32 -71.333 -79.667 -126.666 -143 -165.999c-62.667 -39.333 -135.334 -59 -218.001 -59c-138 0 -248.333 49.667 -331 149c-82 98.667 -123 229.334 -123 392.001s41.333 293.667 124 393
c82.667 100 192.667 150 330 150c82 0 156.333 -21 223 -63s114.667 -98 144 -168h12v213h126v-1093c0 -117.333 -42.667 -211.333 -128 -282s-198.666 -106 -339.999 -106c-122.667 0 -223.334 25.333 -302.001 76z" />
    <glyph glyph-name="uni01E8" unicode="&#x1e8;" horiz-adv-x="1311" 
d="M184 0v1443h137v-746h12l683 746h171l-578 -623l637 -820h-177l-555 725l-193 -210v-515h-137zM572 1577l-287 297h155l190 -203h12l190 203h155l-287 -297h-128z" />
    <glyph glyph-name="uni01E9" unicode="&#x1e9;" horiz-adv-x="1092" 
d="M848 1077h164l-481 -462l503 -615h-168l-434 531l-122 -113v-418h-131v1506h131v-933h12zM180 1640l-287 297h155l190 -203h12l190 203h155l-287 -297h-128z" />
    <glyph glyph-name="uni01EA" unicode="&#x1ea;" horiz-adv-x="1561" 
d="M864 -365c-38.667 37.333 -58 84.665 -58 141.998c0 78.667 36.333 145.667 109 201v12c-42 -13.333 -87 -20 -135 -20c-202 0 -361.333 67.333 -478 202c-117.333 134 -176 317.333 -176 550c0 230.667 58.667 413.667 176 549c117.333 134.667 276.666 202 477.999 202
c200.667 0 359.667 -67.333 477 -202c116.667 -134.667 175 -317.667 175 -549c0 -263.333 -84 -469.666 -252 -618.999c-20 -17.333 -51 -42.666 -93 -75.999c-37.333 -29.333 -64.333 -52 -81 -68c-52.667 -50 -79 -103 -79 -159c0 -33.333 11.333 -61 34 -83
c23.333 -22 52.333 -33 87 -33c32.667 0 61.334 5 86.001 15v-97c-27.333 -15.333 -68 -23 -122 -23c-60.667 0 -110 18.667 -148 56zM405 1177c-92.667 -112.667 -139 -264.334 -139 -455.001c0 -192 46.333 -344 139 -456c92.667 -112.667 217.667 -169 375 -169
c156 0 280.333 56.667 373 170c92.667 112.667 139 264.334 139 455.001c0 191.333 -46 343.333 -138 456c-92 112 -216.667 168 -374 168s-282.333 -56.333 -375 -169z" />
    <glyph glyph-name="uni01EB" unicode="&#x1eb;" horiz-adv-x="1208" 
d="M627 -369c-38.667 34.667 -58.001 79.334 -58.001 134.001c0 76.667 36.667 147.667 110 213v12c-24.667 -5.33301 -50.667 -8 -78 -8c-150 0 -268.667 50 -356 150s-131 235.667 -131 407s43.667 307 131 407c88 99.333 207.333 149 358 149s270 -49.667 358 -149
c88 -100 132 -235.333 132 -406c0 -201.333 -69.667 -360.333 -209 -477c-74.667 -66.667 -125.667 -118.334 -153 -155.001c-28 -38.667 -42 -77.667 -42 -117c0 -32 11.667 -57.667 35 -77c22.667 -20 52.334 -30 89.001 -30c35.333 0 63.333 5 84 15v-97
c-35.333 -15.333 -75.333 -23 -120 -23c-61.333 0 -111.333 17.333 -150 52zM862.999 218c62.667 77.333 94 184.333 94 321s-31.333 243.667 -94 321c-62.667 78 -149.334 117 -260.001 117s-197.334 -38.667 -260.001 -116c-62.667 -78 -94 -185.333 -94 -322
s31.333 -244 94 -322c62.667 -77.333 149.334 -116 260.001 -116s197.334 39 260.001 117z" />
    <glyph glyph-name="uni01EC" unicode="&#x1ec;" horiz-adv-x="1561" 
d="M864 -365c-38.667 37.333 -58 84.665 -58 141.998c0 78.667 36.333 145.667 109 201v12c-42 -13.333 -87 -20 -135 -20c-202 0 -361.333 67.333 -478 202c-117.333 134 -176 317.333 -176 550c0 230.667 58.667 413.667 176 549c117.333 134.667 276.666 202 477.999 202
c200.667 0 359.667 -67.333 477 -202c116.667 -134.667 175 -317.667 175 -549c0 -263.333 -84 -469.666 -252 -618.999c-20 -17.333 -51 -42.666 -93 -75.999c-37.333 -29.333 -64.333 -52 -81 -68c-52.667 -50 -79 -103 -79 -159c0 -33.333 11.333 -61 34 -83
c23.333 -22 52.333 -33 87 -33c32.667 0 61.334 5 86.001 15v-97c-27.333 -15.333 -68 -23 -122 -23c-60.667 0 -110 18.667 -148 56zM405 1177c-92.667 -112.667 -139 -264.334 -139 -455.001c0 -192 46.333 -344 139 -456c92.667 -112.667 217.667 -169 375 -169
c156 0 280.333 56.667 373 170c92.667 112.667 139 264.334 139 455.001c0 191.333 -46 343.333 -138 456c-92 112 -216.667 168 -374 168s-282.333 -56.333 -375 -169zM458 1619v105h644v-105h-644z" />
    <glyph glyph-name="uni01ED" unicode="&#x1ed;" horiz-adv-x="1208" 
d="M627 -369c-38.667 34.667 -58.001 79.334 -58.001 134.001c0 76.667 36.667 147.667 110 213v12c-24.667 -5.33301 -50.667 -8 -78 -8c-150 0 -268.667 50 -356 150s-131 235.667 -131 407s43.667 307 131 407c88 99.333 207.333 149 358 149s270 -49.667 358 -149
c88 -100 132 -235.333 132 -406c0 -201.333 -69.667 -360.333 -209 -477c-74.667 -66.667 -125.667 -118.334 -153 -155.001c-28 -38.667 -42 -77.667 -42 -117c0 -32 11.667 -57.667 35 -77c22.667 -20 52.334 -30 89.001 -30c35.333 0 63.333 5 84 15v-97
c-35.333 -15.333 -75.333 -23 -120 -23c-61.333 0 -111.333 17.333 -150 52zM862.999 218c62.667 77.333 94 184.333 94 321s-31.333 243.667 -94 321c-62.667 78 -149.334 117 -260.001 117s-197.334 -38.667 -260.001 -116c-62.667 -78 -94 -185.333 -94 -322
s31.333 -244 94 -322c62.667 -77.333 149.334 -116 260.001 -116s197.334 39 260.001 117zM271.999 1292v106h662v-106h-662z" />
    <glyph glyph-name="uni01F1" unicode="&#x1f1;" horiz-adv-x="2799" 
d="M1608 99l863 1208v12h-834v124h1011v-100l-860 -1207v-12h872v-124h-1052v99zM659 1443c218 0 387.333 -64 508 -192c118 -126.667 177 -303 177 -529c0 -226.667 -59 -403 -177 -529c-120 -128.667 -289.333 -193 -508 -193h-475v1443h475zM321 124l330 0.000976562
c175.333 0 311.666 53 408.999 159c96 104.667 144 250.667 144 438s-48 333.666 -144 438.999c-97.333 106 -233.666 159 -408.999 159h-330v-1195z" />
    <glyph glyph-name="uni01F2" unicode="&#x1f2;" horiz-adv-x="2553" 
d="M1601 100l660 854v12h-659v111h816v-101l-658 -853v-12h660v-111h-819v100zM659 1443c218 0 387.333 -64 508 -192c118 -126.667 177 -303 177 -529c0 -226.667 -59 -403 -177 -529c-120 -128.667 -289.333 -193 -508 -193h-475v1443h475zM321 124l330 0.000976562
c175.333 0 311.666 53 408.999 159c96 104.667 144 250.667 144 438s-48 333.666 -144 438.999c-97.333 106 -233.666 159 -408.999 159h-330v-1195z" />
    <glyph glyph-name="uni01F3" unicode="&#x1f3;" horiz-adv-x="2337" 
d="M1386 100l660 854v12h-659v111h816v-101l-658 -853v-12h660v-111h-819v100zM239 135c-83.333 101.333 -125.002 235.667 -125.002 403c0 166.667 42 301.334 126 404.001c83.333 102 193.333 153 330 153c82 0 155.333 -20.333 220 -61s112.334 -96.334 143.001 -167.001
h12v639h131v-1506h-126v215h-12c-32 -72 -80.667 -128.667 -146 -170c-66 -42 -140 -63 -222 -63c-137.333 0 -247.666 51 -330.999 153zM343.998 858.001c-63.333 -79.333 -95 -185.666 -95 -318.999c0 -134 31.667 -240.333 95 -319
c62.667 -79.333 147.334 -119 254.001 -119c106 0 190.667 39.667 254 119s95 185.666 95 318.999c0 132 -31.667 238 -95 318c-64 80 -148.667 120 -254 120c-106.667 0 -191.334 -39.667 -254.001 -119z" />
    <glyph glyph-name="uni01F4" unicode="&#x1f4;" horiz-adv-x="1506" 
d="M992 1874h174l-326 -297h-158zM1374 559c0 -178.667 -54.667 -321.333 -164 -428c-109.333 -107.333 -255.333 -161 -438 -161c-195.333 0 -352 68.333 -470 205c-117.333 137.333 -176 319.666 -176 546.999c0 226 58.667 407.667 176 545s273 206 467 206
c154 0 284.667 -41 392 -123c106.667 -82 173 -191.667 199 -329h-139c-30 103.333 -84.333 183.333 -163 240s-175 85 -289 85c-152.667 0 -274.667 -56.667 -366 -170s-137 -264.666 -137 -453.999c0 -190 46 -341.667 138 -455c91.333 -113.333 214 -170 368 -170
c141.333 0 254.333 41.333 339 124c84.667 82 127 191 127 327v50h-440v121h576v-160z" />
    <glyph glyph-name="uni01F5" unicode="&#x1f5;" horiz-adv-x="1242" 
d="M765 1594h168l-269 -327h-149zM849 860c-64 78 -148.999 117.001 -254.999 117.001c-106.667 0 -191 -38.667 -253 -116c-61.333 -76.667 -92 -179.667 -92 -309c0 -128.667 30.667 -231.334 92 -308.001c62 -77.333 146.333 -116 253 -116
c107.333 0 192.666 38.333 255.999 115c62.667 76.667 94 179 94 307c0 128.667 -31.667 232 -95 310zM303.001 -327.999c-77.333 50 -122.998 117.331 -136.998 201.998h139c12 -50 44.667 -89.667 98 -119s120.666 -44 201.999 -44c104 0 186.333 25.333 247 76
c60 50.667 90 119.667 90 207v242h-13c-32 -71.333 -79.667 -126.666 -143 -165.999c-62.667 -39.333 -135.334 -59 -218.001 -59c-138 0 -248.333 49.667 -331 149c-82 98.667 -123 229.334 -123 392.001s41.333 293.667 124 393c82.667 100 192.667 150 330 150
c82 0 156.333 -21 223 -63s114.667 -98 144 -168h12v213h126v-1093c0 -117.333 -42.667 -211.333 -128 -282s-198.666 -106 -339.999 -106c-122.667 0 -223.334 25.333 -302.001 76z" />
    <glyph glyph-name="uni01F8" unicode="&#x1f8;" horiz-adv-x="1494" 
d="M830 1577h-157l-326 297h174zM184 0v1443h135l841 -1198h13v1198h135v-1443h-132l-844 1199h-13v-1199h-135z" />
    <glyph glyph-name="uni01F9" unicode="&#x1f9;" horiz-adv-x="1206" 
d="M575 1267l-269 327h168l250 -327h-149zM168 1077l125.001 -0.000976562v-194h13c28.667 66.667 74.667 118.667 138 156s137.666 56 222.999 56c120 0 213 -34.333 279 -103c66 -69.333 99 -166.666 99 -291.999v-700h-131v667c0 206.667 -93.667 310 -281 310
c-100.667 0 -181.667 -30.667 -243 -92c-60.667 -62 -91 -143.667 -91 -245v-640h-131v1077z" />
    <glyph glyph-name="Aringacute" unicode="&#x1fa;" horiz-adv-x="1363" 
d="M984 442h-606l-160 -442h-145l540 1443h136l539 -1443h-144zM419 560h524l-256 704h-13zM607 1647c20 -20.667 45 -31 75 -31c29.333 0 54.333 10.333 75 31c20 20.667 30 46 30 76s-10 55.333 -30 76c-20.667 20 -45.667 30 -75 30c-30 0 -55 -10 -75 -30
c-20.667 -20.667 -31 -46 -31 -76s10.333 -55.333 31 -76zM549 1592c-36.667 36 -55 79.667 -55 131c0 52 18.333 96 55 132c36.667 35.333 81 53 133 53s96 -17.667 132 -53c36.667 -36 55 -80 55 -132c0 -51.333 -18.333 -95 -55 -131s-80.667 -54 -132 -54
c-52 0 -96.333 18 -133 54zM913 2138l-165 -169h-126l144 169h147z" />
    <glyph glyph-name="aringacute" unicode="&#x1fb;" horiz-adv-x="1125" 
d="M732 185c65.333 58.667 97.999 130.667 97.999 216v126l-319 -23c-180.667 -12.667 -271 -80.667 -271 -204c0 -61.333 23.667 -110.333 71 -147c46 -36.667 105.667 -55 179 -55c96.667 0 177.334 29 242.001 87zM206.999 68c-68 58 -101.999 134.668 -101.999 230.001
c0 93.333 33.667 167 101 221c66 53.333 161.667 84.333 287 93l337 22v104c0 77.333 -22.667 136.666 -68 177.999c-46 41.333 -112.667 62 -200 62c-74 0 -136 -14.667 -186 -44c-50.667 -30 -82.334 -71 -95.001 -123h-133c12.667 85.333 57.334 154 134.001 206
c76 52 170.667 78 284 78c126 0 223.667 -31.333 293 -94c68.667 -62 103 -149.333 103 -262v-739h-126v185h-12c-32.667 -64 -80.334 -113.667 -143.001 -149c-62.667 -36 -133.667 -54 -213 -54c-106.667 0 -193.667 28.667 -261 86zM428 1264
c-37.333 36 -56 80.333 -56 133s18.667 97 56 133c36.667 36.667 81.667 55 135 55s98.333 -18.333 135 -55c37.333 -36 56 -80.333 56 -133s-18.667 -97 -56 -133c-36.667 -36.667 -81.667 -55 -135 -55s-98.333 18.333 -135 55zM486 1318
c20.667 -20.667 46.334 -31 77.001 -31s56.334 10.333 77.001 31c20.667 21.333 31 47.333 31 78c0 31.333 -10.333 57.333 -31 78c-20.667 21.333 -46.334 32 -77.001 32s-56.334 -10.667 -77.001 -32c-20.667 -20.667 -31 -46.667 -31 -78
c0 -30.667 10.333 -56.667 31 -78zM662 1875h157l-189 -206h-132z" />
    <glyph glyph-name="AEacute" unicode="&#x1fc;" horiz-adv-x="1955" 
d="M1627 1874h174l-326 -297h-158zM840 1327l-365 -766h526v766h-161zM1001 443h-581l-208 -443h-139l678 1443h1063v-124h-677v-526h640v-122h-640v-547h677v-124h-813v443z" />
    <glyph glyph-name="aeacute" unicode="&#x1fd;" horiz-adv-x="1880" 
d="M1110 1594h168l-269 -327h-149zM1063 54c-72.667 47.333 -123.999 110.999 -153.999 190.999h-12c-32 -82 -84.333 -146.333 -157 -193c-74 -46.667 -161 -70 -261 -70c-111.333 0 -201.333 28.333 -270 85c-69.333 57.333 -104 133.333 -104 228
c0 92.667 33.333 165.334 100 218.001c66 52.667 161.667 83 287 91l338 21v113c0 77.333 -22.667 136.666 -68 177.999c-46 41.333 -112.667 62 -200 62c-74 0 -136 -14.667 -186 -44c-50.667 -30 -82.334 -71 -95.001 -123h-133c12.667 85.333 57 154 133 206
c76.667 52 171.667 78 285 78c90 0 166.333 -20.333 229 -61c61.333 -40 102 -94.667 122 -164h13c30.667 66 79.334 119.667 146.001 161c70 42.667 148 64 234 64c141.333 0 252.666 -46.333 333.999 -139c80.667 -93.333 121 -221 121 -383v-58h-804v-15
c3.33301 -121.333 37 -218.666 101 -291.999c64 -72.667 148.333 -109 253 -109c150.667 0 250.667 55.667 300 167h133c-26.667 -89.333 -78.334 -159 -155.001 -209s-170 -75 -280 -75c-93.333 0 -176.666 24 -249.999 72zM1063 881.999
c-61.333 -64.667 -95.333 -151.333 -102 -260h667c-1.33301 105.333 -32 191.333 -92 258c-60 66 -137.333 99 -232 99c-98.667 0 -179 -32.333 -241 -97zM734.001 188c64 60 96 133.001 96 219.001v111l-321 -21c-179.333 -12.667 -269 -79 -269 -199
c0 -60.667 23.667 -109.334 71 -146.001c47.333 -36 109 -54 185 -54c94.667 0 174 30 238 90z" />
    <glyph glyph-name="Oslashacute" unicode="&#x1fe;" horiz-adv-x="1530" 
d="M835 1577h-158l310 297h174zM441 226c89.333 -86 202.333 -129.001 339 -129.001c158 0 283 56.667 375 170c91.333 112.667 137 264.334 137 455.001c0 184.667 -43 333 -129 445zM1096 1237c-84.667 72.667 -190 109 -316 109c-157.333 0 -282.333 -56.333 -375 -169
c-92.667 -112 -139 -263.667 -139 -455c0 -170 37 -310 111 -420zM1249 1280c122 -134.667 183.001 -320.667 183.001 -558c0 -231.333 -58 -414 -174 -548c-116.667 -136 -276 -204 -478 -204c-169.333 0 -310.333 48.667 -423 146l-142 -186l-79 59l152 198
c-108 134 -162 312.333 -162 535c0 230.667 58.667 413.667 176 549c117.333 134.667 276.666 202 477.999 202c157.333 0 290.333 -42.333 399 -127l128 166l78 -55z" />
    <glyph glyph-name="oslashacute" unicode="&#x1ff;" horiz-adv-x="1208" 
d="M638 1267h-149l250 327h168zM394 167c57.333 -44 126.999 -66.001 208.999 -66.001c110.667 0 197.334 39 260.001 117c62.667 77.333 94 184.333 94 321c0 128.667 -27.667 231.334 -83 308.001zM805.999 915.999c-56 40.667 -123.666 61 -202.999 61
c-110.667 0 -197.334 -39 -260.001 -117c-62.667 -77.333 -94 -184.333 -94 -321c0 -123.333 25.667 -223 77 -299zM951 956.999c94.667 -100 142 -239.333 142 -418c0 -172 -44 -307.667 -132 -407c-88 -100 -207.333 -150 -358 -150c-109.333 0 -203.333 27.333 -282 82
l-85 -121l-82 55l93 131c-88.667 101.333 -133 238 -133 410s44 307.667 132 407c87.333 99.333 206.333 149 357 149c106 0 198 -25.667 276 -77l82 116l79 -51z" />
    <glyph glyph-name="uni0200" unicode="&#x200;" horiz-adv-x="1363" 
d="M984 442h-606l-160 -442h-145l540 1443h136l539 -1443h-144zM419 560h524l-256 704h-13zM446 1577l-326 297h174l309 -297h-157zM809 1577l-326 297h174l310 -297h-158z" />
    <glyph glyph-name="uni0201" unicode="&#x201;" horiz-adv-x="1125" 
d="M732 185c65.333 58.667 97.999 130.667 97.999 216v126l-319 -23c-180.667 -12.667 -271 -80.667 -271 -204c0 -61.333 23.667 -110.333 71 -147c46 -36.667 105.667 -55 179 -55c96.667 0 177.334 29 242.001 87zM206.999 68c-68 58 -101.999 134.668 -101.999 230.001
c0 93.333 33.667 167 101 221c66 53.333 161.667 84.333 287 93l337 22v104c0 77.333 -22.667 136.666 -68 177.999c-46 41.333 -112.667 62 -200 62c-74 0 -136 -14.667 -186 -44c-50.667 -30 -82.334 -71 -95.001 -123h-133c12.667 85.333 57.334 154 134.001 206
c76 52 170.667 78 284 78c126 0 223.667 -31.333 293 -94c68.667 -62 103 -149.333 103 -262v-739h-126v185h-12c-32.667 -64 -80.334 -113.667 -143.001 -149c-62.667 -36 -133.667 -54 -213 -54c-106.667 0 -193.667 28.667 -261 86zM347 1267l-271 327h161l251 -327h-141
zM690 1267l-271 327h161l250 -327h-140z" />
    <glyph glyph-name="uni0202" unicode="&#x202;" horiz-adv-x="1363" 
d="M984 442h-606l-160 -442h-145l540 1443h136l539 -1443h-144zM419 560h524l-256 704h-13zM349 1577c0 83.333 29.667 149.666 89 198.999c60 50 141 75 243 75s183 -25 243 -75c59.333 -49.333 89 -115.666 89 -198.999h-118c0 53.333 -19.333 96 -58 128
s-90.667 48 -156 48s-117.333 -16 -156 -48s-58 -74.667 -58 -128h-118z" />
    <glyph glyph-name="uni0203" unicode="&#x203;" horiz-adv-x="1125" 
d="M732 185c65.333 58.667 97.999 130.667 97.999 216v126l-319 -23c-180.667 -12.667 -271 -80.667 -271 -204c0 -61.333 23.667 -110.333 71 -147c46 -36.667 105.667 -55 179 -55c96.667 0 177.334 29 242.001 87zM206.999 68c-68 58 -101.999 134.668 -101.999 230.001
c0 93.333 33.667 167 101 221c66 53.333 161.667 84.333 287 93l337 22v104c0 77.333 -22.667 136.666 -68 177.999c-46 41.333 -112.667 62 -200 62c-74 0 -136 -14.667 -186 -44c-50.667 -30 -82.334 -71 -95.001 -123h-133c12.667 85.333 57.334 154 134.001 206
c76 52 170.667 78 284 78c126 0 223.667 -31.333 293 -94c68.667 -62 103 -149.333 103 -262v-739h-126v185h-12c-32.667 -64 -80.334 -113.667 -143.001 -149c-62.667 -36 -133.667 -54 -213 -54c-106.667 0 -193.667 28.667 -261 86zM234 1228
c0 88.667 29.6689 160.334 89.002 215.001c60 55.333 141 83 243 83s183 -27.667 243 -83c59.333 -54.667 89 -126.334 89 -215.001h-118c0 59.333 -18.667 107 -56 143c-38.667 36.667 -91.334 55 -158.001 55s-119.334 -18.333 -158.001 -55
c-37.333 -36 -56 -83.667 -56 -143h-118z" />
    <glyph glyph-name="uni0204" unicode="&#x204;" horiz-adv-x="1197" 
d="M385 1577l-326 297h174l309 -297h-157zM748 1577l-326 297h174l310 -297h-158zM1056 0h-872v1443h872v-124h-735v-519h698v-122h-698v-554h735v-124z" />
    <glyph glyph-name="uni0205" unicode="&#x205;" horiz-adv-x="1174" 
d="M353 879c-62.667 -67.333 -97.001 -156.333 -103.001 -267h671c-1.33301 111.333 -31.666 200.333 -90.999 267c-60 66.667 -138.667 100 -236 100c-98 0 -178.333 -33.333 -241 -100zM1041 266c-26.667 -88 -79.332 -157.333 -157.999 -208s-174.334 -76 -287.001 -76
c-148 0 -265.333 50.333 -352 151c-86.667 100 -130 235 -130 405c0 169.333 43.667 304.333 131 405c86.667 101.333 203.334 152 350.001 152c143.333 0 256.333 -47.667 339 -143s124 -225.333 124 -390v-58h-809v-6c3.33301 -122 36.666 -219 99.999 -291
c62.667 -72 146 -108 250 -108c158 0 261 55.667 309 167h133zM375.001 1267l-271 327h161l251 -327h-141zM718.001 1267l-271 327h161l250 -327h-140z" />
    <glyph glyph-name="uni0206" unicode="&#x206;" horiz-adv-x="1197" 
d="M1056 0h-872v1443h872v-124h-735v-519h698v-122h-698v-554h735v-124zM288 1577c0 83.333 29.667 149.666 89 198.999c60 50 141 75 243 75s183 -25 243 -75c59.333 -49.333 89 -115.666 89 -198.999h-118c0 53.333 -19.333 96 -58 128s-90.667 48 -156 48
s-117.333 -16 -156 -48s-58 -74.667 -58 -128h-118z" />
    <glyph glyph-name="uni0207" unicode="&#x207;" horiz-adv-x="1174" 
d="M353 879c-62.667 -67.333 -97.001 -156.333 -103.001 -267h671c-1.33301 111.333 -31.666 200.333 -90.999 267c-60 66.667 -138.667 100 -236 100c-98 0 -178.333 -33.333 -241 -100zM1041 266c-26.667 -88 -79.332 -157.333 -157.999 -208s-174.334 -76 -287.001 -76
c-148 0 -265.333 50.333 -352 151c-86.667 100 -130 235 -130 405c0 169.333 43.667 304.333 131 405c86.667 101.333 203.334 152 350.001 152c143.333 0 256.333 -47.667 339 -143s124 -225.333 124 -390v-58h-809v-6c3.33301 -122 36.666 -219 99.999 -291
c62.667 -72 146 -108 250 -108c158 0 261 55.667 309 167h133zM262.001 1228c0 88.667 29.6689 160.334 89.002 215.001c60 55.333 141 83 243 83s183 -27.667 243 -83c59.333 -54.667 89 -126.334 89 -215.001h-118c0 59.333 -18.667 107 -56 143
c-38.667 36.667 -91.334 55 -158.001 55s-119.334 -18.333 -158.001 -55c-37.333 -36 -56 -83.667 -56 -143h-118z" />
    <glyph glyph-name="uni0208" unicode="&#x208;" horiz-adv-x="507" 
d="M185 0v1443h137v-1443h-137zM19 1577l-326 297h174l309 -297h-157zM382 1577l-326 297h174l310 -297h-158z" />
    <glyph glyph-name="uni0209" unicode="&#x209;" horiz-adv-x="489" 
d="M179 1077h131v-1077h-131v1077zM25 1267l-271 327h161l251 -327h-141zM368 1267l-271 327h161l250 -327h-140z" />
    <glyph glyph-name="uni020A" unicode="&#x20a;" horiz-adv-x="507" 
d="M185 0v1443h137v-1443h-137zM-78 1577c0 83.333 29.667 149.666 89 198.999c60 50 141 75 243 75s183 -25 243 -75c59.333 -49.333 89 -115.666 89 -198.999h-118c0 53.333 -19.333 96 -58 128s-90.667 48 -156 48s-117.333 -16 -156 -48s-58 -74.667 -58 -128h-118z" />
    <glyph glyph-name="uni020B" unicode="&#x20b;" horiz-adv-x="489" 
d="M179 1077h131v-1077h-131v1077zM-88 1228c0 88.667 29.6689 160.334 89.002 215.001c60 55.333 141 83 243 83s183 -27.667 243 -83c59.333 -54.667 89 -126.334 89 -215.001h-118c0 59.333 -18.667 107 -56 143c-38.667 36.667 -91.334 55 -158.001 55
s-119.334 -18.333 -158.001 -55c-37.333 -36 -56 -83.667 -56 -143h-118z" />
    <glyph glyph-name="uni020C" unicode="&#x20c;" horiz-adv-x="1561" 
d="M545 1577l-326 297h174l309 -297h-157zM908 1577l-326 297h174l310 -297h-158zM1258 1270c116 -134 174.001 -316.667 174.001 -548s-58 -414 -174 -548c-116.667 -136 -276 -204 -478 -204c-202.667 0 -362.667 67.667 -480 203c-116 134.667 -174 317.667 -174 549
c0 230.667 58.667 413.667 176 549c117.333 134.667 276.666 202 477.999 202c202 0 361.333 -67.667 478 -203zM405.001 1177c-92.667 -112 -139.001 -263.667 -139.001 -455c0 -190.667 45.667 -342.334 137 -455.001c92.667 -113.333 218.334 -170 377.001 -170
c158 0 283 56.667 375 170c91.333 112.667 137 264.334 137 455.001c0 191.333 -45.667 343 -137 455c-92 112.667 -217 169 -375 169c-157.333 0 -282.333 -56.333 -375 -169z" />
    <glyph glyph-name="uni020D" unicode="&#x20d;" horiz-adv-x="1208" 
d="M863 218c62.667 77.333 94 184.333 94 321s-31.333 243.667 -94 321c-62.667 78 -149.334 117 -260.001 117s-197.334 -39 -260.001 -117c-62.667 -77.333 -94 -184.333 -94 -321s31.333 -243.667 94 -321c62.667 -78 149.334 -117 260.001 -117s197.334 39 260.001 117z
M246 132c-88 99.333 -132 235 -132 407s44 307.667 132 407c87.333 99.333 206.333 149 357 149s270 -49.667 358 -149s132 -235 132 -407s-44 -307.667 -132 -407c-88 -100 -207.333 -150 -358 -150s-269.667 50 -357 150zM384 1267l-271 327h161l251 -327h-141zM727 1267
l-271 327h161l250 -327h-140z" />
    </font>
</defs>
</svg>
