<?xml version="1.0" standalone="no"?>
<!DOCTYPE svg PUBLIC "-//W3C//DTD SVG 1.1//EN" "http://www.w3.org/Graphics/SVG/1.1/DTD/svg11.dtd" >
<svg>
<metadata>
Created by FontForge 20090914 at Sun May 24 19:03:17 2020
 By www-data
Copyright (c) 2010-2012 by Claus Eggers S&#195;&#184;rensen (es@forthehearts.net), with Reserved Font Name 'Playfair'.
</metadata>
<defs>
<font id="PlayfairDisplay-BoldItalic" horiz-adv-x="1036" >
  <font-face 
    font-family="Playfair Display"
    font-weight="700"
    font-style="italic"
    font-stretch="normal"
    units-per-em="2048"
    panose-1="0 0 8 0 0 0 0 0 0 0"
    ascent="1638"
    descent="-410"
    x-height="1075"
    cap-height="1450"
    bbox="-410 -399 2449 1958"
    underline-thickness="20"
    underline-position="-80"
    slope="-14"
    unicode-range="U+000D-U+E000"
  />
<missing-glyph horiz-adv-x="748" 
d="M68 0v1365h544v-1365h-544zM136 68h408v1229h-408v-1229z" />
    <glyph glyph-name=".notdef" horiz-adv-x="748" 
d="M68 0v1365h544v-1365h-544zM136 68h408v1229h-408v-1229z" />
    <glyph glyph-name="glyph1" horiz-adv-x="2048" 
 />
    <glyph glyph-name="glyph1" horiz-adv-x="2048" 
 />
    <glyph glyph-name="uni000D" unicode="&#xd;" horiz-adv-x="0" 
 />
    <glyph glyph-name="space" unicode=" " horiz-adv-x="522" 
 />
    <glyph glyph-name="exclam" unicode="!" horiz-adv-x="643" 
d="M50 95c0 54.667 19.333 100.333 58 137s85.667 55 141 55c42.667 0 76.167 -10.833 100.5 -32.5s36.5 -51.5 36.5 -89.5c0 -51.333 -19.333 -96.5 -58 -135.5s-85.667 -58.5 -141 -58.5c-43.333 0 -77 11 -101 33s-36 52.333 -36 91zM244 407.999
c24 95.333 41.834 195.003 53.501 299.003s20.667 213.333 27 328s12.166 197 17.499 247c1.33301 39.333 6.16602 76.666 14.499 111.999s20.333 69.166 36 101.499s37.5 58.166 65.5 77.499s60.333 29 97 29c44.667 0 78.834 -12.5 102.501 -37.5
s35.5 -60.167 35.5 -105.5c0 -9.33301 -0.333008 -16.333 -1 -21c-5.33301 -58 -25 -129.167 -59 -213.5s-71.333 -165.333 -112 -243s-84.5 -170.667 -131.5 -279s-83.167 -208.833 -108.5 -301.5z" />
    <glyph glyph-name="quotedbl" unicode="&#x22;" horiz-adv-x="801" 
d="M296 1300c0 14 0.334961 24.332 1.00195 30.999c3.33301 46.667 20 85.667 50 117s67.333 47 112 47c31.333 0 56.166 -8.66699 74.499 -26s28.166 -40.666 29.499 -69.999c0 -35.333 -11.167 -73.5 -33.5 -114.5s-52.5 -88.833 -90.5 -143.5s-67 -102 -87 -142h-28
c-1.33301 55.333 -6.33301 113.833 -15 175.5s-13 103.5 -13 125.5zM629.002 1300c0 14 0.334961 24.332 1.00195 30.999c3.33301 46.667 20 85.667 50 117s67.333 47 112 47c31.333 0 56.166 -8.66699 74.499 -26s28.166 -40.666 29.499 -69.999
c0 -35.333 -11.167 -73.5 -33.5 -114.5s-52.5 -88.833 -90.5 -143.5s-67 -102 -87 -142h-28c-1.33301 55.333 -6.33301 113.833 -15 175.5s-13 103.5 -13 125.5z" />
    <glyph glyph-name="numbersign" unicode="#" horiz-adv-x="1280" 
d="M61 506l19 41h300l159 342h-299l16 41h302l140 303h50l-141 -303h334l140 303h49l-140 -303h292l-16 -41h-295l-159 -342h294l-21 -41h-292l-138 -299h-49l138 299h-333l-139 -299h-49l138 299h-300zM430 547h333l159 342h-334z" />
    <glyph glyph-name="dollar" unicode="$" horiz-adv-x="1249" 
d="M6 315c0 59.333 14.6699 109.334 44.0029 150.001s67.333 61 114 61c45.333 0 81.166 -16.167 107.499 -48.5s39.5 -74.166 39.5 -125.499c0 -73.333 -32 -160 -96 -260c31.333 -24.667 71.333 -43.667 120 -57l166 598c-36 34 -66.333 64.5 -91 91.5
s-49.5 58.167 -74.5 93.5s-43.833 71.833 -56.5 109.5s-19 76.5 -19 116.5c0 59.333 9.5 113.333 28.5 162s44 89.167 75 121.5s67.5 59.833 109.5 82.5s84.833 39.167 128.5 49.5s88.5 16.5 134.5 18.5l67 242h45l-67 -241c50.667 -0.666992 97 -5.33398 139 -14.001
l71 255h45l-74 -265c55.333 -15.333 113 -42.333 173 -81c41.333 -26.667 74.166 -60.667 98.499 -102s36.5 -87 36.5 -137c0 -59.333 -14.5 -109.333 -43.5 -150s-67.167 -61 -114.5 -61c-45.333 0 -80.833 16.167 -106.5 48.5s-38.5 74.166 -38.5 125.499
c0 75.333 31.333 162 94 260c-29.333 23.333 -66 41.666 -110 54.999l-155 -556l76 -68c18 -16 41.167 -38.167 69.5 -66.5s50.333 -53.166 66 -74.499s32 -45.833 49 -73.5s29.167 -55.5 36.5 -83.5s11 -56.333 11 -85c0 -61.333 -11.667 -116.833 -35 -166.5
s-53.5 -90.334 -90.5 -122.001s-80.333 -58.5 -130 -80.5s-99 -37.833 -148 -47.5s-99.167 -15.5 -150.5 -17.5l-67 -242h-45l67 241c-46.667 0 -93.334 4 -140.001 12l-70 -253h-45l73 262c-61.333 16 -122 44 -182 84c-90 56.667 -135 136.334 -135 239.001z
M377.003 26.001c34 -6.66699 73 -9.99902 117 -9.99902h24l131 475c-16.667 17.333 -54 53.666 -112 108.999zM537.003 1219c0 -56.667 25.333 -117 76 -181l110 393c-56 -9.33301 -101 -32 -135 -68s-51 -84 -51 -144zM563.003 20.002c146 16 219 89.333 219 220
c0 66.667 -32.667 137.667 -98 213zM647.003 998.002c22 -23.333 59.667 -59.667 113 -109l149 535c-38.667 8 -81 12 -127 12h-13z" />
    <glyph glyph-name="percent" unicode="%" horiz-adv-x="1630" 
d="M10 -86l1706 1774l31 -27l-1706 -1774zM229 1128c0 50.667 11.665 101.668 34.998 153.001s55 97.5 95 138.5s89.167 74.5 147.5 100.5s119.5 39 183.5 39c82.667 0 147.334 -21 194.001 -63s70 -100.333 70 -175c0 -50.667 -11.5 -101.667 -34.5 -153
s-54.333 -97.5 -94 -138.5s-88.5 -74.333 -146.5 -100s-119 -38.5 -183 -38.5c-83.333 0 -148.666 20.667 -195.999 62s-71 99.666 -71 174.999zM439.998 1053c0 -42 5.99805 -74.333 17.998 -97s29.333 -34 52 -34c36 0 69.333 17 100 51s55.334 76.167 74.001 126.5
s33.167 102 43.5 155s15.5 101.167 15.5 144.5c0 86 -23 129 -69 129c-28.667 0 -56 -11.333 -82 -34s-48 -51.667 -66 -87s-33.667 -74.333 -47 -117s-23.166 -84.5 -29.499 -125.5s-9.5 -78.167 -9.5 -111.5zM761.996 209.001c0 50.667 11.833 101.667 35.5 153
s55.334 97.5 95.001 138.5s88.667 74.333 147 100s119.5 38.5 183.5 38.5c83.333 0 148.166 -21 194.499 -63s69.5 -100.333 69.5 -175c0 -50.667 -11.667 -101.5 -35 -152.5s-54.833 -97 -94.5 -138s-88.5 -74.5 -146.5 -100.5s-119 -39 -183 -39
c-82.667 0 -147.667 20.833 -195 62.5s-71 100.167 -71 175.5zM972.996 133.001c0 -87.333 23 -130.999 69 -130.999c36 0 69.5 17 100.5 51s55.833 76.167 74.5 126.5s33.167 102 43.5 155s15.5 101.167 15.5 144.5c0 86 -23.333 129 -70 129
c-35.333 0 -68.5 -17 -99.5 -51s-55.833 -76.167 -74.5 -126.5s-33.167 -101.833 -43.5 -154.5s-15.5 -100.334 -15.5 -143.001z" />
    <glyph glyph-name="ampersand" unicode="&#x26;" horiz-adv-x="1767" 
d="M59 420c0 132 49.8379 247.163 149.505 345.496s233.5 165.5 401.5 201.5c-60 20.667 -105 49.834 -135 87.501s-45 79.5 -45 125.5c0 54.667 20.333 102.167 61 142.5s90.5 69.666 149.5 87.999s121.833 27.5 188.5 27.5c83.333 0 147.166 -15 191.499 -45
s66.5 -69.667 66.5 -119c0 -45.333 -16.333 -80.666 -49 -105.999s-68.667 -38 -108 -38v37c32 0 58.667 9.5 80 28.5s32 43.167 32 72.5c0 32.667 -13.5 58.834 -40.5 78.501s-62.5 29.5 -106.5 29.5c-74.667 0 -139.834 -27.667 -195.501 -83s-83.5 -125.333 -83.5 -210
c0 -36 7.66699 -70.667 23 -104c49.333 8 92.333 12 129 12c49.333 0 74 -14.333 74 -43c0 -14 -6.33301 -24.667 -19 -32s-27.667 -11 -45 -11c-32 0 -79 15 -141 45c-72.667 -26.667 -132.834 -79.667 -180.501 -159s-71.5 -167.666 -71.5 -264.999
c0 -122.667 40.833 -216.5 122.5 -281.5s195.167 -97.5 340.5 -97.5c71.333 0 139.333 8 204 24s123 39.167 175 69.5s93.333 70.333 124 120s46 105.5 46 167.5c0 82 -25 150 -75 204l-187.5 -62.5l-178.5 -59.5c-60 -20.667 -107 -45 -141 -73s-51 -62.333 -51 -103
c0 -38 14 -66.167 42 -84.5s62.333 -27.5 103 -27.5c53.333 0 98.666 13.667 135.999 41s63.666 56 78.999 86l31 -17c-20 -40 -51.333 -74.833 -94 -104.5s-96 -44.5 -160 -44.5c-32 0 -62 4.16699 -90 12.5s-54 21.166 -78 38.499s-43 41.5 -57 72.5s-21 66.833 -21 107.5
c0 164 119.667 285 359 363l156.5 50.5l209.5 68.5c64 21.333 121.333 41.666 172 60.999l72 28c18 7.33301 39.667 17.833 65 31.5s45 27.334 59 41.001s26.167 30.834 36.5 51.501s15.5 43 15.5 67c0 50.667 -19.333 91.667 -58 123s-87 47 -145 47
c-25.333 0 -45 -4 -59 -12c60 -25.333 90 -65.666 90 -120.999c0 -43.333 -18.833 -78.833 -56.5 -106.5s-80.167 -41.5 -127.5 -41.5c-43.333 0 -78.833 12 -106.5 36s-41.5 55 -41.5 93c0 70.667 42.333 122.667 127 156c45.333 19.333 100.666 29 165.999 29
c85.333 0 153.166 -21.667 203.499 -65s75.5 -112.666 75.5 -207.999c0 -103.333 -31.5 -186.833 -94.5 -250.5s-161.167 -119.5 -294.5 -167.5c-31.333 -12 -73.333 -27 -126 -45c58 -64 87 -141.667 87 -233c0 -52.667 -9.66699 -104.5 -29 -155.5
s-49.166 -99.667 -89.499 -146s-89.166 -87 -146.499 -122s-127 -63 -209 -84s-171.333 -31.5 -268 -31.5c-124.667 0 -234.5 16.667 -329.5 50s-170.333 84.166 -226 152.499s-83.5 150.5 -83.5 246.5z" />
    <glyph glyph-name="quotesingle" unicode="'" horiz-adv-x="467" 
d="M296 1300c0 14 0.334961 24.332 1.00195 30.999c3.33301 46.667 20 85.667 50 117s67.333 47 112 47c31.333 0 56.166 -8.66699 74.499 -26s28.166 -40.666 29.499 -69.999c0 -35.333 -11.167 -73.5 -33.5 -114.5s-52.5 -88.833 -90.5 -143.5s-67 -102 -87 -142h-28
c-1.33301 55.333 -6.33301 113.833 -15 175.5s-13 103.5 -13 125.5z" />
    <glyph glyph-name="parenleft" unicode="(" horiz-adv-x="811" 
d="M73 457c0 89.333 15.667 179.83 47 271.497s75.666 179.834 132.999 264.501s125.833 166.834 205.5 246.501s168 154 265 223s200.5 131.833 310.5 188.5l20 -27c-110 -79.333 -206.167 -160.5 -288.5 -243.5s-155.166 -174.667 -218.499 -275
s-111.333 -210.333 -144 -330s-49 -247.834 -49 -384.501c0 -139.333 14.333 -268 43 -386s73 -235 133 -351l-37 -27c-68 63.333 -126 123.333 -174 180s-91.333 118.834 -130 186.501s-67.667 139.834 -87 216.501s-29 159 -29 247z" />
    <glyph glyph-name="parenright" unicode=")" horiz-adv-x="813" 
d="M-223 -346c110 79.333 206.167 160.503 288.5 243.503s155.166 174.667 218.499 275s111.333 210.333 144 330s49 247.834 49 384.501c0 139.333 -14.333 268 -43 386s-73 235 -133 351l37 27c68 -63.333 126 -123.333 174 -180s91.333 -118.834 130 -186.501
s67.667 -139.834 87 -216.501s29 -159 29 -247c0 -89.333 -15.667 -179.833 -47 -271.5s-75.666 -179.834 -132.999 -264.501s-125.833 -166.834 -205.5 -246.501s-168 -154 -265 -223s-200.5 -131.833 -310.5 -188.5z" />
    <glyph glyph-name="asterisk" unicode="*" horiz-adv-x="991" 
d="M183 874c0 45.333 28.3389 82.3369 85.0059 111.004c22.667 11.333 48.167 20.5 76.5 27.5s70.5 15 126.5 24s100 16.5 132 22.5c-28.667 6.66699 -68.667 14.5 -120 23.5s-90.166 17.167 -116.499 24.5s-47.5 16.666 -63.5 27.999c-28 18.667 -42 42 -42 70
c0 24 10 47.667 30 71c26.667 34 57 51 91 51c20 0 40 -6.66699 60 -20c17.333 -11.333 33.333 -26.833 48 -46.5s34.667 -50.5 60 -92.5s45.666 -74.667 60.999 -98c-2.66699 26 -6.66699 57.333 -12 94s-9.5 67.5 -12.5 92.5s-4.5 47.167 -4.5 66.5c0 21.333 2 41 6 59
c9.33301 38 25.833 66 49.5 84s49.5 27 77.5 27c22 0 40.167 -5.83301 54.5 -17.5s21.5 -29.834 21.5 -54.501c0 -13.333 -1.66699 -26.333 -5 -39c-4.66699 -22.667 -13.834 -47.5 -27.501 -74.5s-34.834 -64.167 -63.501 -111.5s-51.667 -87.333 -69 -120l81.5 74.5
l74.5 69.5c17.333 16 37 32.667 59 50s41.333 30.333 58 39c24.667 12.667 47.667 19 69 19c35.333 0 58.666 -16.667 69.999 -50c4 -10 6 -20.667 6 -32c0 -44.667 -28.667 -81 -86 -109c-22.667 -11.333 -47.667 -20.5 -75 -27.5s-68.333 -15 -123 -24
s-98.334 -16.833 -131.001 -23.5c26.667 -6 65.5 -13.5 116.5 -22.5s89.333 -17.167 115 -24.5s46.834 -16.666 63.501 -27.999c29.333 -18.667 44 -42 44 -70c0 -24 -10.667 -47.667 -32 -71c-26.667 -34 -57 -51 -91 -51c-20 0 -39.667 6.66699 -59 20
c-16.667 11.333 -32.167 26.166 -46.5 44.499s-33.833 47.666 -58.5 87.999l-58 92.5c2 -19.333 6.33301 -58.333 13 -117s10 -100.334 10 -125.001s-1.66699 -44.334 -5 -59.001c-9.33301 -38 -25.833 -65.833 -49.5 -83.5s-49.5 -26.5 -77.5 -26.5
c-22.667 0 -41.334 6 -56.001 18s-22 31 -22 57c0 12 1.33301 23.667 4 35c4.66699 18 12.667 39 24 63s22.5 45.333 33.5 64l52.5 87.5l58 97.5c-28.667 -24.667 -64.334 -57 -107.001 -97s-76.667 -70.667 -102 -92s-48.333 -37.666 -69 -48.999
c-25.333 -12.667 -49 -19 -71 -19c-34.667 0 -58.334 16.667 -71.001 50c-3.33301 10 -5 20 -5 30z" />
    <glyph glyph-name="plus" unicode="+" horiz-adv-x="1178" 
d="M100 696l19 62h477l137 483h74l-137 -483h475l-19 -62h-475l-137 -481h-74l138 481h-478z" />
    <glyph glyph-name="comma" unicode="," horiz-adv-x="588" 
d="M-6 82c0 56 21 104.167 63 144.5s92 60.5 150 60.5c44 0 77.5 -12.5 100.5 -37.5s34.5 -61.833 34.5 -110.5c0 -86 -27.167 -166.5 -81.5 -241.5s-128.833 -133.833 -223.5 -176.5l-10 33c62 31.333 113.333 71.333 154 120s63 101 67 157c-38 -40 -80.333 -60 -127 -60
c-41.333 0 -72.833 9.5 -94.5 28.5s-32.5 46.5 -32.5 82.5z" />
    <glyph glyph-name="hyphen" unicode="-" 
d="M109 457l45 170h739l-45 -170h-739z" />
    <glyph glyph-name="period" unicode="." horiz-adv-x="571" 
d="M-2 95c0 54.667 19.333 100.333 58 137s85.667 55 141 55c42.667 0 76.167 -10.833 100.5 -32.5s36.5 -51.5 36.5 -89.5c0 -51.333 -19.333 -96.5 -58 -135.5s-85.667 -58.5 -141 -58.5c-43.333 0 -77 11 -101 33s-36 52.333 -36 91z" />
    <glyph glyph-name="slash" unicode="/" horiz-adv-x="944" 
d="M-90 -29l1122 1508h68l-1123 -1508h-67z" />
    <glyph glyph-name="zero" unicode="0" horiz-adv-x="1272" 
d="M49 346c0 90.667 19.834 181.002 59.501 271.002s92.167 169.5 157.5 238.5s143.333 124.833 234 167.5s184 64 280 64c126.667 0 225.667 -33 297 -99s107 -157 107 -273c0 -72.667 -12.333 -145.5 -37 -218.5s-59.834 -140.667 -105.501 -203
s-98.167 -117.833 -157.5 -166.5s-126 -86.834 -200 -114.501s-149.667 -41.5 -227 -41.5c-126 0 -225.5 33.167 -298.5 99.5s-109.5 158.166 -109.5 275.499zM348.001 305.002c0 -102 12.834 -177 38.501 -225s59.834 -72 102.501 -72c57.333 0 111.333 22.833 162 68.5
s92.667 104.667 126 177s59.666 153 78.999 242s29 177.167 29 264.5c0 100 -12.5 173.5 -37.5 220.5s-58.167 70.5 -99.5 70.5c-74 0 -142.333 -37.5 -205 -112.5s-110.834 -169.333 -144.501 -283s-50.5 -230.5 -50.5 -350.5z" />
    <glyph glyph-name="one" unicode="1" horiz-adv-x="760" 
d="M92 778l6 43c92.667 23.333 178.5 51.333 257.5 84s139 61 180 85s88.5 54.333 142.5 91h41l-322 -1081h-288l256 864c-68 -27.333 -159 -56 -273 -86z" />
    <glyph glyph-name="two" unicode="2" horiz-adv-x="1096" 
d="M-51 0l9.99902 43.0049c18.667 15.333 55.667 43.333 111 84l155 115c48 36 102 81.167 162 135.5s111.167 106 153.5 155s78.166 103.167 107.499 162.5s44 115.666 44 168.999c0 54 -13.667 95.167 -41 123.5s-65.333 42.5 -114 42.5
c-53.333 0 -107.5 -15.333 -162.5 -46s-100.5 -70.834 -136.5 -120.501s-54 -99.834 -54 -150.501c0 -34 9.33301 -59 28 -75s49 -24 91 -24c36 0 67.833 6.66699 95.5 20s58.834 34.666 93.501 63.999l24 -28c-69.333 -66 -145 -99 -227 -99c-26 0 -49.667 3.33301 -71 10
s-40.5 21 -57.5 43s-25.5 51 -25.5 87c0 44.667 13 89.5 39 134.5s61.167 85.333 105.5 121s99.166 64.667 164.499 87s134.333 33.5 207 33.5c102 0 182.5 -19.167 241.5 -57.5s88.5 -90.833 88.5 -157.5c0 -40.667 -12.667 -82.334 -38 -125.001s-57 -81.167 -95 -115.5
s-83.167 -70 -135.5 -107s-101.833 -69.167 -148.5 -96.5l-146.5 -88c-51 -31.333 -89.833 -56.666 -116.5 -75.999c30.667 0 89.834 -9.5 177.501 -28.5s154.167 -28.5 199.5 -28.5c53.333 0 95.666 8.33301 126.999 25s47 41 47 73c0 41.333 -24.667 75 -74 101l23 26
c38.667 -20.667 67 -44.834 85 -72.501s27 -61.5 27 -101.5c0 -34 -6.16699 -66.5 -18.5 -97.5s-30.666 -59.667 -54.999 -86s-57.5 -47.333 -99.5 -63s-90 -23.5 -144 -23.5c-45.333 0 -113.666 10.333 -204.999 31s-166 31 -224 31c-40.667 0 -76.5 -3.83301 -107.5 -11.5
s-67.833 -20.5 -110.5 -38.5z" />
    <glyph glyph-name="three" unicode="3" horiz-adv-x="1059" 
d="M-178 -309l10.0059 37.002c66.667 4 134 14.5 202 31.5s135.167 41.333 201.5 73s125.166 68.834 176.499 111.501s92.833 94.167 124.5 154.5s47.5 125.166 47.5 194.499c0 54.667 -11 98.667 -33 132s-52.667 51.333 -92 54c-58 -23.333 -97.667 -35 -119 -35
c-24.667 0 -37 7 -37 21c0 1.33301 0.666992 4.66602 2 9.99902c5.33301 25.333 38 38 98 38c16.667 0 29.667 -0.333008 39 -1c74.667 31.333 135.667 75.166 183 131.499s71 120.5 71 192.5c0 57.333 -16.667 102.333 -50 135s-80 49 -140 49
c-74.667 0 -144.5 -25.667 -209.5 -77s-97.5 -107 -97.5 -167c0 -33.333 9.16699 -58 27.5 -74s48.5 -24 90.5 -24c47.333 0 89.666 10.333 126.999 31l23 -31c-52.667 -28.667 -107.334 -43 -164.001 -43c-18.667 0 -36.167 2 -52.5 6s-32.5 10.667 -48.5 20
s-28.667 23.666 -38 42.999s-14 42.666 -14 69.999c0 50 21 99.167 63 147.5s101 88.5 177 120.5s157.667 48 245 48c102.667 0 184 -18.333 244 -55s90 -86.667 90 -150c0 -46 -14.667 -90 -44 -132s-68 -78.333 -116 -109s-98.5 -57 -151.5 -79
s-106.833 -39.667 -161.5 -53c117.333 -2 211.5 -23.667 282.5 -65s106.5 -103.666 106.5 -186.999c0 -67.333 -23.333 -131.666 -70 -192.999s-107.834 -114 -183.501 -158s-160.334 -82.667 -254.001 -116s-188.334 -58.333 -284.001 -75s-186.167 -25.667 -271.5 -27z
" />
    <glyph glyph-name="four" unicode="4" horiz-adv-x="1096" 
d="M-119 94l13 43l983 950h53l-248 -921h266l-20 -72h-266l-103 -383h-289l103 383h-492zM-19 166h412l146 540z" />
    <glyph glyph-name="five" unicode="5" horiz-adv-x="967" 
d="M-180 -303l10.002 37c58.667 0 119.167 7.66699 181.5 23s122.833 38.833 181.5 70.5s111.167 69 157.5 112s83.5 94.667 111.5 155s42 124.5 42 192.5c0 124 -64.333 186 -193 186c-62.667 0 -129.334 -18.333 -200.001 -55l-21 10l283 633c38.667 2 91 -6 157 -24
s121.333 -27 166 -27c88 0 151 30.667 189 92l24 -15c-34.667 -90 -77.834 -160.167 -129.501 -210.5s-110.167 -75.5 -175.5 -75.5c-28 0 -71.333 12 -130 36s-100.334 36 -125.001 36c-7.33301 0 -13 -0.333008 -17 -1l-191 -409c88 48 194 72 318 72
c118 0 205.833 -21.5 263.5 -64.5s86.5 -102.833 86.5 -179.5c0 -61.333 -15.5 -120 -46.5 -176s-72.833 -104.833 -125.5 -146.5s-112.5 -79.667 -179.5 -114s-137.667 -62.5 -212 -84.5s-147.666 -39.167 -219.999 -51.5s-140.833 -19.5 -205.5 -21.5z" />
    <glyph glyph-name="six" unicode="6" horiz-adv-x="1161" 
d="M57 348c0 83.333 12.6689 166.167 38.002 248.5s59.666 158.166 102.999 227.499s93.833 136 151.5 200s119.167 121.167 184.5 171.5s132 95.166 200 134.499s134.667 71.5 200 96.5s126.666 42.5 183.999 52.5l12 -41c-73.333 -20 -146.5 -53.167 -219.5 -99.5
s-143 -106 -210 -179s-126.167 -154.333 -177.5 -244s-92.333 -192 -123 -307s-46 -233.833 -46 -356.5c0 -90.667 8.66699 -153.334 26 -188.001s44.333 -52 81 -52c44 0 86 20.833 126 62.5s73 93.667 99 156s46.833 128.333 62.5 198s23.5 133.834 23.5 192.501
c0 120 -34 180 -102 180c-34.667 0 -68.834 -17.167 -102.501 -51.5s-61.834 -87.5 -84.501 -159.5l-32 10c56 198 167 297 333 297c86.667 0 156.834 -26.833 210.501 -80.5s80.5 -129.834 80.5 -228.501c0 -79.333 -17.833 -156.666 -53.5 -231.999
s-83.167 -141.166 -142.5 -197.499s-130.166 -101.666 -212.499 -135.999s-167.833 -51.5 -256.5 -51.5c-235.333 0 -353 125.667 -353 377z" />
    <glyph glyph-name="seven" unicode="7" horiz-adv-x="1030" 
d="M86 784c0 36 6.16406 70.3311 18.4971 102.998s30.833 62.834 55.5 90.501s58.334 49.834 101.001 66.501s91.667 25 147 25c51.333 0 105.166 -7.83301 161.499 -23.5l172.5 -47c58.667 -15.667 116 -23.5 172 -23.5c40 0 75 5.66699 105 17s57 33 81 65h55
l-114.5 -132.5l-110 -127l-95.5 -115.5c-40 -49.333 -70.667 -89.833 -92 -121.5l-77 -119.5c-30 -48 -54.333 -92.667 -73 -134s-37.667 -88.5 -57 -141.5s-36.333 -108.167 -51 -165.5c-10 -42 -18 -78.333 -24 -109s-9.33301 -48.334 -10 -53.001
c-9.33301 -41.333 -29.666 -75.166 -60.999 -101.499s-72 -39.5 -122 -39.5c-81.333 0 -122 38 -122 114c0 21.333 3.33301 46 10 74c16 68.667 48.333 142.834 97 222.501s108.834 160 180.501 241s140.334 155 206.001 222l221.5 219.5c82 79.333 141.667 139 179 179
c-103.333 -68.667 -182.5 -116.334 -237.5 -143.001s-112.833 -40 -173.5 -40c-50 0 -107 10.667 -171 32s-113.667 32 -149 32c-44.667 0 -80.667 -10 -108 -30s-41 -50.333 -41 -91c0 -99.333 82.667 -168.333 248 -207l-11 -33c-207.333 42 -311 140.333 -311 295z" />
    <glyph glyph-name="eight" unicode="8" horiz-adv-x="1178" 
d="M-6 240c0 43.333 9.99902 86 29.999 128s46.333 80.333 79 115s71.834 68.167 117.501 100.5s92.334 60.833 140.001 85.5s98.167 47.667 151.5 69c-32 30 -57 54.833 -75 74.5s-37.833 44.334 -59.5 74.001s-37.5 60.5 -47.5 92.5s-15 66 -15 102
c0 77.333 25.833 146.833 77.5 208.5s118.5 108.667 200.5 141s169.667 48.5 263 48.5c100.667 0 182.5 -18.667 245.5 -56s94.5 -91.666 94.5 -162.999c0 -148.667 -144.667 -291.334 -434 -428.001l36.5 -32.5l38 -34.5l34.5 -33.5c17.333 -17 29 -29.333 35 -37
s16 -19.667 30 -36s23.667 -29.833 29 -40.5l21.5 -41c9 -16.667 15.333 -32.167 19 -46.5s7 -30.5 10 -48.5s4.5 -36 4.5 -54c0 -86.667 -29 -165.334 -87 -236.001s-134.333 -125.167 -229 -163.5s-197 -57.5 -307 -57.5c-76.667 0 -144.334 9 -203.001 27
s-106.667 47.667 -144 89s-56 92.333 -56 153zM284.999 211c0 -64.667 11.666 -114.667 34.999 -150s62.666 -53 117.999 -53c78.667 0 148.834 33.667 210.501 101s92.5 148.333 92.5 243c0 39.333 -5.33301 76 -16 110s-27.5 67 -50.5 99s-43.833 58.167 -62.5 78.5
s-44.667 46.5 -78 78.5c-73.333 -55.333 -133.166 -128.5 -179.499 -219.5s-69.5 -186.833 -69.5 -287.5zM574.998 1151c0 -58 14.167 -109.833 42.5 -155.5s68.833 -93.167 121.5 -142.5c52.667 50.667 96 113.667 130 189s51 152.666 51 231.999
c0 112 -38.333 168 -115 168c-60 0 -113.333 -29.167 -160 -87.5s-70 -126.166 -70 -203.499z" />
    <glyph glyph-name="nine" unicode="9" horiz-adv-x="1135" 
d="M4 -344c59.333 16 118.835 41.3291 178.502 75.9961s117.667 77.334 174 128.001s108.833 110.167 157.5 178.5s91.334 141.5 128.001 219.5s65.5 164.333 86.5 259s31.5 191.334 31.5 290.001c0 90.667 -8.83301 153.334 -26.5 188.001s-44.5 52 -80.5 52
c-44 0 -86.167 -20.833 -126.5 -62.5s-73.5 -93.667 -99.5 -156s-46.667 -128.333 -62 -198s-23 -133.834 -23 -192.501c0 -120 33.333 -180 100 -180c35.333 0 69.666 17 102.999 51s61.333 87.333 84 160l35 -10c-56.667 -198 -168.667 -297 -336 -297
c-86 0 -155.667 26.833 -209 80.5s-80 129.834 -80 228.501c0 106 30 206.333 90 301s141.5 170.834 244.5 228.501s213.5 86.5 331.5 86.5c234.667 0 352 -125.333 352 -376c0 -80.667 -12.333 -160.834 -37 -240.501s-58.334 -153.167 -101.001 -220.5
s-92.334 -132.166 -149.001 -194.499s-117 -117.833 -181 -166.5s-129.333 -92.167 -196 -130.5s-132.167 -69.5 -196.5 -93.5s-124.5 -40.667 -180.5 -50z" />
    <glyph glyph-name="colon" unicode=":" horiz-adv-x="637" 
d="M28 95c0 54.667 19.333 100.333 58 137s85.667 55 141 55c42.667 0 76.167 -10.833 100.5 -32.5s36.5 -51.5 36.5 -89.5c0 -51.333 -19.333 -96.5 -58 -135.5s-85.667 -58.5 -141 -58.5c-43.333 0 -77 11 -101 33s-36 52.333 -36 91zM233 894.999
c0 54.667 19.333 100.333 58 137s85.667 55 141 55c42.667 0 76.167 -10.833 100.5 -32.5s36.5 -51.5 36.5 -89.5c0 -51.333 -19.333 -96.5 -58 -135.5s-85.667 -58.5 -141 -58.5c-43.333 0 -77 11 -101 33s-36 52.333 -36 91z" />
    <glyph glyph-name="semicolon" unicode=";" horiz-adv-x="651" 
d="M19 82c0 56 21 104.167 63 144.5s92 60.5 150 60.5c44 0 77.5 -12.5 100.5 -37.5s34.5 -61.833 34.5 -110.5c0 -86 -27.167 -166.5 -81.5 -241.5s-128.833 -133.833 -223.5 -176.5l-10 33c62 31.333 113.333 71.333 154 120s63 101 67 157c-38 -40 -80.333 -60 -127 -60
c-41.333 0 -72.833 9.5 -94.5 28.5s-32.5 46.5 -32.5 82.5zM243 895c0 54.667 19.333 100.333 58 137s85.667 55 141 55c42.667 0 76.167 -10.833 100.5 -32.5s36.5 -51.5 36.5 -89.5c0 -51.333 -19.333 -96.5 -58 -135.5s-85.667 -58.5 -141 -58.5
c-43.333 0 -77 11 -101 33s-36 52.333 -36 91z" />
    <glyph glyph-name="less" unicode="&#x3c;" horiz-adv-x="1217" 
d="M98 727l1131 465l20 -59l-997 -414l678 -357l-33 -65z" />
    <glyph glyph-name="equal" unicode="=" horiz-adv-x="1331" 
d="M129 553l18 61h1027l-19 -61h-1026zM211 840l18 61h1026l-18 -61h-1026z" />
    <glyph glyph-name="greater" unicode="&#x3e;" horiz-adv-x="1219" 
d="M98 377l942 393l-757 406l32 59l879 -473l-1075 -445z" />
    <glyph glyph-name="question" unicode="?" horiz-adv-x="995" 
d="M162 612c0 30 5.49707 59.1611 16.4971 87.4941s24.167 53.666 39.5 75.999s37.833 47.5 67.5 75.5s56.167 51.5 79.5 70.5l96 75.5l35 27l76.5 62l62.5 52c26.667 22.667 45.167 39.667 55.5 51l39 45c15.667 18.667 26.334 34.834 32.001 48.501
s10.834 29.167 15.501 46.5s7 35 7 53c0 53.333 -14.333 95.666 -43 126.999s-71 47 -127 47c-30.667 0 -63.167 -5 -97.5 -15s-60.5 -25.333 -78.5 -46c36.667 0 69.834 -12.833 99.501 -38.5s44.5 -57.167 44.5 -94.5c-1.33301 -40 -17 -74.167 -47 -102.5
s-67 -42.5 -111 -42.5c-40.667 0 -75 12.5 -103 37.5s-42 58.833 -42 101.5s13.167 80.334 39.5 113.001s60.833 58.334 103.5 77.001s87.834 32.667 135.501 42s95.834 14 144.501 14c72 0 137 -9.16699 195 -27.5s105.333 -47 142 -86s55 -85.833 55 -140.5
c0 -60 -27.5 -121.833 -82.5 -185.5s-149.167 -145.167 -282.5 -244.5l-113 -84c-26 -19.333 -53.833 -41.166 -83.5 -65.499s-51 -43.666 -64 -57.999s-25.833 -30.666 -38.5 -48.999s-21 -35.5 -25 -51.5s-6 -33.667 -6 -53c0 -39.333 11.833 -71.333 35.5 -96
s58.5 -37 104.5 -37c67.333 0 119.666 17.667 156.999 53c-26.667 8.66699 -49.667 24.334 -69 47.001s-29 50 -29 82c0 37.333 13.167 68.833 39.5 94.5s60.166 38.5 101.499 38.5c33.333 0 61.5 -10.667 84.5 -32s34.5 -49.333 34.5 -84c0 -40.667 -12.5 -77 -37.5 -109
s-57 -57.167 -96 -75.5s-80 -32.166 -123 -41.499s-85.167 -14 -126.5 -14c-92.667 0 -168 19.5 -226 58.5s-87 95.833 -87 170.5zM226.997 94.9941c0 54.667 19.333 100.333 58 137s85.667 55 141 55c42.667 0 76.167 -10.833 100.5 -32.5s36.5 -51.5 36.5 -89.5
c0 -51.333 -19.333 -96.5 -58 -135.5s-85.667 -58.5 -141 -58.5c-43.333 0 -77 11 -101 33s-36 52.333 -36 91z" />
    <glyph glyph-name="at" unicode="@" horiz-adv-x="1767" 
d="M57 319c0 81.333 10.4961 162.667 31.4961 244s51 159 90 233s88.167 142.833 147.5 206.5s125.166 119 197.499 166s154.333 83.833 246 110.5s187.5 40 287.5 40c130 0 243 -19.667 339 -59s172 -101.5 228 -186.5s84 -189.5 84 -313.5
c0 -87.333 -13.833 -170 -41.5 -248s-63.667 -144.333 -108 -199s-94 -102 -149 -142s-110.333 -69.667 -166 -89s-108.5 -29 -158.5 -29c-107.333 0 -161 47.333 -161 142c0 20.667 2 41.667 6 63c-71.333 -136.667 -167.666 -205 -288.999 -205
c-72 0 -128.833 21 -170.5 63s-62.5 104.333 -62.5 187c0 71.333 15.167 146.833 45.5 226.5s69.833 152.667 118.5 219s107 121.333 175 165s136.333 65.5 205 65.5c48.667 0 84.5 -11.667 107.5 -35s35.5 -58 37.5 -104l33 110c108.667 0 195 9.66699 259 29l-218 -739
c-8 -30 -12 -54 -12 -72c0 -32.667 15.667 -49 47 -49c19.333 0 43.5 6 72.5 18s61 29.167 96 51.5s69.667 52.166 104 89.499s65.5 78.5 93.5 123.5s50.833 98.833 68.5 161.5s26.5 128.334 26.5 197.001c0 89.333 -15.333 167.833 -46 235.5s-73.667 122.167 -129 163.5
s-119.5 72.166 -192.5 92.499s-153.833 30.5 -242.5 30.5c-112 0 -218.667 -17.833 -320 -53.5s-190.333 -84.5 -267 -146.5s-143.167 -133.5 -199.5 -214.5s-99.166 -168 -128.499 -261s-44 -187.167 -44 -282.5c0 -83.333 12 -158.666 36 -225.999
s56.5 -123.5 97.5 -168.5s90.167 -82.667 147.5 -113s118.333 -52.333 183 -66s133.334 -20.5 206.001 -20.5c185.333 0 349.333 41.667 492 125l12 -27c-61.333 -40.667 -135.166 -73 -221.499 -97s-179.833 -36 -280.5 -36c-77.333 0 -150.166 7 -218.499 21
s-133 36.833 -194 68.5s-113.5 71.167 -157.5 118.5s-78.833 106.5 -104.5 177.5s-38.5 150.5 -38.5 238.5zM669.996 305.001c0 -52.667 6.66797 -91.333 20.001 -116s34.666 -37 63.999 -37c44 0 84.833 27 122.5 81s75.834 136.667 114.501 248l83 278v27
c0 80.667 -26.333 121 -79 121c-34 0 -70.333 -18 -109 -54s-73.834 -82 -105.501 -138s-58 -120.833 -79 -194.5s-31.5 -145.5 -31.5 -215.5z" />
    <glyph glyph-name="A" unicode="A" horiz-adv-x="1337" 
d="M-188 0l8 41.0029c34.667 9.33301 69 29.666 103 60.999s76.667 83.333 128 156l854 1202c18 -2 36 -3 54 -3c18.667 0 35.667 1 51 3l82 -1288c3.33301 -44.667 14.666 -77.334 33.999 -98.001s41.333 -31.667 66 -33l-8 -41c-70 4 -169 6 -297 6
c-139.333 0 -241.666 -2 -306.999 -6l8 41c64.667 3.33301 110.334 14.666 137.001 33.999s40 56.666 40 111.999c0 11.333 -0.333008 20 -1 26l-17 336h-443l-181 -256c-43.333 -61.333 -65 -111.666 -65 -150.999c0 -62 57 -95.667 171 -101l-10 -41
c-114.667 4 -203.334 6 -266.001 6c-50.667 0 -97.667 -2 -141 -6zM333 590.003h411l-28 543z" />
    <glyph glyph-name="B" unicode="B" horiz-adv-x="1391" 
d="M-86 0l7.99902 41.002c49.333 2 85.833 7.33301 109.5 16s43.167 24.667 58.5 48s29.666 60.666 42.999 111.999l270 1016c12 48 18 80.667 18 98c0 26.667 -10 46 -30 58s-56 18.667 -108 20l10 41c72 -4 175.667 -6 311 -6c45.333 0 99.5 0.666992 162.5 2
s108.5 2 136.5 2c153.333 0 266.833 -23.667 340.5 -71s110.5 -113.666 110.5 -198.999c0 -107.333 -50.667 -199.333 -152 -276s-234.333 -123.334 -399 -140.001c148.667 -6.66699 262.667 -39.334 342 -98.001s119 -132.667 119 -222
c0 -93.333 -29.5 -173.833 -88.5 -241.5s-138.667 -118 -239 -151s-215.833 -49.5 -346.5 -49.5c-21.333 0 -70.666 1 -147.999 3s-147.666 3 -210.999 3c-137.333 0 -243 -2 -317 -6zM441.999 124.002c0 -51.333 33 -76.999 99 -76.999c120 0 213.5 41.167 280.5 123.5
s100.5 185.166 100.5 308.499c0 78.667 -18.667 141 -56 187s-97.333 69 -180 69h-90l-137 -518c-11.333 -42.667 -17 -73.667 -17 -93zM604.999 770.003l70.999 -0.000976562c55.333 0 105.833 12.333 151.5 37s83.167 57.834 112.5 99.501s52 88.5 68 140.5
s24 106.333 24 163c0 64.667 -12 114 -36 148s-64.667 51 -122 51c-40.667 0 -70.167 -9.66699 -88.5 -29s-35.166 -58 -50.499 -116z" />
    <glyph glyph-name="C" unicode="C" horiz-adv-x="1419" 
d="M88 479c0 79.333 11.167 159.502 33.5 240.502s53.5 158.333 93.5 232s89.833 142.667 149.5 207s124.834 120.166 195.501 167.499s149.667 84.666 237 111.999s177.333 41 270 41c76.667 0 137.334 -11.5 182.001 -34.5s85.667 -55.833 123 -98.5c10 -12 20 -18 30 -18
c25.333 0 53 40.667 83 122h43c-45.333 -118 -89 -275 -131 -471h-45c10 58.667 15 112 15 160c0 64 -11.333 116.333 -34 157c-48 89.333 -128.333 134 -241 134c-66 0 -131.333 -18.5 -196 -55.5s-123.167 -87.833 -175.5 -152.5s-98.833 -138.5 -139.5 -221.5
s-72.167 -173.333 -94.5 -271s-33.5 -194.834 -33.5 -291.501c0 -135.333 24.167 -236.666 72.5 -303.999s116.166 -101 203.499 -101c52 0 106 11.833 162 35.5s104.333 56.834 145 99.501c36 37.333 67.167 79.833 93.5 127.5s56.833 113.167 91.5 196.5h45
c-64.667 -236.667 -105 -400.667 -121 -492h-45c4 29.333 6 52.666 6 69.999c0 34.667 -8.66699 52 -26 52c-10.667 0 -24.667 -6 -42 -18c-62 -42.667 -124.667 -75.5 -188 -98.5s-134.333 -34.5 -213 -34.5c-182.667 0 -319.834 43.667 -411.501 131
s-137.5 213 -137.5 377z" />
    <glyph glyph-name="D" unicode="D" horiz-adv-x="1579" 
d="M-78 0l5.99902 41c35.333 1.33301 62.833 4.16602 82.5 8.49902s37.667 13 54 26s29.333 30.167 39 51.5s19.5 51.333 29.5 90l268 1016c10.667 42.667 16 72.334 16 89.001c0 28.667 -10 49.834 -30 63.501s-54.667 21.5 -104 23.5l6 41c96.667 -4.66699 187 -7 271 -7
c7.33301 0 18.333 0.166992 33 0.5s25.334 0.5 32.001 0.5c142 4 243.667 6 305 6c200 0 353 -41.333 459 -124s159 -204.334 159 -365.001c0 -91.333 -12.833 -181.833 -38.5 -271.5s-66 -176.167 -121 -259.5s-121.333 -156.833 -199 -220.5s-172.5 -114.5 -284.5 -152.5
s-234 -57 -366 -57c-16 0 -58.833 1 -128.5 3s-130.167 3 -181.5 3c-132.667 0 -235 -2 -307 -6zM435.999 100c0 -22.667 7.66797 -38.834 23.001 -48.501s42 -14.5 80 -14.5c105.333 0 201.833 29.5 289.5 88.5s159.167 136.167 214.5 231.5s98.166 201 128.499 317
s45.5 233.333 45.5 352c0 128.667 -26.5 225.334 -79.5 290.001s-137.167 97 -252.5 97c-50 0 -83.833 -10.167 -101.5 -30.5s-36.5 -68.833 -56.5 -145.5l-268 -1024c-15.333 -58 -23 -95.667 -23 -113z" />
    <glyph glyph-name="E" unicode="E" horiz-adv-x="1282" 
d="M-88 0l9.99707 41.001c49.333 2 85.833 7.5 109.5 16.5s43 25 58 48s29.5 60.167 43.5 111.5l270 1016c11.333 43.333 17 76.333 17 99c0 29.333 -9.83301 49 -29.5 59s-55.5 16 -107.5 18l10 41c148.667 -4 370.334 -6 665.001 -6c194 0 332.667 2 416 6
c-36 -98 -62 -178.667 -78 -242c-7.33301 -30.667 -16 -73 -26 -127h-45c2 26 3 50.333 3 73c0 92 -17.167 156.5 -51.5 193.5s-93.5 55.5 -177.5 55.5h-63c-69.333 0 -116.333 -9.83301 -141 -29.5s-46.667 -66.5 -66 -140.5l-128 -483h75c36 0 69.5 7.33301 100.5 22
s57.833 34.667 80.5 60s41.834 51.166 57.501 77.499s29.5 54.833 41.5 85.5h48c-21.333 -63.333 -46.666 -152 -75.999 -266c-16.667 -60.667 -36.667 -149.334 -60 -266.001h-45c1.33301 18.667 2 33.334 2 44.001c0 134.667 -57.333 202 -172 202h-63l-131 -492
c-12.667 -45.333 -19 -78.666 -19 -99.999c0 -28 9.83301 -46.667 29.5 -56s54.834 -14 105.501 -14h76c109.333 0 195.5 26.167 258.5 78.5s124.5 147.166 184.5 284.499h47c-14.667 -36 -29.667 -85.333 -45 -148c-21.333 -72 -39.333 -159.333 -54 -262
c-92.667 4 -247.334 6 -464.001 6c-295.333 0 -517.333 -2 -666 -6z" />
    <glyph glyph-name="F" unicode="F" horiz-adv-x="1204" 
d="M-88 0l9.99902 41.001c49.333 2 85.833 7.5 109.5 16.5s43 25 58 48s29.5 60.167 43.5 111.5l270 1016c11.333 43.333 17 76.333 17 99c0 29.333 -9.83301 49 -29.5 59s-55.5 16 -107.5 18l10 41c148.667 -4 370.334 -6 665.001 -6c194 0 332.667 2 416 6
c-28.667 -78 -55.334 -161.333 -80.001 -250c-22 -86.667 -36.333 -146.667 -43 -180h-47c5.33301 50 8 92 8 126c0 94 -18.833 160.333 -56.5 199s-99.167 58 -184.5 58h-47c-64.667 0 -108.834 -10 -132.501 -30s-44.5 -66.667 -62.5 -140l-131 -492h94
c116.667 0 210.334 82 281.001 246h45c-17.333 -54.667 -42.666 -143.334 -75.999 -266.001c-16 -70 -37 -171 -63 -303h-45c0.666992 9.33301 1 23.333 1 42c0 38 -2.5 70.833 -7.5 98.5s-13.333 52.5 -25 74.5s-28.5 38.667 -50.5 50s-49.333 17 -82 17h-83l-128 -483
c-10.667 -40.667 -16 -71 -16 -91c0 -32.667 12.5 -54.5 37.5 -65.5s70.833 -17.5 137.5 -19.5l-8 -41c-84 4 -205.333 6 -364 6c-150.667 0 -262 -2 -334 -6z" />
    <glyph glyph-name="G" unicode="G" horiz-adv-x="1513" 
d="M78 440c0 77.333 10.8291 156.664 32.4961 237.997s52.167 160.333 91.5 237s88.666 149.334 147.999 218.001s124.333 128.5 195 179.5s150.667 91.5 240 121.5s181.333 45 276 45c81.333 0 146.333 -11.333 195 -34s95.667 -55.667 141 -99
c12.667 -12.667 24.334 -19 35.001 -19c26 0 53 41 81 123h46c-44.667 -116.667 -88.667 -273.667 -132 -471h-45c7.33301 55.333 11 106.666 11 153.999c0 62.667 -9.66699 112.334 -29 149.001c-26.667 51.333 -67.167 90.833 -121.5 118.5s-118.833 41.5 -193.5 41.5
c-58 0 -114 -13 -168 -39s-102.167 -61.333 -144.5 -106s-81.833 -96.5 -118.5 -155.5s-68 -121.333 -94 -187s-48.167 -133 -66.5 -202s-32 -135.667 -41 -200s-13.5 -124.166 -13.5 -179.499c0 -122.667 24.167 -213.5 72.5 -272.5s121.833 -88.5 220.5 -88.5
c58.667 0 111.334 14.333 158.001 43c22 14.667 38.833 33 50.5 55s22.834 53.667 33.501 95l47 180c12 44.667 18 80 18 106c0 34.667 -12.333 57.834 -37 69.501s-69.667 18.834 -135 21.501l11 41c78.667 -4.66699 194.667 -7 348 -7c132.667 0 229 2.33301 289 7
l-11 -41c-46.667 -3.33301 -78.5 -14.833 -95.5 -34.5s-35.5 -66.834 -55.5 -141.501l-109 -406h-41c0.666992 6 1 15 1 27c0 60 -19.333 90 -58 90c-10 0 -20.167 -1 -30.5 -3s-22.666 -6 -36.999 -12s-24.666 -10.5 -30.999 -13.5s-19.333 -9.5 -39 -19.5
s-31.167 -16 -34.5 -18c-100.667 -53.333 -199.667 -80 -297 -80c-178.667 0 -317.167 40.833 -415.5 122.5s-147.5 197.167 -147.5 346.5z" />
    <glyph glyph-name="H" unicode="H" horiz-adv-x="1659" 
d="M-84 0l10.0049 41c47.333 2 82.666 7.33301 105.999 16s42.666 24.834 57.999 48.501s29.666 60.834 42.999 111.501l270 1016c11.333 43.333 17 76.333 17 99c0 29.333 -9.83301 49 -29.5 59s-55.5 16 -107.5 18l10 41c68.667 -4 180 -6 334 -6c131.333 0 239 2 323 6
l-10 -41c-25.333 -1.33301 -46 -3 -62 -5s-31.5 -5.5 -46.5 -10.5s-26.833 -11.167 -35.5 -18.5s-17.334 -17.833 -26.001 -31.5s-16 -29 -22 -46s-12.333 -38.5 -19 -64.5l-128 -483h534l129 483c12 42 18 74.667 18 98c0 29.333 -10.167 49.166 -30.5 59.499
s-56.5 16.5 -108.5 18.5l10 41c74 -4 180.667 -6 320 -6c150 0 262.333 2 337 6l-10 -41c-25.333 -1.33301 -46 -3 -62 -5s-31.5 -5.5 -46.5 -10.5s-26.833 -11.167 -35.5 -18.5s-17.334 -17.833 -26.001 -31.5s-16 -29 -22 -46s-12.333 -38.5 -19 -64.5l-270 -1016
c-12 -46.667 -18 -80 -18 -100c0 -28.667 10 -48 30 -58s56.333 -16 109 -18l-8 -41c-74 4 -186 6 -336 6c-138.667 0 -246 -2 -322 -6l8 41c49.333 2 86 7.33301 110 16s43.5 24.667 58.5 48s29.167 60.666 42.5 111.999l131 492h-534l-131 -492
c-12 -46.667 -18 -80 -18 -100c0 -28.667 10 -48 30 -58s56.333 -16 109 -18l-9 -41c-74.667 4 -181.667 6 -321 6c-148.667 0 -260 -2 -334 -6z" />
    <glyph glyph-name="I" unicode="I" horiz-adv-x="799" 
d="M-84 0l10.0039 40.998c47.333 2 82.666 7.33301 105.999 16s42.666 24.834 57.999 48.501s29.666 60.834 42.999 111.501l270 1016c11.333 43.333 17 76.333 17 99c0 29.333 -9.83301 49 -29.5 59s-55.5 16 -107.5 18l10 41c67.333 -4 174.333 -6 321 -6
c136 0 248 2 336 6l-10 -41c-25.333 -1.33301 -46 -3 -62 -5s-31.5 -5.5 -46.5 -10.5s-26.833 -11.167 -35.5 -18.5s-17.334 -17.833 -26.001 -31.5s-16 -29 -22 -46s-12.333 -38.5 -19 -64.5l-270 -1016c-12 -46.667 -18 -80 -18 -100c0 -28.667 10 -48 30 -58
s56.333 -16 109 -18l-9 -41c-78.667 4 -189.667 6 -333 6c-142.667 0 -250 -2 -322 -6z" />
    <glyph glyph-name="J" unicode="J" horiz-adv-x="1399" 
d="M55 -231c0 44.667 15.3271 81.6699 45.9941 111.003s72.667 44 126 44c46.667 0 84.834 -10.833 114.501 -32.5s44.834 -51.834 45.501 -90.501c0 -63.333 -37.667 -111.666 -113 -144.999c12.667 -4 32 -6 58 -6s49.333 4.16699 70 12.5s39.834 24.166 57.501 47.499
s32.334 44.5 44.001 63.5s25 51.167 40 96.5s26.333 81 34 107s19.834 70.333 36.501 133l9 33l110 394c16.667 61.333 36.667 118.666 60 171.999h-279l6 41h291c25.333 52.667 54.5 102.5 87.5 149.5s66.667 89.167 101 126.5s74.666 75.166 120.999 113.499
s90.166 72.166 131.499 101.499s91 62.666 149 99.999c-43.333 -14.667 -90.166 -33.834 -140.499 -57.501l-124.5 -60c-32.667 -16.333 -71.667 -30.833 -117 -43.5s-91.333 -19 -138 -19c-38.667 0 -79 5.33301 -121 16s-78.333 22.5 -109 35.5
s-65.167 24.833 -103.5 35.5s-73.5 16 -105.5 16c-38.667 0 -69.167 -10 -91.5 -30s-33.5 -49 -33.5 -87c2 -91.333 79.333 -144 232 -158l-6 -39c-108 8.66699 -194.5 37.834 -259.5 87.501s-97.5 119.167 -97.5 208.5c0 80.667 25.167 145.334 75.5 194.001
s122.166 73 215.499 73c48.667 0 95 -7 139 -21s83.333 -31.167 118 -51.5l104.5 -61c35 -20.333 74.833 -37.5 119.5 -51.5s91.334 -21 140.001 -21c116.667 0 232 26.333 346 79c51.333 80 94 120 128 120c9.33301 0 18.333 -3.66699 27 -11s13 -15.666 13 -24.999
c0 -33.333 -50 -68.666 -150 -105.999c-80.667 -64.667 -149.167 -148.167 -205.5 -250.5s-105.5 -223.5 -147.5 -363.5h204l-6 -41h-210c-5.33301 -17.333 -12.666 -44 -21.999 -80l-127 -496c-14.667 -58 -33.167 -111.833 -55.5 -161.5s-50.666 -96.834 -84.999 -141.501
s-73.333 -82.5 -117 -113.5s-95.167 -55.667 -154.5 -74s-124 -27.5 -194 -27.5c-86.667 0 -156.167 12.333 -208.5 37s-78.5 63.667 -78.5 117z" />
    <glyph glyph-name="K" unicode="K" horiz-adv-x="1516" 
d="M-84 0l10.0039 40.998c47.333 2 82.666 7.33301 105.999 16s42.666 24.834 57.999 48.501s29.666 60.834 42.999 111.501l270 1016c11.333 43.333 17 76.333 17 99c0 29.333 -9.83301 49 -29.5 59s-55.5 16 -107.5 18l10 41c68.667 -4 180 -6 334 -6
c131.333 0 239 2 323 6l-10 -41c-25.333 -1.33301 -46 -3 -62 -5s-31.5 -5.5 -46.5 -10.5s-26.833 -11.167 -35.5 -18.5s-17.334 -17.833 -26.001 -31.5s-16 -29 -22 -46s-12.333 -38.5 -19 -64.5l-270 -1016c-12 -46.667 -18 -80 -18 -100c0 -28.667 10 -48 30 -58
s56.333 -16 109 -18l-9 -41c-74.667 4 -181.667 6 -321 6c-148.667 0 -260 -2 -334 -6zM646.004 746.998c0 0.666992 0.170898 2.00098 0.503906 4.00098s0.5 3.66699 0.5 5c4 27.333 24 41 60 41c26 0 66 -7 120 -21c49.333 6.66699 92.5 24.167 129.5 52.5
s65.5 61.5 85.5 99.5s38.667 80.833 56 128.5s31.666 93.167 42.999 136.5s26.333 86 45 128s39.667 74.667 63 98c40 40 88.667 60 146 60c60 0.666992 107.333 -16.333 142 -51c33.333 -33.333 50 -76.666 50 -129.999v-6c0 -50 -16.667 -95.5 -50 -136.5
s-78.666 -61.5 -135.999 -61.5c-38.667 0 -70.834 12 -96.501 36s-38.5 56.333 -38.5 97s13.667 80.167 41 118.5s64 67.833 110 88.5c-8 4 -19 6 -33 6c-40.667 0 -75.334 -15 -104.001 -45c-24 -26 -45.833 -64.333 -65.5 -115s-37.334 -102 -53.001 -154
s-34 -103.667 -55 -155s-50 -96 -87 -134s-81.167 -63 -132.5 -75c105.333 -12 180.166 -38.5 224.499 -79.5s66.5 -105.5 66.5 -193.5c0 -26.667 -1.33301 -52.334 -4 -77.001l-23 -215c0 -2 -0.166992 -4.5 -0.5 -7.5s-0.5 -5.16699 -0.5 -6.5
c0 -41.333 17.333 -62 52 -62c26 0 48 10 66 30s34.333 51 49 93l35 104h41l-54 -158c-24.667 -74 -61 -129 -109 -165s-103 -54 -165 -54c-77.333 0 -136.333 18.667 -177 56s-61 88.666 -61 153.999c0 9.33301 1.33301 25.333 4 48l39 287c4 34 6 62.667 6 86
c0 62 -17.333 106.333 -52 133c-56 -14.667 -97.667 -22 -125 -22c-35.333 0 -53 11.333 -53 34z" />
    <glyph glyph-name="L" unicode="L" horiz-adv-x="1239" 
d="M-88 0l10 40.998c49.333 2 85.833 7.5 109.5 16.5s43 25 58 48s29.5 60.167 43.5 111.5l270 1016c11.333 43.333 17 76.333 17 99c0 29.333 -9.83301 49 -29.5 59s-55.5 16 -107.5 18l10 41c72 -4 184.667 -6 338 -6c128.667 0 235 2 319 6l-10 -41
c-38 -1.33301 -67.167 -4.16602 -87.5 -8.49902s-39 -13.166 -56 -26.499s-30.167 -30.333 -39.5 -51s-19.333 -50.667 -30 -90l-270 -1016c-12 -46.667 -18 -80 -18 -100c0 -28 9.83301 -46.667 29.5 -56s55.167 -14 106.5 -14h82c97.333 0 183 29.667 257 89
s138 157.333 192 294h45c-16 -42.667 -32.333 -98.667 -49 -168c-20.667 -70 -39 -157.333 -55 -262c-93.333 4 -248.333 6 -465 6c-298 0 -521.333 -2 -670 -6z" />
    <glyph glyph-name="M" unicode="M" horiz-adv-x="1878" 
d="M-86 0l10 40.999c34.667 1.33301 64.5 7.33301 89.5 18s45.833 26.334 62.5 47.001s30.167 43.334 40.5 68.001s19.833 54.667 28.5 90l261 969c11.333 43.333 17 76 17 98c0 30 -10 50 -30 60s-56 16 -108 18l10 41c61.333 -4 154.666 -6 279.999 -6
c72.667 0 134.334 2 185.001 6l117 -1047l663 1041h160c132 0 242 2 330 6l-11 -41c-25.333 -1.33301 -46 -3 -62 -5s-31.5 -5.5 -46.5 -10.5s-26.833 -11.167 -35.5 -18.5s-17.334 -17.833 -26.001 -31.5s-16 -29 -22 -46s-12.333 -38.5 -19 -64.5l-270 -1016
c-11.333 -43.333 -17 -76 -17 -98c0 -29.333 10 -49.166 30 -59.499s56 -16.5 108 -18.5l-8 -41c-86 4 -195.333 6 -328 6c-148.667 0 -258 -2 -328 -6l9 41c38 1.33301 67.167 4.16602 87.5 8.49902s38.833 13.166 55.5 26.499s29.5 30.5 38.5 51.5s18.5 50.833 28.5 89.5
l297 1104l-849 -1331h-46l-165 1257l-258 -983c-11.333 -43.333 -17 -77.333 -17 -102c0 -38 12.833 -67.167 38.5 -87.5s69.5 -31.5 131.5 -33.5l-8 -41c-49.333 4 -125.666 6 -228.999 6c-83.333 0 -148.333 -2 -195 -6z" />
    <glyph glyph-name="N" unicode="N" horiz-adv-x="1690" 
d="M-164 23c0 53.333 17.665 97.6689 52.998 133.002s80 53 134 53c44 0 78.5 -11.333 103.5 -34s37.5 -52.334 37.5 -89.001c0 -44.667 -14.667 -84.167 -44 -118.5s-66.666 -58.166 -111.999 -71.499c6.66699 -6 18.334 -9 35.001 -9c70 0 127.333 37 172 111
c51.333 80 104.166 223.167 158.499 429.5s113.5 474.166 177.5 803.499v2c8.66699 41.333 13 72 13 92c0 32.667 -11 54.334 -33 65.001s-63.667 17 -125 19l10 41c43.333 -4 104 -6 182 -6c64 0 119.333 2 166 6l424 -972c114 492 216.333 803.667 307 935
c60 87.333 133.667 131 221 131c60.667 0 108.334 -16.5 143.001 -49.5s52 -74.5 52 -124.5c0 -52.667 -17.667 -96.834 -53 -132.501s-80 -53.5 -134 -53.5c-44.667 0 -79.334 11.167 -104.001 33.5s-37 52.166 -37 89.499c0 44.667 14.5 84 43.5 118s65.833 58 110.5 72
c-5.33301 5.33301 -16.333 8 -33 8c-65.333 0 -122.666 -36 -171.999 -108c-60.667 -90.667 -123.667 -249.667 -189 -477s-139.666 -537.333 -222.999 -930h-45l-508 1112c-128 -637.333 -234.333 -1012.33 -319 -1125c-30 -40 -61.833 -71.5 -95.5 -94.5
s-74.834 -34.5 -123.501 -34.5c-60.667 0 -108 16.5 -142 49.5s-51 74.833 -51 125.5z" />
    <glyph glyph-name="O" unicode="O" horiz-adv-x="1591" 
d="M86 463c0 75.333 10 152.667 30 232s48.5 156.666 85.5 231.999s83.167 146.5 138.5 213.5s116.5 125.5 183.5 175.5s142.833 89.667 227.5 119s172.334 44 263.001 44c174.667 0 311.167 -43.167 409.5 -129.5s147.5 -207.833 147.5 -364.5c0 -90 -14 -182.667 -42 -278
s-69.667 -186.666 -125 -273.999s-119.833 -165.5 -193.5 -234.5s-160 -124.167 -259 -165.5s-202.5 -62 -310.5 -62c-174.667 0 -310.834 43 -408.501 129s-146.5 207 -146.5 363zM438 436.001c0 -132 20.498 -236.333 61.498 -313s94.167 -115 159.5 -115
c70 0 139.333 29.5 208 88.5s128.334 135.333 179.001 229s91.834 201.5 123.501 323.5s47.5 243.667 47.5 365c0 132 -20.5 236.333 -61.5 313s-94.5 115 -160.5 115c-56 0 -111.833 -18.833 -167.5 -56.5s-106.5 -89.667 -152.5 -156s-87 -141.5 -123 -225.5
s-64 -175.5 -84 -274.5s-30 -196.833 -30 -293.5z" />
    <glyph glyph-name="P" unicode="P" horiz-adv-x="1317" 
d="M-86 0l8 41.001c49.333 2 85.833 7.33301 109.5 16s43.167 24.667 58.5 48s29.666 60.666 42.999 111.999l270 1016c10 43.333 15 75.333 15 96c0 27.333 -9.66699 47 -29 59s-54.666 19 -105.999 21l10 41c68.667 -4 177 -6 325 -6c32.667 0 82.167 0.666992 148.5 2
s116.833 2 151.5 2c320.667 0 481 -103 481 -309c0 -106.667 -35.167 -202.167 -105.5 -286.5s-169.833 -150.5 -298.5 -198.5s-275.667 -72 -441 -72l-97 -365c-10.667 -42.667 -16 -72.667 -16 -90c0 -28.667 10.167 -49.667 30.5 -63s55.833 -21 106.5 -23l-9 -41
c-82 4 -187 6 -315 6c-154.667 0 -268 -2 -340 -6zM565 623.001h8.00098c69.333 0 132.166 11.167 188.499 33.5s102.5 51.833 138.5 88.5s66 79.667 90 129s41.167 99.833 51.5 151.5s15.5 105.167 15.5 160.5c0 74 -15.833 129.667 -47.5 167s-82.167 56 -151.5 56
c-40 0 -66.833 -10.333 -80.5 -31s-30.5 -69 -50.5 -145z" />
    <glyph glyph-name="Q" unicode="Q" horiz-adv-x="1702" 
d="M-78 -2c0 66.667 26.9971 121.498 80.9971 164.498s122.667 64.5 206 64.5c38.667 0 77 -4.83301 115 -14.5s77.333 -25.167 118 -46.5s75.5 -41.166 104.5 -59.499s66.167 -43.166 111.5 -74.499c92 48.667 178 107.834 258 177.501s150.333 146.834 211 231.501
s108.5 177.5 143.5 278.5s52.5 203.167 52.5 306.5c0 130.667 -26.833 232.667 -80.5 306s-129.834 110 -228.501 110c-56.667 0 -110.334 -12.333 -161.001 -37s-94.834 -57.834 -132.501 -99.501s-70.334 -89.334 -98.001 -143.001s-48.5 -110.667 -62.5 -171
s-21 -120.5 -21 -180.5c0 -83.333 16.667 -146.5 50 -189.5s86.333 -64.5 159 -64.5c82.667 0 154.834 25.833 216.501 77.5s100.5 112.5 116.5 182.5c6.66699 22.667 10 48 10 76c0 2.66699 -0.166992 6.5 -0.5 11.5s-0.5 8.5 -0.5 10.5
c-14.667 -40.667 -39.167 -71.167 -73.5 -91.5s-70.166 -30.5 -107.499 -30.5c-45.333 0 -81.166 14.167 -107.499 42.5s-39.5 64.5 -39.5 108.5c0 54 18.667 99 56 135s83.333 54 138 54c57.333 0 102.5 -20.5 135.5 -61.5s49.5 -95.833 49.5 -164.5
c0 -118.667 -47.333 -216.5 -142 -293.5s-216 -115.5 -364 -115.5c-132 0 -238.333 32.5 -319 97.5s-121 153.833 -121 266.5c0 69.333 15.5 136 46.5 200s74 121 129 171s118.5 93.667 190.5 131s150.667 65.833 236 85.5s172 29.5 260 29.5
c182.667 0 330.667 -37.833 444 -113.5s170 -176.5 170 -302.5c0 -71.333 -19 -147.333 -57 -228s-89 -158.667 -153 -234s-138.167 -149.833 -222.5 -223.5s-172.666 -141.334 -264.999 -203.001s-186.166 -117.167 -281.499 -166.5c48.667 -34 89.5 -61.333 122.5 -82
s72.667 -43 119 -67s92.333 -41.667 138 -53s91.834 -17 138.501 -17c125.333 0 213.666 48.333 264.999 145c-39.333 -30 -83.333 -45 -132 -45c-46 0 -84 13.5 -114 40.5s-45 63.5 -45 109.5c0 49.333 17.5 90.333 52.5 123s79.5 49 133.5 49
c50 0 90.5 -14.833 121.5 -44.5s46.5 -72.167 46.5 -127.5c0 -50.667 -14.833 -101.5 -44.5 -152.5s-69.5 -96.5 -119.5 -136.5s-110.833 -72.5 -182.5 -97.5s-146.5 -37.5 -224.5 -37.5c-49.333 0 -97.5 5.66699 -144.5 17s-87.667 24.666 -122 39.999
s-71.166 36.833 -110.499 64.5s-70.666 51.334 -93.999 71.001s-52.666 45.834 -87.999 78.501c-106 -36 -197 -54 -273 -54c-66.667 0 -118.834 13.833 -156.501 41.5s-56.5 69.167 -56.5 124.5zM-35.0029 -16.002c0 -37.333 16.334 -66.166 49.001 -86.499
s78.667 -30.5 138 -30.5c56 0 131.667 15.667 227 47c-41.333 38 -74.5 67.167 -99.5 87.5s-55.333 39.166 -91 56.499s-69.834 26 -102.501 26c-36 0 -65.167 -9 -87.5 -27s-33.5 -42.333 -33.5 -73z" />
    <glyph glyph-name="R" unicode="R" horiz-adv-x="1456" 
d="M-86 0l8.00098 40.998c49.333 2 85.833 7.33301 109.5 16s43.167 24.667 58.5 48s29.666 60.666 42.999 111.999l268 1016c12 43.333 18 76 18 98c0 26.667 -9.83301 45.834 -29.5 57.501s-55.167 18.5 -106.5 20.5l10 41c68.667 -4 171.667 -6 309 -6
c44.667 0 100 0.666992 166 2s113 2 141 2c166.667 0 290 -23.333 370 -70s120 -118.334 120 -215.001c0 -119.333 -54 -219.666 -162 -300.999s-254 -132.666 -438 -153.999c47.333 -4.66699 87.833 -10 121.5 -16s67.5 -14.667 101.5 -26s61.333 -25.166 82 -41.499
s37.5 -37.5 50.5 -63.5s19.5 -56 19.5 -90c0 -14 -1 -29 -3 -45l-28 -211c-2 -16 -3 -30.667 -3 -44c0 -66 22 -99 66 -99c26.667 0 49.5 12 68.5 36s37.833 61 56.5 111l10 29h48l-9 -27c-26 -86 -63.667 -149.167 -113 -189.5s-116 -60.5 -200 -60.5
c-83.333 0 -146 18 -188 54s-63 84.667 -63 146c0 12.667 1 25.334 3 38.001l31 233c2.66699 21.333 4 43.666 4 66.999c0 63.333 -19.333 109.833 -58 139.5s-109 45.5 -211 47.5l-126 -479c-13.333 -46.667 -20 -80.334 -20 -101.001
c0 -25.333 10.167 -43.666 30.5 -54.999s56.5 -18 108.5 -20l-9 -41c-82 4 -188.333 6 -319 6c-152 0 -264 -2 -336 -6zM595.001 732.998l14.999 0.000976562c138 0 249 40.5 333 121.5s126 194.167 126 339.5c0 73.333 -15.5 127.5 -46.5 162.5s-78.833 52.5 -143.5 52.5
c-41.333 0 -71.666 -9.33301 -90.999 -28s-36.333 -54.334 -51 -107.001z" />
    <glyph glyph-name="S" unicode="S" horiz-adv-x="1202" 
d="M-57 -14c44 104.667 90.335 268.336 139.002 491.003h41c-12.667 -50.667 -19 -98.667 -19 -144v-18c4.66699 -97.333 35 -171.5 91 -222.5s137 -76.5 243 -76.5c176 0 264 71.667 264 215c0 46.667 -8 92.167 -24 136.5s-36.833 84.5 -62.5 120.5s-54 71.833 -85 107.5
l-93 106.5c-31 35.333 -59.333 71.166 -85 107.499s-46.5 76.833 -62.5 121.5s-24 90.667 -24 138c0 54 10.167 103.833 30.5 149.5s47.333 84.167 81 115.5s72.5 58.166 116.5 80.499s89.333 38.666 136 48.999s93.334 15.5 140.001 15.5c116.667 0 224.667 -30 324 -90
c33.333 -22 55.666 -33 66.999 -33s22 8.33301 32 25s22 44.334 36 83.001h41c-52 -126.667 -92.333 -265.667 -121 -417h-41c8 38 12 76 12 114c0 82 -25.333 147.333 -76 196s-123 73 -217 73c-73.333 0 -132.833 -18.333 -178.5 -55s-68.5 -93 -68.5 -169
c0 -39.333 8.83301 -79.166 26.5 -119.499s40.667 -78.333 69 -114s59.5 -71.667 93.5 -108l102.5 -110.5c34.333 -37.333 65.666 -75 93.999 -113s51.333 -79.5 69 -124.5s26.5 -90.167 26.5 -135.5c0 -56 -12.167 -107.5 -36.5 -154.5s-55.833 -85.833 -94.5 -116.5
s-83.167 -56.834 -133.5 -78.501s-100.833 -37.167 -151.5 -46.5s-100.334 -14 -149.001 -14c-61.333 0 -115 4.66699 -161 14s-81.167 19.666 -105.5 30.999s-53.833 28 -88.5 50c-30 20 -53.667 30 -71 30s-31.5 -7.33301 -42.5 -22s-25.5 -44 -43.5 -88h-41z" />
    <glyph glyph-name="T" unicode="T" horiz-adv-x="1395" 
d="M176 1198c0 38 10.5 75 31.5 111s54.833 65.333 101.5 88c67.333 32.667 159 49 275 49c86.667 0 209 -7.5 367 -22.5s271.667 -22.5 341 -22.5c91.333 0 163.666 9 216.999 27c-47.333 46 -71 99.667 -71 161c0 50 14.667 90.5 44 121.5s68.333 46.5 117 46.5
s87.167 -14 115.5 -42s42.5 -61.667 42.5 -101c0 -84 -47 -149 -141 -195c-82.667 -39.333 -196.667 -59 -342 -59c-24 0 -64 1.33301 -120 4l-300 -1126c-10 -38 -15 -69.333 -15 -94c0 -36 12.5 -61.333 37.5 -76s68.833 -23.667 131.5 -27l-9 -41c-86 4 -212 6 -378 6
c-162.667 0 -283 -2 -361 -6l8 41c84.667 2.66699 144 17.167 178 43.5s61.333 77.5 82 153.5l309 1156c-107.333 10 -189 15 -245 15c-113.333 0 -190.666 -11.667 -231.999 -35c36 -10 65.5 -30 88.5 -60s34.5 -65.333 34.5 -106c0 -48 -15 -88.667 -45 -122
s-68 -50 -114 -50s-82.167 15.5 -108.5 46.5s-39.5 69.5 -39.5 115.5z" />
    <glyph glyph-name="U" unicode="U" horiz-adv-x="1421" 
d="M154 324c0 68 15.002 156.671 45.002 266.004l170 643c11.333 43.333 17 76 17 98c0 29.333 -10 49.166 -30 59.499s-56 16.5 -108 18.5l12 41c70 -4 182.667 -6 338 -6c127.333 0 233 2 317 6l-12 -41c-25.333 -1.33301 -46 -3 -62 -5s-31.5 -5.5 -46.5 -10.5
s-26.833 -11.167 -35.5 -18.5s-17.334 -17.833 -26.001 -31.5s-16 -29 -22 -46s-12.333 -38.5 -19 -64.5l-180 -678c-32.667 -122.667 -49 -222 -49 -298c0 -72 14.833 -125.667 44.5 -161s76.167 -53 139.5 -53c74 0 140.333 13 199 39s108.834 63.667 150.501 113
s76.667 104.5 105 165.5s53.166 131.833 74.499 212.5l141 541c21.333 81.333 32 139.666 32 174.999c0 39.333 -11.667 67.666 -35 84.999s-63.333 29 -120 35l10 41c51.333 -4 124.333 -6 219 -6c75.333 0 135.666 2 180.999 6l-11 -41
c-66.667 -8.66699 -114.334 -30.667 -143.001 -66s-56 -103.333 -82 -204l-139 -543c-48.667 -188.667 -115.667 -333.334 -201 -434.001c-50 -58.667 -111.667 -105.167 -185 -139.5s-151.666 -51.5 -234.999 -51.5c-198 0 -331 54 -399 162
c-36.667 51.333 -55 115 -55 191z" />
    <glyph glyph-name="V" unicode="V" horiz-adv-x="1354" 
d="M188 1409l11.001 41c69.333 -4 167.666 -6 294.999 -6c136.667 0 241 2 313 6l-10 -41c-62 -2.66699 -105.333 -11.834 -130 -27.501s-37 -47.5 -37 -95.5c0 -14.667 1 -31 3 -49l102 -908l539 828c41.333 62.667 62 113.334 62 152.001c0 61.333 -57 94.666 -171 99.999
l11 41c53.333 -4 142.666 -6 267.999 -6c58.667 0 109.667 2 153 6l-10 -41c-44.667 -12.667 -85 -34.167 -121 -64.5s-77 -81.166 -123 -152.499l-782 -1202c-11.333 0.666992 -28.666 1 -51.999 1c-22.667 0 -40 -0.333008 -52 -1l-162 1288
c-5.33301 44 -18.5 76.5 -39.5 97.5s-43.5 32.167 -67.5 33.5z" />
    <glyph glyph-name="W" unicode="W" horiz-adv-x="2011" 
d="M176 1409l9.99902 41.001c68 -4 163.667 -6 287 -6c116.667 0 205.334 2 266.001 6l-10 -41c-39.333 -2.66699 -67.333 -12.167 -84 -28.5s-25 -46.833 -25 -91.5c0 -15.333 1 -32.666 3 -51.999l99 -888l374 616l-43 313c-6 45.333 -17.333 78.166 -34 98.499
s-34.667 31.166 -54 32.499l10 41c63.333 -4 152 -6 266 -6c141.333 0 248 2 320 6l-11 -41c-60.667 -2.66699 -103 -11.667 -127 -27s-36 -45.333 -36 -90c0 -18 1.33301 -36.333 4 -55l108 -857l422 777c34 64 51 114.333 51 151c0 34.667 -14.167 59.5 -42.5 74.5
s-71.5 23.833 -129.5 26.5l10 41c56 -4 145.667 -6 269 -6c60.667 0 112.334 2 155 6l-10 -41c-48 -13.333 -90.167 -34.5 -126.5 -63.5s-74.833 -80.167 -115.5 -153.5l-645 -1202h-106l-126 913l-552 -913h-107l-161 1288c-6 46 -19.333 79 -40 99s-43.667 30.667 -69 32z
" />
    <glyph glyph-name="X" unicode="X" horiz-adv-x="1518" 
d="M-82 157c0 56.667 16.9971 104 50.9971 142s77.667 57 131 57c41.333 0 73.5 -12 96.5 -36s34.5 -56 34.5 -96c0 -46 -14 -87.833 -42 -125.5s-65 -64.5 -111 -80.5c5.33301 -5.33301 17 -8 35 -8c42 0 87 15.667 135 47c59.333 40.667 126 107.667 200 201
s144.333 205.333 211 336l-73 606c-12 95.333 -50.333 143 -115 143c-31.333 0 -58.166 -11 -80.499 -33s-41.833 -56.667 -58.5 -104l-35 -104h-41l53 158c52 146 151.667 219 299 219c98.667 0 170.834 -27.333 216.501 -82s75.167 -134 88.5 -238l30 -256
c48.667 104.667 103.5 202.5 164.5 293.5s118.5 160.5 172.5 208.5c61.333 49.333 123.333 74 186 74c57.333 0 102.166 -17.5 134.499 -52.5s48.5 -79.5 48.5 -133.5c0 -56.667 -17.333 -104 -52 -142s-78.334 -57 -131.001 -57c-42 0 -74.667 12.333 -98 37
s-35 58 -35 100c0.666992 44.667 15.5 85.5 44.5 122.5s66.167 63.167 111.5 78.5c-7.33301 5.33301 -19 8 -35 8c-46 0 -90.333 -15.667 -133 -47c-52.667 -41.333 -112 -110.166 -178 -206.499s-130 -212.833 -192 -349.5l69 -581c13.333 -92.667 52.333 -139 117 -139
c32.667 0 59.834 10 81.501 30s40.834 52.333 57.501 97l35 104h41l-54 -158c-28 -76.667 -65.333 -132.334 -112 -167.001s-104 -52 -172 -52c-55.333 0 -102.666 7.83301 -141.999 23.5s-70.833 38.667 -94.5 69s-41.667 63.5 -54 99.5s-21.5 78.667 -27.5 128l-29 238
c-52 -100 -112.333 -194.167 -181 -282.5s-134.334 -156.833 -197.001 -205.5c-61.333 -46.667 -125 -70 -191 -70c-57.333 0 -101.666 17.5 -132.999 52.5s-47 79.5 -47 133.5z" />
    <glyph glyph-name="Y" unicode="Y" horiz-adv-x="1503" 
d="M170 1102l51.002 158.003c48 146 144.333 219 289 219c39.333 0 74.833 -5.66699 106.5 -17s59.5 -26.833 83.5 -46.5s45.5 -46.334 64.5 -80.001s35.167 -69 48.5 -106s25.666 -82.5 36.999 -136.5s20.666 -107 27.999 -159s15 -114 23 -186c90 254.667 202 456 336 604
c77.333 84.667 158 127 242 127c59.333 0 105.833 -16.833 139.5 -50.5s50.5 -75.834 50.5 -126.501c0 -52 -17.5 -95.667 -52.5 -131s-79.5 -53 -133.5 -53c-45.333 0 -80.333 11.333 -105 34s-37 53 -37 91c0.666992 44.667 15.5 83.834 44.5 117.501
s66.167 57.5 111.5 71.5c-7.33301 5.33301 -19 8 -35 8c-40 0 -81 -15.667 -123 -47c-60.667 -44 -130.167 -128.5 -208.5 -253.5s-148.833 -278.833 -211.5 -461.5l-116 -461c-8.66699 -36.667 -13 -64.334 -13 -83.001c0 -35.333 11.667 -59 35 -71
s64.333 -19.333 123 -22l-10 -41c-78 4 -195.333 6 -352 6c-148 0 -258 -2 -330 -6l10 41c37.333 1.33301 66.333 4.16602 87 8.49902s39.5 13 56.5 26s30.167 30.167 39.5 51.5s18.666 51.333 27.999 90l111 442c-10 84 -21.333 162 -34 234s-28.5 142.5 -47.5 211.5
s-41.667 123.333 -68 163s-55.166 59.5 -86.499 59.5c-42 0 -73.333 -32 -94 -96l-43 -129h-45z" />
    <glyph glyph-name="Z" unicode="Z" horiz-adv-x="1348" 
d="M-65 17c0 18.667 12.667 39.501 38 62.501s63.666 44.167 114.999 63.5l576 566h-332l14 41h359l571 561c-140.667 -123.333 -279.334 -185 -416.001 -185c-55.333 0 -109.166 7.66699 -161.499 23s-100.333 30.5 -144 45.5s-83.167 22.5 -118.5 22.5
c-29.333 0 -52 -7 -68 -21s-24 -34.333 -24 -61c0 -29.333 11.833 -53.833 35.5 -73.5s61.834 -34.834 114.501 -45.501l-11 -39c-34.667 5.33301 -66.834 13.5 -96.501 24.5s-57.667 25.5 -84 43.5s-47.166 41.5 -62.499 70.5s-23 61.833 -23 98.5c0 78 27 141.667 81 191
s126 74 216 74c43.333 0 85 -6.33301 125 -19s75.833 -27.834 107.5 -45.501l95 -53.5c31.667 -18 67 -33.333 106 -46s79.5 -19 121.5 -19c36.667 0 70.334 4.5 101.001 13.5s69.334 23.167 116.001 42.5c24.667 35.333 50.667 64 78 86s51.333 33 72 33
c10.667 0 20.667 -3.66699 30 -11c8 -6.66699 12 -15.667 12 -27c0 -18.667 -12.667 -39.5 -38 -62.5s-63.666 -44.167 -114.999 -63.5l-567 -557h311l-16 -41h-336l-580 -570c140.667 123.333 280 185 418 185c55.333 0 109.166 -7.66699 161.499 -23
s100.333 -30.5 144 -45.5s83.167 -22.5 118.5 -22.5c28.667 0 51.167 7.16699 67.5 21.5s24.5 34.5 24.5 60.5c0 58 -49.667 97.667 -149 119l8 39c34.667 -5.33301 66.834 -13.5 96.501 -24.5s57.667 -25.5 84 -43.5s47.166 -41.5 62.499 -70.5s23 -61.833 23 -98.5
c0 -78 -27 -141.667 -81 -191s-126 -74 -216 -74c-43.333 0 -85 6.33301 -125 19s-75.833 27.834 -107.5 45.501l-94.5 53.5c-31.333 18 -66.666 33.333 -105.999 46s-80 19 -122 19c-36.667 0 -70.334 -4.5 -101.001 -13.5s-69.334 -23.167 -116.001 -42.5
c-24 -35.333 -50 -64 -78 -86s-52.333 -33 -73 -33c-10.667 0 -20.334 3.66699 -29.001 11c-8 6.66699 -12 15.667 -12 27z" />
    <glyph glyph-name="bracketleft" unicode="[" horiz-adv-x="741" 
d="M-45 -371l485 1952h471l-8 -39h-166l-469 -1874h166l-8 -39h-471z" />
    <glyph glyph-name="backslash" unicode="\" horiz-adv-x="1006" 
d="M268 1479h64l467 -1508h-68z" />
    <glyph glyph-name="bracketright" unicode="]" horiz-adv-x="743" 
d="M-168 -371l8 39h166l469 1874h-166l8 39h471l-485 -1952h-471z" />
    <glyph glyph-name="asciicircum" unicode="^" horiz-adv-x="1081" 
d="M139 664c102.667 44 199.667 103.667 291 179s165 154.666 221 237.999h37c13.333 -84.667 45.333 -164.167 96 -238.5s117 -133.166 199 -176.499l-16 -31c-158 35.333 -298.667 92.666 -422 171.999c-108 -69.333 -240.667 -126.666 -398 -171.999z" />
    <glyph glyph-name="underscore" unicode="_" horiz-adv-x="1430" 
d="M-113 -357l60 178h1126l-61 -178h-1125z" />
    <glyph glyph-name="grave" unicode="`" horiz-adv-x="457" 
d="M95 1642c0 38.667 15.999 67.6689 47.999 87.002c17.333 9.33301 35.333 14 54 14c22 0 43 -5.83301 63 -17.5s36.333 -27.834 49 -48.501c16.667 -26 29.834 -57.5 39.501 -94.5l39 -149.5c16.333 -62.667 36.833 -126.667 61.5 -192l-25 -14
c-53.333 65.333 -113.333 131.166 -180 197.499s-109 114.5 -127 144.5c-14.667 24.667 -22 49 -22 73z" />
    <glyph glyph-name="a" unicode="a" horiz-adv-x="1143" 
d="M-2 223c0 90.667 19.498 187.667 58.498 291s88.333 196.833 148 280.5s128.334 153.334 206.001 209.001s152.5 83.5 224.5 83.5c36 0 65.5 -10.833 88.5 -32.5s36.833 -54.5 41.5 -98.5l28 101c108.667 2 207.667 12 297 30l-269 -913
c-6.66699 -23.333 -10 -42 -10 -56c0 -30.667 13 -46 39 -46c48 0 90.333 53.667 127 161l37 99h39l-52 -150c-14 -40 -31.667 -74.333 -53 -103s-44.333 -50.5 -69 -65.5s-49 -25.833 -73 -32.5s-49 -10 -75 -10c-71.333 0 -121.666 21.333 -150.999 64
c-18.667 27.333 -28 62 -28 104c0 32 6 72.667 18 122c-86 -193.333 -200.333 -290 -343 -290c-75.333 0 -132.333 22.167 -171 66.5s-58 106.166 -58 185.499zM300.998 209c0 -45.333 4.5 -77.834 13.5 -97.501s23.5 -29.5 43.5 -29.5c46 0 97.833 47 155.5 141
s107.167 221 148.5 381l-10 -50l89 319c1.33301 8 2 19.667 2 35c0 33.333 -6 59 -18 77s-29 27 -51 27c-34.667 0 -74 -24.833 -118 -74.5s-84.667 -112.167 -122 -187.5s-68.833 -162.166 -94.5 -260.499s-38.5 -191.833 -38.5 -280.5z" />
    <glyph glyph-name="b" unicode="b" horiz-adv-x="1120" 
d="M-49 -18c18.667 37.333 33.001 77.334 43.001 120.001l371 1264c6 21.333 9 40 9 56c0 27.333 -10.5 47.333 -31.5 60s-56.5 19 -106.5 19l12 43c175.333 2 333 30 473 84l-239 -832c49.333 101.333 100.166 175.166 152.499 221.499s109.833 69.5 172.5 69.5
c82.667 0 145.667 -26.833 189 -80.5s65 -131.834 65 -234.501c0 -64 -9 -132 -27 -204s-45.333 -143.333 -82 -214s-79.667 -134.5 -129 -191.5s-108.833 -103.167 -178.5 -138.5s-143.167 -53 -220.5 -53c-38.667 0 -73.5 7.83301 -104.5 23.5
s-54.167 36.834 -69.5 63.501c-68.667 -6.66699 -158 -37 -268 -91zM275.001 76.001c23.333 -30 54 -45.001 92 -45.001c64 0 127.333 45 190 135s112.5 197.5 149.5 322.5s55.5 241.5 55.5 349.5c0 50.667 -5.83301 86.834 -17.5 108.501s-29.167 32.5 -52.5 32.5
c-37.333 0 -80 -33.833 -128 -101.5s-93 -155.5 -135 -263.5z" />
    <glyph glyph-name="c" unicode="c" horiz-adv-x="948" 
d="M16 287c0 68 10.334 138.832 31.001 212.499s51.5 145.334 92.5 215.001s89 132.334 144 188.001s120 100.334 195 134.001s153.833 50.5 236.5 50.5c74 0 134.167 -18.667 180.5 -56s69.5 -84 69.5 -140c0 -57.333 -19.833 -109.5 -59.5 -156.5
s-87.5 -70.5 -143.5 -70.5c-34 0 -62 10.667 -84 32s-33 50 -33 86c0 53.333 18.333 100.666 55 141.999s80.334 68.666 131.001 81.999c-23.333 27.333 -56 41 -98 41c-66.667 0 -131.834 -36.333 -195.501 -109s-115.167 -168.167 -154.5 -286.5s-59 -239.833 -59 -364.5
c0 -136.667 51.667 -205 155 -205c97.333 0 187.666 60 270.999 180l41 -16c-49.333 -78.667 -111.833 -144.167 -187.5 -196.5s-162.167 -78.5 -259.5 -78.5c-99.333 0 -178.833 26.667 -238.5 80s-89.5 132 -89.5 236z" />
    <glyph glyph-name="d" unicode="d" horiz-adv-x="1186" 
d="M8 258c0 44.667 5.16895 92.668 15.502 144.001s25.666 103.5 45.999 156.5s44.666 105 72.999 156s62 99 101 144s80.833 84.5 125.5 118.5s94.667 60.833 150 80.5s112.333 29.5 171 29.5c64 0 105.667 -23 125 -69l92 348c6.66699 24.667 10 43.667 10 57
c0 27.333 -10.667 47.166 -32 59.499s-57 18.5 -107 18.5l13 43c176 2 335.667 30 479 84l-402 -1454c-7.33301 -23.333 -11 -42 -11 -56c0 -30.667 13.333 -46 40 -46c20.667 0 41.167 11.667 61.5 35s41.5 65.333 63.5 126l35 99h39l-49 -150
c-46.667 -140.667 -137 -211 -271 -211c-84.667 0 -138.667 31.667 -162 95c-10.667 22 -16 50 -16 84c0 42 8.33301 91 25 147l2 9c-52 -116 -107.167 -200.833 -165.5 -254.5s-127.5 -80.5 -207.5 -80.5c-72 0 -130.667 24 -176 72s-68 119.667 -68 215zM311.002 215.001
c0 -94 22.001 -141.001 66.001 -141.001c42 0 93.667 45.5 155 136.5s116.666 214.5 165.999 370.5l103 387c-7.33301 24.667 -17.333 42.834 -30 54.501s-30 17.5 -52 17.5c-58 0 -119 -41.167 -183 -123.5s-117.5 -188.5 -160.5 -318.5s-64.5 -257.667 -64.5 -383z" />
    <glyph glyph-name="e" unicode="e" horiz-adv-x="961" 
d="M6 260c0 59.333 8.50293 121.171 25.5029 185.504s40.667 127 71 188s68.166 119 113.499 174s94.666 103.167 147.999 144.5s113 74.166 179 98.499s133.333 36.5 202 36.5c63.333 0 114.666 -13.833 153.999 -41.5s59 -67.5 59 -119.5
c0 -60 -19.5 -117.167 -58.5 -171.5s-90.833 -101.833 -155.5 -142.5s-131.834 -75.667 -201.501 -105s-142.167 -54 -217.5 -74c-8 -46.667 -12 -93.334 -12 -140.001c0 -72 13.5 -123.167 40.5 -153.5s66.167 -45.5 117.5 -45.5c42.667 0 90.834 13.5 144.501 40.5
s105.167 69.5 154.5 127.5l33 -16c-31.333 -48.667 -69 -92.834 -113 -132.501s-98 -73.334 -162 -101.001s-130.667 -41.5 -200 -41.5c-95.333 0 -172.833 25.167 -232.5 75.5s-89.5 121.5 -89.5 213.5zM332.003 471.005c96 42 171 87.668 225 137.001
c117.333 105.333 176 229.666 176 372.999c0 45.333 -11 68 -33 68c-40.667 0 -86 -27.667 -136 -83s-96.333 -128 -139 -218s-73.667 -182.333 -93 -277z" />
    <glyph glyph-name="f" unicode="f" horiz-adv-x="698" 
d="M-92 -385l375.001 1397h-170l12 41h169c57.333 218.667 136.666 370 237.999 454c77.333 63.333 173.666 95 288.999 95c84 0 150.167 -17.833 198.5 -53.5s72.5 -83.5 72.5 -143.5c0 -44.667 -18 -85.5 -54 -122.5s-81 -55.5 -135 -55.5c-40.667 0 -72.667 9.5 -96 28.5
s-35 46.167 -35 81.5c0 44.667 14.167 85 42.5 121s66.833 62.667 115.5 80c-15.333 18 -38.666 27 -69.999 27c-40 0 -76 -13.667 -108 -41c-24.667 -21.333 -45.667 -55.5 -63 -102.5s-38 -115.167 -62 -204.5l-44 -164h220l-12 -41h-219l-367 -1368
c-110.667 -2 -209.667 -11.667 -297 -29z" />
    <glyph glyph-name="g" unicode="g" horiz-adv-x="967" 
d="M-211 -233c0 20.667 5.5 39.8389 16.5 57.5059s24.833 32.667 41.5 45s39.5 25.166 68.5 38.499s56.167 24.5 81.5 33.5l98.5 35c40.333 14.333 74.5 27.166 102.5 38.499l-36 10c-36.667 10.667 -66.334 27.167 -89.001 49.5s-34 49.5 -34 81.5
c0 49.333 28.333 94.833 85 136.5s150 90.834 280 147.501c-96 2 -172.333 22.167 -229 60.5s-85 95.5 -85 171.5c0 45.333 11.333 91.666 34 138.999s54.834 91.666 96.501 132.999s97 75.166 166 101.499s144.833 39.5 227.5 39.5c36.667 0 69 -2.33301 97 -7
c56.667 112 111 189 163 231c40 31.333 84 47 132 47c38.667 0 69.5 -9.66699 92.5 -29s34.5 -47.333 34.5 -84c0 -45.333 -16 -86 -48 -122s-70 -54 -114 -54c-29.333 0 -52.833 8.66699 -70.5 26s-26.5 40 -26.5 68c0 47.333 23.333 90.333 70 129
c-4.66699 2.66699 -9.66699 4 -15 4c-13.333 0 -26.666 -5.33301 -39.999 -16c-20.667 -16.667 -44.167 -44.334 -70.5 -83.001s-49.5 -80 -69.5 -124c130 -30 195 -102.333 195 -217c0 -46.667 -10.833 -92.834 -32.5 -138.501s-51.834 -87.5 -90.501 -125.5
s-87.334 -70.333 -146.001 -97s-122 -43.334 -190 -50.001c-64.667 -28 -113.834 -52.5 -147.501 -73.5s-50.5 -41.167 -50.5 -60.5c0 -12 7.33301 -22.333 22 -31s38 -18 70 -28l172 -57c34.667 -11.333 64.667 -23 90 -35s49.5 -26.667 72.5 -44s40.5 -37.5 52.5 -60.5
s18 -48.5 18 -76.5c0 -69.333 -30.667 -132.666 -92 -189.999s-139.666 -101.333 -234.999 -132s-195 -46 -299 -46c-117.333 0 -208.166 14.167 -272.499 42.5s-96.5 66.833 -96.5 115.5zM78 -259.995c0 -64 39.668 -96.0029 119.001 -96.0029c53.333 0 107.5 9 162.5 27
s102 44.333 141 79s58.5 72.334 58.5 113.001c0 14 -5.66699 26.333 -17 37s-21.833 17.834 -31.5 21.501s-28.834 9.83398 -57.501 18.501c-6.66699 2 -11.667 3.66699 -15 5l-206 60c-102.667 -86 -154 -174.333 -154 -265zM367.001 604.002
c0 -46.667 6.33203 -79.5 18.999 -98.5s32.667 -28.5 60 -28.5c36.667 0 69.5 13.667 98.5 41s51.667 63.333 68 108s28.833 92 37.5 142s13.334 100.667 14.001 152c0 86 -26.667 129 -80 129c-35.333 0 -67.5 -15.167 -96.5 -45.5s-51.833 -68.833 -68.5 -115.5
s-29.5 -94.667 -38.5 -144s-13.5 -96 -13.5 -140z" />
    <glyph glyph-name="h" unicode="h" horiz-adv-x="1167" 
d="M-37 0l406 1366c6.66699 24.667 10 43.667 10 57c0 27.333 -10.667 47.166 -32 59.499s-57 18.5 -107 18.5l12 43c178 2 337 30 477 84l-279 -951c70 153.333 138.833 260 206.5 320s144.5 90 230.5 90c64 0 110.833 -14.667 140.5 -44s44.5 -69.333 44.5 -120
c0 -44 -9.33301 -92.333 -28 -145l-200 -604c-8 -25.333 -12 -45 -12 -59c0 -28.667 13.333 -43 40 -43c46 0 88.333 53.667 127 161l37 99h39l-51 -150c-48 -140.667 -139.333 -211 -274 -211c-124.667 0 -187 55.667 -187 167c0 46 10.333 99 31 159l182 553
c12.667 38 19 68 19 90c0 30 -13 45 -39 45c-38.667 0 -84.5 -36 -137.5 -108s-106.333 -167.5 -160 -286.5s-103.167 -249.5 -148.5 -391.5l-51 -173l-1 -6v1l-6 -21h-289z" />
    <glyph glyph-name="i" unicode="i" horiz-adv-x="659" 
d="M51 721l58 156c49.333 140 144 210 284 210c63.333 0 109.333 -15.167 138 -45.5s43 -70.166 43 -119.499c0 -38 -7.66699 -78.333 -23 -121l-215 -627c-8 -24 -12 -43.667 -12 -59c0 -28.667 13.667 -43 41 -43c20.667 0 41.334 11.5 62.001 34.5s43 65.167 67 126.5
l36 99h39l-53 -150c-48 -140.667 -140 -211 -276 -211c-124 0 -186 56.333 -186 169c0 45.333 10 97.666 30 156.999l201 588c8.66699 24 13 44.667 13 62c0 26.667 -12 40 -36 40c-24.667 0 -47.334 -12.5 -68.001 -37.5s-41.667 -66.5 -63 -124.5l-41 -104h-39zM362 1389
c0 60.667 19.833 108.167 59.5 142.5s89.5 51.5 149.5 51.5c48.667 0 86.167 -11.167 112.5 -33.5s39.5 -53.5 39.5 -93.5c0 -54.667 -20.5 -99.667 -61.5 -135s-91.5 -53 -151.5 -53c-46.667 0 -83 10.833 -109 32.5s-39 51.167 -39 88.5z" />
    <glyph glyph-name="j" unicode="j" horiz-adv-x="616" 
d="M-410 -264c0 40 15.6689 74.8301 47.002 104.497s68.333 44.5 111 44.5c36 0 65.167 -10.667 87.5 -32s33.5 -46.666 33.5 -75.999c0 -23.333 -7.16699 -47.166 -21.5 -71.499s-33.833 -44.166 -58.5 -59.499c52 6 93.5 25.5 124.5 58.5s57.167 87.167 78.5 162.5
l287 1018c7.33301 28 11 49 11 63c0 26 -12 39 -36 39c-23.333 0 -45.5 -12.667 -66.5 -38s-41.833 -66.666 -62.5 -123.999l-39 -104h-39l55 156c48.667 140 143.667 210 285 210c116.667 0 175 -53.667 175 -161c0 -34.667 -6.33301 -76.334 -19 -125.001l-158 -565
c-40.667 -146.667 -84.834 -261.667 -132.501 -345s-105.834 -145.333 -174.501 -186c-81.333 -60 -179 -90 -293 -90c-130 0 -195 40.333 -195 121zM354.002 1392c0 59.333 20 106 60 140s90.333 51 151 51c48 0 85 -10.833 111 -32.5s39 -51.834 39 -90.501
c0 -55.333 -20.5 -101.166 -61.5 -137.499s-90.833 -54.5 -149.5 -54.5c-48 0 -85 11 -111 33s-39 52.333 -39 91z" />
    <glyph glyph-name="k" unicode="k" horiz-adv-x="1130" 
d="M-37 0l405.997 1366c6.66699 24.667 10 43.667 10 57c0 27.333 -10.667 47.166 -32 59.499s-57 18.5 -107 18.5l12 43c178 2 337 30 477 84l-298 -1016c49.333 8 90.833 24.667 124.5 50s59.334 55.333 77.001 90s33 69.5 46 104.5s28.167 69.833 45.5 104.5
s37.333 61 60 79c38.667 31.333 81 47 127 47c62 0 109.333 -17.333 142 -52s49 -78.334 49 -131.001c0 -52 -15.833 -95.167 -47.5 -129.5s-73.167 -51.5 -124.5 -51.5c-42 0 -74.667 11.333 -98 34c-22 21.333 -33 48 -33 80v5c0 39.333 12.833 75.333 38.5 108
s57.834 59.334 96.501 80.001c-6.66699 11.333 -17.667 17 -33 17c-31.333 0 -60 -10.333 -86 -31c-19.333 -16 -36.833 -40 -52.5 -72s-30 -65 -43 -99s-28 -67.833 -45 -101.5s-40.167 -63.834 -69.5 -90.501s-64 -45 -104 -55c229.333 -5.33301 344 -80.333 344 -225
c0 -21.333 -2.33301 -42.666 -7 -63.999l-31 -151c-4 -18.667 -6 -34 -6 -46c0 -14.667 3 -25 9 -31s15.333 -9 28 -9c44 0 85.667 53.667 125 161l36 99h39l-51 -150c-49.333 -140.667 -147.666 -211 -294.999 -211c-55.333 0 -97.5 13.833 -126.5 41.5
s-43.5 67.834 -43.5 120.501c0 25.333 2.66699 50 8 74l35 158c8 32 12 59.667 12 83c0 39.333 -12.167 69.333 -36.5 90s-63.833 35 -118.5 43l-170 -581h-289z" />
    <glyph glyph-name="l" unicode="l" horiz-adv-x="614" 
d="M15 154c0 42.667 8.00098 90.333 24.001 143l321 1069c6.66699 24.667 10 44 10 58c0 26.667 -10.667 46.167 -32 58.5s-57 18.5 -107 18.5l15 43c174.667 2 333 30 475 84l-430 -1454c-6 -20.667 -9 -38 -9 -52c0 -33.333 14.667 -50 44 -50c42 0 83 53.667 123 161
l36 99h39l-51 -150c-26 -76.667 -63.5 -131 -112.5 -163s-102.167 -48 -159.5 -48c-62.667 0 -109.334 16 -140.001 48s-46 77 -46 135z" />
    <glyph glyph-name="m" unicode="m" horiz-adv-x="1753" 
d="M31 0l249.997 885.001c6.66699 23.333 10 42.666 10 57.999c0 29.333 -12.333 44 -37 44c-24 0 -46.167 -12.667 -66.5 -38s-41.166 -66.666 -62.499 -123.999l-39 -104h-39l55 156c50.667 140 143 210 277 210c110 0 165 -54.667 165 -164c0 -38 -6 -78.667 -18 -122
l-47 -180c66.667 168 135.5 287.667 206.5 359s155.833 107 254.5 107c108 0 162 -53 162 -159c0 -40 -8.33301 -90 -25 -150l-37 -131c68 162.667 137.5 276.667 208.5 342s151.833 98 242.5 98c111.333 0 167 -53.333 167 -160c0 -43.333 -9.33301 -93 -28 -149l-200 -604
c-8.66699 -25.333 -13 -45.666 -13 -60.999c0 -27.333 13 -41 39 -41c47.333 0 90.333 53.667 129 161l37 99h39l-51 -150c-49.333 -140.667 -141.666 -211 -276.999 -211c-78.667 0 -133.334 24.667 -164.001 74c-14.667 24.667 -22 55 -22 91c0 43.333 10.333 97 31 161
l184 553c10.667 34 16 61.333 16 82c0 27.333 -9.33301 41 -28 41c-56.667 0 -124.167 -67.333 -202.5 -202s-157.166 -330.334 -236.499 -587.001v5l-53 -189h-293l250 850c12 38.667 18 66.667 18 84c0 26 -11.333 39 -34 39c-61.333 0 -130.666 -70.833 -207.999 -212.5
s-150 -326.834 -218 -555.501v5l-54 -210h-288z" />
    <glyph glyph-name="n" unicode="n" horiz-adv-x="1235" 
d="M33 0l247.999 884.997c8 28.667 12 50.334 12 65.001c0 24.667 -11.667 37 -35 37c-25.333 0 -48 -12 -68 -36s-41 -66 -63 -126l-39 -104h-39l55 156c26 74.667 61 128.334 105 161.001s97.333 49 160 49c117.333 0 176 -56 176 -168c0 -34.667 -5.66699 -74 -17 -118
l-64 -249c42 104.667 82.833 192 122.5 262s79.5 125 119.5 165s79.667 68 119 84s83 24 131 24c123.333 0 185 -54.667 185 -164c0 -41.333 -9 -89.666 -27 -144.999l-201 -604c-8 -22 -12 -42 -12 -60c0 -28 13 -42 39 -42c22 0 43.333 11.333 64 34s42.334 65 65.001 127
l37 99h39l-51 -150c-49.333 -140.667 -141 -211 -275 -211c-76.667 0 -131.334 22.667 -164.001 68c-17.333 26.667 -26 58.334 -26 95.001c0 42 11 96.333 33 163l184 553c12.667 39.333 19 68.666 19 87.999c0 31.333 -13.333 47 -40 47
c-41.333 0 -91.166 -41.833 -149.499 -125.5s-116.5 -192.5 -174.5 -326.5s-108.667 -276.333 -152 -427l-27 -106h-289z" />
    <glyph glyph-name="o" unicode="o" horiz-adv-x="1083" 
d="M25 309c0 64.667 8.50098 131.834 25.501 201.501s43.667 139 80 208s79.833 130.667 130.5 185s113.167 98.5 187.5 132.5s154.166 51 239.499 51c106.667 0 188.667 -28.833 246 -86.5s86 -141.167 86 -250.5c0 -64.667 -8.5 -131.834 -25.5 -201.501
s-43.667 -139 -80 -208s-80 -130.833 -131 -185.5s-113.5 -99 -187.5 -133s-154 -51 -240 -51c-106 0 -187.667 28.833 -245 86.5s-86 141.5 -86 251.5zM299.001 152c0 -49.333 5.66797 -85 17.001 -107s29 -33 53 -33c37.333 0 78.333 28.333 123 85
s85.5 127.5 122.5 212.5s68 181.5 93 289.5s37.5 209.333 37.5 304c0 54 -5.5 91.5 -16.5 112.5s-27.833 31.5 -50.5 31.5c-38 0 -79.833 -29.333 -125.5 -88s-86.834 -131.5 -123.501 -218.5s-67.5 -184.167 -92.5 -291.5s-37.5 -206.333 -37.5 -297z" />
    <glyph glyph-name="p" unicode="p" horiz-adv-x="1194" 
d="M-186 -371l12 42.998c48.667 0 84.167 9 106.5 27s40.166 51.333 53.499 100l371 1330c-38.667 -85.333 -83 -161.833 -133 -229.5s-109.667 -137.5 -179 -209.5l-22 27c44.667 48 80.167 87.333 106.5 118s57 70.5 92 119.5s67.667 103.167 98 162.5
s60.5 127.333 90.5 204l8 27c112.667 8 214.334 27 305.001 57l-177 -624c50 106 102 183.5 156 232.5s113 73.5 177 73.5c82.667 0 145.667 -26.833 189 -80.5s65 -131.834 65 -234.501c0 -64 -8.5 -132 -25.5 -204s-43 -143.333 -78 -214s-76.333 -134.5 -124 -191.5
s-105.167 -103.167 -172.5 -138.5s-138.333 -53 -213 -53c-80.667 0 -142 23.667 -184 71l-55 -196c-8 -29.333 -12 -53.666 -12 -72.999c0 -37.333 13.667 -63.166 41 -77.499s70 -22.166 128 -23.499l-12 -43c-192 6 -300 9 -324 9c-26.667 0 -122.667 -3 -288 -9z
M347 77.998c24.667 -31.333 55.667 -47.001 93 -47.001c48.667 0 97.5 25.333 146.5 76s91.333 114.167 127 190.5s64.667 160.5 87 252.5s33.5 178.333 33.5 259c0 63.333 -5.83301 107.5 -17.5 132.5s-28.5 37.5 -50.5 37.5c-41.333 0 -87.833 -39.167 -139.5 -117.5
s-99.167 -178.166 -142.5 -299.499z" />
    <glyph glyph-name="q" unicode="q" horiz-adv-x="1128" 
d="M16 287c0 63.333 9.66699 131.333 29 204s48.166 144 86.499 214s82.666 133.667 132.999 191s109.5 103.5 177.5 138.5s138.333 52.5 211 52.5c40 0 75.333 -8 106 -24s53.667 -37.667 69 -65c76 6 165.333 36.667 268 92l32 -15c-14.667 -30.667 -29.667 -71 -45 -121
l-303 -1132c-6 -21.333 -9 -40 -9 -56c0 -31.333 11.167 -54.5 33.5 -69.5s55.833 -23.167 100.5 -24.5l-12 -43c-192 6 -298 9 -318 9c-26.667 0 -127 -3 -301 -9l13 43c62.667 0.666992 109 12.167 139 34.5s52 58.833 66 109.5l131 489
c-53.333 -117.333 -108.166 -202.333 -164.499 -255s-119.166 -79 -188.499 -79c-82.667 0 -145.667 27 -189 81s-65 132.333 -65 235zM315 221c0 -86 23.333 -129 70 -129c50 0 107 52 171 156s112.667 224.667 146 362l-7 -36l109 406c-23.333 32 -54.333 48 -93 48
c-64 0 -127.5 -46.833 -190.5 -140.5s-113 -203 -150 -328s-55.5 -237.833 -55.5 -338.5z" />
    <glyph glyph-name="r" unicode="r" horiz-adv-x="963" 
d="M31 0l250.001 885c7.33301 27.333 11 48 11 62c0 26.667 -11.333 40 -34 40c-25.333 0 -48.333 -12.167 -69 -36.5s-42 -66.166 -64 -125.499l-39 -104h-39l55 156c50.667 140 145 210 283 210c104.667 0 157 -55 157 -165c0 -38 -5.33301 -78.333 -16 -121l-18 -71
c51.333 132.667 103.166 225.334 155.499 278.001s115.833 79 190.5 79c52 0 92.667 -15.333 122 -46s44 -70.334 44 -119.001c0 -58 -18.833 -108 -56.5 -150s-83.834 -63 -138.501 -63c-40 0 -70.833 10.5 -92.5 31.5s-32.5 51.167 -32.5 90.5
c0 48.667 16.333 92.167 49 130.5s73 63.166 121 74.499c-16 4 -24.667 6 -26 6c-34 0 -67 -10.167 -99 -30.5s-66.667 -55.333 -104 -105s-76.166 -123 -116.499 -220s-80.5 -215.5 -120.5 -355.5l-85 -331h-288z" />
    <glyph glyph-name="s" unicode="s" horiz-adv-x="860" 
d="M-39 209c0 40.667 10.1738 75.3301 30.5068 103.997s48.5 43 84.5 43s64.5 -15 85.5 -45s31.5 -68 31.5 -114c0 -9.33301 -0.5 -18.833 -1.5 -28.5s-2.5 -19.334 -4.5 -29.001s-3.83301 -18.167 -5.5 -25.5s-4.16699 -15.833 -7.5 -25.5l-7.5 -21.5
c-1.66699 -4.66699 -4.33398 -11.667 -8.00098 -21s-5.83398 -15 -6.50098 -17c20 -10 46.333 -15 79 -15c51.333 0 92.833 15.667 124.5 47s47.5 74.333 47.5 129c0 78.667 -38 176.334 -114 293.001c-2 3.33301 -8.83301 14 -20.5 32l-21.5 33.5l-19 30
c-10 15.667 -16.333 26.834 -19 33.501s-7.5 17 -14.5 31s-11.667 25.5 -14 34.5s-5.33301 20 -9 33s-6.16699 25.667 -7.5 38s-2 24.833 -2 37.5c0 89.333 33.167 161.833 99.5 217.5s157.5 83.5 273.5 83.5c40.667 0 78.167 -3.33301 112.5 -10s67 -17.5 98 -32.5
s55.5 -37 73.5 -66s27 -63.833 27 -104.5c0 -37.333 -11 -71.833 -33 -103.5s-52.667 -47.5 -92 -47.5c-34 0 -61.333 12.833 -82 38.5s-31 58.5 -31 98.5c0 65.333 21.333 122 64 170c-19.333 11.333 -43.333 17 -72 17c-49.333 0 -88.166 -15.333 -116.499 -46
s-42.833 -73.667 -43.5 -129c0 -18 1.66699 -35.167 5 -51.5s10.166 -35 20.499 -56s18.166 -36.333 23.499 -46s17.666 -29.167 36.999 -58.5s31.666 -48.666 36.999 -57.999c43.333 -72 74.333 -131.167 93 -177.5s28 -92.833 28 -139.5c0 -91.333 -35 -166.5 -105 -225.5
s-163.333 -88.5 -280 -88.5c-45.333 0 -87.333 4.16699 -126 12.5s-74.334 21.333 -107.001 39s-58.334 42.334 -77.001 74.001s-28 69.167 -28 112.5z" />
    <glyph glyph-name="t" unicode="t" horiz-adv-x="723" 
d="M65 174c0 35.333 6.33398 76.333 19.001 123l206 715h-186l11 41h187l89 311c118 2 217 11.667 297 29l-98 -340h231l-6 -41h-237l-242 -838c-4 -15.333 -6 -29 -6 -41c0 -40.667 20.333 -61 61 -61c30 0 59 14.667 87 44s53 73.333 75 132l31 84h39l-41 -119
c-54.667 -161.333 -157.334 -242 -308.001 -242c-69.333 0 -121.5 18.167 -156.5 54.5s-52.5 85.833 -52.5 148.5z" />
    <glyph glyph-name="u" unicode="u" horiz-adv-x="1223" 
d="M49 727l50.998 149.999c48.667 140 140.334 210 275.001 210c124.667 0 187 -56.333 187 -169c0 -42 -10 -94 -30 -156l-184 -553c-12 -36.667 -18 -65.667 -18 -87c0 -32 13 -48 39 -48c40 0 88 40 144 120s112.167 185.667 168.5 317s106.5 272.333 150.5 423l32 125
c120.667 2 219.667 11.333 297 28l-256 -913c-8.66699 -31.333 -13 -54 -13 -68c0 -22.667 12 -34 36 -34c25.333 0 48.333 12.167 69 36.5s41.334 65.833 62.001 124.5l39 105h39l-56 -156c-48 -140.667 -139.333 -211 -274 -211c-74 0 -124.667 23.333 -152 70
c-12.667 23.333 -19 51.333 -19 84c0 34 7 78.333 21 133l54 209c-40 -97.333 -78.667 -178.333 -116 -243s-75.166 -115.5 -113.499 -152.5s-76.5 -63 -114.5 -78s-80.333 -22.5 -127 -22.5c-61.333 0 -107.5 14.5 -138.5 43.5s-46.5 70.5 -46.5 124.5
c0 40.667 9 88 27 142l199 604c8 24.667 12 44.334 12 59.001c0 28.667 -13 43 -39 43c-22 0 -43.333 -11.5 -64 -34.5s-42.334 -65.5 -65.001 -127.5l-37 -98h-39z" />
    <glyph glyph-name="v" unicode="v" horiz-adv-x="1075" 
d="M59 723l45.0059 148.998c41.333 145.333 105.666 218 192.999 218c24 0 55.667 -11.333 95 -34s77.333 -34 114 -34c56 0 105.667 14.333 149 43l21 39l43 -21c-96.667 -140 -174.834 -286.667 -234.501 -440s-92.167 -289 -97.5 -407v-20
c-0.666992 -49.333 5.66602 -86.333 18.999 -111c14.667 -28 39 -42 73 -42c49.333 0 97.166 12.833 143.499 38.5s87.166 59.5 122.499 101.5s67.666 89.833 96.999 143.5s53.333 108.334 72 164.001s32.667 110.167 42 163.5c-58.667 28 -106.667 65.833 -144 113.5
s-56 101.167 -56 160.5c0 44 12 78.167 36 102.5s56.333 36.5 97 36.5c49.333 0 85.333 -20.667 108 -62c20 -36 30 -84.333 30 -145c0 -8.66699 -0.333008 -18 -1 -28c-4 -80 -15.333 -160.167 -34 -240.5s-46.5 -159.166 -83.5 -236.499s-80.667 -145.833 -131 -205.5
s-111.5 -107.667 -183.5 -144s-150 -54.5 -234 -54.5c-53.333 0 -99.333 6.83301 -138 20.5s-68.5 32.334 -89.5 56.001s-36.333 49.334 -46 77.001s-14.5 57.5 -14.5 89.5c0 228.667 183 492 549 790c-31.333 -4 -62.333 -15 -93 -33s-56.167 -36.833 -76.5 -56.5
s-43 -37.334 -68 -53.001s-48.5 -23.5 -70.5 -23.5c-16.667 0 -37 6.5 -61 19.5s-42.333 19.5 -55 19.5c-19.333 0 -34.833 -7.33301 -46.5 -22s-23.5 -40.334 -35.5 -77.001l-17 -55h-39z" />
    <glyph glyph-name="w" unicode="w" horiz-adv-x="1393" 
d="M4 221c0 36 6.50391 72.8359 19.5039 110.503s29.667 73.334 50 107.001s48.333 70.5 84 110.5s70.334 76.333 104.001 109s76.667 70.5 129 113.5l140.5 112.5l155 118c-32.667 -5.33301 -65.667 -17.166 -99 -35.499s-61 -36.833 -83 -55.5s-46.167 -35.5 -72.5 -50.5
s-50.833 -22.5 -73.5 -22.5c-17.333 0 -38 6.5 -62 19.5s-42.667 19.5 -56 19.5c-18.667 0 -33.834 -7.5 -45.501 -22.5s-23.167 -40.5 -34.5 -76.5l-19 -55h-39l45 149c25.333 78 54.166 132.333 86.499 163s68.5 46 108.5 46c24 0 58.667 -9.83301 104 -29.5
s88.333 -29.5 129 -29.5c57.333 0 110 14.333 158 43l23 39l43 -21c-141.333 -144.667 -257 -294.5 -347 -449.5s-135 -295.167 -135 -420.5c0 -52.667 8.33301 -91.167 25 -115.5s43.334 -36.5 80.001 -36.5c48 0 95.667 18 143 54c-16 39.333 -24 85 -24 137
c0 60 11.167 120.333 33.5 181s50.166 112.667 83.499 156s69.166 78.5 107.499 105.5s73.166 40.5 104.499 40.5c52 0 78 -45 78 -135c0 -152.667 -58.333 -289.334 -175 -410.001c32.667 -62.667 84.334 -94 155.001 -94c51.333 0 97.833 16.667 139.5 50
s75 76.666 100 129.999s44 110.5 57 171.5s19.5 121.833 19.5 182.5c0 22.667 -1 44.667 -3 66c-26.667 10.667 -50.834 21 -72.501 31s-45.334 23.5 -71.001 40.5s-47 34.667 -64 53s-31.333 40.333 -43 66s-17.5 53.167 -17.5 82.5c0 33.333 10.833 61.333 32.5 84
s51.167 34 88.5 34c32.667 0 61.5 -11.5 86.5 -34.5s44.5 -53.333 58.5 -91s24.5 -75.334 31.5 -113.001s11.5 -76.834 13.5 -117.501c2.66699 -34.667 4 -61.334 4 -80.001c0 -64 -6 -127.667 -18 -191s-31 -124.5 -57 -183.5s-57.167 -111 -93.5 -156
s-81 -81.167 -134 -108.5s-110.5 -41 -172.5 -41c-110.667 0 -188.334 37.667 -233.001 113c-85.333 -75.333 -185.666 -113 -300.999 -113c-89.333 0 -157.5 23.5 -204.5 70.5s-70.5 106.833 -70.5 179.5zM737.004 352.003c0 -46 6.33301 -87 19 -123
c45.333 52 80.833 110.167 106.5 174.5s38.5 127.833 38.5 190.5c0 64 -11.667 96 -35 96c-18 0 -37 -16 -57 -48s-37 -74.833 -51 -128.5s-21 -107.5 -21 -161.5z" />
    <glyph glyph-name="x" unicode="x" horiz-adv-x="1157" 
d="M-84 100c0 45.333 14.999 82.334 44.999 111.001s67 43 111 43c80 0 139.333 -45.667 178 -137c68 78 127.667 178.333 179 301l-54 469c-4.66699 32 -13 54.333 -25 67s-27.667 19 -47 19c-20.667 0 -40.5 -11.333 -59.5 -34s-40.167 -67.334 -63.5 -134.001l-26 -76
h-39l51 150c14 41.333 31.667 76.333 53 105s45.166 50.167 71.499 64.5s52 24.333 77 30s52.167 8.5 81.5 8.5c67.333 0 119 -15.833 155 -47.5s58.667 -88.167 68 -169.5l13 -120c37.333 82.667 79.333 153.667 126 213c65.333 82.667 140.333 124 225 124
c44 0 80 -12 108 -36s42 -57 42 -99s-14.5 -77 -43.5 -105s-65.833 -42 -110.5 -42c-40.667 0 -77.167 11.333 -109.5 34s-56.5 57 -72.5 103c-59.333 -68 -111.333 -159 -156 -273l56 -497c6 -34.667 14.5 -59 25.5 -73s25.5 -21 43.5 -21c21.333 0 41.833 12.333 61.5 37
s40.834 71 63.501 139l27 76h39l-52 -150c-45.333 -139.333 -136.666 -209 -273.999 -209s-213 67 -227 201l-19 164c-42 -95.333 -90.333 -175.333 -145 -240c-72.667 -83.333 -148.334 -125 -227.001 -125c-47.333 0 -84.166 11.5 -110.499 34.5s-39.5 54.5 -39.5 94.5z
" />
    <glyph glyph-name="y" unicode="y" horiz-adv-x="987" 
d="M-221 -270c0 36 13.167 66.1689 39.5 90.502s60.166 36.5 101.499 36.5c80.667 0 153.667 -47.333 219 -142c93.333 45.333 182.333 108.333 267 189l-160 979c-8 37.333 -15.5 62.666 -22.5 75.999s-17.167 20 -30.5 20c-15.333 0 -30 -10.167 -44 -30.5
s-31.667 -60.833 -53 -121.5l-37 -100h-39l52 150c26.667 77.333 61 131.666 103 162.999s91.667 47 149 47c58 0 103.333 -16.167 136 -48.5s55.334 -89.833 68.001 -172.5l96 -701c122 176 205.333 349 250 519c-55.333 30.667 -101 69 -137 115
c-34 43.333 -51 90.333 -51 141v8c0 42.667 12.333 76.5 37 101.5s58 37.5 100 37.5c90 0 135 -62 135 -186c0 -122.667 -39.667 -269 -119 -439s-174 -321.333 -284 -454c-69.333 -83.333 -145.833 -157 -229.5 -221s-170.167 -111 -259.5 -141
c-54 -20.667 -102.667 -31 -146 -31c-44 0 -78.5 10.167 -103.5 30.5s-37.5 48.5 -37.5 84.5z" />
    <glyph glyph-name="z" unicode="z" horiz-adv-x="950" 
d="M-106 0l995 955.997c-37.333 -16.667 -81.666 -42.334 -132.999 -77.001s-97.166 -63.167 -137.499 -85.5s-75.833 -33.5 -106.5 -33.5c-33.333 0 -71.333 10.833 -114 32.5s-76.334 32.5 -101.001 32.5s-43.5 -6.16699 -56.5 -18.5s-19.5 -29.833 -19.5 -52.5
c0 -28 9.83301 -51.167 29.5 -69.5s49.5 -34.166 89.5 -47.499l-12 -31c-144.667 34.667 -217 105.667 -217 213c0 69.333 25.167 129.333 75.5 180s122.5 76 216.5 76c38 0 74.833 -5.5 110.5 -16.5s65.5 -23.167 89.5 -36.5s53.667 -25.5 89 -36.5
s71.666 -16.5 108.999 -16.5c40.667 0 75.167 6.5 103.5 19.5s56.5 35.833 84.5 68.5h60l-981 -942c32 14.667 71 37.167 117 67.5s86.667 55 122 74s67.333 28.5 96 28.5c34.667 0 73.334 -11 116.001 -33s76.667 -33 102 -33c24 0 42.5 6.83301 55.5 20.5
s19.5 30.834 19.5 51.501c0 30 -11.167 55 -33.5 75s-50.5 34 -84.5 42l12 30c144.667 -32 217 -105 217 -219c0 -69.333 -22.167 -127 -66.5 -173s-108.833 -69 -193.5 -69c-38 0 -75 5.83301 -111 17.5s-66.5 24.334 -91.5 38.001s-55.833 26.334 -92.5 38.001
s-74.334 17.5 -113.001 17.5s-72.5 -6.33301 -101.5 -19s-57.167 -35.667 -84.5 -69h-59z" />
    <glyph glyph-name="braceleft" unicode="{" horiz-adv-x="739" 
d="M58 -150c-0.666992 20 0.999023 43.6699 4.99902 71.0029s8.66699 53.833 14 79.5s12 55.167 20 88.5c44.667 180.667 67 306 67 376c-0.666992 41.333 -8.66699 71.333 -24 90s-39.333 29 -72 31h-10l6 37h10c44 3.33301 80.833 20.166 110.5 50.499
s57.5 79.666 83.5 147.999s55 168.166 87 299.499c19.333 78 41.5 144.5 66.5 199.5s53.167 100.833 84.5 137.5s68.5 65.5 111.5 86.5s89 35.833 138 44.5s107.167 13 174.5 13l-10 -39c-29.333 -0.666992 -52.833 -3.66699 -70.5 -9s-35.167 -15.5 -52.5 -30.5
s-33.166 -39.667 -47.499 -74s-29.333 -76.833 -45 -127.5s-33.834 -117.667 -54.501 -201c-22.667 -90.667 -50.167 -167 -82.5 -229s-71.5 -112.167 -117.5 -150.5s-94.5 -67.5 -145.5 -87.5s-112.833 -36.333 -185.5 -49c110.667 -25.333 189.167 -62 235.5 -110
s69.5 -112 69.5 -192c0 -55.333 -10.667 -126.666 -32 -213.999c-42 -168.667 -62 -279.334 -60 -332.001c0 -40 9 -66.833 27 -80.5s48 -21.167 90 -22.5l-10 -39c-42 -0.666992 -80 0.5 -114 3.5s-64 8 -90 15s-49.167 15 -69.5 24s-37.166 20.5 -50.499 34.5
s-24.333 28.333 -33 43s-14.667 32.5 -18 53.5s-5.33301 41.5 -6 61.5z" />
    <glyph glyph-name="bar" unicode="|" horiz-adv-x="756" 
d="M307 -399v2156h180v-2156h-180z" />
    <glyph glyph-name="braceright" unicode="}" horiz-adv-x="739" 
d="M-188 -385l10.001 38.9971c29.333 0.666992 52.833 3.66699 70.5 9s35.167 15.5 52.5 30.5s33.166 39.667 47.499 74s29.333 76.833 45 127.5s33.834 117.667 54.501 201c22.667 90.667 50.167 167 82.5 229s71.5 112.167 117.5 150.5s94.5 67.5 145.5 87.5
s112.833 36.333 185.5 49c-110.667 25.333 -189.167 62 -235.5 110s-69.5 112 -69.5 192c0 55.333 10.667 126.666 32 213.999c42 168.667 62 279.334 60 332.001c0 40 -9 66.833 -27 80.5s-48 21.167 -90 22.5l10 39c42 0.666992 80 -0.5 114 -3.5s64 -8 90 -15
s49.167 -15 69.5 -24s37.166 -20.5 50.499 -34.5s24.333 -28.333 33 -43s14.667 -32.5 18 -53.5s5.33301 -41.5 6 -61.5s-1 -43.667 -5 -71s-8.66699 -53.833 -14 -79.5s-12 -55.167 -20 -88.5c-44.667 -180.667 -67 -306 -67 -376c0.666992 -41.333 8.66699 -71.333 24 -90
s39.333 -29 72 -31h10l-6 -37h-10c-44 -3.33301 -80.833 -20.166 -110.5 -50.499s-57.5 -79.666 -83.5 -147.999s-55 -168.166 -87 -299.499c-19.333 -78 -41.5 -144.5 -66.5 -199.5s-53.167 -100.833 -84.5 -137.5s-68.5 -65.5 -111.5 -86.5s-89 -35.833 -138 -44.5
s-107.167 -13 -174.5 -13z" />
    <glyph glyph-name="asciitilde" unicode="~" horiz-adv-x="1321" 
d="M100 487c38 98 93.5029 175.5 166.503 232.5s154.833 85.5 245.5 85.5c46 0 91.333 -8.33301 136 -25s82.167 -35 112.5 -55s66.666 -38.333 108.999 -55s84.166 -25 125.499 -25c90 0 159.667 39.667 209 119l29 -10c-38 -98 -93.833 -175.5 -167.5 -232.5
s-155.167 -85.5 -244.5 -85.5c-46.667 0 -92.334 8.33301 -137.001 25s-82.167 35 -112.5 55s-66.5 38.333 -108.5 55s-83.667 25 -125 25c-90 0 -159.667 -39.667 -209 -119z" />
    <glyph glyph-name="uni00A0" unicode="&#xa0;" horiz-adv-x="522" 
 />
    <glyph glyph-name="cent" unicode="&#xa2;" horiz-adv-x="977" 
d="M18 287c0 63.333 8.99902 129.17 26.999 197.503s44.833 135.333 80.5 201s77.5 126 125.5 181s105 101.5 171 139.5s135.333 62.667 208 74l99 370h45l-98 -364c9.33301 0.666992 23 1 41 1c74 0 134.167 -18.667 180.5 -56s69.5 -84 69.5 -140
c0 -57.333 -19.833 -109.5 -59.5 -156.5s-87.5 -70.5 -143.5 -70.5c-34 0 -62 10.667 -84 32s-33 50 -33 86c0 53.333 18.333 100.666 55 141.999s80.334 68.666 131.001 81.999c-23.333 27.333 -56 41 -98 41c-25.333 0 -49.666 -5.33301 -72.999 -16l-251 -935
c20.667 -9.33301 44 -14 70 -14c97.333 0 187.666 60 270.999 180l41 -16c-46.667 -74 -105.167 -136.667 -175.5 -188s-150.5 -80 -240.5 -86l-92 -343h-45l92 342c-95.333 2.66699 -171.5 30.667 -228.5 84s-85.5 130.666 -85.5 231.999zM325.999 287.004
c0 -74 15.668 -128.333 47.001 -163l235 877c-78.667 -57.333 -145.334 -153.5 -200.001 -288.5s-82 -276.833 -82 -425.5z" />
    <glyph glyph-name="sterling" unicode="&#xa3;" horiz-adv-x="1376" 
d="M-57 -8c0 25.333 17.8311 53.332 53.498 83.999s85.167 52.334 148.5 65.001c56.667 108 105.334 237 146.001 387l21 80h-199l12 41h198l43 164h-198l12 41h197l12 45c23.333 88.667 53.833 168.5 91.5 239.5s84.167 134.667 139.5 191s122.166 100 200.499 131
s165.166 46.5 260.499 46.5c74.667 0 133.667 -17.833 177 -53.5s65 -79.834 65 -132.501c0 -60 -17.667 -109.5 -53 -148.5s-79.666 -58.5 -132.999 -58.5c-42 0 -75.5 11.167 -100.5 33.5s-37.5 54.166 -37.5 95.499c0 48.667 14.833 91.5 44.5 128.5
s68.167 61.167 115.5 72.5c-3.33301 9.33301 -13.166 17.166 -29.499 23.499s-35.166 9.5 -56.499 9.5c-41.333 0 -78.166 -8.16699 -110.499 -24.5s-60.166 -41.166 -83.499 -74.499s-43.166 -70 -59.499 -110s-32.166 -88.667 -47.499 -146l-70 -268h279l-12 -41h-278
l-11 -43c-12 -46 -26.333 -86.333 -43 -121h289l-13 -41h-297c-24.667 -43.333 -56.334 -85.333 -95.001 -126s-75.5 -74.667 -110.5 -102s-73.833 -62.166 -116.5 -104.499s-79.334 -85.833 -110.001 -130.5c128 110.667 254.333 166 379 166
c52.667 0 104.334 -6.66699 155.001 -20s97.167 -26.666 139.5 -39.999s80.166 -20 113.499 -20c30 0 55.167 7.83301 75.5 23.5s30.5 37.167 30.5 64.5c0 57.333 -47.667 95.666 -143 114.999l10 37c74 -11.333 136.167 -35.666 186.5 -72.999s75.5 -88 75.5 -152
c0 -76 -29.833 -140.833 -89.5 -194.5s-134.834 -80.5 -225.501 -80.5c-42.667 0 -83.834 5.83301 -123.501 17.5s-75.334 26 -107.001 43l-94.5 51c-31.333 17 -66.666 31.333 -105.999 43s-80 17.5 -122 17.5c-58.667 0 -114.667 -10 -168 -30
c-27.333 -46.667 -59 -82 -95 -106s-71.333 -36 -106 -36c-9.33301 0 -16 1.5 -20 4.5s-6 8.5 -6 16.5z" />
    <glyph glyph-name="yen" unicode="&#xa5;" horiz-adv-x="1589" 
d="M206 1102l51.002 158.003c48 146 144.333 219 289 219c39.333 0 74.833 -5.66699 106.5 -17s59.5 -26.833 83.5 -46.5s45.5 -46.334 64.5 -80.001s35.167 -69 48.5 -106s25.666 -82.5 36.999 -136.5s20.666 -107 27.999 -159s15 -114 23 -186c90 254.667 202 456 336 604
c77.333 84.667 158 127 242 127c59.333 0 105.833 -16.833 139.5 -50.5s50.5 -75.834 50.5 -126.501c0 -52 -17.5 -95.667 -52.5 -131s-79.5 -53 -133.5 -53c-45.333 0 -80.333 11.333 -105 34s-37 53 -37 91c0.666992 44.667 15.5 83.834 44.5 117.501
s66.167 57.5 111.5 71.5c-7.33301 5.33301 -19 8 -35 8c-40 0 -81 -15.667 -123 -47c-60.667 -44 -130 -128.333 -208 -253s-148.667 -278.667 -212 -462l-18 -70h273l-10 -41h-273l-31 -123h269l-10 -41h-269l-47 -186c-8.66699 -36.667 -13 -64.334 -13 -83.001
c0 -35.333 11.667 -59 35 -71s64.333 -19.333 123 -22l-10 -41c-78 4 -195.333 6 -352 6c-148 0 -258 -2 -330 -6l10 41c37.333 1.33301 66.333 4.16602 87 8.49902s39.5 13 56.5 26s30.167 30.167 39.5 51.5s18.666 51.333 27.999 90l47 186h-288l11 41h287l31 123h-284
l11 41h283l13 51c-10 84 -21.333 162 -34 234s-28.5 142.5 -47.5 211.5s-41.667 123.333 -68 163s-55.166 59.5 -86.499 59.5c-42 0 -73.333 -32 -94 -96l-43 -129h-45z" />
    <glyph glyph-name="dieresis" unicode="&#xa8;" horiz-adv-x="799" 
d="M10 1384c0 52 17.5 93.668 52.5 125.001s76.833 47 125.5 47c42.667 0 75.667 -12.5 99 -37.5s35 -57.5 35 -97.5c0 -53.333 -17.833 -95.333 -53.5 -126s-77.5 -46 -125.5 -46c-43.333 0 -76.333 12.167 -99 36.5s-34 57.166 -34 98.499zM477 1384
c0 52.667 17.167 94.5 51.5 125.5s75.833 46.5 124.5 46.5c42.667 0 75.5 -12.333 98.5 -37s34.5 -57.334 34.5 -98.001c0 -53.333 -17.667 -95.333 -53 -126s-77 -46 -125 -46c-42.667 0 -75.167 12.333 -97.5 37s-33.5 57.334 -33.5 98.001z" />
    <glyph glyph-name="copyright" unicode="&#xa9;" horiz-adv-x="1866" 
d="M166 786c0 110.667 21.5 216.334 64.5 317.001s100.833 187.5 173.5 260.5s159.334 131 260.001 174s206.334 64.5 317.001 64.5s216.334 -21.5 317.001 -64.5s187.334 -101 260.001 -174s130.5 -159.833 173.5 -260.5s64.5 -206.334 64.5 -317.001
s-21.5 -216.334 -64.5 -317.001s-100.833 -187.334 -173.5 -260.001s-159.334 -130.5 -260.001 -173.5s-206.334 -64.5 -317.001 -64.5s-216.334 21.5 -317.001 64.5s-187.334 100.833 -260.001 173.5s-130.5 159.334 -173.5 260.001s-64.5 206.334 -64.5 317.001zM248 786
c0 -135.333 32.667 -260.499 98 -375.499s154.166 -206 266.499 -273s235.166 -100.5 368.499 -100.5c99.333 0 194.333 19.833 285 59.5s168.667 93 234 160s117.333 146.667 156 239s58 189.166 58 290.499c0 102 -19.333 199.167 -58 291.5s-90.667 172 -156 239
s-143.333 120.333 -234 160s-185.667 59.5 -285 59.5c-133.333 0 -256.166 -33.5 -368.499 -100.5s-201.166 -158 -266.499 -273s-98 -240.5 -98 -376.5zM520 782.001c0 179.333 46.8379 318.165 140.505 416.498s216.167 147.5 367.5 147.5
c45.333 0 89.166 -5.16699 131.499 -15.5s81.5 -25.333 117.5 -45s65 -46.334 87 -80.001s33 -71.5 33 -113.5c0 -48 -15.167 -87.333 -45.5 -118s-69.166 -46 -116.499 -46c-48 0 -86.333 14 -115 42s-43 65 -43 111c0 40.667 12.667 75.834 38 105.501
s57.666 49.834 96.999 60.501c-13.333 14.667 -33.166 26.834 -59.499 36.501s-54.166 14.5 -83.499 14.5c-36.667 0 -68.667 -7.5 -96 -22.5s-52.333 -40.333 -75 -76s-39.834 -86.167 -51.501 -151.5s-17.5 -145 -17.5 -239c0 -82.667 7.66699 -154.167 23 -214.5
s36.166 -107 62.499 -140s54.833 -57 85.5 -72s64 -22.5 100 -22.5c112.667 0 202 68.333 268 205l37 -14c-12.667 -40.667 -29.834 -79 -51.501 -115s-48.834 -70 -81.501 -102s-72.667 -57.5 -120 -76.5s-99 -28.5 -155 -28.5c-68 0 -130.333 11 -187 33
s-106.834 54.833 -150.501 98.5s-77.834 101.5 -102.501 173.5s-37 154.667 -37 248z" />
    <glyph glyph-name="guillemotleft" unicode="&#xab;" horiz-adv-x="1200" 
d="M39 506l6 23.999c211.333 133.333 435.333 319 672 557h37c-41.333 -90 -103.833 -193.833 -187.5 -311.5s-157.167 -203.5 -220.5 -257.5c42 -50.667 82 -132.667 120 -246s61 -213.666 69 -300.999h-37c-148 230.667 -301 409 -459 535zM487 505.999l7.00195 24
c190 119.333 394 288.666 612 507.999h37c-34.667 -80.667 -89.334 -175.167 -164.001 -283.5s-140.334 -187.166 -197.001 -236.499c36.667 -45.333 72 -120 106 -224s54 -195.333 60 -274h-37c-67.333 102.667 -134.5 193.667 -201.5 273s-141.167 150.333 -222.5 213z
" />
    <glyph glyph-name="uni00AD" unicode="&#xad;" 
d="M109 457l45 170h739l-45 -170h-739z" />
    <glyph glyph-name="registered" unicode="&#xae;" horiz-adv-x="1403" 
d="M244 1030c0 103.333 25.5 199 76.5 287s120.333 157.5 208 208.5s183.167 76.5 286.5 76.5s198.833 -25.5 286.5 -76.5s157 -120.5 208 -208.5s76.5 -183.667 76.5 -287s-25.5 -198.833 -76.5 -286.5s-120.333 -157 -208 -208s-183.167 -76.5 -286.5 -76.5
s-198.833 25.5 -286.5 76.5s-157 120.333 -208 208s-76.5 183.167 -76.5 286.5zM330 1030c0 -90.667 21.5 -174.834 64.5 -252.501s101.833 -139.334 176.5 -185.001s156 -68.5 244 -68.5s169.333 22.833 244 68.5s133.5 107.334 176.5 185.001s64.5 161.834 64.5 252.501
c0 91.333 -21.5 175.666 -64.5 252.999s-101.667 138.833 -176 184.5s-155.833 68.5 -244.5 68.5s-170.167 -22.833 -244.5 -68.5s-133 -107.167 -176 -184.5s-64.5 -161.666 -64.5 -252.999zM537 721l-0.000976562 31c19.333 2 32 7.33301 38 16s9 28.334 9 59.001v449
c0 32 -3 52.5 -9 61.5s-18.667 14.5 -38 16.5v30c18.667 -1.33301 61 -2 127 -2c28.667 0 63.667 0.333008 105 1s65 1 71 1c166.667 0 250 -53.667 250 -161c0 -16.667 -3.16699 -32.834 -9.5 -48.501s-16.833 -31.5 -31.5 -47.5s-36.5 -30.167 -65.5 -42.5
s-63.833 -21.833 -104.5 -28.5c63.333 -6 107.833 -18.167 133.5 -36.5s41.834 -46.166 48.501 -83.499l31 -133c6 -32.667 16 -49 30 -49c9.33301 0 17 4 23 12l16 -21c-20 -24 -55.333 -36 -106 -36c-43.333 0 -76.166 7 -98.499 21s-36.833 36.333 -43.5 67l-30 149
c-7.33301 34.667 -18.5 58.167 -33.5 70.5s-46.833 19.833 -95.5 22.5v-212c0 -30.667 2.83301 -50.334 8.5 -59.001s18.5 -14 38.5 -16v-31c-10 0 -29.833 0.333008 -59.5 1s-52.834 1 -69.501 1c-18.667 0 -44 -0.333008 -76 -1s-51.667 -1 -59 -1zM753.999 1073h24
c93.333 0 140 45.667 140 137c0 96 -37 144 -111 144c-21.333 0 -35.5 -4 -42.5 -12s-10.5 -23.333 -10.5 -46v-223z" />
    <glyph glyph-name="acute" unicode="&#xb4;" horiz-adv-x="457" 
d="M260 1247c40 56.667 78.5 115.834 115.5 177.501l91.5 150.5c24 38.667 48.667 70.667 74 96c34 36 71 54 111 54c28.667 0 53.667 -10.333 75 -31c18 -18 27 -38.667 27 -62c0 -36.667 -20 -74 -60 -112c-28 -28.667 -87.833 -72.334 -179.5 -131.001
s-169.5 -112.667 -233.5 -162z" />
    <glyph glyph-name="cedilla" unicode="&#xb8;" horiz-adv-x="467" 
d="M-92 -344l11.999 31c1.33301 -0.666992 6.16602 -2.16699 14.499 -4.5l21.5 -6c6 -1.66699 14 -3.66699 24 -6s20.5 -4 31.5 -5s22.167 -1.5 33.5 -1.5c14 0 28.833 1.33301 44.5 4s32.834 7 51.501 13s34 15.667 46 29s18 29.333 18 48
c0 14.667 -5.33301 26.167 -16 34.5s-24.667 12.5 -42 12.5c-23.333 0 -44.333 -4.66699 -63 -14l139 209h60l-90 -141c40 13.333 76.667 20 110 20c36.667 0 66.334 -7.5 89.001 -22.5s34 -36.167 34 -63.5c0 -40.667 -17.667 -75 -53 -103s-77.333 -47.5 -126 -58.5
s-101 -16.5 -157 -16.5c-38.667 0 -74.5 4.16699 -107.5 12.5s-57.833 17.833 -74.5 28.5z" />
    <glyph glyph-name="guillemotright" unicode="&#xbb;" horiz-adv-x="1198" 
d="M20 20c34 80.667 88.001 174.834 162.001 282.501s139 186.5 195 236.5c-36 46.667 -70.833 122 -104.5 226s-53.5 195 -59.5 273h37c69.333 -104 137.333 -195.667 204 -275s140 -150 220 -212l-6 -25c-196.667 -122.667 -400.334 -291.334 -611.001 -506.001h-37z
M408.001 -29c40.667 90 102.834 194.001 186.501 312.001s157.167 203.333 220.5 256c-42 50.667 -82 133 -120 247s-60.667 214.333 -68 301h37c72.667 -112.667 145.5 -212.834 218.5 -300.501s153.5 -166.167 241.5 -235.5l-6 -25
c-216.667 -134.667 -441.334 -319.667 -674.001 -555h-36z" />
    <glyph glyph-name="circumflex" unicode="&#x2c6;" horiz-adv-x="823" 
d="M72 1278c98.667 42.667 191.168 100 277.501 172s156.833 148.333 211.5 229h37c18.667 -96.667 46.667 -176.167 84 -238.5s90.666 -116.5 159.999 -162.5l-8 -29c-148 32 -275 82.667 -381 152c-114 -63.333 -237.667 -114 -371 -152z" />
    <glyph glyph-name="ring" unicode="&#x2da;" horiz-adv-x="535" 
d="M43 1409c0 63.333 24.168 116.334 72.501 159.001s106.833 64 175.5 64c57.333 0 105.166 -15.833 143.499 -47.5s57.5 -73.834 57.5 -126.501c0 -62 -25.667 -115 -77 -159s-111 -66 -179 -66c-56 0 -102.167 15.833 -138.5 47.5s-54.5 74.5 -54.5 128.5zM98.001 1409
c0 -41.333 14.666 -73.834 43.999 -97.501s64 -35.5 104 -35.5c50 0 94.5 17.5 133.5 52.5s58.5 77.5 58.5 127.5c0 42 -15.667 74.667 -47 98s-66.666 35 -105.999 35c-50 0 -93.667 -18.167 -131 -54.5s-56 -78.166 -56 -125.499z" />
    <glyph glyph-name="tilde" unicode="&#x2dc;" horiz-adv-x="842" 
d="M170 1325c35.333 96 81 167.5 137 214.5s115.333 70.5 178 70.5c30 0 57.667 -5.16699 83 -15.5s46.5 -22.833 63.5 -37.5l49.5 -44c16 -14.667 33.833 -27.167 53.5 -37.5s40.5 -15.5 62.5 -15.5c53.333 0 101.666 39.667 144.999 119l37 -10
c-35.333 -96 -81 -167.5 -137 -214.5s-115.333 -70.5 -178 -70.5c-30 0 -57.667 5.16699 -83 15.5s-46.5 22.833 -63.5 37.5l-49.5 44c-16 14.667 -33.833 27.167 -53.5 37.5s-40.5 15.5 -62.5 15.5c-53.333 0 -101.666 -39.667 -144.999 -119z" />
    <glyph glyph-name="afii10023" unicode="&#x401;" horiz-adv-x="1282" 
d="M-88 0l9.99707 41.001c49.333 2 85.833 7.5 109.5 16.5s43 25 58 48s29.5 60.167 43.5 111.5l270 1016c11.333 43.333 17 76.333 17 99c0 29.333 -9.83301 49 -29.5 59s-55.5 16 -107.5 18l10 41c148.667 -4 370.334 -6 665.001 -6c194 0 332.667 2 416 6
c-36 -98 -62 -178.667 -78 -242c-7.33301 -30.667 -16 -73 -26 -127h-45c2 26 3 50.333 3 73c0 92 -17.167 156.5 -51.5 193.5s-93.5 55.5 -177.5 55.5h-63c-69.333 0 -116.333 -9.83301 -141 -29.5s-46.667 -66.5 -66 -140.5l-128 -483h75c36 0 69.5 7.33301 100.5 22
s57.833 34.667 80.5 60s41.834 51.166 57.501 77.499s29.5 54.833 41.5 85.5h48c-21.333 -63.333 -46.666 -152 -75.999 -266c-16.667 -60.667 -36.667 -149.334 -60 -266.001h-45c1.33301 18.667 2 33.334 2 44.001c0 134.667 -57.333 202 -172 202h-63l-131 -492
c-12.667 -45.333 -19 -78.666 -19 -99.999c0 -28 9.83301 -46.667 29.5 -56s54.834 -14 105.501 -14h76c109.333 0 195.5 26.167 258.5 78.5s124.5 147.166 184.5 284.499h47c-14.667 -36 -29.667 -85.333 -45 -148c-21.333 -72 -39.333 -159.333 -54 -262
c-92.667 4 -247.334 6 -464.001 6c-295.333 0 -517.333 -2 -666 -6zM535.997 1704c0 53.333 17.167 95.668 51.5 127.001s75.833 47 124.5 47c42.667 0 75.5 -12.5 98.5 -37.5s34.5 -58.167 34.5 -99.5c0 -53.333 -17.5 -95.333 -52.5 -126s-76.833 -46 -125.5 -46
c-43.333 0 -76 12.167 -98 36.5s-33 57.166 -33 98.499zM1026 1704c0 53.333 17.167 95.668 51.5 127.001s75.833 47 124.5 47c42.667 0 75.5 -12.5 98.5 -37.5s34.5 -58.167 34.5 -99.5c0 -53.333 -17.5 -95.333 -52.5 -126s-76.167 -46 -123.5 -46
c-44 0 -77.167 12.167 -99.5 36.5s-33.5 57.166 -33.5 98.499z" />
    <glyph glyph-name="afii10051" unicode="&#x402;" horiz-adv-x="1898" 
d="M180 1198c0 38.667 10.3369 75.8311 31.0039 111.498s54.667 64.834 102 87.501c66 32.667 157.667 49 275 49c86.667 0 208.667 -7.5 366 -22.5s270 -22.5 338 -22.5c82 0 146.333 9.66699 193 29c-45.333 44 -68 97 -68 159c0 50 14.667 90.5 44 121.5
s68.666 46.5 117.999 46.5c47.333 0 85.166 -13.833 113.499 -41.5s42.5 -63.5 42.5 -107.5c0 -39.333 -12 -74.833 -36 -106.5s-57.333 -57.834 -100 -78.501c-78.667 -42 -185.667 -63 -321 -63c-50.667 0 -108.667 2.66699 -174 8l-171 -647
c60.667 38.667 131.167 70.167 211.5 94.5s164.5 36.5 252.5 36.5c130 0 233.167 -28.333 309.5 -85s114.5 -139.667 114.5 -249c0 -73.333 -17.5 -143.833 -52.5 -211.5s-81.333 -125.834 -139 -174.501s-125.5 -87.667 -203.5 -117s-158.667 -44 -242 -44
c-51.333 0 -98.166 6.33301 -140.499 19s-78 34.5 -107 65.5s-43.5 69.167 -43.5 114.5c0 58.667 22.167 108.834 66.5 150.501s97.166 62.5 158.499 62.5c39.333 0 69.666 -9.66699 90.999 -29s32 -47.333 32 -84c0 -52.667 -20.333 -99.5 -61 -140.5
s-89.334 -69.167 -146.001 -84.5c32 -20.667 71 -31 117 -31c67.333 0 126.666 23.833 177.999 71.5s89.5 106.834 114.5 177.501s37.5 145.334 37.5 224.001c0 190 -85.333 285 -256 285c-55.333 0 -110.5 -8.5 -165.5 -25.5s-100.833 -39.167 -137.5 -66.5l-187 -703
c-72 19.333 -171.667 29 -299 29c-72 0 -147 -2 -225 -6l10 41c57.333 1.33301 102.333 8.5 135 21.5s57.5 32.167 74.5 57.5s32.5 63 46.5 113l311 1166c-75.333 6.66699 -140.666 10 -195.999 10c-112 0 -188.667 -11.667 -230 -35c36.667 -10 66.667 -29.833 90 -59.5
s35 -65.167 35 -106.5c0 -48 -15 -88.667 -45 -122s-68.667 -50 -116 -50c-46 0 -81.833 15.5 -107.5 46.5s-38.5 69.5 -38.5 115.5z" />
    <glyph glyph-name="afii10052" unicode="&#x403;" horiz-adv-x="1143" 
d="M-88 0l10 41c49.333 2 85.833 7.5 109.5 16.5s43 25 58 48s29.5 60.167 43.5 111.5l270 1016c11.333 43.333 17 76.333 17 99c0 29.333 -9.83301 49 -29.5 59s-55.5 16 -107.5 18l10 41c110 -4 219.333 -6 328 -6h337c170.667 0 293 2 367 6
c-28.667 -78 -55.334 -161.333 -80.001 -250c-24.667 -94.667 -39 -154.667 -43 -180h-47c5.33301 40.667 8 82 8 124c0 92.667 -16.667 159 -50 199s-82 60 -146 60h-54c-55.333 0 -95.166 -10.5 -119.499 -31.5s-45.833 -67.167 -64.5 -138.5l-270 -1016
c-10.667 -40.667 -16 -71 -16 -91c0 -32.667 12.5 -54.5 37.5 -65.5s70.833 -17.5 137.5 -19.5l-8 -41c-84 4 -205.333 6 -364 6c-150.667 0 -262 -2 -334 -6zM648 1606c62 48.667 132.5 110.331 211.5 184.998s138.167 122.667 177.5 144
c27.333 15.333 56.666 23 87.999 23c47.333 0 80 -18.333 98 -55c7.33301 -14.667 11 -28.667 11 -42c0 -43.333 -30.667 -82 -92 -116c-35.333 -19.333 -105.166 -44.166 -209.499 -74.499s-194.5 -60.166 -270.5 -89.499z" />
    <glyph glyph-name="afii10053" unicode="&#x404;" horiz-adv-x="1432" 
d="M88 479c0 79.333 11.1699 159.498 33.5029 240.498s53.5 158.333 93.5 232s89.833 142.667 149.5 207s124.834 120.166 195.501 167.499s149.667 84.666 237 111.999s177.333 41 270 41c76.667 0 137.334 -11.5 182.001 -34.5s85.667 -55.833 123 -98.5
c10 -12 20 -18 30 -18c25.333 0 53 40.667 83 122h43c-45.333 -118 -89 -275 -131 -471h-45c10 58.667 15 112 15 160c0 64 -11.333 116.333 -34 157c-48 89.333 -128.333 134 -241 134c-93.333 0 -184 -36.167 -272 -108.5s-162.333 -167.666 -223 -285.999
s-102.667 -246.166 -126 -383.499c94 184 198.333 276 313 276c30 0 58.667 -5.33301 86 -16s52 -23.667 74 -39l65 -46c21.333 -15.333 45.166 -28.333 71.499 -39s53.166 -16 80.499 -16c60.667 0 118 32.667 172 98l27 -18c-62.667 -104 -122.5 -181.5 -179.5 -232.5
s-117.5 -76.5 -181.5 -76.5c-30.667 0 -60.334 5.33301 -89.001 16s-54.5 23.5 -77.5 38.5l-68 45.5c-22.333 15.333 -47.333 28.333 -75 39s-56.167 16 -85.5 16c-26.667 0 -51.167 -7.33301 -73.5 -22s-44.833 -41.667 -67.5 -81
c-6.66699 -49.333 -10 -101.666 -10 -156.999c0 -135.333 24.167 -236.666 72.5 -303.999s116.166 -101 203.499 -101c52 0 106 11.833 162 35.5s104.333 56.834 145 99.501c36 37.333 67.167 79.833 93.5 127.5s56.833 113.167 91.5 196.5h45
c-64.667 -236.667 -105 -400.667 -121 -492h-45c4 29.333 6 52.666 6 69.999c0 34.667 -8.66699 52 -26 52c-10.667 0 -24.667 -6 -42 -18c-62 -42.667 -124.667 -75.5 -188 -98.5s-134.333 -34.5 -213 -34.5c-182.667 0 -319.834 43.667 -411.501 131
s-137.5 213 -137.5 377z" />
    <glyph glyph-name="afii10054" unicode="&#x405;" horiz-adv-x="1202" 
d="M-57 -14c44 104.667 90.335 268.336 139.002 491.003h41c-14.667 -57.333 -21 -111.333 -19 -162c4.66699 -97.333 35 -171.5 91 -222.5s137 -76.5 243 -76.5c176 0 264 71.667 264 215c0 46.667 -8 92.167 -24 136.5s-36.833 84.5 -62.5 120.5s-54 71.833 -85 107.5
l-93 106.5c-31 35.333 -59.333 71.166 -85 107.499s-46.5 76.833 -62.5 121.5s-24 90.667 -24 138c0 54 10.167 103.833 30.5 149.5s47.333 84.167 81 115.5s72.5 58.166 116.5 80.499s89.333 38.666 136 48.999s93.334 15.5 140.001 15.5c116.667 0 224.667 -30 324 -90
c33.333 -22 55.666 -33 66.999 -33s22 8.33301 32 25s22 44.334 36 83.001h41c-52 -126.667 -92.333 -265.667 -121 -417h-41c8 38 12 76 12 114c0 82 -25.333 147.333 -76 196s-123 73 -217 73c-73.333 0 -132.833 -18.333 -178.5 -55s-68.5 -93 -68.5 -169
c0 -39.333 8.83301 -79.166 26.5 -119.499s40.667 -78.333 69 -114s59.5 -71.667 93.5 -108l102.5 -110.5c34.333 -37.333 65.666 -75 93.999 -113s51.333 -79.5 69 -124.5s26.5 -90.167 26.5 -135.5c0 -56 -12.167 -107.5 -36.5 -154.5s-55.833 -85.833 -94.5 -116.5
s-83.167 -56.834 -133.5 -78.501s-100.833 -37.167 -151.5 -46.5s-100.334 -14 -149.001 -14c-61.333 0 -115 4.66699 -161 14s-81.167 19.666 -105.5 30.999s-53.833 28 -88.5 50c-30 20 -53.667 30 -71 30s-31.5 -7.33301 -42.5 -22s-25.5 -44 -43.5 -88h-41z" />
    <glyph glyph-name="afii10055" unicode="&#x406;" horiz-adv-x="799" 
d="M-84 0l10.0039 40.998c47.333 2 82.666 7.33301 105.999 16s42.666 24.834 57.999 48.501s29.666 60.834 42.999 111.501l270 1016c11.333 43.333 17 76.333 17 99c0 29.333 -9.83301 49 -29.5 59s-55.5 16 -107.5 18l10 41c67.333 -4 174.333 -6 321 -6
c136 0 248 2 336 6l-10 -41c-25.333 -1.33301 -46 -3 -62 -5s-31.5 -5.5 -46.5 -10.5s-26.833 -11.167 -35.5 -18.5s-17.334 -17.833 -26.001 -31.5s-16 -29 -22 -46s-12.333 -38.5 -19 -64.5l-270 -1016c-12 -46.667 -18 -80 -18 -100c0 -28.667 10 -48 30 -58
s56.333 -16 109 -18l-9 -41c-78.667 4 -189.667 6 -333 6c-142.667 0 -250 -2 -322 -6z" />
    <glyph glyph-name="afii10056" unicode="&#x407;" horiz-adv-x="799" 
d="M-84 0l10.0039 40.998c47.333 2 82.666 7.33301 105.999 16s42.666 24.834 57.999 48.501s29.666 60.834 42.999 111.501l270 1016c11.333 43.333 17 76.333 17 99c0 29.333 -9.83301 49 -29.5 59s-55.5 16 -107.5 18l10 41c67.333 -4 174.333 -6 321 -6
c136 0 248 2 336 6l-10 -41c-25.333 -1.33301 -46 -3 -62 -5s-31.5 -5.5 -46.5 -10.5s-26.833 -11.167 -35.5 -18.5s-17.334 -17.833 -26.001 -31.5s-16 -29 -22 -46s-12.333 -38.5 -19 -64.5l-270 -1016c-12 -46.667 -18 -80 -18 -100c0 -28.667 10 -48 30 -58
s56.333 -16 109 -18l-9 -41c-78.667 4 -189.667 6 -333 6c-142.667 0 -250 -2 -322 -6zM301.004 1704c0 53.333 17.167 95.668 51.5 127.001s75.833 47 124.5 47c42.667 0 75.5 -12.5 98.5 -37.5s34.5 -58.167 34.5 -99.5c0 -53.333 -17.5 -95.333 -52.5 -126
s-76.833 -46 -125.5 -46c-43.333 0 -76 12.167 -98 36.5s-33 57.166 -33 98.499zM791.004 1704c0 53.333 17.167 95.668 51.5 127.001s75.833 47 124.5 47c42.667 0 75.5 -12.5 98.5 -37.5s34.5 -58.167 34.5 -99.5c0 -53.333 -17.5 -95.333 -52.5 -126
s-76.167 -46 -123.5 -46c-44 0 -77.167 12.167 -99.5 36.5s-33.5 57.166 -33.5 98.499z" />
    <glyph glyph-name="afii10057" unicode="&#x408;" horiz-adv-x="1399" 
d="M55 -231c0 44.667 15.3271 81.6699 45.9941 111.003s72.667 44 126 44c46.667 0 84.834 -10.833 114.501 -32.5s44.834 -51.834 45.501 -90.501c0 -63.333 -37.667 -111.666 -113 -144.999c12.667 -4 32 -6 58 -6s49.333 4.16699 70 12.5s39.834 24.166 57.501 47.499
s32.334 44.5 44.001 63.5s25 51.167 40 96.5s26.333 81 34 107s19.834 70.333 36.501 133l9 33l110 394c16.667 61.333 36.667 118.666 60 171.999h-279l6 41h291c25.333 52.667 54.5 102.5 87.5 149.5s66.667 89.167 101 126.5s74.666 75.166 120.999 113.499
s90.166 72.166 131.499 101.499s91 62.666 149 99.999c-43.333 -14.667 -90.166 -33.834 -140.499 -57.501l-124.5 -60c-32.667 -16.333 -71.667 -30.833 -117 -43.5s-91.333 -19 -138 -19c-38.667 0 -79 5.33301 -121 16s-78.333 22.5 -109 35.5
s-65.167 24.833 -103.5 35.5s-73.5 16 -105.5 16c-38.667 0 -69.167 -10 -91.5 -30s-33.5 -49 -33.5 -87c2 -91.333 79.333 -144 232 -158l-6 -39c-108 8.66699 -194.5 37.834 -259.5 87.501s-97.5 119.167 -97.5 208.5c0 80.667 25.167 145.334 75.5 194.001
s122.166 73 215.499 73c48.667 0 95 -7 139 -21s83.333 -31.167 118 -51.5l104.5 -61c35 -20.333 74.833 -37.5 119.5 -51.5s91.334 -21 140.001 -21c116.667 0 232 26.333 346 79c51.333 80 94 120 128 120c9.33301 0 18.333 -3.66699 27 -11s13 -15.666 13 -24.999
c0 -33.333 -50 -68.666 -150 -105.999c-80.667 -64.667 -149.167 -148.167 -205.5 -250.5s-105.5 -223.5 -147.5 -363.5h204l-6 -41h-210c-5.33301 -17.333 -12.666 -44 -21.999 -80l-127 -496c-14.667 -58 -33.167 -111.833 -55.5 -161.5s-50.666 -96.834 -84.999 -141.501
s-73.333 -82.5 -117 -113.5s-95.167 -55.667 -154.5 -74s-124 -27.5 -194 -27.5c-86.667 0 -156.167 12.333 -208.5 37s-78.5 63.667 -78.5 117z" />
    <glyph glyph-name="afii10058" unicode="&#x409;" horiz-adv-x="2019" 
d="M-129 148c0 52 17.5029 95.668 52.5029 131.001s79.5 53 133.5 53c44.667 0 79.5 -11.5 104.5 -34.5s36.833 -53.167 35.5 -90.5c0 -44 -14.5 -83 -43.5 -117s-65.833 -58 -110.5 -72c20 -4 31 -6 33 -6c53.333 2 100.333 20.667 141 56
c79.333 71.333 163.166 207.333 251.499 408s174.5 453 258.5 757c11.333 43.333 17 76 17 98c0 29.333 -10 49.166 -30 59.499s-56 16.5 -108 18.5l10 41c42.667 -4 106.334 -6 191.001 -6c7.33301 0 27.333 1 60 3s65.334 3 98.001 3c55.333 0 117.666 -1 186.999 -3
s115.333 -3 138 -3c135.333 0 244 2 326 6l-10 -41c-38 -1.33301 -67.333 -4.16602 -88 -8.49902s-39.167 -13.166 -55.5 -26.499s-29.166 -30.333 -38.499 -51s-19 -50.667 -29 -90l-123 -463h96c137.333 0 247.666 -11.833 330.999 -35.5s142.166 -57 176.499 -100
s51.5 -98.167 51.5 -165.5c0 -72 -18 -138 -54 -198s-84.667 -109.5 -146 -148.5s-132.5 -69.167 -213.5 -90.5s-167.167 -32 -258.5 -32c-22 0 -71.333 1 -148 3s-146.667 3 -210 3c-138 0 -243.667 -2 -317 -6l8 41c49.333 2 85.833 7.33301 109.5 16
s43.167 24.667 58.5 48s29.666 60.666 42.999 111.999l270 1016c10 38 15 68.667 15 92c0 32 -9 54 -27 66s-46 18 -84 18h-29c-52 0 -89.5 -11.333 -112.5 -34s-44.167 -70 -63.5 -142c-46.667 -172 -94.667 -330.5 -144 -475.5s-107.833 -285.333 -175.5 -421
s-134.5 -233.5 -200.5 -293.5c-54.667 -48 -116.334 -72 -185.001 -72c-60 0 -107 16.667 -141 50s-51 75.666 -51 126.999zM1107 122.001c0 -24 7.33301 -42.501 22 -55.501s39.667 -19.5 75 -19.5c80.667 0 150.5 21 209.5 63s102.667 97 131 165s42.5 144.333 42.5 229
c0 78.667 -20.667 136.834 -62 174.501s-114 56.5 -218 56.5h-45l-138 -518c-11.333 -44 -17 -75.667 -17 -95z" />
    <glyph glyph-name="afii10059" unicode="&#x40a;" horiz-adv-x="2198" 
d="M-84 0l10.0039 41c47.333 2 82.666 7.33301 105.999 16s42.666 24.834 57.999 48.501s29.666 60.834 42.999 111.501l270 1016c11.333 43.333 17 76.333 17 99c0 29.333 -9.83301 49 -29.5 59s-55.5 16 -107.5 18l10 41c67.333 -4 174.333 -6 321 -6c136 0 248 2 336 6
l-10 -41c-25.333 -1.33301 -46 -3 -62 -5s-31.5 -5.5 -46.5 -10.5s-26.833 -11.167 -35.5 -18.5s-17.334 -17.833 -26.001 -31.5s-16 -29 -22 -46s-12.333 -38.5 -19 -64.5l-128 -483h534l129 483c11.333 43.333 17 76 17 98c0 29.333 -10 49.166 -30 59.499
s-56 16.5 -108 18.5l10 41c68 -4 174.667 -6 320 -6c136.667 0 249 2 337 6l-10 -41c-25.333 -1.33301 -46 -3 -62 -5s-31.5 -5.5 -46.5 -10.5s-26.833 -11.167 -35.5 -18.5s-17.334 -17.833 -26.001 -31.5s-16 -29 -22 -46s-12.333 -38.5 -19 -64.5l-128 -483h155
c324.667 0 487 -95 487 -285c0 -73.333 -19.5 -140 -58.5 -200s-91.667 -109 -158 -147s-141.833 -67.167 -226.5 -87.5s-173.667 -30.5 -267 -30.5c-16.667 0 -57 1 -121 3s-122.667 3 -176 3c-138.667 0 -246 -2 -322 -6l10 41c48.667 2 84.834 7.33301 108.501 16
s43 24.667 58 48s29.167 60.666 42.5 111.999l131 492h-534l-131 -492c-12 -46.667 -18 -80 -18 -100c0 -28.667 10 -48 30 -58s56.333 -16 109 -18l-9 -41c-76.667 4 -187.667 6 -333 6c-142.667 0 -250 -2 -322 -6zM1302 121c0 -50.667 29.001 -76 87.001 -76
c73.333 0 138.666 21.333 195.999 64s101.333 99.5 132 170.5s46 149.167 46 234.5c0 68 -16.833 117.5 -50.5 148.5s-91.167 46.5 -172.5 46.5h-90l-131 -492c-11.333 -45.333 -17 -77.333 -17 -96z" />
    <glyph glyph-name="afii10060" unicode="&#x40b;" horiz-adv-x="1831" 
d="M180 1198c0 38.667 10.335 75.8311 31.002 111.498s54.667 64.834 102 87.501c66 32.667 157.667 49 275 49c86 0 208 -7.5 366 -22.5s271.333 -22.5 340 -22.5c80.667 0 144.334 9.66699 191.001 29c-45.333 44 -68 97 -68 159c0 50 14.667 90.5 44 121.5
s68.666 46.5 117.999 46.5c47.333 0 85.166 -13.833 113.499 -41.5s42.5 -63.5 42.5 -107.5c0 -76 -42.333 -136.333 -127 -181c-78.667 -44.667 -187.334 -67 -326.001 -67c-52.667 0 -112 2.66699 -178 8l-163 -612c124.667 56 254.667 84 390 84s235 -32.333 299 -97
c42.667 -42.667 64 -96.667 64 -162c0 -38 -7.66699 -87.667 -23 -149l-59 -242c-7.33301 -31.333 -11 -55.666 -11 -72.999c0 -26.667 7.16699 -45.334 21.5 -56.001s36.833 -16.667 67.5 -18l-11 -43c-141.333 5.33301 -238 8 -290 8c-46 0 -142.333 -2.66699 -289 -8
l10 43c52.667 0 91.5 10.833 116.5 32.5s44.833 59.834 59.5 114.501l74 277c16.667 60.667 25 111 25 151c0 52 -15.333 91 -46 117s-81 39 -151 39c-44 0 -89.833 -4.66699 -137.5 -14s-87.167 -22.333 -118.5 -39l-129 -483c-10.667 -40.667 -16 -72.334 -16 -95.001
c0 -36 12.667 -61.167 38 -75.5s69 -23.166 131 -26.499l-8 -41c-86 4 -211.667 6 -377 6c-163.333 0 -284 -2 -362 -6l8 41c85.333 2.66699 145 17.167 179 43.5s61 77.5 81 153.5l311 1161c-75.333 6.66699 -139.333 10 -192 10c-114.667 0 -192.667 -11.667 -234 -35
c36.667 -10 66.667 -29.833 90 -59.5s35 -65.167 35 -106.5c0 -48 -15 -88.667 -45 -122s-68.667 -50 -116 -50c-46 0 -81.833 15.5 -107.5 46.5s-38.5 69.5 -38.5 115.5z" />
    <glyph glyph-name="afii10061" unicode="&#x40c;" horiz-adv-x="1516" 
d="M-84 0l10.0039 40.998c47.333 2 82.666 7.33301 105.999 16s42.666 24.834 57.999 48.501s29.666 60.834 42.999 111.501l270 1016c11.333 43.333 17 76.333 17 99c0 29.333 -9.83301 49 -29.5 59s-55.5 16 -107.5 18l10 41c68.667 -4 180 -6 334 -6
c131.333 0 239 2 323 6l-10 -41c-25.333 -1.33301 -46 -3 -62 -5s-31.5 -5.5 -46.5 -10.5s-26.833 -11.167 -35.5 -18.5s-17.334 -17.833 -26.001 -31.5s-16 -29 -22 -46s-12.333 -38.5 -19 -64.5l-270 -1016c-12 -46.667 -18 -80 -18 -100c0 -28.667 10 -48 30 -58
s56.333 -16 109 -18l-9 -41c-74.667 4 -181.667 6 -321 6c-148.667 0 -260 -2 -334 -6zM646.004 746.998c0 0.666992 0.169922 2.00195 0.50293 4.00195s0.5 3.66699 0.5 5c4 27.333 24 41 60 41c26 0 66 -7 120 -21c49.333 6.66699 92.5 24.167 129.5 52.5
s65.5 61.5 85.5 99.5s38.667 80.833 56 128.5s31.666 93.167 42.999 136.5s26.333 86 45 128s39.667 74.667 63 98c40 40 88.667 60 146 60c60 0 107.333 -17.167 142 -51.5s51.334 -79.5 50.001 -135.5c0 -50 -16.667 -95.5 -50 -136.5s-78.666 -61.5 -135.999 -61.5
c-38.667 0 -70.834 12 -96.501 36s-38.5 56.333 -38.5 97s13.667 80.167 41 118.5s64 67.833 110 88.5c-8 4 -19 6 -33 6c-40.667 0 -75.334 -15 -104.001 -45c-24 -26 -45.833 -64.333 -65.5 -115s-37.334 -102 -53.001 -154s-34 -103.667 -55 -155s-50 -96 -87 -134
s-81.167 -63 -132.5 -75c105.333 -12 180.166 -38.5 224.499 -79.5s66.5 -105.5 66.5 -193.5c0 -26.667 -1.33301 -52.334 -4 -77.001l-23 -215c0 -2 -0.166992 -4.5 -0.5 -7.5s-0.5 -5.16699 -0.5 -6.5c0 -41.333 17.333 -62 52 -62c26 0 48 10 66 30s34.333 51 49 93
l35 104h41l-54 -158c-24.667 -74 -61 -129 -109 -165s-103 -54 -165 -54c-77.333 0 -136.333 18.667 -177 56s-61 88.666 -61 153.999c0 9.33301 1.33301 25.333 4 48l39 287c4 34 6 62.667 6 86c0 62 -17.333 106.333 -52 133c-56 -14.667 -97.667 -22 -125 -22
c-35.333 0 -53 11.333 -53 34zM809.007 1606c62 48.667 132.499 110.331 211.499 184.998s138.167 122.667 177.5 144c27.333 15.333 56.666 23 87.999 23c46.667 0 79.334 -18.333 98.001 -55c7.33301 -14.667 11 -28.667 11 -42c0 -43.333 -30.667 -82 -92 -116
c-35.333 -19.333 -105.166 -44.166 -209.499 -74.499s-194.5 -60.166 -270.5 -89.499z" />
    <glyph glyph-name="afii10062" unicode="&#x40e;" horiz-adv-x="1354" 
d="M123 143c0 50.667 17.6641 92.666 52.9971 125.999s78.333 50 129 50c43.333 0 78.333 -11 105 -33s40.334 -51.667 41.001 -89c0 -46 -14.833 -84.5 -44.5 -115.5s-68.167 -52.167 -115.5 -63.5c15.333 -6.66699 38.333 -10 69 -10c64 0 118 17.167 162 51.5
s90.667 88.833 140 163.5l-343 1034c-16 48.667 -34.833 83.834 -56.5 105.501s-48.5 37.167 -80.5 46.5l11 41c69.333 -4 171 -6 305 -6c112 0 204 2 276 6l-10 -41c-50 -3.33301 -84.833 -9.66602 -104.5 -18.999s-29.5 -27 -29.5 -53c0 -23.333 7 -56 21 -98l226 -692
l432 657c31.333 48 47 87.333 47 118c0 52.667 -53.333 81.667 -160 87l10 41c38.667 -4 122 -6 250 -6c56.667 0 105.334 2 146.001 6l-11 -41c-40.667 -10 -78.5 -29.167 -113.5 -57.5s-74.167 -75.5 -117.5 -141.5l-642 -977
c-28.667 -44.667 -53.167 -80.334 -73.5 -107.001s-44.666 -53.167 -72.999 -79.5s-59.333 -45.5 -93 -57.5s-71.5 -18 -113.5 -18c-74 0 -132.5 15.5 -175.5 46.5s-65.167 72.833 -66.5 125.5zM504.997 1739c0 46 17.334 83.999 52.001 113.999s78 45 130 45
c101.333 0 152 -40.667 152 -122c0 -34.667 -13.167 -66.5 -39.5 -95.5s-59.5 -49.167 -99.5 -60.5c37.333 -22 100.666 -33 189.999 -33c107.333 0.666992 207.5 24.667 300.5 72s174.5 112 244.5 194l29 -22c-77.333 -96.667 -167.5 -168.667 -270.5 -216
s-208.167 -71 -315.5 -71c-108 0 -197.167 16.833 -267.5 50.5s-105.5 81.834 -105.5 144.501z" />
    <glyph glyph-name="afii10145" unicode="&#x40f;" horiz-adv-x="1659" 
d="M-88 0l9.99512 40.999c25.333 1.33301 46 3 62 5s31.5 5.5 46.5 10.5s26.833 11.167 35.5 18.5s17.334 17.833 26.001 31.5s16 29 22 46s12.333 38.5 19 64.5l270 1016c12 46.667 18 80 18 100c0 28.667 -10 48 -30 58s-56 16 -108 18l8 41c70.667 -4 182.667 -6 336 -6
c138 0 245 2 321 6l-8 -41c-49.333 -2 -85.833 -7.33301 -109.5 -16s-43.167 -24.667 -58.5 -48s-29.666 -60.666 -42.999 -111.999l-270 -1016c-12 -42 -18 -75.333 -18 -100c0 -30 10.333 -50.167 31 -60.5s56.667 -15.5 108 -15.5h206c36 0 64.5 2.16699 85.5 6.5
s39.333 13.333 55 27s28 31.167 37 52.5s18.833 51.333 29.5 90l271 1016c11.333 44 17 77 17 99c0 29.333 -10 49 -30 59s-56 16 -108 18l8 41c76 -4 183.333 -6 322 -6c149.333 0 260.333 2 333 6l-10 -41c-47.333 -2 -82.666 -7.33301 -105.999 -16
s-42.666 -24.834 -57.999 -48.501s-29.666 -60.834 -42.999 -111.501l-270 -1016c-11.333 -43.333 -17 -76 -17 -98c0 -29.333 10 -49.166 30 -59.499s56 -16.5 108 -18.5l-10 -41c-70 4 -181.333 6 -334 6c-21.333 0 -59.333 -0.666992 -114 -2
c-84.667 -6.66699 -160 -38.667 -226 -96s-122.667 -146 -170 -266h-47c8 46.667 12 88 12 124c0 148.667 -69 228.334 -207 239.001c-22 0.666992 -53.333 1 -94 1c-151.333 0 -264 -2 -338 -6z" />
    <glyph glyph-name="afii10017" unicode="&#x410;" horiz-adv-x="1337" 
d="M-188 0l8 41.0029c34.667 9.33301 69 29.666 103 60.999s76.667 83.333 128 156l854 1202c18 -2 36 -3 54 -3c18.667 0 35.667 1 51 3l82 -1288c3.33301 -44.667 14.666 -77.334 33.999 -98.001s41.333 -31.667 66 -33l-8 -41c-70 4 -169 6 -297 6
c-139.333 0 -241.666 -2 -306.999 -6l8 41c64.667 3.33301 110.334 14.666 137.001 33.999s40 56.666 40 111.999c0 11.333 -0.333008 20 -1 26l-17 336h-443l-181 -256c-43.333 -61.333 -65 -111.666 -65 -150.999c0 -62 57 -95.667 171 -101l-10 -41
c-114.667 4 -203.334 6 -266.001 6c-50.667 0 -97.667 -2 -141 -6zM333 590.003h411l-28 543z" />
    <glyph glyph-name="afii10018" unicode="&#x411;" horiz-adv-x="1368" 
d="M-86 0l7.99902 41.001c49.333 2 85.833 7.33301 109.5 16s43.167 24.667 58.5 48s29.666 60.666 42.999 111.999l270 1016c11.333 43.333 17 76.333 17 99c0 29.333 -9.83301 49 -29.5 59s-55.5 16 -107.5 18l10 41c106 -4 211.667 -6 317 -6h344c196.667 0 338 2 424 6
c-27.333 -72 -53.333 -152.667 -78 -242c-18.667 -73.333 -31.334 -128 -38.001 -164h-45c4 36 6 69.333 6 100c0 92.667 -18.667 159 -56 199s-92.666 60 -165.999 60h-77c-64 0 -108.167 -10.167 -132.5 -30.5s-45.166 -66.833 -62.499 -139.5l-123 -463h96
c137.333 0 247.833 -11.833 331.5 -35.5s142.667 -57 177 -100s51.5 -98.167 51.5 -165.5c0 -58 -11.667 -112.167 -35 -162.5s-55.666 -94 -96.999 -131s-90 -68.833 -146 -95.5s-117.5 -46.667 -184.5 -60s-136.833 -20 -209.5 -20c-20.667 0 -69.667 1 -147 3
s-148 3 -212 3c-137.333 0 -243 -2 -317 -6zM441.999 124.001c0 -51.333 32.999 -77.001 98.999 -77.001c80.667 0 150.334 21 209.001 63s102 96.833 130 164.5s42 144.167 42 229.5c0 78.667 -20.667 136.834 -62 174.501s-114.333 56.5 -219 56.5h-44l-138 -518
c-11.333 -42.667 -17 -73.667 -17 -93z" />
    <glyph glyph-name="afii10019" unicode="&#x412;" horiz-adv-x="1391" 
d="M-86 0l7.99902 41.002c49.333 2 85.833 7.33301 109.5 16s43.167 24.667 58.5 48s29.666 60.666 42.999 111.999l270 1016c12 48 18 80.667 18 98c0 26.667 -10 46 -30 58s-56 18.667 -108 20l10 41c72 -4 175.667 -6 311 -6c45.333 0 99.5 0.666992 162.5 2
s108.5 2 136.5 2c153.333 0 266.833 -23.667 340.5 -71s110.5 -113.666 110.5 -198.999c0 -107.333 -50.667 -199.333 -152 -276s-234.333 -123.334 -399 -140.001c148.667 -6.66699 262.667 -39.334 342 -98.001s119 -132.667 119 -222
c0 -93.333 -29.5 -173.833 -88.5 -241.5s-138.667 -118 -239 -151s-215.833 -49.5 -346.5 -49.5c-21.333 0 -70.666 1 -147.999 3s-147.666 3 -210.999 3c-137.333 0 -243 -2 -317 -6zM441.999 124.002c0 -51.333 33 -76.999 99 -76.999c120 0 213.5 41.167 280.5 123.5
s100.5 185.166 100.5 308.499c0 78.667 -18.667 141 -56 187s-97.333 69 -180 69h-90l-137 -518c-11.333 -42.667 -17 -73.667 -17 -93zM604.999 770.003l70.999 -0.000976562c55.333 0 105.833 12.333 151.5 37s83.167 57.834 112.5 99.501s52 88.5 68 140.5
s24 106.333 24 163c0 64.667 -12 114 -36 148s-64.667 51 -122 51c-40.667 0 -70.167 -9.66699 -88.5 -29s-35.166 -58 -50.499 -116z" />
    <glyph glyph-name="afii10020" unicode="&#x413;" horiz-adv-x="1143" 
d="M-88 0l10 41c49.333 2 85.833 7.5 109.5 16.5s43 25 58 48s29.5 60.167 43.5 111.5l270 1016c11.333 43.333 17 76.333 17 99c0 29.333 -9.83301 49 -29.5 59s-55.5 16 -107.5 18l10 41c110 -4 219.333 -6 328 -6h337c170.667 0 293 2 367 6
c-28.667 -78 -55.334 -161.333 -80.001 -250c-24.667 -94.667 -39 -154.667 -43 -180h-47c5.33301 40.667 8 82 8 124c0 92.667 -16.667 159 -50 199s-82 60 -146 60h-54c-55.333 0 -95.166 -10.5 -119.499 -31.5s-45.833 -67.167 -64.5 -138.5l-270 -1016
c-10.667 -40.667 -16 -71 -16 -91c0 -32.667 12.5 -54.5 37.5 -65.5s70.833 -17.5 137.5 -19.5l-8 -41c-84 4 -205.333 6 -364 6c-150.667 0 -262 -2 -334 -6z" />
    <glyph glyph-name="afii10021" unicode="&#x414;" horiz-adv-x="1343" 
d="M-315 -389c2 4.66699 8.66797 22.165 20.001 52.498s20.333 55.166 27 74.499c40.667 124.667 68.667 225.667 84 303h135c53.333 0 100.333 18.333 141 55c80 72 163.667 205.333 251 400s171 440.334 251 737.001c12 42 18 74.667 18 98
c0 29.333 -10.167 49.166 -30.5 59.499s-56.5 16.5 -108.5 18.5l10 41c43.333 -4 107 -6 191 -6c8 0 28 1 60 3s64.333 3 97 3c56.667 0 120 -1 190 -3s116 -3 138 -3c136 0 244 2 324 6l-10 -41c-38 -1.33301 -67.333 -4.16602 -88 -8.49902
s-39.334 -13.166 -56.001 -26.499s-29.5 -30.5 -38.5 -51.5s-18.5 -50.833 -28.5 -89.5l-271 -1016c-11.333 -43.333 -17 -76 -17 -98c0 -30 10.167 -50.167 30.5 -60.5s56.166 -16.166 107.499 -17.499h64c-27.333 -73.333 -57.666 -174.333 -90.999 -303l-13.5 -65.5
l-12.5 -61.5h-45c4.66699 37.333 7 73.666 7 108.999c0 103.333 -24.167 176.5 -72.5 219.5s-124.833 64.5 -229.5 64.5c-14 0 -56 -0.666992 -126 -2s-141.333 -2 -214 -2h-123c-68 0 -126.167 -5.66699 -174.5 -17s-93.833 -31.666 -136.5 -60.999s-81 -69 -115 -119
s-67.333 -114 -100 -192h-45zM86.001 40.998h376.998c66 0 111.5 10.833 136.5 32.5s47.167 69.5 66.5 143.5l270 1016c10.667 38 16 69.333 16 94c0 31.333 -9 52.833 -27 64.5s-46.333 17.5 -85 17.5h-29c-51.333 0 -88.666 -11.333 -111.999 -34
s-44.666 -70 -63.999 -142c-44.667 -167.333 -91.334 -322.166 -140.001 -464.499s-106.167 -279.333 -172.5 -411s-132.166 -226.834 -197.499 -285.501c-11.333 -10.667 -24.333 -21 -39 -31z" />
    <glyph glyph-name="afii10022" unicode="&#x415;" horiz-adv-x="1282" 
d="M-88 0l9.99707 41.001c49.333 2 85.833 7.5 109.5 16.5s43 25 58 48s29.5 60.167 43.5 111.5l270 1016c11.333 43.333 17 76.333 17 99c0 29.333 -9.83301 49 -29.5 59s-55.5 16 -107.5 18l10 41c148.667 -4 370.334 -6 665.001 -6c194 0 332.667 2 416 6
c-36 -98 -62 -178.667 -78 -242c-7.33301 -30.667 -16 -73 -26 -127h-45c2 26 3 50.333 3 73c0 92 -17.167 156.5 -51.5 193.5s-93.5 55.5 -177.5 55.5h-63c-69.333 0 -116.333 -9.83301 -141 -29.5s-46.667 -66.5 -66 -140.5l-128 -483h75c36 0 69.5 7.33301 100.5 22
s57.833 34.667 80.5 60s41.834 51.166 57.501 77.499s29.5 54.833 41.5 85.5h48c-21.333 -63.333 -46.666 -152 -75.999 -266c-16.667 -60.667 -36.667 -149.334 -60 -266.001h-45c1.33301 18.667 2 33.334 2 44.001c0 134.667 -57.333 202 -172 202h-63l-131 -492
c-12.667 -45.333 -19 -78.666 -19 -99.999c0 -28 9.83301 -46.667 29.5 -56s54.834 -14 105.501 -14h76c109.333 0 195.5 26.167 258.5 78.5s124.5 147.166 184.5 284.499h47c-14.667 -36 -29.667 -85.333 -45 -148c-21.333 -72 -39.333 -159.333 -54 -262
c-92.667 4 -247.334 6 -464.001 6c-295.333 0 -517.333 -2 -666 -6z" />
    <glyph glyph-name="afii10024" unicode="&#x416;" horiz-adv-x="2103" 
d="M-92 176l32.9971 17c22 -48 54.667 -72 98 -72c40 0 71.333 25.333 94 76l94 215c50.667 117.333 110.667 201.666 180 252.999s168.333 83.666 297 96.999c-70.667 18 -106 72.667 -106 164c0 40.667 9.66699 107.334 29 200.001s29 156 29 190
s-7.33301 63.167 -22 87.5s-38.334 36.5 -71.001 36.5c-13.333 0 -23.666 -0.666992 -30.999 -2c40 -32 60 -78 60 -138c0 -60.667 -21.5 -110.167 -64.5 -148.5s-90.5 -57.5 -142.5 -57.5c-39.333 0 -69.666 11.333 -90.999 34s-32 53 -32 91
c0 68.667 30.167 129.167 90.5 181.5s128.5 78.5 204.5 78.5c38.667 0 70.334 -9.66699 95.001 -29s39.334 -48.666 44.001 -87.999c2 -12 3 -24.667 3 -38c0 -37.333 -10 -101.666 -30 -192.999s-30 -158.333 -30 -201c0 -44 9.5 -79 28.5 -105s53.5 -42.333 103.5 -49
c32 10.667 57 16 75 16c22.667 0 34 -8.66699 34 -26c0 -4 -0.333008 -7.33301 -1 -10c-5.33301 -27.333 -23.333 -41 -54 -41c-20 0 -44.333 6.33301 -73 19c-34 -19.333 -63.167 -45 -87.5 -77s-49.833 -79 -76.5 -141l-119 -287
c-38 -92.667 -79.833 -158.834 -125.5 -198.501s-106.834 -59.5 -183.501 -59.5c-68 0 -121.667 15.833 -161 47.5s-69.666 84.167 -90.999 157.5zM564.997 0l10.002 41c36 1.33301 64 4.16602 84 8.49902s38.167 13 54.5 26s29.333 30.167 39 51.5s19.5 51.333 29.5 90
l269 1016c11.333 44 17 75.667 17 95c0 26.667 -9.83301 46 -29.5 58s-55.167 19.667 -106.5 23l10 41c70 -4 178.667 -6 326 -6c137.333 0 247.666 2 330.999 6l-10 -41c-25.333 -1.33301 -46 -3 -62 -5s-31.5 -5.5 -46.5 -10.5s-26.833 -11.167 -35.5 -18.5
s-17.334 -17.833 -26.001 -31.5s-16 -29 -22 -46s-12.333 -38.5 -19 -64.5l-268 -1016c-13.333 -50.667 -20 -84 -20 -100c0 -25.333 10 -43.666 30 -54.999s56.333 -18.333 109 -21l-8 -41c-76 4 -186 6 -330 6c-143.333 0 -252 -2 -326 -6zM1291 748
c0 0.666992 0.167969 1.83203 0.500977 3.49902s0.5 3.16699 0.5 4.5c5.33301 26 23.333 39 54 39c14.667 0 38 -6.33301 70 -19c55.333 8.66699 102.166 31.167 140.499 67.5s68.166 80.166 89.499 131.499s39.666 103.333 54.999 156s33.166 105.334 53.499 158.001
s43.166 92.667 68.499 120c43.333 46.667 98 70 164 70c56.667 0 102.5 -17.167 137.5 -51.5s51.833 -78.833 50.5 -133.5c0 -50.667 -16.5 -96.667 -49.5 -138s-77.167 -62 -132.5 -62c-41.333 0 -75.166 12.167 -101.499 36.5s-39.166 57.166 -38.499 98.499
c0 42 15 82.333 45 121s68.333 67.334 115 86.001c-9.33301 2.66699 -23 4 -41 4c-51.333 0 -92.333 -21.333 -123 -64c-21.333 -28 -41 -67.833 -59 -119.5s-34.5 -102.167 -49.5 -151.5s-32.667 -98.5 -53 -147.5s-48.666 -91.333 -84.999 -127
s-79.833 -58.834 -130.5 -69.501c48 -5.33301 88 -12.666 120 -21.999s62.333 -23.5 91 -42.5s49.834 -45.333 63.501 -79s20.5 -75.167 20.5 -124.5c0 -24 -2 -51 -6 -81l-22 -215c0 -2 -0.166992 -4.5 -0.5 -7.5s-0.5 -5.16699 -0.5 -6.5c0 -41.333 17.333 -62 52 -62
c26 0 48 10 66 30s34.333 51 49 93l34 104h41l-53 -158c-48.667 -146 -142.667 -219 -282 -219c-72.667 0 -129 18.833 -169 56.5s-60 89.167 -60 154.5c0 15.333 1 31 3 47l39 287c5.33301 33.333 8 62 8 86c0 54.667 -18 98.334 -54 131.001c-28 -10.667 -55 -16 -81 -16
c-26.667 0 -40 10.333 -40 31z" />
    <glyph glyph-name="afii10025" unicode="&#x417;" horiz-adv-x="1214" 
d="M-29 221c0 51.333 17.8271 97.9971 53.4941 139.997s82.834 63 141.501 63c42 0 75.667 -11.5 101 -34.5s38 -55.833 38 -98.5c0 -50.667 -17.167 -96.667 -51.5 -138s-76.5 -67.666 -126.5 -78.999c12.667 -15.333 37.834 -28.833 75.501 -40.5s81.5 -17.5 131.5 -17.5
c78.667 0 150.334 16.5 215.001 49.5s116.334 81.167 155.001 144.5s58 136 58 218c0 76.667 -20.667 147 -62 211s-97.333 101 -168 111c-40 -20 -71.333 -30 -94 -30c-28.667 0 -43 9.66699 -43 29c0 25.333 19 38 57 38c20.667 0 43.334 -3.66699 68.001 -11
c98 21.333 184.333 73.5 259 156.5s112 172.833 112 269.5c0 118.667 -63.667 178 -191 178c-44.667 0 -85.834 -7.16699 -123.501 -21.5s-70.167 -33.166 -97.5 -56.499s-53.166 -53 -77.499 -89s-44.833 -72.167 -61.5 -108.5s-33.667 -78.166 -51 -125.499h-45
c62 202.667 101.333 359.667 118 471h44c-4 -22.667 -6 -43.667 -6 -63c0 -38 10 -57 30 -57c8.66699 0 20.334 4.33301 35.001 13c39.333 25.333 69.5 44 90.5 56s48.5 25.333 82.5 40s68.167 25 102.5 31s72.833 9 115.5 9c110.667 0 199.834 -21.667 267.501 -65
s101.5 -105 101.5 -185c0 -50 -14.667 -97.833 -44 -143.5s-66.833 -85.167 -112.5 -118.5s-98.167 -63.833 -157.5 -91.5s-117.333 -50.167 -174 -67.5s-112 -30.666 -166 -39.999c69.333 0.666992 134.166 -5 194.499 -17s115.666 -30.667 165.999 -56
s90 -60.5 119 -105.5s43.5 -97.5 43.5 -157.5c0 -88.667 -34.333 -168.834 -103 -240.501s-155.667 -126.334 -261 -164.001s-215.666 -56.5 -330.999 -56.5c-147.333 0 -259.333 28.667 -336 86c-61.333 46.667 -92 101.334 -92 164.001z" />
    <glyph glyph-name="afii10026" unicode="&#x418;" horiz-adv-x="1702" 
d="M-86 0l10.0029 41.0039c48 2 83.667 7.33301 107 16s42.666 24.667 57.999 48s30 60.666 44 111.999l270 1016c11.333 43.333 17 76.333 17 99c0 29.333 -9.83301 49 -29.5 59s-55.5 16 -107.5 18l10 41c72 -4 184 -6 336 -6c132 0 239 2 321 6l-10 -41
c-25.333 -1.33301 -46 -3 -62 -5s-31.5 -5.5 -46.5 -10.5s-26.833 -11.167 -35.5 -18.5s-17.334 -17.833 -26.001 -31.5s-16 -29 -22 -46s-12.333 -38.5 -19 -64.5l-251 -946l838 974c7.33301 29.333 11 52.666 11 69.999c0 29.333 -10.167 49.166 -30.5 59.499
s-56.5 16.5 -108.5 18.5l10 41c74 -4 180.667 -6 320 -6c152 0 264.333 2 337 6l-10 -41c-25.333 -1.33301 -46 -3 -62 -5s-31.5 -5.5 -46.5 -10.5s-26.833 -11.167 -35.5 -18.5s-17.334 -17.833 -26.001 -31.5s-16 -29 -22 -46s-12.333 -38.5 -19 -64.5l-272 -1016
c-12 -46.667 -18 -80 -18 -100c0 -28.667 10 -48 30 -58s56.333 -16 109 -18l-10 -41c-72 4 -184 6 -336 6c-138.667 0 -246 -2 -322 -6l10 41c49.333 2 86 7.33301 110 16s43.5 24.667 58.5 48s29.167 60.666 42.5 111.999l255 949l-837 -969
c-8.66699 -32 -13 -58.667 -13 -80c0 -28.667 9.83301 -48 29.5 -58s55.5 -16 107.5 -18l-9 -41c-75.333 4 -182.333 6 -321 6c-148.667 0 -260 -2 -334 -6z" />
    <glyph glyph-name="afii10027" unicode="&#x419;" horiz-adv-x="1702" 
d="M-86 0l10.0029 41.0039c48 2 83.667 7.33301 107 16s42.666 24.667 57.999 48s30 60.666 44 111.999l270 1016c11.333 43.333 17 76.333 17 99c0 29.333 -9.83301 49 -29.5 59s-55.5 16 -107.5 18l10 41c72 -4 184 -6 336 -6c132 0 239 2 321 6l-10 -41
c-25.333 -1.33301 -46 -3 -62 -5s-31.5 -5.5 -46.5 -10.5s-26.833 -11.167 -35.5 -18.5s-17.334 -17.833 -26.001 -31.5s-16 -29 -22 -46s-12.333 -38.5 -19 -64.5l-251 -946l838 974c7.33301 29.333 11 52.666 11 69.999c0 29.333 -10.167 49.166 -30.5 59.499
s-56.5 16.5 -108.5 18.5l10 41c74 -4 180.667 -6 320 -6c152 0 264.333 2 337 6l-10 -41c-25.333 -1.33301 -46 -3 -62 -5s-31.5 -5.5 -46.5 -10.5s-26.833 -11.167 -35.5 -18.5s-17.334 -17.833 -26.001 -31.5s-16 -29 -22 -46s-12.333 -38.5 -19 -64.5l-272 -1016
c-12 -46.667 -18 -80 -18 -100c0 -28.667 10 -48 30 -58s56.333 -16 109 -18l-10 -41c-72 4 -184 6 -336 6c-138.667 0 -246 -2 -322 -6l10 41c49.333 2 86 7.33301 110 16s43.5 24.667 58.5 48s29.167 60.666 42.5 111.999l255 949l-837 -969
c-8.66699 -32 -13 -58.667 -13 -80c0 -28.667 9.83301 -48 29.5 -58s55.5 -16 107.5 -18l-9 -41c-75.333 4 -182.333 6 -321 6c-148.667 0 -260 -2 -334 -6zM679.003 1739c0 46 17.334 83.999 52.001 113.999s78 45 130 45c101.333 0 152 -40.667 152 -122
c0 -34.667 -13.167 -66.5 -39.5 -95.5s-59.5 -49.167 -99.5 -60.5c37.333 -22 100.666 -33 189.999 -33c107.333 0.666992 207.5 24.667 300.5 72s174.5 112 244.5 194l29 -22c-77.333 -96.667 -167.5 -168.667 -270.5 -216s-208.167 -71 -315.5 -71
c-108 0 -197.167 16.833 -267.5 50.5s-105.5 81.834 -105.5 144.501z" />
    <glyph glyph-name="afii10028" unicode="&#x41a;" horiz-adv-x="1516" 
d="M-84 0l10.0039 40.998c47.333 2 82.666 7.33301 105.999 16s42.666 24.834 57.999 48.501s29.666 60.834 42.999 111.501l270 1016c11.333 43.333 17 76.333 17 99c0 29.333 -9.83301 49 -29.5 59s-55.5 16 -107.5 18l10 41c68.667 -4 180 -6 334 -6
c131.333 0 239 2 323 6l-10 -41c-25.333 -1.33301 -46 -3 -62 -5s-31.5 -5.5 -46.5 -10.5s-26.833 -11.167 -35.5 -18.5s-17.334 -17.833 -26.001 -31.5s-16 -29 -22 -46s-12.333 -38.5 -19 -64.5l-270 -1016c-12 -46.667 -18 -80 -18 -100c0 -28.667 10 -48 30 -58
s56.333 -16 109 -18l-9 -41c-74.667 4 -181.667 6 -321 6c-148.667 0 -260 -2 -334 -6zM646.004 746.998c0 0.666992 0.169922 2.00195 0.50293 4.00195s0.5 3.66699 0.5 5c4 27.333 24 41 60 41c26 0 66 -7 120 -21c49.333 6.66699 92.5 24.167 129.5 52.5
s65.5 61.5 85.5 99.5s38.667 80.833 56 128.5s31.666 93.167 42.999 136.5s26.333 86 45 128s39.667 74.667 63 98c40 40 88.667 60 146 60c60 0 107.333 -17.167 142 -51.5s51.334 -79.5 50.001 -135.5c0 -50 -16.667 -95.5 -50 -136.5s-78.666 -61.5 -135.999 -61.5
c-38.667 0 -70.834 12 -96.501 36s-38.5 56.333 -38.5 97s13.667 80.167 41 118.5s64 67.833 110 88.5c-8 4 -19 6 -33 6c-40.667 0 -75.334 -15 -104.001 -45c-24 -26 -45.833 -64.333 -65.5 -115s-37.334 -102 -53.001 -154s-34 -103.667 -55 -155s-50 -96 -87 -134
s-81.167 -63 -132.5 -75c105.333 -12 180.166 -38.5 224.499 -79.5s66.5 -105.5 66.5 -193.5c0 -26.667 -1.33301 -52.334 -4 -77.001l-23 -215c0 -2 -0.166992 -4.5 -0.5 -7.5s-0.5 -5.16699 -0.5 -6.5c0 -41.333 17.333 -62 52 -62c26 0 48 10 66 30s34.333 51 49 93
l35 104h41l-54 -158c-24.667 -74 -61 -129 -109 -165s-103 -54 -165 -54c-77.333 0 -136.333 18.667 -177 56s-61 88.666 -61 153.999c0 9.33301 1.33301 25.333 4 48l39 287c4 34 6 62.667 6 86c0 62 -17.333 106.333 -52 133c-56 -14.667 -97.667 -22 -125 -22
c-35.333 0 -53 11.333 -53 34z" />
    <glyph glyph-name="afii10029" unicode="&#x41b;" horiz-adv-x="1464" 
d="M-129 148c0 52 17.499 95.668 52.499 131.001s79.5 53 133.5 53c44.667 0 79.5 -11.5 104.5 -34.5s36.833 -53.167 35.5 -90.5c0 -44 -14.5 -83 -43.5 -117s-65.833 -58 -110.5 -72c20 -4 31.667 -6 35 -6c52 2 98.333 20.667 139 56
c79.333 71.333 163.166 207.333 251.499 408s174.5 453 258.5 757c11.333 43.333 17 76 17 98c0 29.333 -10 49.166 -30 59.499s-56 16.5 -108 18.5l10 41c42.667 -4 106.334 -6 191.001 -6c7.33301 0 27.333 1 60 3s65.334 3 98.001 3c55.333 0 117.666 -1 186.999 -3
s115.333 -3 138 -3c135.333 0 244 2 326 6l-10 -41c-38 -1.33301 -67.333 -4.16602 -88 -8.49902s-39.167 -13.166 -55.5 -26.499s-29.166 -30.333 -38.499 -51s-19 -50.667 -29 -90l-271 -1016c-11.333 -44 -17 -77 -17 -99c0 -29.333 10 -49 30 -59s56 -16 108 -18l-8 -41
c-76 4 -188 6 -336 6c-140.667 0 -247.667 -2 -321 -6l10 41c36.667 1.33301 65 4.16602 85 8.49902s38.333 13 55 26s29.834 30.167 39.501 51.5s19.5 51.333 29.5 90l270 1016c10 38 15 68.667 15 92c0 32 -9 54 -27 66s-46 18 -84 18h-29c-52 0 -89.5 -11.333 -112.5 -34
s-44.167 -70 -63.5 -142c-46.667 -172 -94.667 -330.5 -144 -475.5s-107.833 -285.333 -175.5 -421s-134.5 -233.5 -200.5 -293.5c-54.667 -48 -116.334 -72 -185.001 -72c-60 0 -107 16.667 -141 50s-51 75.666 -51 126.999z" />
    <glyph glyph-name="afii10030" unicode="&#x41c;" horiz-adv-x="1878" 
d="M-86 0l10 40.999c34.667 1.33301 64.5 7.33301 89.5 18s45.833 26.334 62.5 47.001s30.167 43.334 40.5 68.001s19.833 54.667 28.5 90l261 969c11.333 43.333 17 76 17 98c0 30 -10 50 -30 60s-56 16 -108 18l10 41c61.333 -4 154.666 -6 279.999 -6
c72.667 0 134.334 2 185.001 6l117 -1047l663 1041h160c132 0 242 2 330 6l-11 -41c-25.333 -1.33301 -46 -3 -62 -5s-31.5 -5.5 -46.5 -10.5s-26.833 -11.167 -35.5 -18.5s-17.334 -17.833 -26.001 -31.5s-16 -29 -22 -46s-12.333 -38.5 -19 -64.5l-270 -1016
c-11.333 -43.333 -17 -76 -17 -98c0 -29.333 10 -49.166 30 -59.499s56 -16.5 108 -18.5l-8 -41c-86 4 -195.333 6 -328 6c-148.667 0 -258 -2 -328 -6l9 41c38 1.33301 67.167 4.16602 87.5 8.49902s38.833 13.166 55.5 26.499s29.5 30.5 38.5 51.5s18.5 50.833 28.5 89.5
l297 1104l-849 -1331h-46l-165 1257l-258 -983c-11.333 -43.333 -17 -77.333 -17 -102c0 -38 12.833 -67.167 38.5 -87.5s69.5 -31.5 131.5 -33.5l-8 -41c-49.333 4 -125.666 6 -228.999 6c-83.333 0 -148.333 -2 -195 -6z" />
    <glyph glyph-name="afii10031" unicode="&#x41d;" horiz-adv-x="1659" 
d="M-84 0l10.0049 41c47.333 2 82.666 7.33301 105.999 16s42.666 24.834 57.999 48.501s29.666 60.834 42.999 111.501l270 1016c11.333 43.333 17 76.333 17 99c0 29.333 -9.83301 49 -29.5 59s-55.5 16 -107.5 18l10 41c68.667 -4 180 -6 334 -6c131.333 0 239 2 323 6
l-10 -41c-25.333 -1.33301 -46 -3 -62 -5s-31.5 -5.5 -46.5 -10.5s-26.833 -11.167 -35.5 -18.5s-17.334 -17.833 -26.001 -31.5s-16 -29 -22 -46s-12.333 -38.5 -19 -64.5l-128 -483h534l129 483c12 42 18 74.667 18 98c0 29.333 -10.167 49.166 -30.5 59.499
s-56.5 16.5 -108.5 18.5l10 41c74 -4 180.667 -6 320 -6c150 0 262.333 2 337 6l-10 -41c-25.333 -1.33301 -46 -3 -62 -5s-31.5 -5.5 -46.5 -10.5s-26.833 -11.167 -35.5 -18.5s-17.334 -17.833 -26.001 -31.5s-16 -29 -22 -46s-12.333 -38.5 -19 -64.5l-270 -1016
c-12 -46.667 -18 -80 -18 -100c0 -28.667 10 -48 30 -58s56.333 -16 109 -18l-8 -41c-74 4 -186 6 -336 6c-138.667 0 -246 -2 -322 -6l8 41c49.333 2 86 7.33301 110 16s43.5 24.667 58.5 48s29.167 60.666 42.5 111.999l131 492h-534l-131 -492
c-12 -46.667 -18 -80 -18 -100c0 -28.667 10 -48 30 -58s56.333 -16 109 -18l-9 -41c-74.667 4 -181.667 6 -321 6c-148.667 0 -260 -2 -334 -6z" />
    <glyph glyph-name="afii10032" unicode="&#x41e;" horiz-adv-x="1591" 
d="M86 463c0 75.333 10 152.667 30 232s48.5 156.666 85.5 231.999s83.167 146.5 138.5 213.5s116.5 125.5 183.5 175.5s142.833 89.667 227.5 119s172.334 44 263.001 44c174.667 0 311.167 -43.167 409.5 -129.5s147.5 -207.833 147.5 -364.5c0 -90 -14 -182.667 -42 -278
s-69.667 -186.666 -125 -273.999s-119.833 -165.5 -193.5 -234.5s-160 -124.167 -259 -165.5s-202.5 -62 -310.5 -62c-174.667 0 -310.834 43 -408.501 129s-146.5 207 -146.5 363zM438 436.001c0 -132 20.498 -236.333 61.498 -313s94.167 -115 159.5 -115
c70 0 139.333 29.5 208 88.5s128.334 135.333 179.001 229s91.834 201.5 123.501 323.5s47.5 243.667 47.5 365c0 132 -20.5 236.333 -61.5 313s-94.5 115 -160.5 115c-56 0 -111.833 -18.833 -167.5 -56.5s-106.5 -89.667 -152.5 -156s-87 -141.5 -123 -225.5
s-64 -175.5 -84 -274.5s-30 -196.833 -30 -293.5z" />
    <glyph glyph-name="afii10033" unicode="&#x41f;" horiz-adv-x="1659" 
d="M-84 0l10.002 40.999c47.333 2 82.666 7.33301 105.999 16s42.666 24.834 57.999 48.501s29.666 60.834 42.999 111.501l270 1016c11.333 43.333 17 76.333 17 99c0 29.333 -9.83301 49 -29.5 59s-55.5 16 -107.5 18l10 41c68.667 -4 180 -6 334 -6
c26.667 0 84.334 1 173.001 3s173 3 253 3c74.667 0 156.334 -1 245.001 -3s147 -3 175 -3c151.333 0 263.666 2 336.999 6l-10 -41c-25.333 -1.33301 -46 -3 -62 -5s-31.5 -5.5 -46.5 -10.5s-26.833 -11.167 -35.5 -18.5s-17.334 -17.833 -26.001 -31.5s-16 -29 -22 -46
s-12.333 -38.5 -19 -64.5l-270 -1016c-12 -46.667 -18 -80 -18 -100c0 -28.667 10 -48 30 -58s56.333 -16 109 -18l-8 -41c-72 4 -184 6 -336 6c-138.667 0 -246 -2 -322 -6l8 41c49.333 2 86 7.33301 110 16s43.5 24.667 58.5 48s29.167 60.666 42.5 111.999l271 1016
c12 42 18 75 18 99c0 30.667 -10.333 51.167 -31 61.5s-56.667 15.5 -108 15.5h-207c-68 0 -114.667 -10.833 -140 -32.5s-47.666 -69.5 -66.999 -143.5l-270 -1016c-12 -46.667 -18 -80 -18 -100c0 -28.667 10 -48 30 -58s56.333 -16 109 -18l-9 -41
c-74.667 4 -181.667 6 -321 6c-148.667 0 -260 -2 -334 -6z" />
    <glyph glyph-name="afii10034" unicode="&#x420;" horiz-adv-x="1317" 
d="M-86 0l8 41.001c49.333 2 85.833 7.33301 109.5 16s43.167 24.667 58.5 48s29.666 60.666 42.999 111.999l270 1016c10 43.333 15 75.333 15 96c0 27.333 -9.66699 47 -29 59s-54.666 19 -105.999 21l10 41c68.667 -4 177 -6 325 -6c32.667 0 82.167 0.666992 148.5 2
s116.833 2 151.5 2c320.667 0 481 -103 481 -309c0 -106.667 -35.167 -202.167 -105.5 -286.5s-169.833 -150.5 -298.5 -198.5s-275.667 -72 -441 -72l-97 -365c-10.667 -42.667 -16 -72.667 -16 -90c0 -28.667 10.167 -49.667 30.5 -63s55.833 -21 106.5 -23l-9 -41
c-82 4 -187 6 -315 6c-154.667 0 -268 -2 -340 -6zM565 623.001h8.00098c69.333 0 132.166 11.167 188.499 33.5s102.5 51.833 138.5 88.5s66 79.667 90 129s41.167 99.833 51.5 151.5s15.5 105.167 15.5 160.5c0 74 -15.833 129.667 -47.5 167s-82.167 56 -151.5 56
c-40 0 -66.833 -10.333 -80.5 -31s-30.5 -69 -50.5 -145z" />
    <glyph glyph-name="afii10035" unicode="&#x421;" horiz-adv-x="1419" 
d="M88 479c0 79.333 11.167 159.502 33.5 240.502s53.5 158.333 93.5 232s89.833 142.667 149.5 207s124.834 120.166 195.501 167.499s149.667 84.666 237 111.999s177.333 41 270 41c76.667 0 137.334 -11.5 182.001 -34.5s85.667 -55.833 123 -98.5c10 -12 20 -18 30 -18
c25.333 0 53 40.667 83 122h43c-45.333 -118 -89 -275 -131 -471h-45c10 58.667 15 112 15 160c0 64 -11.333 116.333 -34 157c-48 89.333 -128.333 134 -241 134c-66 0 -131.333 -18.5 -196 -55.5s-123.167 -87.833 -175.5 -152.5s-98.833 -138.5 -139.5 -221.5
s-72.167 -173.333 -94.5 -271s-33.5 -194.834 -33.5 -291.501c0 -135.333 24.167 -236.666 72.5 -303.999s116.166 -101 203.499 -101c52 0 106 11.833 162 35.5s104.333 56.834 145 99.501c36 37.333 67.167 79.833 93.5 127.5s56.833 113.167 91.5 196.5h45
c-64.667 -236.667 -105 -400.667 -121 -492h-45c4 29.333 6 52.666 6 69.999c0 34.667 -8.66699 52 -26 52c-10.667 0 -24.667 -6 -42 -18c-62 -42.667 -124.667 -75.5 -188 -98.5s-134.333 -34.5 -213 -34.5c-182.667 0 -319.834 43.667 -411.501 131
s-137.5 213 -137.5 377z" />
    <glyph glyph-name="afii10036" unicode="&#x422;" horiz-adv-x="1395" 
d="M176 1198c0 38 10.5 75 31.5 111s54.833 65.333 101.5 88c67.333 32.667 159 49 275 49c86.667 0 209 -7.5 367 -22.5s271.667 -22.5 341 -22.5c91.333 0 163.666 9 216.999 27c-47.333 46 -71 99.667 -71 161c0 50 14.667 90.5 44 121.5s68.333 46.5 117 46.5
s87.167 -14 115.5 -42s42.5 -61.667 42.5 -101c0 -84 -47 -149 -141 -195c-82.667 -39.333 -196.667 -59 -342 -59c-24 0 -64 1.33301 -120 4l-300 -1126c-10 -38 -15 -69.333 -15 -94c0 -36 12.5 -61.333 37.5 -76s68.833 -23.667 131.5 -27l-9 -41c-86 4 -212 6 -378 6
c-162.667 0 -283 -2 -361 -6l8 41c84.667 2.66699 144 17.167 178 43.5s61.333 77.5 82 153.5l309 1156c-107.333 10 -189 15 -245 15c-113.333 0 -190.666 -11.667 -231.999 -35c36 -10 65.5 -30 88.5 -60s34.5 -65.333 34.5 -106c0 -48 -15 -88.667 -45 -122
s-68 -50 -114 -50s-82.167 15.5 -108.5 46.5s-39.5 69.5 -39.5 115.5z" />
    <glyph glyph-name="afii10037" unicode="&#x423;" horiz-adv-x="1354" 
d="M123 143c0 50.667 17.6641 92.666 52.9971 125.999s78.333 50 129 50c43.333 0 78.333 -11 105 -33s40.334 -51.667 41.001 -89c0 -46 -14.833 -84.5 -44.5 -115.5s-68.167 -52.167 -115.5 -63.5c15.333 -6.66699 38.333 -10 69 -10c64 0 118 17.167 162 51.5
s90.667 88.833 140 163.5l-343 1034c-16 48.667 -34.833 83.834 -56.5 105.501s-48.5 37.167 -80.5 46.5l11 41c69.333 -4 171 -6 305 -6c112 0 204 2 276 6l-10 -41c-50 -3.33301 -84.833 -9.66602 -104.5 -18.999s-29.5 -27 -29.5 -53c0 -23.333 7 -56 21 -98l226 -692
l432 657c31.333 48 47 87.333 47 118c0 52.667 -53.333 81.667 -160 87l10 41c38.667 -4 122 -6 250 -6c56.667 0 105.334 2 146.001 6l-11 -41c-40.667 -10 -78.5 -29.167 -113.5 -57.5s-74.167 -75.5 -117.5 -141.5l-642 -977
c-28.667 -44.667 -53.167 -80.334 -73.5 -107.001s-44.666 -53.167 -72.999 -79.5s-59.333 -45.5 -93 -57.5s-71.5 -18 -113.5 -18c-74 0 -132.5 15.5 -175.5 46.5s-65.167 72.833 -66.5 125.5z" />
    <glyph glyph-name="afii10038" unicode="&#x424;" horiz-adv-x="1997" 
d="M47 535c0 60.667 14.9971 120.334 44.9971 179.001s75.667 114 137 166s134.333 97.833 219 137.5s185.834 71 303.501 94s243.834 34.833 378.501 35.5c50 50 106.5 97.333 169.5 142s139.833 93.667 230.5 147c-40 -14 -102.667 -38.5 -188 -73.5
s-156 -60.5 -212 -76.5s-110.333 -24 -163 -24c-46 0 -89.5 6.66699 -130.5 20s-73.667 27.833 -98 43.5s-50.833 30.167 -79.5 43.5s-55 20 -79 20c-26 0 -46.5 -6.33301 -61.5 -19s-22.5 -30.334 -22.5 -53.001c0 -37.333 28.667 -70 86 -98l-25 -35
c-50 19.333 -88.5 46.333 -115.5 81s-40.5 75 -40.5 121c0 64 24.167 116 72.5 156s112.5 60 192.5 60c49.333 0 101.333 -9.16699 156 -27.5s102.834 -38.333 144.501 -60s92 -41.667 151 -60s117.167 -27.5 174.5 -27.5c80 0 169.667 16 269 48
c51.333 79.333 93.666 119 126.999 119c9.33301 0 18.666 -3.66699 27.999 -11c8.66699 -7.33301 13 -15.666 13 -24.999c0 -33.333 -50 -68.666 -150 -105.999c-98.667 -78 -179.334 -182.333 -242.001 -313c205.333 -17.333 363.833 -61.666 475.5 -132.999
s167.5 -164.333 167.5 -279c0 -70.667 -21 -139.834 -63 -207.501s-101.667 -129.5 -179 -185.5s-176.5 -103.167 -297.5 -141.5s-254.833 -62.5 -401.5 -72.5c-15.333 -56.667 -34 -108.834 -56 -156.501s-50.167 -93.334 -84.5 -137.001
s-73.166 -80.834 -116.499 -111.501s-95 -55 -155 -73s-125.667 -27 -197 -27c-82.667 0 -150.167 12.5 -202.5 37.5s-79.166 65.167 -80.499 120.5c0 42.667 15.667 78.5 47 107.5s74 43.5 128 43.5c46.667 0 84.5 -10.833 113.5 -32.5s43.5 -51.834 43.5 -90.501
c0.666992 -30.667 -8.83301 -58.5 -28.5 -83.5s-47.5 -45.5 -83.5 -61.5c13.333 -4 32.333 -6 57 -6c30.667 0 58.167 7.33301 82.5 22s45.333 34.334 63 59.001s34.334 56.5 50.001 95.5s29.834 79.333 42.501 121s26.667 90.5 42 146.5c3.33301 12 5.66602 21 6.99902 27
c-212.667 16 -376.5 59.833 -491.5 131.5s-172.5 165.834 -172.5 282.501zM376.997 516c0 -197.333 115.334 -314.333 346.001 -351l133 488c52 184.667 131.333 337 238 457c-232.667 -5.33301 -410.334 -61.333 -533.001 -168s-184 -248.667 -184 -426zM1049 160
c196 21.333 345.333 83.667 448 187s154 236 154 398c0 194.667 -111.333 311.334 -334 350.001c-40 -90.667 -78.333 -207.334 -115 -350.001z" />
    <glyph glyph-name="afii10039" unicode="&#x425;" horiz-adv-x="1518" 
d="M-82 157c0 56.667 16.9971 104 50.9971 142s77.667 57 131 57c41.333 0 73.5 -12 96.5 -36s34.5 -56 34.5 -96c0 -46 -14 -87.833 -42 -125.5s-65 -64.5 -111 -80.5c5.33301 -5.33301 17 -8 35 -8c42 0 87 15.667 135 47c59.333 40.667 126 107.667 200 201
s144.333 205.333 211 336l-73 606c-12 95.333 -50.333 143 -115 143c-31.333 0 -58.166 -11 -80.499 -33s-41.833 -56.667 -58.5 -104l-35 -104h-41l53 158c52 146 151.667 219 299 219c98.667 0 170.834 -27.333 216.501 -82s75.167 -134 88.5 -238l30 -256
c48.667 104.667 103.5 202.5 164.5 293.5s118.5 160.5 172.5 208.5c61.333 49.333 123.333 74 186 74c57.333 0 102.166 -17.5 134.499 -52.5s48.5 -79.5 48.5 -133.5c0 -56.667 -17.333 -104 -52 -142s-78.334 -57 -131.001 -57c-42 0 -74.667 12.333 -98 37
s-35 58 -35 100c0.666992 44.667 15.5 85.5 44.5 122.5s66.167 63.167 111.5 78.5c-7.33301 5.33301 -19 8 -35 8c-46 0 -90.333 -15.667 -133 -47c-52.667 -41.333 -112 -110.166 -178 -206.499s-130 -212.833 -192 -349.5l69 -581c13.333 -92.667 52.333 -139 117 -139
c32.667 0 59.834 10 81.501 30s40.834 52.333 57.501 97l35 104h41l-54 -158c-28 -76.667 -65.333 -132.334 -112 -167.001s-104 -52 -172 -52c-55.333 0 -102.666 7.83301 -141.999 23.5s-70.833 38.667 -94.5 69s-41.667 63.5 -54 99.5s-21.5 78.667 -27.5 128l-29 238
c-52 -100 -112.333 -194.167 -181 -282.5s-134.334 -156.833 -197.001 -205.5c-61.333 -46.667 -125 -70 -191 -70c-57.333 0 -101.666 17.5 -132.999 52.5s-47 79.5 -47 133.5z" />
    <glyph glyph-name="afii10040" unicode="&#x426;" horiz-adv-x="1669" 
d="M-88 0l9.99707 41.001c25.333 1.33301 46 3 62 5s31.5 5.5 46.5 10.5s26.833 11.167 35.5 18.5s17.334 17.833 26.001 31.5s16 29 22 46s12.333 38.5 19 64.5l270 1016c12 46.667 18 80 18 100c0 28.667 -10 48 -30 58s-56 16 -108 18l8 41c70.667 -4 182.667 -6 336 -6
c138 0 245 2 321 6l-8 -41c-49.333 -2 -85.833 -7.33301 -109.5 -16s-43.167 -24.667 -58.5 -48s-29.666 -60.666 -42.999 -111.999l-270 -1016c-12 -42 -18 -75.333 -18 -100c0 -30 10.333 -50.167 31 -60.5s56.667 -15.5 108 -15.5h206c36 0 64.5 2.16699 85.5 6.5
s39.333 13.333 55 27s28 31.167 37 52.5s18.833 51.333 29.5 90l271 1016c11.333 44 17 77 17 99c0 29.333 -10 49 -30 59s-56 16 -108 18l8 41c76 -4 183.333 -6 322 -6c149.333 0 260.333 2 333 6l-10 -41c-47.333 -2 -82.666 -7.33301 -105.999 -16
s-42.666 -24.834 -57.999 -48.501s-29.666 -60.834 -42.999 -111.501l-270 -1016c-11.333 -43.333 -17 -76.333 -17 -99c0 -30.667 10.167 -51.167 30.5 -61.5s56.166 -15.5 107.499 -15.5h63c-22 -57.333 -52 -158.333 -90 -303c-12.667 -58 -21.667 -100.333 -27 -127h-45
c4.66699 37.333 7 73.333 7 108c0 104 -24.167 177.5 -72.5 220.5s-124.5 64.5 -228.5 64.5c-21.333 0 -71.833 -0.666992 -151.5 -2s-154.834 -2 -225.501 -2c-74.667 0 -156.5 1 -245.5 3s-147.167 3 -174.5 3c-151.333 0 -264 -2 -338 -6z" />
    <glyph glyph-name="afii10041" unicode="&#x427;" horiz-adv-x="1513" 
d="M206 796c0 37.333 7.66602 86.666 22.999 147.999l78 316c8 30.667 12 55.667 12 75c0 26 -7.16699 44.167 -21.5 54.5s-37.166 16.166 -68.499 17.499l11 43c146.667 -5.33301 243.334 -8 290.001 -8c46 0 142.333 2.66699 289 8l-10 -43
c-52.667 0 -91.167 -10.667 -115.5 -32s-44.5 -59.666 -60.5 -114.999l-92 -351c-17.333 -59.333 -26 -109.666 -26 -150.999c0 -52 15.5 -91 46.5 -117s81.5 -39 151.5 -39c41.333 0 85.5 4.5 132.5 13.5s86.5 21.167 118.5 36.5l156 581c12 43.333 18 76.666 18 99.999
c0 28.667 -9.83301 48 -29.5 58s-55.5 16 -107.5 18l11 41c69.333 -4 177 -6 323 -6c144.667 0 256 2 334 6l-10 -41c-38 -1.33301 -67.167 -4.16602 -87.5 -8.49902s-39 -13.166 -56 -26.499s-30.167 -30.333 -39.5 -51s-19.333 -50.667 -30 -90l-272 -1016
c-12.667 -45.333 -19 -78.666 -19 -99.999c0 -28.667 10 -48 30 -58s55.667 -16 107 -18l-10 -41c-72 4 -184 6 -336 6c-157.333 0 -278 -2 -362 -6l10 41c61.333 2 106.666 7.33301 135.999 16s52.833 24.667 70.5 48s33.5 60.666 47.5 111.999l107 401
c-120 -54 -248.667 -81 -386 -81c-135.333 0 -235 32 -299 96c-42.667 43.333 -64 97.666 -64 162.999z" />
    <glyph glyph-name="afii10042" unicode="&#x428;" horiz-adv-x="2298" 
d="M-88 0l9.99805 40.998c49.333 2 85.833 7.5 109.5 16.5s43 25 58 48s29.5 60.167 43.5 111.5l270 1016c12 46.667 18 80 18 100c0 28.667 -10 48 -30 58s-56 16 -108 18l10 41c72 -4 182 -6 330 -6c132.667 0 235 2 307 6l-10 -41
c-33.333 -1.33301 -59.166 -4.16602 -77.499 -8.49902s-35 -13.333 -50 -27s-27 -30.834 -36 -51.501s-18.833 -50.334 -29.5 -89.001l-268 -1016c-12 -44 -18 -78.333 -18 -103c0 -28.667 9.16699 -48 27.5 -58s50.5 -15 96.5 -15h117c65.333 0 110.333 10.667 135 32
s46.667 69.333 66 144l268 1016c14 50.667 21 86.334 21 107.001c0 24.667 -8.5 41.667 -25.5 51s-48.167 15.333 -93.5 18l10 41c70 -4 173 -6 309 -6s238.333 2 307 6l-10 -41c-44 -2 -76.667 -7.66699 -98 -17s-38.666 -25.333 -51.999 -48s-26.666 -59.667 -39.999 -111
l-271 -1016c-12.667 -45.333 -19 -79 -19 -101c0 -29.333 9.5 -49.166 28.5 -59.499s51.5 -15.5 97.5 -15.5h117c65.333 0 109.833 10.667 133.5 32s45.834 69.333 66.501 144l271 1016c12 44 18 77.667 18 101c0 28 -8.83301 47 -26.5 57s-48.5 16 -92.5 18l10 41
c72 -4 174.667 -6 308 -6c145.333 0 254.333 2 327 6l-10 -41c-36.667 -1.33301 -65 -4.16602 -85 -8.49902s-38.333 -13 -55 -26s-29.834 -30.167 -39.5 -51.5c-9.66699 -21.333 -19.5 -51.333 -29.5 -90l-270 -1016c-12 -42.667 -18 -76 -18 -100
c0 -28.667 9.83301 -48 29.5 -58s55.5 -16 107.5 -18l-11 -41c-69.333 4 -173 6 -311 6c-50.667 0 -115.334 -1 -194.001 -3s-143 -3 -193 -3c-59.333 0 -128.833 1 -208.5 3s-133.834 3 -162.501 3c-27.333 0 -83.333 -1 -168 -3s-157 -3 -217 -3c-50.667 0 -115 1 -193 3
s-142 3 -192 3c-138 0 -243 -2 -315 -6z" />
    <glyph glyph-name="afii10043" unicode="&#x429;" horiz-adv-x="2306" 
d="M-88 0l9.99805 41.001c49.333 2 85.833 7.33301 109.5 16s43.167 24.667 58.5 48s29.666 60.666 42.999 111.999l270 1016c12 46.667 18 80 18 100c0 28.667 -10 48 -30 58s-56 16 -108 18l10 41c72 -4 182 -6 330 -6c132.667 0 235 2 307 6l-10 -41
c-43.333 -2 -75.666 -7.5 -96.999 -16.5s-39 -25.167 -53 -48.5s-27.667 -60.333 -41 -111l-270 -1016c-12 -44 -18 -78 -18 -102c0 -29.333 9.16699 -49 27.5 -59s50.5 -15 96.5 -15h117c46 0 80.667 4.83301 104 14.5s42 26.167 56 49.5s27.667 60.666 41 111.999
l270 1016c12 44 18 77.667 18 101c0 28 -8.66699 47 -26 57s-48 16 -92 18l10 41c70 -4 173 -6 309 -6s238.333 2 307 6l-10 -41c-44 -2 -76.667 -7.66699 -98 -17s-38.666 -25.333 -51.999 -48s-26.666 -59.667 -39.999 -111l-271 -1016
c-12 -46.667 -18 -80.334 -18 -101.001c0 -29.333 9.33301 -49.166 28 -59.499s51 -15.5 97 -15.5h117c66 0 110.833 10.667 134.5 32s45.5 69.333 65.5 144l271 1016c12 44 18 77.667 18 101c0 28 -8.83301 47 -26.5 57s-48.5 16 -92.5 18l10 41c72 -4 174.667 -6 308 -6
c144 0 253.667 2 329 6l-12 -41c-36.667 -1.33301 -65 -4.16602 -85 -8.49902s-38.333 -13 -55 -26s-29.834 -30.167 -39.5 -51.5c-9.66699 -21.333 -19.5 -51.333 -29.5 -90l-270 -1016c-12 -46.667 -18 -80.334 -18 -101.001c0 -29.333 10 -49 30 -59
s55.667 -15.333 107 -16h47c-34.667 -96 -64 -191.667 -88 -287c-8.66699 -33.333 -19 -81 -31 -143h-45c6 46 9 87 9 123c0 98.667 -22.5 168.334 -67.5 209.001s-118.5 61 -220.5 61c-15.333 0 -60.5 -0.666992 -135.5 -2s-135.5 -2 -181.5 -2c-56 0 -124 1 -204 3
s-133.667 3 -161 3c-28 0 -84.5 -1 -169.5 -3s-157.5 -3 -217.5 -3c-50.667 0 -115 1 -193 3s-142 3 -192 3c-138 0 -243 -2 -315 -6z" />
    <glyph glyph-name="afii10044" unicode="&#x42a;" horiz-adv-x="1647" 
d="M170 1169c0 40.667 11.168 80.334 33.501 119.001s54.833 70.667 97.5 96c72.667 44 165.667 66 279 66c17.333 0 64.333 -1 141 -3s142.334 -3 197.001 -3c132.667 0 243 2 331 6l-10 -41c-25.333 -1.33301 -46 -3 -62 -5s-31.5 -5.5 -46.5 -10.5
s-26.833 -11.167 -35.5 -18.5s-17.334 -17.833 -26.001 -31.5s-16 -29 -22 -46s-12.333 -38.5 -19 -64.5l-123 -463h96c137.333 0 247.833 -11.833 331.5 -35.5s142.667 -57 177 -100s51.5 -98.167 51.5 -165.5c0 -72 -18 -138 -54 -198s-84.833 -109.5 -146.5 -148.5
s-133 -69.167 -214 -90.5s-166.833 -32 -257.5 -32c-22 0 -71.333 1 -148 3s-147 3 -211 3c-137.333 0 -243 -2 -317 -6l8 41c49.333 2 85.833 7.33301 109.5 16s43.167 24.667 58.5 48s29.666 60.666 42.999 111.999l270 1016c13.333 46 20 81 20 105
c0 29.333 -10.333 49.166 -31 59.499s-57 15.5 -109 15.5c-106.667 0 -184 -18.333 -232 -55c36.667 -10.667 67 -32.167 91 -64.5s36 -70.166 36 -113.499c0 -49.333 -15 -90.333 -45 -123s-68.333 -49 -115 -49c-46 0 -82 15.333 -108 46s-39 69 -39 115zM740.001 122
c0 -50 32.667 -75 98 -75c81.333 0 151.5 21 210.5 63s102.5 96.833 130.5 164.5s42 144.167 42 229.5c0 78.667 -20.833 136.834 -62.5 174.501s-114.5 56.5 -218.5 56.5h-44l-138 -518c-12 -46.667 -18 -78.334 -18 -95.001z" />
    <glyph glyph-name="afii10045" unicode="&#x42b;" horiz-adv-x="2147" 
d="M-86 0l8.00195 41.001c49.333 2 85.833 7.33301 109.5 16s43.167 24.667 58.5 48s29.666 60.666 42.999 111.999l270 1016c11.333 43.333 17 76.333 17 99c0 29.333 -9.83301 49 -29.5 59s-55.5 16 -107.5 18l10 41c67.333 -4 173.666 -6 318.999 -6
c137.333 0 250 2 338 6l-10 -41c-25.333 -1.33301 -46 -3 -62 -5s-31.5 -5.5 -46.5 -10.5s-26.833 -11.167 -35.5 -18.5s-17.334 -17.833 -26.001 -31.5s-16 -29 -22 -46s-12.333 -38.5 -19 -64.5l-123 -463h96c137.333 0 247.833 -11.833 331.5 -35.5s142.667 -57 177 -100
s51.5 -98.167 51.5 -165.5c0 -58 -11.667 -112.167 -35 -162.5s-55.666 -94 -96.999 -131s-90 -68.833 -146 -95.5s-117.5 -46.667 -184.5 -60s-136.833 -20 -209.5 -20c-20.667 0 -69.667 1 -147 3s-148 3 -212 3c-137.333 0 -243 -2 -317 -6zM442.002 124.001
c0 -51.333 32.999 -77.001 98.999 -77.001c80.667 0 150.334 21 209.001 63s102 96.833 130 164.5s42 144.167 42 229.5c0 78.667 -20.667 136.834 -62 174.501s-114.333 56.5 -219 56.5h-44l-138 -518c-11.333 -42.667 -17 -73.667 -17 -93zM1264 0l10.0039 40.998
c47.333 2 82.666 7.33301 105.999 16s42.666 24.834 57.999 48.501s29.666 60.834 42.999 111.501l270 1016c11.333 43.333 17 76.333 17 99c0 29.333 -9.83301 49 -29.5 59s-55.5 16 -107.5 18l10 41c66.667 -4 173.667 -6 321 -6c136 0 248 2 336 6l-10 -41
c-25.333 -1.33301 -46 -3 -62 -5s-31.5 -5.5 -46.5 -10.5s-26.833 -11.167 -35.5 -18.5s-17.334 -17.833 -26.001 -31.5s-16 -29 -22 -46s-12.333 -38.5 -19 -64.5l-270 -1016c-12 -46.667 -18 -80 -18 -100c0 -28.667 10 -48 30 -58s56.333 -16 109 -18l-9 -41
c-79.333 4 -190.333 6 -333 6s-250 -2 -322 -6z" />
    <glyph glyph-name="afii10046" unicode="&#x42c;" horiz-adv-x="1348" 
d="M-86 0l8.00195 41.001c49.333 2 85.833 7.33301 109.5 16s43.167 24.667 58.5 48s29.666 60.666 42.999 111.999l270 1016c11.333 43.333 17 76.333 17 99c0 29.333 -9.83301 49 -29.5 59s-55.5 16 -107.5 18l10 41c67.333 -4 173.666 -6 318.999 -6
c137.333 0 250 2 338 6l-10 -41c-25.333 -1.33301 -46 -3 -62 -5s-31.5 -5.5 -46.5 -10.5s-26.833 -11.167 -35.5 -18.5s-17.334 -17.833 -26.001 -31.5s-16 -29 -22 -46s-12.333 -38.5 -19 -64.5l-123 -463h96c137.333 0 247.833 -11.833 331.5 -35.5s142.667 -57 177 -100
s51.5 -98.167 51.5 -165.5c0 -58 -11.667 -112.167 -35 -162.5s-55.666 -94 -96.999 -131s-90 -68.833 -146 -95.5s-117.5 -46.667 -184.5 -60s-136.833 -20 -209.5 -20c-20.667 0 -69.667 1 -147 3s-148 3 -212 3c-137.333 0 -243 -2 -317 -6zM442.002 124.001
c0 -51.333 32.999 -77.001 98.999 -77.001c80.667 0 150.334 21 209.001 63s102 96.833 130 164.5s42 144.167 42 229.5c0 78.667 -20.667 136.834 -62 174.501s-114.333 56.5 -219 56.5h-44l-138 -518c-11.333 -42.667 -17 -73.667 -17 -93z" />
    <glyph glyph-name="afii10047" unicode="&#x42d;" horiz-adv-x="1442" 
d="M-31 0c44.667 120.667 89.6709 280.332 135.004 478.999h46c-7.33301 -48 -11 -91 -11 -129c0 -37.333 3.66699 -68.666 11 -93.999c12 -65.333 42.167 -121 90.5 -167s112.166 -69 191.499 -69c96 0 186.667 34.833 272 104.5s157 166 215 289s96 260.833 114 413.5
c-94.667 -189.333 -199.334 -284 -314.001 -284c-30 0 -58.833 5.33301 -86.5 16s-52.334 23.5 -74.001 38.5l-64.5 45.5c-21.333 15.333 -45.333 28.333 -72 39s-54 16 -82 16c-61.333 0 -118 -32.667 -170 -98l-27 18c61.333 103.333 120.666 180.833 177.999 232.5
s117.666 77.5 180.999 77.5c37.333 0 74 -8.16699 110 -24.5s66.167 -34.166 90.5 -53.499s54 -37.166 89 -53.499s70.167 -24.5 105.5 -24.5c27.333 0 52 7.5 74 22.5s44.333 42.167 67 81.5c4 44 6 88.667 6 134c0 130 -24.167 230.333 -72.5 301s-116.833 106 -205.5 106
c-52 0 -104.833 -11.833 -158.5 -35.5s-101.167 -56.834 -142.5 -99.501c-37.333 -36.667 -69.5 -79.334 -96.5 -128.001s-56.167 -111 -87.5 -187h-45c62 216.667 102 377.667 120 483h45c-4.66699 -36 -7 -59.333 -7 -70c0 -32.667 9 -49 27 -49
c11.333 0 24.666 5 39.999 15c36.667 23.333 65.334 40.833 86.001 52.5s48.334 24.834 83.001 39.501s71 25.167 109 31.5s80.333 9.5 127 9.5c177.333 0 311.833 -48.333 403.5 -145s137.5 -226.667 137.5 -390c0 -100.667 -14.833 -199.167 -44.5 -295.5
s-72.667 -185 -129 -266s-122.5 -152.333 -198.5 -214s-163.667 -110 -263 -145s-203.666 -52.5 -312.999 -52.5c-74.667 0 -136.334 11.667 -185.001 35s-93.667 56.666 -135 99.999c-10.667 10.667 -21.667 16 -33 16c-31.333 0 -62 -40.667 -92 -122h-45z" />
    <glyph glyph-name="afii10048" unicode="&#x42e;" horiz-adv-x="2294" 
d="M-83 0l10.0059 40.9941c47.333 2 82.666 7.33301 105.999 16s42.666 24.834 57.999 48.501s29.666 60.834 42.999 111.501l270 1016c11.333 43.333 17 76.333 17 99c0 29.333 -9.83301 49 -29.5 59s-55.5 16 -107.5 18l10 41c66.667 -4 173.667 -6 321 -6
c136 0 248 2 336 6l-10 -41c-25.333 -1.33301 -46 -3 -62 -5s-31.5 -5.5 -46.5 -10.5s-26.833 -11.167 -35.5 -18.5s-17.334 -17.833 -26.001 -31.5s-16 -29 -22 -46s-12.333 -38.5 -19 -64.5l-128 -483h260c26 95.333 65 186 117 272s114.167 163.333 186.5 232
s157 123.334 254 164.001s198.5 61 304.5 61c169.333 0 301.5 -47.167 396.5 -141.5s142.5 -224.166 142.5 -389.499c0 -74.667 -9.83301 -150.667 -29.5 -228s-47.5 -152.166 -83.5 -224.499s-81 -140.333 -135 -204s-113.333 -119.167 -178 -166.5
s-137.834 -84.833 -219.501 -112.5s-166.167 -41.5 -253.5 -41.5c-168.667 0 -300.334 47 -395.001 141s-142 223.333 -142 388c0 70.667 8.33301 140.334 25 209.001h-261l-131 -492c-12 -46.667 -18 -80 -18 -100c0 -28.667 10 -48 30 -58s56.333 -16 109 -18l-9 -41
c-79.333 4 -190.333 6 -333 6s-250 -2 -322 -6zM1180.01 423.994c0 -130 18.499 -231.834 55.499 -305.501s88.833 -110.5 155.5 -110.5c47.333 0 96 17.833 146 53.5s96.833 85.834 140.5 150.501s83 138.667 118 222s62.667 176.666 83 279.999s30.5 207.333 30.5 312
c0 129.333 -18.5 231 -55.5 305s-88.167 111 -153.5 111c-60 0 -121.167 -28.167 -183.5 -84.5s-118.166 -130.166 -167.499 -221.499s-89.833 -200.333 -121.5 -327s-47.5 -255 -47.5 -385z" />
    <glyph glyph-name="afii10049" unicode="&#x42f;" horiz-adv-x="1438" 
d="M-129 176l33.0059 17.002c22 -48 54.667 -72 98 -72c45.333 0 78 25.333 98 76l95 223c37.333 87.333 90.166 150.333 158.499 189s163.5 63.334 285.5 74.001c-126.667 17.333 -221.167 58.166 -283.5 122.499s-93.5 139.166 -93.5 224.499
c0 70.667 17.833 133.167 53.5 187.5s85.5 98.166 149.5 131.499s138 58.5 222 75.5s176.667 25.5 278 25.5c20.667 0 62.667 -1 126 -3s121.666 -3 174.999 -3c138 0 245 2 321 6l-8 -41c-36.667 -1.33301 -65.167 -4.16602 -85.5 -8.49902s-38.833 -13 -55.5 -26
s-29.667 -30.167 -39 -51.5s-19 -51.333 -29 -90l-270 -1016c-11.333 -43.333 -17 -76 -17 -98c0 -30 10 -50 30 -60s56 -16 108 -18l-11 -41c-66.667 4 -173.667 6 -321 6c-138 0 -250 -2 -336 -6l10 41c38 1.33301 67.333 4.16602 88 8.49902s39.167 13.166 55.5 26.499
s29.166 30.333 38.499 51s19 50.667 29 90l124 466c-57.333 -6.66699 -107.333 -9.66699 -150 -9h-13c-44.667 -8.66699 -82.334 -27 -113.001 -55s-58.334 -72 -83.001 -132l-101 -258c-36.667 -91.333 -78.834 -157.166 -126.501 -197.499s-110.5 -60.5 -188.5 -60.5
c-68.667 0 -122.667 15.833 -162 47.5s-69.333 84.167 -90 157.5zM600.006 983.002c0 -81.333 17.501 -147 52.501 -197s91.167 -75 168.5 -75c30 0 58.667 2 86 6l137 516c11.333 43.333 17 75.666 17 96.999c0 24.667 -6.83301 43.334 -20.5 56.001s-36.834 19 -69.501 19
c-110 0 -199.333 -38 -268 -114s-103 -178.667 -103 -308z" />
    <glyph glyph-name="afii10065" unicode="&#x430;" horiz-adv-x="1143" 
d="M-2 223c0 90.667 19.498 187.667 58.498 291s88.333 196.833 148 280.5s128.334 153.334 206.001 209.001s152.5 83.5 224.5 83.5c36 0 65.5 -10.833 88.5 -32.5s36.833 -54.5 41.5 -98.5l28 101c108.667 2 207.667 12 297 30l-269 -913
c-6.66699 -23.333 -10 -42 -10 -56c0 -30.667 13 -46 39 -46c48 0 90.333 53.667 127 161l37 99h39l-52 -150c-14 -40 -31.667 -74.333 -53 -103s-44.333 -50.5 -69 -65.5s-49 -25.833 -73 -32.5s-49 -10 -75 -10c-71.333 0 -121.666 21.333 -150.999 64
c-18.667 27.333 -28 62 -28 104c0 32 6 72.667 18 122c-86 -193.333 -200.333 -290 -343 -290c-75.333 0 -132.333 22.167 -171 66.5s-58 106.166 -58 185.499zM300.998 209c0 -45.333 4.5 -77.834 13.5 -97.501s23.5 -29.5 43.5 -29.5c46 0 97.833 47 155.5 141
s107.167 221 148.5 381l-10 -50l89 319c1.33301 8 2 19.667 2 35c0 33.333 -6 59 -18 77s-29 27 -51 27c-34.667 0 -74 -24.833 -118 -74.5s-84.667 -112.167 -122 -187.5s-68.833 -162.166 -94.5 -260.499s-38.5 -191.833 -38.5 -280.5z" />
    <glyph glyph-name="afii10066" unicode="&#x431;" horiz-adv-x="1112" 
d="M51 309c0 80.667 10.332 167.333 30.999 260c20 84.667 45 169.834 75 255.501s70.5 175.5 121.5 269.5s105.5 170.333 163.5 229c68 68 158.333 115 271 141c33.333 8.66699 66 15.667 98 21s70 10.333 114 15l85 9c66.667 8.66699 117 20 151 34s64 36.333 90 67l29 -8
c-30 -70 -58.333 -125.833 -85 -167.5s-58.334 -77.5 -95.001 -107.5c-32.667 -24 -66 -41.5 -100 -52.5s-77.333 -20.833 -130 -29.5c-25.333 -4 -62.5 -8.66699 -111.5 -14s-86.167 -10 -111.5 -14c-48 -8 -89.667 -17.5 -125 -28.5s-67.666 -26.333 -96.999 -46
s-54.166 -40.167 -74.499 -61.5s-41 -50.833 -62 -88.5s-39.5 -75 -55.5 -112s-35.667 -85.833 -59 -146.5c38.667 67.333 83 126.333 133 177s110.667 92.667 182 126s147.333 50 228 50c106 0 187.5 -28.667 244.5 -86s85.5 -141 85.5 -251
c0 -64.667 -8.5 -131.834 -25.5 -201.501s-43.667 -139 -80 -208s-79.833 -130.833 -130.5 -185.5s-113.167 -99 -187.5 -133s-154.5 -51 -240.5 -51c-106 0 -187.833 28.833 -245.5 86.5s-86.5 141.5 -86.5 251.5zM325.999 151.999c0 -49.333 5.83398 -85 17.501 -107
s29.5 -33 53.5 -33c30 0 62.667 18 98 54s69 85 101 147s61.333 130.667 88 206s48 155.833 64 241.5s24 166.5 24 242.5c0 54 -5.5 91.5 -16.5 112.5s-27.833 31.5 -50.5 31.5c-38 0 -79.833 -29.333 -125.5 -88s-86.834 -131.5 -123.501 -218.5
s-67.5 -184.167 -92.5 -291.5s-37.5 -206.333 -37.5 -297z" />
    <glyph glyph-name="afii10067" unicode="&#x432;" horiz-adv-x="1024" 
d="M12 303c0 57.333 8.6709 116.829 26.0039 178.496s41.666 121.5 72.999 179.5s69.666 112.833 114.999 164.5s94.666 96.834 147.999 135.501s112.5 69.334 177.5 92.001s131.167 34 198.5 34c76 0 136.5 -15 181.5 -45s67.5 -75.667 67.5 -137
c0 -82.667 -40 -159 -120 -229s-181.667 -125.333 -305 -166c56.667 0.666992 107.667 -5 153 -17s83 -32.667 113 -62s45 -65.666 45 -108.999c0 -40.667 -13.167 -82 -39.5 -124s-61.833 -79.667 -106.5 -113s-99.834 -60.666 -165.501 -81.999s-134.5 -32 -206.5 -32
c-113.333 0 -200.833 28.167 -262.5 84.5s-92.5 138.833 -92.5 247.5zM319.004 292.996c0 -89.333 11.832 -157.834 35.499 -205.501s55.167 -71.5 94.5 -71.5c46 0 85 31.5 117 94.5s48 131.167 48 204.5c0 50.667 -9.16699 91.334 -27.5 122.001
s-43.166 48.667 -74.499 54c-58 -16 -118 -28 -180 -36c-8.66699 -56.667 -13 -110.667 -13 -162zM338.003 485.995c76.667 21.333 147.333 53.499 212 96.499s118.167 97.5 160.5 163.5s63.5 136.667 63.5 212c0 60.667 -21 91 -63 91c-41.333 0 -87 -24.667 -137 -74
s-97.167 -118.166 -141.5 -206.499s-75.833 -182.5 -94.5 -282.5z" />
    <glyph glyph-name="afii10068" unicode="&#x433;" horiz-adv-x="834" 
d="M-33 150c0 39.333 10.001 76.9971 30.001 112.997s45.833 68 77.5 96s66.834 55.333 105.501 82l115.5 81c38.333 27.333 73.333 55.333 105 84s57.5 61.667 77.5 99s30 76.666 30 117.999c0 34 -8.5 60.333 -25.5 79s-41.833 28 -74.5 28
c-49.333 0 -98.333 -19 -147 -57s-93.334 -99 -134.001 -183l-31 10c50 126.667 117.167 221.834 201.5 285.501s181.833 95.5 292.5 95.5c70 0 127 -12.667 171 -38s66 -63.666 66 -114.999c0 -37.333 -10 -74 -30 -110s-45.833 -69.333 -77.5 -100s-66.667 -61 -105 -91
l-115 -90.5c-38.333 -30.333 -73.333 -60.666 -105 -90.999s-57.5 -63.666 -77.5 -99.999s-30 -72.833 -30 -109.5c0 -72.667 36.667 -109 110 -109c110 0 200.333 70.333 271 211l32 -10c-104.667 -238 -262.334 -357 -473.001 -357c-77.333 0 -140 15.333 -188 46
s-72 75 -72 133z" />
    <glyph glyph-name="afii10069" unicode="&#x434;" horiz-adv-x="1081" 
d="M25 309c0 62.667 8.49805 128.833 25.498 198.5s43 138.5 78 206.5s76 129.333 123 184s103.333 98.834 169 132.501s135.167 50.5 208.5 50.5c28.667 0 53.334 -3.66699 74.001 -11c-21.333 116 -62 214.167 -122 294.5s-139 147.833 -237 202.5l25 35
c96 -30.667 183.5 -71.5 262.5 -122.5s147.5 -110.167 205.5 -177.5s103 -144 135 -230s48 -177 48 -273c0 -76 -8.83301 -152.667 -26.5 -230s-45.167 -151.833 -82.5 -223.5s-81.666 -135.334 -132.999 -191.001s-113.5 -100.167 -186.5 -133.5s-151.5 -50 -235.5 -50
c-101.333 0 -181.833 27.333 -241.5 82s-89.5 140 -89.5 256zM323.998 157.999c0 -55.333 5.16797 -93.499 15.501 -114.499s28.166 -31.5 53.499 -31.5c56.667 0 110.834 46 162.501 138s92.167 203.333 121.5 334s44 256.667 44 378c0 57.333 -3.66699 113.333 -11 168
c-19.333 6.66699 -40.333 10 -63 10c-46.667 0 -90.834 -29 -132.501 -87s-76 -131.333 -103 -220s-48.333 -183.834 -64 -285.501s-23.5 -198.167 -23.5 -289.5z" />
    <glyph glyph-name="afii10070" unicode="&#x435;" horiz-adv-x="961" 
d="M6 260c0 59.333 8.50293 121.171 25.5029 185.504s40.667 127 71 188s68.166 119 113.499 174s94.666 103.167 147.999 144.5s113 74.166 179 98.499s133.333 36.5 202 36.5c63.333 0 114.666 -13.833 153.999 -41.5s59 -67.5 59 -119.5
c0 -60 -19.5 -117.167 -58.5 -171.5s-90.833 -101.833 -155.5 -142.5s-131.834 -75.667 -201.501 -105s-142.167 -54 -217.5 -74c-8 -46.667 -12 -93.334 -12 -140.001c0 -72 13.5 -123.167 40.5 -153.5s66.167 -45.5 117.5 -45.5c42.667 0 90.834 13.5 144.501 40.5
s105.167 69.5 154.5 127.5l33 -16c-31.333 -48.667 -69 -92.834 -113 -132.501s-98 -73.334 -162 -101.001s-130.667 -41.5 -200 -41.5c-95.333 0 -172.833 25.167 -232.5 75.5s-89.5 121.5 -89.5 213.5zM332.003 471.005c96 42 171 87.668 225 137.001
c117.333 105.333 176 229.666 176 372.999c0 45.333 -11 68 -33 68c-40.667 0 -86 -27.667 -136 -83s-96.333 -128 -139 -218s-73.667 -182.333 -93 -277z" />
    <glyph glyph-name="afii10072" unicode="&#x436;" horiz-adv-x="2198" 
d="M-53 170c0 56.667 19.6719 108.333 59.0049 155s86.333 70 141 70c35.333 0 64 -10.5 86 -31.5s33 -50.833 33 -89.5c0 -50.667 -18.167 -96.667 -54.5 -138s-80.166 -69 -131.499 -83c18.667 -27.333 48 -41 88 -41c59.333 0 117.166 36.5 173.499 109.5
s101.833 167.833 136.5 284.5s52 235.334 52 356.001c0 76.667 -10 131.667 -30 165s-50.667 50 -92 50c-40 0 -82.167 -14 -126.5 -42s-86.166 -74 -125.499 -138l-35 16c105.333 182.667 244.666 274 417.999 274c90 0 159.833 -26.333 209.5 -79s74.5 -132.667 74.5 -240
c0 -60.667 -8.33301 -126.334 -25 -197.001h144l127 488c120.667 2 219.667 11.333 297 28l-135 -516h154c23.333 68 53.5 132.333 90.5 193s79.667 115.334 128 164.001s103.666 87.334 165.999 116.001s127.166 43 194.499 43c76.667 0 137.167 -18.5 181.501 -55.5
c44.333 -37 66.5 -84.5 66.5 -142.5c0 -56.667 -19.833 -108.334 -59.5 -155.001s-86.834 -70 -141.501 -70c-34.667 0 -63.167 10.5 -85.5 31.5s-33.5 50.5 -33.5 88.5c0 51.333 18.167 97.666 54.5 138.999s80.5 69 132.5 83c-22 27.333 -51.333 41 -88 41
c-59.333 0 -117.333 -36.5 -174 -109.5s-102.334 -167.833 -137.001 -284.5s-52 -235.334 -52 -356.001c0 -76.667 10 -131.667 30 -165s51 -50 93 -50c41.333 0 83.166 14.5 125.499 43.5s82.5 74.5 120.5 136.5l41 -16c-21.333 -37.333 -45 -71.5 -71 -102.5
s-56 -60 -90 -87s-73 -48 -117 -63s-90.667 -22.5 -140 -22.5c-90 0 -160 26.5 -210 79.5s-75 133.167 -75 240.5c0 75.333 12.333 155 37 239h-152l-139 -530h-288l138 530h-144c-21.333 -72 -50.333 -140.667 -87 -206s-79.834 -124.666 -129.501 -177.999
s-107 -95.833 -172 -127.5s-132.833 -47.5 -203.5 -47.5c-77.333 0 -138 18.667 -182 56s-66 85 -66 143z" />
    <glyph glyph-name="afii10073" unicode="&#x437;" horiz-adv-x="1001" 
d="M-61 186c0 51.333 20.5 94.334 61.5 129.001s90.833 52 149.5 52c36.667 0 67.667 -9.5 93 -28.5s38 -45.167 38 -78.5c0 -45.333 -17.333 -86.333 -52 -123s-78.334 -62 -131.001 -76c20 -15.333 47.667 -27.666 83 -36.999s69.333 -13.333 102 -12
c86.667 0 156 29.5 208 88.5s78 134.833 78 227.5c0 59.333 -12.5 108.166 -37.5 146.499s-59.5 59.166 -103.5 62.499c-34.667 -18 -69.334 -27 -104.001 -27c-25.333 0 -38 8.33301 -38 25c0 4 0.333008 7.33301 1 10c6 22 26.333 33 61 33
c14.667 0 29.167 -1.5 43.5 -4.5s25.833 -4.5 34.5 -4.5c56 6.66699 109.333 38 160 94s76 117.667 76 185c0 87.333 -50.667 131 -152 131c-147.333 0 -262.666 -84 -345.999 -252l-35 10c27.333 62 60.333 115.5 99 160.5s80.834 80.667 126.501 107
s92.667 45.666 141 57.999s99.5 18.5 153.5 18.5c96 0 172.667 -17.167 230 -51.5s86 -82.5 86 -144.5c0 -58 -23.167 -111 -69.5 -159s-107.666 -86.333 -183.999 -115s-161.833 -47.334 -256.5 -56.001c123.333 -3.33301 222.666 -24.666 297.999 -63.999
s113 -98 113 -176c0 -73.333 -27.167 -136.666 -81.5 -189.999s-122.5 -92.333 -204.5 -117s-171 -37 -267 -37c-103.333 0 -191.5 19.833 -264.5 59.5s-109.5 91.5 -109.5 155.5z" />
    <glyph glyph-name="afii10074" unicode="&#x438;" horiz-adv-x="1223" 
d="M49 727l50.998 149.999c48.667 140 140.334 210 275.001 210c124.667 0 187 -56.333 187 -169c0 -42 -10 -94 -30 -156l-184 -553c-12 -36.667 -18 -65.667 -18 -87c0 -32 13 -48 39 -48c40 0 88 40 144 120s112.167 185.667 168.5 317s106.5 272.333 150.5 423l32 125
c120.667 2 219.667 11.333 297 28l-256 -913c-8.66699 -31.333 -13 -54 -13 -68c0 -22.667 12 -34 36 -34c25.333 0 48.333 12.167 69 36.5s41.334 65.833 62.001 124.5l39 105h39l-56 -156c-48 -140.667 -139.333 -211 -274 -211c-74 0 -124.667 23.333 -152 70
c-12.667 23.333 -19 51.333 -19 84c0 34 7 78.333 21 133l54 209c-40 -97.333 -78.667 -178.333 -116 -243s-75.166 -115.5 -113.499 -152.5s-76.5 -63 -114.5 -78s-80.333 -22.5 -127 -22.5c-61.333 0 -107.5 14.5 -138.5 43.5s-46.5 70.5 -46.5 124.5
c0 40.667 9 88 27 142l199 604c8 24.667 12 44.334 12 59.001c0 28.667 -13 43 -39 43c-22 0 -43.333 -11.5 -64 -34.5s-42.334 -65.5 -65.001 -127.5l-37 -98h-39z" />
    <glyph glyph-name="afii10075" unicode="&#x439;" horiz-adv-x="1223" 
d="M49 727l50.998 149.999c48.667 140 140.334 210 275.001 210c124.667 0 187 -56.333 187 -169c0 -42 -10 -94 -30 -156l-184 -553c-12 -36.667 -18 -65.667 -18 -87c0 -32 13 -48 39 -48c40 0 88 40 144 120s112.167 185.667 168.5 317s106.5 272.333 150.5 423l32 125
c120.667 2 219.667 11.333 297 28l-256 -913c-8.66699 -31.333 -13 -54 -13 -68c0 -22.667 12 -34 36 -34c25.333 0 48.333 12.167 69 36.5s41.334 65.833 62.001 124.5l39 105h39l-56 -156c-48 -140.667 -139.333 -211 -274 -211c-74 0 -124.667 23.333 -152 70
c-12.667 23.333 -19 51.333 -19 84c0 34 7 78.333 21 133l54 209c-40 -97.333 -78.667 -178.333 -116 -243s-75.166 -115.5 -113.499 -152.5s-76.5 -63 -114.5 -78s-80.333 -22.5 -127 -22.5c-61.333 0 -107.5 14.5 -138.5 43.5s-46.5 70.5 -46.5 124.5
c0 40.667 9 88 27 142l199 604c8 24.667 12 44.334 12 59.001c0 28.667 -13 43 -39 43c-22 0 -43.333 -11.5 -64 -34.5s-42.334 -65.5 -65.001 -127.5l-37 -98h-39zM443.998 1513c0 52 17.668 95.166 53.001 129.499s80.666 51.5 135.999 51.5c40.667 0 73 -10.333 97 -31
s36 -50.667 36 -90c0 -41.333 -13.167 -79.166 -39.5 -113.499s-59.833 -58.833 -100.5 -73.5c28.667 -16 71 -24 127 -24c86 0.666992 167.833 23.667 245.5 69s142.167 107 193.5 185l30 -21c-60.667 -94 -133.667 -163.833 -219 -209.5s-172 -68.5 -260 -68.5
c-86.667 0 -158.167 17 -214.5 51s-84.5 82.333 -84.5 145z" />
    <glyph glyph-name="afii10076" unicode="&#x43a;" horiz-adv-x="1217" 
d="M23 0l259.995 885.001c8.66699 30.667 13 52.667 13 66c0 24 -11.333 36 -34 36c-25.333 0 -48.666 -12.333 -69.999 -37s-43 -66.334 -65 -125.001l-39 -104h-39l55 156c52.667 140 143.667 210 273 210c113.333 0 170 -54.333 170 -163c0 -36 -6.33301 -77 -19 -123
l-62 -230c54 6.66699 99.333 23.5 136 50.5s64.667 59.5 84 97.5s35.666 76.667 48.999 116s28.833 78.333 46.5 117s38.5 68 62.5 88c40 31.333 83 47 129 47c61.333 0 108 -17.333 140 -52s48 -78.334 48 -131.001c0 -52 -15.833 -95.167 -47.5 -129.5
s-73.167 -51.5 -124.5 -51.5c-42 0 -74.333 11.333 -97 34s-34 51 -34 85c0.666992 39.333 13.834 75.5 39.501 108.5s57.5 59.5 95.5 79.5c-6.66699 11.333 -16.667 17 -30 17c-33.333 0 -63 -10.333 -89 -31c-19.333 -16.667 -37.166 -42.667 -53.499 -78
s-31.166 -71.5 -44.499 -108.5s-28.666 -74.167 -45.999 -111.5s-41.333 -70.5 -72 -99.5s-67 -48.833 -109 -59.5c230.667 -4 346 -79.333 346 -226c0 -18.667 -2 -39 -6 -61l-23 -114c-3.33301 -21.333 -5 -36.666 -5 -45.999c0 -14.667 2.83301 -25 8.5 -31
s14.834 -9 27.501 -9c46 0 88.333 53.667 127 161l35 99h39l-51 -150c-17.333 -52 -42.833 -94.5 -76.5 -127.5s-67.667 -55.167 -102 -66.5s-71.166 -17 -110.499 -17c-56.667 0 -100.334 13.5 -131.001 40.5s-46 66.833 -46 119.5c0 22.667 3 48 9 76l26 121
c7.33301 31.333 11 58 11 80c0 41.333 -13 72.5 -39 93.5s-69.333 35.167 -130 42.5l-147 -544h-288z" />
    <glyph glyph-name="afii10077" unicode="&#x43b;" horiz-adv-x="1208" 
d="M-125 133c0 50.667 16.6641 92.0039 49.9971 124.004s74 48 122 48c40 0 71.167 -10.333 93.5 -31s33.5 -47.667 33.5 -81c0 -36.667 -12.333 -71.167 -37 -103.5s-56 -58.833 -94 -79.5c2.66699 -2.66699 9.33398 -4 20.001 -4c46.667 4 89.167 24.667 127.5 62
s71.833 91.833 100.5 163.5s49.667 129.167 63 172.5s29.666 104 48.999 182c4 16 7 27.667 9 35c17.333 66 32 119.5 44 160.5s26.5 82.667 43.5 125s34 74.833 51 97.5s37.333 41.167 61 55.5s49.834 21.5 78.501 21.5c38 0 68.167 -13 90.5 -39
s35.166 -61.333 38.499 -106l33 123c119.333 2 218.333 11.333 297 28l-256 -913c-9.33301 -30.667 -14 -52.334 -14 -65.001c0 -24.667 12 -37 36 -37c24.667 0 47.667 12.333 69 37s42.333 66 63 124l36 105h39l-53 -156c-51.333 -140.667 -142.666 -211 -273.999 -211
c-76 0 -129.333 23.333 -160 70c-14 22.667 -21 51 -21 85c0 34.667 7.66699 78.667 23 132l149 553c2.66699 21.333 4 43.333 4 66c0 50.667 -9.16699 90.834 -27.5 120.501s-43.166 44.5 -74.499 44.5c-20 0 -38.5 -4.5 -55.5 -13.5s-32.5 -23.667 -46.5 -44
s-26.167 -40.833 -36.5 -61.5s-21.333 -49.334 -33 -86.001s-21.167 -68.5 -28.5 -95.5l-29 -110.5c-8 -32.667 -14.333 -57.334 -19 -74.001l-39 -140.5c-10.667 -37 -25 -80.333 -43 -130s-35.667 -90.834 -53 -123.501s-38.666 -64 -63.999 -94s-52.333 -53 -81 -69
c-34.667 -19.333 -73 -29 -115 -29c-54.667 0 -96.667 15.167 -126 45.5s-44 69.166 -44 116.499z" />
    <glyph glyph-name="afii10078" unicode="&#x43c;" horiz-adv-x="1565" 
d="M-123 131c0 52 16.502 93.999 49.502 125.999s73.833 48 122.5 48c40 0 71.167 -10.333 93.5 -31s33.5 -47.667 33.5 -81c0 -36.667 -12.333 -71.167 -37 -103.5s-56 -58.833 -94 -79.5c2.66699 -2.66699 9.66699 -4 21 -4c29.333 2 55.666 10.333 78.999 25
c21.333 12.667 41.666 31.334 60.999 56.001s36.666 50.5 51.999 77.5s30.666 61.833 45.999 104.5s28.166 80.834 38.499 114.501s21.5 77.5 33.5 131.5s21.333 97.833 28 131.5s14.834 80 24.501 139s16.5 101.833 20.5 128.5l18 125l-2 20c113.333 2 204 11.333 272 28
l66 -720l395 653l10 39c120.667 2 220.334 11.333 299.001 28l-258 -913c-8 -30.667 -12 -52.334 -12 -65.001c0 -24.667 11.667 -37 35 -37c24.667 0 47.5 12.167 68.5 36.5s41.833 65.833 62.5 124.5l39 105h39l-56 -156c-26 -74 -63 -127.667 -111 -161
s-102.333 -50 -163 -50c-76.667 0 -129.334 23.333 -158.001 70c-14 22.667 -21 51 -21 85c0 30.667 7 74.667 21 132l169 630l-541 -898h-39l-99 907c-16.667 -112.667 -33.834 -213 -51.501 -301s-39.167 -174.167 -64.5 -258.5s-55.166 -155.333 -89.499 -213
s-72.166 -99.167 -113.499 -124.5c-33.333 -19.333 -71.666 -29 -114.999 -29c-56.667 0 -99.5 15 -128.5 45s-43.5 68.333 -43.5 115z" />
    <glyph glyph-name="afii10079" unicode="&#x43d;" horiz-adv-x="1235" 
d="M31 0l249.999 885.001c8 32 12 53.667 12 65c0 24.667 -11.667 37 -35 37c-25.333 0 -48.333 -12.167 -69 -36.5s-42 -66.166 -64 -125.499l-39 -104h-39l55 156c50.667 140 140.334 210 269.001 210c115.333 0 173 -55.667 173 -167c0 -36.667 -6 -76.334 -18 -119.001
l-59 -230h286l126 488c120.667 2 219.667 11.333 297 28l-256 -913c-8.66699 -31.333 -13 -54 -13 -68c0 -22.667 11.667 -34 35 -34c25.333 0 48.333 12.167 69 36.5s41.334 65.833 62.001 124.5l39 105h39l-55 -156c-48.667 -140.667 -140.334 -211 -275.001 -211
c-74.667 0 -125 23.333 -151 70c-12.667 23.333 -19 51.666 -19 84.999c0 34 7 78 21 132l70 272h-286l-137 -530h-288z" />
    <glyph glyph-name="afii10080" unicode="&#x43e;" horiz-adv-x="1083" 
d="M25 309c0 64.667 8.50098 131.834 25.501 201.501s43.667 139 80 208s79.833 130.667 130.5 185s113.167 98.5 187.5 132.5s154.166 51 239.499 51c106.667 0 188.667 -28.833 246 -86.5s86 -141.167 86 -250.5c0 -64.667 -8.5 -131.834 -25.5 -201.501
s-43.667 -139 -80 -208s-80 -130.833 -131 -185.5s-113.5 -99 -187.5 -133s-154 -51 -240 -51c-106 0 -187.667 28.833 -245 86.5s-86 141.5 -86 251.5zM299.001 152c0 -49.333 5.66797 -85 17.001 -107s29 -33 53 -33c37.333 0 78.333 28.333 123 85
s85.5 127.5 122.5 212.5s68 181.5 93 289.5s37.5 209.333 37.5 304c0 54 -5.5 91.5 -16.5 112.5s-27.833 31.5 -50.5 31.5c-38 0 -79.833 -29.333 -125.5 -88s-86.834 -131.5 -123.501 -218.5s-67.5 -184.167 -92.5 -291.5s-37.5 -206.333 -37.5 -297z" />
    <glyph glyph-name="afii10081" unicode="&#x43f;" horiz-adv-x="1235" 
d="M33 0l247.999 884.997c8 28.667 12 50.334 12 65.001c0 24.667 -11.667 37 -35 37c-25.333 0 -48 -12 -68 -36s-41 -66 -63 -126l-39 -104h-39l55 156c26 74.667 61 128.334 105 161.001s97.333 49 160 49c117.333 0 176 -56 176 -168c0 -34.667 -5.66699 -74 -17 -118
l-64 -249c42 104.667 82.833 192 122.5 262s79.5 125 119.5 165s79.667 68 119 84s83 24 131 24c123.333 0 185 -54.667 185 -164c0 -41.333 -9 -89.666 -27 -144.999l-201 -604c-8 -22 -12 -42 -12 -60c0 -28 13 -42 39 -42c22 0 43.333 11.333 64 34s42.334 65 65.001 127
l37 99h39l-51 -150c-49.333 -140.667 -141 -211 -275 -211c-76.667 0 -131.334 22.667 -164.001 68c-17.333 26.667 -26 58.334 -26 95.001c0 42 11 96.333 33 163l184 553c12.667 39.333 19 68.666 19 87.999c0 31.333 -13.333 47 -40 47
c-41.333 0 -91.166 -41.833 -149.499 -125.5s-116.5 -192.5 -174.5 -326.5s-108.667 -276.333 -152 -427l-27 -106h-289z" />
    <glyph glyph-name="afii10082" unicode="&#x440;" horiz-adv-x="1194" 
d="M-186 -371l12 42.998c48.667 0 84.167 9 106.5 27s40.166 51.333 53.499 100l371 1330c-38.667 -85.333 -83 -161.833 -133 -229.5s-109.667 -137.5 -179 -209.5l-22 27c44.667 48 80.167 87.333 106.5 118s57 70.5 92 119.5s67.667 103.167 98 162.5
s60.5 127.333 90.5 204l8 27c112.667 8 214.334 27 305.001 57l-177 -624c50 106 102 183.5 156 232.5s113 73.5 177 73.5c82.667 0 145.667 -26.833 189 -80.5s65 -131.834 65 -234.501c0 -64 -8.5 -132 -25.5 -204s-43 -143.333 -78 -214s-76.333 -134.5 -124 -191.5
s-105.167 -103.167 -172.5 -138.5s-138.333 -53 -213 -53c-80.667 0 -142 23.667 -184 71l-55 -196c-8 -29.333 -12 -53.666 -12 -72.999c0 -37.333 13.667 -63.166 41 -77.499s70 -22.166 128 -23.499l-12 -43c-192 6 -300 9 -324 9c-26.667 0 -122.667 -3 -288 -9z
M347 77.998c24.667 -31.333 55.667 -47.001 93 -47.001c48.667 0 97.5 25.333 146.5 76s91.333 114.167 127 190.5s64.667 160.5 87 252.5s33.5 178.333 33.5 259c0 63.333 -5.83301 107.5 -17.5 132.5s-28.5 37.5 -50.5 37.5c-41.333 0 -87.833 -39.167 -139.5 -117.5
s-99.167 -178.166 -142.5 -299.499z" />
    <glyph glyph-name="afii10083" unicode="&#x441;" horiz-adv-x="948" 
d="M16 287c0 68 10.334 138.832 31.001 212.499s51.5 145.334 92.5 215.001s89 132.334 144 188.001s120 100.334 195 134.001s153.833 50.5 236.5 50.5c74 0 134.167 -18.667 180.5 -56s69.5 -84 69.5 -140c0 -57.333 -19.833 -109.5 -59.5 -156.5
s-87.5 -70.5 -143.5 -70.5c-34 0 -62 10.667 -84 32s-33 50 -33 86c0 53.333 18.333 100.666 55 141.999s80.334 68.666 131.001 81.999c-23.333 27.333 -56 41 -98 41c-66.667 0 -131.834 -36.333 -195.501 -109s-115.167 -168.167 -154.5 -286.5s-59 -239.833 -59 -364.5
c0 -136.667 51.667 -205 155 -205c97.333 0 187.666 60 270.999 180l41 -16c-49.333 -78.667 -111.833 -144.167 -187.5 -196.5s-162.167 -78.5 -259.5 -78.5c-99.333 0 -178.833 26.667 -238.5 80s-89.5 132 -89.5 236z" />
    <glyph glyph-name="afii10084" unicode="&#x442;" horiz-adv-x="1753" 
d="M31 0l249.997 885.001c6.66699 23.333 10 42.666 10 57.999c0 29.333 -12.333 44 -37 44c-24 0 -46.167 -12.667 -66.5 -38s-41.166 -66.666 -62.499 -123.999l-39 -104h-39l55 156c50.667 140 143 210 277 210c110 0 165 -54.667 165 -164c0 -38 -6 -78.667 -18 -122
l-47 -180c66.667 168 135.5 287.667 206.5 359s155.833 107 254.5 107c108 0 162 -53 162 -159c0 -40 -8.33301 -90 -25 -150l-37 -131c68 162.667 137.5 276.667 208.5 342s151.833 98 242.5 98c111.333 0 167 -53.333 167 -160c0 -43.333 -9.33301 -93 -28 -149l-200 -604
c-8.66699 -25.333 -13 -45.666 -13 -60.999c0 -27.333 13 -41 39 -41c47.333 0 90.333 53.667 129 161l37 99h39l-51 -150c-49.333 -140.667 -141.666 -211 -276.999 -211c-78.667 0 -133.334 24.667 -164.001 74c-14.667 24.667 -22 55 -22 91c0 43.333 10.333 97 31 161
l184 553c10.667 34 16 61.333 16 82c0 27.333 -9.33301 41 -28 41c-56.667 0 -124.167 -67.333 -202.5 -202s-157.166 -330.334 -236.499 -587.001v5l-53 -189h-293l250 850c12 38.667 18 66.667 18 84c0 26 -11.333 39 -34 39c-61.333 0 -130.666 -70.833 -207.999 -212.5
s-150 -326.834 -218 -555.501v5l-54 -210h-288z" />
    <glyph glyph-name="afii10085" unicode="&#x443;" horiz-adv-x="987" 
d="M-221 -270c0 36 13.167 66.1689 39.5 90.502s60.166 36.5 101.499 36.5c80.667 0 153.667 -47.333 219 -142c93.333 45.333 182.333 108.333 267 189l-160 979c-8 37.333 -15.5 62.666 -22.5 75.999s-17.167 20 -30.5 20c-15.333 0 -30 -10.167 -44 -30.5
s-31.667 -60.833 -53 -121.5l-37 -100h-39l52 150c26.667 77.333 61 131.666 103 162.999s91.667 47 149 47c58 0 103.333 -16.167 136 -48.5s55.334 -89.833 68.001 -172.5l96 -701c122 176 205.333 349 250 519c-55.333 30.667 -101 69 -137 115s-53 95.667 -51 149
c0 42.667 12.333 76.5 37 101.5s58 37.5 100 37.5c90 0 135 -62 135 -186c0 -122.667 -39.667 -269 -119 -439s-174 -321.333 -284 -454c-69.333 -83.333 -145.833 -157 -229.5 -221s-170.167 -111 -259.5 -141c-54 -20.667 -102.667 -31 -146 -31
c-44 0 -78.5 10.167 -103.5 30.5s-37.5 48.5 -37.5 84.5z" />
    <glyph glyph-name="afii10086" unicode="&#x444;" horiz-adv-x="1683" 
d="M14 266c0 51.333 6.49609 106.67 19.4961 166.003s31.5 119.833 55.5 181.5s55.167 120.667 93.5 177s80.833 106.666 127.5 150.999s101.167 79.666 163.5 105.999s127.833 39.5 196.5 39.5c69.333 0 115 -22.667 137 -68l6 21c57.333 226 138 381.667 242 467
c74 63.333 169.333 95 286 95c85.333 0 152.166 -17.833 200.499 -53.5s72.5 -83.5 72.5 -143.5c0 -44.667 -18.167 -85.5 -54.5 -122.5s-81.166 -55.5 -134.499 -55.5c-40 0 -71.833 9.66699 -95.5 29s-35.5 46.333 -35.5 81c0 44.667 14 85 42 121s66 62.667 114 80
c-12.667 18 -36 27 -70 27c-37.333 0 -72.666 -13.667 -105.999 -41c-24 -21.333 -45.5 -56.5 -64.5 -105.5s-39.833 -116.167 -62.5 -201.5l-117 -435c49.333 106.667 101.333 184.167 156 232.5s115.334 72.5 182.001 72.5c82.667 0 145.667 -26.833 189 -80.5
s65 -131.834 65 -234.501c0 -64 -8.5 -132 -25.5 -204s-43.167 -143.333 -78.5 -214s-76.666 -134.5 -123.999 -191.5s-104.5 -103.167 -171.5 -138.5s-137.833 -53 -212.5 -53c-77.333 0 -137.333 21.333 -180 64l-105 -391c-109.333 -2 -207.666 -11.667 -294.999 -29
l176 654c-48.667 -103.333 -100 -178.833 -154 -226.5s-118.667 -71.5 -194 -71.5c-72.667 0 -131.5 24.667 -176.5 74s-67.5 123 -67.5 221zM300.996 215.004c0 -94 26.668 -140.997 80.001 -140.997c37.333 0 82.166 35.833 134.499 107.5s101.166 171.167 146.499 298.5
l132 488c-10 25.333 -22.167 43.666 -36.5 54.999s-34.166 17 -59.499 17c-41.333 0 -85.833 -25.333 -133.5 -76s-90.667 -114.834 -129 -192.501s-70.333 -166.834 -96 -267.501s-38.5 -197 -38.5 -289zM839.997 72.0068c22.667 -27.333 51.998 -41 87.998 -41
c50.667 0 101.334 25.333 152.001 76s94.334 114.167 131.001 190.5s66.5 160.5 89.5 252.5s34.5 178.333 34.5 259c0 63.333 -6.83301 107.5 -20.5 132.5s-33.5 37.5 -59.5 37.5c-40.667 0 -86.5 -35.5 -137.5 -106.5s-95.833 -160.167 -134.5 -267.5z" />
    <glyph glyph-name="afii10087" unicode="&#x445;" horiz-adv-x="1157" 
d="M-84 100c0 45.333 14.999 82.334 44.999 111.001s67 43 111 43c80 0 139.333 -45.667 178 -137c68 78 127.667 178.333 179 301l-54 469c-4.66699 32 -13 54.333 -25 67s-27.667 19 -47 19c-20.667 0 -40.5 -11.333 -59.5 -34s-40.167 -67.334 -63.5 -134.001l-26 -76
h-39l51 150c14 41.333 31.667 76.333 53 105s45.166 50.167 71.499 64.5s52 24.333 77 30s52.167 8.5 81.5 8.5c67.333 0 119 -15.833 155 -47.5s58.667 -88.167 68 -169.5l13 -120c37.333 82.667 79.333 153.667 126 213c65.333 82.667 140.333 124 225 124
c44 0 80 -12 108 -36s42 -57 42 -99s-14.5 -77 -43.5 -105s-65.833 -42 -110.5 -42c-40.667 0 -77.167 11.333 -109.5 34s-56.5 57 -72.5 103c-59.333 -68 -111.333 -159 -156 -273l56 -497c6 -34.667 14.5 -59 25.5 -73s25.5 -21 43.5 -21c21.333 0 41.833 12.333 61.5 37
s40.834 71 63.501 139l27 76h39l-52 -150c-45.333 -139.333 -136.666 -209 -273.999 -209s-213 67 -227 201l-19 164c-42 -95.333 -90.333 -175.333 -145 -240c-72.667 -83.333 -148.334 -125 -227.001 -125c-47.333 0 -84.166 11.5 -110.499 34.5s-39.5 54.5 -39.5 94.5z
" />
    <glyph glyph-name="afii10088" unicode="&#x446;" horiz-adv-x="1227" 
d="M49 727l50.999 149.998c48.667 140 140.334 210 275.001 210c124.667 0 187 -56.333 187 -169c0 -42 -10 -94 -30 -156l-184 -553c-12 -36.667 -18 -65.667 -18 -87c0 -32 13 -48 39 -48c40 0 88 40 144 120s112.167 185.667 168.5 317s106.5 272.333 150.5 423l32 125
c120.667 2 219.667 11.333 297 28l-256 -913c-8.66699 -31.333 -13 -54 -13 -68c0 -22.667 12 -34 36 -34c25.333 0 48.333 12.167 69 36.5s41.334 65.833 62.001 124.5l39 105h39l-55 -153l-55.5 -163.5c-15 -42.333 -31.5 -86.166 -49.5 -131.499
s-34.5 -81.166 -49.5 -107.499s-31.5 -50.833 -49.5 -73.5s-36.667 -38.834 -56 -48.501s-40 -14.5 -62 -14.5c-27.333 0 -51.333 8.16699 -72 24.5s-38 36.333 -52 60l-41.5 72c-13.667 24.333 -30.667 45.666 -51 63.999s-43.833 28.833 -70.5 31.5
c20.667 -37.333 31 -72.333 31 -105c0 -44.667 -17 -82.5 -51 -113.5s-76.333 -46.5 -127 -46.5c-38 0 -68 9.33301 -90 28s-33 45.667 -33 81c0 50 24.667 92.833 74 128.5s112.666 53.5 189.999 53.5c45.333 0 89.5 -6.66699 132.5 -20s83 -26.666 120 -39.999
s70.833 -20 101.5 -20c40 0 72.5 14.833 97.5 44.5s51.5 81.5 79.5 155.5c-49.333 -48.667 -113 -73 -191 -73c-74 0 -124.667 23.333 -152 70c-12.667 23.333 -19 51.333 -19 84c0 34 7 78.333 21 133l54 209c-40 -97.333 -78.667 -178.333 -116 -243
s-75.166 -115.5 -113.499 -152.5s-76.5 -63 -114.5 -78s-80.333 -22.5 -127 -22.5c-61.333 0 -107.5 14.5 -138.5 43.5s-46.5 70.5 -46.5 124.5c0 40.667 9 88 27 142l199 604c8 24.667 12 44.334 12 59.001c0 28.667 -13 43 -39 43c-22 0 -43.333 -11.5 -64 -34.5
s-42.334 -65.5 -65.001 -127.5l-37 -98h-39z" />
    <glyph glyph-name="afii10089" unicode="&#x447;" horiz-adv-x="1221" 
d="M49 727l51 149.999c48.667 140 139.667 210 273 210c62.667 0 109.667 -14.833 141 -44.5s47 -71.5 47 -125.5c0 -43.333 -10.333 -95 -31 -155l-43 -127c-10 -30 -15 -54 -15 -72c0 -23.333 7.16699 -39.666 21.5 -48.999s36.166 -14 65.499 -14
c62.667 0 121 24.667 175 74l130 485c121.333 2 220.333 11.333 297 28l-256 -913c-9.33301 -32.667 -14 -55 -14 -67c0 -23.333 12.333 -35 37 -35s47.5 12.333 68.5 37s41.833 66 62.5 124l39 105h39l-56 -156c-26 -74 -63.167 -127.667 -111.5 -161
s-102.5 -50 -162.5 -50c-77.333 0 -130.666 23.333 -159.999 70c-13.333 22 -20 50.333 -20 85c0 35.333 7.33301 79.333 22 132l72 266c-42 -38.667 -91.833 -69.5 -149.5 -92.5s-117.834 -34.5 -180.501 -34.5c-132 0 -198 55.333 -198 166
c0 38.667 9.33301 86.667 28 144l60 178c7.33301 22.667 11 42 11 58c0 29.333 -13.333 44 -40 44c-47.333 0 -89.666 -54 -126.999 -162l-37 -98h-39z" />
    <glyph glyph-name="afii10090" unicode="&#x448;" horiz-adv-x="1774" 
d="M49 727l50.9971 149.999c48.667 140 140.334 210 275.001 210c124 0 186 -56 186 -168c0 -42.667 -10.333 -95 -31 -157l-182 -553c-12.667 -38 -19 -68.667 -19 -92c0 -28.667 10.333 -43 31 -43c42.667 0 94 46.167 154 138.5s119.5 211.333 178.5 357
s112.167 301.834 159.5 468.501l-1 -5l7 26c119.333 2 218.333 11.333 297 28l-246 -878c-12 -39.333 -18 -69.666 -18 -90.999c0 -29.333 11.667 -44 35 -44c40 0 88.333 41.833 145 125.5s113.334 192.667 170.001 327s106.334 276.833 149.001 427.5l27 105
c121.333 2 220.333 11.333 297 28l-256 -913c-8.66699 -28.667 -13 -50 -13 -64c0 -25.333 12 -38 36 -38c24.667 0 47.5 12.333 68.5 37s41.833 66 62.5 124l39 105h39l-56 -156c-26.667 -75.333 -64.167 -129.333 -112.5 -162s-102.166 -49 -161.499 -49
c-112 0 -168 54.667 -168 164c0 35.333 6 76.333 18 123l55 214c-53.333 -130.667 -105.333 -233 -156 -307s-100.334 -124.833 -149.001 -152.5s-104.334 -41.5 -167.001 -41.5c-111.333 0 -167 55.667 -167 167c0 41.333 8.33301 89 25 143l54 203
c-54 -132.667 -106.333 -236.834 -157 -312.501s-100.667 -128 -150 -157s-106.333 -43.5 -171 -43.5c-58 0 -101 14.667 -129 44s-42 70.333 -42 123c0 41.333 8.66699 89 26 143l199 604c7.33301 22.667 11 42 11 58c0 29.333 -13.333 44 -40 44
c-47.333 0 -89.666 -54 -126.999 -162l-37 -98h-39z" />
    <glyph glyph-name="afii10091" unicode="&#x449;" horiz-adv-x="1780" 
d="M49 727l51.001 149.996c48.667 140 140.334 210 275.001 210c124 0 186 -56 186 -168c0 -42.667 -10.333 -95 -31 -157l-182 -553c-12.667 -38 -19 -68.667 -19 -92c0 -28.667 10.333 -43 31 -43c42.667 0 94 46.167 154 138.5s119.5 211.333 178.5 357
s112.167 301.834 159.5 468.501l-1 -5l7 26c119.333 2 218.333 11.333 297 28l-246 -878c-12 -39.333 -18 -69.666 -18 -90.999c0 -29.333 11.667 -44 35 -44c40 0 88.333 41.833 145 125.5s113.334 192.667 170.001 327s106.334 276.833 149.001 427.5l27 105
c121.333 2 220.333 11.333 297 28l-256 -913c-8.66699 -28.667 -13 -50 -13 -64c0 -25.333 12 -38 36 -38c24.667 0 47.5 12.333 68.5 37s41.833 66 62.5 124l39 105h39l-56 -156l-8 -22l-54 -155.5c-14.667 -40.333 -30.834 -82.166 -48.501 -125.499
s-33.834 -77.666 -48.501 -102.999s-30.834 -48.833 -48.501 -70.5s-36 -37 -55 -46s-39.167 -13.5 -60.5 -13.5c-27.333 0 -51.333 8.16699 -72 24.5s-38 36.333 -52 60l-41.5 72c-13.667 24.333 -30.667 45.666 -51 63.999s-43.833 28.833 -70.5 31.5
c22 -35.333 33 -70.333 33 -105c0 -44.667 -17 -82.5 -51 -113.5s-76.333 -46.5 -127 -46.5c-38 0 -68.333 9.33301 -91 28s-34 45.667 -34 81c0 49.333 24.833 92 74.5 128s113.5 54 191.5 54c45.333 0 89.5 -6.66699 132.5 -20s83 -26.666 120 -39.999
s70.833 -20 101.5 -20c39.333 0 71.5 14.833 96.5 44.5s52.167 81.834 81.5 156.501c-50 -49.333 -114 -74 -192 -74c-112 0 -168 54.667 -168 164c0 35.333 6 76.333 18 123l55 214c-53.333 -130.667 -105.333 -233 -156 -307s-100.334 -124.833 -149.001 -152.5
s-104.334 -41.5 -167.001 -41.5c-111.333 0 -167 55.667 -167 167c0 41.333 8.33301 89 25 143l54 203c-54 -132.667 -106.333 -236.834 -157 -312.501s-100.667 -128 -150 -157s-106.333 -43.5 -171 -43.5c-58 0 -101 14.667 -129 44s-42 70.333 -42 123
c0 41.333 8.66699 89 26 143l199 604c7.33301 22.667 11 42 11 58c0 29.333 -13.333 44 -40 44c-47.333 0 -89.666 -54 -126.999 -162l-37 -98h-39z" />
    <glyph glyph-name="afii10092" unicode="&#x44a;" horiz-adv-x="1104" 
d="M59 723l45.001 149.001c39.333 139.333 104.333 209 195 209c23.333 0 46.333 -4.83301 69 -14.5s48.834 -19.5 78.501 -29.5s64.5 -15 104.5 -15c74 0 155.333 14.333 244 43l20 39l43 -21c-102.667 -116 -185.667 -219 -249 -309s-112 -183.333 -146 -280
c66.667 64 155.334 96 266.001 96c81.333 0 145.333 -19.833 192 -59.5s70 -92.834 70 -159.501c0 -34.667 -6.16699 -70 -18.5 -106s-32.5 -71.667 -60.5 -107s-62.167 -66.833 -102.5 -94.5s-91 -50 -152 -67s-127.833 -25.5 -200.5 -25.5
c-118.667 0 -208.5 22.833 -269.5 68.5s-91.5 108.167 -91.5 187.5c0 115.333 58.833 242 176.5 380s276.167 270.333 475.5 397c-34.667 -3.33301 -68.334 -11.333 -101.001 -24s-61.334 -26.834 -86.001 -42.501l-71.5 -46.5c-23 -15.333 -46.833 -28 -71.5 -38
s-48.667 -15 -72 -15c-21.333 0 -47.333 6.5 -78 19.5s-53.667 19.5 -69 19.5c-20 0 -35.833 -7.16699 -47.5 -21.5s-23.834 -40.166 -36.501 -77.499l-17 -55h-39zM406.001 155.001c0 -98 28.6689 -147 86.002 -147c49.333 0 97.166 32.833 143.499 98.5
s69.5 148.167 69.5 247.5c0 109.333 -37 164 -111 164c-23.333 0 -48.333 -5 -75 -15s-49 -24 -67 -42c-26.667 -81.333 -41.334 -167.333 -44.001 -258c-1.33301 -18.667 -2 -34.667 -2 -48z" />
    <glyph glyph-name="afii10093" unicode="&#x44b;" horiz-adv-x="1597" 
d="M45 727l50.9971 150c18 52.667 43.167 95.334 75.5 128.001s64.5 54.5 96.5 65.5s66.333 16.5 103 16.5c121.333 0 182 -53 182 -159c0 -44.667 -11.667 -100 -35 -166l-103 -288c34 38.667 75 67.667 123 87s97.333 29 148 29c74 0 132.833 -19.667 176.5 -59
s65.5 -92.666 65.5 -159.999c0 -52 -11.667 -101.667 -35 -149s-56.666 -89.833 -99.999 -127.5s-99 -67.667 -167 -90s-143 -33.5 -225 -33.5c-46.667 0 -88.667 4.5 -126 13.5s-71.166 23.167 -101.499 42.5s-53.666 46.166 -69.999 80.499s-24.5 75.166 -24.5 122.499
c0 61.333 14.667 135 44 221l153 434c8 23.333 12 43 12 59c0 28.667 -12.667 43 -38 43c-46 0 -89 -54 -129 -162l-37 -98h-39zM327.997 134c0 -84 32 -126 96 -126c58 0 110.667 35.167 158 105.5s71 152.5 71 246.5c0 96 -36 144 -108 144c-28 0 -55.5 -7.5 -82.5 -22.5
s-49.5 -36.167 -67.5 -63.5l-10 -27c-38 -109.333 -57 -195 -57 -257zM999.997 125c0 35.333 7.33301 79.667 22 133l219 801c121.333 2 220.333 11.333 297 28l-256 -913c-9.33301 -32.667 -14 -55 -14 -67c0 -23.333 12.333 -35 37 -35s47.5 12.333 68.5 37
s41.833 66 62.5 124l39 105h38l-55 -156c-49.333 -140.667 -141.333 -211 -276 -211c-80 0 -134 23.333 -162 70c-13.333 20.667 -20 48.667 -20 84z" />
    <glyph glyph-name="afii10094" unicode="&#x44c;" horiz-adv-x="1042" 
d="M45 727l50.9971 150c18 52.667 43.167 95.334 75.5 128.001s64.5 54.5 96.5 65.5s66.333 16.5 103 16.5c121.333 0 182 -53 182 -159c0 -44.667 -11.667 -100 -35 -166l-103 -288c34 38.667 75 67.667 123 87s97.333 29 148 29c74 0 132.833 -19.667 176.5 -59
s65.5 -92.666 65.5 -159.999c0 -52 -11.667 -101.667 -35 -149s-56.666 -89.833 -99.999 -127.5s-99 -67.667 -167 -90s-143 -33.5 -225 -33.5c-46.667 0 -88.667 4.5 -126 13.5s-71.166 23.167 -101.499 42.5s-53.666 46.166 -69.999 80.499s-24.5 75.166 -24.5 122.499
c0 61.333 14.667 135 44 221l153 434c8 23.333 12 43 12 59c0 28.667 -12.667 43 -38 43c-46 0 -89 -54 -129 -162l-37 -98h-39zM327.997 134c0 -84 32 -126 96 -126c58 0 110.667 35.167 158 105.5s71 152.5 71 246.5c0 96 -36 144 -108 144c-28 0 -55.5 -7.5 -82.5 -22.5
s-49.5 -36.167 -67.5 -63.5l-10 -27c-38 -109.333 -57 -195 -57 -257z" />
    <glyph glyph-name="afii10095" unicode="&#x44d;" horiz-adv-x="969" 
d="M-45 156c0 52 20.3311 96.665 60.998 133.998s90.667 56 150 56c37.333 0 68.833 -9.83301 94.5 -29.5s38.5 -45.167 38.5 -76.5c0 -45.333 -19.667 -86.166 -59 -122.499s-88 -59.833 -146 -70.5c24.667 -23.333 59 -35 103 -35c59.333 0 117.833 29 175.5 87
s106.667 135 147 231s67.166 199 80.499 309c-61.333 -114.667 -131 -172 -209 -172c-27.333 0 -58.833 12 -94.5 36s-64.834 36 -87.501 36c-44 0 -81.667 -30 -113 -90l-28 10c26 71.333 58.667 127.666 98 168.999s78.333 62 117 62c24.667 0 47.167 -6.83301 67.5 -20.5
l60 -41c19.667 -13.667 41.167 -20.5 64.5 -20.5c53.333 0 96.333 25.333 129 76c2.66699 26 4 55.333 4 88c0 70 -13.667 121.667 -41 155s-65.333 50 -114 50c-100 0 -190.333 -60 -271 -180l-41 16c48 78 109.833 143.167 185.5 195.5s162.167 78.5 259.5 78.5
c100 0 179.5 -26.5 238.5 -79.5s88.5 -131.5 88.5 -235.5c0 -56.667 -7.33301 -115.667 -22 -177s-35.667 -121.666 -63 -180.999s-61.666 -115.666 -102.999 -168.999s-87.166 -100.333 -137.499 -141s-107.666 -73 -171.999 -97s-131.166 -36 -200.499 -36
c-78 0 -140.833 17.5 -188.5 52.5s-71.5 79.167 -71.5 132.5z" />
    <glyph glyph-name="afii10096" unicode="&#x44e;" horiz-adv-x="1651" 
d="M23 0l259.999 885.002c8.66699 30.667 13 52.667 13 66c0 24 -11.333 36 -34 36c-25.333 0 -48.666 -12.333 -69.999 -37s-43 -66.334 -65 -125.001l-39 -104h-39l55 156c52.667 140 143.667 210 273 210c113.333 0 170 -54.333 170 -163c0 -36 -6.33301 -77 -19 -123
l-62 -230h168c22 68 51 131.667 87 191s79.167 113.833 129.5 163.5s110.333 89 180 118s144.167 43.5 223.5 43.5c106.667 0 188.667 -28.833 246 -86.5s86 -141.167 86 -250.5c0 -64.667 -8.5 -131.834 -25.5 -201.501s-43.667 -139 -80 -208s-80 -130.833 -131 -185.5
s-113.5 -99 -187.5 -133s-154 -51 -240 -51c-106 0 -187.667 28.833 -245 86.5s-86 141.5 -86 251.5c0 71.333 10.333 145 31 221h-167l-144 -530h-288zM864.999 152.002c0 -49.333 5.66797 -85 17.001 -107s29 -33 53 -33c37.333 0 78.333 28.333 123 85
s85.5 127.5 122.5 212.5s68 181.5 93 289.5s37.5 209.333 37.5 304c0 54 -5.5 91.5 -16.5 112.5s-27.833 31.5 -50.5 31.5c-38 0 -79.833 -29.333 -125.5 -88s-86.834 -131.5 -123.501 -218.5s-67.5 -184.167 -92.5 -291.5s-37.5 -206.333 -37.5 -297z" />
    <glyph glyph-name="afii10097" unicode="&#x44f;" horiz-adv-x="1151" 
d="M-160 102l27.001 19.001c22 -24.667 48.667 -37 80 -37c15.333 0 28.666 4 39.999 12s19.5 16.5 24.5 25.5s11.5 22.5 19.5 40.5l69 155c31.333 66.667 73 113.834 125 141.501s116 45.5 192 53.5c-78.667 1.33301 -140.5 19.166 -185.5 53.499s-67.5 81.5 -67.5 141.5
c0 45.333 11.5 90 34.5 134s56.5 84.5 100.5 121.5s102.667 67 176 90s155.333 34.5 246 34.5c110.667 0 192.834 -16.333 246.501 -49s80.5 -84.334 80.5 -155.001c0 -43.333 -10 -94.666 -30 -153.999l-189 -555c-6.66699 -20 -10 -38.333 -10 -55
c0 -31.333 13.667 -47 41 -47c47.333 0 90.333 53.667 129 161l35 99h39l-51 -150c-48.667 -140.667 -141 -211 -277 -211c-60.667 0 -107 14.333 -139 43s-48 70.667 -48 126c0 41.333 9 89 27 143l79 231c-3.33301 -0.666992 -8 -1.33398 -14 -2.00098
c-66.667 -11.333 -113.334 -24 -140.001 -38c-44.667 -24 -81.667 -69.333 -111 -136l-49 -129c-34 -89.333 -73.5 -151.333 -118.5 -186s-97.833 -52 -158.5 -52c-110.667 0 -185 43.667 -223 131zM438.001 700.001c0 -50.667 11.5 -89.168 34.5 -115.501
s61.5 -39.5 115.5 -39.5c26.667 0 53 2 79 6l91 266c21.333 61.333 32 110.333 32 147c0 58 -30 87 -90 87c-68.667 0 -129.5 -34.667 -182.5 -104s-79.5 -151.666 -79.5 -246.999z" />
    <glyph glyph-name="afii10071" unicode="&#x451;" horiz-adv-x="961" 
d="M6 260c0 59.333 8.50293 121.171 25.5029 185.504s40.667 127 71 188s68.166 119 113.499 174s94.666 103.167 147.999 144.5s113 74.166 179 98.499s133.333 36.5 202 36.5c63.333 0 114.666 -13.833 153.999 -41.5s59 -67.5 59 -119.5
c0 -60 -19.5 -117.167 -58.5 -171.5s-90.833 -101.833 -155.5 -142.5s-131.834 -75.667 -201.501 -105s-142.167 -54 -217.5 -74c-8 -46.667 -12 -93.334 -12 -140.001c0 -72 13.5 -123.167 40.5 -153.5s66.167 -45.5 117.5 -45.5c42.667 0 90.834 13.5 144.501 40.5
s105.167 69.5 154.5 127.5l33 -16c-31.333 -48.667 -69 -92.834 -113 -132.501s-98 -73.334 -162 -101.001s-130.667 -41.5 -200 -41.5c-95.333 0 -172.833 25.167 -232.5 75.5s-89.5 121.5 -89.5 213.5zM332.003 471.005c96 42 171 87.668 225 137.001
c117.333 105.333 176 229.666 176 372.999c0 45.333 -11 68 -33 68c-40.667 0 -86 -27.667 -136 -83s-96.333 -128 -139 -218s-73.667 -182.333 -93 -277zM373.003 1384.01c0 52 17.5 93.668 52.5 125.001s76.833 47 125.5 47c42.667 0 75.667 -12.5 99 -37.5
s35 -57.5 35 -97.5c0 -53.333 -17.833 -95.333 -53.5 -126s-77.5 -46 -125.5 -46c-43.333 0 -76.333 12.167 -99 36.5s-34 57.166 -34 98.499zM840.003 1384.01c0 52.667 17.167 94.5 51.5 125.5s75.833 46.5 124.5 46.5c42.667 0 75.5 -12.333 98.5 -37
s34.5 -57.334 34.5 -98.001c0 -53.333 -17.667 -95.333 -53 -126s-77 -46 -125 -46c-42.667 0 -75.167 12.333 -97.5 37s-33.5 57.334 -33.5 98.001z" />
    <glyph glyph-name="afii10099" unicode="&#x452;" horiz-adv-x="1122" 
d="M-37 0l370.002 1245h-173l12 41h173l24 80c6.66699 24.667 10 43.667 10 57c0 27.333 -10.667 47.166 -32 59.499s-57 18.5 -107 18.5l12 43c178 2 337 30 477 84l-100 -342h321l-12 -41h-321l-171 -582c71.333 160 140.666 270.667 207.999 332s145 92 233 92
c123.333 0 185 -54.333 185 -163c0 -41.333 -8.33301 -90 -25 -146l-156 -542c-42 -146.667 -88.833 -264 -140.5 -352s-112.834 -151.667 -183.501 -191c-74 -52 -166 -78 -276 -78c-129.333 0 -194 39.667 -194 119c0 1.33301 0.166992 3.66602 0.5 6.99902
s0.5 5.66602 0.5 6.99902c2 37.333 18 69.5 48 96.5s65.333 40.5 106 40.5c38.667 0 69 -11.667 91 -35s31.333 -51 28 -83c-1.33301 -20.667 -8.5 -42.167 -21.5 -64.5s-31.167 -41.166 -54.5 -56.499c52 6 93.5 25.667 124.5 59s57.167 87.333 78.5 162l280 983
c11.333 39.333 17 69.666 17 90.999c0 29.333 -12.333 44 -37 44c-37.333 0 -82.333 -35.333 -135 -106s-105.667 -163.5 -159 -278.5s-102 -240.5 -146 -376.5l-66 -224h-289z" />
    <glyph glyph-name="afii10100" unicode="&#x453;" horiz-adv-x="834" 
d="M-33 150c0 39.333 10.001 76.9971 30.001 112.997s45.833 68 77.5 96s66.834 55.333 105.501 82l115.5 81c38.333 27.333 73.333 55.333 105 84s57.5 61.667 77.5 99s30 76.666 30 117.999c0 34 -8.5 60.333 -25.5 79s-41.833 28 -74.5 28
c-49.333 0 -98.333 -19 -147 -57s-93.334 -99 -134.001 -183l-31 10c50 126.667 117.167 221.834 201.5 285.501s181.833 95.5 292.5 95.5c70 0 127 -12.667 171 -38s66 -63.666 66 -114.999c0 -37.333 -10 -74 -30 -110s-45.833 -69.333 -77.5 -100s-66.667 -61 -105 -91
l-115 -90.5c-38.333 -30.333 -73.333 -60.666 -105 -90.999s-57.5 -63.666 -77.5 -99.999s-30 -72.833 -30 -109.5c0 -72.667 36.667 -109 110 -109c110 0 200.333 70.333 271 211l32 -10c-104.667 -238 -262.334 -357 -473.001 -357c-77.333 0 -140 15.333 -188 46
s-72 75 -72 133zM482.001 1247c40 56.667 78.5 115.834 115.5 177.501l91.5 150.5c24 38.667 48.667 70.667 74 96c34 36 71 54 111 54c28.667 0 53.667 -10.333 75 -31c18 -18 27 -38.667 27 -62c0 -36.667 -20 -74 -60 -112c-28 -28.667 -87.833 -72.334 -179.5 -131.001
s-169.5 -112.667 -233.5 -162z" />
    <glyph glyph-name="afii10101" unicode="&#x454;" horiz-adv-x="963" 
d="M16 287c0 68 10.333 138.83 31 212.497s51.5 145.334 92.5 215.001s89 132.334 144 188.001s120 100.334 195 134.001s153.833 50.5 236.5 50.5c78 0 141.167 -16.167 189.5 -48.5s72.5 -73.5 72.5 -123.5c0 -45.333 -19.5 -86.333 -58.5 -123s-87.167 -55 -144.5 -55
c-37.333 0 -68.166 8.5 -92.499 25.5s-36.5 39.833 -36.5 68.5c0 41.333 20.833 78 62.5 110s91.167 53.667 148.5 65c-30.667 27.333 -71.667 41 -123 41c-56 0 -111.667 -26.5 -167 -79.5s-103 -124 -143 -213s-68.333 -185.167 -85 -288.5
c59.333 115.333 125.666 173 198.999 173c28 0 60 -12 96 -36s65.333 -36 88 -36c40.667 0 80.334 30 119.001 90l26 -12c-72.667 -152.667 -146.334 -229 -221.001 -229c-21.333 0 -41.666 6.83301 -60.999 20.5l-59 41c-20 13.667 -42 20.5 -66 20.5
c-52 0 -94.667 -27.667 -128 -83c-4.66699 -49.333 -7 -92 -7 -128c0 -136.667 51.667 -205 155 -205c97.333 0 187.666 60 270.999 180l41 -16c-49.333 -78.667 -111.833 -144.167 -187.5 -196.5s-162.167 -78.5 -259.5 -78.5c-99.333 0 -178.833 26.667 -238.5 80
s-89.5 132 -89.5 236z" />
    </font>
</defs>
</svg>
