<?xml version="1.0" standalone="no"?>
<!DOCTYPE svg PUBLIC "-//W3C//DTD SVG 1.1//EN" "http://www.w3.org/Graphics/SVG/1.1/DTD/svg11.dtd" >
<svg>
<metadata>
Created by FontForge 20090914 at Sun May 24 19:03:02 2020
 By www-data
Copyright (c) 2010-2012 by Claus Eggers S&#195;&#184;rensen (es@forthehearts.net), with Reserved Font Name 'Playfair'.
</metadata>
<defs>
<font id="PlayfairDisplay-Bold" horiz-adv-x="985" >
  <font-face 
    font-family="Playfair Display"
    font-weight="700"
    font-stretch="normal"
    units-per-em="2048"
    panose-1="0 0 8 0 0 0 0 0 0 0"
    ascent="1638"
    descent="-410"
    x-height="1060"
    cap-height="1450"
    bbox="-323 -399 2273 1936"
    underline-thickness="41"
    underline-position="-165"
    unicode-range="U+000D-U+E000"
  />
<missing-glyph horiz-adv-x="748" 
d="M68 0v1365h544v-1365h-544zM136 68h408v1229h-408v-1229z" />
    <glyph glyph-name=".notdef" horiz-adv-x="748" 
d="M68 0v1365h544v-1365h-544zM136 68h408v1229h-408v-1229z" />
    <glyph glyph-name="glyph1" horiz-adv-x="2048" 
 />
    <glyph glyph-name="glyph1" horiz-adv-x="2048" 
 />
    <glyph glyph-name="uni000D" unicode="&#xd;" horiz-adv-x="0" 
 />
    <glyph glyph-name="space" unicode=" " horiz-adv-x="478" 
 />
    <glyph glyph-name="exclam" unicode="!" horiz-adv-x="591" 
d="M121 129c0 49.333 15.667 88.166 47 116.499s73.666 42.5 126.999 42.5c54 0 96.667 -14.167 128 -42.5s47 -67.166 47 -116.499c0 -48.667 -15.667 -87.167 -47 -115.5s-74 -42.5 -128 -42.5c-53.333 0 -95.666 14.167 -126.999 42.5s-47 66.833 -47 115.5zM127 1401
c0 62 15.6689 111 47.002 147s71.666 54 120.999 54c46 0 85.5 -18.167 118.5 -54.5s49.5 -85.166 49.5 -146.499c0 -63.333 -11.5 -150.333 -34.5 -261s-47 -233 -72 -367s-39.167 -258 -42.5 -372h-37c-2.66699 90 -12.167 187.333 -28.5 292s-33.333 195.167 -51 271.5
s-33.834 155.166 -48.501 236.499s-22 148 -22 200z" />
    <glyph glyph-name="quotedbl" unicode="&#x22;" horiz-adv-x="757" 
d="M85 1357c0 41.333 12.1689 74.501 36.502 99.501s55.166 37.833 92.499 38.5c37.333 0 68.166 -12.333 92.499 -37s36.5 -57.667 36.5 -99c0 -36.667 -5.16699 -72.167 -15.5 -106.5s-25.833 -78.833 -46.5 -133.5s-38 -108.334 -52 -161.001h-29
c-14 48.667 -31.5 100.5 -52.5 155.5s-36.667 100.167 -47 135.5s-15.5 71.333 -15.5 108zM414.002 1357c0 41.333 12.1689 74.501 36.502 99.501s55.166 37.833 92.499 38.5c37.333 0 68.166 -12.333 92.499 -37s36.5 -57.667 36.5 -99
c0 -36.667 -5.16699 -72.167 -15.5 -106.5s-25.833 -78.833 -46.5 -133.5s-38 -108.334 -52 -161.001h-29c-14 48.667 -31.5 100.5 -52.5 155.5s-36.667 100.167 -47 135.5s-15.5 71.333 -15.5 108z" />
    <glyph glyph-name="numbersign" unicode="#" horiz-adv-x="1270" 
d="M81 506l8 41h302l66 342h-300l6 41h302l58 303h41l-58 -303h342l58 303h41l-58 -303h300l-6 -41h-302l-66 -342h300l-8 -41h-300l-58 -299h-41l58 299h-342l-58 -299h-41l58 299h-302zM432 547h342l66 342h-342z" />
    <glyph glyph-name="dollar" unicode="$" horiz-adv-x="1176" 
d="M102 -14c5.33301 85.333 7.99805 269.67 7.99805 553.003h47c13.333 -164 45 -286.333 95 -367s127 -129.667 231 -147v601l-6 4c-38.667 24.667 -70.5 45.667 -95.5 63s-53.167 38.333 -84.5 63s-56.833 48.5 -76.5 71.5s-38.5 48.833 -56.5 77.5
s-31.167 59.5 -39.5 92.5s-12.5 67.833 -12.5 104.5c0 107.333 34.667 192.166 104 254.499s158.333 100.5 267 114.5v249h41v-246c21.333 1.33301 37 2 47 2c40 0 77 -2.66699 111 -8v252h41v-260c44.667 -10.667 93.667 -31.667 147 -63c32 -19.333 55.333 -29 70 -29
c12 0 21.333 7 28 21s12.334 37 17.001 69h47c-6.66699 -90 -10 -245.667 -10 -467h-48c-8.66699 74.667 -22 139 -40 193s-44.667 101.667 -80 143s-79 70.333 -131 87v-561l32 -21c45.333 -28.667 83 -53.834 113 -75.501s61 -47.334 93 -77.001
s57.333 -58.834 76 -87.501s34 -62 46 -100s18 -78.667 18 -122c0 -108 -34.833 -195.167 -104.5 -261.5s-160.834 -108.833 -273.501 -127.5v-251h-41v246c-32 -3.33301 -61.333 -5 -88 -5c-24.667 0 -48 1 -70 3v-244h-41v249c-10.667 1.33301 -21.167 3 -31.5 5
s-20.333 4.33301 -30 7l-25.5 7c-7.33301 2 -15.666 4.66699 -24.999 8s-16.166 5.83301 -20.499 7.5s-11.166 4.66699 -20.499 9s-15 7 -17 8l-17 8.5c-9.33301 4.66699 -14.333 7 -15 7c-40 20 -69 30 -87 30c-12.667 0 -22.334 -7.16699 -29.001 -21.5
s-12 -37.166 -16 -68.499h-47zM358.998 1239c0 -40.667 8.66699 -76.833 26 -108.5s50 -67.5 98 -107.5v389c-40.667 -14.667 -71.5 -37 -92.5 -67s-31.5 -65.333 -31.5 -106zM523.998 20.0049c20 -2 41 -3 63 -3c33.333 0 65 2.66699 95 8v460
c-39.333 30 -92 67.667 -158 113v-578zM523.998 990.005c40 -30.667 92.667 -67.333 158 -110v544c-22.667 4.66699 -48.667 7 -78 7c-25.333 0 -52 -2.33301 -80 -7v-434zM722.998 36.0059c93.333 29.333 140 93.333 140 192c0 40.667 -9.5 77.167 -28.5 109.5
s-56.167 70.833 -111.5 115.5v-417z" />
    <glyph glyph-name="percent" unicode="%" horiz-adv-x="1491" 
d="M68 1214c0 101.333 31.501 184.168 94.501 248.501s142.5 96.5 238.5 96.5c100 0 180.5 -29.667 241.5 -89s91.5 -141 91.5 -245c0 -102.667 -31.333 -185.667 -94 -249s-142.334 -95 -239.001 -95c-100 0 -180.5 29.667 -241.5 89s-91.5 140.666 -91.5 243.999z
M136.001 -85.998l1198 1774l39 -27l-1198 -1774zM264.001 1217c0 -98 12.5 -172.333 37.5 -223s59.833 -76 104.5 -76c87.333 0 131 101 131 303c0 98.667 -12.167 173.5 -36.5 224.5s-58.833 76.5 -103.5 76.5c-88.667 0 -133 -101.667 -133 -305zM756.001 305.002
c0 101.333 31.5 184 94.5 248s142.833 96 239.5 96c100 0 180.333 -29.667 241 -89s91 -141 91 -245c0 -102 -31.333 -184.833 -94 -248.5s-142 -95.5 -238 -95.5c-100 0 -180.667 29.667 -242 89s-92 141 -92 245zM952.001 307.002c0 -97.333 12.5 -171.5 37.5 -222.5
s59.833 -76.5 104.5 -76.5c87.333 0 131 101 131 303c0 99.333 -12.167 174.333 -36.5 225s-58.833 76 -103.5 76c-88.667 0 -133 -101.667 -133 -305z" />
    <glyph glyph-name="ampersand" unicode="&#x26;" horiz-adv-x="1838" 
d="M85 481c0 58 11.001 111.662 33.001 160.995s48.5 89.833 79.5 121.5s66.833 59.834 107.5 84.501s76.334 42.834 107.001 54.501s60.334 20.834 89.001 27.501c-154.667 60.667 -232 146.667 -232 258c0 56 20 104.667 60 146s90.333 71.666 151 90.999
s126.334 29 197.001 29c86 0 157 -14 213 -42c82 -41.333 123 -96.666 123 -165.999c0 -40.667 -15.333 -73.667 -46 -99s-67.667 -38 -111 -38c-42.667 0 -78.167 11 -106.5 33s-42.5 53.333 -42.5 94c0 34.667 12.167 65.834 36.5 93.501s55.833 45.5 94.5 53.5
c-26.667 24 -71.667 36 -135 36c-75.333 0 -136.833 -23 -184.5 -69s-71.5 -112.333 -71.5 -199c0 -78.667 26.667 -148.334 80 -209.001c44.667 10.667 83 16 115 16c24 0 42.667 -4.83301 56 -14.5s20 -22.834 20 -39.501c0 -13.333 -5.5 -23.833 -16.5 -31.5
s-24.833 -11.5 -41.5 -11.5c-34.667 0 -78.334 17.333 -131.001 52c-69.333 -35.333 -122.833 -79.166 -160.5 -131.499s-56.5 -118.833 -56.5 -199.5c0 -132 52.667 -231.333 158 -298s251.666 -100 438.999 -100c70 0 138 7.83301 204 23.5s126 38 180 67
s97.5 66.667 130.5 113s49.5 97.5 49.5 153.5c0 124.667 -51.667 211.334 -155 260.001l-123 -34.5c-60.667 -17 -102.334 -29.167 -125.001 -36.5c-114 -24.667 -197.667 -51.667 -251 -81s-80 -68.333 -80 -117c0 -48 23 -87.5 69 -118.5s97 -46.5 153 -46.5
c42 0 69.333 7 82 21c-69.333 22.667 -104 67.334 -104 134.001c0 42 15.333 75 46 99s70 36 118 36c49.333 0 88 -12.5 116 -37.5s42 -58.833 42 -101.5c0 -61.333 -27 -107.666 -81 -138.999s-123.667 -47 -209 -47c-87.333 0 -160 22.5 -218 67.5s-87 110.167 -87 195.5
c0 102 39 182.833 117 242.5s191.667 104.167 341 133.5c163.333 40.667 265.333 68 306 82c106 26 183.833 54.167 233.5 84.5s74.5 69.833 74.5 118.5c0 53.333 -23.5 97.666 -70.5 132.999s-100.5 53 -160.5 53c-25.333 0 -44.666 -3.33301 -57.999 -10
c31.333 -12.667 55.666 -31 72.999 -55s26 -49 26 -75c0 -40.667 -15.333 -72.667 -46 -96s-69.667 -35 -117 -35c-48 0 -86.667 12.167 -116 36.5s-44 57.5 -44 99.5c0 54 23 96.167 69 126.5s108.333 45.5 187 45.5c97.333 0 176 -25.667 236 -77s90 -122 90 -212
c0 -100.667 -35.5 -179.667 -106.5 -237s-174.167 -100 -309.5 -128l-38 -13c61.333 -27.333 108.666 -71 141.999 -131s50 -129.333 50 -208c0 -144.667 -65.5 -264.5 -196.5 -359.5s-301.167 -142.5 -510.5 -142.5c-150 0 -281.833 20.5 -395.5 61.5
s-201.667 100 -264 177s-93.5 167.5 -93.5 271.5z" />
    <glyph glyph-name="quotesingle" unicode="'" horiz-adv-x="428" 
d="M85 1357c0 41.333 12.1689 74.501 36.502 99.501s55.166 37.833 92.499 38.5c37.333 0 68.166 -12.333 92.499 -37s36.5 -57.667 36.5 -99c0 -36.667 -5.16699 -72.167 -15.5 -106.5s-25.833 -78.833 -46.5 -133.5s-38 -108.334 -52 -161.001h-29
c-14 48.667 -31.5 100.5 -52.5 155.5s-36.667 100.167 -47 135.5s-15.5 71.333 -15.5 108z" />
    <glyph glyph-name="parenleft" unicode="(" horiz-adv-x="651" 
d="M71 639c0 422.667 170.667 759.999 512 1012l30 -26c-90 -141.333 -155.667 -291.166 -197 -449.499s-62 -337.166 -62 -536.499s20.5 -377.333 61.5 -534s106.833 -307.334 197.5 -452.001l-30 -26c-341.333 252 -512 589.333 -512 1012z" />
    <glyph glyph-name="parenright" unicode=")" horiz-adv-x="651" 
d="M38 -347c90.667 144.667 156.5 295.335 197.5 452.002s61.5 334.667 61.5 534s-20.667 378.166 -62 536.499s-107 308.166 -197 449.499l30 26c341.333 -252 512 -589.333 512 -1012s-170.667 -760 -512 -1012z" />
    <glyph glyph-name="asterisk" unicode="*" horiz-adv-x="984" 
d="M103 897c0 34.667 20.667 64.001 62 88.001c15.333 8.66699 34.5 16.5 57.5 23.5s45 12.5 66 16.5s50.833 9.33301 89.5 16s72.334 13 101.001 19c-26.667 5.33301 -59.667 11.333 -99 18s-69.5 12 -90.5 16s-43.333 9.5 -67 16.5s-43.167 14.833 -58.5 23.5
c-40.667 24 -61 53.667 -61 89c0 18.667 5.33301 36.667 16 54c19.333 33.333 45.666 50 78.999 50c20.667 0 42.334 -6.66699 65.001 -20c20 -11.333 39.5 -26.5 58.5 -45.5s46.333 -50 82 -93l82.5 -97.5c-9.33301 28.667 -23.5 68.167 -42.5 118.5
s-32.333 89.333 -40 117s-11.5 52.834 -11.5 75.501c0 38 9.83301 66 29.5 84s43.5 27 71.5 27c27.333 0 50.5 -9 69.5 -27s28.5 -46 28.5 -84c0 -22.667 -3.5 -46.834 -10.5 -72.501s-20 -64.334 -39 -116.001s-33.167 -91.5 -42.5 -119.5l80.5 94.5
c35.667 42.333 63.167 73.5 82.5 93.5s38.666 35.667 57.999 47c22 12.667 43.667 19 65 19c36.667 0 63.667 -17 81 -51c10.667 -17.333 16 -35 16 -53c0 -34.667 -20.667 -64 -62 -88c-15.333 -8.66699 -34.333 -16.5 -57 -23.5s-44.334 -12.333 -65.001 -16l-88.5 -15.5
c-38.333 -6.66699 -71.833 -13 -100.5 -19c26.667 -5.33301 59.334 -11.333 98.001 -18s68.5 -12 89.5 -16s43.167 -9.5 66.5 -16.5s42.666 -14.833 57.999 -23.5c40.667 -23.333 61 -53.333 61 -90c0 -17.333 -5 -35 -15 -53c-19.333 -33.333 -45.666 -50 -78.999 -50
c-20 0 -42 6.66699 -66 20c-15.333 8.66699 -31.833 21.334 -49.5 38.001s-33 32.667 -46 48l-59 70l-66.5 78l33 -94.5l31 -86.5c7.33301 -20.667 14 -43 20 -67s9 -44.667 9 -62c-0.666992 -38 -10.667 -65.833 -30 -83.5s-43 -26.5 -71 -26.5s-51.5 8.83301 -70.5 26.5
s-28.5 45.5 -28.5 83.5c0 18 2.83301 38.667 8.5 62s12 44.833 19 64.5l31 85.5l34.5 97l-66 -76l-59 -70c-14 -16.667 -29.833 -33.5 -47.5 -50.5s-34.167 -29.833 -49.5 -38.5c-22 -12.667 -43.333 -19 -64 -19c-36 0 -63.333 17 -82 51
c-10.667 17.333 -16 34.666 -16 51.999z" />
    <glyph glyph-name="plus" unicode="+" horiz-adv-x="1175" 
d="M75 696v62h477v483h73v-483h476v-62h-476v-481h-73v481h-477z" />
    <glyph glyph-name="comma" unicode="," horiz-adv-x="555" 
d="M101 129c0 47.333 15.832 85.6699 47.499 115.003s71.834 44 120.501 44c65.333 0 114 -24 146 -72c29.333 -44 44 -101 44 -171c0 -70.667 -18 -134.834 -54 -192.501s-89.333 -102.834 -160 -135.501l-19 37c38.667 17.333 72.5 42.833 101.5 76.5
s46.833 68.5 53.5 104.5c3.33301 13.333 5 28.666 5 45.999c0 14.667 -1.33301 27.667 -4 39c-30.667 -32.667 -70.667 -49 -120 -49c-48 0 -86.833 14 -116.5 42s-44.5 66.667 -44.5 116z" />
    <glyph glyph-name="hyphen" unicode="-" 
d="M123 469v170h739v-170h-739z" />
    <glyph glyph-name="period" unicode="." horiz-adv-x="553" 
d="M102 129c0 49.333 15.667 88.166 47 116.499s73.666 42.5 126.999 42.5c54 0 96.667 -14.167 128 -42.5s47 -67.166 47 -116.499c0 -48.667 -15.667 -87.167 -47 -115.5s-74 -42.5 -128 -42.5c-53.333 0 -95.666 14.167 -126.999 42.5s-47 66.833 -47 115.5z" />
    <glyph glyph-name="slash" unicode="/" horiz-adv-x="754" 
d="M66 -29l557 1508h68l-557 -1508h-68z" />
    <glyph glyph-name="zero" unicode="0" horiz-adv-x="1321" 
d="M92 514c0 164.667 53.501 301.498 160.501 410.498s246.5 163.5 418.5 163.5c164 0 297.833 -49.667 401.5 -149s155.5 -230 155.5 -392c0 -165.333 -53.833 -302.666 -161.5 -411.999s-246.834 -164 -417.501 -164c-162.667 0 -296.167 49.833 -400.5 149.5
s-156.5 230.834 -156.5 393.501zM401.001 520.998c0 -174 24.833 -303.001 74.5 -387.001s113.5 -126 191.5 -126c74.667 0 135.334 47.833 182.001 143.5s70 225.5 70 389.5c0 172.667 -24.833 300.834 -74.5 384.501s-113.5 125.5 -191.5 125.5
c-74.667 0 -135.334 -47.333 -182.001 -142s-70 -224 -70 -388z" />
    <glyph glyph-name="one" unicode="1" horiz-adv-x="785" 
d="M83 933l-0.000976562 44.999c119.333 2 217.166 10.833 293.499 26.5s143.5 41.5 201.5 77.5v-883c0 -60 11 -101 33 -123s60.333 -33 115 -33v-43c-146.667 5.33301 -241 8 -283 8c-45.333 0 -162.666 -2.66699 -351.999 -8v43c64.667 0 112.834 12.167 144.501 36.5
s47.5 68.166 47.5 131.499v500c0 50 -2.83301 89.333 -8.5 118s-17 50.834 -34 66.501s-37 25.834 -60 30.501s-55.5 7 -97.5 7z" />
    <glyph glyph-name="two" unicode="2" horiz-adv-x="1072" 
d="M84 832c101.333 170.667 260.671 255.999 478.004 255.999c106.667 0 190.5 -22.833 251.5 -68.5s91.5 -109.5 91.5 -191.5c0 -42 -10 -83 -30 -123s-45.167 -75.667 -75.5 -107s-66.333 -63.5 -108 -96.5s-81.667 -62.333 -120 -88s-77.833 -54 -118.5 -85
s-73 -59.167 -97 -84.5h444c53.333 0 88.166 6.16699 104.499 18.5s27.166 36.833 32.499 73.5h42c0 -161.333 2.66699 -276.666 8 -345.999c-30.667 6.66699 -132.334 10 -305.001 10h-596v40c18.667 19.333 48.5 47.666 89.5 84.999l109.5 100.5
c32 29.667 67.667 66.834 107 111.501s72.166 87.5 98.499 128.5s48.5 87.5 66.5 139.5s27 104 27 156c0 139.333 -64 209 -192 209c-108 0 -199.333 -53.333 -274 -160z" />
    <glyph glyph-name="three" unicode="3" horiz-adv-x="999" 
d="M60 -269c52 2 104.164 9.6709 156.497 23.0039s103 33.166 152 59.499s92.333 57.5 130 93.5s67.834 79.333 90.501 130s34 105.334 34 164.001c0 80 -19.333 146.167 -58 198.5s-91 80.833 -157 85.5c-50 -22 -85.333 -33 -106 -33c-24.667 0 -37 10 -37 30
c0 14.667 6.16699 25.667 18.5 33s27.833 11 46.5 11c8.66699 0 21.167 -1 37.5 -3s27.833 -3.33301 34.5 -4c105.333 73.333 158 164.666 158 273.999c0 60.667 -16 106 -48 136s-76.667 45 -134 45c-54.667 0 -105 -13.667 -151 -41s-85 -67.333 -117 -120l-36 19
c20 36 41.833 68.167 65.5 96.5s52.5 55.166 86.5 80.499s74.5 44.833 121.5 58.5s99.167 20.5 156.5 20.5c102.667 0 186.667 -21.167 252 -63.5s98 -99.833 98 -172.5c0 -77.333 -37.333 -146.833 -112 -208.5s-175.667 -104.834 -303 -129.501
c4.66699 0 11 0.166992 19 0.5s14 0.5 18 0.5c133.333 0 242 -27.5 326 -82.5s126 -131.833 126 -230.5c0 -60.667 -17.167 -118.334 -51.5 -173.001s-80.333 -102.167 -138 -142.5s-123.667 -75.5 -198 -105.5s-152.666 -52.5 -234.999 -67.5
s-164.166 -22.5 -245.499 -22.5v40z" />
    <glyph glyph-name="four" unicode="4" horiz-adv-x="1081" 
d="M16 74v43.001l764 971h33v-803h17c54 0 89 6.16699 105 18.5s26.667 36.833 32 73.5h43c0 -145.333 2.66699 -250 8 -314c-22 5.33301 -90.333 8.66602 -205 9.99902v-362h-238v363h-559zM204 285.001h371v476z" />
    <glyph glyph-name="five" unicode="5" horiz-adv-x="941" 
d="M61 -266c64 0.666992 125.835 11.335 185.502 32.002s113.5 50 161.5 88s86.5 86.833 115.5 146.5s43.5 125.834 43.5 198.501c0 85.333 -20 151.166 -60 197.499s-98 69.5 -174 69.5c-37.333 0 -70 -4.83301 -98 -14.5s-57.333 -24.834 -88 -45.501l-27 19l64 641
c27.333 -5.33301 64.333 -8 111 -8h337c40 0 67.833 5.66699 83.5 17s25.5 32 29.5 62h43c0 -152.667 3 -267.334 9 -344.001c-29.333 6.66699 -124.333 10 -285 10h-315l-34 -350c81.333 54.667 184.666 82 309.999 82c131.333 0 230.666 -30 297.999 -90
s101 -137.667 101 -233c0 -76.667 -24 -148 -72 -214s-110.667 -120.5 -188 -163.5s-164 -76.667 -260 -101s-193 -36.5 -291 -36.5v37z" />
    <glyph glyph-name="six" unicode="6" horiz-adv-x="1150" 
d="M97 554c0 118 18.166 226.998 54.499 326.998s82.666 183.5 138.999 250.5s121.666 125.833 195.999 176.5s146.666 89.334 216.999 116.001s140.5 45.667 210.5 57l8 -41c-35.333 -11.333 -66.666 -22.5 -93.999 -33.5s-57.666 -26 -90.999 -45
s-62.666 -39.833 -87.999 -62.5s-51.333 -51.167 -78 -85.5s-49.5 -72.166 -68.5 -113.499s-36.167 -90.333 -51.5 -147s-26.666 -118.667 -33.999 -186c28 46 66.167 80 114.5 102s99.833 33 154.5 33c113.333 0 208.666 -40.333 285.999 -121s116 -188.334 116 -323.001
c0 -76 -13.667 -145.167 -41 -207.5s-64.5 -113.666 -111.5 -153.999s-101.167 -71.333 -162.5 -93s-126.666 -32.5 -195.999 -32.5c-150 0 -267.5 51.167 -352.5 153.5s-127.5 245.5 -127.5 429.5zM405.999 543.998c0 -66 2.66699 -126.336 8 -181.003
s12.666 -101 21.999 -139s20 -71 32 -99s25.5 -50 40.5 -66s29.833 -27.833 44.5 -35.5s30 -11.5 46 -11.5c50.667 0 93.334 35.333 128.001 106s52 178.334 52 323.001c0 138.667 -16.167 240.334 -48.5 305.001s-74.5 97 -126.5 97c-35.333 0 -71.5 -12.667 -108.5 -38
s-65.167 -64 -84.5 -116c-3.33301 -51.333 -5 -99.666 -5 -144.999z" />
    <glyph glyph-name="seven" unicode="7" horiz-adv-x="932" 
d="M48 1068c30.667 -6.66699 132.331 -10.002 304.998 -10.002h578v-43c-16.667 -38 -42.834 -89.167 -78.501 -153.5l-97.5 -182c-29.333 -57 -59 -121 -89 -192s-53.5 -147.167 -70.5 -228.5s-25.5 -163.666 -25.5 -246.999c0 -7.33301 1.66699 -33.166 5 -77.499
s5 -73.5 5 -87.5c0 -42 -13 -77.5 -39 -106.5s-63.333 -43.5 -112 -43.5s-85.5 16.333 -110.5 49s-37.5 76.334 -37.5 131.001c0 54 8.33301 110.167 25 168.5s36.834 112 60.501 161s54.834 103.333 93.501 163s73.334 110 104.001 151l113 150l102 137.5h-543
c-54 0 -89 -6 -105 -18s-27 -36.667 -33 -74h-42c0 165.333 -2.66699 282.666 -8 351.999z" />
    <glyph glyph-name="eight" unicode="8" horiz-adv-x="1149" 
d="M88 322c0 166.667 110.999 298.996 332.999 396.996c-40.667 34.667 -74.5 65.834 -101.5 93.501s-54.167 59.667 -81.5 96s-47.833 74.166 -61.5 113.499s-20.5 80.666 -20.5 123.999c0 70.667 20.5 131.834 61.5 183.501s93.5 89.5 157.5 113.5s135.333 36 214 36
c118.667 0 215.334 -26.333 290.001 -79s112 -122 112 -208c0 -67.333 -23.667 -127.166 -71 -179.499s-117.666 -103.166 -210.999 -152.499c98 -83.333 164.333 -143 199 -179c101.333 -105.333 153.666 -209.666 156.999 -312.999v-10
c0 -113.333 -47.333 -206.166 -142 -278.499s-215 -108.5 -361 -108.5c-86 0 -164.167 12.833 -234.5 38.5s-127.833 65.5 -172.5 119.5s-67 118.333 -67 193zM341.999 357.996c0 -66.667 6.83105 -125 20.498 -175s38.334 -91.667 74.001 -125s81.167 -50 136.5 -50
c64 0 114.5 20.167 151.5 60.5s55.5 93.833 55.5 160.5c0 44.667 -7.5 86.834 -22.5 126.501s-40.5 80.167 -76.5 121.5s-66.167 73.166 -90.5 95.499s-63.166 56.166 -116.499 101.499l-21 18c-74 -77.333 -111 -188.666 -111 -333.999zM425.997 1272
c0 -36 6.33105 -71.332 18.998 -105.999s31.834 -68.334 57.501 -101.001s51.667 -62.167 78 -88.5s58.833 -56.166 97.5 -89.499c26 36.667 45.167 81.5 57.5 134.5s18.5 104.167 18.5 153.5c0 83.333 -16 148.666 -48 195.999s-76.333 71 -133 71
c-45.333 0 -81.166 -15.5 -107.499 -46.5s-39.5 -72.167 -39.5 -123.5z" />
    <glyph glyph-name="nine" unicode="9" horiz-adv-x="1132" 
d="M59 602c0 100.667 23.6641 188.501 70.9971 263.501s109 130.833 185 167.5s160.667 55 254 55c150.667 0 268.5 -49.5 353.5 -148.5s127.5 -238.167 127.5 -417.5c0 -76 -9.33301 -148.167 -28 -216.5s-43.834 -128.833 -75.501 -181.5s-69.167 -101.5 -112.5 -146.5
s-89 -83.5 -137 -115.5s-98.667 -60.167 -152 -84.5s-104.666 -43.333 -153.999 -57s-98 -23.834 -146 -30.501l-8 40c46.667 13.333 87.834 27.333 123.501 42s74.334 36.334 116.001 65.001s77.334 61.667 107.001 99s57.334 85.666 83.001 144.999
s44.5 126.666 56.5 201.999c-28.667 -42.667 -66.334 -74.167 -113.001 -94.5s-96.667 -30.5 -150 -30.5c-112.667 0 -207.667 40.333 -285 121s-116 188.334 -116 323.001zM367.997 618.001c0 -138 15.998 -239.33 47.998 -303.997s74 -97 126 -97
c34 0 69.167 12.167 105.5 36.5s64.833 61.166 85.5 110.499c5.33301 55.333 8 111.333 8 168c0 94 -5.66699 176 -17 246s-26.666 123.667 -45.999 161s-39.833 64.666 -61.5 81.999s-44.5 26 -68.5 26c-51.333 0 -94.166 -35.333 -128.499 -106
s-51.5 -178.334 -51.5 -323.001z" />
    <glyph glyph-name="colon" unicode=":" horiz-adv-x="594" 
d="M122 129c0 49.333 15.667 88.166 47 116.499s73.666 42.5 126.999 42.5c54 0 96.667 -14.167 128 -42.5s47 -67.166 47 -116.499c0 -48.667 -15.667 -87.167 -47 -115.5s-74 -42.5 -128 -42.5c-53.333 0 -95.666 14.167 -126.999 42.5s-47 66.833 -47 115.5zM122 929
c0 49.333 15.667 88.166 47 116.499s73.666 42.5 126.999 42.5c54 0 96.667 -14.167 128 -42.5s47 -67.166 47 -116.499c0 -48.667 -15.667 -87.167 -47 -115.5s-74 -42.5 -128 -42.5c-53.333 0 -95.666 14.167 -126.999 42.5s-47 66.833 -47 115.5z" />
    <glyph glyph-name="semicolon" unicode=";" horiz-adv-x="607" 
d="M125 129c0 47.333 15.832 85.6699 47.499 115.003s71.834 44 120.501 44c65.333 0 114 -24 146 -72c29.333 -44 44 -101 44 -171c0 -70.667 -18 -134.834 -54 -192.501s-89.333 -102.834 -160 -135.501l-19 37c38.667 17.333 72.5 42.833 101.5 76.5
s46.833 68.5 53.5 104.5c3.33301 13.333 5 28.666 5 45.999c0 14.667 -1.33301 27.667 -4 39c-30.667 -32.667 -70.667 -49 -120 -49c-48 0 -86.833 14 -116.5 42s-44.5 66.667 -44.5 116zM129.999 929.004c0 49.333 15.667 88.166 47 116.499s73.666 42.5 126.999 42.5
c54 0 96.667 -14.167 128 -42.5s47 -67.166 47 -116.499c0 -48.667 -15.667 -87.167 -47 -115.5s-74 -42.5 -128 -42.5c-53.333 0 -95.666 14.167 -126.999 42.5s-47 66.833 -47 115.5z" />
    <glyph glyph-name="less" unicode="&#x3c;" horiz-adv-x="1233" 
d="M58 727l997 465l35 -74l-838 -391l838 -391l-35 -74z" />
    <glyph glyph-name="equal" unicode="=" horiz-adv-x="1300" 
d="M137 553v61h1026v-61h-1026zM137 840v61h1026v-61h-1026z" />
    <glyph glyph-name="greater" unicode="&#x3e;" horiz-adv-x="1233" 
d="M143 336l838 391l-838 391l35 74l997 -465l-997 -465z" />
    <glyph glyph-name="question" unicode="?" horiz-adv-x="1040" 
d="M62 1352c0 71.333 39 130.332 117 176.999c81.333 48.667 183.333 73 306 73c147.333 0 266 -33.167 356 -99.5s135 -156.166 135 -269.499c0 -112 -46.667 -206.667 -140 -284s-220.666 -134.333 -381.999 -171v-299h-41v318c55.333 24 101.5 50.833 138.5 80.5
s64.667 62 83 97s31 69.333 38 103s10.5 72.5 10.5 116.5c0 124 -22.5 216.167 -67.5 276.5s-106.167 90.5 -183.5 90.5c-86.667 0 -145.667 -17.667 -177 -53c76 -24.667 114 -74.667 114 -150c0 -43.333 -15.167 -78.833 -45.5 -106.5s-69.5 -41.5 -117.5 -41.5
c-42.667 0 -77.334 13.833 -104.001 41.5s-40 61.167 -40 100.5zM262 128.999c0 49.333 15.667 88.166 47 116.499s73.666 42.5 126.999 42.5c54 0 96.667 -14.167 128 -42.5s47 -67.166 47 -116.499c0 -48.667 -15.667 -87.167 -47 -115.5s-74 -42.5 -128 -42.5
c-53.333 0 -95.666 14.167 -126.999 42.5s-47 66.833 -47 115.5z" />
    <glyph glyph-name="at" unicode="@" horiz-adv-x="1810" 
d="M92 293c0 136 26.332 269.329 78.999 399.996s123.167 245.5 211.5 344.5s194.833 178.833 319.5 239.5s255 91 391 91c74 0 143.167 -6.66699 207.5 -20s124 -34.5 179 -63.5s101.833 -65.167 140.5 -108.5s69 -96.5 91 -159.5s33 -133.5 33 -211.5
c0 -88.667 -12.5 -173.5 -37.5 -254.5s-58.167 -151 -99.5 -210s-88.333 -110.5 -141 -154.5s-107.167 -77.167 -163.5 -99.5s-111.166 -33.5 -164.499 -33.5c-107.333 0 -161 47 -161 141c0 26.667 4 56.667 12 90c-69.333 -154 -166.333 -231 -291 -231
c-74 0 -132 22.667 -174 68s-63 111.333 -63 198c0 72 13.667 147.333 41 226s63 149.834 107 213.501s96.5 116.334 157.5 158.001s122.5 62.5 184.5 62.5c42.667 0 77.5 -11.167 104.5 -33.5s44.833 -51.833 53.5 -88.5l19 93c108.667 0 195 9.66699 259 29l-162 -739
c-6.66699 -26.667 -10.334 -48.334 -11.001 -65.001v-10c0 -31.333 11 -47 33 -47c6 0 14.667 1.66699 26 5c34.667 10 71 27 109 51s76.333 56.333 115 97s73.167 86.334 103.5 137.001s55.166 110.834 74.499 180.501s29 142.5 29 218.5c0 92 -16.167 172.333 -48.5 241
s-77 123.167 -134 163.5s-121.167 70.333 -192.5 90s-149.333 29.5 -234 29.5c-124.667 0 -246 -28.167 -364 -84.5s-220.667 -131 -308 -224s-157.5 -203.167 -210.5 -330.5s-79.5 -259 -79.5 -395c0 -82.667 10.333 -157 31 -223s49.334 -121.667 86.001 -167
s81.334 -83.166 134.001 -113.499s110 -52.333 172 -66s129.667 -20.5 203 -20.5c158 0 298.667 37 422 111l15 -27c-115.333 -80.667 -261.666 -121 -438.999 -121c-98.667 0 -188 12.333 -268 37s-149.833 61.667 -209.5 111s-105.834 114.333 -138.501 195
s-49 174 -49 280zM722.999 321.996c0 -61.333 7.16602 -104.999 21.499 -130.999s35.5 -39 63.5 -39c83.333 0 157 103.333 221 310l64 316c0 35.333 -8 65.666 -24 90.999s-38.667 38 -68 38c-43.333 0 -86.666 -28.667 -129.999 -86s-78.833 -131.833 -106.5 -223.5
s-41.5 -183.5 -41.5 -275.5z" />
    <glyph glyph-name="A" unicode="A" horiz-adv-x="1366" 
d="M-32 0l0.000976562 40.9951c68.667 12.667 128 84.334 178 215.001l466 1198c22 -2 45.667 -3 71 -3s49 1 71 3l497 -1282c17.333 -45.333 37.5 -78.166 60.5 -98.499s45.833 -31.166 68.5 -32.499v-41c-81.333 4 -185 6 -311 6c-140 0 -244 -2 -312 -6v41
c51.333 2 88.166 8.33301 110.499 19s33.5 29.334 33.5 56.001c0 24 -8 56.333 -24 97l-123 336h-445l-55 -142c-37.333 -96 -56 -171.667 -56 -227c0 -50.667 15.167 -86.167 45.5 -106.5s75.833 -31.166 136.5 -32.499v-41c-93.333 4 -178.333 6 -255 6
c-64 0 -116.333 -2 -157 -6zM324.001 589.995h415l-203 551z" />
    <glyph glyph-name="B" unicode="B" horiz-adv-x="1375" 
d="M69 0v41.0029c34.667 1.33301 61 4.16602 79 8.49902s33.167 13.166 45.5 26.499s20.166 30.333 23.499 51s5 50.667 5 90v1016c0 38.667 -1.66699 68.5 -5 89.5s-11.166 38.167 -23.499 51.5s-27.5 22.166 -45.5 26.499s-44.333 7.16602 -79 8.49902v41
c68.667 -4 172.334 -6 311.001 -6c51.333 0 115.166 0.666992 191.499 2s119.833 2 130.5 2c164 0 289.333 -29.167 376 -87.5s130 -136.5 130 -234.5c0 -37.333 -8.16699 -74.166 -24.5 -110.499s-40.5 -71 -72.5 -104s-74.833 -62.333 -128.5 -88
s-114.834 -44.834 -183.501 -57.501v-4c92 -6.66699 172.333 -21.667 241 -45s122.334 -52.166 161.001 -86.499s67.167 -71 85.5 -110s27.5 -80.167 27.5 -123.5c0 -127.333 -49.833 -225.333 -149.5 -294s-238.167 -103 -415.5 -103c-12 0 -59 1 -141 3s-156.667 3 -224 3
c-141.333 0 -246.333 -2 -315 -6zM548 217.003c0 -71.333 8.83203 -117.5 26.499 -138.5s55.834 -31.5 114.501 -31.5c190 0 285 119.667 285 359c0 107.333 -27.167 189 -81.5 245s-140.5 84 -258.5 84h-86v-518zM547.999 770.003l88.001 0.000976562
c46.667 0 86.167 8.83301 118.5 26.5s57 42.667 74 75s29.167 67.166 36.5 104.499s11 80 11 128c0 102.667 -15.833 179.167 -47.5 229.5s-82.834 75.5 -153.501 75.5c-52 0 -86.167 -11.5 -102.5 -34.5s-24.5 -70.167 -24.5 -141.5v-463z" />
    <glyph glyph-name="C" unicode="C" horiz-adv-x="1445" 
d="M88 713c0 150.667 30.6621 284.166 91.9951 400.499s147 206.333 257 270s235.333 95.5 376 95.5c81.333 0 150.666 -11.667 207.999 -35s113.333 -56 168 -98c14.667 -12 28 -18 40 -18c27.333 0 45 40.667 53 122h47c-5.33301 -93.333 -8 -258.666 -8 -495.999h-48
c-12 101.333 -28.167 178.5 -48.5 231.5s-55.5 99.5 -105.5 139.5c-69.333 67.333 -155.666 101 -258.999 101c-70.667 0 -133 -19.5 -187 -58.5s-96.667 -92.167 -128 -159.5s-54.666 -141.833 -69.999 -223.5s-23 -169.5 -23 -263.5c0 -94.667 8.16699 -183 24.5 -265
s40.666 -156 72.999 -222s75.833 -118 130.5 -156s117.334 -57 188.001 -57c46.667 0 92.834 8.5 138.501 25.5s84.5 41.5 116.5 73.5c50 38.667 84.833 87 104.5 145s34.834 141.667 45.501 251h48c0 -247.333 2.66699 -419.333 8 -516h-47
c-4 42.667 -9.83301 73.5 -17.5 92.5s-18.5 28.5 -32.5 28.5c-11.333 0 -25.666 -5.66699 -42.999 -17c-61.333 -43.333 -119.833 -76.333 -175.5 -99s-123.167 -34 -202.5 -34c-144.667 0 -271.167 29 -379.5 87s-192.666 143.167 -252.999 255.5s-90.5 245.5 -90.5 399.5z
" />
    <glyph glyph-name="D" unicode="D" horiz-adv-x="1589" 
d="M69 0l-0.00390625 41.0029c34.667 1.33301 61 4.16602 79 8.49902s33.167 13.166 45.5 26.499s20.166 30.333 23.499 51s5 50.667 5 90v1016c0 38.667 -1.66699 68.5 -5 89.5s-11.166 38.167 -23.499 51.5s-27.5 22.166 -45.5 26.499s-44.333 7.16602 -79 8.49902v41
c87.333 -4.66699 169.666 -7 246.999 -7c6.66699 0 17.334 0.166992 32.001 0.5s25.334 0.5 32.001 0.5c196 4 303.333 6 322 6c266 0 465.167 -60.333 597.5 -181s198.5 -296.667 198.5 -528c0 -111.333 -18.5 -212.666 -55.5 -303.999s-89.833 -169.333 -158.5 -234
s-154.167 -114.667 -256.5 -150s-217.166 -53 -344.499 -53c-19.333 0 -65.666 1 -138.999 3s-126.666 3 -159.999 3c-141.333 0 -246.333 -2 -315 -6zM547.996 213.003c0 -72 9.83301 -119.332 29.5 -141.999s61.167 -34 124.5 -34c85.333 0 157.5 15 216.5 45
s106 75.5 141 136.5s60.167 133.167 75.5 216.5s23 182.666 23 297.999c0 233.333 -35.667 405 -107 515s-188.333 165 -351 165c-62 0 -102.833 -11.5 -122.5 -34.5s-29.5 -70.167 -29.5 -141.5v-1024z" />
    <glyph glyph-name="E" unicode="E" horiz-adv-x="1298" 
d="M69 0l-0.000976562 41.0029c34.667 1.33301 61 4.16602 79 8.49902s33.167 13.166 45.5 26.499s20.166 30.333 23.499 51s5 50.667 5 90v1016c0 38.667 -1.66699 68.5 -5 89.5s-11.166 38.167 -23.499 51.5s-27.5 22.166 -45.5 26.499s-44.333 7.16602 -79 8.49902v41
c148.667 -4 371 -6 667 -6c201.333 0 344 2 428 6c-9.33301 -112.667 -14 -213.667 -14 -303c0 -59.333 2 -105.666 6 -138.999h-47c-20 145.333 -56.667 247.5 -110 306.5s-128.666 88.5 -225.999 88.5h-84c-60 0 -98.5 -8.5 -115.5 -25.5s-25.5 -57.167 -25.5 -120.5v-507
h66c31.333 0 60 6 86 18s47.5 26.833 64.5 44.5s32.167 39.167 45.5 64.5s23.5 49.166 30.5 71.499s12.833 46.166 17.5 71.499h47c-4.66699 -68 -7 -132.333 -7 -193c0 -13.333 0.166992 -30.666 0.5 -51.999s0.5 -36.666 0.5 -45.999c0 -69.333 4 -166.333 12 -291h-47
c-26.667 180.667 -110 271 -250 271h-66v-516c0 -63.333 8.5 -103.5 25.5 -120.5s55.5 -25.5 115.5 -25.5h101c96.667 0 174.667 33.167 234 99.5s101.333 178.5 126 336.5h47c-4 -44 -6 -101.333 -6 -172c0 -111.333 4.66699 -215 14 -311c-92.667 4 -249 6 -469 6
c-296 0 -518.333 -2 -667 -6z" />
    <glyph glyph-name="F" unicode="F" horiz-adv-x="1213" 
d="M69 0l-0.00195312 41.0049c34.667 1.33301 61 4.16602 79 8.49902s33.167 13.166 45.5 26.499s20.166 30.333 23.499 51s5 50.667 5 90v1016c0 38.667 -1.66699 68.5 -5 89.5s-11.166 38.167 -23.499 51.5s-27.5 22.166 -45.5 26.499s-44.333 7.16602 -79 8.49902v41
c148.667 -4 371 -6 667 -6c201.333 0 344 2 428 6c-9.33301 -116 -14 -219.667 -14 -311c0 -66 2 -118 6 -156h-47c-26 154.667 -66.5 263.334 -121.5 326.001s-131.833 94 -230.5 94h-68c-60 0 -98.5 -8.5 -115.5 -25.5s-25.5 -57.167 -25.5 -120.5v-516h72
c31.333 0 60 6 86 18s47.5 27 64.5 45s32 39.667 45 65s23 49.166 30 71.499s12.833 46.166 17.5 71.499h48c-5.33301 -80 -8 -146.333 -8 -199c0 -12 0.166992 -28.167 0.5 -48.5s0.5 -34.833 0.5 -43.5c0 -71.333 4.33301 -168.333 13 -291h-47
c-28 180 -111.333 270 -250 270h-72v-471c0 -28 1.16699 -51.167 3.5 -69.5s6.83301 -34.666 13.5 -48.999s14.667 -25.333 24 -33s22.833 -14 40.5 -19s36.834 -8.33301 57.501 -10s47.334 -2.83398 80.001 -3.50098v-45c-112 4 -236.333 6 -373 6
c-98 0 -206.333 -2 -325 -6z" />
    <glyph glyph-name="G" unicode="G" horiz-adv-x="1505" 
d="M88 708c0 152.667 31.4971 287.669 94.4971 405.002s150.667 207.666 263 270.999s240.166 95 383.499 95c84.667 0 156.334 -11.5 215.001 -34.5s115.667 -55.833 171 -98.5c15.333 -13.333 29 -20 41 -20c26 0 43 41.333 51 124h47
c-5.33301 -93.333 -8 -258.666 -8 -495.999h-47c-10.667 92.667 -26.667 167.667 -48 225s-56.666 106 -105.999 146c-33.333 31.333 -74 56 -122 74s-96.667 27 -146 27c-72 0 -135.833 -19.5 -191.5 -58.5s-100 -92 -133 -159s-57.833 -141.667 -74.5 -224
s-25 -169.833 -25 -262.5c0 -473.333 131 -710 393 -710c57.333 0 105.666 13.333 144.999 40c18.667 13.333 31.667 28.166 39 44.499s11 37.166 11 62.499v201c0 92 -12.667 151.167 -38 177.5s-81.666 41.166 -168.999 44.499v41c78.667 -4.66699 195.334 -7 350.001 -7
c125.333 0 217 2.33301 275 7v-41c-40 -3.33301 -65.5 -15 -76.5 -35s-16.5 -67 -16.5 -141v-406h-41c-1.33301 28.667 -7.16602 55.334 -17.499 80.001s-24.5 37 -42.5 37c-22 0 -58.667 -14 -110 -42c-119.333 -69.333 -231.333 -104 -336 -104
c-236.667 0 -417.667 64.333 -543 193s-188 310 -188 544z" />
    <glyph glyph-name="H" unicode="H" horiz-adv-x="1639" 
d="M69 0l0.000976562 41.001c34.667 1.33301 61 4.16602 79 8.49902s33.167 13.166 45.5 26.499s20.166 30.333 23.499 51s5 50.667 5 90v1016c0 38.667 -1.66699 68.5 -5 89.5s-11.166 38.167 -23.499 51.5s-27.5 22.166 -45.5 26.499s-44.333 7.16602 -79 8.49902v41
c68.667 -4 176.334 -6 323.001 -6c132.667 0 236 2 310 6v-41c-35.333 -1.33301 -62 -4.16602 -80 -8.49902s-33.167 -13.166 -45.5 -26.499s-20.166 -30.333 -23.499 -51s-5 -50.667 -5 -90v-483h543v483c0 38.667 -1.66699 68.5 -5 89.5s-11.166 38.167 -23.499 51.5
s-27.666 22.166 -45.999 26.499s-44.833 7.16602 -79.5 8.49902v41c76 -4 183.333 -6 322 -6c140.667 0 244.334 2 311.001 6v-41c-35.333 -1.33301 -62 -4.16602 -80 -8.49902s-33.167 -13.166 -45.5 -26.499s-20.166 -30.333 -23.499 -51s-5 -50.667 -5 -90v-1016
c0 -51.333 4.16699 -88.666 12.5 -111.999s22.666 -39.333 42.999 -48s53.166 -14 98.499 -16v-41c-66.667 4 -170.334 6 -311.001 6c-138.667 0 -246 -2 -322 -6v41c35.333 1.33301 62 4.16602 80 8.49902s33.167 13.166 45.5 26.499s20.166 30.333 23.499 51
s5 50.667 5 90v492h-543v-492c0 -38.667 1.66699 -68.5 5 -89.5s11.166 -38.167 23.499 -51.5s27.666 -22.166 45.999 -26.499s44.833 -7.16602 79.5 -8.49902v-41c-74 4 -177.333 6 -310 6c-146.667 0 -254.334 -2 -323.001 -6z" />
    <glyph glyph-name="I" unicode="I" horiz-adv-x="770" 
d="M69 0l0.000976562 41c34.667 1.33301 61 4.16602 79 8.49902s33.167 13.166 45.5 26.499s20.166 30.333 23.499 51s5 50.667 5 90v1016c0 38.667 -1.66699 68.5 -5 89.5s-11.166 38.167 -23.499 51.5s-27.5 22.166 -45.5 26.499s-44.333 7.16602 -79 8.49902v41
c68.667 -4 176.334 -6 323.001 -6c132.667 0 236 2 310 6v-41c-35.333 -1.33301 -62 -4.16602 -80 -8.49902s-33.167 -13.166 -45.5 -26.499s-20.166 -30.333 -23.499 -51s-5 -50.667 -5 -90v-1016c0 -38.667 1.66699 -68.5 5 -89.5s11.166 -38.167 23.499 -51.5
s27.666 -22.166 45.999 -26.499s44.833 -7.16602 79.5 -8.49902v-41c-74 4 -177.333 6 -310 6c-146.667 0 -254.334 -2 -323.001 -6z" />
    <glyph glyph-name="J" unicode="J" horiz-adv-x="746" 
d="M-323 -198c0 41.333 14.999 74.666 44.999 99.999s69.667 38 119 38c47.333 0 85 -11.667 113 -35s42 -56.666 42 -99.999c0 -30.667 -9 -58 -27 -82s-44 -41.333 -78 -52c15.333 -10 40 -15 74 -15c50 0 93 13.5 129 40.5s62 62.5 78 106.5
c17.333 50 28.166 106.333 32.499 169s6.5 171 6.5 325v936c0 38.667 -1.66699 68.5 -5 89.5s-11.166 38.167 -23.499 51.5s-27.5 22.166 -45.5 26.499s-44.333 7.16602 -79 8.49902v41c66.667 -4 170.334 -6 311.001 -6c138.667 0 246 2 322 6v-41
c-35.333 -1.33301 -62 -4.16602 -80 -8.49902s-33.167 -13.166 -45.5 -26.499s-20.166 -30.333 -23.499 -51s-5 -50.667 -5 -90v-750v-107c0 -204 -11.667 -346.333 -35 -427c-28.667 -98.667 -88.667 -179 -180 -241s-204 -93 -338 -93
c-86.667 0 -155.334 12.667 -206.001 38c-67.333 34 -101 83.667 -101 149z" />
    <glyph glyph-name="K" unicode="K" horiz-adv-x="1463" 
d="M69 0v41.002c34.667 1.33301 61 4.16602 79 8.49902s33.167 13.166 45.5 26.499s20.166 30.333 23.499 51s5 50.667 5 90v1016c0 38.667 -1.66699 68.5 -5 89.5s-11.166 38.167 -23.499 51.5s-27.5 22.166 -45.5 26.499s-44.333 7.16602 -79 8.49902v41
c68.667 -4 176.334 -6 323.001 -6c132.667 0 236 2 310 6v-41c-35.333 -1.33301 -62 -4.16602 -80 -8.49902s-33.167 -13.166 -45.5 -26.499s-20.166 -30.333 -23.499 -51s-5 -50.667 -5 -90v-461c54 3.33301 104.167 20 150.5 50s97.5 77.333 153.5 142l120 146
c62.667 74 94 137.333 94 190c0 34 -13.167 60.5 -39.5 79.5s-63.166 29.167 -110.499 30.5v40c100 -4 200.667 -6 302 -6c79.333 0 144 2 194 6v-40c-108.667 -23.333 -208 -88.333 -298 -195l-256 -305l477 -744c20 -32 40.833 -57.5 62.5 -76.5
s49.834 -35.167 84.501 -48.5v-41c-94.667 4 -201.334 6 -320.001 6c-90 0 -176.667 -2 -260 -6v41c38.667 1.33301 66.5 5.16602 83.5 11.499s25.5 16.166 25.5 29.499c0 10 -7 27 -21 51l-298 481c-28.667 44.667 -52.167 74.167 -70.5 88.5s-42.833 22.833 -73.5 25.5
v-511c0 -38.667 1.66699 -68.5 5 -89.5s11.166 -38.167 23.499 -51.5s27.666 -22.166 45.999 -26.499s44.833 -7.16602 79.5 -8.49902v-41c-74 4 -177.333 6 -310 6c-146.667 0 -254.334 -2 -323.001 -6z" />
    <glyph glyph-name="L" unicode="L" horiz-adv-x="1251" 
d="M69 0l-0.00195312 41.0029c34.667 1.33301 61 4.16602 79 8.49902s33.167 13.166 45.5 26.499s20.166 30.333 23.499 51s5 50.667 5 90v1016c0 38.667 -1.66699 68.5 -5 89.5s-11.166 38.167 -23.499 51.5s-27.5 22.166 -45.5 26.499s-44.333 7.16602 -79 8.49902v41
c68.667 -4 176.334 -6 323.001 -6c138.667 0 246 2 322 6v-41c-49.333 -2 -84.833 -7.33301 -106.5 -16s-37 -24.667 -46 -48s-13.5 -60.666 -13.5 -111.999v-1040c0 -63.333 7.83301 -103.5 23.5 -120.5s50.834 -25.5 105.501 -25.5h100c94 0 174.667 41.833 242 125.5
s111 194.167 131 331.5h47c-4 -46.667 -6 -106.667 -6 -180c0 -116.667 4.66699 -224.667 14 -324c-92.667 4 -249 6 -469 6c-296 0 -518.333 -2 -667 -6z" />
    <glyph glyph-name="M" unicode="M" horiz-adv-x="1899" 
d="M71 0l-0.000976562 41c64 8.66699 105.667 30.667 125 66s29 103.333 29 204v922c0 38.667 -1.66699 68.5 -5 89.5s-11.166 38.167 -23.499 51.5s-27.666 22.166 -45.999 26.499s-44.833 7.16602 -79.5 8.49902v41c43.333 -4 102.666 -6 177.999 -6
c127.333 0 235.333 2 324 6l413 -996l378 990h145c138.667 0 246 2 322 6v-41c-35.333 -1.33301 -62 -4.16602 -80 -8.49902s-33.167 -13.166 -45.5 -26.499s-20.166 -30.333 -23.499 -51s-5 -50.667 -5 -90v-1016c0 -38.667 1.66699 -68.5 5 -89.5
s11.166 -38.167 23.499 -51.5s27.666 -22.166 45.999 -26.499s44.833 -7.16602 79.5 -8.49902v-41c-76 4 -183.333 6 -322 6c-146 0 -254 -2 -324 -6v41c37.333 1.33301 65.833 4.16602 85.5 8.49902s36.167 13.166 49.5 26.499s21.833 30.5 25.5 51.5s5.5 50.833 5.5 89.5
v1066l-493 -1286h-33l-553 1321v-982c0 -49.333 1.16699 -88 3.5 -116s7 -54.167 14 -78.5s18.167 -42.5 33.5 -54.5s34.5 -21.667 57.5 -29s53.167 -13 90.5 -17v-41c-52.667 4 -126.667 6 -222 6c-75.333 0 -134.666 -2 -177.999 -6z" />
    <glyph glyph-name="N" unicode="N" horiz-adv-x="1478" 
d="M71 0l-0.000976562 41.002c64 8.66699 105.667 30.667 125 66s29 103.333 29 204v922c0 38.667 -1.66699 68.5 -5 89.5s-11.166 38.167 -23.499 51.5s-27.666 22.166 -45.999 26.499s-44.833 7.16602 -79.5 8.49902v41c43.333 -4 102.666 -6 177.999 -6c70 0 129 2 177 6
l792 -977v641c0 49.333 -1.16699 88 -3.5 116s-7 54.167 -14 78.5s-18.167 42.5 -33.5 54.5s-34.5 21.667 -57.5 29s-53.167 13 -90.5 17v41c53.333 -4 127.333 -6 222 -6c75.333 0 134.666 2 177.999 6v-41c-64 -8.66699 -105.667 -30.667 -125 -66s-29 -103.333 -29 -204
v-1143c-10 0.666992 -26.333 1 -49 1c-24 0 -42.667 -0.333008 -56 -1l-888 1126v-786c0 -49.333 1.16699 -88 3.5 -116s7 -54.167 14 -78.5s18.167 -42.5 33.5 -54.5s34.5 -21.667 57.5 -29s53.167 -13 90.5 -17v-41c-52.667 4 -126.667 6 -222 6
c-75.333 0 -134.666 -2 -177.999 -6z" />
    <glyph glyph-name="O" unicode="O" horiz-adv-x="1623" 
d="M88 713c0 150.667 30.6689 284.167 92.002 400.5s147 206.333 257 270s235.333 95.5 376 95.5c219.333 0 394.666 -65.833 525.999 -197.5s197 -313.167 197 -544.5c0 -150.667 -30.833 -284.167 -92.5 -400.5s-147.334 -206.333 -257.001 -270
s-234.834 -95.5 -375.501 -95.5c-144.667 0 -271.167 29 -379.5 87s-192.666 143.167 -252.999 255.5s-90.5 245.5 -90.5 399.5zM428.002 721c0 -213.333 37.5 -385.5 112.5 -516.5s167.833 -196.5 278.5 -196.5c113.333 0 204.5 66.667 273.5 200s103.5 307 103.5 521
c0 213.333 -37.5 385.5 -112.5 516.5s-168.167 196.5 -279.5 196.5c-113.333 0 -204.333 -66.667 -273 -200s-103 -307 -103 -521z" />
    <glyph glyph-name="P" unicode="P" horiz-adv-x="1312" 
d="M69 0l-0.00292969 41.0039c34.667 1.33301 61 4.16602 79 8.49902s33.167 13.166 45.5 26.499s20.166 30.333 23.499 51s5 50.667 5 90v1016c0 38.667 -1.66699 68.5 -5 89.5s-11.166 38.167 -23.499 51.5s-27.5 22.166 -45.5 26.499s-44.333 7.16602 -79 8.49902v41
c68.667 -4 172.334 -6 311.001 -6c51.333 0 115.166 0.666992 191.499 2s119.833 2 130.5 2c184.667 0 325.334 -36.5 422.001 -109.5s145 -171.167 145 -294.5c0 -34.667 -4 -68.834 -12 -102.501s-20.833 -68.167 -38.5 -103.5s-42.5 -67.833 -74.5 -97.5
s-69.667 -56.167 -113 -79.5s-97 -41.666 -161 -54.999s-135 -20 -213 -20h-109v-357c0 -28 1.16699 -51.167 3.5 -69.5s6.83301 -34.666 13.5 -48.999s14.667 -25.333 24 -33s22.833 -14 40.5 -19s36.834 -8.33301 57.501 -10s47.334 -2.83398 80.001 -3.50098v-45
c-112 4 -236.333 6 -373 6c-98 0 -206.333 -2 -325 -6zM547.997 627.004l88.001 -0.000976562c46.667 0 87.667 7.16699 123 21.5s63.666 33.333 84.999 57s38.5 53 51.5 88s21.833 70.5 26.5 106.5s7 76.667 7 122c0 132.667 -19.667 230.334 -59 293.001
s-104.333 94 -195 94c-52 0 -86.167 -11.5 -102.5 -34.5s-24.5 -70.167 -24.5 -141.5v-606z" />
    <glyph glyph-name="Q" unicode="Q" horiz-adv-x="1623" 
d="M88 713c0 150.667 30.6689 284.166 92.002 400.499s147 206.333 257 270s235.333 95.5 376 95.5c219.333 0 394.666 -65.833 525.999 -197.5s197 -313.167 197 -544.5c0 -220 -63.333 -400.167 -190 -540.5s-291.334 -215.166 -494.001 -224.499
c-46 -6 -101.167 -22 -165.5 -48s-111.166 -43 -140.499 -51l148.5 -12.5l151.5 -12.5c33.333 -2.66699 73.166 -5.16699 119.499 -7.5s87.166 -3.5 122.499 -3.5c56 0 107.333 3 154 9c84.667 10 151.5 28.5 200.5 55.5s89.833 68.167 122.5 123.5l36 -11
c-22.667 -154.667 -70 -261 -142 -319c-64.667 -53.333 -152.667 -80 -264 -80c-68 0 -134.833 9.5 -200.5 28.5s-151.167 51.5 -256.5 97.5s-177 76.333 -215 91c-24 8.66699 -40.333 13.334 -49 14.001c-60.667 -28.667 -117.667 -43 -171 -43c-63.333 0 -95 18 -95 54
c0 36.667 37 55 111 55c48.667 0 100.334 -9.66699 155.001 -29c38 10 84.167 26.667 138.5 50s88.833 37.666 103.5 42.999c-193.333 18.667 -346.333 92.667 -459 222s-169 301 -169 515zM428.002 720.999c0 -213.333 37.5 -385.5 112.5 -516.5
s167.833 -196.5 278.5 -196.5c113.333 0 204.5 66.667 273.5 200s103.5 307 103.5 521c0 213.333 -37.5 385.5 -112.5 516.5s-168.167 196.5 -279.5 196.5c-113.333 0 -204.333 -66.667 -273 -200s-103 -307 -103 -521z" />
    <glyph glyph-name="R" unicode="R" horiz-adv-x="1417" 
d="M69 0l0.00292969 41.002c34.667 1.33301 61 4.16602 79 8.49902s33.167 13.166 45.5 26.499s20.166 30.333 23.499 51s5 50.667 5 90v1016c0 38.667 -1.66699 68.5 -5 89.5s-11.166 38.167 -23.499 51.5s-27.5 22.166 -45.5 26.499s-44.333 7.16602 -79 8.49902v41
c68.667 -4 172.334 -6 311.001 -6c51.333 0 115.166 0.666992 191.499 2s119.833 2 130.5 2c188 0 329.5 -30.833 424.5 -92.5s142.5 -149.5 142.5 -263.5c0 -35.333 -4.33301 -69.166 -13 -101.499s-24 -64.833 -46 -97.5s-49.833 -61.834 -83.5 -87.501
s-77.667 -48.334 -132 -68.001s-116.166 -33.5 -185.499 -41.5h1c123.333 -10.667 215.166 -37 275.499 -79s99.5 -105.667 117.5 -191l46 -211c11.333 -55.333 24 -93.666 38 -114.999s33.667 -32 59 -32c29.333 0 57 15.667 83 47l28 -25
c-36.667 -42 -76.167 -72.333 -118.5 -91s-93.5 -28 -153.5 -28c-78 0 -140 16.667 -186 50s-76.333 90.666 -91 171.999l-36 204c-6.66699 38.667 -13 70.834 -19 96.501s-14 52 -24 79s-21.333 48.167 -34 63.5s-28.667 27.833 -48 37.5s-41.333 14.5 -66 14.5h-133v-471
c0 -38.667 1.66699 -68.5 5 -89.5s11.166 -38.167 23.499 -51.5s27.666 -22.166 45.999 -26.499s44.833 -7.16602 79.5 -8.49902v-41c-74 4 -177.333 6 -310 6c-146.667 0 -254.334 -2 -323.001 -6zM548.003 729.002l88 -0.00292969c47.333 0 88.5 6 123.5 18
s63.167 27.833 84.5 47.5s38.5 44.334 51.5 74.001s21.833 60.334 26.5 92.001s7 67.834 7 108.501c0 112 -19.833 196.667 -59.5 254s-104.5 86 -194.5 86c-52 0 -86.167 -11.5 -102.5 -34.5s-24.5 -70.167 -24.5 -141.5v-504z" />
    <glyph glyph-name="S" unicode="S" horiz-adv-x="1196" 
d="M112 -14c5.33301 85.333 8.00293 269.661 8.00293 552.994h47c3.33301 -57.333 10 -110.333 20 -159s24.5 -95.167 43.5 -139.5s42.167 -82.166 69.5 -113.499s61.5 -56.166 102.5 -74.499s86.833 -27.5 137.5 -27.5c74.667 0 135.667 19.667 183 59s71 96 71 170
c0 40.667 -7 78.167 -21 112.5s-36.333 67.333 -67 99s-61.834 59.5 -93.501 83.5s-73.5 52.667 -125.5 86l-82.5 53c-21 14 -45.833 31.833 -74.5 53.5s-51.667 41 -69 58s-36 37.5 -56 61.5s-35.333 47.667 -46 71s-19.5 49.5 -26.5 78.5s-10.5 59.5 -10.5 91.5
c0 62.667 12.5 118.334 37.5 167.001s59.167 87.834 102.5 117.501s92 52 146 67s111.667 22.5 173 22.5c50 0 95.333 -4.33301 136 -13s71.167 -17.667 91.5 -27s44.166 -22.333 71.499 -39c32 -19.333 55 -29 69 -29c12.667 0 22.334 7 29.001 21s12.334 37 17.001 69h47
c-7.33301 -84.667 -11 -240.334 -11 -467.001h-47c-3.33301 54.667 -13.333 107.5 -30 158.5s-38.834 97.333 -66.501 139s-63.334 75.167 -107.001 100.5s-91.834 38 -144.501 38c-66.667 0 -120.834 -18.833 -162.501 -56.5s-62.5 -88.5 -62.5 -152.5
c0 -16.667 1.5 -32.5 4.5 -47.5s6.16699 -28.5 9.5 -40.5s10 -25.167 20 -39.5l24 -35c6 -9 17.333 -20.833 34 -35.5l37.5 -33c8.33301 -7.33301 24.333 -19.166 48 -35.499l51 -35.5l60.5 -41l65 -43l112 -77c28 -20 58.833 -45.5 92.5 -76.5s59.334 -60.333 77.001 -88
s32.834 -60.5 45.501 -98.5s19 -78.667 19 -122c0 -86.667 -23.5 -160.667 -70.5 -222s-108 -106.166 -183 -134.499s-159.833 -42.5 -254.5 -42.5c-76 0 -139 6.83301 -189 20.5s-96.667 32.167 -140 55.5c-30.667 19.333 -54 29 -70 29
c-12.667 0 -22.334 -7.16699 -29.001 -21.5s-12 -37.166 -16 -68.499h-47z" />
    <glyph glyph-name="T" unicode="T" horiz-adv-x="1368" 
d="M52 1450c123.333 -4 334.337 -6 633.004 -6c297.333 0 507.666 2 630.999 6c-10 -126.667 -15 -242.667 -15 -348c0 -66 2 -118 6 -156h-47c-34 168.667 -79.333 287 -136 355s-134 102 -232 102h-45v-1169c0 -43.333 2.66699 -76.833 8 -100.5
s16.666 -42.834 33.999 -57.501s39 -24 65 -28s63.333 -6.33301 112 -7v-41c-116 4 -246 6 -390 6c-141.333 0 -266 -2 -374 -6v41c48.667 0.666992 86 3 112 7s47.667 13.333 65 28s28.666 33.834 33.999 57.501s8 57.167 8 100.5v1169h-45
c-98.667 0 -176.334 -33.833 -233.001 -101.5s-102 -186.167 -136 -355.5h-47c4 38 6 90 6 156c0 102 -4.66699 218 -14 348z" />
    <glyph glyph-name="U" unicode="U" horiz-adv-x="1410" 
d="M38 1409v40.999c70 -4 177 -6 321 -6c140 0 248 2 324 6v-41c-49.333 -2 -84.833 -7.33301 -106.5 -16s-37 -24.667 -46 -48s-13.5 -60.666 -13.5 -111.999v-773c0 -143.333 20.833 -248.666 62.5 -315.999s115.167 -101 220.5 -101c56.667 0 106.5 8.5 149.5 25.5
s78.5 40.667 106.5 71s50.833 68 68.5 113s30.167 93.5 37.5 145.5s11 110.333 11 175v541c0 60 -2.16699 106.5 -6.5 139.5s-14 61.333 -29 85s-34.833 40.167 -59.5 49.5s-59.334 16.333 -104.001 21v41c53.333 -4 127 -6 221 -6c76.667 0 136 2 178 6v-41
c-64 -8.66699 -105.5 -30.667 -124.5 -66s-28.5 -103.333 -28.5 -204v-543c0 -196 -28 -340.667 -84 -434c-76 -127.333 -214 -191 -414 -191c-159.333 0 -282.333 34.667 -369 104c-63.333 50.667 -106 114.334 -128 191.001s-33 184.667 -33 324v643
c0 39.333 -1.66699 69.333 -5 90s-11.166 37.667 -23.499 51s-27.5 22.166 -45.5 26.499s-44.667 7.16602 -80 8.49902z" />
    <glyph glyph-name="V" unicode="V" horiz-adv-x="1368" 
d="M-25 1409l-0.00292969 41.001c82 -4 186 -6 312 -6c140.667 0 244.334 2 311.001 6v-41c-51.333 -2 -88.166 -8.16699 -110.499 -18.5s-33.5 -29.5 -33.5 -57.5c0 -23.333 8 -55.333 24 -96l362 -917l252 680c38 103.333 57 186 57 248
c0 55.333 -14.5 95.666 -43.5 120.999s-71.833 38.666 -128.5 39.999v41c92 -4 177 -6 255 -6c62.667 0 114.667 2 156 6v-41c-77.333 -30 -139.666 -111 -186.999 -243l-433 -1170c-29.333 1.33301 -53 2 -71 2s-41.667 -0.666992 -71 -2l-522 1282
c-34 84.667 -77 128.334 -129 131.001z" />
    <glyph glyph-name="W" unicode="W" horiz-adv-x="1982" 
d="M-24 1409l-0.00195312 41.0029c80.667 -4 182.334 -6 305.001 -6c114 0 198 2 252 6v-41c-48 -6.66699 -72 -33.334 -72 -80.001c0 -25.333 6.33301 -56 19 -92l297 -866l209 609l-106 319c-22.667 70 -59.667 106.667 -111 110v41c74.667 -4 172 -6 292 -6
c131.333 0 229.666 2 294.999 6v-41c-50.667 -2 -86.667 -7.83301 -108 -17.5s-32 -29.167 -32 -58.5c0 -23.333 7 -55.333 21 -96l281 -857l195 620c30.667 98.667 46 178 46 238c0 59.333 -14.667 102.333 -44 129s-73.333 40.667 -132 42v41c92 -4 177 -6 255 -6
c62.667 0 114.667 2 156 6v-41c-79.333 -31.333 -139 -112.333 -179 -243l-361 -1170c-29.333 1.33301 -53.333 2 -72 2c-17.333 0 -40.666 -0.666992 -69.999 -2l-302 911l-304 -911c-29.333 1.33301 -53.333 2 -72 2c-17.333 0 -40.666 -0.666992 -69.999 -2l-459 1282
c-16.667 45.333 -36.5 78.166 -59.5 98.499s-46.167 31.166 -69.5 32.499z" />
    <glyph glyph-name="X" unicode="X" horiz-adv-x="1415" 
d="M7 1408v43c149.333 -5.33301 246.666 -8 291.999 -8c86.667 0 191.334 2.66699 314.001 8v-43c-87.333 0 -131 -13 -131 -39c0 -10.667 5.33301 -23.667 16 -39l305 -445l151 204c64.667 82 97 151 97 207c0 34 -12.833 60.5 -38.5 79.5s-62.5 30.167 -110.5 33.5v41
c77.333 -4 163 -6 257 -6c83.333 0 146.333 2 189 6v-41c-84 -24 -170 -95.333 -258 -214l-262 -348l481 -702c28 -40 50 -66.5 66 -79.5s37.667 -20.5 65 -22.5v-43c-144 5.33301 -237.333 8 -280 8c-52 0 -162 -2.66699 -330 -8v43c48 0 82.5 2.33301 103.5 7
s31.5 13.667 31.5 27c0 8.66699 -5 20.667 -15 36l-344 505l-164 -224c-62.667 -84 -94 -155.333 -94 -214c0 -42 15.5 -74.833 46.5 -98.5s73.833 -37.167 128.5 -40.5v-41c-78 4 -186 6 -324 6c-82 0 -144.667 -2 -188 -6v41c93.333 30.667 192 114 296 250l272 367
l-441 648c-28 40 -50 66.5 -66 79.5s-37.667 20.5 -65 22.5z" />
    <glyph glyph-name="Y" unicode="Y" horiz-adv-x="1275" 
d="M-14 1408l0.000976562 43.002c80 -6.66699 160.667 -10 242 -10c126.667 0 255 3.33301 385 10v-43c-48.667 0 -86.667 -4.16699 -114 -12.5s-41 -24.5 -41 -48.5c0 -12.667 4.33301 -27.667 13 -45l312 -598l159 318c54 107.333 81 191.333 81 252
c0 87.333 -57 132.666 -171 135.999v41c93.333 -4 178.333 -6 255 -6c63.333 0 115.333 2 156 6v-41c-63.333 -24.667 -128.666 -103.334 -195.999 -236.001l-242 -480v-477c0 -38.667 1.66699 -68.5 5 -89.5s11.166 -38.167 23.499 -51.5s27.5 -22.166 45.5 -26.499
s44.333 -7.16602 79 -8.49902v-41c-73.333 4 -178.333 6 -315 6c-144.667 0 -250.667 -2 -318 -6v41c35.333 1.33301 62 4.16602 80 8.49902s33.167 13.166 45.5 26.499s20.166 30.333 23.499 51s5 50.667 5 90v348l-394 729c-42 76 -81.667 114 -119 114z" />
    <glyph glyph-name="Z" unicode="Z" horiz-adv-x="1232" 
d="M80 0l-0.00390625 41l714 1362h-234c-53.333 0 -101.666 -7 -144.999 -21s-83.5 -36.5 -120.5 -67.5s-67.833 -74.333 -92.5 -130s-41.667 -122.834 -51 -201.501h-47c4 38 6 90 6 156c0 94.667 -5 198.334 -15 311.001c91.333 -4 245 -6 461 -6c270 0 464.667 2 584 6
v-41l-712 -1362h225c38.667 0 76.334 4.5 113.001 13.5s73 24.5 109 46.5s68 49.5 96 82.5s52.333 75.333 73 127s34.334 110.167 41.001 175.5h47c-4 -46.667 -6 -107 -6 -181c0 -119.333 4.66699 -223 14 -311c-101.333 4 -271.333 6 -510 6
c-253.333 0 -436.666 -2 -549.999 -6z" />
    <glyph glyph-name="bracketleft" unicode="[" horiz-adv-x="660" 
d="M171 -371v1952h412v-39h-117v-1874h117v-39h-412z" />
    <glyph glyph-name="backslash" unicode="\" horiz-adv-x="754" 
d="M63 1479h68l557 -1508h-68z" />
    <glyph glyph-name="bracketright" unicode="]" horiz-adv-x="660" 
d="M77 -332h117v1874h-117v39h412v-1952h-412v39z" />
    <glyph glyph-name="asciicircum" unicode="^" horiz-adv-x="1083" 
d="M116 664c84 46 162.166 106.5 234.499 181.5s129.833 153.5 172.5 235.5h37c41.333 -81.333 98.333 -159.5 171 -234.5s151.334 -135.833 236.001 -182.5l-16 -29c-86.667 20.667 -171 46.667 -253 78s-147.667 62.666 -197 93.999
c-42 -31.333 -96.5 -62.666 -163.5 -93.999s-135.5 -57.333 -205.5 -78z" />
    <glyph glyph-name="underscore" unicode="_" horiz-adv-x="1245" 
d="M121 -175h1004v-179h-1004v179z" />
    <glyph glyph-name="grave" unicode="`" horiz-adv-x="457" 
d="M16 1596c0 32 12 58 36 78c20 17.333 43.667 26 71 26c39.333 0 72.333 -16 99 -48c19.333 -23.333 36.333 -52.5 51 -87.5l57.5 -141c23.667 -59 52.167 -118.5 85.5 -178.5l-23 -18c-50 46 -100 87.667 -150 125l-121.5 90.5c-31 23 -55.5 45.833 -73.5 68.5
c-21.333 26 -32 54.333 -32 85z" />
    <glyph glyph-name="a" unicode="a" horiz-adv-x="1060" 
d="M59 219c0 71.333 23.333 130.169 70 176.502s119.334 87.833 218.001 124.5c100 38 164 65 192 81c51.333 29.333 77 63.666 77 102.999v160c0 122 -55.667 183 -167 183c-63.333 0 -112 -16.667 -146 -50c80.667 -27.333 121 -81 121 -161
c0 -42.667 -15.333 -77.834 -46 -105.501s-71 -41.5 -121 -41.5c-44 0 -79.167 14.833 -105.5 44.5s-39.5 67.5 -39.5 113.5c0 69.333 38.333 126.333 115 171c83.333 46.667 187 70 311 70c140.667 0 240.667 -30.667 300 -92c28.667 -29.333 48 -65.5 58 -108.5
s15 -102.5 15 -178.5v-557c0 -33.333 3.16699 -56.833 9.5 -70.5s17.833 -20.5 34.5 -20.5c20 0 45 11.667 75 35l21 -35c-62 -50 -140 -75 -234 -75c-70 0 -120.167 15.333 -150.5 46s-45.833 70.667 -46.5 120c-33.333 -55.333 -76.833 -96.833 -130.5 -124.5
s-110.834 -41.5 -171.501 -41.5c-78 0 -140.667 20.5 -188 61.5s-71 98.167 -71 171.5zM350 276.003c0 -54 11.667 -93.999 35 -119.999s54.333 -39 93 -39c52.667 0 98.667 27.667 138 83v420c-8.66699 -14.667 -22.5 -29.334 -41.5 -44.001s-47.5 -33.667 -85.5 -57
c-43.333 -32 -77.333 -66.5 -102 -103.5s-37 -83.5 -37 -139.5z" />
    <glyph glyph-name="b" unicode="b" horiz-adv-x="1200" 
d="M12 1537v43.001c42.667 -4 85 -6 127 -6c120 0 219.667 9.33301 299 28v-710c28.667 63.333 70.334 111.833 125.001 145.5s117.667 50.5 189 50.5c110.667 0 200 -45.333 268 -136s102 -222.334 102 -395.001c0 -103.333 -12.5 -193.5 -37.5 -270.5
s-59.5 -138 -103.5 -183s-93.333 -78.333 -148 -100s-114.667 -32.5 -180 -32.5c-94 0 -170.333 23.667 -229 71c-7.33301 0.666992 -18.333 1 -33 1c-44.667 0 -88.334 -7.16699 -131.001 -21.5s-76 -32.5 -100 -54.5l-31 18c9.33301 31.333 14 69.666 14 114.999v1257
c0 62.667 -9.83301 108.334 -29.5 137.001s-53.5 43 -101.5 43zM438 69.001c44 -36 94.666 -54 151.999 -54c148.667 0 223 171.333 223 514c0 168 -15.5 288.5 -46.5 361.5s-76.5 109.5 -136.5 109.5c-44 0 -84.167 -16.167 -120.5 -48.5s-60.166 -75.833 -71.499 -130.5
v-752z" />
    <glyph glyph-name="c" unicode="c" horiz-adv-x="1016" 
d="M75 524c0 179.333 46.8301 318.168 140.497 416.501s215.5 147.5 365.5 147.5c104.667 0 190.334 -21 257.001 -63c35.333 -21.333 63 -48.5 83 -81.5s30 -69.5 30 -109.5c0 -48.667 -15.167 -88.334 -45.5 -119.001s-69.166 -46 -116.499 -46
c-48.667 0 -87.167 13.833 -115.5 41.5s-42.5 64.5 -42.5 110.5c0 41.333 12.833 77 38.5 107s57.834 50.333 96.501 61c-10.667 14 -27.167 25.667 -49.5 35s-46.833 14 -73.5 14c-55.333 0 -102.666 -21.333 -141.999 -64s-68.666 -100 -87.999 -172s-29 -155 -29 -249
c0 -76 7.66699 -141.833 23 -197.5s36.166 -98.667 62.499 -129s54.833 -52.333 85.5 -66s64 -20.5 100 -20.5c111.333 0 200.666 55.667 267.999 167l36 -13c-12.667 -40.667 -29.834 -79.167 -51.501 -115.5s-48.667 -70.5 -81 -102.5s-72.166 -57.5 -119.499 -76.5
s-99 -28.5 -155 -28.5c-68 0 -130.5 11 -187.5 33s-107.333 55 -151 99s-77.667 101.833 -102 173.5s-36.5 154.167 -36.5 247.5z" />
    <glyph glyph-name="d" unicode="d" horiz-adv-x="1224" 
d="M77 534c0 179.333 42.168 316.501 126.501 411.501s194.833 142.5 331.5 142.5c99.333 0 174.666 -25.667 225.999 -77v346c0 63.333 -9.83301 109.333 -29.5 138s-53.5 43 -101.5 43v43c43.333 -4 85.666 -6 126.999 -6c120 0 219.667 9.33301 299 28v-1379
c0 -62.667 9.83301 -108.334 29.5 -137.001s53.5 -43 101.5 -43v-43c-43.333 4 -85.666 6 -126.999 6c-119.333 0 -219 -9.33301 -299 -28v173c-48 -120.667 -136.667 -181 -266 -181c-128 0 -229.667 46.833 -305 140.5s-113 234.5 -113 422.5zM387.001 530.001v-10
c0 -161.333 16.333 -278 49 -350c33.333 -73.333 81.333 -110 144 -110c43.333 0 82 15.5 116 46.5s55.667 72.833 65 125.5v728c-35.333 46 -85 69 -149 69c-72 0 -127.667 -41.667 -167 -125c-38.667 -82 -58 -204 -58 -366v-8z" />
    <glyph glyph-name="e" unicode="e" horiz-adv-x="1033" 
d="M76 519c0 184 45.8311 324.83 137.498 422.497s212.834 146.5 363.501 146.5c256.667 0 385 -151.667 385 -455h-573c-2.66699 -26.667 -4 -59 -4 -97c0 -68.667 7.66699 -129.167 23 -181.5s36 -93.666 62 -123.999s54.333 -53 85 -68s63 -22.5 97 -22.5
c112.667 0 202.334 54.667 269.001 164l37 -14c-12.667 -40.667 -30.5 -79.167 -53.5 -115.5s-51 -70.166 -84 -101.499s-73 -56.166 -120 -74.499s-97.833 -27.5 -152.5 -27.5c-144 0 -258.667 46.167 -344 138.5s-128 228.833 -128 409.5zM382.998 671.997
l321 0.000976562v25c0 96 -10.667 176.333 -32 241c-24 70.667 -59.667 106 -107 106c-48.667 0 -89.167 -30.333 -121.5 -91s-52.5 -154.334 -60.5 -281.001z" />
    <glyph glyph-name="f" unicode="f" horiz-adv-x="720" 
d="M41 1017l0.00195312 40.999h139c0 119.333 9.5 211 28.5 275s52.5 119.333 100.5 166c31.333 30.667 72 55.5 122 74.5s103 28.5 159 28.5c85.333 0 158.333 -22.667 219 -68c46.667 -38 70 -89 70 -153c0 -39.333 -13.667 -73 -41 -101s-62 -42 -104 -42
c-46.667 0 -84.334 13.167 -113.001 39.5s-43 61.833 -43 106.5c0 36 10.333 67.5 31 94.5s50.334 46.167 89.001 57.5c-10.667 19.333 -35.334 29 -74.001 29c-50 0 -87 -18 -111 -54c-14 -20.667 -23.833 -50.667 -29.5 -90s-8.5 -98.333 -8.5 -177v-186h219v-41h-219
v-806c0 -63.333 16 -107.166 48 -131.499s80.333 -36.5 145 -36.5v-43c-189.333 5.33301 -307 8 -353 8c-38.667 0 -127.334 -2.66699 -266.001 -8v43c48.667 0 82.667 10.5 102 31.5s29 59.5 29 115.5v827h-139z" />
    <glyph glyph-name="g" unicode="g" horiz-adv-x="1112" 
d="M40 -208c0 30 11.499 55.168 34.499 75.501s49.167 34.833 78.5 43.5s63.833 20 103.5 34s70.834 28.667 93.501 44h-48c-23.333 0 -46.5 2.5 -69.5 7.5s-47.333 13.667 -73 26s-46.5 32 -62.5 59s-24 59.5 -24 97.5c0 58.667 19.5 110 58.5 154s106.5 88.667 202.5 134
c-71.333 23.333 -126.666 59.666 -165.999 108.999s-59 111.333 -59 186c0 73.333 19.5 134.833 58.5 184.5s90.667 85.667 155 108s139.833 33.5 226.5 33.5c53.333 0 104.333 -4.66699 153 -14c-0.666992 8 -1 16 -1 24c0 26.667 2.66699 52.334 8 77.001
c6.66699 57.333 26.167 103.166 58.5 137.499s77.5 51.5 135.5 51.5c44 0 79.833 -11.333 107.5 -34s41.5 -53 41.5 -91c0 -34.667 -13.333 -63.167 -40 -85.5s-60 -33.5 -100 -33.5c-41.333 0 -73.666 9.5 -96.999 28.5s-42 47.833 -56 86.5c-14 -24 -24 -58.667 -30 -104
c-0.666992 -6.66699 -1 -16.667 -1 -30c0 -14.667 0.333008 -25.667 1 -33c82 -20.667 146 -56.5 192 -107.5s69 -117.167 69 -198.5c0 -108 -40.333 -189.333 -121 -244s-187.334 -82 -320.001 -82c-67.333 0 -126.333 6.66699 -177 20
c-40.667 -24 -70.334 -45 -89.001 -63s-28 -39 -28 -63c0 -45.333 28 -68 84 -68h471c39.333 0 74.833 -3.66699 106.5 -11s60.667 -19.333 87 -36s46.833 -39.667 61.5 -69s22 -64 22 -104c0 -50.667 -12.167 -100.667 -36.5 -150s-59.833 -95 -106.5 -137
s-109 -75.833 -187 -101.5s-165.667 -38.5 -263 -38.5c-148 0 -260.667 16.5 -338 49.5s-116 75.5 -116 127.5zM318.999 -172.999c0 -56.667 21.5 -100.333 64.5 -131s98.167 -46 165.5 -46c86.667 0 160 23 220 69s90 107.667 90 185c0 29.333 -8.5 50.833 -25.5 64.5
s-47.833 20.5 -92.5 20.5h-352c-22 -21.333 -39.167 -47.5 -51.5 -78.5s-18.5 -58.833 -18.5 -83.5zM411.999 762.002c0 -104.667 11.5 -179 34.5 -223s57.167 -66 102.5 -66s79.5 22 102.5 66s34.5 118.333 34.5 223s-11.5 179 -34.5 223s-57.167 66 -102.5 66
s-79.5 -22 -102.5 -66s-34.5 -118.333 -34.5 -223z" />
    <glyph glyph-name="h" unicode="h" horiz-adv-x="1246" 
d="M39 0v43c48.667 0 82.667 10.5 102 31.5s29 59.5 29 115.5v1167c0 62.667 -9.83301 108.334 -29.5 137.001s-53.5 43 -101.5 43v43c43.333 -4 85.333 -6 126 -6c120 0 219.667 9.33301 299 28v-704c62 126.667 173.667 190 335 190c104 0 179.333 -26.667 226 -80
c22.667 -26 39 -59.667 49 -101s15 -96.333 15 -165v-552c0 -56 9.66699 -94.5 29 -115.5s53.333 -31.5 102 -31.5v-43c-138.667 5.33301 -228.667 8 -270 8c-44 0 -132.667 -2.66699 -266 -8v43c41.333 0 70 10.5 86 31.5s24 59.5 24 115.5v637c0 56 -9 98.5 -27 127.5
s-51 43.5 -99 43.5c-57.333 0 -105.666 -22.333 -144.999 -67s-59 -101.334 -59 -170.001v-571c0 -56 8.16699 -94.5 24.5 -115.5s45.166 -31.5 86.499 -31.5v-43c-128 5.33301 -212.667 8 -254 8c-44 0 -138 -2.66699 -282 -8z" />
    <glyph glyph-name="i" unicode="i" horiz-adv-x="646" 
d="M50 0v43c48.667 0 82.667 10.5 102 31.5s29 59.5 29 115.5v646c0 63.333 -9.83301 109.333 -29.5 138s-53.5 43 -101.5 43v43c50 -4.66699 92.333 -7 127 -7c116 0 215.667 9.66699 299 29v-892c0 -56 9.66699 -94.5 29 -115.5s53.333 -31.5 102 -31.5v-43
c-138.667 5.33301 -230 8 -274 8c-44.667 0 -139 -2.66699 -283 -8zM128 1430c0 48.667 16.833 87.167 50.5 115.5s79.167 42.5 136.5 42.5c56.667 0 101.834 -14.167 135.501 -42.5s50.5 -66.833 50.5 -115.5c0 -49.333 -16.833 -88.166 -50.5 -116.499
s-78.834 -42.5 -135.501 -42.5c-58 0 -103.667 14.167 -137 42.5s-50 67.166 -50 116.499z" />
    <glyph glyph-name="j" unicode="j" horiz-adv-x="608" 
d="M-259 -220c0 42 14.833 75.5 44.5 100.5s69.167 37.5 118.5 37.5c47.333 0 84.666 -11.167 111.999 -33.5s41 -54.833 41 -97.5c0 -28.667 -8.5 -54.667 -25.5 -78s-42.5 -41.333 -76.5 -54c16 -2 31.667 -3 47 -3c57.333 0 100 19.333 128 58
c16.667 24.667 27.667 61 33 109s8 123.333 8 226v791c0 63.333 -9.83301 109.333 -29.5 138s-53.5 43 -101.5 43v43c50 -4.66699 92.333 -7 127 -7c117.333 0 217 9.66699 299 29v-889c0 -115.333 -9.66699 -209.666 -29 -282.999s-53.333 -134.666 -102 -183.999
c-70.667 -74 -181 -111 -331 -111c-72 0 -132.667 12.333 -182 37c-25.333 13.333 -45.166 31.166 -59.499 53.499s-21.5 47.166 -21.5 74.499zM120 1425c0 49.333 16.667 88.166 50 116.499s79 42.5 137 42.5c56.667 0 101.834 -14.167 135.501 -42.5
s50.5 -67.166 50.5 -116.499c0 -48.667 -16.833 -87.167 -50.5 -115.5s-78.834 -42.5 -135.501 -42.5c-57.333 0 -102.833 14.167 -136.5 42.5s-50.5 66.833 -50.5 115.5z" />
    <glyph glyph-name="k" unicode="k" horiz-adv-x="1199" 
d="M39 0l0.000976562 43.0029c48.667 0 82.667 10.5 102 31.5s29 59.5 29 115.5v1167c0 63.333 -9.83301 109.333 -29.5 138s-53.5 43 -101.5 43v43c43.333 -4 85.333 -6 126 -6c120 0 219.667 9.33301 299 28v-1020c52.667 4 94 21 124 51l155 152
c46 45.333 69 86.666 69 123.999c0 31.333 -14.833 56.666 -44.5 75.999s-67.834 30.333 -114.501 33v41c88.667 -4.66699 168.667 -7 240 -7c104 0 184 2.33301 240 7v-41c-83.333 -18.667 -168.666 -71.667 -255.999 -159l-132 -137l344 -573
c13.333 -21.333 24 -37.333 32 -48s18.667 -21.834 32 -33.501s27.666 -20.167 42.999 -25.5v-43c-109.333 5.33301 -181 8 -215 8c-40.667 0 -129 -2.66699 -265 -8v43c41.333 0 62 12.667 62 38c0 8 -3.33301 18.667 -10 32l-203 366c-14 23.333 -28.5 39.333 -43.5 48
s-34.167 13.667 -57.5 15v-352c0 -56 9.16699 -94.5 27.5 -115.5s50.166 -31.5 95.499 -31.5v-43c-133.333 5.33301 -221.666 8 -264.999 8c-44.667 0 -139 -2.66699 -283 -8z" />
    <glyph glyph-name="l" unicode="l" horiz-adv-x="637" 
d="M40 0l0.00195312 43c48.667 0 82.667 10.5 102 31.5s29 59.5 29 115.5v1167c0 63.333 -9.83301 109.333 -29.5 138s-53.5 43 -101.5 43v43c43.333 -4 85.666 -6 126.999 -6c120 0 219.667 9.33301 299 28v-1413c0 -56 9.66699 -94.5 29 -115.5s53.333 -31.5 102 -31.5
v-43c-138.667 5.33301 -229.667 8 -273 8c-42.667 0 -137.334 -2.66699 -284.001 -8z" />
    <glyph glyph-name="m" unicode="m" horiz-adv-x="1853" 
d="M50 0l-0.00292969 43.002c48.667 0 82.667 10.5 102 31.5s29 59.5 29 115.5v646c0 63.333 -9.83301 109.333 -29.5 138s-53.5 43 -101.5 43v43c50 -4.66699 92.333 -7 127 -7c116 0 215.667 9.66699 299 29v-185c60 127.333 165.667 191 317 191
c102.667 0 177.334 -26.667 224.001 -80c26 -30 43.333 -70.667 52 -122c64.667 134.667 178 202 340 202c102.667 0 177.334 -26.667 224.001 -80c22.667 -25.333 38.834 -58.833 48.501 -100.5s14.5 -96.834 14.5 -165.501v-552c0 -56 9.66699 -94.5 29 -115.5
s53.333 -31.5 102 -31.5v-43c-138.667 5.33301 -228.667 8 -270 8s-126 -2.66699 -254 -8v43c36.667 0 62.167 10.5 76.5 31.5s21.5 59.5 21.5 115.5v637c0 56.667 -8.5 99.334 -25.5 128.001s-49.167 43 -96.5 43c-49.333 0 -93 -20.5 -131 -61.5s-61 -91.833 -69 -152.5
l1 -42v-552c0 -56.667 8.5 -95.334 25.5 -116.001s47.833 -31 92.5 -31v-43c-130.667 5.33301 -216.667 8 -258 8s-126 -2.66699 -254 -8v43c36.667 0 62.334 10.5 77.001 31.5s22 59.5 22 115.5v637c0 57.333 -7.5 100.166 -22.5 128.499s-44.167 42.5 -87.5 42.5
c-55.333 0 -102.333 -22.667 -141 -68s-58 -101.666 -58 -168.999v-571c0 -56.667 7.16699 -95.334 21.5 -116.001s39.833 -31 76.5 -31v-43c-122.667 5.33301 -203.334 8 -242.001 8c-44 0 -138 -2.66699 -282 -8z" />
    <glyph glyph-name="n" unicode="n" horiz-adv-x="1257" 
d="M50 0v42.999c48.667 0 82.667 10.5 102 31.5s29 59.5 29 115.5v646c0 63.333 -9.83301 109.333 -29.5 138s-53.5 43 -101.5 43v43c50 -4.66699 92.333 -7 127 -7c116 0 215.667 9.66699 299 29v-185c62 127.333 173.333 191 334 191c104 0 179.333 -26.667 226 -80
c22.667 -26 39 -59.667 49 -101s15 -96.333 15 -165v-552c0 -56 9.66699 -94.5 29 -115.5s53.333 -31.5 102 -31.5v-43c-138.667 5.33301 -228.667 8 -270 8c-44 0 -132.667 -2.66699 -266 -8v43c41.333 0 70 10.5 86 31.5s24 59.5 24 115.5v637c0 56 -9 98.5 -27 127.5
s-51 43.5 -99 43.5c-57.333 0 -105.5 -22.667 -144.5 -68s-58.5 -101.666 -58.5 -168.999v-571c0 -56 8 -94.5 24 -115.5s44.667 -31.5 86 -31.5v-43c-128 5.33301 -212.667 8 -254 8c-44 0 -138 -2.66699 -282 -8z" />
    <glyph glyph-name="o" unicode="o" horiz-adv-x="1157" 
d="M77 529c0 98.667 12.166 184.5 36.499 257.5s59.166 131.167 104.499 174.5s97.833 75.333 157.5 96s127.167 31 202.5 31c76 0 143.833 -10.333 203.5 -31s112.167 -52.667 157.5 -96s80.166 -101.5 104.499 -174.5s36.5 -158.833 36.5 -257.5
c0 -99.333 -12.167 -185.333 -36.5 -258s-59.166 -130.667 -104.499 -174s-97.833 -75.166 -157.5 -95.499s-127.5 -30.5 -203.5 -30.5s-143.667 10.167 -203 30.5s-111.666 52.166 -156.999 95.499s-80.166 101.333 -104.499 174s-36.5 158.667 -36.5 258zM385.999 529
c0 -175.333 17.333 -305.333 52 -390s81.334 -127 140.001 -127c59.333 0 106.333 42.333 141 127s52 214.667 52 390s-17.333 305.5 -52 390.5s-81.667 127.5 -141 127.5c-58.667 0 -105.334 -42.5 -140.001 -127.5s-52 -215.167 -52 -390.5z" />
    <glyph glyph-name="p" unicode="p" horiz-adv-x="1228" 
d="M40 1015l0.00292969 43c43.333 -4 85.666 -6 126.999 -6c121.333 0 221 9.66699 299 29v-192c28 64.667 69.667 114 125 148s119.666 51 192.999 51c108.667 0 196.834 -44 264.501 -132s101.5 -214.333 101.5 -379c0 -195.333 -42.333 -345.166 -127 -449.499
s-200.334 -156.5 -347.001 -156.5c-88 0 -158 22 -210 66v-205c0 -60 15.167 -101.667 45.5 -125s76.5 -35 138.5 -35v-43c-206.667 6 -321.334 9 -344.001 9c-18.667 0 -104.667 -3 -258 -9v43c46 0 78 10 96 30s27 56.667 27 110v1023
c0 63.333 -9.83301 109.166 -29.5 137.499s-53.5 42.5 -101.5 42.5zM466.003 82c31.333 -36.667 74.667 -55 130 -55c87.333 0 150 43.5 188 130.5s57 213.5 57 379.5c0 112.667 -7.5 204 -22.5 274s-35.167 119 -60.5 147s-56.666 42 -93.999 42
c-46.667 0 -88.334 -16 -125.001 -48s-61 -76.333 -73 -133v-737z" />
    <glyph glyph-name="q" unicode="q" horiz-adv-x="1198" 
d="M77 534c0 180 40.668 317.333 122.001 412s190 142 326 142c111.333 0 196 -28 254 -84h15c43.333 0 86.666 7.33301 129.999 22c48.667 16.667 87 38.667 115 66l31 -18c-9.33301 -28 -14 -66.333 -14 -115v-1147c0 -53.333 9 -90 27 -110s49.667 -30 95 -30v-43
c-150 6 -236 9 -258 9c-19.333 0 -134 -3 -344 -9v43c62 0 108.333 11.667 139 35s46 65 46 125v330c-48 -127.333 -136.333 -191 -265 -191c-124.667 0 -225.667 47.167 -303 141.5s-116 234.833 -116 421.5zM386.001 530c0 -166.667 16.832 -286.667 50.499 -360
s81.834 -110 144.501 -110c42 0 80 15.833 114 47.5s56 74.5 66 128.5v745c-40 42.667 -93.333 64 -160 64c-143.333 0 -215 -171.667 -215 -515z" />
    <glyph glyph-name="r" unicode="r" horiz-adv-x="956" 
d="M50 0v42.998c48.667 0 82.667 10.5 102 31.5s29 59.5 29 115.5v646c0 63.333 -9.83301 109.333 -29.5 138s-53.5 43 -101.5 43v43c50 -4.66699 92.333 -7 127 -7c116 0 215.667 9.66699 299 29v-191c26 58 63.167 105.333 111.5 142s103.5 55 165.5 55
s108.667 -18.667 140 -56s47 -81.666 47 -132.999c0 -50.667 -14.5 -92 -43.5 -124s-67.5 -48 -115.5 -48c-47.333 0 -84.666 11.833 -111.999 35.5s-41 55.834 -41 96.501c0 65.333 30 118 90 158c-8.66699 3.33301 -17.667 5 -27 5c-8 0 -17.667 -1.66699 -29 -5
c-52 -8.66699 -96 -40.334 -132 -95.001s-54 -111 -54 -169v-542c0 -63.333 15.167 -107.166 45.5 -131.499s79.166 -36.5 146.499 -36.5v-43c-168 5.33301 -276.333 8 -325 8c-46 0 -143.667 -2.66699 -293 -8z" />
    <glyph glyph-name="s" unicode="s" horiz-adv-x="945" 
d="M93 -14c5.33301 78 8.00293 214.334 8.00293 409.001h44c28 -251.333 120 -377 276 -377c40 0 74 12.167 102 36.5s42 60.833 42 109.5c0 19.333 -2 37.666 -6 54.999s-11.5 34.5 -22.5 51.5s-20.833 31.167 -29.5 42.5s-23.334 26.166 -44.001 44.499
s-36.5 31.833 -47.5 40.5l-57.5 45l-57.5 45.5l-51 42.5c-23.667 20 -40.334 35.833 -50.001 47.5l-38.5 47.5c-16 20 -27.167 38.333 -33.5 55s-12.333 35.834 -18 57.501s-8.5 44.167 -8.5 67.5c0 87.333 34.167 156.166 102.5 206.499s151.5 75.5 249.5 75.5
c52 0 99.667 -6.5 143 -19.5s77.333 -27.5 102 -43.5c14.667 -9.33301 27 -14 37 -14c25.333 0 41.333 25 48 75h44c-6 -66.667 -9 -186.667 -9 -360h-43c-6 41.333 -14.667 79.333 -26 114s-27 68 -47 100s-46.167 57.167 -78.5 75.5s-69.5 27.5 -111.5 27.5
c-40.667 0 -74 -11.833 -100 -35.5s-39 -55.834 -39 -96.501c0 -20 3.66699 -39.5 11 -58.5s15.666 -35.167 24.999 -48.5s24 -29 44 -47s36.333 -31.833 49 -41.5l61.5 -45l61.5 -44.5c32.667 -24 59 -44 79 -60s41.833 -35.833 65.5 -59.5s41.834 -46.167 54.501 -67.5
s23.5 -46.166 32.5 -74.499s13.5 -58.166 13.5 -89.499c0 -91.333 -37.5 -164.833 -112.5 -220.5s-166.833 -83.5 -275.5 -83.5c-75.333 0 -139.333 14.333 -192 43c-44.667 22.667 -76.334 37 -95.001 43c-4 1.33301 -7 2 -9 2c-22 0 -38.667 -24.333 -50 -73h-43z" />
    <glyph glyph-name="t" unicode="t" horiz-adv-x="720" 
d="M-2 1017l-0.000976562 40.999h172v271c117.333 1.33301 215.666 23.333 294.999 66v-337h242v-41h-242v-826c0 -40.667 7.33301 -69.834 22 -87.501s37.334 -26.5 68.001 -26.5c57.333 0 104 41 140 123l34 -19c-51.333 -140 -144.666 -210 -279.999 -210
c-90.667 0 -159 23 -205 69c-28.667 28.667 -48.167 64.834 -58.5 108.501s-15.5 102.834 -15.5 177.501v691h-172z" />
    <glyph glyph-name="u" unicode="u" horiz-adv-x="1240" 
d="M27 1017l0.000976562 43c50 -4.66699 92.333 -7 127 -7c116 0 215.667 9.66699 299 29v-849c0 -56.667 8.5 -99.5 25.5 -128.5s49.167 -43.5 96.5 -43.5c55.333 0 102.333 22.833 141 68.5s58 101.834 58 168.501v538c0 63.333 -9.83301 109.333 -29.5 138
s-53.5 43 -101.5 43v43c50 -4.66699 92.333 -7 127 -7c117.333 0 217 9.66699 299 29v-860c0 -62.667 9.83301 -108.334 29.5 -137.001s53.5 -43 101.5 -43v-43c-42.667 4 -85 6 -127 6c-120 0 -219.667 -9.33301 -299 -28v185c-62 -127.333 -172 -191 -330 -191
c-100.667 0 -175.334 27 -224.001 81c-41.333 46.667 -62 135 -62 265v519c0 63.333 -9.83301 109.333 -29.5 138s-53.5 43 -101.5 43z" />
    <glyph glyph-name="v" unicode="v" horiz-adv-x="1040" 
d="M-19 1017l0.00195312 42.999c91.333 -7.33301 188.333 -11 291 -11c91.333 0 180 3.66699 266 11v-43h-34c-6.66699 0 -16.334 -0.5 -29.001 -1.5s-21.834 -2.83301 -27.501 -5.5s-12 -6 -19 -10s-11.833 -9.5 -14.5 -16.5s-4 -15.5 -4 -25.5
c0 -14.667 3.33301 -32 10 -52l235 -622l147 407c21.333 63.333 32 117.666 32 162.999c0 102 -50 156.333 -150 163v43c56 -5.33301 121.667 -8 197 -8c73.333 0 125.666 2.66699 156.999 8v-43c-28 -7.33301 -53.333 -24.166 -76 -50.499s-44 -68.166 -64 -125.499
l-300 -845c-22 2 -44.333 3 -67 3c-21.333 0 -43.666 -1 -66.999 -3l-364 906c-31.333 76.667 -71 115 -119 115z" />
    <glyph glyph-name="w" unicode="w" horiz-adv-x="1611" 
d="M-14 1017l0.000976562 42.9971c84 -8.66699 181 -13 291 -13c76.667 0 165.667 4.33301 267 13v-43c-18 0 -32.333 -0.166992 -43 -0.5s-22.167 -1.66602 -34.5 -3.99902s-21.833 -5.66602 -28.5 -9.99902s-12.167 -10.333 -16.5 -18s-6.5 -17.167 -6.5 -28.5
c0 -13.333 3.66699 -31.666 11 -54.999l185 -580l222 741h1c22.667 -2 46 -3 70 -3c26.667 0 53 1 79 3l266 -782l130 411c18 58 27 109.333 27 154c0 106 -53.333 163.333 -160 172v43c56 -5.33301 126 -8 210 -8c72.667 0 125 2.66699 157 8v-43
c-29.333 -7.33301 -55.5 -24 -78.5 -50s-43.833 -68 -62.5 -126l-272 -845c-22 2 -44.333 3 -67 3c-22 0 -44 -1 -66 -3l-278 760l-227 -760c-22 2 -44 3 -66 3c-22.667 0 -45 -1 -67 -3l-324 906c-28.667 76.667 -68.334 115 -119.001 115z" />
    <glyph glyph-name="x" unicode="x" horiz-adv-x="1097" 
d="M18 1017l-0.00195312 43.0029c138 -6 219 -9 243 -9c26.667 0 107.334 3 242.001 9v-43c-20.667 0 -37.334 -3.66699 -50.001 -11s-19 -17.333 -19 -30c0 -8.66699 3.33301 -18.334 10 -29.001l194 -288l78 103c46.667 60.667 70 113 70 157
c0 28.667 -10.5 51.667 -31.5 69s-51.833 27.666 -92.5 30.999v41c92 -4.66699 169.333 -7 232 -7c50.667 0 98.667 2.33301 144 7v-41c-56.667 -18.667 -119 -71.334 -187 -158.001l-190 -237l322 -479c14.667 -21.333 26.334 -37.166 35.001 -47.499
s20.334 -21.333 35.001 -33s29.667 -18.834 45 -21.501v-43c-112 5.33301 -185 8 -219 8c-42 0 -131 -2.66699 -267 -8v43c20.667 0 37.5 3.66699 50.5 11s19.5 17.333 19.5 30c0 8.66699 -3.33301 18.334 -10 29.001l-214 318l-71 -92c-46 -60 -69 -114.333 -69 -163
c0 -38 13.333 -69.167 40 -93.5s63 -38.166 109 -41.499v-41c-80 4 -178 6 -294 6c-56.667 0 -105 -2 -145 -6v41c31.333 11.333 61.5 29.166 90.5 53.499s61.5 59.166 97.5 104.499l218 268l-302 447c-23.333 35.333 -42.833 60.333 -58.5 75s-34.167 24 -55.5 28z" />
    <glyph glyph-name="y" unicode="y" horiz-adv-x="1063" 
d="M-28 1017l0.00390625 43.001c86 -8.66699 179.667 -13 281 -13c88 0 182.667 4.33301 284 13v-43c-21.333 0 -37.833 -0.333008 -49.5 -1s-24.834 -2.83398 -39.501 -6.50098s-25.167 -9.66699 -31.5 -18s-9.5 -19.166 -9.5 -32.499c0 -14.667 5 -34 15 -58l251 -605
l141 395c22 64.667 33 119 33 163c0 51.333 -13.333 90.5 -40 117.5s-64 42.167 -112 45.5v43c56 -5.33301 122 -8 198 -8c72.667 0 125 2.66699 157 8v-43c-58 -14.667 -105 -73.334 -141 -176.001l-288 -809l-79 -220c-24.667 -68 -54.334 -116.667 -89.001 -146
c-40.667 -34 -100.334 -51 -179.001 -51c-56.667 0 -107.834 14 -153.501 42s-68.5 69 -68.5 123c0 42 14.833 75.5 44.5 100.5s69.167 37.5 118.5 37.5c46.667 0 83.834 -11.167 111.501 -33.5s41.5 -54.5 41.5 -96.5c0 -28 -8.83301 -54 -26.5 -78
s-42.834 -41.667 -75.501 -53c9.33301 -2.66699 25 -4 47 -4c86.667 0 148.667 54.333 186 163l34 99l-434 987c-36 76.667 -78.333 115 -127 115z" />
    <glyph glyph-name="z" unicode="z" horiz-adv-x="970" 
d="M63 -10l512 1038h-115c-194 0 -300.333 -122.333 -319 -367h-43c0 194 -2.66699 329.333 -8 406c106 -6 237 -9 393 -9c118.667 0 260.667 3.66699 426 11l-512 -1038h107c88 0 162 28.833 222 86.5s95 150.834 105 279.501h43c0 -194.667 2.66699 -329.667 8 -405
c-110 5.33301 -241 8 -393 8c-134 0 -276 -3.33301 -426 -10z" />
    <glyph glyph-name="braceleft" unicode="{" horiz-adv-x="683" 
d="M36 594l0.000976562 37.0049h10c42.667 2.66699 74.834 19 96.501 49s37 79.167 46 147.5s13.5 168.5 13.5 300.5c0 121.333 14.667 216.166 44 284.499s75.666 117 138.999 146s151 43.5 263 43.5v-39c-44 -1.33301 -75.833 -11.5 -95.5 -30.5s-34 -58.333 -43 -118
s-13.5 -155.167 -13.5 -286.5c0 -71.333 -7.5 -134.833 -22.5 -190.5s-34.5 -101.5 -58.5 -137.5s-54.167 -67 -90.5 -93s-72.5 -45.833 -108.5 -59.5s-77 -25.5 -123 -35.5c46 -10 87 -21.833 123 -35.5s72.167 -33.667 108.5 -60s66.5 -57.333 90.5 -93
s43.5 -81.334 58.5 -137.001s22.5 -119.167 22.5 -190.5c0 -69.333 0.833008 -127 2.5 -173s5 -86 10 -120s10.667 -60.167 17 -78.5s15.833 -33 28.5 -44s25.834 -18 39.501 -21s31.834 -4.83301 54.501 -5.5v-39c-84.667 0 -154.334 7.33301 -209.001 22
s-100.334 40.5 -137.001 77.5s-62.5 86 -77.5 147s-22.5 139.167 -22.5 234.5c0 131.333 -4.5 231.166 -13.5 299.499s-24.333 117.666 -46 147.999s-53.834 47.166 -96.501 50.499h-10z" />
    <glyph glyph-name="bar" unicode="|" horiz-adv-x="519" 
d="M169 -399v2156h180v-2156h-180z" />
    <glyph glyph-name="braceright" unicode="}" horiz-adv-x="683" 
d="M35 -346c22.667 0.666992 40.835 2.49512 54.502 5.49512s26.834 10 39.501 21s22.167 25.667 28.5 44s12 44.5 17 78.5s8.33301 74 10 120s2.5 103.667 2.5 173c0 71.333 7.5 134.833 22.5 190.5s34.5 101.334 58.5 137.001s54.167 66.667 90.5 93s72.5 46.333 108.5 60
s77 25.5 123 35.5c-46 10 -87 21.833 -123 35.5s-72.167 33.5 -108.5 59.5s-66.5 57 -90.5 93s-43.5 81.833 -58.5 137.5s-22.5 119.167 -22.5 190.5c0 131.333 -4.5 226.833 -13.5 286.5s-23.333 99 -43 118s-51.5 29.167 -95.5 30.5v39c112 0 199.667 -14.5 263 -43.5
s109.666 -77.667 138.999 -146s44 -163.166 44 -284.499c0 -132 4.5 -232.167 13.5 -300.5s24.333 -117.5 46 -147.5s53.834 -46.333 96.501 -49h10v-37h-10c-42.667 -3.33301 -74.834 -20.166 -96.501 -50.499s-37 -79.666 -46 -147.999s-13.5 -168.166 -13.5 -299.499
c0 -95.333 -7.5 -173.5 -22.5 -234.5s-40.833 -110 -77.5 -147s-82.334 -62.833 -137.001 -77.5s-124.334 -22 -209.001 -22v39z" />
    <glyph glyph-name="asciitilde" unicode="~" horiz-adv-x="1368" 
d="M122 479c9.33301 95.333 44 172.166 104 230.499s130.333 87.5 211 87.5c48.667 0 99.334 -9.5 152.001 -28.5s98.334 -40 137.001 -63s83.5 -44 134.5 -63s99.5 -28.5 145.5 -28.5c101.333 0 171 48 209 144l36 -8c-9.33301 -95.333 -44 -172.166 -104 -230.499
s-130.333 -87.5 -211 -87.5c-48.667 0 -99.334 9.5 -152.001 28.5s-98.334 39.833 -137.001 62.5s-83.5 43.5 -134.5 62.5s-99.5 28.5 -145.5 28.5c-101.333 0 -171 -47.667 -209 -143z" />
    <glyph glyph-name="uni00A0" unicode="&#xa0;" horiz-adv-x="478" 
 />
    <glyph glyph-name="cent" unicode="&#xa2;" horiz-adv-x="1021" 
d="M66 524c0 168 41.165 300.502 123.498 397.502s191.5 151.833 327.5 164.5v364h45v-362h10c104.667 0 190.334 -21 257.001 -63c35.333 -21.333 63 -48.5 83 -81.5s30 -69.5 30 -109.5c0 -48.667 -15.167 -88.334 -45.5 -119.001s-69.166 -46 -116.499 -46
c-48.667 0 -87.167 13.833 -115.5 41.5s-42.5 64.5 -42.5 110.5c0 41.333 12.833 77 38.5 107s57.834 50.333 96.501 61c-10.667 14 -27.167 25.667 -49.5 35s-46.833 14 -73.5 14c-25.333 0 -49.333 -4.66699 -72 -14v-870c25.333 -9.33301 53.333 -14 84 -14
c111.333 0 200.666 55.667 267.999 167l36 -13c-12 -40 -28.5 -77.667 -49.5 -113s-47 -68.833 -78 -100.5s-68.833 -57.334 -113.5 -77.001s-93.667 -30.5 -147 -32.5v-342h-45v343c-134.667 5.33301 -243.5 54.333 -326.5 147s-124.5 227.667 -124.5 405zM374.998 553.002
c0 -192 47.333 -317.665 142 -376.998v822c-46 -36.667 -81.167 -93.834 -105.5 -171.501s-36.5 -168.834 -36.5 -273.501z" />
    <glyph glyph-name="sterling" unicode="&#xa3;" horiz-adv-x="1352" 
d="M67 4c0 21.333 16.833 44.668 50.5 70.001s76.167 44.333 127.5 57c13.333 38 21.833 78.5 25.5 121.5s5.5 106.167 5.5 189.5v86v80h-158v41h158v164h-158v41h158v45c0 405.333 172 608 516 608c95.333 0 170.333 -16.333 225 -49c66.667 -40 100 -92.667 100 -158
c0 -42 -13.833 -77 -41.5 -105s-62.5 -42 -104.5 -42c-43.333 0 -79 12.5 -107 37.5s-42 57.5 -42 97.5c0 35.333 9.5 66.333 28.5 93s45.167 46.334 78.5 59.001c-22.667 21.333 -62.667 32 -120 32c-40 0 -73.833 -7.5 -101.5 -22.5s-50 -35.5 -67 -61.5
s-30.333 -61.833 -40 -107.5s-16 -93.334 -19 -143.001s-4.5 -111.5 -4.5 -185.5v-98h248v-41h-248v-122c0 -18.667 -0.333008 -32.667 -1 -42h249v-41h-253c-4 -28.667 -10.833 -57.5 -20.5 -86.5s-18.834 -53.5 -27.501 -73.5s-23 -45.5 -43 -76.5s-35 -53.5 -45 -67.5
l-57.5 -77l-57.5 -76c106.667 88 209.334 132 308.001 132c54.667 0 122.834 -11.333 204.501 -34s147.167 -34 196.5 -34c42.667 0 76.167 11.167 100.5 33.5s36.5 50.166 36.5 83.499c0 40 -13.333 72.833 -40 98.5s-63.334 43.167 -110.001 52.5l9 33
c72 -12 133.667 -41.333 185 -88s77 -106.667 77 -180c0 -84 -26.333 -151.167 -79 -201.5s-129.334 -75.5 -230.001 -75.5c-52.667 0 -106 8.5 -160 25.5s-109.667 38 -167 63s-102.666 42.167 -135.999 51.5c-44 10.667 -77.667 16 -101 16c-38 0 -75.333 -7 -112 -21
c-58 -90 -121.333 -135 -190 -135c-30.667 0 -46 11 -46 33z" />
    <glyph glyph-name="yen" unicode="&#xa5;" horiz-adv-x="1388" 
d="M51 1408l0.000976562 43.002c80 -6.66699 160.667 -10 242 -10c126.667 0 255 3.33301 385 10v-43c-48.667 0 -86.667 -4.16699 -114 -12.5s-41 -24.5 -41 -48.5c0 -12.667 4.33301 -27.667 13 -45l312 -598l159 318c54 107.333 81 191.333 81 252
c0 87.333 -57 132.666 -171 135.999v41c93.333 -4 178.333 -6 255 -6c62.667 0 114.667 2 156 6v-41c-63.333 -24.667 -128.666 -103.334 -195.999 -236.001l-242 -480v-74h256v-41h-256v-164h256v-41h-256v-157c0 -38.667 1.66699 -68.5 5 -89.5
s11.166 -38.167 23.499 -51.5s27.5 -22.166 45.5 -26.499s44.333 -7.16602 79 -8.49902v-41c-72.667 4 -177.667 6 -315 6c-145.333 0 -251.333 -2 -318 -6v41c35.333 1.33301 62 4.16602 80 8.49902s33.167 13.166 45.5 26.499s20.166 30.333 23.499 51s5 50.667 5 90v157
h-256v41h256v150l-7 14h-249v41h226l-364 674c-42 76 -81.667 114 -119 114z" />
    <glyph glyph-name="dieresis" unicode="&#xa8;" horiz-adv-x="799" 
d="M12 1403c0 41.333 15.167 77.333 45.5 108s66.5 46 108.5 46c41.333 0 77.5 -15.5 108.5 -46.5s46.5 -66.833 46.5 -107.5c0 -42 -15.5 -78.333 -46.5 -109s-67.167 -46 -108.5 -46c-42.667 0 -79 15.167 -109 45.5s-45 66.833 -45 109.5zM478 1403
c0 41.333 15.167 77.333 45.5 108s66.5 46 108.5 46c41.333 0 77.5 -15.5 108.5 -46.5s46.5 -66.833 46.5 -107.5c0 -42 -15.5 -78.333 -46.5 -109s-67.167 -46 -108.5 -46c-42.667 0 -79 15.167 -109 45.5s-45 66.833 -45 109.5z" />
    <glyph glyph-name="copyright" unicode="&#xa9;" horiz-adv-x="1804" 
d="M87 786c0 110.667 21.5 216.334 64.5 317.001s100.833 187.5 173.5 260.5s159.334 131 260.001 174s206.334 64.5 317.001 64.5s216.334 -21.5 317.001 -64.5s187.334 -101 260.001 -174s130.5 -159.833 173.5 -260.5s64.5 -206.334 64.5 -317.001
s-21.5 -216.334 -64.5 -317.001s-100.833 -187.334 -173.5 -260.001s-159.334 -130.5 -260.001 -173.5s-206.334 -64.5 -317.001 -64.5s-216.334 21.5 -317.001 64.5s-187.334 100.833 -260.001 173.5s-130.5 159.334 -173.5 260.001s-64.5 206.334 -64.5 317.001zM169 786
c0 -135.333 32.667 -260.499 98 -375.499s154.166 -206 266.499 -273s235.166 -100.5 368.499 -100.5c99.333 0 194.333 19.833 285 59.5s168.667 93 234 160s117.333 146.667 156 239s58 189.166 58 290.499c0 102 -19.333 199.167 -58 291.5s-90.667 172 -156 239
s-143.333 120.333 -234 160s-185.667 59.5 -285 59.5c-133.333 0 -256.166 -33.5 -368.499 -100.5s-201.166 -158 -266.499 -273s-98 -240.5 -98 -376.5zM440 782.001c0 179.333 46.8369 318.166 140.504 416.499s216.167 147.5 367.5 147.5c106 0 192.667 -22 260 -66
c72 -45.333 108 -108 108 -188c0 -48 -15.167 -87.5 -45.5 -118.5s-68.833 -46.5 -115.5 -46.5c-48 0 -86.333 14.167 -115 42.5s-43 65.833 -43 112.5c0 40.667 12.833 75.834 38.5 105.501s57.834 49.167 96.501 58.5c-12.667 15.333 -32.5 28 -59.5 38
s-55.167 15 -84.5 15c-40 0 -75.667 -12.333 -107 -37c-42.667 -24 -75.167 -71 -97.5 -141s-33.5 -174 -33.5 -312c0 -82.667 7.66699 -154.167 23 -214.5s36.166 -106.833 62.499 -139.5s54.666 -56.5 84.999 -71.5s63.5 -22.5 99.5 -22.5c113.333 0 203 68 269 204
l36 -13c-12.667 -40.667 -29.834 -79.167 -51.501 -115.5s-48.834 -70.5 -81.501 -102.5s-72.5 -57.5 -119.5 -76.5s-98.5 -28.5 -154.5 -28.5c-68 0 -130.5 11 -187.5 33s-107.333 55 -151 99s-77.834 101.833 -102.501 173.5s-37 154.167 -37 247.5z" />
    <glyph glyph-name="guillemotleft" unicode="&#xab;" horiz-adv-x="1166" 
d="M53 517v24.998c110 68.667 210.167 148 300.5 238s178.5 193.667 264.5 311l31 -11c-32.667 -106.667 -75.5 -210.667 -128.5 -312s-106.833 -180 -161.5 -236c54 -56 107.667 -135.167 161 -237.5s96.333 -207.166 129 -314.499l-31 -11
c-85.333 116.667 -173.333 219.834 -264 309.501s-191 169.167 -301 238.5zM511 516.998l0.000976562 25.001c183.333 112 355 278.667 515 500l32 -11c-28.667 -98 -66 -192.5 -112 -283.5s-93 -162.833 -141 -215.5c47.333 -51.333 94.166 -123.333 140.499 -216
s83.833 -188.334 112.5 -287.001l-32 -11c-158 218.667 -329.667 385 -515 499z" />
    <glyph glyph-name="uni00AD" unicode="&#xad;" 
d="M123 469v170h739v-170h-739z" />
    <glyph glyph-name="registered" unicode="&#xae;" horiz-adv-x="1362" 
d="M109 1030c0 103.333 25.5 199 76.5 287s120.5 157.5 208.5 208.5s183.667 76.5 287 76.5s198.833 -25.5 286.5 -76.5s157 -120.5 208 -208.5s76.5 -183.667 76.5 -287s-25.5 -198.833 -76.5 -286.5s-120.333 -157 -208 -208s-183.167 -76.5 -286.5 -76.5
s-199 25.5 -287 76.5s-157.5 120.333 -208.5 208s-76.5 183.167 -76.5 286.5zM195 1030c0 -90.667 21.5 -174.834 64.5 -252.501s101.833 -139.334 176.5 -185.001s156.334 -68.5 245.001 -68.5c88 0 169.333 22.833 244 68.5s133.5 107.334 176.5 185.001
s64.5 161.834 64.5 252.501c0 91.333 -21.5 175.666 -64.5 252.999s-101.667 138.833 -176 184.5s-155.833 68.5 -244.5 68.5s-170.334 -22.833 -245.001 -68.5s-133.5 -107.167 -176.5 -184.5s-64.5 -161.666 -64.5 -252.999zM401 721l0.00195312 31.001
c20 2 33 7.33301 39 16s9 28.334 9 59.001v449c0 32 -3 52.5 -9 61.5s-19 14.5 -39 16.5v30c20 -1.33301 62.667 -2 128 -2c29.333 0 64.666 0.333008 105.999 1s64.666 1 69.999 1c166.667 0 250 -53.667 250 -161c0 -16.667 -3.16699 -32.834 -9.5 -48.501
s-16.833 -31.5 -31.5 -47.5s-36.5 -30.167 -65.5 -42.5s-63.833 -21.833 -104.5 -28.5c62.667 -6 106.834 -18.167 132.501 -36.5s42.167 -46.166 49.5 -83.499l30 -134c3.33301 -16.667 7.16602 -28.834 11.499 -36.501s10.833 -11.5 19.5 -11.5c9.33301 0 17 4 23 12
l16 -20c-21.333 -25.333 -57 -38 -107 -38c-43.333 0 -76.166 7.16699 -98.499 21.5s-36.5 36.833 -42.5 67.5l-30 149c-6.66699 34.667 -17.667 58.167 -33 70.5s-47.333 19.833 -96 22.5v-212c0 -30.667 3 -50.334 9 -59.001s18.667 -14 38 -16v-31
c-10 0 -29.833 0.333008 -59.5 1s-52.834 1 -69.501 1c-19.333 0 -44.833 -0.333008 -76.5 -1s-51.5 -1 -59.5 -1zM619.002 1073h25c92.667 0 139 46 139 138c0 95.333 -36.667 143 -110 143c-22 0 -36.5 -4 -43.5 -12s-10.5 -23.333 -10.5 -46v-223z" />
    <glyph glyph-name="acute" unicode="&#xb4;" horiz-adv-x="457" 
d="M41 1245c33.333 60 61.833 119.5 85.5 178.5l57.5 141c14.667 35 31.667 64.167 51 87.5c26 32 58.667 48 98 48c27.333 0 51 -8.66699 71 -26c24.667 -20 37 -46.333 37 -79c0 -30 -10.667 -58 -32 -84c-21.333 -26.667 -69 -66.667 -143 -120s-141.667 -108 -203 -164z
" />
    <glyph glyph-name="cedilla" unicode="&#xb8;" horiz-adv-x="467" 
d="M-7 -360l11.002 36.999c34 -6 64 -9 90 -9c40 0 75 6.83301 105 20.5s45 34.834 45 63.501c0 35.333 -23 53 -69 53c-32 0 -58.667 -4.66699 -80 -14l64 214h56l-43 -138c44 16 92.667 24 146 24c45.333 0 80.166 -9.83301 104.499 -29.5s36.5 -46.167 36.5 -79.5
c0 -37.333 -13.667 -68.833 -41 -94.5s-62 -44.167 -104 -55.5s-89.333 -17 -142 -17c-72.667 0 -132.334 8.33301 -179.001 25z" />
    <glyph glyph-name="guillemotright" unicode="&#xbb;" horiz-adv-x="1165" 
d="M108 28c28 97.333 65.167 191.499 111.5 282.499s93.5 162.833 141.5 215.5c-47.333 51.333 -94.333 123.5 -141 216.5s-84 188.833 -112 287.5l31 11c78 -106.667 158.5 -201.167 241.5 -283.5s174.5 -154.5 274.5 -216.5v-25
c-184.667 -113.333 -356.667 -279.666 -516 -498.999zM517 -21.001c32 106 74.5 209.333 127.5 310s107.167 179.667 162.5 237c-54.667 56 -108.667 135.333 -162 238s-96 207.667 -128 315l31 11c84.667 -116.667 172.5 -220.167 263.5 -310.5
s191.167 -169.833 300.5 -238.5v-25c-203.333 -127.333 -391.333 -310 -564 -548z" />
    <glyph glyph-name="circumflex" unicode="&#x2c6;" horiz-adv-x="823" 
d="M27 1278c75.333 44.667 145.498 102.998 210.498 174.998s116.833 147.333 155.5 226h37c37.333 -77.333 88.5 -152.166 153.5 -224.499s136.167 -131.166 213.5 -176.499l-17 -29c-78.667 19.333 -155.167 43 -229.5 71s-134.166 56.333 -179.499 85
c-37.333 -28.667 -85.666 -57.167 -144.999 -85.5s-120.333 -51.833 -183 -70.5z" />
    <glyph glyph-name="ring" unicode="&#x2da;" horiz-adv-x="539" 
d="M47 1434c0 58.667 21.667 106.333 65 143s95.333 55 156 55c62 0 114.833 -18.167 158.5 -54.5s65.5 -84.166 65.5 -143.499c0 -60.667 -21.833 -109.334 -65.5 -146.001s-96.5 -55 -158.5 -55c-60.667 0 -112.667 18.5 -156 55.5s-65 85.5 -65 145.5zM104 1432
c0 -49.333 16.5 -87.666 49.5 -114.999s71.167 -41 114.5 -41c44 0 82.667 13.667 116 41s50 65.666 50 114.999c0 48 -16.833 86.167 -50.5 114.5s-72.167 42.5 -115.5 42.5c-42.667 0 -80.667 -14.333 -114 -43s-50 -66.667 -50 -114z" />
    <glyph glyph-name="tilde" unicode="&#x2dc;" horiz-adv-x="842" 
d="M27 1325c21.333 96.667 54.6621 168.333 99.9951 215s97.333 70 156 70c30.667 0 59.334 -4.66699 86.001 -14s49.834 -20.666 69.501 -33.999l57.5 -39.5c18.667 -13 39.334 -24.167 62.001 -33.5s46.334 -14 71.001 -14c61.333 0 113.666 36 156.999 108l29 -14
c-21.333 -96.667 -54.666 -168.334 -99.999 -215.001s-96.666 -70 -153.999 -70c-37.333 0 -72.666 7.16699 -105.999 21.5s-60.333 30 -81 47s-45.334 32.667 -74.001 47s-57.667 21.5 -87 21.5c-61.333 0 -114 -36.667 -158 -110z" />
    <glyph glyph-name="afii10023" unicode="&#x401;" horiz-adv-x="1298" 
d="M69 0l-0.000976562 41.0029c34.667 1.33301 61 4.16602 79 8.49902s33.167 13.166 45.5 26.499s20.166 30.333 23.499 51s5 50.667 5 90v1016c0 38.667 -1.66699 68.5 -5 89.5s-11.166 38.167 -23.499 51.5s-27.5 22.166 -45.5 26.499s-44.333 7.16602 -79 8.49902v41
c148.667 -4 371 -6 667 -6c201.333 0 344 2 428 6c-9.33301 -112.667 -14 -213.667 -14 -303c0 -59.333 2 -105.666 6 -138.999h-47c-20 145.333 -56.667 247.5 -110 306.5s-128.666 88.5 -225.999 88.5h-84c-60 0 -98.5 -8.5 -115.5 -25.5s-25.5 -57.167 -25.5 -120.5v-507
h66c31.333 0 60 6 86 18s47.5 26.833 64.5 44.5s32.167 39.167 45.5 64.5s23.5 49.166 30.5 71.499s12.833 46.166 17.5 71.499h47c-4.66699 -68 -7 -132.333 -7 -193c0 -13.333 0.166992 -30.666 0.5 -51.999s0.5 -36.666 0.5 -45.999c0 -69.333 4 -166.333 12 -291h-47
c-26.667 180.667 -110 271 -250 271h-66v-516c0 -63.333 8.5 -103.5 25.5 -120.5s55.5 -25.5 115.5 -25.5h101c96.667 0 174.667 33.167 234 99.5s101.333 178.5 126 336.5h47c-4 -44 -6 -101.333 -6 -172c0 -111.333 4.66699 -215 14 -311c-92.667 4 -249 6 -469 6
c-296 0 -518.333 -2 -667 -6zM243.999 1723c0 41.333 15.333 77.5 46 108.5s67 46.5 109 46.5c40.667 0 76.5 -15.5 107.5 -46.5s46.5 -67.167 46.5 -108.5c0 -42 -15.333 -78.167 -46 -108.5s-66.667 -45.5 -108 -45.5c-42.667 0 -79.167 15 -109.5 45
s-45.5 66.333 -45.5 109zM734.999 1723c0 41.333 15.167 77.5 45.5 108.5s66.5 46.5 108.5 46.5c40.667 0 76.667 -15.667 108 -47s47 -67.333 47 -108c0 -42 -15.5 -78.167 -46.5 -108.5s-67.167 -45.5 -108.5 -45.5c-42.667 0 -79 15 -109 45s-45 66.333 -45 109z" />
    <glyph glyph-name="afii10051" unicode="&#x402;" horiz-adv-x="1846" 
d="M52 1450c123.333 -4 334.337 -5.99805 633.004 -5.99805c297.333 0 507.666 2 630.999 6c-10 -117.333 -15 -225.333 -15 -324c0 -65.333 2 -117 6 -155h-47c-35.333 147.333 -82 256.166 -140 326.499s-134 105.5 -228 105.5h-45v-689
c50.667 40.667 114 73.834 190 99.501s160.667 38.5 254 38.5c73.333 0 140.666 -9.33301 201.999 -28s115.333 -45.834 162 -81.501s83 -82.167 109 -139.5s39 -122.333 39 -195s-13.667 -137.334 -41 -194.001s-64.666 -102.334 -111.999 -137.001s-101.333 -61 -162 -79
s-126 -27 -196 -27c-58.667 0 -113.334 8.33301 -164.001 25s-93.5 44.167 -128.5 82.5s-52.5 84.166 -52.5 137.499c0 50.667 16.5 91 49.5 121s74.833 45 125.5 45c48 0 86.333 -13.667 115 -41s43 -64.666 43 -111.999c0 -45.333 -13.833 -83 -41.5 -113
s-66.167 -52 -115.5 -66c32 -24 73 -36 123 -36c77.333 0 137.666 32.167 180.999 96.5s65 160.5 65 288.5c0 59.333 -4.83301 111.333 -14.5 156s-26 85 -49 121s-55.333 63.333 -97 82s-92.167 28 -151.5 28c-66 0 -130.167 -11 -192.5 -33s-109.166 -49.333 -140.499 -82
v-694c-76.667 19.333 -176 29 -298 29c-84.667 0 -167 -2 -247 -6v41c48.667 0.666992 86 3 112 7s47.667 13.333 65 28s28.666 33.834 33.999 57.501s8 57.167 8 100.5v1169h-45c-98.667 0 -176.334 -33.833 -233.001 -101.5s-102 -186.167 -136 -355.5h-47
c4 38 6 90 6 156c0 102 -4.66699 218 -14 348z" />
    <glyph glyph-name="afii10052" unicode="&#x403;" horiz-adv-x="1172" 
d="M69 0l0.00195312 41.0029c34.667 1.33301 61 4.16602 79 8.49902s33.167 13.166 45.5 26.499s20.166 30.5 23.499 51.5s5 50.833 5 89.5v1016c0 39.333 -1.66699 69.333 -5 90s-11.166 37.667 -23.499 51s-27.5 22.166 -45.5 26.499s-44.333 7.16602 -79 8.49902v41
c148.667 -4 371 -6 667 -6c186 0 318 2 396 6c-10 -112.667 -15 -216.334 -15 -311.001c0 -68.667 2.33301 -120.667 7 -156h-48c-26 154.667 -66.5 263.334 -121.5 326.001s-131.833 94 -230.5 94h-35c-60 0 -98.5 -8.5 -115.5 -25.5s-25.5 -57.167 -25.5 -120.5v-1040
c0 -38.667 2.16699 -68.667 6.5 -90s13.833 -38.5 28.5 -51.5s32.667 -21.667 54 -26s52.333 -7.16602 93 -8.49902v-41c-78.667 4 -191.334 6 -338.001 6s-254.334 -2 -323.001 -6zM410.002 1606c54 44 103.001 88.832 147.001 134.499l105.5 109.5
c26.333 27.333 52.833 48 79.5 62c19.333 10.667 40.666 16 63.999 16c21.333 0 41.166 -5.16699 59.499 -15.5s32.5 -24.833 42.5 -43.5c7.33301 -14 11 -29.667 11 -47c0 -45.333 -22.667 -80.333 -68 -105c-30 -16.667 -89.167 -36.167 -177.5 -58.5
s-171.166 -48.166 -248.499 -77.499z" />
    <glyph glyph-name="afii10053" unicode="&#x404;" horiz-adv-x="1450" 
d="M88 713c0 150.667 30.6582 284.168 91.9912 400.501s147 206.333 257 270s235.333 95.5 376 95.5c81.333 0 150.666 -11.667 207.999 -35s113.333 -56 168 -98c14.667 -12 28 -18 40 -18c27.333 0 45 40.667 53 122h47c-5.33301 -80.667 -8 -221.334 -8 -422.001h-48
c-17.333 80.667 -35.666 140.667 -54.999 180s-52.333 78.333 -99 117c-66.667 67.333 -153 101 -259 101c-70.667 0 -133 -19.5 -187 -58.5s-96.667 -92.167 -128 -159.5s-54.666 -141.833 -69.999 -223.5s-23 -169.5 -23 -263.5c0 -28 0.333008 -49 1 -63
c22.667 79.333 55.5 139.833 98.5 181.5s89.5 62.5 139.5 62.5c32.667 0 65.834 -7.5 99.501 -22.5s62.5 -31.5 86.5 -49.5s51.667 -34.5 83 -49.5s61 -22.5 89 -22.5c29.333 0 57.5 9.83301 84.5 29.5s45.833 51.5 56.5 95.5l33 -10
c-16.667 -105.333 -47.667 -186 -93 -242s-97.333 -84 -156 -84c-33.333 0 -66.666 7.5 -99.999 22.5s-61.666 31.333 -84.999 49s-51 34 -83 49s-63.333 22.5 -94 22.5c-68.667 0 -120.334 -32.333 -155.001 -97c6.66699 -80.667 19.834 -154.667 39.501 -222
s45.834 -127.5 78.501 -180.5s74 -94.5 124 -124.5s106.333 -45 169 -45c46.667 0 92.834 8.5 138.501 25.5s84.5 41.5 116.5 73.5c50 38.667 84.833 87 104.5 145s34.834 141.667 45.501 251h48c0 -247.333 2.66699 -419.333 8 -516h-47
c-4 42.667 -9.83301 73.5 -17.5 92.5s-18.5 28.5 -32.5 28.5c-11.333 0 -25.666 -5.66699 -42.999 -17c-61.333 -43.333 -119.833 -76.333 -175.5 -99s-123.167 -34 -202.5 -34c-144.667 0 -271.167 29 -379.5 87s-192.666 143.167 -252.999 255.5s-90.5 245.5 -90.5 399.5z
" />
    <glyph glyph-name="afii10054" unicode="&#x405;" horiz-adv-x="1196" 
d="M112 -14c5.33301 85.333 8.00293 269.661 8.00293 552.994h47c3.33301 -57.333 10 -110.333 20 -159s24.5 -95.167 43.5 -139.5s42.167 -82.166 69.5 -113.499s61.5 -56.166 102.5 -74.499s86.833 -27.5 137.5 -27.5c74.667 0 135.667 19.667 183 59s71 96 71 170
c0 40.667 -7 78.167 -21 112.5s-36.333 67.333 -67 99s-61.834 59.5 -93.501 83.5s-73.5 52.667 -125.5 86l-82.5 53c-21 14 -45.833 31.833 -74.5 53.5s-51.667 41 -69 58s-36 37.5 -56 61.5s-35.333 47.667 -46 71s-19.5 49.5 -26.5 78.5s-10.5 59.5 -10.5 91.5
c0 62.667 12.5 118.334 37.5 167.001s59.167 87.834 102.5 117.501s92 52 146 67s111.667 22.5 173 22.5c50 0 95.333 -4.33301 136 -13s71.167 -17.667 91.5 -27s44.166 -22.333 71.499 -39c32 -19.333 55 -29 69 -29c12.667 0 22.334 7 29.001 21s12.334 37 17.001 69h47
c-7.33301 -84.667 -11 -240.334 -11 -467.001h-47c-3.33301 54.667 -13.333 107.5 -30 158.5s-38.834 97.333 -66.501 139s-63.334 75.167 -107.001 100.5s-91.834 38 -144.501 38c-66.667 0 -120.834 -18.833 -162.501 -56.5s-62.5 -88.5 -62.5 -152.5
c0 -16.667 1.5 -32.5 4.5 -47.5s6.16699 -28.5 9.5 -40.5s10 -25.167 20 -39.5l24 -35c6 -9 17.333 -20.833 34 -35.5l37.5 -33c8.33301 -7.33301 24.333 -19.166 48 -35.499l51 -35.5l60.5 -41l65 -43l112 -77c28 -20 58.833 -45.5 92.5 -76.5s59.334 -60.333 77.001 -88
s32.834 -60.5 45.501 -98.5s19 -78.667 19 -122c0 -86.667 -23.5 -160.667 -70.5 -222s-108 -106.166 -183 -134.499s-159.833 -42.5 -254.5 -42.5c-76 0 -139 6.83301 -189 20.5s-96.667 32.167 -140 55.5c-30.667 19.333 -54 29 -70 29
c-12.667 0 -22.334 -7.16699 -29.001 -21.5s-12 -37.166 -16 -68.499h-47z" />
    <glyph glyph-name="afii10055" unicode="&#x406;" horiz-adv-x="770" 
d="M69 0l0.000976562 41c34.667 1.33301 61 4.16602 79 8.49902s33.167 13.166 45.5 26.499s20.166 30.333 23.499 51s5 50.667 5 90v1016c0 38.667 -1.66699 68.5 -5 89.5s-11.166 38.167 -23.499 51.5s-27.5 22.166 -45.5 26.499s-44.333 7.16602 -79 8.49902v41
c68.667 -4 176.334 -6 323.001 -6c132.667 0 236 2 310 6v-41c-35.333 -1.33301 -62 -4.16602 -80 -8.49902s-33.167 -13.166 -45.5 -26.499s-20.166 -30.333 -23.499 -51s-5 -50.667 -5 -90v-1016c0 -38.667 1.66699 -68.5 5 -89.5s11.166 -38.167 23.499 -51.5
s27.666 -22.166 45.999 -26.499s44.833 -7.16602 79.5 -8.49902v-41c-74 4 -177.333 6 -310 6c-146.667 0 -254.334 -2 -323.001 -6z" />
    <glyph glyph-name="afii10056" unicode="&#x407;" horiz-adv-x="770" 
d="M-8 1723c0 41.333 15.333 77.5 46 108.5s67 46.5 109 46.5c40.667 0 76.5 -15.5 107.5 -46.5s46.5 -67.167 46.5 -108.5c0 -42 -15.333 -78.167 -46 -108.5s-66.667 -45.5 -108 -45.5c-42.667 0 -79.167 15 -109.5 45s-45.5 66.333 -45.5 109zM69 0l0.000976562 41
c34.667 1.33301 61 4.16602 79 8.49902s33.167 13.166 45.5 26.499s20.166 30.333 23.499 51s5 50.667 5 90v1016c0 38.667 -1.66699 68.5 -5 89.5s-11.166 38.167 -23.499 51.5s-27.5 22.166 -45.5 26.499s-44.333 7.16602 -79 8.49902v41c68.667 -4 176.334 -6 323.001 -6
c132.667 0 236 2 310 6v-41c-35.333 -1.33301 -62 -4.16602 -80 -8.49902s-33.167 -13.166 -45.5 -26.499s-20.166 -30.333 -23.499 -51s-5 -50.667 -5 -90v-1016c0 -38.667 1.66699 -68.5 5 -89.5s11.166 -38.167 23.499 -51.5s27.666 -22.166 45.999 -26.499
s44.833 -7.16602 79.5 -8.49902v-41c-74 4 -177.333 6 -310 6c-146.667 0 -254.334 -2 -323.001 -6zM483.001 1723c0 41.333 15.167 77.5 45.5 108.5s66.5 46.5 108.5 46.5c40.667 0 76.667 -15.667 108 -47s47 -67.333 47 -108c0 -42 -15.5 -78.167 -46.5 -108.5
s-67.167 -45.5 -108.5 -45.5c-42.667 0 -79 15 -109 45s-45 66.333 -45 109z" />
    <glyph glyph-name="afii10057" unicode="&#x408;" horiz-adv-x="746" 
d="M-323 -198c0 41.333 14.999 74.666 44.999 99.999s69.667 38 119 38c47.333 0 85 -11.667 113 -35s42 -56.666 42 -99.999c0 -30.667 -9 -58 -27 -82s-44 -41.333 -78 -52c15.333 -10 40 -15 74 -15c50 0 93 13.5 129 40.5s62 62.5 78 106.5
c17.333 50 28.166 106.333 32.499 169s6.5 171 6.5 325v936c0 38.667 -1.66699 68.5 -5 89.5s-11.166 38.167 -23.499 51.5s-27.5 22.166 -45.5 26.499s-44.333 7.16602 -79 8.49902v41c66.667 -4 170.334 -6 311.001 -6c138.667 0 246 2 322 6v-41
c-35.333 -1.33301 -62 -4.16602 -80 -8.49902s-33.167 -13.166 -45.5 -26.499s-20.166 -30.333 -23.499 -51s-5 -50.667 -5 -90v-750v-107c0 -204 -11.667 -346.333 -35 -427c-28.667 -98.667 -88.667 -179 -180 -241s-204 -93 -338 -93
c-86.667 0 -155.334 12.667 -206.001 38c-67.333 34 -101 83.667 -101 149z" />
    <glyph glyph-name="afii10058" unicode="&#x409;" horiz-adv-x="2014" 
d="M-28 161c0 52.667 17.667 95.1621 53 127.495s79.666 48.5 132.999 48.5c45.333 0 81.833 -11.333 109.5 -34s41.5 -53.667 41.5 -93c0 -48 -14.833 -88.167 -44.5 -120.5s-69.167 -55.166 -118.5 -68.499c13.333 -7.33301 30 -11 50 -11
c127.333 0 220.666 110.333 279.999 331c39.333 147.333 69 379.666 89 696.999l12 195c1.33301 22.667 2 38 2 46c0 50.667 -11.333 84.334 -34 101.001s-67.334 26.334 -134.001 29.001v41c58 -4 128.333 -6 211 -6c20.667 0 51 1 91 3s69.667 3 89 3
c34 0 81.5 -1 142.5 -3s111.167 -3 150.5 -3c140 0 246 2 318 6v-41c-37.333 -1.33301 -65.833 -4.16602 -85.5 -8.49902s-36.167 -13.166 -49.5 -26.499s-21.833 -30.5 -25.5 -51.5s-5.5 -50.833 -5.5 -89.5v-410h121c107.333 0 200.5 -10.333 279.5 -31
s140.833 -49.834 185.5 -87.501s77.334 -79.5 98.001 -125.5s31 -97 31 -153c0 -58.667 -10.5 -112.5 -31.5 -161.5s-52.833 -93 -95.5 -132s-99.834 -70.167 -171.501 -93.5s-155.167 -36.333 -250.5 -39h-6h-29c-44.667 0 -106.334 1.66699 -185.001 5l-114 1
c-147.333 0 -260.666 -2 -339.999 -6v41c40.667 1.33301 71.667 4.16602 93 8.49902s39.333 13 54 26s24.167 30.167 28.5 51.5s6.5 51.333 6.5 90v1016c0 72 -9.83301 119.333 -29.5 142s-56.834 34 -111.501 34h-14c-50.667 0 -85.667 -11.5 -105 -34.5
s-31.666 -70.167 -36.999 -141.5c-3.33301 -38.667 -7.16602 -89.167 -11.499 -151.5l-11.5 -165c-3.33301 -47.667 -8 -103.334 -14 -167.001s-12.167 -120 -18.5 -169s-15.166 -101.667 -26.499 -158s-23.833 -105.166 -37.5 -146.499s-30.5 -82.166 -50.5 -122.499
s-42.167 -73.166 -66.5 -98.499s-52.666 -45.666 -84.999 -60.999s-67.833 -23 -106.5 -23c-63.333 0 -116.5 17.667 -159.5 53s-64.5 81 -64.5 137zM1247 216.995c0 -71.333 9.16602 -117.499 27.499 -138.499s59.833 -33.167 124.5 -36.5
c83.333 4.66699 141.333 37.167 174 97.5s49 148.833 49 265.5c0 59.333 -4.5 110.666 -13.5 153.999s-24.167 82.5 -45.5 117.5s-51.666 61.5 -90.999 79.5s-87.333 27 -144 27h-81v-566z" />
    <glyph glyph-name="afii10059" unicode="&#x40a;" horiz-adv-x="2176" 
d="M69 0l-0.000976562 41.002c34.667 1.33301 61 4.16602 79 8.49902s33.167 13.166 45.5 26.499s20.166 30.333 23.499 51s5 50.667 5 90v1016c0 38.667 -1.66699 68.5 -5 89.5s-11.166 38.167 -23.499 51.5s-27.5 22.166 -45.5 26.499s-44.333 7.16602 -79 8.49902v41
c68.667 -4 176.334 -6 323.001 -6c132.667 0 236 2 310 6v-41c-35.333 -1.33301 -62 -4.16602 -80 -8.49902s-33.167 -13.166 -45.5 -26.499s-20.166 -30.333 -23.499 -51s-5 -50.667 -5 -90v-483h543v483c0 38.667 -1.66699 68.5 -5 89.5s-11.166 38.167 -23.499 51.5
s-27.666 22.166 -45.999 26.499s-44.833 7.16602 -79.5 8.49902v41c76 -4 183.333 -6 322 -6c140.667 0 244.334 2 311.001 6v-41c-35.333 -1.33301 -62 -4.16602 -80 -8.49902s-33.167 -13.166 -45.5 -26.499s-20.166 -30.333 -23.499 -51s-5 -50.667 -5 -90v-479h121
c86.667 0 164.167 -6.33301 232.5 -19s124.833 -30 169.5 -52s81.667 -48.667 111 -80s50.333 -64.5 63 -99.5s19 -72.833 19 -113.5c0 -53.333 -10.667 -102.5 -32 -147.5s-53.833 -85.667 -97.5 -122s-102.334 -65 -176.001 -86s-159.167 -32.5 -256.5 -34.5h-2h-21
c-53.333 0 -115 2 -185 6h-103c-138.667 0 -246 -2 -322 -6v41c35.333 1.33301 62 4.16602 80 8.49902s33.167 13.166 45.5 26.499s20.166 30.333 23.499 51s5 50.667 5 90v492h-543v-492c0 -38.667 1.66699 -68.5 5 -89.5s11.166 -38.167 23.499 -51.5
s27.666 -22.166 45.999 -26.499s44.833 -7.16602 79.5 -8.49902v-41c-74 4 -177.333 6 -310 6c-146.667 0 -254.334 -2 -323.001 -6zM1416 217.002c0 -72 9.00098 -118.5 27.001 -139.5s58 -33.167 120 -36.5c85.333 4 144.833 34 178.5 90s50.5 136.667 50.5 242
c0 53.333 -4.66699 99.833 -14 139.5s-25.333 75.167 -48 106.5s-54.334 55 -95.001 71s-90.667 24 -150 24h-69v-497z" />
    <glyph glyph-name="afii10060" unicode="&#x40b;" horiz-adv-x="1835" 
d="M52 1450c123.333 -4 334.338 -5.99902 633.005 -5.99902c297.333 0 507.666 2 630.999 6c-10 -126.667 -15 -242.667 -15 -348c0 -66 2 -118 6 -156h-47c-34 168.667 -79.333 287 -136 355s-134 102 -232 102h-45v-667c44.667 19.333 102.667 36.666 174 51.999
s144.333 23 219 23c126.667 0 227.667 -24 303 -72c46 -28.667 78 -65 96 -109s27 -103 27 -177v-247c0 -66.667 9.66699 -110.334 29 -131.001s59.333 -31.667 120 -33v-42c-101.333 4.66699 -206 7 -314 7c-100 0 -200.667 -2.33301 -302 -7v42
c57.333 1.33301 95.166 12.333 113.499 33s27.5 64.334 27.5 131.001v304c0 43.333 -2.33301 78.333 -7 105s-14 50.5 -28 71.5s-34.5 36 -61.5 45s-62.167 13.5 -105.5 13.5c-114.667 0 -211.667 -15.667 -291 -47v-464c0 -43.333 2.66699 -76.833 8 -100.5
s16.666 -42.834 33.999 -57.501s39 -24 65 -28s63.333 -6.33301 112 -7v-41c-116 4 -246 6 -390 6c-141.333 0 -266 -2 -374 -6v41c48.667 0.666992 86 3 112 7s47.667 13.333 65 28s28.666 33.834 33.999 57.501s8 57.167 8 100.5v1169h-45
c-98.667 0 -176.334 -33.833 -233.001 -101.5s-102 -186.167 -136 -355.5h-47c4 38 6 90 6 156c0 102 -4.66699 218 -14 348z" />
    <glyph glyph-name="afii10061" unicode="&#x40c;" horiz-adv-x="1477" 
d="M69 0l0.00195312 40.9961c34.667 1.33301 61 4.16602 79 8.49902s33.167 13.166 45.5 26.499s20.166 30.333 23.499 51s5 50.667 5 90v1016c0 38.667 -1.66699 68.5 -5 89.5s-11.166 38.167 -23.499 51.5s-27.5 22.166 -45.5 26.499s-44.333 7.16602 -79 8.49902v41
c68.667 -4 176.334 -6 323.001 -6c132.667 0 236 2 310 6v-41c-35.333 -1.33301 -62 -4.16602 -80 -8.49902s-33.167 -13.166 -45.5 -26.499s-20.166 -30.333 -23.499 -51s-5 -50.667 -5 -90v-459c54.667 2.66699 105.167 18.834 151.5 48.501
s98.166 76.834 155.499 141.501l120 146c63.333 75.333 95 138.666 95 189.999c0 34 -13.167 60.5 -39.5 79.5s-63.166 29.167 -110.499 30.5v40c98.667 -4 199 -6 301 -6c80.667 0 145.334 2 194.001 6v-40c-104.667 -22.667 -204 -87.667 -298 -195l-379 -444
c133.333 -8 236.833 -33.167 310.5 -75.5s121.167 -111.166 142.5 -206.499l60 -274c11.333 -55.333 23.666 -93.666 36.999 -114.999s33 -32 59 -32c27.333 0 54.666 15.667 81.999 47l28 -25c-36 -41.333 -75.5 -71.5 -118.5 -90.5s-94.167 -28.5 -153.5 -28.5
c-78.667 0 -140.667 16.5 -186 49.5s-75.666 90.5 -90.999 172.5l-54 312c-16.667 86.667 -43.834 147.334 -81.501 182.001s-103.167 52 -196.5 52h-28v-522c0 -38.667 1.66699 -68.5 5 -89.5s11.166 -38.167 23.499 -51.5s27.666 -22.166 45.999 -26.499
s44.833 -7.16602 79.5 -8.49902v-41c-74 4 -177.333 6 -310 6c-146.667 0 -254.334 -2 -323.001 -6zM667.002 1606c54 44 103.001 88.832 147.001 134.499l105.5 109.5c26.333 27.333 52.833 48 79.5 62c19.333 10.667 40.666 16 63.999 16
c21.333 0 41.166 -5.16699 59.499 -15.5s32.5 -24.833 42.5 -43.5c7.33301 -14 11 -29.667 11 -47c0 -45.333 -22.667 -80.333 -68 -105c-30 -16.667 -89.167 -36.167 -177.5 -58.5s-171.166 -48.166 -248.499 -77.499z" />
    <glyph glyph-name="afii10062" unicode="&#x40e;" horiz-adv-x="1351" 
d="M-20 1408v42.0039c54 -4 144.333 -6 271 -6c160.667 0 269.667 2 327 6v-42c-70 -2.66699 -105 -29 -105 -79c0 -23.333 7.66699 -51.333 23 -84l362 -642l208 418c52 104.667 78 187.667 78 249c0 89.333 -58 135.666 -174 138.999v41c93.333 -4 178.666 -6 255.999 -6
c62.667 0 114.667 2 156 6v-41c-30 -11.333 -60.167 -35.333 -90.5 -72s-65.166 -91.334 -104.499 -164.001l-403 -811l-97 -194c-30.667 -62.667 -60.667 -108.334 -90 -137.001c-40 -40 -97 -60 -171 -60c-69.333 0 -124.5 16 -165.5 48s-61.5 73 -61.5 123
c0 48 17.5 86.667 52.5 116s78.167 44 129.5 44c53.333 0 95.833 -11.333 127.5 -34s47.5 -54.334 47.5 -95.001c0 -37.333 -12.5 -69.166 -37.5 -95.499s-57.833 -45.833 -98.5 -58.5c7.33301 -4.66699 20.666 -7 39.999 -7c72.667 0 134.334 53 185.001 159l48 99
l-578 1014c-45.333 77.333 -90.333 118.666 -135 123.999zM214 1800c0 38.667 14.999 71.001 44.999 97.001s68.667 39 116 39c48 0 87.667 -12.833 119 -38.5s47 -58.5 47 -98.5c0 -34.667 -11.667 -63.334 -35 -86.001s-53.666 -38.334 -90.999 -47.001
c70 -32 163.667 -48 281 -48c116 0 209 16.333 279 49c-38 9.33301 -68 25.333 -90 48s-33 50.667 -33 84c0 40 15.5 72.833 46.5 98.5s70.167 38.5 117.5 38.5c46.667 0 85.5 -12.833 116.5 -38.5s46.5 -58.167 46.5 -97.5c0 -59.333 -41 -109.666 -123 -150.999
c-93.333 -48 -213.333 -72 -360 -72c-148 0 -268.667 24 -362 72c-80 40.667 -120 91 -120 151z" />
    <glyph glyph-name="afii10145" unicode="&#x40f;" horiz-adv-x="1639" 
d="M69 0l-0.00390625 41.001c34.667 1.33301 61 4.16602 79 8.49902s33.167 13.166 45.5 26.499s20.166 30.5 23.499 51.5s5 50.833 5 89.5v1016c0 38.667 -1.66699 68.5 -5 89.5s-11.166 38.167 -23.499 51.5s-27.5 22.166 -45.5 26.499s-44.333 7.16602 -79 8.49902v41
c68.667 -4 176.334 -6 323.001 -6c132.667 0 236 2 310 6v-41c-34.667 -1.33301 -61.167 -4.16602 -79.5 -8.49902s-33.666 -13.166 -45.999 -26.499s-20.166 -30.5 -23.499 -51.5s-5 -50.833 -5 -89.5v-1016c0 -74 10.167 -121.833 30.5 -143.5s65.5 -32.5 135.5 -32.5h211
c70 0 115.167 10.833 135.5 32.5s30.5 69.5 30.5 143.5v1016c0 38.667 -1.66699 68.5 -5 89.5s-11.166 38.167 -23.499 51.5s-27.666 22.166 -45.999 26.499s-44.833 7.16602 -79.5 8.49902v41c73.333 -4 176.333 -6 309 -6c146 0 254 2 324 6v-41
c-45.333 -2 -78.166 -7.33301 -98.499 -16s-34.666 -24.667 -42.999 -48s-12.5 -60.666 -12.5 -111.999v-1016c0 -51.333 4.16699 -88.666 12.5 -111.999s22.666 -39.333 42.999 -48s53.166 -14 98.499 -16v-41c-70 4 -178 6 -324 6h-75l7 -1
c-94.667 0 -170.167 -28.167 -226.5 -84.5s-91.5 -149.166 -105.5 -278.499h-47c-14 130 -49 223 -105 279s-131.667 84 -227 84l6 1h-81c-146.667 0 -254.334 -2 -323.001 -6z" />
    <glyph glyph-name="afii10017" unicode="&#x410;" horiz-adv-x="1366" 
d="M-32 0l0.000976562 40.9951c68.667 12.667 128 84.334 178 215.001l466 1198c22 -2 45.667 -3 71 -3s49 1 71 3l497 -1282c17.333 -45.333 37.5 -78.166 60.5 -98.499s45.833 -31.166 68.5 -32.499v-41c-81.333 4 -185 6 -311 6c-140 0 -244 -2 -312 -6v41
c51.333 2 88.166 8.33301 110.499 19s33.5 29.334 33.5 56.001c0 24 -8 56.333 -24 97l-123 336h-445l-55 -142c-37.333 -96 -56 -171.667 -56 -227c0 -50.667 15.167 -86.167 45.5 -106.5s75.833 -31.166 136.5 -32.499v-41c-93.333 4 -178.333 6 -255 6
c-64 0 -116.333 -2 -157 -6zM324.001 589.995h415l-203 551z" />
    <glyph glyph-name="afii10018" unicode="&#x411;" horiz-adv-x="1328" 
d="M69 0l0.000976562 41.0029c34.667 1.33301 61 4.16602 79 8.49902s33.167 13.166 45.5 26.499s20.166 30.5 23.499 51.5s5 50.833 5 89.5v1016c0 39.333 -1.66699 69.333 -5 90s-11.166 37.667 -23.499 51s-27.5 22.166 -45.5 26.499s-44.333 7.16602 -79 8.49902v41
c148.667 -4 371 -6 667 -6c189.333 0 324 2 404 6c-9.33301 -112.667 -14 -213.667 -14 -303c0 -59.333 2 -105.666 6 -138.999h-47c-26 145.333 -65.667 247.5 -119 306.5s-125.666 88.5 -216.999 88.5h-60c-60 0 -98.5 -8.5 -115.5 -25.5s-25.5 -57.167 -25.5 -120.5v-395
l121 1c86.667 0 164.167 -8 232.5 -24s124.833 -37.333 169.5 -64s81.667 -58.667 111 -96s50.166 -76.5 62.499 -117.5s18.5 -84.833 18.5 -131.5c0 -48 -6.83301 -93 -20.5 -135s-35.5 -81.167 -65.5 -117.5s-67.333 -67.5 -112 -93.5s-99.834 -46.333 -165.501 -61
s-139.167 -22 -220.5 -22c-15.333 0 -56.5 0.833008 -123.5 2.5s-129.167 2.5 -186.5 2.5c-131.333 0 -231.333 -2 -300 -6zM548.001 217.003c0 -70.667 7.33301 -117.665 22 -140.998s46.667 -35 96 -35c96 0 162.833 31.833 200.5 95.5s56.5 158.5 56.5 284.5
c0 50.667 -2.66699 95.667 -8 135s-14.833 76.166 -28.5 110.499s-31.5 62.666 -53.5 84.999s-50 39.833 -84 52.5s-74 19 -120 19h-81v-606z" />
    <glyph glyph-name="afii10019" unicode="&#x412;" horiz-adv-x="1375" 
d="M69 0v41.0029c34.667 1.33301 61 4.16602 79 8.49902s33.167 13.166 45.5 26.499s20.166 30.333 23.499 51s5 50.667 5 90v1016c0 38.667 -1.66699 68.5 -5 89.5s-11.166 38.167 -23.499 51.5s-27.5 22.166 -45.5 26.499s-44.333 7.16602 -79 8.49902v41
c68.667 -4 172.334 -6 311.001 -6c51.333 0 115.166 0.666992 191.499 2s119.833 2 130.5 2c164 0 289.333 -29.167 376 -87.5s130 -136.5 130 -234.5c0 -37.333 -8.16699 -74.166 -24.5 -110.499s-40.5 -71 -72.5 -104s-74.833 -62.333 -128.5 -88
s-114.834 -44.834 -183.501 -57.501v-4c92 -6.66699 172.333 -21.667 241 -45s122.334 -52.166 161.001 -86.499s67.167 -71 85.5 -110s27.5 -80.167 27.5 -123.5c0 -127.333 -49.833 -225.333 -149.5 -294s-238.167 -103 -415.5 -103c-12 0 -59 1 -141 3s-156.667 3 -224 3
c-141.333 0 -246.333 -2 -315 -6zM548 217.003c0 -71.333 8.83203 -117.5 26.499 -138.5s55.834 -31.5 114.501 -31.5c190 0 285 119.667 285 359c0 107.333 -27.167 189 -81.5 245s-140.5 84 -258.5 84h-86v-518zM547.999 770.003l88.001 0.000976562
c46.667 0 86.167 8.83301 118.5 26.5s57 42.667 74 75s29.167 67.166 36.5 104.499s11 80 11 128c0 102.667 -15.833 179.167 -47.5 229.5s-82.834 75.5 -153.501 75.5c-52 0 -86.167 -11.5 -102.5 -34.5s-24.5 -70.167 -24.5 -141.5v-463z" />
    <glyph glyph-name="afii10020" unicode="&#x413;" horiz-adv-x="1172" 
d="M69 0l0.00195312 41.0029c34.667 1.33301 61 4.16602 79 8.49902s33.167 13.166 45.5 26.499s20.166 30.5 23.499 51.5s5 50.833 5 89.5v1016c0 39.333 -1.66699 69.333 -5 90s-11.166 37.667 -23.499 51s-27.5 22.166 -45.5 26.499s-44.333 7.16602 -79 8.49902v41
c148.667 -4 371 -6 667 -6c186 0 318 2 396 6c-10 -112.667 -15 -216.334 -15 -311.001c0 -68.667 2.33301 -120.667 7 -156h-48c-26 154.667 -66.5 263.334 -121.5 326.001s-131.833 94 -230.5 94h-35c-60 0 -98.5 -8.5 -115.5 -25.5s-25.5 -57.167 -25.5 -120.5v-1040
c0 -38.667 2.16699 -68.667 6.5 -90s13.833 -38.5 28.5 -51.5s32.667 -21.667 54 -26s52.333 -7.16602 93 -8.49902v-41c-78.667 4 -191.334 6 -338.001 6s-254.334 -2 -323.001 -6z" />
    <glyph glyph-name="afii10021" unicode="&#x414;" horiz-adv-x="1336" 
d="M4 41l37.001 -0.00390625c126.667 0 219.334 107.667 278.001 323c39.333 142.667 69.333 367.334 90 674.001c1.33301 24 5.33301 89 12 195c1.33301 22.667 2 38 2 46c0 50.667 -11.333 84.334 -34 101.001s-67 26.334 -133 29.001v41c57.333 -4 127.666 -6 210.999 -6
c20.667 0 50.834 1 90.501 3s69.5 3 89.5 3c33.333 0 80.5 -1 141.5 -3s111.5 -3 151.5 -3c139.333 0 245 2 317 6v-41c-49.333 -2 -84.833 -7.33301 -106.5 -16s-37 -24.667 -46 -48s-13.5 -60.666 -13.5 -111.999v-1016c0 -74.667 9.33301 -122.667 28 -144
s60.667 -32 126 -32h62c-9.33301 -98.667 -14 -187.334 -14 -266.001c0 -55.333 2 -99.666 6 -132.999h-47c-20.667 131.333 -58.834 223.833 -114.501 277.5s-133.5 80.5 -233.5 80.5h-497c-100 0 -177.833 -26.833 -233.5 -80.5s-93.834 -146.167 -114.501 -277.5h-47
c4 33.333 6 77.666 6 132.999c0 78.667 -4.66699 167.334 -14 266.001zM179.001 40.9961l421 -0.00390625c70 0 115.167 10.833 135.5 32.5s30.5 69.5 30.5 143.5v1016c0 72 -10 119.333 -30 142s-57.333 34 -112 34h-26c-45.333 0 -77 -11.667 -95 -35
s-29.333 -70.333 -34 -141c-3.33301 -39.333 -7.5 -92.333 -12.5 -159l-13 -175.5c-3.66699 -50.333 -9 -108.833 -16 -175.5s-14.5 -125.667 -22.5 -177s-18.833 -105.166 -32.5 -161.499s-29 -105.166 -46 -146.499s-38.167 -79.666 -63.5 -114.999
s-53.333 -62.666 -84 -81.999z" />
    <glyph glyph-name="afii10022" unicode="&#x415;" horiz-adv-x="1298" 
d="M69 0l-0.000976562 41.0029c34.667 1.33301 61 4.16602 79 8.49902s33.167 13.166 45.5 26.499s20.166 30.333 23.499 51s5 50.667 5 90v1016c0 38.667 -1.66699 68.5 -5 89.5s-11.166 38.167 -23.499 51.5s-27.5 22.166 -45.5 26.499s-44.333 7.16602 -79 8.49902v41
c148.667 -4 371 -6 667 -6c201.333 0 344 2 428 6c-9.33301 -112.667 -14 -213.667 -14 -303c0 -59.333 2 -105.666 6 -138.999h-47c-20 145.333 -56.667 247.5 -110 306.5s-128.666 88.5 -225.999 88.5h-84c-60 0 -98.5 -8.5 -115.5 -25.5s-25.5 -57.167 -25.5 -120.5v-507
h66c31.333 0 60 6 86 18s47.5 26.833 64.5 44.5s32.167 39.167 45.5 64.5s23.5 49.166 30.5 71.499s12.833 46.166 17.5 71.499h47c-4.66699 -68 -7 -132.333 -7 -193c0 -13.333 0.166992 -30.666 0.5 -51.999s0.5 -36.666 0.5 -45.999c0 -69.333 4 -166.333 12 -291h-47
c-26.667 180.667 -110 271 -250 271h-66v-516c0 -63.333 8.5 -103.5 25.5 -120.5s55.5 -25.5 115.5 -25.5h101c96.667 0 174.667 33.167 234 99.5s101.333 178.5 126 336.5h47c-4 -44 -6 -101.333 -6 -172c0 -111.333 4.66699 -215 14 -311c-92.667 4 -249 6 -469 6
c-296 0 -518.333 -2 -667 -6z" />
    <glyph glyph-name="afii10024" unicode="&#x416;" horiz-adv-x="2107" 
d="M-19 90l28.002 24.9941c27.333 -31.333 55 -47 83 -47c25.333 0 44.666 10.5 57.999 31.5s26 59.5 38 115.5l59 274c21.333 95.333 69 164.166 143 206.499s177.667 67.5 311 75.5l-372 444c-92 107.333 -191.333 172.333 -298 195v40c49.333 -4 113.666 -6 192.999 -6
c101.333 0 202 2 302 6v-40c-47.333 -1.33301 -84.166 -11.5 -110.499 -30.5s-39.5 -45.5 -39.5 -79.5c0 -51.333 31.667 -114.666 95 -189.999l120 -146c56.667 -65.333 107 -112.666 151 -141.999s93.333 -45.333 148 -48v459c0 39.333 -1.66699 69.333 -5 90
s-11 37.667 -23 51s-27 22.166 -45 26.499s-44.667 7.16602 -80 8.49902v41c73.333 -4 176.333 -6 309 -6c146 0 254 2 324 6v-41c-34.667 -1.33301 -61.167 -4.16602 -79.5 -8.49902s-33.666 -13.166 -45.999 -26.499s-20.166 -30.5 -23.499 -51.5s-5 -50.833 -5 -89.5
v-459c54 2.66699 103 18.5 147 47.5s95 76.5 153 142.5l120 146c62.667 74 94 137.333 94 190c0 34 -13.167 60.5 -39.5 79.5s-63.166 29.167 -110.499 30.5v40c100 -4 200.667 -6 302 -6c79.333 0 144 2 194 6v-40c-107.333 -22.667 -206.666 -87.667 -297.999 -195
l-373 -444c133.333 -8 237 -33.167 311 -75.5s121.667 -111.166 143 -206.499l60 -274c11.333 -55.333 23.666 -93.666 36.999 -114.999s33 -32 59 -32c27.333 0 54.666 15.667 81.999 47l28 -25c-36 -41.333 -75.5 -71.5 -118.5 -90.5s-94.167 -28.5 -153.5 -28.5
c-78.667 0 -140.667 16.5 -186 49.5s-75.333 90.5 -90 172.5l-55 312c-16.667 86.667 -43.834 147.334 -81.501 182.001s-103.167 52 -196.5 52h-28v-522c0 -39.333 1.66699 -69.333 5 -90s11.166 -37.667 23.499 -51s27.5 -22.166 45.5 -26.499
s44.667 -7.16602 80 -8.49902v-41c-70 4 -178 6 -324 6c-133.333 0 -236.333 -2 -309 -6v41c34.667 1.33301 61 4.16602 79 8.49902s33.167 13.166 45.5 26.499s20.166 30.5 23.499 51.5s5 50.833 5 89.5v522h-28c-48.667 0 -89 -4.33301 -121 -13
s-58.333 -23.167 -79 -43.5s-36.667 -44.166 -48 -71.499s-21 -62.666 -29 -105.999l-55 -312c-14.667 -82 -44.667 -139.5 -90 -172.5s-107.666 -49.5 -186.999 -49.5c-59.333 0 -110.333 9.5 -153 28.5s-82.334 49.167 -119.001 90.5z" />
    <glyph glyph-name="afii10025" unicode="&#x417;" horiz-adv-x="1232" 
d="M51 256c0 50.667 16.6641 91.165 49.9971 121.498s74.333 45.5 123 45.5c50 0 89.5 -14 118.5 -42s43.5 -68.333 43.5 -121c0 -41.333 -13.833 -77.5 -41.5 -108.5s-65.834 -52.167 -114.501 -63.5c26 -21.333 62.667 -38.666 110 -51.999s100.333 -20 159 -20
c114.667 0 203.5 31.833 266.5 95.5s94.5 154.834 94.5 273.501c0 101.333 -23.333 186.5 -70 255.5s-115 105.5 -205 109.5c-31.333 -18 -60.333 -27 -87 -27c-29.333 0 -44 11.667 -44 35c0 22 15.667 33 47 33c16.667 0 45.334 -4.33301 86.001 -13
c128.667 52 193 170 193 354c0 99.333 -19 172.166 -57 218.499s-94.667 69.5 -170 69.5c-56 0 -106.167 -11.667 -150.5 -35s-80.666 -55.333 -108.999 -96s-50.5 -87 -66.5 -139s-26 -108.333 -30 -169h-47c0 222.667 -3 381 -9 475h47
c4.66699 -39.333 10.5 -67.5 17.5 -84.5s18.167 -25.5 33.5 -25.5c11.333 0 28.333 7.33301 51 22c28 20 49.333 34.333 64 43s36.334 19.5 65.001 32.5s60 22.167 94 27.5s72.667 8 116 8c139.333 0 252 -28 338 -84s128.667 -131.333 128 -226
c0 -44 -10.167 -85.667 -30.5 -125s-46.5 -73.333 -78.5 -102s-69.333 -55 -112 -79s-85.167 -43.5 -127.5 -58.5s-85.166 -27.167 -128.499 -36.5c67.333 -1.33301 133 -10 197 -26s123.167 -38.833 177.5 -68.5s98 -69 131 -118s49.5 -104.167 49.5 -165.5
c0 -65.333 -18.167 -125 -54.5 -179s-84.833 -98.167 -145.5 -132.5s-129 -60.833 -205 -79.5s-154.667 -28 -236 -28c-156.667 0 -279.667 32.333 -369 97c-74.667 52.667 -112 115.334 -112 188.001z" />
    <glyph glyph-name="afii10026" unicode="&#x418;" horiz-adv-x="1680" 
d="M69 0l0.000976562 41.002c34.667 1.33301 61 4.16602 79 8.49902s33.167 13.166 45.5 26.499s20.166 30.5 23.499 51.5s5 50.833 5 89.5v1016c0 38.667 -1.66699 68.5 -5 89.5s-11.166 38.167 -23.499 51.5s-27.5 22.166 -45.5 26.499s-44.333 7.16602 -79 8.49902v41
c68.667 -4 176.334 -6 323.001 -6c132.667 0 236 2 310 6v-41c-34.667 -1.33301 -61.167 -4.16602 -79.5 -8.49902s-33.666 -13.166 -45.999 -26.499s-20.166 -30.5 -23.499 -51.5s-5 -50.833 -5 -89.5v-958l584 990c-2 58.667 -12.667 96.5 -32 113.5s-60 27.167 -122 30.5
v41c73.333 -4 176.333 -6 309 -6c146 0 254 2 324 6v-41c-45.333 -2 -78.166 -7.33301 -98.499 -16s-34.666 -24.667 -42.999 -48s-12.5 -60.666 -12.5 -111.999v-1016c0 -51.333 4.16699 -88.666 12.5 -111.999s22.666 -39.333 42.999 -48s53.166 -14 98.499 -16v-41
c-70 4 -178 6 -324 6c-132.667 0 -235.667 -2 -309 -6v41c34.667 1.33301 61.167 4.16602 79.5 8.49902s33.666 13.166 45.999 26.499s20.166 30.5 23.499 51.5s5 50.833 5 89.5v959l-584 -988c1.33301 -31.333 4.16602 -56 8.49902 -74s12.833 -32.333 25.5 -43
s27.667 -18 45 -22s42.333 -6.66699 75 -8v-41c-74 4 -177.333 6 -310 6c-146.667 0 -254.334 -2 -323.001 -6z" />
    <glyph glyph-name="afii10027" unicode="&#x419;" horiz-adv-x="1680" 
d="M69 0l0.000976562 41.002c34.667 1.33301 61 4.16602 79 8.49902s33.167 13.166 45.5 26.499s20.166 30.5 23.499 51.5s5 50.833 5 89.5v1016c0 38.667 -1.66699 68.5 -5 89.5s-11.166 38.167 -23.499 51.5s-27.5 22.166 -45.5 26.499s-44.333 7.16602 -79 8.49902v41
c68.667 -4 176.334 -6 323.001 -6c132.667 0 236 2 310 6v-41c-34.667 -1.33301 -61.167 -4.16602 -79.5 -8.49902s-33.666 -13.166 -45.999 -26.499s-20.166 -30.5 -23.499 -51.5s-5 -50.833 -5 -89.5v-958l584 990c-2 58.667 -12.667 96.5 -32 113.5s-60 27.167 -122 30.5
v41c73.333 -4 176.333 -6 309 -6c146 0 254 2 324 6v-41c-45.333 -2 -78.166 -7.33301 -98.499 -16s-34.666 -24.667 -42.999 -48s-12.5 -60.666 -12.5 -111.999v-1016c0 -51.333 4.16699 -88.666 12.5 -111.999s22.666 -39.333 42.999 -48s53.166 -14 98.499 -16v-41
c-70 4 -178 6 -324 6c-132.667 0 -235.667 -2 -309 -6v41c34.667 1.33301 61.167 4.16602 79.5 8.49902s33.666 13.166 45.999 26.499s20.166 30.5 23.499 51.5s5 50.833 5 89.5v959l-584 -988c1.33301 -31.333 4.16602 -56 8.49902 -74s12.833 -32.333 25.5 -43
s27.667 -18 45 -22s42.333 -6.66699 75 -8v-41c-74 4 -177.333 6 -310 6c-146.667 0 -254.334 -2 -323.001 -6zM359.001 1800c0 38.667 14.999 71.001 44.999 97.001s68.667 39 116 39c48 0 87.667 -12.833 119 -38.5s47 -58.5 47 -98.5
c0 -34.667 -11.667 -63.334 -35 -86.001s-53.666 -38.334 -90.999 -47.001c70 -32 163.667 -48 281 -48c116 0 209 16.333 279 49c-38 9.33301 -68 25.333 -90 48s-33 50.667 -33 84c0 40 15.5 72.833 46.5 98.5s70.167 38.5 117.5 38.5c46.667 0 85.5 -12.833 116.5 -38.5
s46.5 -58.167 46.5 -97.5c0 -59.333 -41 -109.666 -123 -150.999c-93.333 -48 -213.333 -72 -360 -72c-148 0 -268.667 24 -362 72c-80 40.667 -120 91 -120 151z" />
    <glyph glyph-name="afii10028" unicode="&#x41a;" horiz-adv-x="1477" 
d="M69 0l0.00195312 40.9961c34.667 1.33301 61 4.16602 79 8.49902s33.167 13.166 45.5 26.499s20.166 30.333 23.499 51s5 50.667 5 90v1016c0 38.667 -1.66699 68.5 -5 89.5s-11.166 38.167 -23.499 51.5s-27.5 22.166 -45.5 26.499s-44.333 7.16602 -79 8.49902v41
c68.667 -4 176.334 -6 323.001 -6c132.667 0 236 2 310 6v-41c-35.333 -1.33301 -62 -4.16602 -80 -8.49902s-33.167 -13.166 -45.5 -26.499s-20.166 -30.333 -23.499 -51s-5 -50.667 -5 -90v-459c54.667 2.66699 105.167 18.834 151.5 48.501
s98.166 76.834 155.499 141.501l120 146c63.333 75.333 95 138.666 95 189.999c0 34 -13.167 60.5 -39.5 79.5s-63.166 29.167 -110.499 30.5v40c98.667 -4 199 -6 301 -6c80.667 0 145.334 2 194.001 6v-40c-104.667 -22.667 -204 -87.667 -298 -195l-379 -444
c133.333 -8 236.833 -33.167 310.5 -75.5s121.167 -111.166 142.5 -206.499l60 -274c11.333 -55.333 23.666 -93.666 36.999 -114.999s33 -32 59 -32c27.333 0 54.666 15.667 81.999 47l28 -25c-36 -41.333 -75.5 -71.5 -118.5 -90.5s-94.167 -28.5 -153.5 -28.5
c-78.667 0 -140.667 16.5 -186 49.5s-75.666 90.5 -90.999 172.5l-54 312c-16.667 86.667 -43.834 147.334 -81.501 182.001s-103.167 52 -196.5 52h-28v-522c0 -38.667 1.66699 -68.5 5 -89.5s11.166 -38.167 23.499 -51.5s27.666 -22.166 45.999 -26.499
s44.833 -7.16602 79.5 -8.49902v-41c-74 4 -177.333 6 -310 6c-146.667 0 -254.334 -2 -323.001 -6z" />
    <glyph glyph-name="afii10029" unicode="&#x41b;" horiz-adv-x="1474" 
d="M-28 161c0 52.667 17.666 95.1592 52.999 127.492s79.666 48.5 132.999 48.5c45.333 0 81.833 -11.333 109.5 -34s41.5 -53.667 41.5 -93c0 -48 -14.833 -88.167 -44.5 -120.5s-69.167 -55.166 -118.5 -68.499c13.333 -7.33301 30 -11 50 -11
c127.333 0 220.666 110.333 279.999 331c39.333 147.333 69 379.666 89 696.999l12 195c1.33301 22.667 2 38 2 46c0 50.667 -11.333 84.334 -34 101.001s-67.334 26.334 -134.001 29.001v41c58 -4 128.333 -6 211 -6c20.667 0 51 1 91 3s69.667 3 89 3
c34 0 81.5 -1 142.5 -3s111.167 -3 150.5 -3c140 0 246 2 318 6v-41c-37.333 -1.33301 -65.833 -4.16602 -85.5 -8.49902s-36.167 -13.166 -49.5 -26.499s-21.833 -30.5 -25.5 -51.5s-5.5 -50.833 -5.5 -89.5v-1016c0 -38.667 1.83301 -68.5 5.5 -89.5
s12.167 -38.167 25.5 -51.5s29.833 -22.166 49.5 -26.499s48.167 -7.16602 85.5 -8.49902v-41c-72 4 -183.333 6 -334 6c-147.333 0 -260.666 -2 -339.999 -6v41c40.667 1.33301 71.667 4.16602 93 8.49902s39.333 13 54 26s24.167 30.167 28.5 51.5s6.5 51.333 6.5 90v1016
c0 72 -9.83301 119.333 -29.5 142s-56.834 34 -111.501 34h-14c-50.667 0 -85.667 -11.5 -105 -34.5s-31.666 -70.167 -36.999 -141.5c-3.33301 -38.667 -7.16602 -89.167 -11.499 -151.5l-11.5 -165c-3.33301 -47.667 -8 -103.334 -14 -167.001s-12.167 -120 -18.5 -169
s-15.166 -101.667 -26.499 -158s-23.833 -105.166 -37.5 -146.499s-30.5 -82.166 -50.5 -122.499s-42.167 -73.166 -66.5 -98.499s-52.666 -45.666 -84.999 -60.999s-67.833 -23 -106.5 -23c-63.333 0 -116.5 17.667 -159.5 53s-64.5 81 -64.5 137z" />
    <glyph glyph-name="afii10030" unicode="&#x41c;" horiz-adv-x="1899" 
d="M71 0l-0.000976562 41c64 8.66699 105.667 30.667 125 66s29 103.333 29 204v922c0 38.667 -1.66699 68.5 -5 89.5s-11.166 38.167 -23.499 51.5s-27.666 22.166 -45.999 26.499s-44.833 7.16602 -79.5 8.49902v41c43.333 -4 102.666 -6 177.999 -6
c127.333 0 235.333 2 324 6l413 -996l378 990h145c138.667 0 246 2 322 6v-41c-35.333 -1.33301 -62 -4.16602 -80 -8.49902s-33.167 -13.166 -45.5 -26.499s-20.166 -30.333 -23.499 -51s-5 -50.667 -5 -90v-1016c0 -38.667 1.66699 -68.5 5 -89.5
s11.166 -38.167 23.499 -51.5s27.666 -22.166 45.999 -26.499s44.833 -7.16602 79.5 -8.49902v-41c-76 4 -183.333 6 -322 6c-146 0 -254 -2 -324 -6v41c37.333 1.33301 65.833 4.16602 85.5 8.49902s36.167 13.166 49.5 26.499s21.833 30.5 25.5 51.5s5.5 50.833 5.5 89.5
v1066l-493 -1286h-33l-553 1321v-982c0 -49.333 1.16699 -88 3.5 -116s7 -54.167 14 -78.5s18.167 -42.5 33.5 -54.5s34.5 -21.667 57.5 -29s53.167 -13 90.5 -17v-41c-52.667 4 -126.667 6 -222 6c-75.333 0 -134.666 -2 -177.999 -6z" />
    <glyph glyph-name="afii10031" unicode="&#x41d;" horiz-adv-x="1639" 
d="M69 0l0.000976562 41.001c34.667 1.33301 61 4.16602 79 8.49902s33.167 13.166 45.5 26.499s20.166 30.333 23.499 51s5 50.667 5 90v1016c0 38.667 -1.66699 68.5 -5 89.5s-11.166 38.167 -23.499 51.5s-27.5 22.166 -45.5 26.499s-44.333 7.16602 -79 8.49902v41
c68.667 -4 176.334 -6 323.001 -6c132.667 0 236 2 310 6v-41c-35.333 -1.33301 -62 -4.16602 -80 -8.49902s-33.167 -13.166 -45.5 -26.499s-20.166 -30.333 -23.499 -51s-5 -50.667 -5 -90v-483h543v483c0 38.667 -1.66699 68.5 -5 89.5s-11.166 38.167 -23.499 51.5
s-27.666 22.166 -45.999 26.499s-44.833 7.16602 -79.5 8.49902v41c76 -4 183.333 -6 322 -6c140.667 0 244.334 2 311.001 6v-41c-35.333 -1.33301 -62 -4.16602 -80 -8.49902s-33.167 -13.166 -45.5 -26.499s-20.166 -30.333 -23.499 -51s-5 -50.667 -5 -90v-1016
c0 -51.333 4.16699 -88.666 12.5 -111.999s22.666 -39.333 42.999 -48s53.166 -14 98.499 -16v-41c-66.667 4 -170.334 6 -311.001 6c-138.667 0 -246 -2 -322 -6v41c35.333 1.33301 62 4.16602 80 8.49902s33.167 13.166 45.5 26.499s20.166 30.333 23.499 51
s5 50.667 5 90v492h-543v-492c0 -38.667 1.66699 -68.5 5 -89.5s11.166 -38.167 23.499 -51.5s27.666 -22.166 45.999 -26.499s44.833 -7.16602 79.5 -8.49902v-41c-74 4 -177.333 6 -310 6c-146.667 0 -254.334 -2 -323.001 -6z" />
    <glyph glyph-name="afii10032" unicode="&#x41e;" horiz-adv-x="1623" 
d="M88 713c0 150.667 30.6689 284.167 92.002 400.5s147 206.333 257 270s235.333 95.5 376 95.5c219.333 0 394.666 -65.833 525.999 -197.5s197 -313.167 197 -544.5c0 -150.667 -30.833 -284.167 -92.5 -400.5s-147.334 -206.333 -257.001 -270
s-234.834 -95.5 -375.501 -95.5c-144.667 0 -271.167 29 -379.5 87s-192.666 143.167 -252.999 255.5s-90.5 245.5 -90.5 399.5zM428.002 721c0 -213.333 37.5 -385.5 112.5 -516.5s167.833 -196.5 278.5 -196.5c113.333 0 204.5 66.667 273.5 200s103.5 307 103.5 521
c0 213.333 -37.5 385.5 -112.5 516.5s-168.167 196.5 -279.5 196.5c-113.333 0 -204.333 -66.667 -273 -200s-103 -307 -103 -521z" />
    <glyph glyph-name="afii10033" unicode="&#x41f;" horiz-adv-x="1639" 
d="M69 0l0.00195312 41.002c34.667 1.33301 61 4.16602 79 8.49902s33.167 13.166 45.5 26.499s20.166 30.5 23.499 51.5s5 50.833 5 89.5v1016c0 38.667 -1.66699 68.5 -5 89.5s-11.166 38.167 -23.499 51.5s-27.5 22.166 -45.5 26.499s-44.333 7.16602 -79 8.49902v41
c68.667 -4 176.334 -6 323.001 -6c58.667 0 138.334 1 239.001 3s164.334 3 191.001 3c27.333 0 90.333 -1 189 -3s177 -3 235 -3c146 0 254 2 324 6v-41c-45.333 -2 -78.166 -7.33301 -98.499 -16s-34.666 -24.667 -42.999 -48s-12.5 -60.666 -12.5 -111.999v-1016
c0 -51.333 4.16699 -88.666 12.5 -111.999s22.666 -39.333 42.999 -48s53.166 -14 98.499 -16v-41c-70 4 -178 6 -324 6c-133.333 0 -236.333 -2 -309 -6v41c34.667 1.33301 61.167 4.16602 79.5 8.49902s33.666 13.166 45.999 26.499s20.166 30.5 23.499 51.5
s5 50.833 5 89.5v1016c0 74 -10.167 121.833 -30.5 143.5s-65.5 32.5 -135.5 32.5h-211c-70 0 -115.167 -10.833 -135.5 -32.5s-30.5 -69.5 -30.5 -143.5v-1016c0 -38.667 1.66699 -68.5 5 -89.5s11.166 -38.167 23.499 -51.5s27.666 -22.166 45.999 -26.499
s44.833 -7.16602 79.5 -8.49902v-41c-74 4 -177.333 6 -310 6c-146.667 0 -254.334 -2 -323.001 -6z" />
    <glyph glyph-name="afii10034" unicode="&#x420;" horiz-adv-x="1312" 
d="M69 0l-0.00292969 41.0039c34.667 1.33301 61 4.16602 79 8.49902s33.167 13.166 45.5 26.499s20.166 30.333 23.499 51s5 50.667 5 90v1016c0 38.667 -1.66699 68.5 -5 89.5s-11.166 38.167 -23.499 51.5s-27.5 22.166 -45.5 26.499s-44.333 7.16602 -79 8.49902v41
c68.667 -4 172.334 -6 311.001 -6c51.333 0 115.166 0.666992 191.499 2s119.833 2 130.5 2c184.667 0 325.334 -36.5 422.001 -109.5s145 -171.167 145 -294.5c0 -34.667 -4 -68.834 -12 -102.501s-20.833 -68.167 -38.5 -103.5s-42.5 -67.833 -74.5 -97.5
s-69.667 -56.167 -113 -79.5s-97 -41.666 -161 -54.999s-135 -20 -213 -20h-109v-357c0 -28 1.16699 -51.167 3.5 -69.5s6.83301 -34.666 13.5 -48.999s14.667 -25.333 24 -33s22.833 -14 40.5 -19s36.834 -8.33301 57.501 -10s47.334 -2.83398 80.001 -3.50098v-45
c-112 4 -236.333 6 -373 6c-98 0 -206.333 -2 -325 -6zM547.997 627.004l88.001 -0.000976562c46.667 0 87.667 7.16699 123 21.5s63.666 33.333 84.999 57s38.5 53 51.5 88s21.833 70.5 26.5 106.5s7 76.667 7 122c0 132.667 -19.667 230.334 -59 293.001
s-104.333 94 -195 94c-52 0 -86.167 -11.5 -102.5 -34.5s-24.5 -70.167 -24.5 -141.5v-606z" />
    <glyph glyph-name="afii10035" unicode="&#x421;" horiz-adv-x="1445" 
d="M88 713c0 150.667 30.6621 284.166 91.9951 400.499s147 206.333 257 270s235.333 95.5 376 95.5c81.333 0 150.666 -11.667 207.999 -35s113.333 -56 168 -98c14.667 -12 28 -18 40 -18c27.333 0 45 40.667 53 122h47c-5.33301 -93.333 -8 -258.666 -8 -495.999h-48
c-12 101.333 -28.167 178.5 -48.5 231.5s-55.5 99.5 -105.5 139.5c-69.333 67.333 -155.666 101 -258.999 101c-70.667 0 -133 -19.5 -187 -58.5s-96.667 -92.167 -128 -159.5s-54.666 -141.833 -69.999 -223.5s-23 -169.5 -23 -263.5c0 -94.667 8.16699 -183 24.5 -265
s40.666 -156 72.999 -222s75.833 -118 130.5 -156s117.334 -57 188.001 -57c46.667 0 92.834 8.5 138.501 25.5s84.5 41.5 116.5 73.5c50 38.667 84.833 87 104.5 145s34.834 141.667 45.501 251h48c0 -247.333 2.66699 -419.333 8 -516h-47
c-4 42.667 -9.83301 73.5 -17.5 92.5s-18.5 28.5 -32.5 28.5c-11.333 0 -25.666 -5.66699 -42.999 -17c-61.333 -43.333 -119.833 -76.333 -175.5 -99s-123.167 -34 -202.5 -34c-144.667 0 -271.167 29 -379.5 87s-192.666 143.167 -252.999 255.5s-90.5 245.5 -90.5 399.5z
" />
    <glyph glyph-name="afii10036" unicode="&#x422;" horiz-adv-x="1368" 
d="M52 1450c123.333 -4 334.337 -6 633.004 -6c297.333 0 507.666 2 630.999 6c-10 -126.667 -15 -242.667 -15 -348c0 -66 2 -118 6 -156h-47c-34 168.667 -79.333 287 -136 355s-134 102 -232 102h-45v-1169c0 -43.333 2.66699 -76.833 8 -100.5
s16.666 -42.834 33.999 -57.501s39 -24 65 -28s63.333 -6.33301 112 -7v-41c-116 4 -246 6 -390 6c-141.333 0 -266 -2 -374 -6v41c48.667 0.666992 86 3 112 7s47.667 13.333 65 28s28.666 33.834 33.999 57.501s8 57.167 8 100.5v1169h-45
c-98.667 0 -176.334 -33.833 -233.001 -101.5s-102 -186.167 -136 -355.5h-47c4 38 6 90 6 156c0 102 -4.66699 218 -14 348z" />
    <glyph glyph-name="afii10037" unicode="&#x423;" horiz-adv-x="1351" 
d="M-20 1408v42.0039c54 -4 144.333 -6 271 -6c160.667 0 269.667 2 327 6v-42c-70 -2.66699 -105 -29 -105 -79c0 -23.333 7.66699 -51.333 23 -84l362 -642l208 418c52 104.667 78 187.667 78 249c0 89.333 -58 135.666 -174 138.999v41c93.333 -4 178.666 -6 255.999 -6
c62.667 0 114.667 2 156 6v-41c-30 -11.333 -60.167 -35.333 -90.5 -72s-65.166 -91.334 -104.499 -164.001l-403 -811l-97 -194c-30.667 -62.667 -60.667 -108.334 -90 -137.001c-40 -40 -97 -60 -171 -60c-69.333 0 -124.5 16 -165.5 48s-61.5 73 -61.5 123
c0 48 17.5 86.667 52.5 116s78.167 44 129.5 44c53.333 0 95.833 -11.333 127.5 -34s47.5 -54.334 47.5 -95.001c0 -37.333 -12.5 -69.166 -37.5 -95.499s-57.833 -45.833 -98.5 -58.5c7.33301 -4.66699 20.666 -7 39.999 -7c72.667 0 134.334 53 185.001 159l48 99
l-578 1014c-45.333 77.333 -90.333 118.666 -135 123.999z" />
    <glyph glyph-name="afii10038" unicode="&#x424;" horiz-adv-x="1891" 
d="M33 733c0 162.667 65.666 294.501 196.999 395.501s316 161.167 554 180.5v75c0 74 -9.16699 121.167 -27.5 141.5s-60.5 32.166 -126.5 35.499v41c65.333 -4.66699 173.333 -7 324 -7c136.667 0 239.667 2.33301 309 7v-41c-66.667 -3.33301 -109 -15.166 -127 -35.499
s-27 -67.5 -27 -141.5v-74c242.667 -17.333 428.167 -74.333 556.5 -171s192.5 -230.667 192.5 -402c0 -168 -65.5 -304.167 -196.5 -408.5s-315.167 -166.5 -552.5 -186.5v-76c0 -39.333 1.66699 -69.5 5 -90.5s11.333 -38.167 24 -51.5s27.834 -22 45.501 -26
s44.167 -7 79.5 -9v-41c-69.333 4.66699 -172.333 7 -309 7c-150.667 0 -258.667 -2.33301 -324 -7v41c66.667 3.33301 109 15.166 127 35.499s27 67.5 27 141.5v75c-243.333 17.333 -429.333 76 -558 176s-193 238.667 -193 416zM372.999 741.001
c0 -171.333 33.668 -302.168 101.001 -392.501s170.666 -147.166 309.999 -170.499v1096c-144 -20 -248.5 -73 -313.5 -159s-97.5 -210.667 -97.5 -374zM1109 176.999c143.333 21.333 247.333 76.5 312 165.5s97 217.833 97 386.5c0 166 -33.333 292.5 -100 379.5
s-169.667 141.5 -309 163.5v-1095z" />
    <glyph glyph-name="afii10039" unicode="&#x425;" horiz-adv-x="1415" 
d="M7 1408v43c149.333 -5.33301 246.666 -8 291.999 -8c86.667 0 191.334 2.66699 314.001 8v-43c-87.333 0 -131 -13 -131 -39c0 -10.667 5.33301 -23.667 16 -39l305 -445l151 204c64.667 82 97 151 97 207c0 34 -12.833 60.5 -38.5 79.5s-62.5 30.167 -110.5 33.5v41
c77.333 -4 163 -6 257 -6c83.333 0 146.333 2 189 6v-41c-84 -24 -170 -95.333 -258 -214l-262 -348l481 -702c28 -40 50 -66.5 66 -79.5s37.667 -20.5 65 -22.5v-43c-144 5.33301 -237.333 8 -280 8c-52 0 -162 -2.66699 -330 -8v43c48 0 82.5 2.33301 103.5 7
s31.5 13.667 31.5 27c0 8.66699 -5 20.667 -15 36l-344 505l-164 -224c-62.667 -84 -94 -155.333 -94 -214c0 -42 15.5 -74.833 46.5 -98.5s73.833 -37.167 128.5 -40.5v-41c-78 4 -186 6 -324 6c-82 0 -144.667 -2 -188 -6v41c93.333 30.667 192 114 296 250l272 367
l-441 648c-28 40 -50 66.5 -66 79.5s-37.667 20.5 -65 22.5z" />
    <glyph glyph-name="afii10040" unicode="&#x426;" horiz-adv-x="1658" 
d="M69 0l-0.00292969 41.0029c34.667 1.33301 61 4.16602 79 8.49902s33.167 13.166 45.5 26.499s20.166 30.5 23.499 51.5s5 50.833 5 89.5v1016c0 38.667 -1.66699 68.5 -5 89.5s-11.166 38.167 -23.499 51.5s-27.5 22.166 -45.5 26.499s-44.333 7.16602 -79 8.49902v41
c68.667 -4 176.334 -6 323.001 -6c132.667 0 236 2 310 6v-41c-34.667 -1.33301 -61.167 -4.16602 -79.5 -8.49902s-33.666 -13.166 -45.999 -26.499s-20.166 -30.5 -23.499 -51.5s-5 -50.833 -5 -89.5v-1016c0 -74 10.167 -121.833 30.5 -143.5s65.5 -32.5 135.5 -32.5h211
c70 0 115.167 10.833 135.5 32.5s30.5 69.5 30.5 143.5v1016c0 38.667 -1.66699 68.5 -5 89.5s-11.166 38.167 -23.499 51.5s-27.666 22.166 -45.999 26.499s-44.833 7.16602 -79.5 8.49902v41c73.333 -4 176.333 -6 309 -6c146 0 254 2 324 6v-41
c-45.333 -2 -78.166 -7.33301 -98.499 -16s-34.666 -24.667 -42.999 -48s-12.5 -60.666 -12.5 -111.999v-1016c0 -74 9.5 -121.833 28.5 -143.5s60.833 -32.5 125.5 -32.5h62c-9.33301 -98.667 -14 -187.334 -14 -266.001c0 -55.333 2 -99.666 6 -132.999h-47
c-20.667 131.333 -58.834 223.833 -114.501 277.5s-133.5 80.5 -233.5 80.5h-410c-26.667 0 -89.834 1 -189.501 3s-178.834 3 -237.501 3c-146.667 0 -254.334 -2 -323.001 -6z" />
    <glyph glyph-name="afii10041" unicode="&#x427;" horiz-adv-x="1537" 
d="M20 1408l-0.00390625 41.9951c102.667 -4.66699 207.667 -7 315 -7c98.667 0 199.334 2.33301 302.001 7v-42c-58 -1.33301 -96.167 -12.333 -114.5 -33s-27.5 -64.334 -27.5 -131.001v-390c0 -43.333 2.33301 -78.333 7 -105s14 -50.667 28 -72s34.5 -36.5 61.5 -45.5
s62.5 -13.5 106.5 -13.5c112.667 0 209.667 16 291 48v567c0 38.667 -1.66699 68.5 -5 89.5s-11.166 38.167 -23.499 51.5s-27.666 22.166 -45.999 26.499s-44.833 7.16602 -79.5 8.49902v41c70 -4 178 -6 324 -6c132.667 0 235.667 2 309 6v-41
c-35.333 -1.33301 -62 -4.16602 -80 -8.49902s-33.167 -13.166 -45.5 -26.499s-20.166 -30.333 -23.499 -51s-5 -50.667 -5 -90v-1016c0 -39.333 1.66699 -69.333 5 -90s11.166 -37.667 23.499 -51s27.5 -22.166 45.5 -26.499s44.667 -7.16602 80 -8.49902v-41
c-118.667 4 -227 6 -325 6c-136.667 0 -261 -2 -373 -6v45c32.667 0.666992 59.334 1.83398 80.001 3.50098s39.834 5 57.501 10s31.167 11.333 40.5 19s17.333 18.667 24 33s11.167 30.666 13.5 48.999s3.5 41.5 3.5 69.5v399c-44 -19.333 -102 -36.666 -174 -51.999
s-145.333 -23 -220 -23c-126 0 -227 24 -303 72c-46 28.667 -77.833 64.834 -95.5 108.501s-26.5 102.834 -26.5 177.501v333c0 66.667 -9.83301 110.334 -29.5 131.001s-59.834 31.667 -120.501 33z" />
    <glyph glyph-name="afii10042" unicode="&#x428;" horiz-adv-x="2296" 
d="M69 0l0.0078125 41.002c34.667 1.33301 61 4.16602 79 8.49902s33.167 13.166 45.5 26.499s20.166 30.5 23.499 51.5s5 50.833 5 89.5v1016c0 38.667 -1.66699 68.5 -5 89.5s-11.166 38.167 -23.499 51.5s-27.5 22.166 -45.5 26.499s-44.333 7.16602 -79 8.49902v41
c68.667 -4 176.334 -6 323.001 -6c124 0 220.333 2 289 6v-41c-40 -2 -68.667 -7.5 -86 -16.5s-29.5 -25 -36.5 -48s-10.5 -60.167 -10.5 -111.5v-1016c0 -74 10.167 -121.833 30.5 -143.5s65.5 -32.5 135.5 -32.5h105c70 0 115.167 10.833 135.5 32.5s30.5 69.5 30.5 143.5
v1016c0 39.333 -1.33301 69.333 -4 90s-9.33398 37.667 -20.001 51s-23.834 22.166 -39.501 26.499s-38.834 7.16602 -69.501 8.49902v41c68.667 -4 165 -6 289 -6c136 0 237 2 303 6v-41c-30.667 -1.33301 -53.834 -4.16602 -69.501 -8.49902
s-28.834 -13.166 -39.501 -26.499s-17.334 -30.333 -20.001 -51s-4 -50.667 -4 -90v-1016c0 -72.667 10.833 -119.667 32.5 -141s66.167 -33 133.5 -35h105c70 0 115.167 10.833 135.5 32.5s30.5 69.5 30.5 143.5v1016c0 39.333 -1.33301 69.333 -4 90
s-9.33398 37.667 -20.001 51s-23.834 22.166 -39.501 26.499s-38.834 7.16602 -69.501 8.49902v41c68.667 -4 164.667 -6 288 -6c146 0 254 2 324 6v-41c-35.333 -1.33301 -62 -4.16602 -80 -8.49902s-33.167 -13.166 -45.5 -26.499s-20.166 -30.333 -23.5 -51
c-3.33301 -20.667 -5 -50.667 -5 -90v-1016c0 -39.333 1.66699 -69.333 5 -90s11.166 -37.667 23.5 -51c12.333 -13.333 27.5 -22.166 45.5 -26.499s44.667 -7.16602 80 -8.49902v-41c-67.333 4 -171 6 -311 6c-46 0 -113.167 -1 -201.5 -3s-150.5 -3 -186.5 -3
c-30.667 0 -90.334 1 -179.001 3s-153.334 3 -194.001 3c-44 0 -110.167 -1 -198.5 -3s-150.166 -3 -185.499 -3c-36.667 0 -99.667 1 -189 3s-156.666 3 -201.999 3c-140 0 -243.667 -2 -311 -6z" />
    <glyph glyph-name="afii10043" unicode="&#x429;" horiz-adv-x="2298" 
d="M69 0l0.00488281 41.0039c34.667 1.33301 61 4.16602 79 8.49902s33.167 13.166 45.5 26.499s20.166 30.5 23.499 51.5s5 50.833 5 89.5v1016c0 38.667 -1.66699 68.5 -5 89.5s-11.166 38.167 -23.499 51.5s-27.5 22.166 -45.5 26.499s-44.333 7.16602 -79 8.49902v41
c68.667 -4 176.334 -6 323.001 -6c124 0 220.333 2 289 6v-41c-40 -2 -68.667 -7.5 -86 -16.5s-29.5 -25 -36.5 -48s-10.5 -60.167 -10.5 -111.5v-1016c0 -74 10.167 -121.833 30.5 -143.5s65.5 -32.5 135.5 -32.5h97c70 0 115.167 10.833 135.5 32.5s30.5 69.5 30.5 143.5
v1016c0 39.333 -1.33301 69.333 -4 90s-9.33398 37.667 -20.001 51s-23.834 22.166 -39.501 26.499s-38.834 7.16602 -69.501 8.49902v41c68.667 -4 165 -6 289 -6c136 0 237 2 303 6v-41c-30.667 -1.33301 -53.834 -4.16602 -69.501 -8.49902
s-28.834 -13.166 -39.501 -26.499s-17.334 -30.333 -20.001 -51s-4 -50.667 -4 -90v-1016c0 -73.333 10.833 -121 32.5 -143s65.834 -33 132.501 -33h97c70 0 115.167 10.667 135.5 32s30.5 69.333 30.5 144v1016c0 39.333 -1.33301 69.333 -4 90
s-9.33398 37.667 -20.001 51s-23.834 22.166 -39.501 26.499s-38.834 7.16602 -69.501 8.49902v41c68.667 -4 165 -6 289 -6c146 0 254 2 324 6v-41c-35.333 -1.33301 -62 -4.16602 -80 -8.49902s-33.167 -13.166 -45.5 -26.499s-20.166 -30.333 -23.5 -51
c-3.33301 -20.667 -5 -50.667 -5 -90v-1016c0 -74.667 9.33301 -122.667 28 -144s60.667 -32 126 -32h62c-9.33301 -98.667 -14 -187.334 -14 -266.001c0 -55.333 2 -99.666 6 -132.999h-47c-20.667 131.333 -59 223.833 -115 277.5s-134 80.5 -234 80.5h-349
c-31.333 0 -91.166 1 -179.499 3s-153.166 3 -194.499 3c-44 0 -110 -1 -198 -3s-149.667 -3 -185 -3c-33.333 0 -94 1 -182 3s-155 3 -201 3c-140 0 -243.667 -2 -311 -6z" />
    <glyph glyph-name="afii10044" unicode="&#x42a;" horiz-adv-x="1620" 
d="M43 1450c97.333 -4 262.671 -6.00195 496.004 -6.00195c203.333 0 366.333 2 489 6v-41c-38.667 -1.33301 -68 -4.16602 -88 -8.49902s-36.833 -13.166 -50.5 -26.499s-22.334 -30.333 -26.001 -51s-5.5 -50.667 -5.5 -90v-371l121 1c86 0 163.333 -7.83301 232 -23.5
s125.334 -36.667 170.001 -63s81.667 -57.833 111 -94.5s50.166 -75.167 62.499 -115.5s18.5 -83.166 18.5 -128.499c0 -47.333 -6.66699 -92 -20 -134s-35.166 -81.667 -65.499 -119s-67.666 -69.5 -111.999 -96.5s-99.5 -48.333 -165.5 -64s-139.667 -23.5 -221 -23.5
c-15.333 0 -56.833 0.833008 -124.5 2.5s-126.834 2.5 -177.501 2.5c-136 0 -239 -2 -309 -6v41c34.667 1.33301 61.167 4.16602 79.5 8.49902s33.666 13.166 45.999 26.499s20.166 30.5 23.499 51.5s5 50.833 5 89.5v1186h-70c-48.667 0 -92.334 -7.16699 -131.001 -21.5
s-74.167 -37.333 -106.5 -69s-59.333 -75.167 -81 -130.5s-36.834 -121.666 -45.501 -198.999h-47c4 47.333 6 107.333 6 180c0 103.333 -4.66699 199 -14 287zM858.005 216.998c0 -72 7.5 -119.333 22.5 -142s47.5 -34 97.5 -34c48.667 0 90 8.66699 124 26
s60.333 43.166 79 77.499s32 73.833 40 118.5s12 97.334 12 158.001c0 62 -4.5 116.333 -13.5 163s-24 88.5 -45 125.5s-50.667 65.167 -89 84.5s-84.833 29 -139.5 29h-88v-606z" />
    <glyph glyph-name="afii10045" unicode="&#x42b;" horiz-adv-x="2057" 
d="M69 0l-0.00195312 41.002c34.667 1.33301 61 4.16602 79 8.49902s33.167 13.166 45.5 26.499s20.166 30.5 23.499 51.5s5 50.833 5 89.5v1016c0 38.667 -1.66699 68.5 -5 89.5s-11.166 38.167 -23.499 51.5s-27.5 22.166 -45.5 26.499s-44.333 7.16602 -79 8.49902v41
c68.667 -4 176.334 -6 323.001 -6c140 0 248.667 2 326 6v-41c-38.667 -1.33301 -68 -4.16602 -88 -8.49902s-36.833 -13.166 -50.5 -26.499s-22.334 -30.333 -26.001 -51s-5.5 -50.667 -5.5 -90v-371l121 1c86.667 0 164.167 -7.16699 232.5 -21.5s124.833 -34 169.5 -59
s81.667 -55.167 111 -90.5s50.166 -72.833 62.499 -112.5s18.5 -82.834 18.5 -129.501c0 -48.667 -6.66699 -94.667 -20 -138s-35.166 -84.166 -65.499 -122.499s-67.666 -71.333 -111.999 -99s-99.5 -49.5 -165.5 -65.5s-139.667 -24 -221 -24
c-15.333 0 -56.666 0.833008 -123.999 2.5s-126.333 2.5 -177 2.5c-137.333 0 -240.333 -2 -309 -6zM547.998 217.002c0 -72 7.49902 -119.333 22.499 -142s47.5 -34 97.5 -34c49.333 0 90.833 8.66699 124.5 26s59.834 43.333 78.501 78s32 74 40 118s12 96.667 12 158
c0 62.667 -4.5 117.167 -13.5 163.5s-24 88 -45 125s-50.667 65.167 -89 84.5s-84.833 29 -139.5 29h-88v-606zM1355 0.00195312v40.999c35.333 1.33301 62 4.16602 80 8.49902s33.167 13.166 45.5 26.499s20.166 30.333 23.499 51s5 50.667 5 90v1016
c0 51.333 -4.16699 88.666 -12.5 111.999s-22.666 39.333 -42.999 48s-53.166 14 -98.499 16v41c70 -4 178 -6 324 -6c132 0 235 2 309 6v-41c-35.333 -1.33301 -62 -4.16602 -80 -8.49902s-33.167 -13.166 -45.5 -26.499s-20.166 -30.333 -23.499 -51s-5 -50.667 -5 -90
v-1016c0 -38.667 1.66699 -68.5 5 -89.5s11.166 -38.167 23.499 -51.5s27.666 -22.166 45.999 -26.499s44.833 -7.16602 79.5 -8.49902v-41c-74 4 -177 6 -309 6c-146 0 -254 -2 -324 -6z" />
    <glyph glyph-name="afii10046" unicode="&#x42c;" horiz-adv-x="1311" 
d="M69 0l-0.00195312 41.002c34.667 1.33301 61 4.16602 79 8.49902s33.167 13.166 45.5 26.499s20.166 30.5 23.499 51.5s5 50.833 5 89.5v1016c0 38.667 -1.66699 68.5 -5 89.5s-11.166 38.167 -23.499 51.5s-27.5 22.166 -45.5 26.499s-44.333 7.16602 -79 8.49902v41
c68.667 -4 176.334 -6 323.001 -6c140 0 248.667 2 326 6v-41c-38.667 -1.33301 -68 -4.16602 -88 -8.49902s-36.833 -13.166 -50.5 -26.499s-22.334 -30.333 -26.001 -51s-5.5 -50.667 -5.5 -90v-371l121 1c86.667 0 164.167 -7.16699 232.5 -21.5s124.833 -34 169.5 -59
s81.667 -55.167 111 -90.5s50.166 -72.833 62.499 -112.5s18.5 -82.834 18.5 -129.501c0 -48.667 -6.66699 -94.667 -20 -138s-35.166 -84.166 -65.499 -122.499s-67.666 -71.333 -111.999 -99s-99.5 -49.5 -165.5 -65.5s-139.667 -24 -221 -24
c-15.333 0 -56.666 0.833008 -123.999 2.5s-126.333 2.5 -177 2.5c-137.333 0 -240.333 -2 -309 -6zM547.998 217.002c0 -72 7.49902 -119.333 22.499 -142s47.5 -34 97.5 -34c49.333 0 90.833 8.66699 124.5 26s59.834 43.333 78.501 78s32 74 40 118s12 96.667 12 158
c0 62.667 -4.5 117.167 -13.5 163.5s-24 88 -45 125s-50.667 65.167 -89 84.5s-84.833 29 -139.5 29h-88v-606z" />
    <glyph glyph-name="afii10047" unicode="&#x42d;" horiz-adv-x="1445" 
d="M116 0c5.33301 82 8.00195 229.335 8.00195 442.002h47c15.333 -80.667 33.833 -145 55.5 -193s53.5 -89.333 95.5 -124c31.333 -32 69.833 -56.5 115.5 -73.5s91.834 -25.5 138.501 -25.5c71.333 0 134.166 19 188.499 57s97.666 90 129.999 156s56.666 140 72.999 222
s24.5 170.333 24.5 265c0 32.667 -0.333008 57 -1 73c-22.667 -76.667 -55.167 -135.167 -97.5 -175.5s-87.833 -60.5 -136.5 -60.5c-33.333 0 -67 7.5 -101 22.5s-62.833 31.5 -86.5 49.5s-51.334 34.5 -83.001 49.5s-61.5 22.5 -89.5 22.5c-29.333 0 -57.333 -10 -84 -30
s-45.667 -51.667 -57 -95l-34 8c17.333 106.667 48.666 188 93.999 244s97.333 84 156 84c33.333 0 66.833 -7.5 100.5 -22.5s62.167 -31.333 85.5 -49s51 -34 83 -49s63.333 -22.5 94 -22.5c67.333 0 118.333 30.333 153 91c-4 64 -11.167 122.833 -21.5 176.5
s-25 105 -44 154s-42 90.333 -69 124s-60.5 60.5 -100.5 80.5s-85 30 -135 30c-52 0 -104.167 -8.66699 -156.5 -26s-94.5 -42.333 -126.5 -75c-48.667 -40.667 -83.667 -85.834 -105 -135.501s-37.666 -121.5 -48.999 -215.5h-47c0 214 -3 371 -9 471h47
c4 -42.667 10 -73.5 18 -92.5s19.333 -28.5 34 -28.5c10.667 0 24.334 5.66699 41.001 17c121.333 88.667 255.333 133 402 133c214.667 0 383.334 -67.167 506.001 -201.5s184 -317.833 184 -550.5c0 -230.667 -65.667 -414.334 -197 -551.001s-307.333 -205 -528 -205
c-80.667 0 -149.334 11.5 -206.001 34.5s-113.667 55.833 -171 98.5c-16 12 -29.667 18 -41 18c-27.333 0 -44.333 -40.667 -51 -122h-47z" />
    <glyph glyph-name="afii10048" unicode="&#x42e;" horiz-adv-x="2211" 
d="M69 0l-0.00195312 41.001c34.667 1.33301 61 4.16602 79 8.49902s33.167 13.166 45.5 26.499s20.166 30.333 23.499 51s5 50.667 5 90v1016c0 38.667 -1.66699 68.5 -5 89.5s-11.166 38.167 -23.499 51.5s-27.5 22.166 -45.5 26.499s-44.333 7.16602 -79 8.49902v41
c68.667 -4 176.334 -6 323.001 -6c132.667 0 236 2 310 6v-41c-35.333 -1.33301 -62 -4.16602 -80 -8.49902s-33.167 -13.166 -45.5 -26.499s-20.166 -30.333 -23.499 -51s-5 -50.667 -5 -90v-487h217c4.66699 144.667 36.334 272.667 95.001 384
s138.834 197.333 240.501 258s216.5 91 344.5 91c206 0 370.5 -65.833 493.5 -197.5s184.5 -313.167 184.5 -544.5c0 -150.667 -28.833 -284.167 -86.5 -400.5s-138.167 -206.333 -241.5 -270s-220.666 -95.5 -351.999 -95.5c-134.667 0 -252.667 28.667 -354 86
s-180.5 141.666 -237.5 252.999s-85.833 243 -86.5 395h-217v-488c0 -38.667 1.66699 -68.5 5 -89.5s11.166 -38.167 23.499 -51.5s27.666 -22.166 45.999 -26.499s44.833 -7.16602 79.5 -8.49902v-41c-74 4 -177.333 6 -310 6c-146.667 0 -254.334 -2 -323.001 -6z
M1105 721.001c0 -213.333 33.167 -385.499 99.5 -516.499s148.5 -196.5 246.5 -196.5c66.667 0 125.167 30.5 175.5 91.5s89 146 116 255s40.5 233.833 40.5 374.5c0 142 -15.5 267.667 -46.5 377s-72.667 192.666 -125 249.999s-110.5 86 -174.5 86
c-66 0 -124.333 -30.5 -175 -91.5s-89.5 -146 -116.5 -255s-40.5 -233.833 -40.5 -374.5z" />
    <glyph glyph-name="afii10049" unicode="&#x42f;" horiz-adv-x="1428" 
d="M-38 90l28.0039 24.9971c26 -31.333 54 -47 84 -47c25.333 0 44.666 10.667 57.999 32s25.666 59.666 36.999 114.999l42 211c16.667 84 55.5 145.833 116.5 185.5s152.5 67.167 274.5 82.5l11 2c-85.333 9.33301 -158.5 26.166 -219.5 50.499s-108 54.333 -141 90
s-56.833 73.334 -71.5 113.001s-22 82.834 -22 129.501c0 118.667 47.5 209.834 142.5 273.501s236.833 95.5 425.5 95.5c10 0 53.167 -0.666992 129.5 -2s140.166 -2 191.499 -2c138.667 0 242.334 2 311.001 6v-41c-34.667 -1.33301 -61 -4.16602 -79 -8.49902
s-33.167 -13.166 -45.5 -26.499s-20.166 -30.5 -23.499 -51.5s-5 -50.833 -5 -89.5v-1016c0 -39.333 1.66699 -69.333 5 -90s11.166 -37.667 23.499 -51s27.5 -22.166 45.5 -26.499s44.333 -7.16602 79 -8.49902v-41c-68.667 4 -176.334 6 -323.001 6
c-133.333 0 -236.333 -2 -309 -6v41c34.667 1.33301 61 4.16602 79 8.49902s33.167 13.166 45.5 26.499s20.166 30.5 23.499 51.5s5 50.833 5 89.5v471h-149c-24.667 0 -46.667 -4.83301 -66 -14.5s-35.333 -22.167 -48 -37.5s-24 -36.5 -34 -63.5s-18 -53.333 -24 -79
s-12.333 -57.834 -19 -96.501l-37 -204c-14 -81.333 -43.833 -138.666 -89.5 -171.999s-107.167 -50 -184.5 -50c-58.667 0 -109.167 9.33301 -151.5 28s-80.833 49 -115.5 91zM499.004 1075c0 -52.667 4.16797 -98.333 12.501 -137s22.666 -74.5 42.999 -107.5
s50.5 -58.167 90.5 -75.5s89 -26 147 -26h88v504c0 71.333 -8 118.5 -24 141.5s-50.333 34.5 -103 34.5c-90 0 -154.833 -28.333 -194.5 -85s-59.5 -139.667 -59.5 -249z" />
    <glyph glyph-name="afii10065" unicode="&#x430;" horiz-adv-x="1060" 
d="M59 219c0 71.333 23.333 130.169 70 176.502s119.334 87.833 218.001 124.5c100 38 164 65 192 81c51.333 29.333 77 63.666 77 102.999v160c0 122 -55.667 183 -167 183c-63.333 0 -112 -16.667 -146 -50c80.667 -27.333 121 -81 121 -161
c0 -42.667 -15.333 -77.834 -46 -105.501s-71 -41.5 -121 -41.5c-44 0 -79.167 14.833 -105.5 44.5s-39.5 67.5 -39.5 113.5c0 69.333 38.333 126.333 115 171c83.333 46.667 187 70 311 70c140.667 0 240.667 -30.667 300 -92c28.667 -29.333 48 -65.5 58 -108.5
s15 -102.5 15 -178.5v-557c0 -33.333 3.16699 -56.833 9.5 -70.5s17.833 -20.5 34.5 -20.5c20 0 45 11.667 75 35l21 -35c-62 -50 -140 -75 -234 -75c-70 0 -120.167 15.333 -150.5 46s-45.833 70.667 -46.5 120c-33.333 -55.333 -76.833 -96.833 -130.5 -124.5
s-110.834 -41.5 -171.501 -41.5c-78 0 -140.667 20.5 -188 61.5s-71 98.167 -71 171.5zM350 276.003c0 -54 11.667 -93.999 35 -119.999s54.333 -39 93 -39c52.667 0 98.667 27.667 138 83v420c-8.66699 -14.667 -22.5 -29.334 -41.5 -44.001s-47.5 -33.667 -85.5 -57
c-43.333 -32 -77.333 -66.5 -102 -103.5s-37 -83.5 -37 -139.5z" />
    <glyph glyph-name="afii10066" unicode="&#x431;" horiz-adv-x="1185" 
d="M107 627c0 58 2.33203 115.998 6.99902 173.998s13.167 124 25.5 198s32.666 143.333 60.999 208s62.833 116.334 103.5 155.001c60.667 56.667 146 91.667 256 105c34 4 68.833 7 104.5 9s71.834 3.66699 108.501 5s61.334 2.33301 74.001 3c70 4 123.167 15 159.5 33
s66.833 48.333 91.5 91l31 -6c-28.667 -138.667 -74.334 -233.667 -137.001 -285c-52.667 -43.333 -132.334 -68 -239.001 -74c-68 -3.33301 -138 -9 -210 -17c-48 -5.33301 -88.667 -12.333 -122 -21s-63.833 -21.667 -91.5 -39s-50.334 -37.5 -68.001 -60.5
s-33.667 -53.5 -48 -91.5s-26.166 -80.167 -35.499 -126.5s-18.333 -103.166 -27 -170.499c21.333 72.667 56.333 133.167 105 181.5s104.5 83.166 167.5 104.499s133.167 32 210.5 32c150 0 266.5 -43.667 349.5 -131s124.5 -215.666 124.5 -384.999
c0 -180.667 -46.333 -317.167 -139 -409.5s-219 -138.5 -379 -138.5c-90 0 -166.167 13.833 -228.5 41.5s-112.166 70 -149.499 127s-64.166 125 -80.499 204s-24.5 173.5 -24.5 283.5zM414.999 516.998c0 -167.333 18.5 -293.334 55.5 -378.001s83.833 -127 140.5 -127
c43.333 0 79.333 23.167 108 69.5s49.167 106.833 61.5 181.5s18.5 162.334 18.5 263.001c0 162 -16.667 280.333 -50 355s-79 112 -137 112c-27.333 0 -52.5 -8.33301 -75.5 -25s-43.833 -43 -62.5 -79s-33.167 -85.5 -43.5 -148.5s-15.5 -137.5 -15.5 -223.5z" />
    <glyph glyph-name="afii10067" unicode="&#x432;" horiz-adv-x="1174" 
d="M50 0v43c48.667 0 82.667 10.5 102 31.5s29 59.5 29 115.5v677c0 56.667 -9.66699 95.5 -29 116.5s-53.333 31.5 -102 31.5v43c156 -6 245.333 -9 268 -9c44 0 103 1.5 177 4.5s123.333 4.5 148 4.5c276 0 414 -80.667 414 -242c0 -68 -30.833 -126.167 -92.5 -174.5
s-151.834 -78.833 -270.501 -91.5c147.333 -4.66699 252.833 -29 316.5 -73s95.5 -108.667 95.5 -194c0 -188.667 -144.333 -283 -433 -283c-25.333 -0 -77.166 1.33301 -155.499 4s-140.5 4 -186.5 4c-43.333 0 -137 -2.66699 -281 -8zM476 190
c0 -58.667 7.83105 -97.833 23.498 -117.5s44.834 -29.5 87.501 -29.5c143.333 0 215 79.333 215 238c0 84 -19.667 144.333 -59 181s-99.666 55 -180.999 55h-86v-327zM475.998 555.001l32 -0.00195312c98.667 2 165 21.333 199 58s51 96.334 51 179.001
c0 33.333 -2.33301 62.333 -7 87s-13.167 47.834 -25.5 69.501s-30.5 38.167 -54.5 49.5s-54 17 -90 17c-40 0 -67.5 -10.167 -82.5 -30.5s-22.5 -59.5 -22.5 -117.5v-312z" />
    <glyph glyph-name="afii10068" unicode="&#x433;" horiz-adv-x="956" 
d="M50 0v42.998c48.667 0 82.667 10.5 102 31.5s29 59.5 29 115.5v677c0 56.667 -9.66699 95.5 -29 116.5s-53.333 31.5 -102 31.5v43c156 -6 246 -9 270 -9c36.667 0 86.167 1.5 148.5 4.5s102.5 4.5 120.5 4.5h315c-9.33301 -108 -14 -203.667 -14 -287
c0 -59.333 2 -105.666 6 -138.999h-47c-24.667 135.333 -57.334 233 -98.001 293s-91 90 -151 90h-36c-32 0 -54.667 -9 -68 -27s-20 -50 -20 -96v-681c0 -63.333 15.833 -107.166 47.5 -131.499s79.834 -36.5 144.501 -36.5v-43c-189.333 5.33301 -306.666 8 -351.999 8
c-38.667 0 -127.334 -2.66699 -266.001 -8z" />
    <glyph glyph-name="afii10069" unicode="&#x434;" horiz-adv-x="1122" 
d="M13 43l39.0029 0.00488281c41.333 0 77.833 14.333 109.5 43s56.5 65 74.5 109c23.333 55.333 43.166 123.666 59.499 204.999s27.833 154.166 34.5 218.499s13.667 147.166 21 248.499c0 2.66699 0.166992 6.16699 0.5 10.5s0.5 7.5 0.5 9.5
c0 47.333 -13.167 80.5 -39.5 99.5s-67.5 28.5 -123.5 28.5v43c46 -4 91.333 -6 136 -6c16 0 45.5 1 88.5 3s81.167 3 114.5 3c37.333 0 83.166 -1.5 137.499 -4.5s94.5 -4.5 120.5 -4.5c22.667 0 107.667 3 255 9v-43c-44.667 0 -75.667 -10.333 -93 -31
s-26 -59.334 -26 -116.001v-678c0 -56.667 11.667 -95.334 35 -116.001s66.666 -31 129.999 -31c-9.33301 -89.333 -14 -168.666 -14 -237.999c0 -54 2 -96.333 6 -127h-47c-19.333 122 -49.333 206.667 -90 254s-106 71 -196 71c-35.333 0 -93.5 -0.5 -174.5 -1.5
s-153.5 -1.5 -217.5 -1.5c-89.333 0 -154.5 -23.333 -195.5 -70s-71.167 -130.667 -90.5 -252h-47c4 30.667 6 73 6 127c0 69.333 -4.66699 148.666 -14 237.999zM162.003 43.0049h329.999c50.667 0 86 10.5 106 31.5s30 59.5 30 115.5v677
c0 56.667 -8.16699 95.5 -24.5 116.5s-45.166 31.5 -86.499 31.5h-19c-41.333 0 -68 -9.66699 -80 -29s-20.667 -59 -26 -119c-8 -93.333 -13.667 -157.5 -17 -192.5s-9.83301 -89.333 -19.5 -163s-21 -135.667 -34 -186s-28.833 -96.833 -47.5 -139.5
c-28.667 -66 -66 -113.667 -112 -143z" />
    <glyph glyph-name="afii10070" unicode="&#x435;" horiz-adv-x="1033" 
d="M76 519c0 184 45.8311 324.83 137.498 422.497s212.834 146.5 363.501 146.5c256.667 0 385 -151.667 385 -455h-573c-2.66699 -26.667 -4 -59 -4 -97c0 -68.667 7.66699 -129.167 23 -181.5s36 -93.666 62 -123.999s54.333 -53 85 -68s63 -22.5 97 -22.5
c112.667 0 202.334 54.667 269.001 164l37 -14c-12.667 -40.667 -30.5 -79.167 -53.5 -115.5s-51 -70.166 -84 -101.499s-73 -56.166 -120 -74.499s-97.833 -27.5 -152.5 -27.5c-144 0 -258.667 46.167 -344 138.5s-128 228.833 -128 409.5zM382.998 671.997h321
c2 106.667 -8.83301 195.334 -32.5 266.001s-59.167 106 -106.5 106c-48.667 0 -89.167 -30.333 -121.5 -91s-52.5 -154.334 -60.5 -281.001z" />
    <glyph glyph-name="afii10072" unicode="&#x436;" horiz-adv-x="1809" 
d="M13 0l-0.00585938 43.001c32 4 56.167 14.167 72.5 30.5s32.5 43.833 48.5 82.5c10.667 27.333 23.167 63 37.5 107s27.833 80.833 40.5 110.5s27.334 55.5 44.001 77.5c60 78 163 117 309 117c12 0 29.333 -0.666992 52 -2c-39.333 17.333 -69.166 42 -89.499 74
s-39.166 77.333 -56.499 136c-2.66699 10 -7.33398 26.333 -14.001 49l-13.5 46c-2.33301 8 -6.33301 20.5 -12 37.5s-10.167 28.667 -13.5 35l-14.5 27c-6.33301 11.667 -12.333 19.834 -18 24.501l-21 16.5c-8.33301 6.33301 -17.166 11 -26.499 14s-20 5.16699 -32 6.5
c48 -26 72 -63.333 72 -112s-16.833 -86 -50.5 -112s-72.5 -39 -116.5 -39c-45.333 0 -82.166 14 -110.499 42s-42.5 66 -42.5 114c0 49.333 15.833 88.833 47.5 118.5s80.5 44.5 146.5 44.5c18.667 0 36 -1.5 52 -4.5s30.333 -6.66699 43 -11s24.667 -11.333 36 -21
s20.833 -18.167 28.5 -25.5s15.5 -18.5 23.5 -33.5l19.5 -37.5c5 -10 10.667 -24.833 17 -44.5s11.166 -35.334 14.499 -47.001l15 -52.5c8.66699 -30 16.167 -54 22.5 -72s14.333 -37.167 24 -57.5s20.167 -36.166 31.5 -47.499s25.333 -22.5 42 -33.5
s36.167 -19.333 58.5 -25s48.166 -9.83398 77.499 -12.501v304c0 56.667 -9.16699 95.5 -27.5 116.5s-50.166 31.5 -95.499 31.5v43c156 -6 248 -9 276 -9c26 0 114 3 264 9v-43c-45.333 0 -77.166 -10.5 -95.499 -31.5s-27.5 -59.833 -27.5 -116.5v-303
c40.667 4.66699 74 12.334 100 23.001s48 27.167 66 49.5s32 45.666 42 69.999s21.667 59.166 35 104.499l15 52.5c3.33301 11.667 8.16602 27.334 14.499 47.001s12 34.5 17 44.5l19.5 37.5c8 15 15.833 26.167 23.5 33.5s17.167 15.833 28.5 25.5s23.333 16.667 36 21
s27 8 43 11s33.333 4.5 52 4.5c65.333 0 113.833 -14.833 145.5 -44.5s47.5 -69.167 47.5 -118.5c0 -48 -14 -86 -42 -114s-64.667 -42 -110 -42c-44 0 -82.833 13 -116.5 39s-50.5 63.333 -50.5 112c0 49.333 23.667 86.666 71 111.999c-30.667 -4 -55.667 -16.333 -75 -37
s-33.166 -42.167 -41.499 -64.5s-20.5 -61.166 -36.5 -116.499c-1.33301 -5.33301 -2.5 -9.5 -3.5 -12.5s-2.16699 -7 -3.5 -12s-2.66602 -9.5 -3.99902 -13.5c-18 -58.667 -37.167 -104 -57.5 -136s-49.5 -56.333 -87.5 -73c11.333 0.666992 29 1 53 1
c144 0 246.333 -39 307 -117c16.667 -22 31.334 -48.167 44.001 -78.5s26.167 -67.333 40.5 -111s26.833 -78.834 37.5 -105.501c15.333 -38 31.333 -65.333 48 -82s41 -27 73 -31v-43c-56 -8.66699 -105.667 -13 -149 -13c-80.667 0 -142.667 15.333 -186 46
s-75 82.334 -95 155.001c-0.666992 2.66699 -3.83398 14.667 -9.50098 36l-12.5 46c-2.66699 9.33301 -7.5 24.333 -14.5 45s-13.333 37.667 -19 51s-13.167 28.166 -22.5 44.499s-19 30.5 -29 42.5c-23.333 28 -50.166 47.5 -80.499 58.5s-68.166 16.167 -113.499 15.5
v-337c0 -56 8.16699 -94.5 24.5 -115.5s45.166 -31.5 86.499 -31.5v-43c-133.333 5.33301 -220.666 8 -261.999 8s-126 -2.66699 -254 -8v43c41.333 0 70.166 10.5 86.499 31.5s24.5 59.5 24.5 115.5v336c-6 0.666992 -15 1 -27 1c-80.667 0 -140.667 -24.667 -180 -74
c-40.667 -50 -76.667 -138.333 -108 -265c-17.333 -72 -48.833 -123.5 -94.5 -154.5s-108.167 -46.5 -187.5 -46.5c-42.667 0 -91.667 4.33301 -147 13z" />
    <glyph glyph-name="afii10073" unicode="&#x437;" horiz-adv-x="1002" 
d="M52 196c0 42.667 13.8291 77.4961 41.4961 104.496s65.834 40.5 114.501 40.5c48 0 87.333 -13.167 118 -39.5s46 -61.166 46 -104.499c0 -36.667 -11.5 -67.667 -34.5 -93s-52.5 -42.666 -88.5 -51.999c11.333 -10.667 30.666 -20 57.999 -28s56.333 -12 87 -12
c76.667 0 137.5 23.167 182.5 69.5s67.5 110.5 67.5 192.5c0 68.667 -16 128.334 -48 179.001s-79.333 82 -142 94c-33.333 -17.333 -62 -26 -86 -26c-30 0 -45 11.333 -45 34c0 22 15.667 33 47 33c18.667 0 47.334 -4 86.001 -12c90 41.333 135 121.666 135 240.999
c0 138.667 -53.333 208 -160 208c-77.333 0 -140.166 -31.167 -188.499 -93.5s-74.166 -141.166 -77.499 -236.499h-47c0 12.667 0.166992 29.834 0.5 51.501s0.5 37.167 0.5 46.5c0 108 -3.66699 201 -11 279h47c4 -31.333 9.33301 -54.166 16 -68.499
s16.334 -21.5 29.001 -21.5c12 0 35.333 11.667 70 35c74 47.333 159 71 255 71c108 0 195 -21 261 -63s99 -101.667 99 -179c0 -43.333 -11.333 -82 -34 -116s-54 -61.667 -94 -83s-81.833 -38.333 -125.5 -51s-91.834 -22.667 -144.501 -30
c304 -4.66699 456 -94.334 456 -269.001c0 -98.667 -46.5 -177.667 -139.5 -237s-216.833 -89 -371.5 -89c-117.333 0 -210.666 22.333 -279.999 67c-66.667 41.333 -100 94 -100 158z" />
    <glyph glyph-name="afii10074" unicode="&#x438;" horiz-adv-x="1342" 
d="M50 0l0.00195312 43.001c48.667 0 82.667 10.5 102 31.5s29 59.5 29 115.5v677c0 56.667 -9.66699 95.5 -29 116.5s-53.333 31.5 -102 31.5v43c156 -6 246 -9 270 -9c27.333 0 116 3 266 9v-43c-41.333 0 -70 -10.5 -86 -31.5s-24 -59.833 -24 -116.5v-638l391 661
c-2 47.333 -11.333 80 -28 98s-44.334 27 -83.001 27v43c144 -6 228.667 -9 254 -9c24 0 118.333 3 283 9v-43c-48.667 0 -82.667 -10.5 -102 -31.5s-29 -59.833 -29 -116.5v-677c0 -56 9.66699 -94.5 29 -115.5s53.333 -31.5 102 -31.5v-43c-138.667 5.33301 -229 8 -271 8
c-41.333 0 -130 -2.66699 -266 -8v43c41.333 0 70.166 10.5 86.499 31.5s24.5 59.5 24.5 115.5v623l-390 -662c3.33301 -40.667 13.333 -68.834 30 -84.501s43 -23.5 79 -23.5v-43c-128 5.33301 -212.667 8 -254 8c-44 0 -138 -2.66699 -282 -8z" />
    <glyph glyph-name="afii10075" unicode="&#x439;" horiz-adv-x="1342" 
d="M50 0l0.00195312 43.001c48.667 0 82.667 10.5 102 31.5s29 59.5 29 115.5v677c0 56.667 -9.66699 95.5 -29 116.5s-53.333 31.5 -102 31.5v43c156 -6 246 -9 270 -9c27.333 0 116 3 266 9v-43c-41.333 0 -70 -10.5 -86 -31.5s-24 -59.833 -24 -116.5v-638l391 661
c-2 47.333 -11.333 80 -28 98s-44.334 27 -83.001 27v43c144 -6 228.667 -9 254 -9c24 0 118.333 3 283 9v-43c-48.667 0 -82.667 -10.5 -102 -31.5s-29 -59.833 -29 -116.5v-677c0 -56 9.66699 -94.5 29 -115.5s53.333 -31.5 102 -31.5v-43c-138.667 5.33301 -229 8 -271 8
c-41.333 0 -130 -2.66699 -266 -8v43c41.333 0 70.166 10.5 86.499 31.5s24.5 59.5 24.5 115.5v623l-390 -662c3.33301 -40.667 13.333 -68.834 30 -84.501s43 -23.5 79 -23.5v-43c-128 5.33301 -212.667 8 -254 8c-44 0 -138 -2.66699 -282 -8zM242.002 1481
c0 44 13.832 80 41.499 108s63.834 42 108.501 42c43.333 0 79.5 -14 108.5 -42s43.5 -64.333 43.5 -109c0 -35.333 -10.333 -65.5 -31 -90.5s-48 -42.833 -82 -53.5c60.667 -32 140.334 -48 239.001 -48c99.333 0 178.666 16.333 237.999 49
c-34 10 -60.833 27.5 -80.5 52.5s-29.5 55.167 -29.5 90.5c0 44.667 14.333 81 43 109s65 42 109 42s80 -14 108 -42s42 -64 42 -108c0 -33.333 -10.167 -64 -30.5 -92s-46.833 -51.333 -79.5 -70c-81.333 -48 -188 -72 -320 -72c-132.667 0 -239.667 24 -321 72
c-32 18.667 -57.833 42 -77.5 70s-29.5 58.667 -29.5 92z" />
    <glyph glyph-name="afii10076" unicode="&#x43a;" horiz-adv-x="1257" 
d="M50 0l-0.00488281 42.9971c48.667 0 82.667 10.5 102 31.5s29 59.5 29 115.5v677c0 56.667 -9.66699 95.5 -29 116.5s-53.333 31.5 -102 31.5v43c162 -6 256.333 -9 283 -9s115 3 265 9v-43c-45.333 0 -77 -10.5 -95 -31.5s-27 -59.833 -27 -116.5v-305
c45.333 2.66699 82.833 9.33398 112.5 20.001s54.167 27.334 73.5 50.001s34.333 46.834 45 72.501s22.334 61.167 35.001 106.5l19 66.5c4.66699 16.333 11.334 35.666 20.001 57.999s16.834 39.833 24.501 52.5s17.667 26.334 30 41.001s25.666 25.667 39.999 33
s31.333 13.5 51 18.5s41.5 7.5 65.5 7.5c64.667 0 113 -15 145 -45s48 -69.333 48 -118c0 -48 -14.167 -86 -42.5 -114s-65.166 -42 -110.499 -42c-44 0 -82.833 13 -116.5 39s-50.5 63.333 -50.5 112s24 86 72 112c-43.333 -5.33301 -74.166 -23.166 -92.499 -53.499
s-38.833 -85.833 -61.5 -166.5c-4 -15.333 -7.33301 -27.333 -10 -36c-18 -58 -36.667 -102.667 -56 -134s-48.333 -55.666 -87 -72.999c25.333 1.33301 43.666 2 54.999 2c142 0 243 -40 303 -120c16.667 -21.333 31.334 -47.333 44.001 -78s26.167 -67.834 40.5 -111.501
s26.833 -78.834 37.5 -105.501c16 -38.667 32.167 -66.167 48.5 -82.5s40.5 -26.5 72.5 -30.5v-43c-55.333 -8.66699 -104 -13 -146 -13c-80.667 0 -143.667 15.667 -189 47s-76.666 82.666 -93.999 153.999l-6 20c-3.33301 14 -5.66602 23.333 -6.99902 28l-8 29
c-4 14.667 -7.5 25.834 -10.5 33.501s-6.83301 18.334 -11.5 32.001s-9.16699 25.167 -13.5 34.5l-14.5 31c-5.33301 11.333 -11 21.666 -17 30.999s-12 18 -18 26c-39.333 49.333 -102 74 -188 74c-3.33301 0 -8.5 -0.166992 -15.5 -0.5s-12.5 -0.5 -16.5 -0.5v-336
c0 -56 9 -94.5 27 -115.5s49.667 -31.5 95 -31.5v-43c-138.667 5.33301 -230.334 8 -275.001 8c-43.333 0 -134.333 -2.66699 -273 -8z" />
    <glyph glyph-name="afii10077" unicode="&#x43b;" horiz-adv-x="1245" 
d="M5 157c0 51.333 14.9971 91.8359 44.9971 121.503s69 44.5 117 44.5c46 0 82.167 -13.833 108.5 -41.5s39.5 -62.834 39.5 -105.501c0 -74.667 -43.333 -130 -130 -166c4.66699 -2 13.667 -3 27 -3c75.333 0 138.333 62.667 189 188c53.333 134 91.333 358 114 672
c0 2.66699 0.166992 6.16699 0.5 10.5s0.5 7.5 0.5 9.5c0 47.333 -13.167 80.5 -39.5 99.5s-67.5 28.5 -123.5 28.5v43c46 -4 89.333 -6 130 -6c18.667 0 47.5 0.333008 86.5 1s73.5 1 103.5 1c40 0 86.833 -0.833008 140.5 -2.5s94.834 -2.5 123.501 -2.5
c20.667 0 104.334 3 251.001 9v-43c-44.667 0 -75.667 -10.5 -93 -31.5s-26 -59.833 -26 -116.5v-677c0 -56 8.83301 -94.5 26.5 -115.5s48.5 -31.5 92.5 -31.5v-43c-130.667 5.33301 -218.334 8 -263.001 8c-41.333 0 -140.666 -2.66699 -297.999 -8v43
c52 0 89.667 10.667 113 32s35 59.666 35 114.999v677c0 56.667 -8.16699 95.5 -24.5 116.5s-45.166 31.5 -86.499 31.5h-18c-35.333 0 -57.833 -9.33301 -67.5 -28s-17.167 -58.667 -22.5 -120c-10 -112.667 -18.333 -198.834 -25 -258.501
s-18.167 -130.834 -34.5 -213.501s-35.833 -152.667 -58.5 -210c-58 -142.667 -137 -214 -237 -214c-51.333 0 -96.833 15.833 -136.5 47.5s-59.5 77.834 -59.5 138.501z" />
    <glyph glyph-name="afii10078" unicode="&#x43c;" horiz-adv-x="1522" 
d="M45 0v40.999c56 2.66699 93.5 24.834 112.5 66.501s28.5 106.834 28.5 195.501v540c0 51.333 -3.66699 88.5 -11 111.5s-20.166 39 -38.499 48s-48.833 14.5 -91.5 16.5v41c46.667 -4.66699 102 -7 166 -7c91.333 0 182.666 2.33301 273.999 7l279 -699l283 692
c33.333 -1.33301 88.666 -2 165.999 -2c41.333 0 125 2.33301 251 7v-42c-49.333 -1.33301 -82.166 -12.166 -98.499 -32.499s-24.5 -62.5 -24.5 -126.5v-656c0 -63.333 8.16699 -105.333 24.5 -126s49.166 -31.667 98.499 -33v-42c-87.333 4.66699 -175 7 -263 7
c-101.333 0 -198 -2.33301 -290 -7v42c54 1.33301 90.167 12.333 108.5 33s27.5 62.667 27.5 126v740l-391 -951h-33l-392 939v-638c0 -86.667 13 -149.334 39 -188.001s76.667 -59.334 152 -62.001v-41c-57.333 4 -127.666 6 -210.999 6c-70.667 0 -126 -2 -166 -6z" />
    <glyph glyph-name="afii10079" unicode="&#x43d;" horiz-adv-x="1305" 
d="M50 0l0.000976562 43c48.667 0 82.667 10.5 102 31.5s29 59.5 29 115.5v677c0 56.667 -9.66699 95.5 -29 116.5s-53.333 31.5 -102 31.5v43c156 -6 246 -9 270 -9c27.333 0 116 3 266 9v-43c-41.333 0 -70 -10.5 -86 -31.5s-24 -59.833 -24 -116.5v-301h354v301
c0 56.667 -8.16699 95.5 -24.5 116.5s-45.166 31.5 -86.499 31.5v43c144 -6 228.667 -9 254 -9c23.333 0 117.666 3 282.999 9v-43c-48.667 0 -82.667 -10.5 -102 -31.5s-29 -59.833 -29 -116.5v-677c0 -56 9.66699 -94.5 29 -115.5s53.333 -31.5 102 -31.5v-43
c-138.667 5.33301 -229 8 -271 8c-41.333 0 -130 -2.66699 -266 -8v43c41.333 0 70.166 10.5 86.499 31.5s24.5 59.5 24.5 115.5v335h-354v-335c0 -56 8 -94.5 24 -115.5s44.667 -31.5 86 -31.5v-43c-128 5.33301 -212.667 8 -254 8c-44 0 -138 -2.66699 -282 -8z" />
    <glyph glyph-name="afii10080" unicode="&#x43e;" horiz-adv-x="1157" 
d="M77 529c0 98.667 12.166 184.5 36.499 257.5s59.166 131.167 104.499 174.5s97.833 75.333 157.5 96s127.167 31 202.5 31c76 0 143.833 -10.333 203.5 -31s112.167 -52.667 157.5 -96s80.166 -101.5 104.499 -174.5s36.5 -158.833 36.5 -257.5
c0 -99.333 -12.167 -185.333 -36.5 -258s-59.166 -130.667 -104.499 -174s-97.833 -75.166 -157.5 -95.499s-127.5 -30.5 -203.5 -30.5s-143.667 10.167 -203 30.5s-111.666 52.166 -156.999 95.499s-80.166 101.333 -104.499 174s-36.5 158.667 -36.5 258zM385.999 529
c0 -175.333 17.333 -305.333 52 -390s81.334 -127 140.001 -127c59.333 0 106.333 42.333 141 127s52 214.667 52 390s-17.333 305.5 -52 390.5s-81.667 127.5 -141 127.5c-58.667 0 -105.334 -42.5 -140.001 -127.5s-52 -215.167 -52 -390.5z" />
    <glyph glyph-name="afii10081" unicode="&#x43f;" horiz-adv-x="1305" 
d="M50 0l0.000976562 43c48.667 0 82.667 10.5 102 31.5s29 59.5 29 115.5v677c0 56.667 -9.66699 95.5 -29 116.5s-53.333 31.5 -102 31.5v43c156 -6 246 -9 270 -9c33.333 0 85.5 1.5 156.5 4.5s129.5 4.5 175.5 4.5c46.667 0 103 -1.5 169 -4.5s116.667 -4.5 152 -4.5
c23.333 0 117.666 3 282.999 9v-43c-48.667 0 -82.667 -10.5 -102 -31.5s-29 -59.833 -29 -116.5v-677c0 -56 9.66699 -94.5 29 -115.5s53.333 -31.5 102 -31.5v-43c-138.667 5.33301 -229 8 -271 8c-41.333 0 -130 -2.66699 -266 -8v43c41.333 0 70.166 10.5 86.499 31.5
s24.5 59.5 24.5 115.5v677c0 56.667 -8.16699 95.5 -24.5 116.5s-45.166 31.5 -86.499 31.5h-133c-41.333 0 -70 -10.5 -86 -31.5s-24 -59.833 -24 -116.5v-677c0 -56 8 -94.5 24 -115.5s44.667 -31.5 86 -31.5v-43c-128 5.33301 -212.667 8 -254 8
c-44 0 -138 -2.66699 -282 -8z" />
    <glyph glyph-name="afii10082" unicode="&#x440;" horiz-adv-x="1228" 
d="M40 1015l0.00292969 43c43.333 -4 85.666 -6 126.999 -6c121.333 0 221 9.66699 299 29v-192c28 64.667 69.667 114 125 148s119.666 51 192.999 51c108.667 0 196.834 -44 264.501 -132s101.5 -214.333 101.5 -379c0 -195.333 -42.333 -345.166 -127 -449.499
s-200.334 -156.5 -347.001 -156.5c-88 0 -158 22 -210 66v-205c0 -60 15.167 -101.667 45.5 -125s76.5 -35 138.5 -35v-43c-206.667 6 -321.334 9 -344.001 9c-18.667 0 -104.667 -3 -258 -9v43c46 0 78 10 96 30s27 56.667 27 110v1023
c0 63.333 -9.83301 109.166 -29.5 137.499s-53.5 42.5 -101.5 42.5zM466.003 82c31.333 -36.667 74.667 -55 130 -55c87.333 0 150 43.5 188 130.5s57 213.5 57 379.5c0 112.667 -7.5 204 -22.5 274s-35.167 119 -60.5 147s-56.666 42 -93.999 42
c-46.667 0 -88.334 -16 -125.001 -48s-61 -76.333 -73 -133v-737z" />
    <glyph glyph-name="afii10083" unicode="&#x441;" horiz-adv-x="1016" 
d="M75 524c0 179.333 46.8301 318.168 140.497 416.501s215.5 147.5 365.5 147.5c104.667 0 190.334 -21 257.001 -63c35.333 -21.333 63 -48.5 83 -81.5s30 -69.5 30 -109.5c0 -48.667 -15.167 -88.334 -45.5 -119.001s-69.166 -46 -116.499 -46
c-48.667 0 -87.167 13.833 -115.5 41.5s-42.5 64.5 -42.5 110.5c0 41.333 12.833 77 38.5 107s57.834 50.333 96.501 61c-10.667 14 -27.167 25.667 -49.5 35s-46.833 14 -73.5 14c-55.333 0 -102.666 -21.333 -141.999 -64s-68.666 -100 -87.999 -172s-29 -155 -29 -249
c0 -76 7.66699 -141.833 23 -197.5s36.166 -98.667 62.499 -129s54.833 -52.333 85.5 -66s64 -20.5 100 -20.5c111.333 0 200.666 55.667 267.999 167l36 -13c-12.667 -40.667 -29.834 -79.167 -51.501 -115.5s-48.667 -70.5 -81 -102.5s-72.166 -57.5 -119.499 -76.5
s-99 -28.5 -155 -28.5c-68 0 -130.5 11 -187.5 33s-107.333 55 -151 99s-77.667 101.833 -102 173.5s-36.5 154.167 -36.5 247.5z" />
    <glyph glyph-name="afii10084" unicode="&#x442;" horiz-adv-x="1194" 
d="M53 1057l218 -0.00292969c21.333 0 69.5 -1.16699 144.5 -3.5s134.833 -3.5 179.5 -3.5s105.167 1.33301 181.5 4s125.166 4 146.499 4h217c-9.33301 -108 -14 -203.667 -14 -287c0 -59.333 2 -105.666 6 -138.999h-47c-44 255.333 -135 383 -273 383h-68v-804
c0 -63.333 16 -107.166 48 -131.499s80.333 -36.5 145 -36.5v-43c-186.667 5.33301 -299.667 8 -339 8c-43.333 0 -157 -2.66699 -341 -8v43c66.667 0 115.334 10.5 146.001 31.5s46 62.5 46 124.5v816h-75c-62.667 0 -116.5 -29.167 -161.5 -87.5
s-79.5 -157.166 -103.5 -296.499h-48c4.66699 30.667 7 77 7 139c0 75.333 -5 171 -15 287z" />
    <glyph glyph-name="afii10085" unicode="&#x443;" horiz-adv-x="1063" 
d="M-28 1017l0.00390625 43.001c86 -8.66699 179.667 -13 281 -13c88 0 182.667 4.33301 284 13v-43c-21.333 0 -37.833 -0.333008 -49.5 -1s-24.834 -2.83398 -39.501 -6.50098s-25.167 -9.66699 -31.5 -18s-9.5 -19.166 -9.5 -32.499c0 -14.667 5 -34 15 -58l251 -605
l141 395c22 64.667 33 119 33 163c0 51.333 -13.333 90.5 -40 117.5s-64 42.167 -112 45.5v43c56 -5.33301 122 -8 198 -8c72.667 0 125 2.66699 157 8v-43c-58 -14.667 -105 -73.334 -141 -176.001l-288 -809l-79 -220c-24.667 -68 -54.334 -116.667 -89.001 -146
c-40.667 -34 -100.334 -51 -179.001 -51c-56.667 0 -107.834 14 -153.501 42s-68.5 69 -68.5 123c0 42 14.833 75.5 44.5 100.5s69.167 37.5 118.5 37.5c46.667 0 83.834 -11.167 111.501 -33.5s41.5 -54.5 41.5 -96.5c0 -28 -8.83301 -54 -26.5 -78
s-42.834 -41.667 -75.501 -53c9.33301 -2.66699 25 -4 47 -4c86.667 0 148.667 54.333 186 163l34 99l-434 987c-36 76.667 -78.333 115 -127 115z" />
    <glyph glyph-name="afii10086" unicode="&#x444;" horiz-adv-x="1730" 
d="M79 527c0 184.667 38.8281 324.333 116.495 419s183.834 142 318.501 142c86 0 154 -23 204 -69v210c0 63.333 -9.83301 109.166 -29.5 137.499s-53.5 42.5 -101.5 42.5v43c43.333 -4 88.333 -6 135 -6c114.667 0 211.667 9.66699 291 29v-472
c30.667 27.333 69 48.333 115 63s92.667 22 140 22c120.667 0 214.834 -43.667 282.501 -131s101.5 -216.666 101.5 -387.999c0 -191.333 -40.833 -338.833 -122.5 -442.5s-193.5 -155.5 -335.5 -155.5c-75.333 0 -135.666 15 -180.999 45v-184
c0 -60 13.833 -101.667 41.5 -125s69.5 -35 125.5 -35v-43c-188.667 6 -293.667 9 -315 9c-20.667 0 -125.667 -3 -315 -9v43c56.667 0 98.834 11.667 126.501 35s41.5 65 41.5 125v206c-50 -44.667 -121 -67 -213 -67c-129.333 0 -232.666 46.5 -309.999 139.5
s-116 231.833 -116 416.5zM387.995 529.999c0 -117.333 8.16797 -212 24.501 -284s39.5 -123 69.5 -153s68.333 -45 115 -45c49.333 0 89.666 12 120.999 36v890c-36 36.667 -79.333 55 -130 55c-133.333 0 -200 -166.333 -200 -499zM1013 58.999
c29.333 -21.333 63.333 -32 102 -32c81.333 0 139.5 43.333 174.5 130s52.5 215 52.5 385c0 171.333 -16.167 292.5 -48.5 363.5s-81.833 106.5 -148.5 106.5c-54.667 0 -98.667 -16 -132 -48v-905z" />
    <glyph glyph-name="afii10087" unicode="&#x445;" horiz-adv-x="1097" 
d="M18 1017l-0.00195312 43.0029c138 -6 219 -9 243 -9c26.667 0 107.334 3 242.001 9v-43c-20.667 0 -37.334 -3.66699 -50.001 -11s-19 -17.333 -19 -30c0 -8.66699 3.33301 -18.334 10 -29.001l194 -288l78 103c46.667 60.667 70 113 70 157
c0 28.667 -10.5 51.667 -31.5 69s-51.833 27.666 -92.5 30.999v41c92 -4.66699 169.333 -7 232 -7c50.667 0 98.667 2.33301 144 7v-41c-56.667 -18.667 -119 -71.334 -187 -158.001l-190 -237l322 -479c14.667 -21.333 26.334 -37.166 35.001 -47.499
s20.334 -21.333 35.001 -33s29.667 -18.834 45 -21.501v-43c-112 5.33301 -185 8 -219 8c-42 0 -131 -2.66699 -267 -8v43c20.667 0 37.5 3.66699 50.5 11s19.5 17.333 19.5 30c0 8.66699 -3.33301 18.334 -10 29.001l-214 318l-71 -92c-46 -60 -69 -114.333 -69 -163
c0 -38 13.333 -69.167 40 -93.5s63 -38.166 109 -41.499v-41c-80 4 -178 6 -294 6c-56.667 0 -105 -2 -145 -6v41c31.333 11.333 61.5 29.166 90.5 53.499s61.5 59.166 97.5 104.499l218 268l-302 447c-23.333 35.333 -42.833 60.333 -58.5 75s-34.167 24 -55.5 28z" />
    <glyph glyph-name="afii10088" unicode="&#x446;" horiz-adv-x="1326" 
d="M50 0l-0.000976562 43c48.667 0 82.667 10.5 102 31.5s29 59.5 29 115.5v677c0 56.667 -9.66699 95.5 -29 116.5s-53.333 31.5 -102 31.5v43c156 -6 246 -9 270 -9c27.333 0 116 3 266 9v-43c-41.333 0 -70 -10.5 -86 -31.5s-24 -59.833 -24 -116.5v-677
c0 -56 8 -94.5 24 -115.5s44.667 -31.5 86 -31.5h133c41.333 0 70.166 10.5 86.499 31.5s24.5 59.5 24.5 115.5v677c0 56.667 -8.16699 95.5 -24.5 116.5s-45.166 31.5 -86.499 31.5v43c144 -6 228.667 -9 254 -9c23.333 0 117.666 3 282.999 9v-43
c-48.667 0 -82.667 -10.5 -102 -31.5s-29 -59.833 -29 -116.5v-677c0 -56.667 11.5 -95.334 34.5 -116.001s66.167 -31 129.5 -31c-9.33301 -89.333 -14 -169 -14 -239c0 -53.333 2 -95.666 6 -126.999h-47c-20.667 123.333 -53.5 208.833 -98.5 256.5
s-119.5 71.5 -223.5 71.5c-28 0 -66.667 -0.833008 -116 -2.5s-93.666 -2.5 -132.999 -2.5c-46.667 -0 -104.667 1.33301 -174 4s-121.666 4 -156.999 4c-44 0 -138 -2.66699 -282 -8z" />
    <glyph glyph-name="afii10089" unicode="&#x447;" horiz-adv-x="1223" 
d="M18 1015l-0.00292969 42.998c156 -6 246.667 -9 272 -9c26.667 0 115 3 265 9v-43c-41.333 0 -70.166 -10.5 -86.499 -31.5s-24.5 -59.833 -24.5 -116.5v-189c0 -33.333 0.666992 -59.833 2 -79.5s4.83301 -39.667 10.5 -60s13.834 -35.666 24.501 -45.999
s25.334 -18.666 44.001 -24.999s42 -9.5 70 -9.5c62.667 0 113.667 12.333 153 37v372c0 56.667 -8.16699 95.5 -24.5 116.5s-45.166 31.5 -86.499 31.5v43c144 -6 229.333 -9 256 -9c22 0 115.667 3 281 9v-43c-48.667 0 -82.667 -10.5 -102 -31.5s-29 -59.833 -29 -116.5
v-677c0 -56 9.66699 -94.5 29 -115.5s53.333 -31.5 102 -31.5v-43c-138.667 5.33301 -232 8 -280 8c-36.667 0 -149.667 -2.66699 -339 -8v43c64.667 0 113 12.167 145 36.5s48 68.166 48 131.499v242c-33.333 -17.333 -78.5 -32.333 -135.5 -45s-114.5 -19 -172.5 -19
c-104.667 0 -180.667 23.667 -228 71c-24.667 24 -41.167 54.333 -49.5 91s-12.5 85.334 -12.5 146.001v170c0 56.667 -9.83301 95.5 -29.5 116.5s-53.834 31.5 -102.501 31.5z" />
    <glyph glyph-name="afii10090" unicode="&#x448;" horiz-adv-x="1891" 
d="M50 0v43.001c48.667 0 82.667 10.5 102 31.5s29 59.5 29 115.5v677c0 56.667 -9.66699 95.5 -29 116.5s-53.333 31.5 -102 31.5v43c156 -6 246 -9 270 -9c24.667 0 110.667 3 258 9v-43c-38 0 -64.5 -10.5 -79.5 -31.5s-22.5 -59.833 -22.5 -116.5v-677
c0 -56.667 8.33301 -95.334 25 -116.001s46.667 -31 90 -31h96c41.333 0 70.166 10.5 86.499 31.5s24.5 59.5 24.5 115.5v677c0 56.667 -7.5 95.5 -22.5 116.5s-41.5 31.5 -79.5 31.5v43c138 -6 219.333 -9 244 -9c22.667 0 107.667 3 255 9v-43
c-38 0 -64.5 -10.5 -79.5 -31.5s-22.5 -59.833 -22.5 -116.5v-677c0 -56 8 -94.5 24 -115.5s44.667 -31.5 86 -31.5h102c41.333 0 70 10.5 86 31.5s24 59.5 24 115.5v677c0 56.667 -7.5 95.5 -22.5 116.5s-41.5 31.5 -79.5 31.5v43c138 -6 220.667 -9 248 -9
c24.667 0 118 3 280 9v-43c-48.667 0 -82.667 -10.5 -102 -31.5s-29 -59.833 -29 -116.5v-677c0 -56 9.66699 -94.5 29 -115.5s53.333 -31.5 102 -31.5v-43c-138.667 5.33301 -226.667 8 -264 8c-34 0 -84.667 -1.33301 -152 -4s-122.333 -4 -165 -4
c-45.333 -0 -101.666 1.33301 -168.999 4s-114 4 -140 4s-72.5 -1.33301 -139.5 -4s-123.167 -4 -168.5 -4c-42.667 -0 -97.167 1.33301 -163.5 4s-117.5 4 -153.5 4c-40 0 -132 -2.66699 -276 -8z" />
    <glyph glyph-name="afii10091" unicode="&#x449;" horiz-adv-x="1908" 
d="M50 0l0.00292969 43c48.667 0 82.667 10.5 102 31.5s29 59.5 29 115.5v677c0 56.667 -9.66699 95.5 -29 116.5s-53.333 31.5 -102 31.5v43c156 -6 246 -9 270 -9c24.667 0 110.667 3 258 9v-43c-38 0 -64.5 -10.5 -79.5 -31.5s-22.5 -59.833 -22.5 -116.5v-677
c0 -56 8 -94.5 24 -115.5s44.667 -31.5 86 -31.5h101c41.333 0 70.166 10.5 86.499 31.5s24.5 59.5 24.5 115.5v677c0 56.667 -7.5 95.5 -22.5 116.5s-41.5 31.5 -79.5 31.5v43c138 -6 219.333 -9 244 -9c22.667 0 107.667 3 255 9v-43c-38 0 -64.5 -10.5 -79.5 -31.5
s-22.5 -59.833 -22.5 -116.5v-677c0 -56 8 -94.5 24 -115.5s44.667 -31.5 86 -31.5h102c41.333 0 70 10.5 86 31.5s24 59.5 24 115.5v677c0 56.667 -7.5 95.5 -22.5 116.5s-41.5 31.5 -79.5 31.5v43c138 -6 220.667 -9 248 -9c24.667 0 118 3 280 9v-43
c-48.667 0 -82.667 -10.5 -102 -31.5s-29 -59.833 -29 -116.5v-677c0 -56 11.667 -94.5 35 -115.5s63.666 -31.5 120.999 -31.5c-10 -87.333 -15 -169.666 -15 -246.999c0 -50.667 2.33301 -90.334 7 -119.001h-48c-10.667 63.333 -23.167 114.833 -37.5 154.5
s-34 73 -59 100s-56 46 -93 57s-83.5 16.5 -139.5 16.5c-13.333 0 -45.666 -0.833008 -96.999 -2.5s-92 -2.5 -122 -2.5c-47.333 -0 -104.5 1.33301 -171.5 4s-113.5 4 -139.5 4c-26.667 0 -73.334 -1.33301 -140.001 -4s-122.667 -4 -168 -4
c-44.667 -0 -99.834 1.33301 -165.501 4s-116.167 4 -151.5 4c-40 0 -132 -2.66699 -276 -8z" />
    <glyph glyph-name="afii10092" unicode="&#x44a;" horiz-adv-x="1433" 
d="M52 1058c106 0 190.335 -0.666992 253.002 -2c45.333 -0.666992 105.833 -2 181.5 -4s124.5 -3 146.5 -3s108 3 258 9v-43c-48.667 0 -82.667 -10.5 -102 -31.5s-29 -59.833 -29 -116.5v-253c81.333 1.33301 136.666 2 165.999 2c156 0 272.833 -26.833 350.5 -80.5
s116.5 -124.167 116.5 -211.5c0 -32 -5.5 -63 -16.5 -93s-29.167 -59.167 -54.5 -87.5s-56.666 -53 -93.999 -74s-85 -37.833 -143 -50.5s-122.667 -19 -194 -19c-25.333 -0 -68.5 1.33301 -129.5 4s-110.5 4 -148.5 4c-42.667 0 -153.334 -2.66699 -332.001 -8v43
c64 0 110.667 9.83301 140 29.5s44 58.834 44 117.501v703c0 48 -5.66699 80.333 -17 97s-34.333 25 -69 25h-23c-59.333 0 -109.333 -30 -150 -90s-73.334 -157.667 -98.001 -293h-47c4 33.333 6 79.666 6 138.999c0 86 -5 181.667 -15 287zM759.002 147
c0 -41.333 7.33301 -69 22 -83s42.667 -21 84 -21c150 0 225 87.667 225 263c0 96 -22.667 164.833 -68 206.5s-121 62.5 -227 62.5h-36v-428z" />
    <glyph glyph-name="afii10093" unicode="&#x44b;" horiz-adv-x="1702" 
d="M57 0l-0.000976562 43c44 0 74.667 10.5 92 31.5s26 59.5 26 115.5v677c0 56.667 -8 95.5 -24 116.5s-44.667 31.5 -86 31.5v43c144 -6 229 -9 255 -9c25.333 0 119 3 281 9v-43c-48.667 0 -82.667 -10.5 -102 -31.5s-29 -59.833 -29 -116.5v-253
c70.667 1.33301 118.334 2 143.001 2c156 0 272.833 -26.833 350.5 -80.5s116.5 -124.167 116.5 -211.5c0 -32 -5.5 -63 -16.5 -93s-29.167 -59.167 -54.5 -87.5s-56.666 -53 -93.999 -74s-85 -37.833 -143 -50.5s-122.667 -19 -194 -19c-22.667 -0 -62 1.33301 -118 4
s-101.667 4 -137 4c-38.667 0 -127.334 -2.66699 -266.001 -8zM469.999 147c0 -41.333 5.66699 -69 17 -83s33 -21 65 -21c150 0 225 87.667 225 263c0 96 -22.667 164.833 -68 206.5s-121 62.5 -227 62.5h-12v-428zM1106 0v43c45.333 0 77 10.5 95 31.5s27 59.5 27 115.5
v677c0 56.667 -9 95.5 -27 116.5s-49.667 31.5 -95 31.5v43c156 -6 248 -9 276 -9c26 0 114 3 264 9v-43c-46 0 -78 -10.5 -96 -31.5s-27 -59.833 -27 -116.5v-677c0 -56 9.66699 -94.5 29 -115.5s53.333 -31.5 102 -31.5v-43c-144 5.33301 -238.667 8 -284 8
c-42.667 0 -130.667 -2.66699 -264 -8z" />
    <glyph glyph-name="afii10094" unicode="&#x44c;" horiz-adv-x="1144" 
d="M57 0l-0.00195312 43c44 0 74.667 10.5 92 31.5s26 59.5 26 115.5v677c0 56.667 -8 95.5 -24 116.5s-44.667 31.5 -86 31.5v43c144 -6 229 -9 255 -9c25.333 0 119 3 281 9v-43c-48.667 0 -82.667 -10.5 -102 -31.5s-29 -59.833 -29 -116.5v-253
c82.667 1.33301 138.334 2 167.001 2c156.667 0 273.667 -26.833 351 -80.5s116 -124.167 116 -211.5c0 -32 -5.5 -63 -16.5 -93s-29.167 -59.167 -54.5 -87.5s-56.666 -53 -93.999 -74s-84.833 -37.833 -142.5 -50.5s-122.167 -19 -193.5 -19
c-25.333 -0 -68.666 1.33301 -129.999 4s-111.333 4 -150 4s-127.334 -2.66699 -266.001 -8zM469.998 147c0 -41.333 7.33301 -69 22 -83s43 -21 85 -21c149.333 0 224 87.667 224 263c0 96 -22.5 164.833 -67.5 206.5s-120.5 62.5 -226.5 62.5h-37v-428z" />
    <glyph glyph-name="afii10095" unicode="&#x44d;" horiz-adv-x="1064" 
d="M69 186c0 40 14.166 72.4971 42.499 97.4971s66.833 37.5 115.5 37.5c48 0 87.333 -12 118 -36s46 -55.667 46 -95c0 -34.667 -12.167 -64.667 -36.5 -90s-54.166 -42.333 -89.499 -51c22 -19.333 59.333 -29 112 -29c32.667 0 63 4.66699 91 14s55.333 26 82 50
s49.334 55 68.001 93s33.667 87.333 45 148s17 130.334 17 209.001v36c-49.333 -72 -106 -108 -170 -108c-30.667 0 -67.834 12.167 -111.501 36.5s-79.167 36.5 -106.5 36.5c-19.333 0 -36.333 -4.5 -51 -13.5s-30.334 -25.5 -47.001 -49.5l-27 14
c23.333 59.333 48.833 103.666 76.5 132.999s61.167 44 100.5 44c28 0 65 -12 111 -36s87.667 -36 125 -36c36.667 0 69 11.667 97 35c-8.66699 136 -35.5 237.833 -80.5 305.5s-101.167 101.5 -168.5 101.5c-36 0 -72.167 -9.33301 -108.5 -28s-67.166 -44 -92.499 -76
c-34 -42 -56.667 -96.667 -68 -164h-47c0 154 -2.66699 261.667 -8 323h47c9.33301 -56 27.333 -84 54 -84c11.333 0 24 4.33301 38 13c32 16.667 56.833 28.834 74.5 36.501s43.5 15.334 77.5 23.001s70.333 11.5 109 11.5c147.333 0 265.166 -46.667 353.499 -140
s132.5 -227.666 132.5 -402.999c0 -186.667 -50.833 -329 -152.5 -427s-240.167 -147 -415.5 -147c-103.333 0 -186.666 18.667 -249.999 56c-68.667 40.667 -103 93.667 -103 159z" />
    <glyph glyph-name="afii10096" unicode="&#x44e;" horiz-adv-x="1697" 
d="M50 0v42.999c48.667 0 82.667 10.5 102 31.5s29 59.5 29 115.5v677c0 56.667 -9.66699 95.5 -29 116.5s-53.333 31.5 -102 31.5v43c156 -6 246 -9 270 -9c27.333 0 116 3 266 9v-43c-41.333 0 -70 -10.5 -86 -31.5s-24 -59.833 -24 -116.5v-320h181
c1.33301 96 14 179.167 38 249.5s57.667 126.333 101 168s93.333 72.5 150 92.5s121 30 193 30c72.667 0 137.5 -10.333 194.5 -31s107.333 -52.5 151 -95.5s77.167 -101 100.5 -174s35 -158.833 35 -257.5c0 -99.333 -11.667 -185.333 -35 -258
s-56.833 -130.667 -100.5 -174s-94 -75.166 -151 -95.499s-121.833 -30.5 -194.5 -30.5c-147.333 0 -263.5 42.667 -348.5 128s-129.5 221 -133.5 407h-181v-316c0 -56 8.66699 -94.5 26 -115.5s48 -31.5 92 -31.5v-43c-130.667 5.33301 -218 8 -262 8
s-138 -2.66699 -282 -8zM967 528.999c0 -344.667 57.333 -517 172 -517s172 172.333 172 517c0 345.333 -57.333 518 -172 518s-172 -172.667 -172 -518z" />
    <glyph glyph-name="afii10097" unicode="&#x44f;" horiz-adv-x="1189" 
d="M-29 0l-0.00195312 42.999c26 2 47.167 5.33301 63.5 10s29.833 12.334 40.5 23.001s18.5 21.167 23.5 31.5s11.833 26.5 20.5 48.5c39.333 104.667 65.333 168 78 190c11.333 20.667 24.666 37.667 39.999 51c40.667 42 107.334 70 200.001 84
c-219.333 23.333 -329 118 -329 284c0 94 36.833 166.333 110.5 217s194.834 76 363.501 76c30 0 75.333 -1.5 136 -4.5s110.334 -4.5 149.001 -4.5c21.333 0 110 3 266 9v-43c-44 0 -74.833 -10.5 -92.5 -31.5s-26.5 -59.833 -26.5 -116.5v-677
c0 -56 8.16699 -94.5 24.5 -115.5s45.166 -31.5 86.499 -31.5v-43c-128 5.33301 -212.667 8 -254 8c-42 0 -132.333 -2.66699 -271 -8v43c44 0 74.833 10.5 92.5 31.5s26.5 59.5 26.5 115.5v286h-39c-80.667 -6 -140 -28 -178 -66c-14 -14 -26.833 -31.833 -38.5 -53.5
s-20.667 -41.5 -27 -59.5s-14.5 -43 -24.5 -75s-18.333 -57 -25 -75c-20.667 -56.667 -52.167 -96.5 -94.5 -119.5s-105.166 -34.5 -188.499 -34.5c-42 0 -86.333 2.33301 -133 7zM409.998 776.999c0 -91.333 20.668 -157.002 62.001 -197.002s111.666 -60.333 210.999 -61
h36v391c0 40.667 -7.16699 68.334 -21.5 83.001s-40.833 22 -79.5 22c-41.333 0 -76.166 -6.33301 -104.499 -19s-49.833 -30.667 -64.5 -54s-24.834 -48.166 -30.501 -74.499s-8.5 -56.5 -8.5 -90.5z" />
    <glyph glyph-name="afii10071" unicode="&#x451;" horiz-adv-x="1033" 
d="M76 519c0 184 45.8311 324.83 137.498 422.497s212.834 146.5 363.501 146.5c256.667 0 385 -151.667 385 -455h-573c-2.66699 -26.667 -4 -59 -4 -97c0 -68.667 7.66699 -129.167 23 -181.5s36 -93.666 62 -123.999s54.333 -53 85 -68s63 -22.5 97 -22.5
c112.667 0 202.334 54.667 269.001 164l37 -14c-12.667 -40.667 -30.5 -79.167 -53.5 -115.5s-51 -70.166 -84 -101.499s-73 -56.166 -120 -74.499s-97.833 -27.5 -152.5 -27.5c-144 0 -258.667 46.167 -344 138.5s-128 228.833 -128 409.5zM179.998 1403
c0 41.333 15.167 77.333 45.5 108s66.5 46 108.5 46c41.333 0 77.5 -15.5 108.5 -46.5s46.5 -66.833 46.5 -107.5c0 -42 -15.5 -78.333 -46.5 -109s-67.167 -46 -108.5 -46c-42.667 0 -79 15.167 -109 45.5s-45 66.833 -45 109.5zM382.998 671.997h321
c2 106.667 -8.83301 195.334 -32.5 266.001s-59.167 106 -106.5 106c-48.667 0 -89.167 -30.333 -121.5 -91s-52.5 -154.334 -60.5 -281.001zM645.998 1403c0 41.333 15.167 77.333 45.5 108s66.5 46 108.5 46c41.333 0 77.5 -15.5 108.5 -46.5s46.5 -66.833 46.5 -107.5
c0 -42 -15.5 -78.333 -46.5 -109s-67.167 -46 -108.5 -46c-42.667 0 -79 15.167 -109 45.5s-45 66.833 -45 109.5z" />
    <glyph glyph-name="afii10099" unicode="&#x452;" horiz-adv-x="1221" 
d="M26 1102l0.00292969 41h145v214c0 62.667 -9.83301 108.334 -29.5 137.001s-53.5 43 -101.5 43v43c43.333 -4 85.666 -6 126.999 -6c120 0 219.667 9.33301 299 28v-459h325v-41h-325v-348c62 127.333 173.667 191 335 191c103.333 0 178.333 -26.667 225 -80
c23.333 -26 40 -59.5 50 -100.5s15 -96.167 15 -165.5v-406c0 -113.333 -9.83301 -206.5 -29.5 -279.5s-53.5 -135.167 -101.5 -186.5c-68.667 -74 -180.334 -111 -335.001 -111c-26 0 -51.667 2.33301 -77 7s-50.333 12.167 -75 22.5s-44.667 26 -60 47
s-23 45.833 -23 74.5c0 39.333 13.167 70 39.5 92s63.5 33 111.5 33c46 0 83.333 -11.667 112 -35s43 -53.333 43 -90c0 -49.333 -32 -86.333 -96 -111c36.667 0 64 6 82 18c44 6.66699 75.667 35.667 95 87c12.667 32.667 19 127.667 19 285v637
c0 56.667 -9.16699 99.5 -27.5 128.5s-51.5 43.5 -99.5 43.5c-56.667 0 -104.667 -22.333 -144 -67s-59 -101.334 -59 -170.001v-428c0 -56 8.16699 -94.5 24.5 -115.5s45.166 -31.5 86.499 -31.5v-43c-128 5.33301 -212.667 8 -254 8c-42 0 -136.333 -2.66699 -283 -8v43
c48.667 0 82.667 10.5 102 31.5s29 59.5 29 115.5v912h-145z" />
    <glyph glyph-name="afii10100" unicode="&#x453;" horiz-adv-x="956" 
d="M50 0v42.998c48.667 0 82.667 10.5 102 31.5s29 59.5 29 115.5v677c0 56.667 -9.66699 95.5 -29 116.5s-53.333 31.5 -102 31.5v43c156 -6 246 -9 270 -9c36.667 0 86.167 1.5 148.5 4.5s102.5 4.5 120.5 4.5h315c-9.33301 -108 -14 -203.667 -14 -287
c0 -59.333 2 -105.666 6 -138.999h-47c-24.667 135.333 -57.334 233 -98.001 293s-91 90 -151 90h-36c-32 0 -54.667 -9 -68 -27s-20 -50 -20 -96v-681c0 -63.333 15.833 -107.166 47.5 -131.499s79.834 -36.5 144.501 -36.5v-43c-189.333 5.33301 -306.666 8 -351.999 8
c-38.667 0 -127.334 -2.66699 -266.001 -8zM339 1245c33.333 60 61.833 119.5 85.5 178.5l57.5 141c14.667 35 31.667 64.167 51 87.5c26 32 58.667 48 98 48c27.333 0 51 -8.66699 71 -26c24.667 -20 37 -46.333 37 -79c0 -30 -10.667 -58 -32 -84
c-21.333 -26.667 -69 -66.667 -143 -120s-141.667 -108 -203 -164z" />
    <glyph glyph-name="afii10101" unicode="&#x454;" horiz-adv-x="1026" 
d="M75 520c0 182.667 46.5039 323 139.504 421s217.167 147 372.5 147c107.333 0 194 -21 260 -63c60.667 -38 91 -89.333 91 -154c0 -45.333 -15 -82.166 -45 -110.499s-69.333 -42.5 -118 -42.5c-46.667 0 -84.334 12.667 -113.001 38s-43 58.666 -43 99.999
c0 65.333 39 115.666 117 150.999c-26.667 26.667 -60.667 40 -102 40c-81.333 0 -145.333 -39.667 -192 -119s-70 -194 -70 -344c0 -29.333 1 -57 3 -83c54 87.333 118.333 131 193 131c30 0 65.5 -12.167 106.5 -36.5s75.167 -36.5 102.5 -36.5c36 0 67.667 21 95 63
l28 -15c-23.333 -59.333 -48.5 -103.666 -75.5 -132.999s-61.167 -44 -102.5 -44c-28.667 0 -64.334 12.167 -107.001 36.5s-82 36.5 -118 36.5c-44 0 -83 -18.667 -117 -56c14 -111.333 44.833 -190.333 92.5 -237s107.5 -70 179.5 -70
c113.333 0 203.666 55.667 270.999 167l36 -13c-14 -42.667 -31.5 -82 -52.5 -118s-47.833 -70 -80.5 -102s-73.334 -57.167 -122.001 -75.5s-102.667 -27.5 -162 -27.5c-64 0 -123.5 11 -178.5 33s-104.333 54.667 -148 98s-78 100.833 -103 172.5s-37.5 153.5 -37.5 245.5
z" />
    <glyph glyph-name="afii10102" unicode="&#x455;" horiz-adv-x="945" 
d="M93 -14c5.33301 78 8.00293 214.334 8.00293 409.001h44c28 -251.333 120 -377 276 -377c40 0 74 12.167 102 36.5s42 60.833 42 109.5c0 19.333 -2 37.666 -6 54.999s-11.5 34.5 -22.5 51.5s-20.833 31.167 -29.5 42.5s-23.334 26.166 -44.001 44.499
s-36.5 31.833 -47.5 40.5l-57.5 45l-57.5 45.5l-51 42.5c-23.667 20 -40.334 35.833 -50.001 47.5l-38.5 47.5c-16 20 -27.167 38.333 -33.5 55s-12.333 35.834 -18 57.501s-8.5 44.167 -8.5 67.5c0 87.333 34.167 156.166 102.5 206.499s151.5 75.5 249.5 75.5
c52 0 99.667 -6.5 143 -19.5s77.333 -27.5 102 -43.5c14.667 -9.33301 27 -14 37 -14c25.333 0 41.333 25 48 75h44c-6 -66.667 -9 -186.667 -9 -360h-43c-6 41.333 -14.667 79.333 -26 114s-27 68 -47 100s-46.167 57.167 -78.5 75.5s-69.5 27.5 -111.5 27.5
c-40.667 0 -74 -11.833 -100 -35.5s-39 -55.834 -39 -96.501c0 -20 3.66699 -39.5 11 -58.5s15.666 -35.167 24.999 -48.5s24 -29 44 -47s36.333 -31.833 49 -41.5l61.5 -45l61.5 -44.5c32.667 -24 59 -44 79 -60s41.833 -35.833 65.5 -59.5s41.834 -46.167 54.501 -67.5
s23.5 -46.166 32.5 -74.499s13.5 -58.166 13.5 -89.499c0 -91.333 -37.5 -164.833 -112.5 -220.5s-166.833 -83.5 -275.5 -83.5c-75.333 0 -139.333 14.333 -192 43c-44.667 22.667 -76.334 37 -95.001 43c-4 1.33301 -7 2 -9 2c-22 0 -38.667 -24.333 -50 -73h-43z" />
    <glyph glyph-name="afii10103" unicode="&#x456;" horiz-adv-x="646" 
d="M50 0v43c48.667 0 82.667 10.5 102 31.5s29 59.5 29 115.5v646c0 63.333 -9.83301 109.333 -29.5 138s-53.5 43 -101.5 43v43c50 -4.66699 92.333 -7 127 -7c116 0 215.667 9.66699 299 29v-892c0 -56 9.66699 -94.5 29 -115.5s53.333 -31.5 102 -31.5v-43
c-138.667 5.33301 -230 8 -274 8c-44.667 0 -139 -2.66699 -283 -8zM132 1430c0 48.667 16.833 87.167 50.5 115.5s79.167 42.5 136.5 42.5c56.667 0 101.834 -14.167 135.501 -42.5s50.5 -66.833 50.5 -115.5c0 -49.333 -16.833 -88.166 -50.5 -116.499
s-78.834 -42.5 -135.501 -42.5c-58 0 -103.667 14.167 -137 42.5s-50 67.166 -50 116.499z" />
    <glyph glyph-name="afii10104" unicode="&#x457;" horiz-adv-x="646" 
d="M-63 1403c0 41.333 15.167 77.333 45.5 108s66.5 46 108.5 46c41.333 0 77.5 -15.5 108.5 -46.5s46.5 -66.833 46.5 -107.5c0 -42 -15.5 -78.333 -46.5 -109s-67.167 -46 -108.5 -46c-42.667 0 -79 15.167 -109 45.5s-45 66.833 -45 109.5zM50 0v43
c48.667 0 82.667 10.5 102 31.5s29 59.5 29 115.5v646c0 63.333 -9.83301 109.333 -29.5 138s-53.5 43 -101.5 43v43c50 -4.66699 92.333 -7 127 -7c116 0 215.667 9.66699 299 29v-892c0 -56 9.66699 -94.5 29 -115.5s53.333 -31.5 102 -31.5v-43
c-138.667 5.33301 -230 8 -274 8c-44.667 0 -139 -2.66699 -283 -8zM403 1403c0 41.333 15.167 77.333 45.5 108s66.5 46 108.5 46c41.333 0 77.5 -15.5 108.5 -46.5s46.5 -66.833 46.5 -107.5c0 -42 -15.5 -78.333 -46.5 -109s-67.167 -46 -108.5 -46
c-42.667 0 -79 15.167 -109 45.5s-45 66.833 -45 109.5z" />
    <glyph glyph-name="afii10105" unicode="&#x458;" horiz-adv-x="608" 
d="M-259 -220c0 42 14.833 75.5 44.5 100.5s69.167 37.5 118.5 37.5c47.333 0 84.666 -11.167 111.999 -33.5s41 -54.833 41 -97.5c0 -28.667 -8.5 -54.667 -25.5 -78s-42.5 -41.333 -76.5 -54c16 -2 31.667 -3 47 -3c57.333 0 100 19.333 128 58
c16.667 24.667 27.667 61 33 109s8 123.333 8 226v791c0 63.333 -9.83301 109.333 -29.5 138s-53.5 43 -101.5 43v43c50 -4.66699 92.333 -7 127 -7c117.333 0 217 9.66699 299 29v-889c0 -115.333 -9.66699 -209.666 -29 -282.999s-53.333 -134.666 -102 -183.999
c-70.667 -74 -181 -111 -331 -111c-72 0 -132.667 12.333 -182 37c-25.333 13.333 -45.166 31.166 -59.499 53.499s-21.5 47.166 -21.5 74.499zM120 1425c0 49.333 16.667 88.166 50 116.499s79 42.5 137 42.5c56.667 0 101.834 -14.167 135.501 -42.5
s50.5 -67.166 50.5 -116.499c0 -48.667 -16.833 -87.167 -50.5 -115.5s-78.834 -42.5 -135.501 -42.5c-57.333 0 -102.833 14.167 -136.5 42.5s-50.5 66.833 -50.5 115.5z" />
    <glyph glyph-name="afii10106" unicode="&#x459;" horiz-adv-x="1761" 
d="M5 158c0 51.333 14.8291 91.6709 44.4961 121.004s69.167 44 118.5 44c43.333 0 78.666 -13.333 105.999 -40s41 -63.667 41 -111c0 -37.333 -12.333 -70.833 -37 -100.5s-55.667 -51.834 -93 -66.501c4.66699 -2 13.334 -3 26.001 -3c74.667 0 138 64.333 190 193
c32 80.667 56.333 176 73 286s30.334 238.667 41.001 386c0 2.66699 0.166992 6.16699 0.5 10.5s0.5 7.5 0.5 9.5c0 47.333 -13.167 80.5 -39.5 99.5s-67.5 28.5 -123.5 28.5v43c68.667 -6 114 -9 136 -9c23.333 0 57.5 1.5 102.5 4.5s78.833 4.5 101.5 4.5
c19.333 0 55.5 -1.5 108.5 -4.5s98.5 -4.5 136.5 -4.5c22 0 111 3 267 9v-43c-44.667 0 -75.5 -10.5 -92.5 -31.5s-25.5 -59.833 -25.5 -116.5v-253c81.333 1.33301 137 2 167 2c156 0 272.833 -26.833 350.5 -80.5s116.5 -124.167 116.5 -211.5c0 -32 -5.5 -63 -16.5 -93
s-29.167 -59.167 -54.5 -87.5s-56.666 -53 -93.999 -74s-85 -37.833 -143 -50.5s-122.667 -19 -194 -19c-25.333 0 -67.666 1.33301 -126.999 4s-108 4 -146 4c-43.333 0 -139.666 -2.66699 -288.999 -8v43c47.333 0 81.666 10.667 102.999 32s32 59.666 32 114.999v677
c0 56.667 -8.16699 95.5 -24.5 116.5s-45.166 31.5 -86.499 31.5h-18c-42 0 -69.667 -10 -83 -30s-22.666 -59.333 -27.999 -118c-8.66699 -104 -16.667 -187.667 -24 -251s-19 -136.5 -35 -219.5s-35.333 -153.167 -58 -210.5c-58 -143.333 -136 -215 -234 -215
c-32 0 -62.333 6.16699 -91 18.5s-53.334 33.166 -74.001 62.499s-31 64.666 -31 105.999zM1087 147.005c0 -41.333 7.33301 -69 22 -83s42.667 -21 84 -21c150 0 225 87.667 225 263c0 96 -22.667 164.833 -68 206.5s-121 62.5 -227 62.5h-36v-428z" />
    <glyph glyph-name="afii10107" unicode="&#x45a;" horiz-adv-x="1799" 
d="M50 0v43c48.667 0 82.667 10.5 102 31.5s29 59.5 29 115.5v677c0 56.667 -9.66699 95.5 -29 116.5s-53.333 31.5 -102 31.5v43c156 -6 246 -9 270 -9c27.333 0 116 3 266 9v-43c-41.333 0 -70 -10.5 -86 -31.5s-24 -59.833 -24 -116.5v-255h354v255
c0 56.667 -8.16699 95.5 -24.5 116.5s-45.166 31.5 -86.499 31.5v43c144 -6 228.667 -9 254 -9c23.333 0 117.666 3 282.999 9v-43c-48.667 0 -82.667 -10.5 -102 -31.5s-29 -59.833 -29 -116.5v-254c22.667 0 52.834 0.166992 90.501 0.5s63.167 0.5 76.5 0.5
c156.667 0 273.667 -26.5 351 -79.5s116 -123.167 116 -210.5c0 -32 -5.5 -63 -16.5 -93s-29.167 -59.167 -54.5 -87.5s-56.666 -53 -93.999 -74s-85 -37.833 -143 -50.5s-122.667 -19 -194 -19c-25.333 -0 -67.833 1.33301 -127.5 4s-108.834 4 -147.501 4
c-39.333 0 -127 -2.66699 -263 -8v43c41.333 0 70.166 10.5 86.499 31.5s24.5 59.5 24.5 115.5v381h-354v-381c0 -56 8 -94.5 24 -115.5s44.667 -31.5 86 -31.5v-43c-128 5.33301 -212.667 8 -254 8c-44 0 -138 -2.66699 -282 -8zM1125 147c0 -41.333 7.33301 -69 22 -83
s42.667 -21 84 -21c150 0 225 87.667 225 263c0 96 -22.667 164 -68 204s-121 60 -227 60h-36v-423z" />
    <glyph glyph-name="afii10108" unicode="&#x45b;" horiz-adv-x="1248" 
d="M26 1102l0.00292969 41h145v214c0 62.667 -9.83301 108.334 -29.5 137.001s-53.5 43 -101.5 43v43c43.333 -4 85.666 -6 126.999 -6c120 0 219.667 9.33301 299 28v-459h325v-41h-325v-348c62 127.333 173.667 191 335 191c103.333 0 178.333 -26.667 225 -80
c23.333 -26 40 -59.5 50 -100.5s15 -96.167 15 -165.5v-409c0 -56 9.66699 -94.5 29 -115.5s53.333 -31.5 102 -31.5v-43c-138.667 5.33301 -228.667 8 -270 8c-42 0 -131 -2.66699 -267 -8v43c41.333 0 70.166 10.5 86.499 31.5s24.5 59.5 24.5 115.5v493
c0 56.667 -9.16699 99.5 -27.5 128.5s-51.5 43.5 -99.5 43.5c-56.667 0 -104.667 -22.333 -144 -67s-59 -101.334 -59 -170.001v-428c0 -56 8.16699 -94.5 24.5 -115.5s45.166 -31.5 86.499 -31.5v-43c-128 5.33301 -212.667 8 -254 8c-42 0 -136.333 -2.66699 -283 -8v43
c48.667 0 82.667 10.5 102 31.5s29 59.5 29 115.5v912h-145z" />
    <glyph glyph-name="afii10109" unicode="&#x45c;" horiz-adv-x="1257" 
d="M50 0l-0.00488281 42.9971c48.667 0 82.667 10.5 102 31.5s29 59.5 29 115.5v677c0 56.667 -9.66699 95.5 -29 116.5s-53.333 31.5 -102 31.5v43c162 -6 256.333 -9 283 -9s115 3 265 9v-43c-45.333 0 -77 -10.5 -95 -31.5s-27 -59.833 -27 -116.5v-305
c45.333 2.66699 82.833 9.33398 112.5 20.001s54.167 27.334 73.5 50.001s34.333 46.834 45 72.501s22.334 61.167 35.001 106.5l19 66.5c4.66699 16.333 11.334 35.666 20.001 57.999s16.834 39.833 24.501 52.5s17.667 26.334 30 41.001s25.666 25.667 39.999 33
s31.333 13.5 51 18.5s41.5 7.5 65.5 7.5c64.667 0 113 -15 145 -45s48 -69.333 48 -118c0 -48 -14.167 -86 -42.5 -114s-65.166 -42 -110.499 -42c-44 0 -82.833 13 -116.5 39s-50.5 63.333 -50.5 112s24 86 72 112c-43.333 -5.33301 -74.166 -23.166 -92.499 -53.499
s-38.833 -85.833 -61.5 -166.5c-4 -15.333 -7.33301 -27.333 -10 -36c-18 -58 -36.667 -102.667 -56 -134s-48.333 -55.666 -87 -72.999c25.333 1.33301 43.666 2 54.999 2c142 0 243 -40 303 -120c16.667 -21.333 31.334 -47.333 44.001 -78s26.167 -67.834 40.5 -111.501
s26.833 -78.834 37.5 -105.501c16 -38.667 32.167 -66.167 48.5 -82.5s40.5 -26.5 72.5 -30.5v-43c-55.333 -8.66699 -104 -13 -146 -13c-80.667 0 -143.667 15.667 -189 47s-76.666 82.666 -93.999 153.999l-6 20c-3.33301 14 -5.66602 23.333 -6.99902 28l-8 29
c-4 14.667 -7.5 25.834 -10.5 33.501s-6.83301 18.334 -11.5 32.001s-9.16699 25.167 -13.5 34.5l-14.5 31c-5.33301 11.333 -11 21.666 -17 30.999s-12 18 -18 26c-39.333 49.333 -102 74 -188 74c-3.33301 0 -8.5 -0.166992 -15.5 -0.5s-12.5 -0.5 -16.5 -0.5v-336
c0 -56 9 -94.5 27 -115.5s49.667 -31.5 95 -31.5v-43c-138.667 5.33301 -230.334 8 -275.001 8c-43.333 0 -134.333 -2.66699 -273 -8zM528.995 1245c33.333 60 61.833 119.5 85.5 178.5l57.5 141c14.667 35 31.667 64.167 51 87.5c26 32 58.667 48 98 48
c27.333 0 51 -8.66699 71 -26c24.667 -20 37 -46.333 37 -79c0 -30 -10.667 -58 -32 -84c-21.333 -26.667 -69 -66.667 -143 -120s-141.667 -108 -203 -164z" />
    <glyph glyph-name="afii10110" unicode="&#x45e;" horiz-adv-x="1063" 
d="M-28 1017l0.00390625 43.001c86 -8.66699 179.667 -13 281 -13c88 0 182.667 4.33301 284 13v-43c-21.333 0 -37.833 -0.333008 -49.5 -1s-24.834 -2.83398 -39.501 -6.50098s-25.167 -9.66699 -31.5 -18s-9.5 -19.166 -9.5 -32.499c0 -14.667 5 -34 15 -58l251 -605
l141 395c22 64.667 33 119 33 163c0 51.333 -13.333 90.5 -40 117.5s-64 42.167 -112 45.5v43c56 -5.33301 122 -8 198 -8c72.667 0 125 2.66699 157 8v-43c-58 -14.667 -105 -73.334 -141 -176.001l-288 -809l-79 -220c-24.667 -68 -54.334 -116.667 -89.001 -146
c-40.667 -34 -100.334 -51 -179.001 -51c-56.667 0 -107.834 14 -153.501 42s-68.5 69 -68.5 123c0 42 14.833 75.5 44.5 100.5s69.167 37.5 118.5 37.5c46.667 0 83.834 -11.167 111.501 -33.5s41.5 -54.5 41.5 -96.5c0 -28 -8.83301 -54 -26.5 -78
s-42.834 -41.667 -75.501 -53c9.33301 -2.66699 25 -4 47 -4c86.667 0 148.667 54.333 186 163l34 99l-434 987c-36 76.667 -78.333 115 -127 115zM98.0039 1481c0 44 13.832 80 41.499 108s63.834 42 108.501 42c43.333 0 79.5 -14 108.5 -42s43.5 -64.333 43.5 -109
c0 -35.333 -10.333 -65.5 -31 -90.5s-48 -42.833 -82 -53.5c60.667 -32 140.334 -48 239.001 -48c99.333 0 178.666 16.333 237.999 49c-34 10 -60.833 27.5 -80.5 52.5s-29.5 55.167 -29.5 90.5c0 44.667 14.333 81 43 109s65 42 109 42s80 -14 108 -42s42 -64 42 -108
c0 -33.333 -10.167 -64 -30.5 -92s-46.833 -51.333 -79.5 -70c-81.333 -48 -188 -72 -320 -72c-132.667 0 -239.667 24 -321 72c-32 18.667 -57.833 42 -77.5 70s-29.5 58.667 -29.5 92z" />
    <glyph glyph-name="afii10193" unicode="&#x45f;" horiz-adv-x="1305" 
d="M50 0l0.00292969 42.9971c48.667 0 82.667 10.5 102 31.5s29 59.5 29 115.5v677c0 56.667 -9.66699 95.5 -29 116.5s-53.333 31.5 -102 31.5v43c156 -6 246 -9 270 -9c27.333 0 116 3 266 9v-43c-41.333 0 -70 -10.5 -86 -31.5s-24 -59.833 -24 -116.5v-677
c0 -56 8 -94.5 24 -115.5s44.667 -31.5 86 -31.5h133c41.333 0 70.166 10.5 86.499 31.5s24.5 59.5 24.5 115.5v677c0 56.667 -8.16699 95.5 -24.5 116.5s-45.166 31.5 -86.499 31.5v43c144 -6 228.667 -9 254 -9c23.333 0 117.666 3 282.999 9v-43
c-48.667 0 -82.667 -10.5 -102 -31.5s-29 -59.833 -29 -116.5v-677c0 -56 9.66699 -94.5 29 -115.5s53.333 -31.5 102 -31.5v-43c-138.667 5.33301 -228.667 8 -270 8c-37.333 0 -69.833 -2.5 -97.5 -7.5s-51.834 -13.5 -72.501 -25.5s-38 -26 -52 -42
s-26.333 -37.333 -37 -64s-19.334 -54.667 -26.001 -84s-13.667 -65.666 -21 -108.999h-47c-8 52.667 -16.333 95.334 -25 128.001s-20.167 63.334 -34.5 92.001s-32 50.5 -53 65.5s-47 26.5 -78 34.5s-68.833 12 -113.5 12s-137.667 -2.66699 -279 -8z" />
    <glyph glyph-name="afii10050" unicode="&#x490;" horiz-adv-x="1130" 
d="M69 0l0.00195312 41.0029c34.667 1.33301 61 4.16602 79 8.49902s33.167 13.166 45.5 26.499s20.166 30.5 23.499 51.5s5 50.833 5 89.5v1016c0 39.333 -1.66699 69.333 -5 90s-11.166 37.667 -23.499 51s-27.5 22.166 -45.5 26.499s-44.333 7.16602 -79 8.49902v41
c140 -4.66699 263.333 -7 370 -7c32 0 76.833 1.16699 134.5 3.5s96.167 3.5 115.5 3.5c95.333 0 174 27.5 236 82.5s103.333 135.167 124 240.5h47c-4 -35.333 -6 -82 -6 -140c0 -86.667 5 -164.667 15 -234c-78 2.66699 -208.333 4 -391 4c-70.667 0 -116 -10 -136 -30
s-30 -66.667 -30 -140v-1016c0 -38.667 2.16699 -68.667 6.5 -90s13.833 -38.5 28.5 -51.5s32.667 -21.667 54 -26s52.333 -7.16602 93 -8.49902v-41c-78.667 4 -191.334 6 -338.001 6s-254.334 -2 -323.001 -6z" />
    <glyph glyph-name="afii10098" unicode="&#x491;" horiz-adv-x="940" 
d="M50 0l-0.00195312 42.998c48.667 0 82.667 10.5 102 31.5s29 59.5 29 115.5v677c0 56.667 -9.66699 95.5 -29 116.5s-53.333 31.5 -102 31.5v43c156 -6 246 -9 270 -9c37.333 0 116 3 236 9c89.333 3.33301 156.333 28 201 74s75.334 128.667 92.001 248h47
c-4 -31.333 -6 -73.666 -6 -126.999c0 -68 4.66699 -147.333 14 -238h-281c-56 0 -94.5 -10.333 -115.5 -31s-31.5 -59.667 -31.5 -117v-656c0 -63.333 15.833 -107.166 47.5 -131.499s79.834 -36.5 144.501 -36.5v-43c-189.333 5.33301 -306.666 8 -351.999 8
c-38.667 0 -127.334 -2.66699 -266.001 -8z" />
    <glyph glyph-name="uni2000" unicode="&#x2000;" horiz-adv-x="968" 
 />
    <glyph glyph-name="uni2001" unicode="&#x2001;" horiz-adv-x="1936" 
 />
    <glyph glyph-name="uni2002" unicode="&#x2002;" horiz-adv-x="968" 
 />
    <glyph glyph-name="uni2003" unicode="&#x2003;" horiz-adv-x="1936" 
 />
    <glyph glyph-name="uni2004" unicode="&#x2004;" horiz-adv-x="645" 
 />
    <glyph glyph-name="uni2005" unicode="&#x2005;" horiz-adv-x="484" 
 />
    <glyph glyph-name="uni2006" unicode="&#x2006;" horiz-adv-x="322" 
 />
    <glyph glyph-name="uni2007" unicode="&#x2007;" horiz-adv-x="322" 
 />
    <glyph glyph-name="uni2008" unicode="&#x2008;" horiz-adv-x="242" 
 />
    <glyph glyph-name="uni2009" unicode="&#x2009;" horiz-adv-x="387" 
 />
    <glyph glyph-name="uni200A" unicode="&#x200a;" horiz-adv-x="107" 
 />
    <glyph glyph-name="uni2010" unicode="&#x2010;" 
d="M123 469v170h739v-170h-739z" />
    <glyph glyph-name="uni2011" unicode="&#x2011;" 
d="M123 469v170h739v-170h-739z" />
    <glyph glyph-name="figuredash" unicode="&#x2012;" 
d="M123 469v170h739v-170h-739z" />
    <glyph glyph-name="endash" unicode="&#x2013;" horiz-adv-x="1233" 
d="M115 452v204h1004v-204h-1004z" />
    <glyph glyph-name="emdash" unicode="&#x2014;" horiz-adv-x="1833" 
d="M115 452v204h1603v-204h-1603z" />
    <glyph glyph-name="quoteleft" unicode="&#x2018;" horiz-adv-x="529" 
d="M91 1162c0 70.667 18.001 134.83 54.001 192.497s89.333 102.834 160 135.501l19 -37c-38.667 -17.333 -72.5 -42.833 -101.5 -76.5s-46.833 -68.5 -53.5 -104.5c-3.33301 -13.333 -5 -28.666 -5 -45.999c0 -14.667 1.33301 -27.667 4 -39
c30.667 32.667 70.667 49 120 49c48 0 86.833 -14 116.5 -42s44.5 -66.667 44.5 -116c0 -47.333 -15.833 -85.666 -47.5 -114.999s-71.834 -44 -120.501 -44c-65.333 0 -114 24 -146 72c-29.333 44 -44 101 -44 171z" />
    <glyph glyph-name="quoteright" unicode="&#x2019;" horiz-adv-x="518" 
d="M76 1320c0 47.333 15.832 85.6699 47.499 115.003s71.834 44 120.501 44c65.333 0 114 -24 146 -72c29.333 -44 44 -101 44 -171c0 -70.667 -18 -134.834 -54 -192.501s-89.333 -102.834 -160 -135.501l-19 37c38.667 17.333 72.5 42.833 101.5 76.5
s46.833 68.5 53.5 104.5c3.33301 13.333 5 28.666 5 45.999c0 14.667 -1.33301 27.667 -4 39c-30.667 -32.667 -70.667 -49 -120 -49c-48 0 -86.833 14 -116.5 42s-44.5 66.667 -44.5 116z" />
    <glyph glyph-name="quotesinglbase" unicode="&#x201a;" horiz-adv-x="555" 
d="M101 129c0 47.333 15.832 85.6699 47.499 115.003s71.834 44 120.501 44c65.333 0 114 -24 146 -72c29.333 -44 44 -101 44 -171c0 -70.667 -18 -134.834 -54 -192.501s-89.333 -102.834 -160 -135.501l-19 37c38.667 17.333 72.5 42.833 101.5 76.5
s46.833 68.5 53.5 104.5c3.33301 13.333 5 28.666 5 45.999c0 14.667 -1.33301 27.667 -4 39c-30.667 -32.667 -70.667 -49 -120 -49c-48 0 -86.833 14 -116.5 42s-44.5 66.667 -44.5 116z" />
    <glyph glyph-name="quotedblleft" unicode="&#x201c;" horiz-adv-x="951" 
d="M91 1161c0 70.667 18.001 134.832 54.001 192.499s89.667 102.834 161 135.501l18 -37c-38.667 -17.333 -72.5 -42.833 -101.5 -76.5s-46.5 -68.5 -52.5 -104.5c-4 -16.667 -6 -32.334 -6 -47.001c0 -14 1.33301 -26.667 4 -38c30.667 32.667 70.667 49 120 49
c48 0 86.833 -14 116.5 -42s44.5 -66.667 44.5 -116c0 -47.333 -15.833 -85.666 -47.5 -114.999s-71.834 -44 -120.501 -44c-66 0 -114.333 24 -145 72c-30 43.333 -45 100.333 -45 171zM513.001 1161c0 70.667 18.001 134.83 54.001 192.497s89.333 102.834 160 135.501
l19 -37c-38.667 -17.333 -72.5 -42.833 -101.5 -76.5s-46.833 -68.5 -53.5 -104.5c-3.33301 -13.333 -5 -28.666 -5 -45.999c0 -14.667 1.33301 -27.667 4 -39c30.667 32.667 70.667 49 120 49c48 0 86.833 -14 116.5 -42s44.5 -66.667 44.5 -116
c0 -47.333 -15.833 -85.666 -47.5 -114.999s-71.834 -44 -120.501 -44c-65.333 0 -114 24 -146 72c-29.333 44 -44 101 -44 171z" />
    <glyph glyph-name="quotedblright" unicode="&#x201d;" horiz-adv-x="940" 
d="M76 1320c0 47.333 15.832 85.6699 47.499 115.003s71.834 44 120.501 44c65.333 0 114 -24 146 -72c29.333 -44 44 -101 44 -171c0 -70.667 -18 -134.834 -54 -192.501s-89.333 -102.834 -160 -135.501l-19 37c38.667 17.333 72.5 42.833 101.5 76.5
s46.833 68.5 53.5 104.5c3.33301 13.333 5 28.666 5 45.999c0 14.667 -1.33301 27.667 -4 39c-30.667 -32.667 -70.667 -49 -120 -49c-48 0 -86.833 14 -116.5 42s-44.5 66.667 -44.5 116zM497.999 1320c0 47.333 15.832 85.6689 47.499 115.002s71.834 44 120.501 44
c66 0 114.333 -24 145 -72c30 -43.333 45 -100.333 45 -171s-18 -134.834 -54 -192.501s-89.667 -102.834 -161 -135.501l-18 37c38.667 17.333 72.5 42.833 101.5 76.5s46.5 68.5 52.5 104.5c4 17.333 6 33 6 47s-1.33301 26.667 -4 38
c-30.667 -32.667 -70.667 -49 -120 -49c-48 0 -86.833 14 -116.5 42s-44.5 66.667 -44.5 116z" />
    </font>
</defs>
</svg>
